<?xml version="1.0" encoding="utf-8" standalone="no"?>
<!DOCTYPE svg PUBLIC "-//W3C//DTD SVG 1.1//EN"
  "http://www.w3.org/Graphics/SVG/1.1/DTD/svg11.dtd">
<svg xmlns:xlink="http://www.w3.org/1999/xlink" width="501.454844pt" height="375.733156pt" viewBox="0 0 501.454844 375.733156" xmlns="http://www.w3.org/2000/svg" version="1.1">
 <metadata>
  <rdf:RDF xmlns:dc="http://purl.org/dc/elements/1.1/" xmlns:cc="http://creativecommons.org/ns#" xmlns:rdf="http://www.w3.org/1999/02/22-rdf-syntax-ns#">
   <cc:Work>
    <dc:type rdf:resource="http://purl.org/dc/dcmitype/StillImage"/>
    <dc:date>2023-05-11T16:25:49.938774</dc:date>
    <dc:format>image/svg+xml</dc:format>
    <dc:creator>
     <cc:Agent>
      <dc:title>Matplotlib v3.7.1, https://matplotlib.org/</dc:title>
     </cc:Agent>
    </dc:creator>
   </cc:Work>
  </rdf:RDF>
 </metadata>
 <defs>
  <style type="text/css">*{stroke-linejoin: round; stroke-linecap: butt}</style>
 </defs>
 <g id="figure_1">
  <g id="patch_1">
   <path d="M 0 375.733156 
L 501.454844 375.733156 
L 501.454844 0 
L 0 0 
z
" style="fill: #ffffff"/>
  </g>
  <g id="axes_1">
   <g id="patch_2">
    <path d="M 47.854844 326.855625 
L 494.254844 326.855625 
L 494.254844 21.935625 
L 47.854844 21.935625 
z
" style="fill: #ffffff"/>
   </g>
   <g id="matplotlib.axis_1">
    <g id="xtick_1">
     <g id="line2d_1"/>
     <g id="text_1">
      <!-- -200 -->
      <g style="fill: #262626" transform="translate(62.898247 353.067937) rotate(-45) scale(0.1 -0.1)">
       <defs>
        <path id="ArialMT-2d" d="M 203 1375 
L 203 1941 
L 1931 1941 
L 1931 1375 
L 203 1375 
z
" transform="scale(0.015625)"/>
        <path id="ArialMT-32" d="M 3222 541 
L 3222 0 
L 194 0 
Q 188 203 259 391 
Q 375 700 629 1000 
Q 884 1300 1366 1694 
Q 2113 2306 2375 2664 
Q 2638 3022 2638 3341 
Q 2638 3675 2398 3904 
Q 2159 4134 1775 4134 
Q 1369 4134 1125 3890 
Q 881 3647 878 3216 
L 300 3275 
Q 359 3922 746 4261 
Q 1134 4600 1788 4600 
Q 2447 4600 2831 4234 
Q 3216 3869 3216 3328 
Q 3216 3053 3103 2787 
Q 2991 2522 2730 2228 
Q 2469 1934 1863 1422 
Q 1356 997 1212 845 
Q 1069 694 975 541 
L 3222 541 
z
" transform="scale(0.015625)"/>
        <path id="ArialMT-30" d="M 266 2259 
Q 266 3072 433 3567 
Q 600 4063 929 4331 
Q 1259 4600 1759 4600 
Q 2128 4600 2406 4451 
Q 2684 4303 2865 4023 
Q 3047 3744 3150 3342 
Q 3253 2941 3253 2259 
Q 3253 1453 3087 958 
Q 2922 463 2592 192 
Q 2263 -78 1759 -78 
Q 1097 -78 719 397 
Q 266 969 266 2259 
z
M 844 2259 
Q 844 1131 1108 757 
Q 1372 384 1759 384 
Q 2147 384 2411 759 
Q 2675 1134 2675 2259 
Q 2675 3391 2411 3762 
Q 2147 4134 1753 4134 
Q 1366 4134 1134 3806 
Q 844 3388 844 2259 
z
" transform="scale(0.015625)"/>
       </defs>
       <use xlink:href="#ArialMT-2d"/>
       <use xlink:href="#ArialMT-32" x="33.300781"/>
       <use xlink:href="#ArialMT-30" x="88.916016"/>
       <use xlink:href="#ArialMT-30" x="144.53125"/>
      </g>
     </g>
    </g>
    <g id="xtick_2">
     <g id="line2d_2"/>
     <g id="text_2">
      <!-- -190 -->
      <g style="fill: #262626" transform="translate(79.196166 353.067937) rotate(-45) scale(0.1 -0.1)">
       <defs>
        <path id="ArialMT-31" d="M 2384 0 
L 1822 0 
L 1822 3584 
Q 1619 3391 1289 3197 
Q 959 3003 697 2906 
L 697 3450 
Q 1169 3672 1522 3987 
Q 1875 4303 2022 4600 
L 2384 4600 
L 2384 0 
z
" transform="scale(0.015625)"/>
        <path id="ArialMT-39" d="M 350 1059 
L 891 1109 
Q 959 728 1153 556 
Q 1347 384 1650 384 
Q 1909 384 2104 503 
Q 2300 622 2425 820 
Q 2550 1019 2634 1356 
Q 2719 1694 2719 2044 
Q 2719 2081 2716 2156 
Q 2547 1888 2255 1720 
Q 1963 1553 1622 1553 
Q 1053 1553 659 1965 
Q 266 2378 266 3053 
Q 266 3750 677 4175 
Q 1088 4600 1706 4600 
Q 2153 4600 2523 4359 
Q 2894 4119 3086 3673 
Q 3278 3228 3278 2384 
Q 3278 1506 3087 986 
Q 2897 466 2520 194 
Q 2144 -78 1638 -78 
Q 1100 -78 759 220 
Q 419 519 350 1059 
z
M 2653 3081 
Q 2653 3566 2395 3850 
Q 2138 4134 1775 4134 
Q 1400 4134 1122 3828 
Q 844 3522 844 3034 
Q 844 2597 1108 2323 
Q 1372 2050 1759 2050 
Q 2150 2050 2401 2323 
Q 2653 2597 2653 3081 
z
" transform="scale(0.015625)"/>
       </defs>
       <use xlink:href="#ArialMT-2d"/>
       <use xlink:href="#ArialMT-31" x="33.300781"/>
       <use xlink:href="#ArialMT-39" x="88.916016"/>
       <use xlink:href="#ArialMT-30" x="144.53125"/>
      </g>
     </g>
    </g>
    <g id="xtick_3">
     <g id="line2d_3"/>
     <g id="text_3">
      <!-- -180 -->
      <g style="fill: #262626" transform="translate(95.494085 353.067937) rotate(-45) scale(0.1 -0.1)">
       <defs>
        <path id="ArialMT-38" d="M 1131 2484 
Q 781 2613 612 2850 
Q 444 3088 444 3419 
Q 444 3919 803 4259 
Q 1163 4600 1759 4600 
Q 2359 4600 2725 4251 
Q 3091 3903 3091 3403 
Q 3091 3084 2923 2848 
Q 2756 2613 2416 2484 
Q 2838 2347 3058 2040 
Q 3278 1734 3278 1309 
Q 3278 722 2862 322 
Q 2447 -78 1769 -78 
Q 1091 -78 675 323 
Q 259 725 259 1325 
Q 259 1772 486 2073 
Q 713 2375 1131 2484 
z
M 1019 3438 
Q 1019 3113 1228 2906 
Q 1438 2700 1772 2700 
Q 2097 2700 2305 2904 
Q 2513 3109 2513 3406 
Q 2513 3716 2298 3927 
Q 2084 4138 1766 4138 
Q 1444 4138 1231 3931 
Q 1019 3725 1019 3438 
z
M 838 1322 
Q 838 1081 952 856 
Q 1066 631 1291 507 
Q 1516 384 1775 384 
Q 2178 384 2440 643 
Q 2703 903 2703 1303 
Q 2703 1709 2433 1975 
Q 2163 2241 1756 2241 
Q 1359 2241 1098 1978 
Q 838 1716 838 1322 
z
" transform="scale(0.015625)"/>
       </defs>
       <use xlink:href="#ArialMT-2d"/>
       <use xlink:href="#ArialMT-31" x="33.300781"/>
       <use xlink:href="#ArialMT-38" x="88.916016"/>
       <use xlink:href="#ArialMT-30" x="144.53125"/>
      </g>
     </g>
    </g>
    <g id="xtick_4">
     <g id="line2d_4"/>
     <g id="text_4">
      <!-- -170 -->
      <g style="fill: #262626" transform="translate(111.792004 353.067937) rotate(-45) scale(0.1 -0.1)">
       <defs>
        <path id="ArialMT-37" d="M 303 3981 
L 303 4522 
L 3269 4522 
L 3269 4084 
Q 2831 3619 2401 2847 
Q 1972 2075 1738 1259 
Q 1569 684 1522 0 
L 944 0 
Q 953 541 1156 1306 
Q 1359 2072 1739 2783 
Q 2119 3494 2547 3981 
L 303 3981 
z
" transform="scale(0.015625)"/>
       </defs>
       <use xlink:href="#ArialMT-2d"/>
       <use xlink:href="#ArialMT-31" x="33.300781"/>
       <use xlink:href="#ArialMT-37" x="88.916016"/>
       <use xlink:href="#ArialMT-30" x="144.53125"/>
      </g>
     </g>
    </g>
    <g id="xtick_5">
     <g id="line2d_5"/>
     <g id="text_5">
      <!-- -160 -->
      <g style="fill: #262626" transform="translate(128.089923 353.067937) rotate(-45) scale(0.1 -0.1)">
       <defs>
        <path id="ArialMT-36" d="M 3184 3459 
L 2625 3416 
Q 2550 3747 2413 3897 
Q 2184 4138 1850 4138 
Q 1581 4138 1378 3988 
Q 1113 3794 959 3422 
Q 806 3050 800 2363 
Q 1003 2672 1297 2822 
Q 1591 2972 1913 2972 
Q 2475 2972 2870 2558 
Q 3266 2144 3266 1488 
Q 3266 1056 3080 686 
Q 2894 316 2569 119 
Q 2244 -78 1831 -78 
Q 1128 -78 684 439 
Q 241 956 241 2144 
Q 241 3472 731 4075 
Q 1159 4600 1884 4600 
Q 2425 4600 2770 4297 
Q 3116 3994 3184 3459 
z
M 888 1484 
Q 888 1194 1011 928 
Q 1134 663 1356 523 
Q 1578 384 1822 384 
Q 2178 384 2434 671 
Q 2691 959 2691 1453 
Q 2691 1928 2437 2201 
Q 2184 2475 1800 2475 
Q 1419 2475 1153 2201 
Q 888 1928 888 1484 
z
" transform="scale(0.015625)"/>
       </defs>
       <use xlink:href="#ArialMT-2d"/>
       <use xlink:href="#ArialMT-31" x="33.300781"/>
       <use xlink:href="#ArialMT-36" x="88.916016"/>
       <use xlink:href="#ArialMT-30" x="144.53125"/>
      </g>
     </g>
    </g>
    <g id="xtick_6">
     <g id="line2d_6"/>
     <g id="text_6">
      <!-- -150 -->
      <g style="fill: #262626" transform="translate(144.387842 353.067937) rotate(-45) scale(0.1 -0.1)">
       <defs>
        <path id="ArialMT-35" d="M 266 1200 
L 856 1250 
Q 922 819 1161 601 
Q 1400 384 1738 384 
Q 2144 384 2425 690 
Q 2706 997 2706 1503 
Q 2706 1984 2436 2262 
Q 2166 2541 1728 2541 
Q 1456 2541 1237 2417 
Q 1019 2294 894 2097 
L 366 2166 
L 809 4519 
L 3088 4519 
L 3088 3981 
L 1259 3981 
L 1013 2750 
Q 1425 3038 1878 3038 
Q 2478 3038 2890 2622 
Q 3303 2206 3303 1553 
Q 3303 931 2941 478 
Q 2500 -78 1738 -78 
Q 1113 -78 717 272 
Q 322 622 266 1200 
z
" transform="scale(0.015625)"/>
       </defs>
       <use xlink:href="#ArialMT-2d"/>
       <use xlink:href="#ArialMT-31" x="33.300781"/>
       <use xlink:href="#ArialMT-35" x="88.916016"/>
       <use xlink:href="#ArialMT-30" x="144.53125"/>
      </g>
     </g>
    </g>
    <g id="xtick_7">
     <g id="line2d_7"/>
     <g id="text_7">
      <!-- -140 -->
      <g style="fill: #262626" transform="translate(160.685761 353.067937) rotate(-45) scale(0.1 -0.1)">
       <defs>
        <path id="ArialMT-34" d="M 2069 0 
L 2069 1097 
L 81 1097 
L 81 1613 
L 2172 4581 
L 2631 4581 
L 2631 1613 
L 3250 1613 
L 3250 1097 
L 2631 1097 
L 2631 0 
L 2069 0 
z
M 2069 1613 
L 2069 3678 
L 634 1613 
L 2069 1613 
z
" transform="scale(0.015625)"/>
       </defs>
       <use xlink:href="#ArialMT-2d"/>
       <use xlink:href="#ArialMT-31" x="33.300781"/>
       <use xlink:href="#ArialMT-34" x="88.916016"/>
       <use xlink:href="#ArialMT-30" x="144.53125"/>
      </g>
     </g>
    </g>
    <g id="xtick_8">
     <g id="line2d_8"/>
     <g id="text_8">
      <!-- -130 -->
      <g style="fill: #262626" transform="translate(176.98368 353.067937) rotate(-45) scale(0.1 -0.1)">
       <defs>
        <path id="ArialMT-33" d="M 269 1209 
L 831 1284 
Q 928 806 1161 595 
Q 1394 384 1728 384 
Q 2125 384 2398 659 
Q 2672 934 2672 1341 
Q 2672 1728 2419 1979 
Q 2166 2231 1775 2231 
Q 1616 2231 1378 2169 
L 1441 2663 
Q 1497 2656 1531 2656 
Q 1891 2656 2178 2843 
Q 2466 3031 2466 3422 
Q 2466 3731 2256 3934 
Q 2047 4138 1716 4138 
Q 1388 4138 1169 3931 
Q 950 3725 888 3313 
L 325 3413 
Q 428 3978 793 4289 
Q 1159 4600 1703 4600 
Q 2078 4600 2393 4439 
Q 2709 4278 2876 4000 
Q 3044 3722 3044 3409 
Q 3044 3113 2884 2869 
Q 2725 2625 2413 2481 
Q 2819 2388 3044 2092 
Q 3269 1797 3269 1353 
Q 3269 753 2831 336 
Q 2394 -81 1725 -81 
Q 1122 -81 723 278 
Q 325 638 269 1209 
z
" transform="scale(0.015625)"/>
       </defs>
       <use xlink:href="#ArialMT-2d"/>
       <use xlink:href="#ArialMT-31" x="33.300781"/>
       <use xlink:href="#ArialMT-33" x="88.916016"/>
       <use xlink:href="#ArialMT-30" x="144.53125"/>
      </g>
     </g>
    </g>
    <g id="xtick_9">
     <g id="line2d_9"/>
     <g id="text_9">
      <!-- -120 -->
      <g style="fill: #262626" transform="translate(193.281599 353.067937) rotate(-45) scale(0.1 -0.1)">
       <use xlink:href="#ArialMT-2d"/>
       <use xlink:href="#ArialMT-31" x="33.300781"/>
       <use xlink:href="#ArialMT-32" x="88.916016"/>
       <use xlink:href="#ArialMT-30" x="144.53125"/>
      </g>
     </g>
    </g>
    <g id="xtick_10">
     <g id="line2d_10"/>
     <g id="text_10">
      <!-- -110 -->
      <g style="fill: #262626" transform="translate(209.840263 352.546446) rotate(-45) scale(0.1 -0.1)">
       <use xlink:href="#ArialMT-2d"/>
       <use xlink:href="#ArialMT-31" x="33.300781"/>
       <use xlink:href="#ArialMT-31" x="81.541016"/>
       <use xlink:href="#ArialMT-30" x="137.15625"/>
      </g>
     </g>
    </g>
    <g id="xtick_11">
     <g id="line2d_11"/>
     <g id="text_11">
      <!-- -100 -->
      <g style="fill: #262626" transform="translate(225.877437 353.067937) rotate(-45) scale(0.1 -0.1)">
       <use xlink:href="#ArialMT-2d"/>
       <use xlink:href="#ArialMT-31" x="33.300781"/>
       <use xlink:href="#ArialMT-30" x="88.916016"/>
       <use xlink:href="#ArialMT-30" x="144.53125"/>
      </g>
     </g>
    </g>
    <g id="xtick_12">
     <g id="line2d_12"/>
     <g id="text_12">
      <!-- -90 -->
      <g style="fill: #262626" transform="translate(244.141444 349.135761) rotate(-45) scale(0.1 -0.1)">
       <use xlink:href="#ArialMT-2d"/>
       <use xlink:href="#ArialMT-39" x="33.300781"/>
       <use xlink:href="#ArialMT-30" x="88.916016"/>
      </g>
     </g>
    </g>
    <g id="xtick_13">
     <g id="line2d_13"/>
     <g id="text_13">
      <!-- -80 -->
      <g style="fill: #262626" transform="translate(260.439363 349.135761) rotate(-45) scale(0.1 -0.1)">
       <use xlink:href="#ArialMT-2d"/>
       <use xlink:href="#ArialMT-38" x="33.300781"/>
       <use xlink:href="#ArialMT-30" x="88.916016"/>
      </g>
     </g>
    </g>
    <g id="xtick_14">
     <g id="line2d_14"/>
     <g id="text_14">
      <!-- -70 -->
      <g style="fill: #262626" transform="translate(276.737282 349.135761) rotate(-45) scale(0.1 -0.1)">
       <use xlink:href="#ArialMT-2d"/>
       <use xlink:href="#ArialMT-37" x="33.300781"/>
       <use xlink:href="#ArialMT-30" x="88.916016"/>
      </g>
     </g>
    </g>
    <g id="xtick_15">
     <g id="line2d_15"/>
     <g id="text_15">
      <!-- -60 -->
      <g style="fill: #262626" transform="translate(293.035201 349.135761) rotate(-45) scale(0.1 -0.1)">
       <use xlink:href="#ArialMT-2d"/>
       <use xlink:href="#ArialMT-36" x="33.300781"/>
       <use xlink:href="#ArialMT-30" x="88.916016"/>
      </g>
     </g>
    </g>
    <g id="xtick_16">
     <g id="line2d_16"/>
     <g id="text_16">
      <!-- -50 -->
      <g style="fill: #262626" transform="translate(309.33312 349.135761) rotate(-45) scale(0.1 -0.1)">
       <use xlink:href="#ArialMT-2d"/>
       <use xlink:href="#ArialMT-35" x="33.300781"/>
       <use xlink:href="#ArialMT-30" x="88.916016"/>
      </g>
     </g>
    </g>
    <g id="xtick_17">
     <g id="line2d_17"/>
     <g id="text_17">
      <!-- -40 -->
      <g style="fill: #262626" transform="translate(325.631039 349.135761) rotate(-45) scale(0.1 -0.1)">
       <use xlink:href="#ArialMT-2d"/>
       <use xlink:href="#ArialMT-34" x="33.300781"/>
       <use xlink:href="#ArialMT-30" x="88.916016"/>
      </g>
     </g>
    </g>
    <g id="xtick_18">
     <g id="line2d_18"/>
     <g id="text_18">
      <!-- -30 -->
      <g style="fill: #262626" transform="translate(341.928958 349.135761) rotate(-45) scale(0.1 -0.1)">
       <use xlink:href="#ArialMT-2d"/>
       <use xlink:href="#ArialMT-33" x="33.300781"/>
       <use xlink:href="#ArialMT-30" x="88.916016"/>
      </g>
     </g>
    </g>
    <g id="xtick_19">
     <g id="line2d_19"/>
     <g id="text_19">
      <!-- -20 -->
      <g style="fill: #262626" transform="translate(358.226877 349.135761) rotate(-45) scale(0.1 -0.1)">
       <use xlink:href="#ArialMT-2d"/>
       <use xlink:href="#ArialMT-32" x="33.300781"/>
       <use xlink:href="#ArialMT-30" x="88.916016"/>
      </g>
     </g>
    </g>
    <g id="xtick_20">
     <g id="line2d_20"/>
     <g id="text_20">
      <!-- -10 -->
      <g style="fill: #262626" transform="translate(374.524795 349.135761) rotate(-45) scale(0.1 -0.1)">
       <use xlink:href="#ArialMT-2d"/>
       <use xlink:href="#ArialMT-31" x="33.300781"/>
       <use xlink:href="#ArialMT-30" x="88.916016"/>
      </g>
     </g>
    </g>
    <g id="xtick_21">
     <g id="line2d_21"/>
     <g id="text_21">
      <!-- 0 -->
      <g style="fill: #262626" transform="translate(393.966025 342.849139) rotate(-45) scale(0.1 -0.1)">
       <use xlink:href="#ArialMT-30"/>
      </g>
     </g>
    </g>
    <g id="xtick_22">
     <g id="line2d_22"/>
     <g id="text_22">
      <!-- 10 -->
      <g style="fill: #262626" transform="translate(408.297856 346.781316) rotate(-45) scale(0.1 -0.1)">
       <use xlink:href="#ArialMT-31"/>
       <use xlink:href="#ArialMT-30" x="55.615234"/>
      </g>
     </g>
    </g>
    <g id="xtick_23">
     <g id="line2d_23"/>
     <g id="text_23">
      <!-- 20 -->
      <g style="fill: #262626" transform="translate(424.595775 346.781316) rotate(-45) scale(0.1 -0.1)">
       <use xlink:href="#ArialMT-32"/>
       <use xlink:href="#ArialMT-30" x="55.615234"/>
      </g>
     </g>
    </g>
    <g id="xtick_24">
     <g id="line2d_24"/>
     <g id="text_24">
      <!-- 30 -->
      <g style="fill: #262626" transform="translate(440.893694 346.781316) rotate(-45) scale(0.1 -0.1)">
       <use xlink:href="#ArialMT-33"/>
       <use xlink:href="#ArialMT-30" x="55.615234"/>
      </g>
     </g>
    </g>
    <g id="xtick_25">
     <g id="line2d_25"/>
     <g id="text_25">
      <!-- 40 -->
      <g style="fill: #262626" transform="translate(457.191613 346.781316) rotate(-45) scale(0.1 -0.1)">
       <use xlink:href="#ArialMT-34"/>
       <use xlink:href="#ArialMT-30" x="55.615234"/>
      </g>
     </g>
    </g>
    <g id="xtick_26">
     <g id="line2d_26"/>
     <g id="text_26">
      <!-- 50 -->
      <g style="fill: #262626" transform="translate(473.489531 346.781316) rotate(-45) scale(0.1 -0.1)">
       <use xlink:href="#ArialMT-35"/>
       <use xlink:href="#ArialMT-30" x="55.615234"/>
      </g>
     </g>
    </g>
    <g id="text_27">
     <!-- Position -->
     <g style="fill: #262626" transform="translate(251.488594 366.346906) scale(0.11 -0.11)">
      <defs>
       <path id="ArialMT-50" d="M 494 0 
L 494 4581 
L 2222 4581 
Q 2678 4581 2919 4538 
Q 3256 4481 3484 4323 
Q 3713 4166 3852 3881 
Q 3991 3597 3991 3256 
Q 3991 2672 3619 2267 
Q 3247 1863 2275 1863 
L 1100 1863 
L 1100 0 
L 494 0 
z
M 1100 2403 
L 2284 2403 
Q 2872 2403 3119 2622 
Q 3366 2841 3366 3238 
Q 3366 3525 3220 3729 
Q 3075 3934 2838 4000 
Q 2684 4041 2272 4041 
L 1100 4041 
L 1100 2403 
z
" transform="scale(0.015625)"/>
       <path id="ArialMT-6f" d="M 213 1659 
Q 213 2581 725 3025 
Q 1153 3394 1769 3394 
Q 2453 3394 2887 2945 
Q 3322 2497 3322 1706 
Q 3322 1066 3130 698 
Q 2938 331 2570 128 
Q 2203 -75 1769 -75 
Q 1072 -75 642 372 
Q 213 819 213 1659 
z
M 791 1659 
Q 791 1022 1069 705 
Q 1347 388 1769 388 
Q 2188 388 2466 706 
Q 2744 1025 2744 1678 
Q 2744 2294 2464 2611 
Q 2184 2928 1769 2928 
Q 1347 2928 1069 2612 
Q 791 2297 791 1659 
z
" transform="scale(0.015625)"/>
       <path id="ArialMT-73" d="M 197 991 
L 753 1078 
Q 800 744 1014 566 
Q 1228 388 1613 388 
Q 2000 388 2187 545 
Q 2375 703 2375 916 
Q 2375 1106 2209 1216 
Q 2094 1291 1634 1406 
Q 1016 1563 777 1677 
Q 538 1791 414 1992 
Q 291 2194 291 2438 
Q 291 2659 392 2848 
Q 494 3038 669 3163 
Q 800 3259 1026 3326 
Q 1253 3394 1513 3394 
Q 1903 3394 2198 3281 
Q 2494 3169 2634 2976 
Q 2775 2784 2828 2463 
L 2278 2388 
Q 2241 2644 2061 2787 
Q 1881 2931 1553 2931 
Q 1166 2931 1000 2803 
Q 834 2675 834 2503 
Q 834 2394 903 2306 
Q 972 2216 1119 2156 
Q 1203 2125 1616 2013 
Q 2213 1853 2448 1751 
Q 2684 1650 2818 1456 
Q 2953 1263 2953 975 
Q 2953 694 2789 445 
Q 2625 197 2315 61 
Q 2006 -75 1616 -75 
Q 969 -75 630 194 
Q 291 463 197 991 
z
" transform="scale(0.015625)"/>
       <path id="ArialMT-69" d="M 425 3934 
L 425 4581 
L 988 4581 
L 988 3934 
L 425 3934 
z
M 425 0 
L 425 3319 
L 988 3319 
L 988 0 
L 425 0 
z
" transform="scale(0.015625)"/>
       <path id="ArialMT-74" d="M 1650 503 
L 1731 6 
Q 1494 -44 1306 -44 
Q 1000 -44 831 53 
Q 663 150 594 308 
Q 525 466 525 972 
L 525 2881 
L 113 2881 
L 113 3319 
L 525 3319 
L 525 4141 
L 1084 4478 
L 1084 3319 
L 1650 3319 
L 1650 2881 
L 1084 2881 
L 1084 941 
Q 1084 700 1114 631 
Q 1144 563 1211 522 
Q 1278 481 1403 481 
Q 1497 481 1650 503 
z
" transform="scale(0.015625)"/>
       <path id="ArialMT-6e" d="M 422 0 
L 422 3319 
L 928 3319 
L 928 2847 
Q 1294 3394 1984 3394 
Q 2284 3394 2536 3286 
Q 2788 3178 2913 3003 
Q 3038 2828 3088 2588 
Q 3119 2431 3119 2041 
L 3119 0 
L 2556 0 
L 2556 2019 
Q 2556 2363 2490 2533 
Q 2425 2703 2258 2804 
Q 2091 2906 1866 2906 
Q 1506 2906 1245 2678 
Q 984 2450 984 1813 
L 984 0 
L 422 0 
z
" transform="scale(0.015625)"/>
      </defs>
      <use xlink:href="#ArialMT-50"/>
      <use xlink:href="#ArialMT-6f" x="66.699219"/>
      <use xlink:href="#ArialMT-73" x="122.314453"/>
      <use xlink:href="#ArialMT-69" x="172.314453"/>
      <use xlink:href="#ArialMT-74" x="194.53125"/>
      <use xlink:href="#ArialMT-69" x="222.314453"/>
      <use xlink:href="#ArialMT-6f" x="244.53125"/>
      <use xlink:href="#ArialMT-6e" x="300.146484"/>
     </g>
    </g>
   </g>
   <g id="matplotlib.axis_2">
    <g id="ytick_1">
     <g id="line2d_27"/>
     <g id="text_28">
      <!-- 1.30 -->
      <g style="fill: #262626" transform="translate(21.393906 328.343708) scale(0.1 -0.1)">
       <defs>
        <path id="ArialMT-2e" d="M 581 0 
L 581 641 
L 1222 641 
L 1222 0 
L 581 0 
z
" transform="scale(0.015625)"/>
       </defs>
       <use xlink:href="#ArialMT-31"/>
       <use xlink:href="#ArialMT-2e" x="55.615234"/>
       <use xlink:href="#ArialMT-33" x="83.398438"/>
       <use xlink:href="#ArialMT-30" x="139.013672"/>
      </g>
     </g>
    </g>
    <g id="ytick_2">
     <g id="line2d_28"/>
     <g id="text_29">
      <!-- 1.35 -->
      <g style="fill: #262626" transform="translate(21.393906 279.423067) scale(0.1 -0.1)">
       <use xlink:href="#ArialMT-31"/>
       <use xlink:href="#ArialMT-2e" x="55.615234"/>
       <use xlink:href="#ArialMT-33" x="83.398438"/>
       <use xlink:href="#ArialMT-35" x="139.013672"/>
      </g>
     </g>
    </g>
    <g id="ytick_3">
     <g id="line2d_29"/>
     <g id="text_30">
      <!-- 1.40 -->
      <g style="fill: #262626" transform="translate(21.393906 230.502426) scale(0.1 -0.1)">
       <use xlink:href="#ArialMT-31"/>
       <use xlink:href="#ArialMT-2e" x="55.615234"/>
       <use xlink:href="#ArialMT-34" x="83.398438"/>
       <use xlink:href="#ArialMT-30" x="139.013672"/>
      </g>
     </g>
    </g>
    <g id="ytick_4">
     <g id="line2d_30"/>
     <g id="text_31">
      <!-- 1.45 -->
      <g style="fill: #262626" transform="translate(21.393906 181.581785) scale(0.1 -0.1)">
       <use xlink:href="#ArialMT-31"/>
       <use xlink:href="#ArialMT-2e" x="55.615234"/>
       <use xlink:href="#ArialMT-34" x="83.398438"/>
       <use xlink:href="#ArialMT-35" x="139.013672"/>
      </g>
     </g>
    </g>
    <g id="ytick_5">
     <g id="line2d_31"/>
     <g id="text_32">
      <!-- 1.50 -->
      <g style="fill: #262626" transform="translate(21.393906 132.661143) scale(0.1 -0.1)">
       <use xlink:href="#ArialMT-31"/>
       <use xlink:href="#ArialMT-2e" x="55.615234"/>
       <use xlink:href="#ArialMT-35" x="83.398438"/>
       <use xlink:href="#ArialMT-30" x="139.013672"/>
      </g>
     </g>
    </g>
    <g id="ytick_6">
     <g id="line2d_32"/>
     <g id="text_33">
      <!-- 1.55 -->
      <g style="fill: #262626" transform="translate(21.393906 83.740502) scale(0.1 -0.1)">
       <use xlink:href="#ArialMT-31"/>
       <use xlink:href="#ArialMT-2e" x="55.615234"/>
       <use xlink:href="#ArialMT-35" x="83.398438"/>
       <use xlink:href="#ArialMT-35" x="139.013672"/>
      </g>
     </g>
    </g>
    <g id="ytick_7">
     <g id="line2d_33"/>
     <g id="text_34">
      <!-- 1.60 -->
      <g style="fill: #262626" transform="translate(21.393906 34.819861) scale(0.1 -0.1)">
       <use xlink:href="#ArialMT-31"/>
       <use xlink:href="#ArialMT-2e" x="55.615234"/>
       <use xlink:href="#ArialMT-36" x="83.398438"/>
       <use xlink:href="#ArialMT-30" x="139.013672"/>
      </g>
     </g>
    </g>
    <g id="text_35">
     <!-- SantaLucia_dG -->
     <g style="fill: #262626" transform="translate(15.207656 212.310391) rotate(-90) scale(0.11 -0.11)">
      <defs>
       <path id="ArialMT-53" d="M 288 1472 
L 859 1522 
Q 900 1178 1048 958 
Q 1197 738 1509 602 
Q 1822 466 2213 466 
Q 2559 466 2825 569 
Q 3091 672 3220 851 
Q 3350 1031 3350 1244 
Q 3350 1459 3225 1620 
Q 3100 1781 2813 1891 
Q 2628 1963 1997 2114 
Q 1366 2266 1113 2400 
Q 784 2572 623 2826 
Q 463 3081 463 3397 
Q 463 3744 659 4045 
Q 856 4347 1234 4503 
Q 1613 4659 2075 4659 
Q 2584 4659 2973 4495 
Q 3363 4331 3572 4012 
Q 3781 3694 3797 3291 
L 3216 3247 
Q 3169 3681 2898 3903 
Q 2628 4125 2100 4125 
Q 1550 4125 1298 3923 
Q 1047 3722 1047 3438 
Q 1047 3191 1225 3031 
Q 1400 2872 2139 2705 
Q 2878 2538 3153 2413 
Q 3553 2228 3743 1945 
Q 3934 1663 3934 1294 
Q 3934 928 3725 604 
Q 3516 281 3123 101 
Q 2731 -78 2241 -78 
Q 1619 -78 1198 103 
Q 778 284 539 648 
Q 300 1013 288 1472 
z
" transform="scale(0.015625)"/>
       <path id="ArialMT-61" d="M 2588 409 
Q 2275 144 1986 34 
Q 1697 -75 1366 -75 
Q 819 -75 525 192 
Q 231 459 231 875 
Q 231 1119 342 1320 
Q 453 1522 633 1644 
Q 813 1766 1038 1828 
Q 1203 1872 1538 1913 
Q 2219 1994 2541 2106 
Q 2544 2222 2544 2253 
Q 2544 2597 2384 2738 
Q 2169 2928 1744 2928 
Q 1347 2928 1158 2789 
Q 969 2650 878 2297 
L 328 2372 
Q 403 2725 575 2942 
Q 747 3159 1072 3276 
Q 1397 3394 1825 3394 
Q 2250 3394 2515 3294 
Q 2781 3194 2906 3042 
Q 3031 2891 3081 2659 
Q 3109 2516 3109 2141 
L 3109 1391 
Q 3109 606 3145 398 
Q 3181 191 3288 0 
L 2700 0 
Q 2613 175 2588 409 
z
M 2541 1666 
Q 2234 1541 1622 1453 
Q 1275 1403 1131 1340 
Q 988 1278 909 1158 
Q 831 1038 831 891 
Q 831 666 1001 516 
Q 1172 366 1500 366 
Q 1825 366 2078 508 
Q 2331 650 2450 897 
Q 2541 1088 2541 1459 
L 2541 1666 
z
" transform="scale(0.015625)"/>
       <path id="ArialMT-4c" d="M 469 0 
L 469 4581 
L 1075 4581 
L 1075 541 
L 3331 541 
L 3331 0 
L 469 0 
z
" transform="scale(0.015625)"/>
       <path id="ArialMT-75" d="M 2597 0 
L 2597 488 
Q 2209 -75 1544 -75 
Q 1250 -75 995 37 
Q 741 150 617 320 
Q 494 491 444 738 
Q 409 903 409 1263 
L 409 3319 
L 972 3319 
L 972 1478 
Q 972 1038 1006 884 
Q 1059 663 1231 536 
Q 1403 409 1656 409 
Q 1909 409 2131 539 
Q 2353 669 2445 892 
Q 2538 1116 2538 1541 
L 2538 3319 
L 3100 3319 
L 3100 0 
L 2597 0 
z
" transform="scale(0.015625)"/>
       <path id="ArialMT-63" d="M 2588 1216 
L 3141 1144 
Q 3050 572 2676 248 
Q 2303 -75 1759 -75 
Q 1078 -75 664 370 
Q 250 816 250 1647 
Q 250 2184 428 2587 
Q 606 2991 970 3192 
Q 1334 3394 1763 3394 
Q 2303 3394 2647 3120 
Q 2991 2847 3088 2344 
L 2541 2259 
Q 2463 2594 2264 2762 
Q 2066 2931 1784 2931 
Q 1359 2931 1093 2626 
Q 828 2322 828 1663 
Q 828 994 1084 691 
Q 1341 388 1753 388 
Q 2084 388 2306 591 
Q 2528 794 2588 1216 
z
" transform="scale(0.015625)"/>
       <path id="ArialMT-5f" d="M -97 -1272 
L -97 -866 
L 3631 -866 
L 3631 -1272 
L -97 -1272 
z
" transform="scale(0.015625)"/>
       <path id="ArialMT-64" d="M 2575 0 
L 2575 419 
Q 2259 -75 1647 -75 
Q 1250 -75 917 144 
Q 584 363 401 755 
Q 219 1147 219 1656 
Q 219 2153 384 2558 
Q 550 2963 881 3178 
Q 1213 3394 1622 3394 
Q 1922 3394 2156 3267 
Q 2391 3141 2538 2938 
L 2538 4581 
L 3097 4581 
L 3097 0 
L 2575 0 
z
M 797 1656 
Q 797 1019 1065 703 
Q 1334 388 1700 388 
Q 2069 388 2326 689 
Q 2584 991 2584 1609 
Q 2584 2291 2321 2609 
Q 2059 2928 1675 2928 
Q 1300 2928 1048 2622 
Q 797 2316 797 1656 
z
" transform="scale(0.015625)"/>
       <path id="ArialMT-47" d="M 2638 1797 
L 2638 2334 
L 4578 2338 
L 4578 638 
Q 4131 281 3656 101 
Q 3181 -78 2681 -78 
Q 2006 -78 1454 211 
Q 903 500 622 1047 
Q 341 1594 341 2269 
Q 341 2938 620 3517 
Q 900 4097 1425 4378 
Q 1950 4659 2634 4659 
Q 3131 4659 3532 4498 
Q 3934 4338 4162 4050 
Q 4391 3763 4509 3300 
L 3963 3150 
Q 3859 3500 3706 3700 
Q 3553 3900 3268 4020 
Q 2984 4141 2638 4141 
Q 2222 4141 1919 4014 
Q 1616 3888 1430 3681 
Q 1244 3475 1141 3228 
Q 966 2803 966 2306 
Q 966 1694 1177 1281 
Q 1388 869 1791 669 
Q 2194 469 2647 469 
Q 3041 469 3416 620 
Q 3791 772 3984 944 
L 3984 1797 
L 2638 1797 
z
" transform="scale(0.015625)"/>
      </defs>
      <use xlink:href="#ArialMT-53"/>
      <use xlink:href="#ArialMT-61" x="66.699219"/>
      <use xlink:href="#ArialMT-6e" x="122.314453"/>
      <use xlink:href="#ArialMT-74" x="177.929688"/>
      <use xlink:href="#ArialMT-61" x="205.712891"/>
      <use xlink:href="#ArialMT-4c" x="261.328125"/>
      <use xlink:href="#ArialMT-75" x="316.943359"/>
      <use xlink:href="#ArialMT-63" x="372.558594"/>
      <use xlink:href="#ArialMT-69" x="422.558594"/>
      <use xlink:href="#ArialMT-61" x="444.775391"/>
      <use xlink:href="#ArialMT-5f" x="500.390625"/>
      <use xlink:href="#ArialMT-64" x="556.005859"/>
      <use xlink:href="#ArialMT-47" x="611.621094"/>
     </g>
    </g>
   </g>
   <g id="line2d_34">
    <path d="M 68.145753 186.552799 
L 69.775545 187.652409 
L 71.405337 182.752834 
L 73.035129 178.929435 
L 74.66492 176.926702 
L 76.294712 183.723255 
L 77.924504 186.509536 
L 79.554296 183.490715 
L 81.184088 179.13734 
L 82.81388 177.325687 
L 84.443672 175.997742 
L 86.073464 176.631069 
L 87.703256 180.872681 
L 89.333047 175.482788 
L 90.962839 176.33784 
L 92.592631 172.115457 
L 94.222423 169.871771 
L 95.852215 172.141294 
L 97.482007 167.905091 
L 99.111799 169.918639 
L 100.741591 172.804666 
L 102.371383 175.424502 
L 104.001175 172.405682 
L 105.630966 171.68102 
L 107.260758 175.64142 
L 108.89055 170.700384 
L 110.520342 167.349878 
L 112.150134 169.690305 
L 113.779926 164.813563 
L 115.409718 163.494632 
L 117.03951 163.940485 
L 118.669302 165.067135 
L 120.299093 158.293415 
L 121.928885 160.163954 
L 123.558677 163.816103 
L 125.188469 157.507464 
L 126.818261 164.337666 
L 128.448053 167.733239 
L 130.077845 160.851962 
L 131.707637 157.912457 
L 133.337429 161.86805 
L 134.967221 160.364648 
L 136.597012 162.144455 
L 138.226804 164.434408 
L 139.856596 164.778712 
L 141.486388 162.364377 
L 143.11618 158.565614 
L 144.745972 161.673966 
L 146.375764 155.955992 
L 148.005556 155.650144 
L 149.635348 153.615565 
L 151.265139 153.718315 
L 152.894931 157.957523 
L 154.524723 156.836281 
L 156.154515 152.582051 
L 157.784307 149.349317 
L 159.414099 149.223733 
L 161.043891 146.811801 
L 162.673683 149.674393 
L 164.303475 155.126778 
L 165.933267 152.029842 
L 167.563058 146.583467 
L 169.19285 142.602036 
L 170.822642 144.000885 
L 172.452434 144.143894 
L 174.082226 140.96584 
L 175.712018 142.531132 
L 177.34181 146.423633 
L 178.971602 146.383374 
L 180.601394 140.495351 
L 182.231185 141.067389 
L 183.860977 139.112125 
L 185.490769 132.727776 
L 187.120561 137.1827 
L 188.750353 136.576412 
L 190.380145 135.597578 
L 192.009937 134.15066 
L 193.639729 132.15694 
L 196.899313 132.565538 
L 198.529104 133.469863 
L 200.158896 136.391942 
L 201.788688 132.564937 
L 203.41848 130.771912 
L 205.048272 131.386011 
L 206.678064 129.129707 
L 208.307856 131.46052 
L 209.937648 130.086908 
L 211.56744 126.913661 
L 213.197231 128.898969 
L 214.827023 126.56455 
L 216.456815 126.255698 
L 218.086607 125.433694 
L 219.716399 122.650418 
L 221.346191 118.009822 
L 222.975983 117.30499 
L 224.605775 120.993792 
L 226.235567 122.39925 
L 227.865359 120.645282 
L 229.49515 120.757646 
L 231.124942 119.00548 
L 232.754734 120.102086 
L 234.384526 121.800173 
L 236.014318 116.28049 
L 237.64411 118.915348 
L 239.273902 114.308402 
L 240.903694 112.587482 
L 242.533486 109.12401 
L 244.163277 110.258471 
L 245.793069 109.078944 
L 247.422861 111.189234 
L 249.052653 109.801201 
L 250.682445 109.833649 
L 252.312237 108.097106 
L 253.942029 101.98135 
L 255.571821 104.13971 
L 257.201613 103.467326 
L 258.831405 98.16456 
L 260.461196 103.120618 
L 262.090988 103.747336 
L 263.72078 100.168495 
L 265.350572 101.528887 
L 266.980364 97.766177 
L 268.610156 95.394504 
L 270.239948 91.933435 
L 271.86974 90.229941 
L 273.499532 89.726403 
L 276.759115 97.140661 
L 278.388907 90.990054 
L 280.018699 90.088133 
L 281.648491 95.557943 
L 283.278283 95.682926 
L 284.908075 89.065435 
L 286.537867 90.251572 
L 288.167659 87.781956 
L 289.797451 86.627665 
L 291.427242 83.048824 
L 293.057034 84.249983 
L 294.686826 89.339436 
L 296.316618 91.35599 
L 297.94641 85.978114 
L 299.576202 86.424568 
L 301.205994 81.35915 
L 302.835786 77.994222 
L 304.465578 76.328583 
L 306.095369 72.985287 
L 307.725161 75.981875 
L 309.354953 83.943534 
L 310.984745 82.700314 
L 312.614537 84.74631 
L 314.244329 81.819424 
L 315.874121 71.10934 
L 317.503913 64.611424 
L 319.133705 61.235079 
L 320.763497 53.331105 
L 322.393288 52.08548 
L 324.02308 55.133744 
L 325.652872 59.710046 
L 327.282664 61.09207 
L 328.912456 66.31612 
L 330.542248 68.067084 
L 332.17204 60.877556 
L 333.801832 67.395902 
L 335.431624 70.833536 
L 337.061415 77.605453 
L 338.691207 79.290921 
L 340.320999 72.373591 
L 341.950791 74.548176 
L 343.580583 90.485314 
L 345.210375 111.943939 
L 346.840167 138.134494 
L 348.469959 168.030675 
L 350.099751 187.870529 
L 351.729543 160.16816 
L 353.359334 107.128487 
L 354.989126 71.453043 
L 356.618918 51.25206 
L 358.24871 45.457775 
L 359.878502 46.749666 
L 361.508294 49.674149 
L 363.138086 55.391522 
L 364.767878 56.834836 
L 366.39767 64.700354 
L 368.027461 69.53924 
L 369.657253 64.058614 
L 371.287045 47.781978 
L 372.916837 39.238667 
L 374.546629 53.164661 
L 376.176421 65.932158 
L 377.806213 74.529548 
L 379.436005 72.203542 
L 381.065797 73.357832 
L 382.695589 77.39875 
L 384.32538 93.519157 
L 385.955172 80.404952 
L 387.584964 85.091215 
L 389.214756 87.344515 
L 390.844548 35.795625 
L 392.47434 192.887876 
L 394.104132 249.994906 
L 395.733924 211.771731 
L 397.363716 232.87824 
L 398.993507 122.923819 
L 400.623299 120.654896 
L 402.253091 91.626986 
L 403.882883 77.995424 
L 405.512675 73.934076 
L 407.142467 78.463509 
L 408.772259 80.576203 
L 410.402051 84.870091 
L 412.031843 79.917038 
L 413.661635 49.203059 
L 415.291426 58.934911 
L 416.921218 62.461475 
L 418.55101 64.798298 
L 421.810594 56.259793 
L 423.440386 70.02355 
L 425.070178 81.6668 
L 426.69997 76.08102 
L 428.329762 68.625903 
L 429.959553 74.804751 
L 431.589345 78.937003 
L 433.219137 75.815431 
L 434.848929 81.622936 
L 436.478721 79.557111 
L 438.108513 60.138474 
L 439.738305 67.909053 
L 441.368097 82.321159 
L 442.997889 73.580158 
L 444.627681 66.563082 
L 446.257472 73.870984 
L 447.887264 83.795117 
L 449.517056 95.627044 
L 451.146848 99.693199 
L 452.77664 100.756756 
L 456.036224 92.759645 
L 457.666016 91.845707 
L 459.295808 94.627781 
L 460.9256 85.924636 
L 462.555391 83.828166 
L 464.185183 71.675969 
L 465.814975 70.273516 
L 467.444767 67.634451 
L 469.074559 63.628384 
L 470.704351 72.214959 
L 472.334143 74.634702 
L 473.963935 80.7787 
L 473.963935 80.7787 
" clip-path="url(#p434a0d3271)" style="fill: none; stroke: #0272a2; stroke-width: 1.75; stroke-linecap: round"/>
   </g>
   <g id="line2d_35">
    <path d="M 68.145753 307.326254 
L 69.775545 307.094876 
L 71.405337 304.200473 
L 73.035129 310.905727 
L 74.66492 308.302223 
L 76.294712 308.100802 
L 77.924504 309.23168 
L 79.554296 305.214283 
L 81.184088 303.524075 
L 82.81388 306.01721 
L 86.073464 307.306546 
L 87.703256 306.826051 
L 89.333047 306.823291 
L 90.962839 306.418871 
L 92.592631 307.914753 
L 94.222423 308.433483 
L 95.852215 305.905266 
L 97.482007 306.418083 
L 99.111799 311.252992 
L 100.741591 307.557239 
L 102.371383 306.34122 
L 104.001175 312.213983 
L 105.630966 304.29941 
L 107.260758 306.576934 
L 108.89055 303.470862 
L 110.520342 305.231626 
L 112.150134 305.449209 
L 113.779926 306.198924 
L 115.409718 308.505222 
L 117.03951 306.666805 
L 118.669302 308.263595 
L 120.299093 306.909615 
L 121.928885 303.766885 
L 123.558677 305.752327 
L 125.188469 304.938757 
L 126.818261 305.077899 
L 128.448053 306.627782 
L 130.077845 306.686908 
L 131.707637 306.909221 
L 133.337429 305.138602 
L 134.967221 306.463019 
L 136.597012 308.273449 
L 138.226804 302.868173 
L 139.856596 307.354241 
L 141.486388 308.710979 
L 143.11618 303.887107 
L 144.745972 301.958819 
L 146.375764 301.823224 
L 149.635348 311.600257 
L 151.265139 308.90097 
L 152.894931 305.50124 
L 154.524723 304.433035 
L 156.154515 307.820546 
L 157.784307 305.467735 
L 159.414099 306.975442 
L 161.043891 307.73028 
L 162.673683 308.677475 
L 164.303475 303.745994 
L 165.933267 303.3195 
L 167.563058 305.633681 
L 169.19285 307.640015 
L 170.822642 308.671562 
L 172.452434 307.934855 
L 174.082226 309.923451 
L 175.712018 303.766885 
L 177.34181 302.525244 
L 178.971602 303.572952 
L 180.601394 304.76335 
L 182.231185 305.470889 
L 183.860977 309.990855 
L 185.490769 309.742527 
L 187.120561 305.725129 
L 188.750353 303.387691 
L 190.380145 306.063329 
L 192.009937 306.372753 
L 193.639729 304.290345 
L 195.269521 308.981381 
L 196.899313 306.657345 
L 200.158896 308.360167 
L 201.788688 308.232061 
L 203.41848 309.863537 
L 205.048272 308.169782 
L 206.678064 302.470454 
L 208.307856 308.195009 
L 209.937648 305.861513 
L 211.56744 302.229221 
L 213.197231 307.660512 
L 214.827023 308.630963 
L 216.456815 310.49027 
L 218.086607 309.714146 
L 219.716399 305.866243 
L 221.346191 307.580101 
L 222.975983 307.024713 
L 224.605775 304.088923 
L 226.235567 305.112192 
L 227.865359 309.355056 
L 229.49515 306.123637 
L 231.124942 304.595039 
L 232.754734 312.182055 
L 234.384526 312.995625 
L 236.014318 307.595474 
L 237.64411 304.200473 
L 239.273902 302.837428 
L 240.903694 306.87611 
L 242.533486 309.868267 
L 244.163277 303.473227 
L 245.793069 308.154015 
L 247.422861 310.576594 
L 249.052653 308.860765 
L 250.682445 301.881168 
L 252.312237 301.79918 
L 253.942029 308.007777 
L 255.571821 307.274618 
L 257.201613 311.069308 
L 258.831405 307.756296 
L 260.461196 306.832357 
L 262.090988 303.950569 
L 263.72078 305.331746 
L 265.350572 307.209185 
L 266.980364 305.55327 
L 268.610156 301.780654 
L 270.239948 308.952212 
L 271.86974 308.863918 
L 273.499532 306.078701 
L 276.759115 309.369246 
L 278.388907 306.694397 
L 280.018699 308.040888 
L 281.648491 308.554099 
L 283.278283 307.548961 
L 284.908075 308.730294 
L 286.537867 306.218238 
L 288.167659 307.464215 
L 289.797451 304.420815 
L 291.427242 306.298255 
L 293.057034 309.827668 
L 294.686826 305.246605 
L 296.316618 306.547765 
L 297.94641 305.982523 
L 299.576202 305.768488 
L 301.205994 306.700704 
L 302.835786 310.08112 
L 304.465578 309.981395 
L 306.095369 306.333336 
L 307.725161 310.677502 
L 309.354953 309.635706 
L 310.984745 305.72237 
L 312.614537 306.239917 
L 314.244329 306.903702 
L 315.874121 306.283276 
L 317.503913 304.475211 
L 319.133705 306.163842 
L 320.763497 308.818982 
L 322.393288 309.826091 
L 324.02308 309.46503 
L 325.652872 306.451193 
L 327.282664 308.304983 
L 328.912456 305.095637 
L 330.542248 308.111838 
L 332.17204 307.873759 
L 333.801832 305.718823 
L 335.431624 307.857992 
L 337.061415 304.928903 
L 338.691207 304.984875 
L 340.320999 307.08108 
L 341.950791 305.898959 
L 343.580583 306.29116 
L 345.210375 307.508362 
L 346.840167 305.627375 
L 348.469959 307.42598 
L 350.099751 310.382267 
L 351.729543 312.573073 
L 353.359334 309.349537 
L 354.989126 308.197768 
L 356.618918 304.887909 
L 358.24871 304.594645 
L 359.878502 303.561127 
L 361.508294 303.846507 
L 363.138086 303.142123 
L 364.767878 304.189042 
L 366.39767 307.362124 
L 368.027461 311.796949 
L 369.657253 310.360982 
L 371.287045 311.543891 
L 372.916837 307.092905 
L 374.546629 305.831161 
L 376.176421 307.707024 
L 377.806213 306.984902 
L 379.436005 304.359719 
L 382.695589 308.172935 
L 384.32538 305.36328 
L 385.955172 302.202417 
L 387.584964 305.345148 
L 389.214756 306.772837 
L 390.844548 304.933238 
L 392.47434 304.563111 
L 394.104132 305.865454 
L 395.733924 310.04525 
L 397.363716 310.405129 
L 398.993507 308.79888 
L 400.623299 306.865862 
L 402.253091 306.757071 
L 403.882883 310.897844 
L 405.512675 307.130745 
L 407.142467 304.556805 
L 408.772259 306.468931 
L 410.402051 307.456725 
L 412.031843 309.369246 
L 413.661635 307.890708 
L 415.291426 309.240746 
L 416.921218 306.101169 
L 418.55101 307.121679 
L 420.180802 303.800389 
L 421.810594 304.303352 
L 423.440386 307.144541 
L 425.070178 305.395602 
L 426.69997 302.849647 
L 428.329762 306.942331 
L 429.959553 307.193813 
L 431.589345 305.408609 
L 433.219137 305.278533 
L 434.848929 304.833119 
L 436.478721 304.563111 
L 438.108513 307.396417 
L 439.738305 305.835497 
L 441.368097 305.293117 
L 444.627681 311.256146 
L 446.257472 306.563532 
L 447.887264 306.620687 
L 449.517056 308.493002 
L 451.146848 303.63326 
L 452.77664 303.808667 
L 454.406432 304.323849 
L 456.036224 303.932831 
L 457.666016 307.484317 
L 459.295808 307.956535 
L 460.9256 305.253306 
L 462.555391 303.425532 
L 464.185183 304.27103 
L 465.814975 304.850068 
L 467.444767 306.287218 
L 469.074559 308.18949 
L 470.704351 305.902901 
L 472.334143 309.230498 
L 473.963935 309.619151 
L 473.963935 309.619151 
" clip-path="url(#p434a0d3271)" style="fill: none; stroke-dasharray: 1.75,2.8875; stroke-dashoffset: 0; stroke: #9fc377; stroke-width: 1.75"/>
   </g>
   <g id="patch_3">
    <path d="M 47.854844 326.855625 
L 47.854844 21.935625 
" style="fill: none; stroke: #cccccc; stroke-width: 1.25; stroke-linejoin: miter; stroke-linecap: square"/>
   </g>
   <g id="patch_4">
    <path d="M 494.254844 326.855625 
L 494.254844 21.935625 
" style="fill: none; stroke: #cccccc; stroke-width: 1.25; stroke-linejoin: miter; stroke-linecap: square"/>
   </g>
   <g id="patch_5">
    <path d="M 47.854844 326.855625 
L 494.254844 326.855625 
" style="fill: none; stroke: #cccccc; stroke-width: 1.25; stroke-linejoin: miter; stroke-linecap: square"/>
   </g>
   <g id="patch_6">
    <path d="M 47.854844 21.935625 
L 494.254844 21.935625 
" style="fill: none; stroke: #cccccc; stroke-width: 1.25; stroke-linejoin: miter; stroke-linecap: square"/>
   </g>
   <g id="text_36">
    <!-- "SantaLucia_dG" for dataset Mouse_non_tata -->
    <g style="fill: #262626" transform="translate(149.054219 15.935625) scale(0.12 -0.12)">
     <defs>
      <path id="ArialMT-22" d="M 450 2959 
L 294 3831 
L 294 4581 
L 934 4581 
L 934 3831 
L 794 2959 
L 450 2959 
z
M 1484 2959 
L 1331 3831 
L 1331 4581 
L 1972 4581 
L 1972 3831 
L 1822 2959 
L 1484 2959 
z
" transform="scale(0.015625)"/>
      <path id="ArialMT-20" transform="scale(0.015625)"/>
      <path id="ArialMT-66" d="M 556 0 
L 556 2881 
L 59 2881 
L 59 3319 
L 556 3319 
L 556 3672 
Q 556 4006 616 4169 
Q 697 4388 901 4523 
Q 1106 4659 1475 4659 
Q 1713 4659 2000 4603 
L 1916 4113 
Q 1741 4144 1584 4144 
Q 1328 4144 1222 4034 
Q 1116 3925 1116 3625 
L 1116 3319 
L 1763 3319 
L 1763 2881 
L 1116 2881 
L 1116 0 
L 556 0 
z
" transform="scale(0.015625)"/>
      <path id="ArialMT-72" d="M 416 0 
L 416 3319 
L 922 3319 
L 922 2816 
Q 1116 3169 1280 3281 
Q 1444 3394 1641 3394 
Q 1925 3394 2219 3213 
L 2025 2691 
Q 1819 2813 1613 2813 
Q 1428 2813 1281 2702 
Q 1134 2591 1072 2394 
Q 978 2094 978 1738 
L 978 0 
L 416 0 
z
" transform="scale(0.015625)"/>
      <path id="ArialMT-65" d="M 2694 1069 
L 3275 997 
Q 3138 488 2766 206 
Q 2394 -75 1816 -75 
Q 1088 -75 661 373 
Q 234 822 234 1631 
Q 234 2469 665 2931 
Q 1097 3394 1784 3394 
Q 2450 3394 2872 2941 
Q 3294 2488 3294 1666 
Q 3294 1616 3291 1516 
L 816 1516 
Q 847 969 1125 678 
Q 1403 388 1819 388 
Q 2128 388 2347 550 
Q 2566 713 2694 1069 
z
M 847 1978 
L 2700 1978 
Q 2663 2397 2488 2606 
Q 2219 2931 1791 2931 
Q 1403 2931 1139 2672 
Q 875 2413 847 1978 
z
" transform="scale(0.015625)"/>
      <path id="ArialMT-4d" d="M 475 0 
L 475 4581 
L 1388 4581 
L 2472 1338 
Q 2622 884 2691 659 
Q 2769 909 2934 1394 
L 4031 4581 
L 4847 4581 
L 4847 0 
L 4263 0 
L 4263 3834 
L 2931 0 
L 2384 0 
L 1059 3900 
L 1059 0 
L 475 0 
z
" transform="scale(0.015625)"/>
     </defs>
     <use xlink:href="#ArialMT-22"/>
     <use xlink:href="#ArialMT-53" x="35.498047"/>
     <use xlink:href="#ArialMT-61" x="102.197266"/>
     <use xlink:href="#ArialMT-6e" x="157.8125"/>
     <use xlink:href="#ArialMT-74" x="213.427734"/>
     <use xlink:href="#ArialMT-61" x="241.210938"/>
     <use xlink:href="#ArialMT-4c" x="296.826172"/>
     <use xlink:href="#ArialMT-75" x="352.441406"/>
     <use xlink:href="#ArialMT-63" x="408.056641"/>
     <use xlink:href="#ArialMT-69" x="458.056641"/>
     <use xlink:href="#ArialMT-61" x="480.273438"/>
     <use xlink:href="#ArialMT-5f" x="535.888672"/>
     <use xlink:href="#ArialMT-64" x="591.503906"/>
     <use xlink:href="#ArialMT-47" x="647.119141"/>
     <use xlink:href="#ArialMT-22" x="724.902344"/>
     <use xlink:href="#ArialMT-20" x="760.400391"/>
     <use xlink:href="#ArialMT-66" x="788.183594"/>
     <use xlink:href="#ArialMT-6f" x="815.966797"/>
     <use xlink:href="#ArialMT-72" x="871.582031"/>
     <use xlink:href="#ArialMT-20" x="904.882812"/>
     <use xlink:href="#ArialMT-64" x="932.666016"/>
     <use xlink:href="#ArialMT-61" x="988.28125"/>
     <use xlink:href="#ArialMT-74" x="1043.896484"/>
     <use xlink:href="#ArialMT-61" x="1071.679688"/>
     <use xlink:href="#ArialMT-73" x="1127.294922"/>
     <use xlink:href="#ArialMT-65" x="1177.294922"/>
     <use xlink:href="#ArialMT-74" x="1232.910156"/>
     <use xlink:href="#ArialMT-20" x="1260.693359"/>
     <use xlink:href="#ArialMT-4d" x="1288.476562"/>
     <use xlink:href="#ArialMT-6f" x="1371.777344"/>
     <use xlink:href="#ArialMT-75" x="1427.392578"/>
     <use xlink:href="#ArialMT-73" x="1483.007812"/>
     <use xlink:href="#ArialMT-65" x="1533.007812"/>
     <use xlink:href="#ArialMT-5f" x="1588.623047"/>
     <use xlink:href="#ArialMT-6e" x="1644.238281"/>
     <use xlink:href="#ArialMT-6f" x="1699.853516"/>
     <use xlink:href="#ArialMT-6e" x="1755.46875"/>
     <use xlink:href="#ArialMT-5f" x="1811.083984"/>
     <use xlink:href="#ArialMT-74" x="1866.699219"/>
     <use xlink:href="#ArialMT-61" x="1894.482422"/>
     <use xlink:href="#ArialMT-74" x="1950.097656"/>
     <use xlink:href="#ArialMT-61" x="1977.880859"/>
    </g>
   </g>
   <g id="legend_1">
    <g id="line2d_36">
     <path d="M 56.854844 34.593437 
L 66.854844 34.593437 
L 76.854844 34.593437 
" style="fill: none; stroke: #0272a2; stroke-width: 1.75; stroke-linecap: round"/>
    </g>
    <g id="text_37">
     <!-- Promoter -->
     <g style="fill: #262626" transform="translate(84.854844 38.093437) scale(0.1 -0.1)">
      <defs>
       <path id="ArialMT-6d" d="M 422 0 
L 422 3319 
L 925 3319 
L 925 2853 
Q 1081 3097 1340 3245 
Q 1600 3394 1931 3394 
Q 2300 3394 2536 3241 
Q 2772 3088 2869 2813 
Q 3263 3394 3894 3394 
Q 4388 3394 4653 3120 
Q 4919 2847 4919 2278 
L 4919 0 
L 4359 0 
L 4359 2091 
Q 4359 2428 4304 2576 
Q 4250 2725 4106 2815 
Q 3963 2906 3769 2906 
Q 3419 2906 3187 2673 
Q 2956 2441 2956 1928 
L 2956 0 
L 2394 0 
L 2394 2156 
Q 2394 2531 2256 2718 
Q 2119 2906 1806 2906 
Q 1569 2906 1367 2781 
Q 1166 2656 1075 2415 
Q 984 2175 984 1722 
L 984 0 
L 422 0 
z
" transform="scale(0.015625)"/>
      </defs>
      <use xlink:href="#ArialMT-50"/>
      <use xlink:href="#ArialMT-72" x="66.699219"/>
      <use xlink:href="#ArialMT-6f" x="100"/>
      <use xlink:href="#ArialMT-6d" x="155.615234"/>
      <use xlink:href="#ArialMT-6f" x="238.916016"/>
      <use xlink:href="#ArialMT-74" x="294.53125"/>
      <use xlink:href="#ArialMT-65" x="322.314453"/>
      <use xlink:href="#ArialMT-72" x="377.929688"/>
     </g>
    </g>
    <g id="line2d_37">
     <path d="M 56.854844 48.73875 
L 66.854844 48.73875 
L 76.854844 48.73875 
" style="fill: none; stroke-dasharray: 1.75,2.8875; stroke-dashoffset: 0; stroke: #9fc377; stroke-width: 1.75"/>
    </g>
    <g id="text_38">
     <!-- Non-promoter -->
     <g style="fill: #262626" transform="translate(84.854844 52.23875) scale(0.1 -0.1)">
      <defs>
       <path id="ArialMT-4e" d="M 488 0 
L 488 4581 
L 1109 4581 
L 3516 984 
L 3516 4581 
L 4097 4581 
L 4097 0 
L 3475 0 
L 1069 3600 
L 1069 0 
L 488 0 
z
" transform="scale(0.015625)"/>
       <path id="ArialMT-70" d="M 422 -1272 
L 422 3319 
L 934 3319 
L 934 2888 
Q 1116 3141 1344 3267 
Q 1572 3394 1897 3394 
Q 2322 3394 2647 3175 
Q 2972 2956 3137 2557 
Q 3303 2159 3303 1684 
Q 3303 1175 3120 767 
Q 2938 359 2589 142 
Q 2241 -75 1856 -75 
Q 1575 -75 1351 44 
Q 1128 163 984 344 
L 984 -1272 
L 422 -1272 
z
M 931 1641 
Q 931 1000 1190 694 
Q 1450 388 1819 388 
Q 2194 388 2461 705 
Q 2728 1022 2728 1688 
Q 2728 2322 2467 2637 
Q 2206 2953 1844 2953 
Q 1484 2953 1207 2617 
Q 931 2281 931 1641 
z
" transform="scale(0.015625)"/>
      </defs>
      <use xlink:href="#ArialMT-4e"/>
      <use xlink:href="#ArialMT-6f" x="72.216797"/>
      <use xlink:href="#ArialMT-6e" x="127.832031"/>
      <use xlink:href="#ArialMT-2d" x="183.447266"/>
      <use xlink:href="#ArialMT-70" x="216.748047"/>
      <use xlink:href="#ArialMT-72" x="272.363281"/>
      <use xlink:href="#ArialMT-6f" x="305.664062"/>
      <use xlink:href="#ArialMT-6d" x="361.279297"/>
      <use xlink:href="#ArialMT-6f" x="444.580078"/>
      <use xlink:href="#ArialMT-74" x="500.195312"/>
      <use xlink:href="#ArialMT-65" x="527.978516"/>
      <use xlink:href="#ArialMT-72" x="583.59375"/>
     </g>
    </g>
   </g>
  </g>
 </g>
 <defs>
  <clipPath id="p434a0d3271">
   <rect x="47.854844" y="21.935625" width="446.4" height="304.92"/>
  </clipPath>
 </defs>
</svg>
