<?xml version="1.0" encoding="utf-8" standalone="no"?>
<!DOCTYPE svg PUBLIC "-//W3C//DTD SVG 1.1//EN"
  "http://www.w3.org/Graphics/SVG/1.1/DTD/svg11.dtd">
<svg xmlns:xlink="http://www.w3.org/1999/xlink" width="496.022812pt" height="375.733156pt" viewBox="0 0 496.022812 375.733156" xmlns="http://www.w3.org/2000/svg" version="1.1">
 <metadata>
  <rdf:RDF xmlns:dc="http://purl.org/dc/elements/1.1/" xmlns:cc="http://creativecommons.org/ns#" xmlns:rdf="http://www.w3.org/1999/02/22-rdf-syntax-ns#">
   <cc:Work>
    <dc:type rdf:resource="http://purl.org/dc/dcmitype/StillImage"/>
    <dc:date>2023-05-11T16:25:37.298150</dc:date>
    <dc:format>image/svg+xml</dc:format>
    <dc:creator>
     <cc:Agent>
      <dc:title>Matplotlib v3.7.1, https://matplotlib.org/</dc:title>
     </cc:Agent>
    </dc:creator>
   </cc:Work>
  </rdf:RDF>
 </metadata>
 <defs>
  <style type="text/css">*{stroke-linejoin: round; stroke-linecap: butt}</style>
 </defs>
 <g id="figure_1">
  <g id="patch_1">
   <path d="M 0 375.733156 
L 496.022812 375.733156 
L 496.022812 0 
L 0 0 
z
" style="fill: #ffffff"/>
  </g>
  <g id="axes_1">
   <g id="patch_2">
    <path d="M 42.422813 326.855625 
L 488.822812 326.855625 
L 488.822812 21.935625 
L 42.422813 21.935625 
z
" style="fill: #ffffff"/>
   </g>
   <g id="matplotlib.axis_1">
    <g id="xtick_1">
     <g id="line2d_1"/>
     <g id="text_1">
      <!-- -200 -->
      <g style="fill: #262626" transform="translate(57.466216 353.067937) rotate(-45) scale(0.1 -0.1)">
       <defs>
        <path id="ArialMT-2d" d="M 203 1375 
L 203 1941 
L 1931 1941 
L 1931 1375 
L 203 1375 
z
" transform="scale(0.015625)"/>
        <path id="ArialMT-32" d="M 3222 541 
L 3222 0 
L 194 0 
Q 188 203 259 391 
Q 375 700 629 1000 
Q 884 1300 1366 1694 
Q 2113 2306 2375 2664 
Q 2638 3022 2638 3341 
Q 2638 3675 2398 3904 
Q 2159 4134 1775 4134 
Q 1369 4134 1125 3890 
Q 881 3647 878 3216 
L 300 3275 
Q 359 3922 746 4261 
Q 1134 4600 1788 4600 
Q 2447 4600 2831 4234 
Q 3216 3869 3216 3328 
Q 3216 3053 3103 2787 
Q 2991 2522 2730 2228 
Q 2469 1934 1863 1422 
Q 1356 997 1212 845 
Q 1069 694 975 541 
L 3222 541 
z
" transform="scale(0.015625)"/>
        <path id="ArialMT-30" d="M 266 2259 
Q 266 3072 433 3567 
Q 600 4063 929 4331 
Q 1259 4600 1759 4600 
Q 2128 4600 2406 4451 
Q 2684 4303 2865 4023 
Q 3047 3744 3150 3342 
Q 3253 2941 3253 2259 
Q 3253 1453 3087 958 
Q 2922 463 2592 192 
Q 2263 -78 1759 -78 
Q 1097 -78 719 397 
Q 266 969 266 2259 
z
M 844 2259 
Q 844 1131 1108 757 
Q 1372 384 1759 384 
Q 2147 384 2411 759 
Q 2675 1134 2675 2259 
Q 2675 3391 2411 3762 
Q 2147 4134 1753 4134 
Q 1366 4134 1134 3806 
Q 844 3388 844 2259 
z
" transform="scale(0.015625)"/>
       </defs>
       <use xlink:href="#ArialMT-2d"/>
       <use xlink:href="#ArialMT-32" x="33.300781"/>
       <use xlink:href="#ArialMT-30" x="88.916016"/>
       <use xlink:href="#ArialMT-30" x="144.53125"/>
      </g>
     </g>
    </g>
    <g id="xtick_2">
     <g id="line2d_2"/>
     <g id="text_2">
      <!-- -190 -->
      <g style="fill: #262626" transform="translate(73.764135 353.067937) rotate(-45) scale(0.1 -0.1)">
       <defs>
        <path id="ArialMT-31" d="M 2384 0 
L 1822 0 
L 1822 3584 
Q 1619 3391 1289 3197 
Q 959 3003 697 2906 
L 697 3450 
Q 1169 3672 1522 3987 
Q 1875 4303 2022 4600 
L 2384 4600 
L 2384 0 
z
" transform="scale(0.015625)"/>
        <path id="ArialMT-39" d="M 350 1059 
L 891 1109 
Q 959 728 1153 556 
Q 1347 384 1650 384 
Q 1909 384 2104 503 
Q 2300 622 2425 820 
Q 2550 1019 2634 1356 
Q 2719 1694 2719 2044 
Q 2719 2081 2716 2156 
Q 2547 1888 2255 1720 
Q 1963 1553 1622 1553 
Q 1053 1553 659 1965 
Q 266 2378 266 3053 
Q 266 3750 677 4175 
Q 1088 4600 1706 4600 
Q 2153 4600 2523 4359 
Q 2894 4119 3086 3673 
Q 3278 3228 3278 2384 
Q 3278 1506 3087 986 
Q 2897 466 2520 194 
Q 2144 -78 1638 -78 
Q 1100 -78 759 220 
Q 419 519 350 1059 
z
M 2653 3081 
Q 2653 3566 2395 3850 
Q 2138 4134 1775 4134 
Q 1400 4134 1122 3828 
Q 844 3522 844 3034 
Q 844 2597 1108 2323 
Q 1372 2050 1759 2050 
Q 2150 2050 2401 2323 
Q 2653 2597 2653 3081 
z
" transform="scale(0.015625)"/>
       </defs>
       <use xlink:href="#ArialMT-2d"/>
       <use xlink:href="#ArialMT-31" x="33.300781"/>
       <use xlink:href="#ArialMT-39" x="88.916016"/>
       <use xlink:href="#ArialMT-30" x="144.53125"/>
      </g>
     </g>
    </g>
    <g id="xtick_3">
     <g id="line2d_3"/>
     <g id="text_3">
      <!-- -180 -->
      <g style="fill: #262626" transform="translate(90.062054 353.067937) rotate(-45) scale(0.1 -0.1)">
       <defs>
        <path id="ArialMT-38" d="M 1131 2484 
Q 781 2613 612 2850 
Q 444 3088 444 3419 
Q 444 3919 803 4259 
Q 1163 4600 1759 4600 
Q 2359 4600 2725 4251 
Q 3091 3903 3091 3403 
Q 3091 3084 2923 2848 
Q 2756 2613 2416 2484 
Q 2838 2347 3058 2040 
Q 3278 1734 3278 1309 
Q 3278 722 2862 322 
Q 2447 -78 1769 -78 
Q 1091 -78 675 323 
Q 259 725 259 1325 
Q 259 1772 486 2073 
Q 713 2375 1131 2484 
z
M 1019 3438 
Q 1019 3113 1228 2906 
Q 1438 2700 1772 2700 
Q 2097 2700 2305 2904 
Q 2513 3109 2513 3406 
Q 2513 3716 2298 3927 
Q 2084 4138 1766 4138 
Q 1444 4138 1231 3931 
Q 1019 3725 1019 3438 
z
M 838 1322 
Q 838 1081 952 856 
Q 1066 631 1291 507 
Q 1516 384 1775 384 
Q 2178 384 2440 643 
Q 2703 903 2703 1303 
Q 2703 1709 2433 1975 
Q 2163 2241 1756 2241 
Q 1359 2241 1098 1978 
Q 838 1716 838 1322 
z
" transform="scale(0.015625)"/>
       </defs>
       <use xlink:href="#ArialMT-2d"/>
       <use xlink:href="#ArialMT-31" x="33.300781"/>
       <use xlink:href="#ArialMT-38" x="88.916016"/>
       <use xlink:href="#ArialMT-30" x="144.53125"/>
      </g>
     </g>
    </g>
    <g id="xtick_4">
     <g id="line2d_4"/>
     <g id="text_4">
      <!-- -170 -->
      <g style="fill: #262626" transform="translate(106.359973 353.067937) rotate(-45) scale(0.1 -0.1)">
       <defs>
        <path id="ArialMT-37" d="M 303 3981 
L 303 4522 
L 3269 4522 
L 3269 4084 
Q 2831 3619 2401 2847 
Q 1972 2075 1738 1259 
Q 1569 684 1522 0 
L 944 0 
Q 953 541 1156 1306 
Q 1359 2072 1739 2783 
Q 2119 3494 2547 3981 
L 303 3981 
z
" transform="scale(0.015625)"/>
       </defs>
       <use xlink:href="#ArialMT-2d"/>
       <use xlink:href="#ArialMT-31" x="33.300781"/>
       <use xlink:href="#ArialMT-37" x="88.916016"/>
       <use xlink:href="#ArialMT-30" x="144.53125"/>
      </g>
     </g>
    </g>
    <g id="xtick_5">
     <g id="line2d_5"/>
     <g id="text_5">
      <!-- -160 -->
      <g style="fill: #262626" transform="translate(122.657892 353.067937) rotate(-45) scale(0.1 -0.1)">
       <defs>
        <path id="ArialMT-36" d="M 3184 3459 
L 2625 3416 
Q 2550 3747 2413 3897 
Q 2184 4138 1850 4138 
Q 1581 4138 1378 3988 
Q 1113 3794 959 3422 
Q 806 3050 800 2363 
Q 1003 2672 1297 2822 
Q 1591 2972 1913 2972 
Q 2475 2972 2870 2558 
Q 3266 2144 3266 1488 
Q 3266 1056 3080 686 
Q 2894 316 2569 119 
Q 2244 -78 1831 -78 
Q 1128 -78 684 439 
Q 241 956 241 2144 
Q 241 3472 731 4075 
Q 1159 4600 1884 4600 
Q 2425 4600 2770 4297 
Q 3116 3994 3184 3459 
z
M 888 1484 
Q 888 1194 1011 928 
Q 1134 663 1356 523 
Q 1578 384 1822 384 
Q 2178 384 2434 671 
Q 2691 959 2691 1453 
Q 2691 1928 2437 2201 
Q 2184 2475 1800 2475 
Q 1419 2475 1153 2201 
Q 888 1928 888 1484 
z
" transform="scale(0.015625)"/>
       </defs>
       <use xlink:href="#ArialMT-2d"/>
       <use xlink:href="#ArialMT-31" x="33.300781"/>
       <use xlink:href="#ArialMT-36" x="88.916016"/>
       <use xlink:href="#ArialMT-30" x="144.53125"/>
      </g>
     </g>
    </g>
    <g id="xtick_6">
     <g id="line2d_6"/>
     <g id="text_6">
      <!-- -150 -->
      <g style="fill: #262626" transform="translate(138.955811 353.067937) rotate(-45) scale(0.1 -0.1)">
       <defs>
        <path id="ArialMT-35" d="M 266 1200 
L 856 1250 
Q 922 819 1161 601 
Q 1400 384 1738 384 
Q 2144 384 2425 690 
Q 2706 997 2706 1503 
Q 2706 1984 2436 2262 
Q 2166 2541 1728 2541 
Q 1456 2541 1237 2417 
Q 1019 2294 894 2097 
L 366 2166 
L 809 4519 
L 3088 4519 
L 3088 3981 
L 1259 3981 
L 1013 2750 
Q 1425 3038 1878 3038 
Q 2478 3038 2890 2622 
Q 3303 2206 3303 1553 
Q 3303 931 2941 478 
Q 2500 -78 1738 -78 
Q 1113 -78 717 272 
Q 322 622 266 1200 
z
" transform="scale(0.015625)"/>
       </defs>
       <use xlink:href="#ArialMT-2d"/>
       <use xlink:href="#ArialMT-31" x="33.300781"/>
       <use xlink:href="#ArialMT-35" x="88.916016"/>
       <use xlink:href="#ArialMT-30" x="144.53125"/>
      </g>
     </g>
    </g>
    <g id="xtick_7">
     <g id="line2d_7"/>
     <g id="text_7">
      <!-- -140 -->
      <g style="fill: #262626" transform="translate(155.25373 353.067937) rotate(-45) scale(0.1 -0.1)">
       <defs>
        <path id="ArialMT-34" d="M 2069 0 
L 2069 1097 
L 81 1097 
L 81 1613 
L 2172 4581 
L 2631 4581 
L 2631 1613 
L 3250 1613 
L 3250 1097 
L 2631 1097 
L 2631 0 
L 2069 0 
z
M 2069 1613 
L 2069 3678 
L 634 1613 
L 2069 1613 
z
" transform="scale(0.015625)"/>
       </defs>
       <use xlink:href="#ArialMT-2d"/>
       <use xlink:href="#ArialMT-31" x="33.300781"/>
       <use xlink:href="#ArialMT-34" x="88.916016"/>
       <use xlink:href="#ArialMT-30" x="144.53125"/>
      </g>
     </g>
    </g>
    <g id="xtick_8">
     <g id="line2d_8"/>
     <g id="text_8">
      <!-- -130 -->
      <g style="fill: #262626" transform="translate(171.551649 353.067937) rotate(-45) scale(0.1 -0.1)">
       <defs>
        <path id="ArialMT-33" d="M 269 1209 
L 831 1284 
Q 928 806 1161 595 
Q 1394 384 1728 384 
Q 2125 384 2398 659 
Q 2672 934 2672 1341 
Q 2672 1728 2419 1979 
Q 2166 2231 1775 2231 
Q 1616 2231 1378 2169 
L 1441 2663 
Q 1497 2656 1531 2656 
Q 1891 2656 2178 2843 
Q 2466 3031 2466 3422 
Q 2466 3731 2256 3934 
Q 2047 4138 1716 4138 
Q 1388 4138 1169 3931 
Q 950 3725 888 3313 
L 325 3413 
Q 428 3978 793 4289 
Q 1159 4600 1703 4600 
Q 2078 4600 2393 4439 
Q 2709 4278 2876 4000 
Q 3044 3722 3044 3409 
Q 3044 3113 2884 2869 
Q 2725 2625 2413 2481 
Q 2819 2388 3044 2092 
Q 3269 1797 3269 1353 
Q 3269 753 2831 336 
Q 2394 -81 1725 -81 
Q 1122 -81 723 278 
Q 325 638 269 1209 
z
" transform="scale(0.015625)"/>
       </defs>
       <use xlink:href="#ArialMT-2d"/>
       <use xlink:href="#ArialMT-31" x="33.300781"/>
       <use xlink:href="#ArialMT-33" x="88.916016"/>
       <use xlink:href="#ArialMT-30" x="144.53125"/>
      </g>
     </g>
    </g>
    <g id="xtick_9">
     <g id="line2d_9"/>
     <g id="text_9">
      <!-- -120 -->
      <g style="fill: #262626" transform="translate(187.849567 353.067937) rotate(-45) scale(0.1 -0.1)">
       <use xlink:href="#ArialMT-2d"/>
       <use xlink:href="#ArialMT-31" x="33.300781"/>
       <use xlink:href="#ArialMT-32" x="88.916016"/>
       <use xlink:href="#ArialMT-30" x="144.53125"/>
      </g>
     </g>
    </g>
    <g id="xtick_10">
     <g id="line2d_10"/>
     <g id="text_10">
      <!-- -110 -->
      <g style="fill: #262626" transform="translate(204.408232 352.546446) rotate(-45) scale(0.1 -0.1)">
       <use xlink:href="#ArialMT-2d"/>
       <use xlink:href="#ArialMT-31" x="33.300781"/>
       <use xlink:href="#ArialMT-31" x="81.541016"/>
       <use xlink:href="#ArialMT-30" x="137.15625"/>
      </g>
     </g>
    </g>
    <g id="xtick_11">
     <g id="line2d_11"/>
     <g id="text_11">
      <!-- -100 -->
      <g style="fill: #262626" transform="translate(220.445405 353.067937) rotate(-45) scale(0.1 -0.1)">
       <use xlink:href="#ArialMT-2d"/>
       <use xlink:href="#ArialMT-31" x="33.300781"/>
       <use xlink:href="#ArialMT-30" x="88.916016"/>
       <use xlink:href="#ArialMT-30" x="144.53125"/>
      </g>
     </g>
    </g>
    <g id="xtick_12">
     <g id="line2d_12"/>
     <g id="text_12">
      <!-- -90 -->
      <g style="fill: #262626" transform="translate(238.709413 349.135761) rotate(-45) scale(0.1 -0.1)">
       <use xlink:href="#ArialMT-2d"/>
       <use xlink:href="#ArialMT-39" x="33.300781"/>
       <use xlink:href="#ArialMT-30" x="88.916016"/>
      </g>
     </g>
    </g>
    <g id="xtick_13">
     <g id="line2d_13"/>
     <g id="text_13">
      <!-- -80 -->
      <g style="fill: #262626" transform="translate(255.007332 349.135761) rotate(-45) scale(0.1 -0.1)">
       <use xlink:href="#ArialMT-2d"/>
       <use xlink:href="#ArialMT-38" x="33.300781"/>
       <use xlink:href="#ArialMT-30" x="88.916016"/>
      </g>
     </g>
    </g>
    <g id="xtick_14">
     <g id="line2d_14"/>
     <g id="text_14">
      <!-- -70 -->
      <g style="fill: #262626" transform="translate(271.305251 349.135761) rotate(-45) scale(0.1 -0.1)">
       <use xlink:href="#ArialMT-2d"/>
       <use xlink:href="#ArialMT-37" x="33.300781"/>
       <use xlink:href="#ArialMT-30" x="88.916016"/>
      </g>
     </g>
    </g>
    <g id="xtick_15">
     <g id="line2d_15"/>
     <g id="text_15">
      <!-- -60 -->
      <g style="fill: #262626" transform="translate(287.603169 349.135761) rotate(-45) scale(0.1 -0.1)">
       <use xlink:href="#ArialMT-2d"/>
       <use xlink:href="#ArialMT-36" x="33.300781"/>
       <use xlink:href="#ArialMT-30" x="88.916016"/>
      </g>
     </g>
    </g>
    <g id="xtick_16">
     <g id="line2d_16"/>
     <g id="text_16">
      <!-- -50 -->
      <g style="fill: #262626" transform="translate(303.901088 349.135761) rotate(-45) scale(0.1 -0.1)">
       <use xlink:href="#ArialMT-2d"/>
       <use xlink:href="#ArialMT-35" x="33.300781"/>
       <use xlink:href="#ArialMT-30" x="88.916016"/>
      </g>
     </g>
    </g>
    <g id="xtick_17">
     <g id="line2d_17"/>
     <g id="text_17">
      <!-- -40 -->
      <g style="fill: #262626" transform="translate(320.199007 349.135761) rotate(-45) scale(0.1 -0.1)">
       <use xlink:href="#ArialMT-2d"/>
       <use xlink:href="#ArialMT-34" x="33.300781"/>
       <use xlink:href="#ArialMT-30" x="88.916016"/>
      </g>
     </g>
    </g>
    <g id="xtick_18">
     <g id="line2d_18"/>
     <g id="text_18">
      <!-- -30 -->
      <g style="fill: #262626" transform="translate(336.496926 349.135761) rotate(-45) scale(0.1 -0.1)">
       <use xlink:href="#ArialMT-2d"/>
       <use xlink:href="#ArialMT-33" x="33.300781"/>
       <use xlink:href="#ArialMT-30" x="88.916016"/>
      </g>
     </g>
    </g>
    <g id="xtick_19">
     <g id="line2d_19"/>
     <g id="text_19">
      <!-- -20 -->
      <g style="fill: #262626" transform="translate(352.794845 349.135761) rotate(-45) scale(0.1 -0.1)">
       <use xlink:href="#ArialMT-2d"/>
       <use xlink:href="#ArialMT-32" x="33.300781"/>
       <use xlink:href="#ArialMT-30" x="88.916016"/>
      </g>
     </g>
    </g>
    <g id="xtick_20">
     <g id="line2d_20"/>
     <g id="text_20">
      <!-- -10 -->
      <g style="fill: #262626" transform="translate(369.092764 349.135761) rotate(-45) scale(0.1 -0.1)">
       <use xlink:href="#ArialMT-2d"/>
       <use xlink:href="#ArialMT-31" x="33.300781"/>
       <use xlink:href="#ArialMT-30" x="88.916016"/>
      </g>
     </g>
    </g>
    <g id="xtick_21">
     <g id="line2d_21"/>
     <g id="text_21">
      <!-- 0 -->
      <g style="fill: #262626" transform="translate(388.533994 342.849139) rotate(-45) scale(0.1 -0.1)">
       <use xlink:href="#ArialMT-30"/>
      </g>
     </g>
    </g>
    <g id="xtick_22">
     <g id="line2d_22"/>
     <g id="text_22">
      <!-- 10 -->
      <g style="fill: #262626" transform="translate(402.865824 346.781316) rotate(-45) scale(0.1 -0.1)">
       <use xlink:href="#ArialMT-31"/>
       <use xlink:href="#ArialMT-30" x="55.615234"/>
      </g>
     </g>
    </g>
    <g id="xtick_23">
     <g id="line2d_23"/>
     <g id="text_23">
      <!-- 20 -->
      <g style="fill: #262626" transform="translate(419.163743 346.781316) rotate(-45) scale(0.1 -0.1)">
       <use xlink:href="#ArialMT-32"/>
       <use xlink:href="#ArialMT-30" x="55.615234"/>
      </g>
     </g>
    </g>
    <g id="xtick_24">
     <g id="line2d_24"/>
     <g id="text_24">
      <!-- 30 -->
      <g style="fill: #262626" transform="translate(435.461662 346.781316) rotate(-45) scale(0.1 -0.1)">
       <use xlink:href="#ArialMT-33"/>
       <use xlink:href="#ArialMT-30" x="55.615234"/>
      </g>
     </g>
    </g>
    <g id="xtick_25">
     <g id="line2d_25"/>
     <g id="text_25">
      <!-- 40 -->
      <g style="fill: #262626" transform="translate(451.759581 346.781316) rotate(-45) scale(0.1 -0.1)">
       <use xlink:href="#ArialMT-34"/>
       <use xlink:href="#ArialMT-30" x="55.615234"/>
      </g>
     </g>
    </g>
    <g id="xtick_26">
     <g id="line2d_26"/>
     <g id="text_26">
      <!-- 50 -->
      <g style="fill: #262626" transform="translate(468.0575 346.781316) rotate(-45) scale(0.1 -0.1)">
       <use xlink:href="#ArialMT-35"/>
       <use xlink:href="#ArialMT-30" x="55.615234"/>
      </g>
     </g>
    </g>
    <g id="text_27">
     <!-- Position -->
     <g style="fill: #262626" transform="translate(246.056563 366.346906) scale(0.11 -0.11)">
      <defs>
       <path id="ArialMT-50" d="M 494 0 
L 494 4581 
L 2222 4581 
Q 2678 4581 2919 4538 
Q 3256 4481 3484 4323 
Q 3713 4166 3852 3881 
Q 3991 3597 3991 3256 
Q 3991 2672 3619 2267 
Q 3247 1863 2275 1863 
L 1100 1863 
L 1100 0 
L 494 0 
z
M 1100 2403 
L 2284 2403 
Q 2872 2403 3119 2622 
Q 3366 2841 3366 3238 
Q 3366 3525 3220 3729 
Q 3075 3934 2838 4000 
Q 2684 4041 2272 4041 
L 1100 4041 
L 1100 2403 
z
" transform="scale(0.015625)"/>
       <path id="ArialMT-6f" d="M 213 1659 
Q 213 2581 725 3025 
Q 1153 3394 1769 3394 
Q 2453 3394 2887 2945 
Q 3322 2497 3322 1706 
Q 3322 1066 3130 698 
Q 2938 331 2570 128 
Q 2203 -75 1769 -75 
Q 1072 -75 642 372 
Q 213 819 213 1659 
z
M 791 1659 
Q 791 1022 1069 705 
Q 1347 388 1769 388 
Q 2188 388 2466 706 
Q 2744 1025 2744 1678 
Q 2744 2294 2464 2611 
Q 2184 2928 1769 2928 
Q 1347 2928 1069 2612 
Q 791 2297 791 1659 
z
" transform="scale(0.015625)"/>
       <path id="ArialMT-73" d="M 197 991 
L 753 1078 
Q 800 744 1014 566 
Q 1228 388 1613 388 
Q 2000 388 2187 545 
Q 2375 703 2375 916 
Q 2375 1106 2209 1216 
Q 2094 1291 1634 1406 
Q 1016 1563 777 1677 
Q 538 1791 414 1992 
Q 291 2194 291 2438 
Q 291 2659 392 2848 
Q 494 3038 669 3163 
Q 800 3259 1026 3326 
Q 1253 3394 1513 3394 
Q 1903 3394 2198 3281 
Q 2494 3169 2634 2976 
Q 2775 2784 2828 2463 
L 2278 2388 
Q 2241 2644 2061 2787 
Q 1881 2931 1553 2931 
Q 1166 2931 1000 2803 
Q 834 2675 834 2503 
Q 834 2394 903 2306 
Q 972 2216 1119 2156 
Q 1203 2125 1616 2013 
Q 2213 1853 2448 1751 
Q 2684 1650 2818 1456 
Q 2953 1263 2953 975 
Q 2953 694 2789 445 
Q 2625 197 2315 61 
Q 2006 -75 1616 -75 
Q 969 -75 630 194 
Q 291 463 197 991 
z
" transform="scale(0.015625)"/>
       <path id="ArialMT-69" d="M 425 3934 
L 425 4581 
L 988 4581 
L 988 3934 
L 425 3934 
z
M 425 0 
L 425 3319 
L 988 3319 
L 988 0 
L 425 0 
z
" transform="scale(0.015625)"/>
       <path id="ArialMT-74" d="M 1650 503 
L 1731 6 
Q 1494 -44 1306 -44 
Q 1000 -44 831 53 
Q 663 150 594 308 
Q 525 466 525 972 
L 525 2881 
L 113 2881 
L 113 3319 
L 525 3319 
L 525 4141 
L 1084 4478 
L 1084 3319 
L 1650 3319 
L 1650 2881 
L 1084 2881 
L 1084 941 
Q 1084 700 1114 631 
Q 1144 563 1211 522 
Q 1278 481 1403 481 
Q 1497 481 1650 503 
z
" transform="scale(0.015625)"/>
       <path id="ArialMT-6e" d="M 422 0 
L 422 3319 
L 928 3319 
L 928 2847 
Q 1294 3394 1984 3394 
Q 2284 3394 2536 3286 
Q 2788 3178 2913 3003 
Q 3038 2828 3088 2588 
Q 3119 2431 3119 2041 
L 3119 0 
L 2556 0 
L 2556 2019 
Q 2556 2363 2490 2533 
Q 2425 2703 2258 2804 
Q 2091 2906 1866 2906 
Q 1506 2906 1245 2678 
Q 984 2450 984 1813 
L 984 0 
L 422 0 
z
" transform="scale(0.015625)"/>
      </defs>
      <use xlink:href="#ArialMT-50"/>
      <use xlink:href="#ArialMT-6f" x="66.699219"/>
      <use xlink:href="#ArialMT-73" x="122.314453"/>
      <use xlink:href="#ArialMT-69" x="172.314453"/>
      <use xlink:href="#ArialMT-74" x="194.53125"/>
      <use xlink:href="#ArialMT-69" x="222.314453"/>
      <use xlink:href="#ArialMT-6f" x="244.53125"/>
      <use xlink:href="#ArialMT-6e" x="300.146484"/>
     </g>
    </g>
   </g>
   <g id="matplotlib.axis_2">
    <g id="ytick_1">
     <g id="line2d_27"/>
     <g id="text_28">
      <!-- 1.8 -->
      <g style="fill: #262626" transform="translate(21.522813 314.170504) scale(0.1 -0.1)">
       <defs>
        <path id="ArialMT-2e" d="M 581 0 
L 581 641 
L 1222 641 
L 1222 0 
L 581 0 
z
" transform="scale(0.015625)"/>
       </defs>
       <use xlink:href="#ArialMT-31"/>
       <use xlink:href="#ArialMT-2e" x="55.615234"/>
       <use xlink:href="#ArialMT-38" x="83.398438"/>
      </g>
     </g>
    </g>
    <g id="ytick_2">
     <g id="line2d_28"/>
     <g id="text_29">
      <!-- 1.9 -->
      <g style="fill: #262626" transform="translate(21.522813 264.177176) scale(0.1 -0.1)">
       <use xlink:href="#ArialMT-31"/>
       <use xlink:href="#ArialMT-2e" x="55.615234"/>
       <use xlink:href="#ArialMT-39" x="83.398438"/>
      </g>
     </g>
    </g>
    <g id="ytick_3">
     <g id="line2d_29"/>
     <g id="text_30">
      <!-- 2.0 -->
      <g style="fill: #262626" transform="translate(21.522813 214.183848) scale(0.1 -0.1)">
       <use xlink:href="#ArialMT-32"/>
       <use xlink:href="#ArialMT-2e" x="55.615234"/>
       <use xlink:href="#ArialMT-30" x="83.398438"/>
      </g>
     </g>
    </g>
    <g id="ytick_4">
     <g id="line2d_30"/>
     <g id="text_31">
      <!-- 2.1 -->
      <g style="fill: #262626" transform="translate(21.522813 164.190521) scale(0.1 -0.1)">
       <use xlink:href="#ArialMT-32"/>
       <use xlink:href="#ArialMT-2e" x="55.615234"/>
       <use xlink:href="#ArialMT-31" x="83.398438"/>
      </g>
     </g>
    </g>
    <g id="ytick_5">
     <g id="line2d_31"/>
     <g id="text_32">
      <!-- 2.2 -->
      <g style="fill: #262626" transform="translate(21.522813 114.197193) scale(0.1 -0.1)">
       <use xlink:href="#ArialMT-32"/>
       <use xlink:href="#ArialMT-2e" x="55.615234"/>
       <use xlink:href="#ArialMT-32" x="83.398438"/>
      </g>
     </g>
    </g>
    <g id="ytick_6">
     <g id="line2d_32"/>
     <g id="text_33">
      <!-- 2.3 -->
      <g style="fill: #262626" transform="translate(21.522813 64.203865) scale(0.1 -0.1)">
       <use xlink:href="#ArialMT-32"/>
       <use xlink:href="#ArialMT-2e" x="55.615234"/>
       <use xlink:href="#ArialMT-33" x="83.398438"/>
      </g>
     </g>
    </g>
    <g id="text_34">
     <!-- Duplex tability(disruptenergy) -->
     <g style="fill: #262626" transform="translate(15.207656 245.617187) rotate(-90) scale(0.11 -0.11)">
      <defs>
       <path id="ArialMT-44" d="M 494 0 
L 494 4581 
L 2072 4581 
Q 2606 4581 2888 4516 
Q 3281 4425 3559 4188 
Q 3922 3881 4101 3404 
Q 4281 2928 4281 2316 
Q 4281 1794 4159 1391 
Q 4038 988 3847 723 
Q 3656 459 3429 307 
Q 3203 156 2883 78 
Q 2563 0 2147 0 
L 494 0 
z
M 1100 541 
L 2078 541 
Q 2531 541 2789 625 
Q 3047 709 3200 863 
Q 3416 1078 3536 1442 
Q 3656 1806 3656 2325 
Q 3656 3044 3420 3430 
Q 3184 3816 2847 3947 
Q 2603 4041 2063 4041 
L 1100 4041 
L 1100 541 
z
" transform="scale(0.015625)"/>
       <path id="ArialMT-75" d="M 2597 0 
L 2597 488 
Q 2209 -75 1544 -75 
Q 1250 -75 995 37 
Q 741 150 617 320 
Q 494 491 444 738 
Q 409 903 409 1263 
L 409 3319 
L 972 3319 
L 972 1478 
Q 972 1038 1006 884 
Q 1059 663 1231 536 
Q 1403 409 1656 409 
Q 1909 409 2131 539 
Q 2353 669 2445 892 
Q 2538 1116 2538 1541 
L 2538 3319 
L 3100 3319 
L 3100 0 
L 2597 0 
z
" transform="scale(0.015625)"/>
       <path id="ArialMT-70" d="M 422 -1272 
L 422 3319 
L 934 3319 
L 934 2888 
Q 1116 3141 1344 3267 
Q 1572 3394 1897 3394 
Q 2322 3394 2647 3175 
Q 2972 2956 3137 2557 
Q 3303 2159 3303 1684 
Q 3303 1175 3120 767 
Q 2938 359 2589 142 
Q 2241 -75 1856 -75 
Q 1575 -75 1351 44 
Q 1128 163 984 344 
L 984 -1272 
L 422 -1272 
z
M 931 1641 
Q 931 1000 1190 694 
Q 1450 388 1819 388 
Q 2194 388 2461 705 
Q 2728 1022 2728 1688 
Q 2728 2322 2467 2637 
Q 2206 2953 1844 2953 
Q 1484 2953 1207 2617 
Q 931 2281 931 1641 
z
" transform="scale(0.015625)"/>
       <path id="ArialMT-6c" d="M 409 0 
L 409 4581 
L 972 4581 
L 972 0 
L 409 0 
z
" transform="scale(0.015625)"/>
       <path id="ArialMT-65" d="M 2694 1069 
L 3275 997 
Q 3138 488 2766 206 
Q 2394 -75 1816 -75 
Q 1088 -75 661 373 
Q 234 822 234 1631 
Q 234 2469 665 2931 
Q 1097 3394 1784 3394 
Q 2450 3394 2872 2941 
Q 3294 2488 3294 1666 
Q 3294 1616 3291 1516 
L 816 1516 
Q 847 969 1125 678 
Q 1403 388 1819 388 
Q 2128 388 2347 550 
Q 2566 713 2694 1069 
z
M 847 1978 
L 2700 1978 
Q 2663 2397 2488 2606 
Q 2219 2931 1791 2931 
Q 1403 2931 1139 2672 
Q 875 2413 847 1978 
z
" transform="scale(0.015625)"/>
       <path id="ArialMT-78" d="M 47 0 
L 1259 1725 
L 138 3319 
L 841 3319 
L 1350 2541 
Q 1494 2319 1581 2169 
Q 1719 2375 1834 2534 
L 2394 3319 
L 3066 3319 
L 1919 1756 
L 3153 0 
L 2463 0 
L 1781 1031 
L 1600 1309 
L 728 0 
L 47 0 
z
" transform="scale(0.015625)"/>
       <path id="ArialMT-20" transform="scale(0.015625)"/>
       <path id="ArialMT-61" d="M 2588 409 
Q 2275 144 1986 34 
Q 1697 -75 1366 -75 
Q 819 -75 525 192 
Q 231 459 231 875 
Q 231 1119 342 1320 
Q 453 1522 633 1644 
Q 813 1766 1038 1828 
Q 1203 1872 1538 1913 
Q 2219 1994 2541 2106 
Q 2544 2222 2544 2253 
Q 2544 2597 2384 2738 
Q 2169 2928 1744 2928 
Q 1347 2928 1158 2789 
Q 969 2650 878 2297 
L 328 2372 
Q 403 2725 575 2942 
Q 747 3159 1072 3276 
Q 1397 3394 1825 3394 
Q 2250 3394 2515 3294 
Q 2781 3194 2906 3042 
Q 3031 2891 3081 2659 
Q 3109 2516 3109 2141 
L 3109 1391 
Q 3109 606 3145 398 
Q 3181 191 3288 0 
L 2700 0 
Q 2613 175 2588 409 
z
M 2541 1666 
Q 2234 1541 1622 1453 
Q 1275 1403 1131 1340 
Q 988 1278 909 1158 
Q 831 1038 831 891 
Q 831 666 1001 516 
Q 1172 366 1500 366 
Q 1825 366 2078 508 
Q 2331 650 2450 897 
Q 2541 1088 2541 1459 
L 2541 1666 
z
" transform="scale(0.015625)"/>
       <path id="ArialMT-62" d="M 941 0 
L 419 0 
L 419 4581 
L 981 4581 
L 981 2947 
Q 1338 3394 1891 3394 
Q 2197 3394 2470 3270 
Q 2744 3147 2920 2923 
Q 3097 2700 3197 2384 
Q 3297 2069 3297 1709 
Q 3297 856 2875 390 
Q 2453 -75 1863 -75 
Q 1275 -75 941 416 
L 941 0 
z
M 934 1684 
Q 934 1088 1097 822 
Q 1363 388 1816 388 
Q 2184 388 2453 708 
Q 2722 1028 2722 1663 
Q 2722 2313 2464 2622 
Q 2206 2931 1841 2931 
Q 1472 2931 1203 2611 
Q 934 2291 934 1684 
z
" transform="scale(0.015625)"/>
       <path id="ArialMT-79" d="M 397 -1278 
L 334 -750 
Q 519 -800 656 -800 
Q 844 -800 956 -737 
Q 1069 -675 1141 -563 
Q 1194 -478 1313 -144 
Q 1328 -97 1363 -6 
L 103 3319 
L 709 3319 
L 1400 1397 
Q 1534 1031 1641 628 
Q 1738 1016 1872 1384 
L 2581 3319 
L 3144 3319 
L 1881 -56 
Q 1678 -603 1566 -809 
Q 1416 -1088 1222 -1217 
Q 1028 -1347 759 -1347 
Q 597 -1347 397 -1278 
z
" transform="scale(0.015625)"/>
       <path id="ArialMT-28" d="M 1497 -1347 
Q 1031 -759 709 28 
Q 388 816 388 1659 
Q 388 2403 628 3084 
Q 909 3875 1497 4659 
L 1900 4659 
Q 1522 4009 1400 3731 
Q 1209 3300 1100 2831 
Q 966 2247 966 1656 
Q 966 153 1900 -1347 
L 1497 -1347 
z
" transform="scale(0.015625)"/>
       <path id="ArialMT-64" d="M 2575 0 
L 2575 419 
Q 2259 -75 1647 -75 
Q 1250 -75 917 144 
Q 584 363 401 755 
Q 219 1147 219 1656 
Q 219 2153 384 2558 
Q 550 2963 881 3178 
Q 1213 3394 1622 3394 
Q 1922 3394 2156 3267 
Q 2391 3141 2538 2938 
L 2538 4581 
L 3097 4581 
L 3097 0 
L 2575 0 
z
M 797 1656 
Q 797 1019 1065 703 
Q 1334 388 1700 388 
Q 2069 388 2326 689 
Q 2584 991 2584 1609 
Q 2584 2291 2321 2609 
Q 2059 2928 1675 2928 
Q 1300 2928 1048 2622 
Q 797 2316 797 1656 
z
" transform="scale(0.015625)"/>
       <path id="ArialMT-72" d="M 416 0 
L 416 3319 
L 922 3319 
L 922 2816 
Q 1116 3169 1280 3281 
Q 1444 3394 1641 3394 
Q 1925 3394 2219 3213 
L 2025 2691 
Q 1819 2813 1613 2813 
Q 1428 2813 1281 2702 
Q 1134 2591 1072 2394 
Q 978 2094 978 1738 
L 978 0 
L 416 0 
z
" transform="scale(0.015625)"/>
       <path id="ArialMT-67" d="M 319 -275 
L 866 -356 
Q 900 -609 1056 -725 
Q 1266 -881 1628 -881 
Q 2019 -881 2231 -725 
Q 2444 -569 2519 -288 
Q 2563 -116 2559 434 
Q 2191 0 1641 0 
Q 956 0 581 494 
Q 206 988 206 1678 
Q 206 2153 378 2554 
Q 550 2956 876 3175 
Q 1203 3394 1644 3394 
Q 2231 3394 2613 2919 
L 2613 3319 
L 3131 3319 
L 3131 450 
Q 3131 -325 2973 -648 
Q 2816 -972 2473 -1159 
Q 2131 -1347 1631 -1347 
Q 1038 -1347 672 -1080 
Q 306 -813 319 -275 
z
M 784 1719 
Q 784 1066 1043 766 
Q 1303 466 1694 466 
Q 2081 466 2343 764 
Q 2606 1063 2606 1700 
Q 2606 2309 2336 2618 
Q 2066 2928 1684 2928 
Q 1309 2928 1046 2623 
Q 784 2319 784 1719 
z
" transform="scale(0.015625)"/>
       <path id="ArialMT-29" d="M 791 -1347 
L 388 -1347 
Q 1322 153 1322 1656 
Q 1322 2244 1188 2822 
Q 1081 3291 891 3722 
Q 769 4003 388 4659 
L 791 4659 
Q 1378 3875 1659 3084 
Q 1900 2403 1900 1659 
Q 1900 816 1576 28 
Q 1253 -759 791 -1347 
z
" transform="scale(0.015625)"/>
      </defs>
      <use xlink:href="#ArialMT-44"/>
      <use xlink:href="#ArialMT-75" x="72.216797"/>
      <use xlink:href="#ArialMT-70" x="127.832031"/>
      <use xlink:href="#ArialMT-6c" x="183.447266"/>
      <use xlink:href="#ArialMT-65" x="205.664062"/>
      <use xlink:href="#ArialMT-78" x="261.279297"/>
      <use xlink:href="#ArialMT-20" x="311.279297"/>
      <use xlink:href="#ArialMT-74" x="339.0625"/>
      <use xlink:href="#ArialMT-61" x="366.845703"/>
      <use xlink:href="#ArialMT-62" x="422.460938"/>
      <use xlink:href="#ArialMT-69" x="478.076172"/>
      <use xlink:href="#ArialMT-6c" x="500.292969"/>
      <use xlink:href="#ArialMT-69" x="522.509766"/>
      <use xlink:href="#ArialMT-74" x="544.726562"/>
      <use xlink:href="#ArialMT-79" x="572.509766"/>
      <use xlink:href="#ArialMT-28" x="622.509766"/>
      <use xlink:href="#ArialMT-64" x="655.810547"/>
      <use xlink:href="#ArialMT-69" x="711.425781"/>
      <use xlink:href="#ArialMT-73" x="733.642578"/>
      <use xlink:href="#ArialMT-72" x="783.642578"/>
      <use xlink:href="#ArialMT-75" x="816.943359"/>
      <use xlink:href="#ArialMT-70" x="872.558594"/>
      <use xlink:href="#ArialMT-74" x="928.173828"/>
      <use xlink:href="#ArialMT-65" x="955.957031"/>
      <use xlink:href="#ArialMT-6e" x="1011.572266"/>
      <use xlink:href="#ArialMT-65" x="1067.1875"/>
      <use xlink:href="#ArialMT-72" x="1122.802734"/>
      <use xlink:href="#ArialMT-67" x="1156.103516"/>
      <use xlink:href="#ArialMT-79" x="1211.71875"/>
      <use xlink:href="#ArialMT-29" x="1261.71875"/>
     </g>
    </g>
   </g>
   <g id="line2d_33">
    <path d="M 62.713722 158.717253 
L 64.343513 161.655509 
L 65.973305 156.712362 
L 67.603097 156.552708 
L 69.232889 155.662327 
L 70.862681 158.757167 
L 72.492473 158.926032 
L 74.122265 158.493123 
L 75.752057 157.857575 
L 77.381849 152.15607 
L 79.011641 151.729302 
L 80.641432 153.694279 
L 82.271224 156.644816 
L 83.901016 153.758755 
L 85.530808 151.164371 
L 87.1606 150.94024 
L 88.790392 151.683248 
L 90.420184 149.211674 
L 92.049976 145.855861 
L 95.309559 151.71395 
L 96.939351 150.092844 
L 98.569143 148.198483 
L 100.198935 151.48982 
L 101.828727 151.360868 
L 103.458519 147.17608 
L 105.088311 146.801506 
L 106.718103 144.547923 
L 108.347895 146.826069 
L 109.977687 142.202231 
L 111.607478 142.340393 
L 113.23727 140.912714 
L 114.867062 136.589764 
L 116.496854 139.20871 
L 118.126646 142.96673 
L 119.756438 137.388036 
L 121.38623 144.428182 
L 123.016022 143.682104 
L 124.645814 138.573163 
L 126.275605 137.483214 
L 127.905397 139.887242 
L 129.535189 139.828906 
L 131.164981 137.839366 
L 132.794773 142.380307 
L 134.424565 142.500048 
L 136.054357 141.336413 
L 137.684149 137.044165 
L 139.313941 140.280237 
L 140.943733 132.159353 
L 142.573524 135.77614 
L 144.203316 132.180845 
L 145.833108 136.248963 
L 147.4629 136.405547 
L 149.092692 134.11512 
L 152.352276 128.02983 
L 153.982068 128.192555 
L 155.61186 127.394283 
L 157.241651 127.299104 
L 158.871443 132.687441 
L 160.501235 127.421915 
L 162.131027 124.456027 
L 163.760819 122.991505 
L 165.390611 123.900307 
L 167.020403 126.445567 
L 168.650195 124.462168 
L 170.279987 122.966942 
L 171.909779 123.448976 
L 173.53957 126.058712 
L 175.169362 121.266009 
L 176.799154 122.49719 
L 178.428946 118.152747 
L 180.058738 114.922816 
L 181.68853 116.107943 
L 183.318322 117.980812 
L 184.948114 116.531641 
L 186.577906 115.64126 
L 188.207697 113.998662 
L 189.837489 111.296818 
L 191.467281 113.722337 
L 193.097073 114.965799 
L 194.726865 117.234734 
L 196.356657 116.534711 
L 197.986449 111.864819 
L 199.616241 112.070528 
L 201.246033 110.701184 
L 202.875825 107.643188 
L 204.505616 112.53721 
L 206.135408 109.890631 
L 207.7652 106.000589 
L 209.394992 105.205387 
L 211.024784 108.573482 
L 212.654576 104.784759 
L 214.284368 105.497064 
L 215.91416 101.57939 
L 217.543952 100.403473 
L 219.173743 101.241659 
L 220.803535 104.493083 
L 222.433327 103.286464 
L 224.063119 103.639546 
L 225.692911 98.545956 
L 227.322703 105.668999 
L 228.952495 102.488192 
L 230.582287 101.769747 
L 232.212079 100.047321 
L 233.841871 101.235519 
L 235.471662 97.127487 
L 237.101454 90.784294 
L 238.731246 92.433033 
L 240.361038 94.428714 
L 241.99083 94.5024 
L 243.620622 94.198443 
L 245.250414 94.873904 
L 246.880206 90.437353 
L 248.509998 83.811694 
L 250.139789 91.551864 
L 251.769581 84.376625 
L 253.399373 83.268255 
L 255.029165 87.962709 
L 256.658957 84.98761 
L 258.288749 86.940307 
L 259.918541 85.438941 
L 263.178125 79.725155 
L 264.807917 78.116329 
L 268.0675 73.381962 
L 269.697292 80.922563 
L 271.327084 83.716516 
L 272.956876 79.11724 
L 274.586668 77.060154 
L 276.21646 81.858998 
L 277.846252 79.835685 
L 279.476044 78.524676 
L 281.105836 78.042643 
L 282.735627 71.241978 
L 284.365419 71.745504 
L 285.995211 69.986235 
L 287.625003 72.325786 
L 289.254795 76.301795 
L 290.884587 77.179895 
L 292.514379 74.109617 
L 294.144171 70.723101 
L 297.403754 61.18989 
L 299.033546 62.454844 
L 300.663338 59.952568 
L 302.29313 60.213542 
L 303.922922 65.089142 
L 305.552714 67.714229 
L 307.182506 68.629172 
L 308.812298 67.487029 
L 310.44209 54.364663 
L 312.071882 52.881719 
L 313.701673 49.725474 
L 315.331465 39.568996 
L 316.961257 40.146208 
L 318.591049 41.798017 
L 321.850633 50.198297 
L 323.480425 54.674761 
L 325.110217 55.350222 
L 326.740009 51.426408 
L 328.3698 50.90139 
L 329.999592 60.222752 
L 331.629384 71.054691 
L 333.259176 70.70468 
L 334.888968 66.219004 
L 336.51876 64.100513 
L 338.148552 74.69604 
L 339.778344 93.489209 
L 341.408136 114.646491 
L 343.037928 140.882011 
L 344.667719 154.946952 
L 346.297511 138.155605 
L 347.927303 90.222433 
L 349.557095 60.879792 
L 351.186887 45.820081 
L 352.816679 39.053189 
L 354.446471 41.573887 
L 357.706055 53.471212 
L 359.335846 52.829524 
L 360.965638 57.97838 
L 362.59543 58.847268 
L 364.225222 54.045354 
L 365.855014 43.48667 
L 367.484806 35.795625 
L 369.114598 36.612319 
L 370.74439 52.851016 
L 372.374182 59.393778 
L 374.003974 57.017383 
L 375.633765 63.1825 
L 377.263557 62.574585 
L 378.893349 84.502507 
L 380.523141 77.585171 
L 382.152933 49.759247 
L 383.782725 77.001819 
L 385.412517 84.732777 
L 387.042309 128.014479 
L 388.672101 312.995625 
L 390.301892 264.092246 
L 391.931684 233.1592 
L 393.561476 124.069172 
L 395.191268 117.458865 
L 396.82106 82.006371 
L 398.450852 76.12679 
L 400.080644 81.429159 
L 401.710436 77.975097 
L 403.340228 78.426427 
L 404.97002 79.467252 
L 406.599811 72.982826 
L 408.229603 64.094372 
L 409.859395 68.469518 
L 411.489187 67.394921 
L 413.118979 66.578227 
L 414.748771 59.409129 
L 416.378563 56.529209 
L 418.008355 72.218326 
L 419.638147 78.325108 
L 421.267938 76.215828 
L 422.89773 64.140426 
L 424.527522 70.013867 
L 426.157314 80.603254 
L 427.787106 86.252565 
L 429.416898 89.276788 
L 431.04669 75.727654 
L 432.676482 67.100174 
L 434.306274 76.780759 
L 435.936066 96.412113 
L 437.565857 87.809195 
L 439.195649 77.026381 
L 440.825441 77.68035 
L 442.455233 87.692525 
L 444.085025 92.28566 
L 445.714817 92.73085 
L 447.344609 97.48671 
L 448.974401 92.423822 
L 450.604193 84.910853 
L 452.233984 90.778154 
L 453.863776 92.006265 
L 455.493568 85.749039 
L 457.12336 82.310328 
L 458.753152 75.113598 
L 460.382944 74.060493 
L 462.012736 70.059921 
L 463.642528 65.429943 
L 465.27232 69.255509 
L 466.902112 70.812139 
L 468.531903 76.57505 
L 468.531903 76.57505 
" clip-path="url(#p5725e770c5)" style="fill: none; stroke: #0272a2; stroke-width: 1.75; stroke-linecap: round"/>
   </g>
   <g id="line2d_34">
    <path d="M 62.713722 268.072496 
L 64.343513 266.908362 
L 65.973305 264.086645 
L 67.603097 267.524668 
L 69.232889 267.208459 
L 70.862681 265.65158 
L 72.492473 265.681791 
L 74.122265 264.992978 
L 75.752057 264.93457 
L 77.381849 264.191377 
L 79.011641 266.275943 
L 80.641432 265.119865 
L 82.271224 267.13998 
L 83.901016 265.714016 
L 85.530808 265.959733 
L 87.1606 264.72712 
L 88.790392 265.230639 
L 90.420184 266.866066 
L 92.049976 263.661675 
L 93.679768 269.782444 
L 95.309559 267.003023 
L 96.939351 266.302126 
L 98.569143 266.910376 
L 100.198935 264.141025 
L 101.828727 266.012099 
L 103.458519 262.964806 
L 105.088311 264.954711 
L 106.718103 262.650611 
L 108.347895 265.720058 
L 109.977687 267.454176 
L 111.607478 265.103752 
L 113.23727 266.275943 
L 114.867062 267.25881 
L 116.496854 263.571042 
L 118.126646 264.402854 
L 119.756438 263.848984 
L 121.38623 266.155098 
L 123.016022 265.98793 
L 124.645814 265.518651 
L 126.275605 266.110789 
L 127.905397 263.091693 
L 129.535189 265.746241 
L 131.164981 267.254782 
L 132.794773 263.317269 
L 134.424565 264.578079 
L 136.054357 267.609259 
L 137.684149 261.339449 
L 139.313941 262.743258 
L 140.943733 265.327314 
L 142.573524 264.61836 
L 144.203316 268.197369 
L 145.833108 268.340368 
L 147.4629 266.197394 
L 149.092692 265.250779 
L 150.722484 270.435004 
L 152.352276 265.647552 
L 153.982068 265.822776 
L 155.61186 267.361528 
L 157.241651 266.656602 
L 158.871443 266.153084 
L 160.501235 262.533794 
L 162.131027 265.742213 
L 163.760819 266.388731 
L 165.390611 268.149031 
L 168.650195 267.131924 
L 170.279987 265.035273 
L 171.909779 261.659687 
L 173.53957 264.306179 
L 175.169362 265.417947 
L 176.799154 267.035248 
L 178.428946 266.6848 
L 180.058738 267.172205 
L 181.68853 266.678757 
L 183.318322 262.145078 
L 184.948114 264.267912 
L 186.577906 262.916468 
L 188.207697 264.541826 
L 189.837489 269.548812 
L 191.467281 263.496521 
L 193.097073 267.568978 
L 194.726865 266.52166 
L 196.356657 263.633478 
L 197.986449 268.898266 
L 199.616241 264.557938 
L 201.246033 263.679802 
L 202.875825 267.210473 
L 204.505616 263.710013 
L 206.135408 262.958764 
L 209.394992 269.504502 
L 211.024784 265.544834 
L 212.654576 267.3575 
L 214.284368 264.503558 
L 215.91416 266.719039 
L 217.543952 265.776452 
L 219.173743 263.528747 
L 220.803535 262.880215 
L 222.433327 268.95466 
L 224.063119 264.755317 
L 225.692911 265.033259 
L 227.322703 271.562885 
L 228.952495 269.550826 
L 230.582287 266.384703 
L 232.212079 264.348474 
L 233.841871 263.987955 
L 235.471662 267.653569 
L 237.101454 268.684774 
L 238.731246 264.181306 
L 240.361038 269.321221 
L 241.99083 268.855971 
L 243.620622 268.265847 
L 245.250414 260.269976 
L 246.880206 262.126952 
L 248.509998 267.391739 
L 250.139789 267.059417 
L 251.769581 268.122848 
L 253.399373 266.290041 
L 255.029165 264.77143 
L 256.658957 262.201472 
L 258.288749 265.417947 
L 259.918541 265.466285 
L 261.548333 265.381694 
L 263.178125 263.192396 
L 264.807917 266.155098 
L 266.437708 265.04333 
L 268.0675 264.767402 
L 269.697292 268.590113 
L 271.327084 270.692805 
L 272.956876 267.109769 
L 274.586668 267.939567 
L 276.21646 266.74925 
L 277.846252 266.942601 
L 279.476044 265.971818 
L 281.105836 266.872108 
L 282.735627 264.370629 
L 284.365419 264.568008 
L 285.995211 265.019161 
L 287.625003 268.012074 
L 289.254795 265.589144 
L 290.884587 263.637507 
L 292.514379 265.53275 
L 294.144171 265.863058 
L 295.773963 265.857015 
L 297.403754 268.344396 
L 299.033546 268.66262 
L 300.663338 265.48844 
L 302.29313 266.880165 
L 303.922922 268.898266 
L 305.552714 265.248765 
L 307.182506 266.551871 
L 308.812298 266.723067 
L 310.44209 265.228625 
L 312.071882 261.456265 
L 313.701673 266.491448 
L 315.331465 267.881159 
L 316.961257 267.20443 
L 318.591049 266.384703 
L 320.220841 266.578054 
L 321.850633 266.016127 
L 323.480425 266.527702 
L 325.110217 265.123893 
L 326.740009 266.203436 
L 329.999592 265.575045 
L 331.629384 264.310207 
L 333.259176 263.953716 
L 334.888968 267.913384 
L 336.51876 266.729109 
L 338.148552 266.257816 
L 339.778344 265.129935 
L 341.408136 266.892249 
L 343.037928 263.625422 
L 344.667719 268.904308 
L 346.297511 269.145997 
L 347.927303 266.233647 
L 349.557095 267.359514 
L 352.816679 263.591183 
L 354.446471 263.71807 
L 356.076263 263.645563 
L 357.706055 264.122898 
L 359.335846 265.496496 
L 360.965638 264.219574 
L 362.59543 269.611248 
L 364.225222 269.645487 
L 365.855014 270.32423 
L 367.484806 265.855001 
L 369.114598 264.549882 
L 370.74439 267.720033 
L 372.374182 265.790551 
L 374.003974 263.264903 
L 375.633765 265.897297 
L 377.263557 266.219549 
L 378.893349 267.448133 
L 380.523141 263.39179 
L 382.152933 265.93355 
L 383.782725 265.691861 
L 385.412517 264.6526 
L 387.042309 265.079583 
L 388.672101 264.715036 
L 390.301892 268.018116 
L 391.931684 267.883173 
L 393.561476 266.326294 
L 395.191268 266.277957 
L 396.82106 263.899336 
L 398.450852 267.188318 
L 400.080644 267.403824 
L 401.710436 264.624403 
L 403.340228 265.025203 
L 404.97002 267.46626 
L 406.599811 267.538767 
L 409.859395 265.766382 
L 411.489187 266.715011 
L 413.118979 265.317244 
L 414.748771 263.023214 
L 416.378563 264.783514 
L 418.008355 268.004018 
L 419.638147 263.840928 
L 421.267938 262.342457 
L 422.89773 267.135952 
L 424.527522 267.09567 
L 426.157314 266.783489 
L 427.787106 264.721078 
L 429.416898 266.219549 
L 431.04669 263.734182 
L 432.676482 265.81472 
L 434.306274 265.456215 
L 435.936066 265.8691 
L 437.565857 265.943621 
L 439.195649 266.672715 
L 440.825441 265.877156 
L 442.455233 266.320252 
L 444.085025 268.370579 
L 445.714817 264.801641 
L 447.344609 264.692881 
L 448.974401 262.215571 
L 450.604193 262.513654 
L 452.233984 265.137991 
L 453.863776 265.935564 
L 455.493568 264.092687 
L 457.12336 263.202467 
L 458.753152 264.048378 
L 460.382944 266.211492 
L 462.012736 265.129935 
L 463.642528 268.463226 
L 465.27232 261.92353 
L 466.902112 266.090648 
L 468.531903 267.369584 
L 468.531903 267.369584 
" clip-path="url(#p5725e770c5)" style="fill: none; stroke-dasharray: 1.75,2.8875; stroke-dashoffset: 0; stroke: #9fc377; stroke-width: 1.75"/>
   </g>
   <g id="patch_3">
    <path d="M 42.422813 326.855625 
L 42.422813 21.935625 
" style="fill: none; stroke: #cccccc; stroke-width: 1.25; stroke-linejoin: miter; stroke-linecap: square"/>
   </g>
   <g id="patch_4">
    <path d="M 488.822812 326.855625 
L 488.822812 21.935625 
" style="fill: none; stroke: #cccccc; stroke-width: 1.25; stroke-linejoin: miter; stroke-linecap: square"/>
   </g>
   <g id="patch_5">
    <path d="M 42.422813 326.855625 
L 488.822813 326.855625 
" style="fill: none; stroke: #cccccc; stroke-width: 1.25; stroke-linejoin: miter; stroke-linecap: square"/>
   </g>
   <g id="patch_6">
    <path d="M 42.422813 21.935625 
L 488.822813 21.935625 
" style="fill: none; stroke: #cccccc; stroke-width: 1.25; stroke-linejoin: miter; stroke-linecap: square"/>
   </g>
   <g id="text_35">
    <!-- "Duplex tability(disruptenergy)" for dataset Mouse_non_tata -->
    <g style="fill: #262626" transform="translate(107.2875 15.935625) scale(0.12 -0.12)">
     <defs>
      <path id="ArialMT-22" d="M 450 2959 
L 294 3831 
L 294 4581 
L 934 4581 
L 934 3831 
L 794 2959 
L 450 2959 
z
M 1484 2959 
L 1331 3831 
L 1331 4581 
L 1972 4581 
L 1972 3831 
L 1822 2959 
L 1484 2959 
z
" transform="scale(0.015625)"/>
      <path id="ArialMT-66" d="M 556 0 
L 556 2881 
L 59 2881 
L 59 3319 
L 556 3319 
L 556 3672 
Q 556 4006 616 4169 
Q 697 4388 901 4523 
Q 1106 4659 1475 4659 
Q 1713 4659 2000 4603 
L 1916 4113 
Q 1741 4144 1584 4144 
Q 1328 4144 1222 4034 
Q 1116 3925 1116 3625 
L 1116 3319 
L 1763 3319 
L 1763 2881 
L 1116 2881 
L 1116 0 
L 556 0 
z
" transform="scale(0.015625)"/>
      <path id="ArialMT-4d" d="M 475 0 
L 475 4581 
L 1388 4581 
L 2472 1338 
Q 2622 884 2691 659 
Q 2769 909 2934 1394 
L 4031 4581 
L 4847 4581 
L 4847 0 
L 4263 0 
L 4263 3834 
L 2931 0 
L 2384 0 
L 1059 3900 
L 1059 0 
L 475 0 
z
" transform="scale(0.015625)"/>
      <path id="ArialMT-5f" d="M -97 -1272 
L -97 -866 
L 3631 -866 
L 3631 -1272 
L -97 -1272 
z
" transform="scale(0.015625)"/>
     </defs>
     <use xlink:href="#ArialMT-22"/>
     <use xlink:href="#ArialMT-44" x="35.498047"/>
     <use xlink:href="#ArialMT-75" x="107.714844"/>
     <use xlink:href="#ArialMT-70" x="163.330078"/>
     <use xlink:href="#ArialMT-6c" x="218.945312"/>
     <use xlink:href="#ArialMT-65" x="241.162109"/>
     <use xlink:href="#ArialMT-78" x="296.777344"/>
     <use xlink:href="#ArialMT-20" x="346.777344"/>
     <use xlink:href="#ArialMT-74" x="374.560547"/>
     <use xlink:href="#ArialMT-61" x="402.34375"/>
     <use xlink:href="#ArialMT-62" x="457.958984"/>
     <use xlink:href="#ArialMT-69" x="513.574219"/>
     <use xlink:href="#ArialMT-6c" x="535.791016"/>
     <use xlink:href="#ArialMT-69" x="558.007812"/>
     <use xlink:href="#ArialMT-74" x="580.224609"/>
     <use xlink:href="#ArialMT-79" x="608.007812"/>
     <use xlink:href="#ArialMT-28" x="658.007812"/>
     <use xlink:href="#ArialMT-64" x="691.308594"/>
     <use xlink:href="#ArialMT-69" x="746.923828"/>
     <use xlink:href="#ArialMT-73" x="769.140625"/>
     <use xlink:href="#ArialMT-72" x="819.140625"/>
     <use xlink:href="#ArialMT-75" x="852.441406"/>
     <use xlink:href="#ArialMT-70" x="908.056641"/>
     <use xlink:href="#ArialMT-74" x="963.671875"/>
     <use xlink:href="#ArialMT-65" x="991.455078"/>
     <use xlink:href="#ArialMT-6e" x="1047.070312"/>
     <use xlink:href="#ArialMT-65" x="1102.685547"/>
     <use xlink:href="#ArialMT-72" x="1158.300781"/>
     <use xlink:href="#ArialMT-67" x="1191.601562"/>
     <use xlink:href="#ArialMT-79" x="1247.216797"/>
     <use xlink:href="#ArialMT-29" x="1297.216797"/>
     <use xlink:href="#ArialMT-22" x="1330.517578"/>
     <use xlink:href="#ArialMT-20" x="1366.015625"/>
     <use xlink:href="#ArialMT-66" x="1393.798828"/>
     <use xlink:href="#ArialMT-6f" x="1421.582031"/>
     <use xlink:href="#ArialMT-72" x="1477.197266"/>
     <use xlink:href="#ArialMT-20" x="1510.498047"/>
     <use xlink:href="#ArialMT-64" x="1538.28125"/>
     <use xlink:href="#ArialMT-61" x="1593.896484"/>
     <use xlink:href="#ArialMT-74" x="1649.511719"/>
     <use xlink:href="#ArialMT-61" x="1677.294922"/>
     <use xlink:href="#ArialMT-73" x="1732.910156"/>
     <use xlink:href="#ArialMT-65" x="1782.910156"/>
     <use xlink:href="#ArialMT-74" x="1838.525391"/>
     <use xlink:href="#ArialMT-20" x="1866.308594"/>
     <use xlink:href="#ArialMT-4d" x="1894.091797"/>
     <use xlink:href="#ArialMT-6f" x="1977.392578"/>
     <use xlink:href="#ArialMT-75" x="2033.007812"/>
     <use xlink:href="#ArialMT-73" x="2088.623047"/>
     <use xlink:href="#ArialMT-65" x="2138.623047"/>
     <use xlink:href="#ArialMT-5f" x="2194.238281"/>
     <use xlink:href="#ArialMT-6e" x="2249.853516"/>
     <use xlink:href="#ArialMT-6f" x="2305.46875"/>
     <use xlink:href="#ArialMT-6e" x="2361.083984"/>
     <use xlink:href="#ArialMT-5f" x="2416.699219"/>
     <use xlink:href="#ArialMT-74" x="2472.314453"/>
     <use xlink:href="#ArialMT-61" x="2500.097656"/>
     <use xlink:href="#ArialMT-74" x="2555.712891"/>
     <use xlink:href="#ArialMT-61" x="2583.496094"/>
    </g>
   </g>
   <g id="legend_1">
    <g id="line2d_35">
     <path d="M 51.422813 34.593437 
L 61.422813 34.593437 
L 71.422813 34.593437 
" style="fill: none; stroke: #0272a2; stroke-width: 1.75; stroke-linecap: round"/>
    </g>
    <g id="text_36">
     <!-- Promoter -->
     <g style="fill: #262626" transform="translate(79.422813 38.093437) scale(0.1 -0.1)">
      <defs>
       <path id="ArialMT-6d" d="M 422 0 
L 422 3319 
L 925 3319 
L 925 2853 
Q 1081 3097 1340 3245 
Q 1600 3394 1931 3394 
Q 2300 3394 2536 3241 
Q 2772 3088 2869 2813 
Q 3263 3394 3894 3394 
Q 4388 3394 4653 3120 
Q 4919 2847 4919 2278 
L 4919 0 
L 4359 0 
L 4359 2091 
Q 4359 2428 4304 2576 
Q 4250 2725 4106 2815 
Q 3963 2906 3769 2906 
Q 3419 2906 3187 2673 
Q 2956 2441 2956 1928 
L 2956 0 
L 2394 0 
L 2394 2156 
Q 2394 2531 2256 2718 
Q 2119 2906 1806 2906 
Q 1569 2906 1367 2781 
Q 1166 2656 1075 2415 
Q 984 2175 984 1722 
L 984 0 
L 422 0 
z
" transform="scale(0.015625)"/>
      </defs>
      <use xlink:href="#ArialMT-50"/>
      <use xlink:href="#ArialMT-72" x="66.699219"/>
      <use xlink:href="#ArialMT-6f" x="100"/>
      <use xlink:href="#ArialMT-6d" x="155.615234"/>
      <use xlink:href="#ArialMT-6f" x="238.916016"/>
      <use xlink:href="#ArialMT-74" x="294.53125"/>
      <use xlink:href="#ArialMT-65" x="322.314453"/>
      <use xlink:href="#ArialMT-72" x="377.929688"/>
     </g>
    </g>
    <g id="line2d_36">
     <path d="M 51.422813 48.73875 
L 61.422813 48.73875 
L 71.422813 48.73875 
" style="fill: none; stroke-dasharray: 1.75,2.8875; stroke-dashoffset: 0; stroke: #9fc377; stroke-width: 1.75"/>
    </g>
    <g id="text_37">
     <!-- Non-promoter -->
     <g style="fill: #262626" transform="translate(79.422813 52.23875) scale(0.1 -0.1)">
      <defs>
       <path id="ArialMT-4e" d="M 488 0 
L 488 4581 
L 1109 4581 
L 3516 984 
L 3516 4581 
L 4097 4581 
L 4097 0 
L 3475 0 
L 1069 3600 
L 1069 0 
L 488 0 
z
" transform="scale(0.015625)"/>
      </defs>
      <use xlink:href="#ArialMT-4e"/>
      <use xlink:href="#ArialMT-6f" x="72.216797"/>
      <use xlink:href="#ArialMT-6e" x="127.832031"/>
      <use xlink:href="#ArialMT-2d" x="183.447266"/>
      <use xlink:href="#ArialMT-70" x="216.748047"/>
      <use xlink:href="#ArialMT-72" x="272.363281"/>
      <use xlink:href="#ArialMT-6f" x="305.664062"/>
      <use xlink:href="#ArialMT-6d" x="361.279297"/>
      <use xlink:href="#ArialMT-6f" x="444.580078"/>
      <use xlink:href="#ArialMT-74" x="500.195312"/>
      <use xlink:href="#ArialMT-65" x="527.978516"/>
      <use xlink:href="#ArialMT-72" x="583.59375"/>
     </g>
    </g>
   </g>
  </g>
 </g>
 <defs>
  <clipPath id="p5725e770c5">
   <rect x="42.422813" y="21.935625" width="446.4" height="304.92"/>
  </clipPath>
 </defs>
</svg>
