<?xml version="1.0" encoding="utf-8" standalone="no"?>
<!DOCTYPE svg PUBLIC "-//W3C//DTD SVG 1.1//EN"
  "http://www.w3.org/Graphics/SVG/1.1/DTD/svg11.dtd">
<svg xmlns:xlink="http://www.w3.org/1999/xlink" width="501.320781pt" height="375.733156pt" viewBox="0 0 501.320781 375.733156" xmlns="http://www.w3.org/2000/svg" version="1.1">
 <metadata>
  <rdf:RDF xmlns:dc="http://purl.org/dc/elements/1.1/" xmlns:cc="http://creativecommons.org/ns#" xmlns:rdf="http://www.w3.org/1999/02/22-rdf-syntax-ns#">
   <cc:Work>
    <dc:type rdf:resource="http://purl.org/dc/dcmitype/StillImage"/>
    <dc:date>2023-05-11T16:26:00.809115</dc:date>
    <dc:format>image/svg+xml</dc:format>
    <dc:creator>
     <cc:Agent>
      <dc:title>Matplotlib v3.7.1, https://matplotlib.org/</dc:title>
     </cc:Agent>
    </dc:creator>
   </cc:Work>
  </rdf:RDF>
 </metadata>
 <defs>
  <style type="text/css">*{stroke-linejoin: round; stroke-linecap: butt}</style>
 </defs>
 <g id="figure_1">
  <g id="patch_1">
   <path d="M 0 375.733156 
L 501.320781 375.733156 
L 501.320781 0 
L 0 0 
z
" style="fill: #ffffff"/>
  </g>
  <g id="axes_1">
   <g id="patch_2">
    <path d="M 47.720781 326.855625 
L 494.120781 326.855625 
L 494.120781 21.935625 
L 47.720781 21.935625 
z
" style="fill: #ffffff"/>
   </g>
   <g id="matplotlib.axis_1">
    <g id="xtick_1">
     <g id="line2d_1"/>
     <g id="text_1">
      <!-- -200 -->
      <g style="fill: #262626" transform="translate(62.764185 353.067937) rotate(-45) scale(0.1 -0.1)">
       <defs>
        <path id="ArialMT-2d" d="M 203 1375 
L 203 1941 
L 1931 1941 
L 1931 1375 
L 203 1375 
z
" transform="scale(0.015625)"/>
        <path id="ArialMT-32" d="M 3222 541 
L 3222 0 
L 194 0 
Q 188 203 259 391 
Q 375 700 629 1000 
Q 884 1300 1366 1694 
Q 2113 2306 2375 2664 
Q 2638 3022 2638 3341 
Q 2638 3675 2398 3904 
Q 2159 4134 1775 4134 
Q 1369 4134 1125 3890 
Q 881 3647 878 3216 
L 300 3275 
Q 359 3922 746 4261 
Q 1134 4600 1788 4600 
Q 2447 4600 2831 4234 
Q 3216 3869 3216 3328 
Q 3216 3053 3103 2787 
Q 2991 2522 2730 2228 
Q 2469 1934 1863 1422 
Q 1356 997 1212 845 
Q 1069 694 975 541 
L 3222 541 
z
" transform="scale(0.015625)"/>
        <path id="ArialMT-30" d="M 266 2259 
Q 266 3072 433 3567 
Q 600 4063 929 4331 
Q 1259 4600 1759 4600 
Q 2128 4600 2406 4451 
Q 2684 4303 2865 4023 
Q 3047 3744 3150 3342 
Q 3253 2941 3253 2259 
Q 3253 1453 3087 958 
Q 2922 463 2592 192 
Q 2263 -78 1759 -78 
Q 1097 -78 719 397 
Q 266 969 266 2259 
z
M 844 2259 
Q 844 1131 1108 757 
Q 1372 384 1759 384 
Q 2147 384 2411 759 
Q 2675 1134 2675 2259 
Q 2675 3391 2411 3762 
Q 2147 4134 1753 4134 
Q 1366 4134 1134 3806 
Q 844 3388 844 2259 
z
" transform="scale(0.015625)"/>
       </defs>
       <use xlink:href="#ArialMT-2d"/>
       <use xlink:href="#ArialMT-32" x="33.300781"/>
       <use xlink:href="#ArialMT-30" x="88.916016"/>
       <use xlink:href="#ArialMT-30" x="144.53125"/>
      </g>
     </g>
    </g>
    <g id="xtick_2">
     <g id="line2d_2"/>
     <g id="text_2">
      <!-- -190 -->
      <g style="fill: #262626" transform="translate(79.062104 353.067937) rotate(-45) scale(0.1 -0.1)">
       <defs>
        <path id="ArialMT-31" d="M 2384 0 
L 1822 0 
L 1822 3584 
Q 1619 3391 1289 3197 
Q 959 3003 697 2906 
L 697 3450 
Q 1169 3672 1522 3987 
Q 1875 4303 2022 4600 
L 2384 4600 
L 2384 0 
z
" transform="scale(0.015625)"/>
        <path id="ArialMT-39" d="M 350 1059 
L 891 1109 
Q 959 728 1153 556 
Q 1347 384 1650 384 
Q 1909 384 2104 503 
Q 2300 622 2425 820 
Q 2550 1019 2634 1356 
Q 2719 1694 2719 2044 
Q 2719 2081 2716 2156 
Q 2547 1888 2255 1720 
Q 1963 1553 1622 1553 
Q 1053 1553 659 1965 
Q 266 2378 266 3053 
Q 266 3750 677 4175 
Q 1088 4600 1706 4600 
Q 2153 4600 2523 4359 
Q 2894 4119 3086 3673 
Q 3278 3228 3278 2384 
Q 3278 1506 3087 986 
Q 2897 466 2520 194 
Q 2144 -78 1638 -78 
Q 1100 -78 759 220 
Q 419 519 350 1059 
z
M 2653 3081 
Q 2653 3566 2395 3850 
Q 2138 4134 1775 4134 
Q 1400 4134 1122 3828 
Q 844 3522 844 3034 
Q 844 2597 1108 2323 
Q 1372 2050 1759 2050 
Q 2150 2050 2401 2323 
Q 2653 2597 2653 3081 
z
" transform="scale(0.015625)"/>
       </defs>
       <use xlink:href="#ArialMT-2d"/>
       <use xlink:href="#ArialMT-31" x="33.300781"/>
       <use xlink:href="#ArialMT-39" x="88.916016"/>
       <use xlink:href="#ArialMT-30" x="144.53125"/>
      </g>
     </g>
    </g>
    <g id="xtick_3">
     <g id="line2d_3"/>
     <g id="text_3">
      <!-- -180 -->
      <g style="fill: #262626" transform="translate(95.360023 353.067937) rotate(-45) scale(0.1 -0.1)">
       <defs>
        <path id="ArialMT-38" d="M 1131 2484 
Q 781 2613 612 2850 
Q 444 3088 444 3419 
Q 444 3919 803 4259 
Q 1163 4600 1759 4600 
Q 2359 4600 2725 4251 
Q 3091 3903 3091 3403 
Q 3091 3084 2923 2848 
Q 2756 2613 2416 2484 
Q 2838 2347 3058 2040 
Q 3278 1734 3278 1309 
Q 3278 722 2862 322 
Q 2447 -78 1769 -78 
Q 1091 -78 675 323 
Q 259 725 259 1325 
Q 259 1772 486 2073 
Q 713 2375 1131 2484 
z
M 1019 3438 
Q 1019 3113 1228 2906 
Q 1438 2700 1772 2700 
Q 2097 2700 2305 2904 
Q 2513 3109 2513 3406 
Q 2513 3716 2298 3927 
Q 2084 4138 1766 4138 
Q 1444 4138 1231 3931 
Q 1019 3725 1019 3438 
z
M 838 1322 
Q 838 1081 952 856 
Q 1066 631 1291 507 
Q 1516 384 1775 384 
Q 2178 384 2440 643 
Q 2703 903 2703 1303 
Q 2703 1709 2433 1975 
Q 2163 2241 1756 2241 
Q 1359 2241 1098 1978 
Q 838 1716 838 1322 
z
" transform="scale(0.015625)"/>
       </defs>
       <use xlink:href="#ArialMT-2d"/>
       <use xlink:href="#ArialMT-31" x="33.300781"/>
       <use xlink:href="#ArialMT-38" x="88.916016"/>
       <use xlink:href="#ArialMT-30" x="144.53125"/>
      </g>
     </g>
    </g>
    <g id="xtick_4">
     <g id="line2d_4"/>
     <g id="text_4">
      <!-- -170 -->
      <g style="fill: #262626" transform="translate(111.657941 353.067937) rotate(-45) scale(0.1 -0.1)">
       <defs>
        <path id="ArialMT-37" d="M 303 3981 
L 303 4522 
L 3269 4522 
L 3269 4084 
Q 2831 3619 2401 2847 
Q 1972 2075 1738 1259 
Q 1569 684 1522 0 
L 944 0 
Q 953 541 1156 1306 
Q 1359 2072 1739 2783 
Q 2119 3494 2547 3981 
L 303 3981 
z
" transform="scale(0.015625)"/>
       </defs>
       <use xlink:href="#ArialMT-2d"/>
       <use xlink:href="#ArialMT-31" x="33.300781"/>
       <use xlink:href="#ArialMT-37" x="88.916016"/>
       <use xlink:href="#ArialMT-30" x="144.53125"/>
      </g>
     </g>
    </g>
    <g id="xtick_5">
     <g id="line2d_5"/>
     <g id="text_5">
      <!-- -160 -->
      <g style="fill: #262626" transform="translate(127.95586 353.067937) rotate(-45) scale(0.1 -0.1)">
       <defs>
        <path id="ArialMT-36" d="M 3184 3459 
L 2625 3416 
Q 2550 3747 2413 3897 
Q 2184 4138 1850 4138 
Q 1581 4138 1378 3988 
Q 1113 3794 959 3422 
Q 806 3050 800 2363 
Q 1003 2672 1297 2822 
Q 1591 2972 1913 2972 
Q 2475 2972 2870 2558 
Q 3266 2144 3266 1488 
Q 3266 1056 3080 686 
Q 2894 316 2569 119 
Q 2244 -78 1831 -78 
Q 1128 -78 684 439 
Q 241 956 241 2144 
Q 241 3472 731 4075 
Q 1159 4600 1884 4600 
Q 2425 4600 2770 4297 
Q 3116 3994 3184 3459 
z
M 888 1484 
Q 888 1194 1011 928 
Q 1134 663 1356 523 
Q 1578 384 1822 384 
Q 2178 384 2434 671 
Q 2691 959 2691 1453 
Q 2691 1928 2437 2201 
Q 2184 2475 1800 2475 
Q 1419 2475 1153 2201 
Q 888 1928 888 1484 
z
" transform="scale(0.015625)"/>
       </defs>
       <use xlink:href="#ArialMT-2d"/>
       <use xlink:href="#ArialMT-31" x="33.300781"/>
       <use xlink:href="#ArialMT-36" x="88.916016"/>
       <use xlink:href="#ArialMT-30" x="144.53125"/>
      </g>
     </g>
    </g>
    <g id="xtick_6">
     <g id="line2d_6"/>
     <g id="text_6">
      <!-- -150 -->
      <g style="fill: #262626" transform="translate(144.253779 353.067937) rotate(-45) scale(0.1 -0.1)">
       <defs>
        <path id="ArialMT-35" d="M 266 1200 
L 856 1250 
Q 922 819 1161 601 
Q 1400 384 1738 384 
Q 2144 384 2425 690 
Q 2706 997 2706 1503 
Q 2706 1984 2436 2262 
Q 2166 2541 1728 2541 
Q 1456 2541 1237 2417 
Q 1019 2294 894 2097 
L 366 2166 
L 809 4519 
L 3088 4519 
L 3088 3981 
L 1259 3981 
L 1013 2750 
Q 1425 3038 1878 3038 
Q 2478 3038 2890 2622 
Q 3303 2206 3303 1553 
Q 3303 931 2941 478 
Q 2500 -78 1738 -78 
Q 1113 -78 717 272 
Q 322 622 266 1200 
z
" transform="scale(0.015625)"/>
       </defs>
       <use xlink:href="#ArialMT-2d"/>
       <use xlink:href="#ArialMT-31" x="33.300781"/>
       <use xlink:href="#ArialMT-35" x="88.916016"/>
       <use xlink:href="#ArialMT-30" x="144.53125"/>
      </g>
     </g>
    </g>
    <g id="xtick_7">
     <g id="line2d_7"/>
     <g id="text_7">
      <!-- -140 -->
      <g style="fill: #262626" transform="translate(160.551698 353.067937) rotate(-45) scale(0.1 -0.1)">
       <defs>
        <path id="ArialMT-34" d="M 2069 0 
L 2069 1097 
L 81 1097 
L 81 1613 
L 2172 4581 
L 2631 4581 
L 2631 1613 
L 3250 1613 
L 3250 1097 
L 2631 1097 
L 2631 0 
L 2069 0 
z
M 2069 1613 
L 2069 3678 
L 634 1613 
L 2069 1613 
z
" transform="scale(0.015625)"/>
       </defs>
       <use xlink:href="#ArialMT-2d"/>
       <use xlink:href="#ArialMT-31" x="33.300781"/>
       <use xlink:href="#ArialMT-34" x="88.916016"/>
       <use xlink:href="#ArialMT-30" x="144.53125"/>
      </g>
     </g>
    </g>
    <g id="xtick_8">
     <g id="line2d_8"/>
     <g id="text_8">
      <!-- -130 -->
      <g style="fill: #262626" transform="translate(176.849617 353.067937) rotate(-45) scale(0.1 -0.1)">
       <defs>
        <path id="ArialMT-33" d="M 269 1209 
L 831 1284 
Q 928 806 1161 595 
Q 1394 384 1728 384 
Q 2125 384 2398 659 
Q 2672 934 2672 1341 
Q 2672 1728 2419 1979 
Q 2166 2231 1775 2231 
Q 1616 2231 1378 2169 
L 1441 2663 
Q 1497 2656 1531 2656 
Q 1891 2656 2178 2843 
Q 2466 3031 2466 3422 
Q 2466 3731 2256 3934 
Q 2047 4138 1716 4138 
Q 1388 4138 1169 3931 
Q 950 3725 888 3313 
L 325 3413 
Q 428 3978 793 4289 
Q 1159 4600 1703 4600 
Q 2078 4600 2393 4439 
Q 2709 4278 2876 4000 
Q 3044 3722 3044 3409 
Q 3044 3113 2884 2869 
Q 2725 2625 2413 2481 
Q 2819 2388 3044 2092 
Q 3269 1797 3269 1353 
Q 3269 753 2831 336 
Q 2394 -81 1725 -81 
Q 1122 -81 723 278 
Q 325 638 269 1209 
z
" transform="scale(0.015625)"/>
       </defs>
       <use xlink:href="#ArialMT-2d"/>
       <use xlink:href="#ArialMT-31" x="33.300781"/>
       <use xlink:href="#ArialMT-33" x="88.916016"/>
       <use xlink:href="#ArialMT-30" x="144.53125"/>
      </g>
     </g>
    </g>
    <g id="xtick_9">
     <g id="line2d_9"/>
     <g id="text_9">
      <!-- -120 -->
      <g style="fill: #262626" transform="translate(193.147536 353.067937) rotate(-45) scale(0.1 -0.1)">
       <use xlink:href="#ArialMT-2d"/>
       <use xlink:href="#ArialMT-31" x="33.300781"/>
       <use xlink:href="#ArialMT-32" x="88.916016"/>
       <use xlink:href="#ArialMT-30" x="144.53125"/>
      </g>
     </g>
    </g>
    <g id="xtick_10">
     <g id="line2d_10"/>
     <g id="text_10">
      <!-- -110 -->
      <g style="fill: #262626" transform="translate(209.706201 352.546446) rotate(-45) scale(0.1 -0.1)">
       <use xlink:href="#ArialMT-2d"/>
       <use xlink:href="#ArialMT-31" x="33.300781"/>
       <use xlink:href="#ArialMT-31" x="81.541016"/>
       <use xlink:href="#ArialMT-30" x="137.15625"/>
      </g>
     </g>
    </g>
    <g id="xtick_11">
     <g id="line2d_11"/>
     <g id="text_11">
      <!-- -100 -->
      <g style="fill: #262626" transform="translate(225.743374 353.067937) rotate(-45) scale(0.1 -0.1)">
       <use xlink:href="#ArialMT-2d"/>
       <use xlink:href="#ArialMT-31" x="33.300781"/>
       <use xlink:href="#ArialMT-30" x="88.916016"/>
       <use xlink:href="#ArialMT-30" x="144.53125"/>
      </g>
     </g>
    </g>
    <g id="xtick_12">
     <g id="line2d_12"/>
     <g id="text_12">
      <!-- -90 -->
      <g style="fill: #262626" transform="translate(244.007381 349.135761) rotate(-45) scale(0.1 -0.1)">
       <use xlink:href="#ArialMT-2d"/>
       <use xlink:href="#ArialMT-39" x="33.300781"/>
       <use xlink:href="#ArialMT-30" x="88.916016"/>
      </g>
     </g>
    </g>
    <g id="xtick_13">
     <g id="line2d_13"/>
     <g id="text_13">
      <!-- -80 -->
      <g style="fill: #262626" transform="translate(260.3053 349.135761) rotate(-45) scale(0.1 -0.1)">
       <use xlink:href="#ArialMT-2d"/>
       <use xlink:href="#ArialMT-38" x="33.300781"/>
       <use xlink:href="#ArialMT-30" x="88.916016"/>
      </g>
     </g>
    </g>
    <g id="xtick_14">
     <g id="line2d_14"/>
     <g id="text_14">
      <!-- -70 -->
      <g style="fill: #262626" transform="translate(276.603219 349.135761) rotate(-45) scale(0.1 -0.1)">
       <use xlink:href="#ArialMT-2d"/>
       <use xlink:href="#ArialMT-37" x="33.300781"/>
       <use xlink:href="#ArialMT-30" x="88.916016"/>
      </g>
     </g>
    </g>
    <g id="xtick_15">
     <g id="line2d_15"/>
     <g id="text_15">
      <!-- -60 -->
      <g style="fill: #262626" transform="translate(292.901138 349.135761) rotate(-45) scale(0.1 -0.1)">
       <use xlink:href="#ArialMT-2d"/>
       <use xlink:href="#ArialMT-36" x="33.300781"/>
       <use xlink:href="#ArialMT-30" x="88.916016"/>
      </g>
     </g>
    </g>
    <g id="xtick_16">
     <g id="line2d_16"/>
     <g id="text_16">
      <!-- -50 -->
      <g style="fill: #262626" transform="translate(309.199057 349.135761) rotate(-45) scale(0.1 -0.1)">
       <use xlink:href="#ArialMT-2d"/>
       <use xlink:href="#ArialMT-35" x="33.300781"/>
       <use xlink:href="#ArialMT-30" x="88.916016"/>
      </g>
     </g>
    </g>
    <g id="xtick_17">
     <g id="line2d_17"/>
     <g id="text_17">
      <!-- -40 -->
      <g style="fill: #262626" transform="translate(325.496976 349.135761) rotate(-45) scale(0.1 -0.1)">
       <use xlink:href="#ArialMT-2d"/>
       <use xlink:href="#ArialMT-34" x="33.300781"/>
       <use xlink:href="#ArialMT-30" x="88.916016"/>
      </g>
     </g>
    </g>
    <g id="xtick_18">
     <g id="line2d_18"/>
     <g id="text_18">
      <!-- -30 -->
      <g style="fill: #262626" transform="translate(341.794895 349.135761) rotate(-45) scale(0.1 -0.1)">
       <use xlink:href="#ArialMT-2d"/>
       <use xlink:href="#ArialMT-33" x="33.300781"/>
       <use xlink:href="#ArialMT-30" x="88.916016"/>
      </g>
     </g>
    </g>
    <g id="xtick_19">
     <g id="line2d_19"/>
     <g id="text_19">
      <!-- -20 -->
      <g style="fill: #262626" transform="translate(358.092814 349.135761) rotate(-45) scale(0.1 -0.1)">
       <use xlink:href="#ArialMT-2d"/>
       <use xlink:href="#ArialMT-32" x="33.300781"/>
       <use xlink:href="#ArialMT-30" x="88.916016"/>
      </g>
     </g>
    </g>
    <g id="xtick_20">
     <g id="line2d_20"/>
     <g id="text_20">
      <!-- -10 -->
      <g style="fill: #262626" transform="translate(374.390733 349.135761) rotate(-45) scale(0.1 -0.1)">
       <use xlink:href="#ArialMT-2d"/>
       <use xlink:href="#ArialMT-31" x="33.300781"/>
       <use xlink:href="#ArialMT-30" x="88.916016"/>
      </g>
     </g>
    </g>
    <g id="xtick_21">
     <g id="line2d_21"/>
     <g id="text_21">
      <!-- 0 -->
      <g style="fill: #262626" transform="translate(393.831963 342.849139) rotate(-45) scale(0.1 -0.1)">
       <use xlink:href="#ArialMT-30"/>
      </g>
     </g>
    </g>
    <g id="xtick_22">
     <g id="line2d_22"/>
     <g id="text_22">
      <!-- 10 -->
      <g style="fill: #262626" transform="translate(408.163793 346.781316) rotate(-45) scale(0.1 -0.1)">
       <use xlink:href="#ArialMT-31"/>
       <use xlink:href="#ArialMT-30" x="55.615234"/>
      </g>
     </g>
    </g>
    <g id="xtick_23">
     <g id="line2d_23"/>
     <g id="text_23">
      <!-- 20 -->
      <g style="fill: #262626" transform="translate(424.461712 346.781316) rotate(-45) scale(0.1 -0.1)">
       <use xlink:href="#ArialMT-32"/>
       <use xlink:href="#ArialMT-30" x="55.615234"/>
      </g>
     </g>
    </g>
    <g id="xtick_24">
     <g id="line2d_24"/>
     <g id="text_24">
      <!-- 30 -->
      <g style="fill: #262626" transform="translate(440.759631 346.781316) rotate(-45) scale(0.1 -0.1)">
       <use xlink:href="#ArialMT-33"/>
       <use xlink:href="#ArialMT-30" x="55.615234"/>
      </g>
     </g>
    </g>
    <g id="xtick_25">
     <g id="line2d_25"/>
     <g id="text_25">
      <!-- 40 -->
      <g style="fill: #262626" transform="translate(457.05755 346.781316) rotate(-45) scale(0.1 -0.1)">
       <use xlink:href="#ArialMT-34"/>
       <use xlink:href="#ArialMT-30" x="55.615234"/>
      </g>
     </g>
    </g>
    <g id="xtick_26">
     <g id="line2d_26"/>
     <g id="text_26">
      <!-- 50 -->
      <g style="fill: #262626" transform="translate(473.355469 346.781316) rotate(-45) scale(0.1 -0.1)">
       <use xlink:href="#ArialMT-35"/>
       <use xlink:href="#ArialMT-30" x="55.615234"/>
      </g>
     </g>
    </g>
    <g id="text_27">
     <!-- Position -->
     <g style="fill: #262626" transform="translate(251.354531 366.346906) scale(0.11 -0.11)">
      <defs>
       <path id="ArialMT-50" d="M 494 0 
L 494 4581 
L 2222 4581 
Q 2678 4581 2919 4538 
Q 3256 4481 3484 4323 
Q 3713 4166 3852 3881 
Q 3991 3597 3991 3256 
Q 3991 2672 3619 2267 
Q 3247 1863 2275 1863 
L 1100 1863 
L 1100 0 
L 494 0 
z
M 1100 2403 
L 2284 2403 
Q 2872 2403 3119 2622 
Q 3366 2841 3366 3238 
Q 3366 3525 3220 3729 
Q 3075 3934 2838 4000 
Q 2684 4041 2272 4041 
L 1100 4041 
L 1100 2403 
z
" transform="scale(0.015625)"/>
       <path id="ArialMT-6f" d="M 213 1659 
Q 213 2581 725 3025 
Q 1153 3394 1769 3394 
Q 2453 3394 2887 2945 
Q 3322 2497 3322 1706 
Q 3322 1066 3130 698 
Q 2938 331 2570 128 
Q 2203 -75 1769 -75 
Q 1072 -75 642 372 
Q 213 819 213 1659 
z
M 791 1659 
Q 791 1022 1069 705 
Q 1347 388 1769 388 
Q 2188 388 2466 706 
Q 2744 1025 2744 1678 
Q 2744 2294 2464 2611 
Q 2184 2928 1769 2928 
Q 1347 2928 1069 2612 
Q 791 2297 791 1659 
z
" transform="scale(0.015625)"/>
       <path id="ArialMT-73" d="M 197 991 
L 753 1078 
Q 800 744 1014 566 
Q 1228 388 1613 388 
Q 2000 388 2187 545 
Q 2375 703 2375 916 
Q 2375 1106 2209 1216 
Q 2094 1291 1634 1406 
Q 1016 1563 777 1677 
Q 538 1791 414 1992 
Q 291 2194 291 2438 
Q 291 2659 392 2848 
Q 494 3038 669 3163 
Q 800 3259 1026 3326 
Q 1253 3394 1513 3394 
Q 1903 3394 2198 3281 
Q 2494 3169 2634 2976 
Q 2775 2784 2828 2463 
L 2278 2388 
Q 2241 2644 2061 2787 
Q 1881 2931 1553 2931 
Q 1166 2931 1000 2803 
Q 834 2675 834 2503 
Q 834 2394 903 2306 
Q 972 2216 1119 2156 
Q 1203 2125 1616 2013 
Q 2213 1853 2448 1751 
Q 2684 1650 2818 1456 
Q 2953 1263 2953 975 
Q 2953 694 2789 445 
Q 2625 197 2315 61 
Q 2006 -75 1616 -75 
Q 969 -75 630 194 
Q 291 463 197 991 
z
" transform="scale(0.015625)"/>
       <path id="ArialMT-69" d="M 425 3934 
L 425 4581 
L 988 4581 
L 988 3934 
L 425 3934 
z
M 425 0 
L 425 3319 
L 988 3319 
L 988 0 
L 425 0 
z
" transform="scale(0.015625)"/>
       <path id="ArialMT-74" d="M 1650 503 
L 1731 6 
Q 1494 -44 1306 -44 
Q 1000 -44 831 53 
Q 663 150 594 308 
Q 525 466 525 972 
L 525 2881 
L 113 2881 
L 113 3319 
L 525 3319 
L 525 4141 
L 1084 4478 
L 1084 3319 
L 1650 3319 
L 1650 2881 
L 1084 2881 
L 1084 941 
Q 1084 700 1114 631 
Q 1144 563 1211 522 
Q 1278 481 1403 481 
Q 1497 481 1650 503 
z
" transform="scale(0.015625)"/>
       <path id="ArialMT-6e" d="M 422 0 
L 422 3319 
L 928 3319 
L 928 2847 
Q 1294 3394 1984 3394 
Q 2284 3394 2536 3286 
Q 2788 3178 2913 3003 
Q 3038 2828 3088 2588 
Q 3119 2431 3119 2041 
L 3119 0 
L 2556 0 
L 2556 2019 
Q 2556 2363 2490 2533 
Q 2425 2703 2258 2804 
Q 2091 2906 1866 2906 
Q 1506 2906 1245 2678 
Q 984 2450 984 1813 
L 984 0 
L 422 0 
z
" transform="scale(0.015625)"/>
      </defs>
      <use xlink:href="#ArialMT-50"/>
      <use xlink:href="#ArialMT-6f" x="66.699219"/>
      <use xlink:href="#ArialMT-73" x="122.314453"/>
      <use xlink:href="#ArialMT-69" x="172.314453"/>
      <use xlink:href="#ArialMT-74" x="194.53125"/>
      <use xlink:href="#ArialMT-69" x="222.314453"/>
      <use xlink:href="#ArialMT-6f" x="244.53125"/>
      <use xlink:href="#ArialMT-6e" x="300.146484"/>
     </g>
    </g>
   </g>
   <g id="matplotlib.axis_2">
    <g id="ytick_1">
     <g id="line2d_27"/>
     <g id="text_28">
      <!-- 1.10 -->
      <g style="fill: #262626" transform="translate(21.259844 318.5448) scale(0.1 -0.1)">
       <defs>
        <path id="ArialMT-2e" d="M 581 0 
L 581 641 
L 1222 641 
L 1222 0 
L 581 0 
z
" transform="scale(0.015625)"/>
       </defs>
       <use xlink:href="#ArialMT-31"/>
       <use xlink:href="#ArialMT-2e" x="55.615234"/>
       <use xlink:href="#ArialMT-31" x="83.398438"/>
       <use xlink:href="#ArialMT-30" x="139.013672"/>
      </g>
     </g>
    </g>
    <g id="ytick_2">
     <g id="line2d_28"/>
     <g id="text_29">
      <!-- 1.15 -->
      <g style="fill: #262626" transform="translate(21.259844 267.312151) scale(0.1 -0.1)">
       <use xlink:href="#ArialMT-31"/>
       <use xlink:href="#ArialMT-2e" x="55.615234"/>
       <use xlink:href="#ArialMT-31" x="83.398438"/>
       <use xlink:href="#ArialMT-35" x="139.013672"/>
      </g>
     </g>
    </g>
    <g id="ytick_3">
     <g id="line2d_29"/>
     <g id="text_30">
      <!-- 1.20 -->
      <g style="fill: #262626" transform="translate(21.259844 216.079502) scale(0.1 -0.1)">
       <use xlink:href="#ArialMT-31"/>
       <use xlink:href="#ArialMT-2e" x="55.615234"/>
       <use xlink:href="#ArialMT-32" x="83.398438"/>
       <use xlink:href="#ArialMT-30" x="139.013672"/>
      </g>
     </g>
    </g>
    <g id="ytick_4">
     <g id="line2d_30"/>
     <g id="text_31">
      <!-- 1.25 -->
      <g style="fill: #262626" transform="translate(21.259844 164.846853) scale(0.1 -0.1)">
       <use xlink:href="#ArialMT-31"/>
       <use xlink:href="#ArialMT-2e" x="55.615234"/>
       <use xlink:href="#ArialMT-32" x="83.398438"/>
       <use xlink:href="#ArialMT-35" x="139.013672"/>
      </g>
     </g>
    </g>
    <g id="ytick_5">
     <g id="line2d_31"/>
     <g id="text_32">
      <!-- 1.30 -->
      <g style="fill: #262626" transform="translate(21.259844 113.614204) scale(0.1 -0.1)">
       <use xlink:href="#ArialMT-31"/>
       <use xlink:href="#ArialMT-2e" x="55.615234"/>
       <use xlink:href="#ArialMT-33" x="83.398438"/>
       <use xlink:href="#ArialMT-30" x="139.013672"/>
      </g>
     </g>
    </g>
    <g id="ytick_6">
     <g id="line2d_32"/>
     <g id="text_33">
      <!-- 1.35 -->
      <g style="fill: #262626" transform="translate(21.259844 62.381555) scale(0.1 -0.1)">
       <use xlink:href="#ArialMT-31"/>
       <use xlink:href="#ArialMT-2e" x="55.615234"/>
       <use xlink:href="#ArialMT-33" x="83.398438"/>
       <use xlink:href="#ArialMT-35" x="139.013672"/>
      </g>
     </g>
    </g>
    <g id="text_34">
     <!-- Shift -->
     <g style="fill: #262626" transform="translate(15.073594 185.400781) rotate(-90) scale(0.11 -0.11)">
      <defs>
       <path id="ArialMT-53" d="M 288 1472 
L 859 1522 
Q 900 1178 1048 958 
Q 1197 738 1509 602 
Q 1822 466 2213 466 
Q 2559 466 2825 569 
Q 3091 672 3220 851 
Q 3350 1031 3350 1244 
Q 3350 1459 3225 1620 
Q 3100 1781 2813 1891 
Q 2628 1963 1997 2114 
Q 1366 2266 1113 2400 
Q 784 2572 623 2826 
Q 463 3081 463 3397 
Q 463 3744 659 4045 
Q 856 4347 1234 4503 
Q 1613 4659 2075 4659 
Q 2584 4659 2973 4495 
Q 3363 4331 3572 4012 
Q 3781 3694 3797 3291 
L 3216 3247 
Q 3169 3681 2898 3903 
Q 2628 4125 2100 4125 
Q 1550 4125 1298 3923 
Q 1047 3722 1047 3438 
Q 1047 3191 1225 3031 
Q 1400 2872 2139 2705 
Q 2878 2538 3153 2413 
Q 3553 2228 3743 1945 
Q 3934 1663 3934 1294 
Q 3934 928 3725 604 
Q 3516 281 3123 101 
Q 2731 -78 2241 -78 
Q 1619 -78 1198 103 
Q 778 284 539 648 
Q 300 1013 288 1472 
z
" transform="scale(0.015625)"/>
       <path id="ArialMT-68" d="M 422 0 
L 422 4581 
L 984 4581 
L 984 2938 
Q 1378 3394 1978 3394 
Q 2347 3394 2619 3248 
Q 2891 3103 3008 2847 
Q 3125 2591 3125 2103 
L 3125 0 
L 2563 0 
L 2563 2103 
Q 2563 2525 2380 2717 
Q 2197 2909 1863 2909 
Q 1613 2909 1392 2779 
Q 1172 2650 1078 2428 
Q 984 2206 984 1816 
L 984 0 
L 422 0 
z
" transform="scale(0.015625)"/>
       <path id="ArialMT-66" d="M 556 0 
L 556 2881 
L 59 2881 
L 59 3319 
L 556 3319 
L 556 3672 
Q 556 4006 616 4169 
Q 697 4388 901 4523 
Q 1106 4659 1475 4659 
Q 1713 4659 2000 4603 
L 1916 4113 
Q 1741 4144 1584 4144 
Q 1328 4144 1222 4034 
Q 1116 3925 1116 3625 
L 1116 3319 
L 1763 3319 
L 1763 2881 
L 1116 2881 
L 1116 0 
L 556 0 
z
" transform="scale(0.015625)"/>
      </defs>
      <use xlink:href="#ArialMT-53"/>
      <use xlink:href="#ArialMT-68" x="66.699219"/>
      <use xlink:href="#ArialMT-69" x="122.314453"/>
      <use xlink:href="#ArialMT-66" x="144.53125"/>
      <use xlink:href="#ArialMT-74" x="172.314453"/>
     </g>
    </g>
   </g>
   <g id="line2d_33">
    <path d="M 68.01169 90.854283 
L 69.641482 87.82431 
L 71.271274 89.194877 
L 72.901066 89.939942 
L 74.530858 87.736841 
L 76.16065 88.259141 
L 77.790442 86.401513 
L 79.420234 87.826827 
L 81.050025 90.683748 
L 82.679817 90.367851 
L 84.309609 88.698377 
L 85.939401 88.347869 
L 87.569193 87.470027 
L 89.198985 88.228936 
L 90.828777 88.394436 
L 92.458569 89.625303 
L 94.088361 88.017499 
L 95.718153 89.41009 
L 97.347944 89.305001 
L 98.977736 91.577323 
L 100.607528 88.659362 
L 102.23732 90.512585 
L 103.867112 91.930977 
L 105.496904 88.80913 
L 107.126696 90.486784 
L 108.756488 86.80488 
L 110.38628 86.952131 
L 112.016072 90.282898 
L 113.645863 91.822741 
L 115.275655 87.033308 
L 116.905447 86.011361 
L 118.535239 89.337723 
L 120.165031 89.768149 
L 121.794823 95.686507 
L 123.424615 90.484897 
L 125.054407 90.929167 
L 126.684199 85.604848 
L 128.31399 90.205497 
L 129.943782 88.282424 
L 131.573574 91.229332 
L 133.203366 87.040859 
L 134.833158 91.386022 
L 136.46295 91.026705 
L 138.092742 88.166637 
L 139.722534 90.197317 
L 141.352326 89.013016 
L 142.982118 92.690515 
L 144.611909 87.726772 
L 146.241701 89.371075 
L 147.871493 91.24003 
L 149.501285 90.057617 
L 151.131077 91.33568 
L 152.760869 87.198808 
L 154.390661 92.508025 
L 156.020453 90.200463 
L 157.650245 88.291234 
L 159.280036 93.085702 
L 160.909828 91.343861 
L 164.169412 89.503223 
L 165.799204 90.800165 
L 167.428996 90.688153 
L 169.058788 90.864351 
L 170.68858 88.395065 
L 172.318372 91.531386 
L 173.948164 93.118424 
L 175.577955 91.735272 
L 177.207747 90.20298 
L 178.837539 93.153034 
L 180.467331 93.989974 
L 182.097123 92.6515 
L 183.726915 92.43377 
L 185.356707 92.06753 
L 186.986499 91.197239 
L 188.616291 92.55585 
L 190.246082 91.559074 
L 191.875874 92.924607 
L 193.505666 92.435658 
L 196.76525 90.163336 
L 198.395042 95.723005 
L 200.024834 92.837137 
L 201.654626 91.282192 
L 203.284418 93.717496 
L 204.91421 89.001689 
L 206.544001 90.936089 
L 208.173793 90.463501 
L 209.803585 89.612088 
L 211.433377 93.728194 
L 213.063169 93.452571 
L 214.692961 91.739047 
L 216.322753 93.452571 
L 217.952545 90.994612 
L 219.582337 94.567021 
L 221.212128 93.138561 
L 222.84192 96.037644 
L 224.471712 94.565763 
L 226.101504 94.808035 
L 227.731296 92.10214 
L 229.361088 93.255607 
L 230.99088 94.607295 
L 232.620672 94.537445 
L 234.250464 96.054634 
L 235.880256 94.726229 
L 237.510047 92.696808 
L 239.139839 93.358179 
L 240.769631 92.484112 
L 242.399423 95.071702 
L 244.029215 95.765166 
L 245.659007 96.123225 
L 247.288799 97.917296 
L 248.918591 97.277321 
L 250.548383 95.577642 
L 252.178174 94.989896 
L 253.807966 93.419219 
L 257.06755 96.498904 
L 258.697342 97.702713 
L 260.327134 96.883393 
L 261.956926 93.632544 
L 263.586718 97.535325 
L 265.21651 95.95332 
L 266.846302 95.202592 
L 268.476093 97.985888 
L 270.105885 99.424417 
L 271.735677 96.656853 
L 273.365469 98.505042 
L 274.995261 95.193782 
L 276.625053 97.391849 
L 278.254845 96.526592 
L 279.884637 99.686196 
L 281.514429 99.713884 
L 283.14422 97.909116 
L 284.774012 98.296751 
L 286.403804 103.385091 
L 288.033596 99.866169 
L 289.663388 99.936649 
L 291.29318 100.99824 
L 292.922972 97.531549 
L 294.552764 98.916589 
L 296.182556 97.93177 
L 297.812348 99.627044 
L 299.442139 98.518257 
L 301.071931 98.867506 
L 302.701723 97.999102 
L 304.331515 100.569073 
L 305.961307 97.559237 
L 307.591099 98.279131 
L 310.850683 95.624208 
L 312.480475 99.256399 
L 314.110266 95.606588 
L 315.740058 96.181748 
L 317.36985 94.831947 
L 318.999642 97.10364 
L 320.629434 102.136604 
L 322.259226 99.121734 
L 323.889018 99.041816 
L 327.148602 93.850274 
L 328.778394 96.39822 
L 330.408185 96.205661 
L 332.037977 99.611941 
L 333.667769 100.891892 
L 335.297561 98.318775 
L 336.927353 98.958122 
L 338.557145 94.9427 
L 340.186937 93.561436 
L 341.816729 95.950174 
L 343.446521 100.856653 
L 345.076312 94.993672 
L 346.706104 91.803863 
L 348.335896 87.299493 
L 349.965688 77.061773 
L 351.59548 83.61633 
L 353.225272 96.115045 
L 354.855064 97.133845 
L 356.484856 99.031118 
L 358.114648 102.422925 
L 359.74444 100.476569 
L 361.374231 102.485853 
L 363.004023 103.067935 
L 364.633815 98.277872 
L 366.263607 98.781924 
L 367.893399 97.038195 
L 369.523191 96.538549 
L 371.152983 101.297776 
L 372.782775 95.55247 
L 374.412567 90.861834 
L 376.042358 96.960794 
L 377.67215 93.196455 
L 379.301942 95.107571 
L 380.931734 92.667861 
L 382.561526 91.949855 
L 384.191318 83.86049 
L 385.82111 93.434951 
L 387.450902 80.387506 
L 389.080694 57.02431 
L 390.710486 51.005898 
L 392.340277 312.995625 
L 393.970069 35.795625 
L 395.599861 82.081521 
L 397.229653 75.095909 
L 398.859445 88.626639 
L 400.489237 96.688946 
L 402.119029 111.528574 
L 403.748821 105.340886 
L 405.378613 102.517317 
L 407.008404 104.49262 
L 408.638196 108.854144 
L 410.267988 108.397917 
L 411.89778 108.075727 
L 413.527572 111.237219 
L 415.157364 106.968828 
L 416.787156 106.076512 
L 418.416948 106.30431 
L 420.04674 109.167524 
L 421.676532 111.653171 
L 423.306323 105.284251 
L 424.936115 105.359135 
L 426.565907 106.613915 
L 428.195699 106.865626 
L 429.825491 106.057633 
L 431.455283 107.577968 
L 433.085075 107.131811 
L 434.714867 109.793026 
L 436.344659 111.677084 
L 437.97445 107.815835 
L 439.604242 108.237452 
L 441.234034 106.482396 
L 442.863826 112.069124 
L 444.493618 112.84817 
L 446.12341 106.849265 
L 447.753202 105.909753 
L 449.382994 102.421037 
L 451.012786 98.184739 
L 452.642578 98.970707 
L 454.272369 97.038195 
L 455.902161 95.742512 
L 457.531953 100.226116 
L 459.161745 102.478931 
L 460.791537 99.277166 
L 462.421329 97.903452 
L 464.051121 102.298957 
L 465.680913 101.27764 
L 467.310705 100.982508 
L 468.940496 99.021679 
L 470.570288 102.757701 
L 472.20008 103.013817 
L 473.829872 101.067461 
L 473.829872 101.067461 
" clip-path="url(#p8141467ea8)" style="fill: none; stroke: #0272a2; stroke-width: 1.75; stroke-linecap: round"/>
   </g>
   <g id="line2d_34">
    <path d="M 68.01169 95.263238 
L 69.641482 93.669003 
L 71.271274 94.56478 
L 72.901066 98.664713 
L 74.530858 93.647951 
L 76.16065 91.363514 
L 77.790442 93.845682 
L 79.420234 90.750918 
L 81.050025 93.902648 
L 82.679817 91.391997 
L 84.309609 96.486366 
L 85.939401 93.350322 
L 87.569193 94.117305 
L 89.198985 91.188073 
L 90.828777 92.861566 
L 94.088361 93.366008 
L 95.718153 91.807687 
L 97.347944 91.073728 
L 98.977736 92.369921 
L 100.607528 94.886352 
L 102.23732 90.985801 
L 103.867112 93.990575 
L 105.496904 93.765186 
L 107.126696 94.634131 
L 108.756488 91.212429 
L 110.38628 94.128863 
L 112.016072 89.678875 
L 113.645863 93.931957 
L 115.275655 91.982301 
L 116.905447 95.021337 
L 118.535239 93.222353 
L 120.165031 93.41059 
L 121.794823 94.710911 
L 123.424615 92.00418 
L 125.054407 94.024837 
L 126.684199 93.13484 
L 128.31399 95.091513 
L 129.943782 92.722039 
L 131.573574 92.171777 
L 133.203366 93.08324 
L 134.833158 93.163323 
L 136.46295 93.600479 
L 138.092742 94.843008 
L 139.722534 92.516052 
L 141.352326 93.344955 
L 142.982118 92.491284 
L 144.611909 92.883857 
L 146.241701 95.765204 
L 147.871493 92.816984 
L 149.501285 94.996569 
L 151.131077 93.236389 
L 152.760869 93.210382 
L 154.390661 92.717911 
L 156.020453 93.542687 
L 157.650245 92.474772 
L 160.909828 94.054559 
L 162.53962 94.42773 
L 164.169412 93.773029 
L 165.799204 89.291256 
L 167.428996 93.394904 
L 169.058788 93.293768 
L 170.68858 93.670655 
L 172.318372 92.118938 
L 173.948164 93.166625 
L 175.577955 93.619467 
L 177.207747 91.619037 
L 178.837539 88.719115 
L 180.467331 93.365595 
L 182.097123 94.086757 
L 183.726915 93.948056 
L 185.356707 94.601107 
L 186.986499 94.894195 
L 188.616291 91.754848 
L 191.875874 92.989534 
L 193.505666 92.859502 
L 195.135458 97.759442 
L 196.76525 95.216592 
L 198.395042 95.980685 
L 200.024834 89.789919 
L 201.654626 93.684277 
L 203.284418 95.625264 
L 204.91421 92.061972 
L 206.544001 90.47847 
L 208.173793 91.389107 
L 209.803585 94.889241 
L 211.433377 94.294809 
L 213.063169 92.957748 
L 214.692961 92.873537 
L 216.322753 95.110915 
L 217.952545 93.129473 
L 219.582337 94.047954 
L 221.212128 93.882834 
L 222.84192 92.805012 
L 224.471712 92.631223 
L 226.101504 95.420102 
L 227.731296 93.399032 
L 229.361088 92.64402 
L 230.99088 94.711737 
L 232.620672 95.188934 
L 234.250464 97.734261 
L 235.880256 93.393666 
L 237.510047 92.537931 
L 239.139839 93.274366 
L 240.769631 95.693376 
L 242.399423 91.791588 
L 244.029215 92.091281 
L 245.659007 92.764971 
L 247.288799 90.99736 
L 248.918591 94.31421 
L 250.548383 97.189365 
L 252.178174 94.656835 
L 253.807966 96.302257 
L 255.437758 93.067966 
L 257.06755 92.841339 
L 258.697342 90.54782 
L 260.327134 94.861584 
L 261.956926 93.223592 
L 263.586718 95.964173 
L 265.21651 96.017425 
L 266.846302 90.555251 
L 268.476093 91.584775 
L 270.105885 95.264064 
L 271.735677 95.012669 
L 273.365469 94.933411 
L 274.995261 92.841339 
L 276.625053 95.291309 
L 278.254845 92.709243 
L 281.514429 91.82874 
L 283.14422 94.734854 
L 284.774012 93.851048 
L 286.403804 91.88488 
L 288.033596 94.206057 
L 289.663388 92.620078 
L 291.29318 92.31378 
L 292.922972 95.019686 
L 294.552764 93.824629 
L 296.182556 93.301198 
L 297.812348 91.32017 
L 299.442139 93.358165 
L 301.071931 94.096252 
L 302.701723 92.622967 
L 305.961307 93.345368 
L 307.591099 97.324763 
L 309.220891 93.607909 
L 310.850683 92.371572 
L 314.110266 93.81596 
L 315.740058 92.271262 
L 317.36985 92.126781 
L 318.999642 92.324513 
L 320.629434 95.074176 
L 322.259226 95.718144 
L 323.889018 92.501191 
L 325.51881 94.135468 
L 327.148602 95.548896 
L 328.778394 91.448138 
L 330.408185 93.283448 
L 332.037977 92.648148 
L 333.667769 92.811617 
L 335.297561 90.963923 
L 336.927353 94.053733 
L 338.557145 92.735249 
L 340.186937 92.428126 
L 343.446521 95.144765 
L 345.076312 93.408939 
L 346.706104 95.214115 
L 348.335896 92.733598 
L 349.965688 93.05971 
L 351.59548 92.96394 
L 353.225272 94.101618 
L 354.855064 95.540227 
L 356.484856 93.446504 
L 358.114648 93.562088 
L 359.74444 91.055977 
L 361.374231 92.674155 
L 363.004023 93.318123 
L 364.633815 92.339374 
L 366.263607 93.314408 
L 367.893399 92.390974 
L 369.523191 94.525564 
L 371.152983 95.769332 
L 372.782775 94.727836 
L 374.412567 91.80232 
L 376.042358 93.383758 
L 377.67215 93.233086 
L 379.301942 93.227307 
L 380.931734 89.466283 
L 382.561526 92.843816 
L 384.191318 95.723923 
L 385.82111 95.579443 
L 387.450902 92.921422 
L 389.080694 91.418416 
L 390.710486 92.641956 
L 393.970069 94.51318 
L 395.599861 92.61306 
L 397.229653 94.879334 
L 398.859445 93.990162 
L 400.489237 88.870612 
L 402.119029 90.88838 
L 403.748821 92.182509 
L 405.378613 94.661375 
L 407.008404 94.912771 
L 408.638196 91.541843 
L 410.267988 94.977993 
L 411.89778 93.287576 
L 413.527572 95.822583 
L 415.157364 91.934416 
L 416.787156 96.219697 
L 418.416948 92.130497 
L 420.04674 94.46901 
L 421.676532 95.471702 
L 423.306323 93.8527 
L 424.936115 95.131142 
L 426.565907 92.057018 
L 428.195699 93.880357 
L 429.825491 92.678283 
L 431.455283 94.932998 
L 433.085075 93.250837 
L 434.714867 94.772832 
L 436.344659 95.518349 
L 437.97445 93.632677 
L 439.604242 93.984796 
L 441.234034 95.071699 
L 442.863826 92.464452 
L 446.12341 93.741656 
L 447.753202 90.456591 
L 449.382994 95.367677 
L 451.012786 95.239296 
L 452.642578 93.742895 
L 454.272369 90.003749 
L 455.902161 94.665503 
L 459.161745 91.630183 
L 460.791537 94.246511 
L 462.421329 92.590356 
L 464.051121 95.026704 
L 465.680913 94.798425 
L 467.310705 96.87316 
L 468.940496 89.093112 
L 470.570288 93.008523 
L 472.20008 92.203562 
L 473.829872 95.203382 
L 473.829872 95.203382 
" clip-path="url(#p8141467ea8)" style="fill: none; stroke-dasharray: 1.75,2.8875; stroke-dashoffset: 0; stroke: #9fc377; stroke-width: 1.75"/>
   </g>
   <g id="patch_3">
    <path d="M 47.720781 326.855625 
L 47.720781 21.935625 
" style="fill: none; stroke: #cccccc; stroke-width: 1.25; stroke-linejoin: miter; stroke-linecap: square"/>
   </g>
   <g id="patch_4">
    <path d="M 494.120781 326.855625 
L 494.120781 21.935625 
" style="fill: none; stroke: #cccccc; stroke-width: 1.25; stroke-linejoin: miter; stroke-linecap: square"/>
   </g>
   <g id="patch_5">
    <path d="M 47.720781 326.855625 
L 494.120781 326.855625 
" style="fill: none; stroke: #cccccc; stroke-width: 1.25; stroke-linejoin: miter; stroke-linecap: square"/>
   </g>
   <g id="patch_6">
    <path d="M 47.720781 21.935625 
L 494.120781 21.935625 
" style="fill: none; stroke: #cccccc; stroke-width: 1.25; stroke-linejoin: miter; stroke-linecap: square"/>
   </g>
   <g id="text_35">
    <!-- "Shift" for dataset Mouse_non_tata -->
    <g style="fill: #262626" transform="translate(178.276094 15.935625) scale(0.12 -0.12)">
     <defs>
      <path id="ArialMT-22" d="M 450 2959 
L 294 3831 
L 294 4581 
L 934 4581 
L 934 3831 
L 794 2959 
L 450 2959 
z
M 1484 2959 
L 1331 3831 
L 1331 4581 
L 1972 4581 
L 1972 3831 
L 1822 2959 
L 1484 2959 
z
" transform="scale(0.015625)"/>
      <path id="ArialMT-20" transform="scale(0.015625)"/>
      <path id="ArialMT-72" d="M 416 0 
L 416 3319 
L 922 3319 
L 922 2816 
Q 1116 3169 1280 3281 
Q 1444 3394 1641 3394 
Q 1925 3394 2219 3213 
L 2025 2691 
Q 1819 2813 1613 2813 
Q 1428 2813 1281 2702 
Q 1134 2591 1072 2394 
Q 978 2094 978 1738 
L 978 0 
L 416 0 
z
" transform="scale(0.015625)"/>
      <path id="ArialMT-64" d="M 2575 0 
L 2575 419 
Q 2259 -75 1647 -75 
Q 1250 -75 917 144 
Q 584 363 401 755 
Q 219 1147 219 1656 
Q 219 2153 384 2558 
Q 550 2963 881 3178 
Q 1213 3394 1622 3394 
Q 1922 3394 2156 3267 
Q 2391 3141 2538 2938 
L 2538 4581 
L 3097 4581 
L 3097 0 
L 2575 0 
z
M 797 1656 
Q 797 1019 1065 703 
Q 1334 388 1700 388 
Q 2069 388 2326 689 
Q 2584 991 2584 1609 
Q 2584 2291 2321 2609 
Q 2059 2928 1675 2928 
Q 1300 2928 1048 2622 
Q 797 2316 797 1656 
z
" transform="scale(0.015625)"/>
      <path id="ArialMT-61" d="M 2588 409 
Q 2275 144 1986 34 
Q 1697 -75 1366 -75 
Q 819 -75 525 192 
Q 231 459 231 875 
Q 231 1119 342 1320 
Q 453 1522 633 1644 
Q 813 1766 1038 1828 
Q 1203 1872 1538 1913 
Q 2219 1994 2541 2106 
Q 2544 2222 2544 2253 
Q 2544 2597 2384 2738 
Q 2169 2928 1744 2928 
Q 1347 2928 1158 2789 
Q 969 2650 878 2297 
L 328 2372 
Q 403 2725 575 2942 
Q 747 3159 1072 3276 
Q 1397 3394 1825 3394 
Q 2250 3394 2515 3294 
Q 2781 3194 2906 3042 
Q 3031 2891 3081 2659 
Q 3109 2516 3109 2141 
L 3109 1391 
Q 3109 606 3145 398 
Q 3181 191 3288 0 
L 2700 0 
Q 2613 175 2588 409 
z
M 2541 1666 
Q 2234 1541 1622 1453 
Q 1275 1403 1131 1340 
Q 988 1278 909 1158 
Q 831 1038 831 891 
Q 831 666 1001 516 
Q 1172 366 1500 366 
Q 1825 366 2078 508 
Q 2331 650 2450 897 
Q 2541 1088 2541 1459 
L 2541 1666 
z
" transform="scale(0.015625)"/>
      <path id="ArialMT-65" d="M 2694 1069 
L 3275 997 
Q 3138 488 2766 206 
Q 2394 -75 1816 -75 
Q 1088 -75 661 373 
Q 234 822 234 1631 
Q 234 2469 665 2931 
Q 1097 3394 1784 3394 
Q 2450 3394 2872 2941 
Q 3294 2488 3294 1666 
Q 3294 1616 3291 1516 
L 816 1516 
Q 847 969 1125 678 
Q 1403 388 1819 388 
Q 2128 388 2347 550 
Q 2566 713 2694 1069 
z
M 847 1978 
L 2700 1978 
Q 2663 2397 2488 2606 
Q 2219 2931 1791 2931 
Q 1403 2931 1139 2672 
Q 875 2413 847 1978 
z
" transform="scale(0.015625)"/>
      <path id="ArialMT-4d" d="M 475 0 
L 475 4581 
L 1388 4581 
L 2472 1338 
Q 2622 884 2691 659 
Q 2769 909 2934 1394 
L 4031 4581 
L 4847 4581 
L 4847 0 
L 4263 0 
L 4263 3834 
L 2931 0 
L 2384 0 
L 1059 3900 
L 1059 0 
L 475 0 
z
" transform="scale(0.015625)"/>
      <path id="ArialMT-75" d="M 2597 0 
L 2597 488 
Q 2209 -75 1544 -75 
Q 1250 -75 995 37 
Q 741 150 617 320 
Q 494 491 444 738 
Q 409 903 409 1263 
L 409 3319 
L 972 3319 
L 972 1478 
Q 972 1038 1006 884 
Q 1059 663 1231 536 
Q 1403 409 1656 409 
Q 1909 409 2131 539 
Q 2353 669 2445 892 
Q 2538 1116 2538 1541 
L 2538 3319 
L 3100 3319 
L 3100 0 
L 2597 0 
z
" transform="scale(0.015625)"/>
      <path id="ArialMT-5f" d="M -97 -1272 
L -97 -866 
L 3631 -866 
L 3631 -1272 
L -97 -1272 
z
" transform="scale(0.015625)"/>
     </defs>
     <use xlink:href="#ArialMT-22"/>
     <use xlink:href="#ArialMT-53" x="35.498047"/>
     <use xlink:href="#ArialMT-68" x="102.197266"/>
     <use xlink:href="#ArialMT-69" x="157.8125"/>
     <use xlink:href="#ArialMT-66" x="180.029297"/>
     <use xlink:href="#ArialMT-74" x="207.8125"/>
     <use xlink:href="#ArialMT-22" x="235.595703"/>
     <use xlink:href="#ArialMT-20" x="271.09375"/>
     <use xlink:href="#ArialMT-66" x="298.876953"/>
     <use xlink:href="#ArialMT-6f" x="326.660156"/>
     <use xlink:href="#ArialMT-72" x="382.275391"/>
     <use xlink:href="#ArialMT-20" x="415.576172"/>
     <use xlink:href="#ArialMT-64" x="443.359375"/>
     <use xlink:href="#ArialMT-61" x="498.974609"/>
     <use xlink:href="#ArialMT-74" x="554.589844"/>
     <use xlink:href="#ArialMT-61" x="582.373047"/>
     <use xlink:href="#ArialMT-73" x="637.988281"/>
     <use xlink:href="#ArialMT-65" x="687.988281"/>
     <use xlink:href="#ArialMT-74" x="743.603516"/>
     <use xlink:href="#ArialMT-20" x="771.386719"/>
     <use xlink:href="#ArialMT-4d" x="799.169922"/>
     <use xlink:href="#ArialMT-6f" x="882.470703"/>
     <use xlink:href="#ArialMT-75" x="938.085938"/>
     <use xlink:href="#ArialMT-73" x="993.701172"/>
     <use xlink:href="#ArialMT-65" x="1043.701172"/>
     <use xlink:href="#ArialMT-5f" x="1099.316406"/>
     <use xlink:href="#ArialMT-6e" x="1154.931641"/>
     <use xlink:href="#ArialMT-6f" x="1210.546875"/>
     <use xlink:href="#ArialMT-6e" x="1266.162109"/>
     <use xlink:href="#ArialMT-5f" x="1321.777344"/>
     <use xlink:href="#ArialMT-74" x="1377.392578"/>
     <use xlink:href="#ArialMT-61" x="1405.175781"/>
     <use xlink:href="#ArialMT-74" x="1460.791016"/>
     <use xlink:href="#ArialMT-61" x="1488.574219"/>
    </g>
   </g>
   <g id="legend_1">
    <g id="line2d_35">
     <path d="M 56.720781 34.593437 
L 66.720781 34.593437 
L 76.720781 34.593437 
" style="fill: none; stroke: #0272a2; stroke-width: 1.75; stroke-linecap: round"/>
    </g>
    <g id="text_36">
     <!-- Promoter -->
     <g style="fill: #262626" transform="translate(84.720781 38.093437) scale(0.1 -0.1)">
      <defs>
       <path id="ArialMT-6d" d="M 422 0 
L 422 3319 
L 925 3319 
L 925 2853 
Q 1081 3097 1340 3245 
Q 1600 3394 1931 3394 
Q 2300 3394 2536 3241 
Q 2772 3088 2869 2813 
Q 3263 3394 3894 3394 
Q 4388 3394 4653 3120 
Q 4919 2847 4919 2278 
L 4919 0 
L 4359 0 
L 4359 2091 
Q 4359 2428 4304 2576 
Q 4250 2725 4106 2815 
Q 3963 2906 3769 2906 
Q 3419 2906 3187 2673 
Q 2956 2441 2956 1928 
L 2956 0 
L 2394 0 
L 2394 2156 
Q 2394 2531 2256 2718 
Q 2119 2906 1806 2906 
Q 1569 2906 1367 2781 
Q 1166 2656 1075 2415 
Q 984 2175 984 1722 
L 984 0 
L 422 0 
z
" transform="scale(0.015625)"/>
      </defs>
      <use xlink:href="#ArialMT-50"/>
      <use xlink:href="#ArialMT-72" x="66.699219"/>
      <use xlink:href="#ArialMT-6f" x="100"/>
      <use xlink:href="#ArialMT-6d" x="155.615234"/>
      <use xlink:href="#ArialMT-6f" x="238.916016"/>
      <use xlink:href="#ArialMT-74" x="294.53125"/>
      <use xlink:href="#ArialMT-65" x="322.314453"/>
      <use xlink:href="#ArialMT-72" x="377.929688"/>
     </g>
    </g>
    <g id="line2d_36">
     <path d="M 56.720781 48.73875 
L 66.720781 48.73875 
L 76.720781 48.73875 
" style="fill: none; stroke-dasharray: 1.75,2.8875; stroke-dashoffset: 0; stroke: #9fc377; stroke-width: 1.75"/>
    </g>
    <g id="text_37">
     <!-- Non-promoter -->
     <g style="fill: #262626" transform="translate(84.720781 52.23875) scale(0.1 -0.1)">
      <defs>
       <path id="ArialMT-4e" d="M 488 0 
L 488 4581 
L 1109 4581 
L 3516 984 
L 3516 4581 
L 4097 4581 
L 4097 0 
L 3475 0 
L 1069 3600 
L 1069 0 
L 488 0 
z
" transform="scale(0.015625)"/>
       <path id="ArialMT-70" d="M 422 -1272 
L 422 3319 
L 934 3319 
L 934 2888 
Q 1116 3141 1344 3267 
Q 1572 3394 1897 3394 
Q 2322 3394 2647 3175 
Q 2972 2956 3137 2557 
Q 3303 2159 3303 1684 
Q 3303 1175 3120 767 
Q 2938 359 2589 142 
Q 2241 -75 1856 -75 
Q 1575 -75 1351 44 
Q 1128 163 984 344 
L 984 -1272 
L 422 -1272 
z
M 931 1641 
Q 931 1000 1190 694 
Q 1450 388 1819 388 
Q 2194 388 2461 705 
Q 2728 1022 2728 1688 
Q 2728 2322 2467 2637 
Q 2206 2953 1844 2953 
Q 1484 2953 1207 2617 
Q 931 2281 931 1641 
z
" transform="scale(0.015625)"/>
      </defs>
      <use xlink:href="#ArialMT-4e"/>
      <use xlink:href="#ArialMT-6f" x="72.216797"/>
      <use xlink:href="#ArialMT-6e" x="127.832031"/>
      <use xlink:href="#ArialMT-2d" x="183.447266"/>
      <use xlink:href="#ArialMT-70" x="216.748047"/>
      <use xlink:href="#ArialMT-72" x="272.363281"/>
      <use xlink:href="#ArialMT-6f" x="305.664062"/>
      <use xlink:href="#ArialMT-6d" x="361.279297"/>
      <use xlink:href="#ArialMT-6f" x="444.580078"/>
      <use xlink:href="#ArialMT-74" x="500.195312"/>
      <use xlink:href="#ArialMT-65" x="527.978516"/>
      <use xlink:href="#ArialMT-72" x="583.59375"/>
     </g>
    </g>
   </g>
  </g>
 </g>
 <defs>
  <clipPath id="p8141467ea8">
   <rect x="47.720781" y="21.935625" width="446.4" height="304.92"/>
  </clipPath>
 </defs>
</svg>
