<?xml version="1.0" encoding="utf-8" standalone="no"?>
<!DOCTYPE svg PUBLIC "-//W3C//DTD SVG 1.1//EN"
  "http://www.w3.org/Graphics/SVG/1.1/DTD/svg11.dtd">
<svg xmlns:xlink="http://www.w3.org/1999/xlink" width="495.893906pt" height="375.733156pt" viewBox="0 0 495.893906 375.733156" xmlns="http://www.w3.org/2000/svg" version="1.1">
 <metadata>
  <rdf:RDF xmlns:dc="http://purl.org/dc/elements/1.1/" xmlns:cc="http://creativecommons.org/ns#" xmlns:rdf="http://www.w3.org/1999/02/22-rdf-syntax-ns#">
   <cc:Work>
    <dc:type rdf:resource="http://purl.org/dc/dcmitype/StillImage"/>
    <dc:date>2023-05-11T16:25:50.756808</dc:date>
    <dc:format>image/svg+xml</dc:format>
    <dc:creator>
     <cc:Agent>
      <dc:title>Matplotlib v3.7.1, https://matplotlib.org/</dc:title>
     </cc:Agent>
    </dc:creator>
   </cc:Work>
  </rdf:RDF>
 </metadata>
 <defs>
  <style type="text/css">*{stroke-linejoin: round; stroke-linecap: butt}</style>
 </defs>
 <g id="figure_1">
  <g id="patch_1">
   <path d="M 0 375.733156 
L 495.893906 375.733156 
L 495.893906 0 
L 0 0 
z
" style="fill: #ffffff"/>
  </g>
  <g id="axes_1">
   <g id="patch_2">
    <path d="M 42.293906 326.855625 
L 488.693906 326.855625 
L 488.693906 21.935625 
L 42.293906 21.935625 
z
" style="fill: #ffffff"/>
   </g>
   <g id="matplotlib.axis_1">
    <g id="xtick_1">
     <g id="line2d_1"/>
     <g id="text_1">
      <!-- -200 -->
      <g style="fill: #262626" transform="translate(57.33731 353.067937) rotate(-45) scale(0.1 -0.1)">
       <defs>
        <path id="ArialMT-2d" d="M 203 1375 
L 203 1941 
L 1931 1941 
L 1931 1375 
L 203 1375 
z
" transform="scale(0.015625)"/>
        <path id="ArialMT-32" d="M 3222 541 
L 3222 0 
L 194 0 
Q 188 203 259 391 
Q 375 700 629 1000 
Q 884 1300 1366 1694 
Q 2113 2306 2375 2664 
Q 2638 3022 2638 3341 
Q 2638 3675 2398 3904 
Q 2159 4134 1775 4134 
Q 1369 4134 1125 3890 
Q 881 3647 878 3216 
L 300 3275 
Q 359 3922 746 4261 
Q 1134 4600 1788 4600 
Q 2447 4600 2831 4234 
Q 3216 3869 3216 3328 
Q 3216 3053 3103 2787 
Q 2991 2522 2730 2228 
Q 2469 1934 1863 1422 
Q 1356 997 1212 845 
Q 1069 694 975 541 
L 3222 541 
z
" transform="scale(0.015625)"/>
        <path id="ArialMT-30" d="M 266 2259 
Q 266 3072 433 3567 
Q 600 4063 929 4331 
Q 1259 4600 1759 4600 
Q 2128 4600 2406 4451 
Q 2684 4303 2865 4023 
Q 3047 3744 3150 3342 
Q 3253 2941 3253 2259 
Q 3253 1453 3087 958 
Q 2922 463 2592 192 
Q 2263 -78 1759 -78 
Q 1097 -78 719 397 
Q 266 969 266 2259 
z
M 844 2259 
Q 844 1131 1108 757 
Q 1372 384 1759 384 
Q 2147 384 2411 759 
Q 2675 1134 2675 2259 
Q 2675 3391 2411 3762 
Q 2147 4134 1753 4134 
Q 1366 4134 1134 3806 
Q 844 3388 844 2259 
z
" transform="scale(0.015625)"/>
       </defs>
       <use xlink:href="#ArialMT-2d"/>
       <use xlink:href="#ArialMT-32" x="33.300781"/>
       <use xlink:href="#ArialMT-30" x="88.916016"/>
       <use xlink:href="#ArialMT-30" x="144.53125"/>
      </g>
     </g>
    </g>
    <g id="xtick_2">
     <g id="line2d_2"/>
     <g id="text_2">
      <!-- -190 -->
      <g style="fill: #262626" transform="translate(73.635229 353.067937) rotate(-45) scale(0.1 -0.1)">
       <defs>
        <path id="ArialMT-31" d="M 2384 0 
L 1822 0 
L 1822 3584 
Q 1619 3391 1289 3197 
Q 959 3003 697 2906 
L 697 3450 
Q 1169 3672 1522 3987 
Q 1875 4303 2022 4600 
L 2384 4600 
L 2384 0 
z
" transform="scale(0.015625)"/>
        <path id="ArialMT-39" d="M 350 1059 
L 891 1109 
Q 959 728 1153 556 
Q 1347 384 1650 384 
Q 1909 384 2104 503 
Q 2300 622 2425 820 
Q 2550 1019 2634 1356 
Q 2719 1694 2719 2044 
Q 2719 2081 2716 2156 
Q 2547 1888 2255 1720 
Q 1963 1553 1622 1553 
Q 1053 1553 659 1965 
Q 266 2378 266 3053 
Q 266 3750 677 4175 
Q 1088 4600 1706 4600 
Q 2153 4600 2523 4359 
Q 2894 4119 3086 3673 
Q 3278 3228 3278 2384 
Q 3278 1506 3087 986 
Q 2897 466 2520 194 
Q 2144 -78 1638 -78 
Q 1100 -78 759 220 
Q 419 519 350 1059 
z
M 2653 3081 
Q 2653 3566 2395 3850 
Q 2138 4134 1775 4134 
Q 1400 4134 1122 3828 
Q 844 3522 844 3034 
Q 844 2597 1108 2323 
Q 1372 2050 1759 2050 
Q 2150 2050 2401 2323 
Q 2653 2597 2653 3081 
z
" transform="scale(0.015625)"/>
       </defs>
       <use xlink:href="#ArialMT-2d"/>
       <use xlink:href="#ArialMT-31" x="33.300781"/>
       <use xlink:href="#ArialMT-39" x="88.916016"/>
       <use xlink:href="#ArialMT-30" x="144.53125"/>
      </g>
     </g>
    </g>
    <g id="xtick_3">
     <g id="line2d_3"/>
     <g id="text_3">
      <!-- -180 -->
      <g style="fill: #262626" transform="translate(89.933148 353.067937) rotate(-45) scale(0.1 -0.1)">
       <defs>
        <path id="ArialMT-38" d="M 1131 2484 
Q 781 2613 612 2850 
Q 444 3088 444 3419 
Q 444 3919 803 4259 
Q 1163 4600 1759 4600 
Q 2359 4600 2725 4251 
Q 3091 3903 3091 3403 
Q 3091 3084 2923 2848 
Q 2756 2613 2416 2484 
Q 2838 2347 3058 2040 
Q 3278 1734 3278 1309 
Q 3278 722 2862 322 
Q 2447 -78 1769 -78 
Q 1091 -78 675 323 
Q 259 725 259 1325 
Q 259 1772 486 2073 
Q 713 2375 1131 2484 
z
M 1019 3438 
Q 1019 3113 1228 2906 
Q 1438 2700 1772 2700 
Q 2097 2700 2305 2904 
Q 2513 3109 2513 3406 
Q 2513 3716 2298 3927 
Q 2084 4138 1766 4138 
Q 1444 4138 1231 3931 
Q 1019 3725 1019 3438 
z
M 838 1322 
Q 838 1081 952 856 
Q 1066 631 1291 507 
Q 1516 384 1775 384 
Q 2178 384 2440 643 
Q 2703 903 2703 1303 
Q 2703 1709 2433 1975 
Q 2163 2241 1756 2241 
Q 1359 2241 1098 1978 
Q 838 1716 838 1322 
z
" transform="scale(0.015625)"/>
       </defs>
       <use xlink:href="#ArialMT-2d"/>
       <use xlink:href="#ArialMT-31" x="33.300781"/>
       <use xlink:href="#ArialMT-38" x="88.916016"/>
       <use xlink:href="#ArialMT-30" x="144.53125"/>
      </g>
     </g>
    </g>
    <g id="xtick_4">
     <g id="line2d_4"/>
     <g id="text_4">
      <!-- -170 -->
      <g style="fill: #262626" transform="translate(106.231066 353.067937) rotate(-45) scale(0.1 -0.1)">
       <defs>
        <path id="ArialMT-37" d="M 303 3981 
L 303 4522 
L 3269 4522 
L 3269 4084 
Q 2831 3619 2401 2847 
Q 1972 2075 1738 1259 
Q 1569 684 1522 0 
L 944 0 
Q 953 541 1156 1306 
Q 1359 2072 1739 2783 
Q 2119 3494 2547 3981 
L 303 3981 
z
" transform="scale(0.015625)"/>
       </defs>
       <use xlink:href="#ArialMT-2d"/>
       <use xlink:href="#ArialMT-31" x="33.300781"/>
       <use xlink:href="#ArialMT-37" x="88.916016"/>
       <use xlink:href="#ArialMT-30" x="144.53125"/>
      </g>
     </g>
    </g>
    <g id="xtick_5">
     <g id="line2d_5"/>
     <g id="text_5">
      <!-- -160 -->
      <g style="fill: #262626" transform="translate(122.528985 353.067937) rotate(-45) scale(0.1 -0.1)">
       <defs>
        <path id="ArialMT-36" d="M 3184 3459 
L 2625 3416 
Q 2550 3747 2413 3897 
Q 2184 4138 1850 4138 
Q 1581 4138 1378 3988 
Q 1113 3794 959 3422 
Q 806 3050 800 2363 
Q 1003 2672 1297 2822 
Q 1591 2972 1913 2972 
Q 2475 2972 2870 2558 
Q 3266 2144 3266 1488 
Q 3266 1056 3080 686 
Q 2894 316 2569 119 
Q 2244 -78 1831 -78 
Q 1128 -78 684 439 
Q 241 956 241 2144 
Q 241 3472 731 4075 
Q 1159 4600 1884 4600 
Q 2425 4600 2770 4297 
Q 3116 3994 3184 3459 
z
M 888 1484 
Q 888 1194 1011 928 
Q 1134 663 1356 523 
Q 1578 384 1822 384 
Q 2178 384 2434 671 
Q 2691 959 2691 1453 
Q 2691 1928 2437 2201 
Q 2184 2475 1800 2475 
Q 1419 2475 1153 2201 
Q 888 1928 888 1484 
z
" transform="scale(0.015625)"/>
       </defs>
       <use xlink:href="#ArialMT-2d"/>
       <use xlink:href="#ArialMT-31" x="33.300781"/>
       <use xlink:href="#ArialMT-36" x="88.916016"/>
       <use xlink:href="#ArialMT-30" x="144.53125"/>
      </g>
     </g>
    </g>
    <g id="xtick_6">
     <g id="line2d_6"/>
     <g id="text_6">
      <!-- -150 -->
      <g style="fill: #262626" transform="translate(138.826904 353.067937) rotate(-45) scale(0.1 -0.1)">
       <defs>
        <path id="ArialMT-35" d="M 266 1200 
L 856 1250 
Q 922 819 1161 601 
Q 1400 384 1738 384 
Q 2144 384 2425 690 
Q 2706 997 2706 1503 
Q 2706 1984 2436 2262 
Q 2166 2541 1728 2541 
Q 1456 2541 1237 2417 
Q 1019 2294 894 2097 
L 366 2166 
L 809 4519 
L 3088 4519 
L 3088 3981 
L 1259 3981 
L 1013 2750 
Q 1425 3038 1878 3038 
Q 2478 3038 2890 2622 
Q 3303 2206 3303 1553 
Q 3303 931 2941 478 
Q 2500 -78 1738 -78 
Q 1113 -78 717 272 
Q 322 622 266 1200 
z
" transform="scale(0.015625)"/>
       </defs>
       <use xlink:href="#ArialMT-2d"/>
       <use xlink:href="#ArialMT-31" x="33.300781"/>
       <use xlink:href="#ArialMT-35" x="88.916016"/>
       <use xlink:href="#ArialMT-30" x="144.53125"/>
      </g>
     </g>
    </g>
    <g id="xtick_7">
     <g id="line2d_7"/>
     <g id="text_7">
      <!-- -140 -->
      <g style="fill: #262626" transform="translate(155.124823 353.067937) rotate(-45) scale(0.1 -0.1)">
       <defs>
        <path id="ArialMT-34" d="M 2069 0 
L 2069 1097 
L 81 1097 
L 81 1613 
L 2172 4581 
L 2631 4581 
L 2631 1613 
L 3250 1613 
L 3250 1097 
L 2631 1097 
L 2631 0 
L 2069 0 
z
M 2069 1613 
L 2069 3678 
L 634 1613 
L 2069 1613 
z
" transform="scale(0.015625)"/>
       </defs>
       <use xlink:href="#ArialMT-2d"/>
       <use xlink:href="#ArialMT-31" x="33.300781"/>
       <use xlink:href="#ArialMT-34" x="88.916016"/>
       <use xlink:href="#ArialMT-30" x="144.53125"/>
      </g>
     </g>
    </g>
    <g id="xtick_8">
     <g id="line2d_8"/>
     <g id="text_8">
      <!-- -130 -->
      <g style="fill: #262626" transform="translate(171.422742 353.067937) rotate(-45) scale(0.1 -0.1)">
       <defs>
        <path id="ArialMT-33" d="M 269 1209 
L 831 1284 
Q 928 806 1161 595 
Q 1394 384 1728 384 
Q 2125 384 2398 659 
Q 2672 934 2672 1341 
Q 2672 1728 2419 1979 
Q 2166 2231 1775 2231 
Q 1616 2231 1378 2169 
L 1441 2663 
Q 1497 2656 1531 2656 
Q 1891 2656 2178 2843 
Q 2466 3031 2466 3422 
Q 2466 3731 2256 3934 
Q 2047 4138 1716 4138 
Q 1388 4138 1169 3931 
Q 950 3725 888 3313 
L 325 3413 
Q 428 3978 793 4289 
Q 1159 4600 1703 4600 
Q 2078 4600 2393 4439 
Q 2709 4278 2876 4000 
Q 3044 3722 3044 3409 
Q 3044 3113 2884 2869 
Q 2725 2625 2413 2481 
Q 2819 2388 3044 2092 
Q 3269 1797 3269 1353 
Q 3269 753 2831 336 
Q 2394 -81 1725 -81 
Q 1122 -81 723 278 
Q 325 638 269 1209 
z
" transform="scale(0.015625)"/>
       </defs>
       <use xlink:href="#ArialMT-2d"/>
       <use xlink:href="#ArialMT-31" x="33.300781"/>
       <use xlink:href="#ArialMT-33" x="88.916016"/>
       <use xlink:href="#ArialMT-30" x="144.53125"/>
      </g>
     </g>
    </g>
    <g id="xtick_9">
     <g id="line2d_9"/>
     <g id="text_9">
      <!-- -120 -->
      <g style="fill: #262626" transform="translate(187.720661 353.067937) rotate(-45) scale(0.1 -0.1)">
       <use xlink:href="#ArialMT-2d"/>
       <use xlink:href="#ArialMT-31" x="33.300781"/>
       <use xlink:href="#ArialMT-32" x="88.916016"/>
       <use xlink:href="#ArialMT-30" x="144.53125"/>
      </g>
     </g>
    </g>
    <g id="xtick_10">
     <g id="line2d_10"/>
     <g id="text_10">
      <!-- -110 -->
      <g style="fill: #262626" transform="translate(204.279326 352.546446) rotate(-45) scale(0.1 -0.1)">
       <use xlink:href="#ArialMT-2d"/>
       <use xlink:href="#ArialMT-31" x="33.300781"/>
       <use xlink:href="#ArialMT-31" x="81.541016"/>
       <use xlink:href="#ArialMT-30" x="137.15625"/>
      </g>
     </g>
    </g>
    <g id="xtick_11">
     <g id="line2d_11"/>
     <g id="text_11">
      <!-- -100 -->
      <g style="fill: #262626" transform="translate(220.316499 353.067937) rotate(-45) scale(0.1 -0.1)">
       <use xlink:href="#ArialMT-2d"/>
       <use xlink:href="#ArialMT-31" x="33.300781"/>
       <use xlink:href="#ArialMT-30" x="88.916016"/>
       <use xlink:href="#ArialMT-30" x="144.53125"/>
      </g>
     </g>
    </g>
    <g id="xtick_12">
     <g id="line2d_12"/>
     <g id="text_12">
      <!-- -90 -->
      <g style="fill: #262626" transform="translate(238.580506 349.135761) rotate(-45) scale(0.1 -0.1)">
       <use xlink:href="#ArialMT-2d"/>
       <use xlink:href="#ArialMT-39" x="33.300781"/>
       <use xlink:href="#ArialMT-30" x="88.916016"/>
      </g>
     </g>
    </g>
    <g id="xtick_13">
     <g id="line2d_13"/>
     <g id="text_13">
      <!-- -80 -->
      <g style="fill: #262626" transform="translate(254.878425 349.135761) rotate(-45) scale(0.1 -0.1)">
       <use xlink:href="#ArialMT-2d"/>
       <use xlink:href="#ArialMT-38" x="33.300781"/>
       <use xlink:href="#ArialMT-30" x="88.916016"/>
      </g>
     </g>
    </g>
    <g id="xtick_14">
     <g id="line2d_14"/>
     <g id="text_14">
      <!-- -70 -->
      <g style="fill: #262626" transform="translate(271.176344 349.135761) rotate(-45) scale(0.1 -0.1)">
       <use xlink:href="#ArialMT-2d"/>
       <use xlink:href="#ArialMT-37" x="33.300781"/>
       <use xlink:href="#ArialMT-30" x="88.916016"/>
      </g>
     </g>
    </g>
    <g id="xtick_15">
     <g id="line2d_15"/>
     <g id="text_15">
      <!-- -60 -->
      <g style="fill: #262626" transform="translate(287.474263 349.135761) rotate(-45) scale(0.1 -0.1)">
       <use xlink:href="#ArialMT-2d"/>
       <use xlink:href="#ArialMT-36" x="33.300781"/>
       <use xlink:href="#ArialMT-30" x="88.916016"/>
      </g>
     </g>
    </g>
    <g id="xtick_16">
     <g id="line2d_16"/>
     <g id="text_16">
      <!-- -50 -->
      <g style="fill: #262626" transform="translate(303.772182 349.135761) rotate(-45) scale(0.1 -0.1)">
       <use xlink:href="#ArialMT-2d"/>
       <use xlink:href="#ArialMT-35" x="33.300781"/>
       <use xlink:href="#ArialMT-30" x="88.916016"/>
      </g>
     </g>
    </g>
    <g id="xtick_17">
     <g id="line2d_17"/>
     <g id="text_17">
      <!-- -40 -->
      <g style="fill: #262626" transform="translate(320.070101 349.135761) rotate(-45) scale(0.1 -0.1)">
       <use xlink:href="#ArialMT-2d"/>
       <use xlink:href="#ArialMT-34" x="33.300781"/>
       <use xlink:href="#ArialMT-30" x="88.916016"/>
      </g>
     </g>
    </g>
    <g id="xtick_18">
     <g id="line2d_18"/>
     <g id="text_18">
      <!-- -30 -->
      <g style="fill: #262626" transform="translate(336.36802 349.135761) rotate(-45) scale(0.1 -0.1)">
       <use xlink:href="#ArialMT-2d"/>
       <use xlink:href="#ArialMT-33" x="33.300781"/>
       <use xlink:href="#ArialMT-30" x="88.916016"/>
      </g>
     </g>
    </g>
    <g id="xtick_19">
     <g id="line2d_19"/>
     <g id="text_19">
      <!-- -20 -->
      <g style="fill: #262626" transform="translate(352.665939 349.135761) rotate(-45) scale(0.1 -0.1)">
       <use xlink:href="#ArialMT-2d"/>
       <use xlink:href="#ArialMT-32" x="33.300781"/>
       <use xlink:href="#ArialMT-30" x="88.916016"/>
      </g>
     </g>
    </g>
    <g id="xtick_20">
     <g id="line2d_20"/>
     <g id="text_20">
      <!-- -10 -->
      <g style="fill: #262626" transform="translate(368.963858 349.135761) rotate(-45) scale(0.1 -0.1)">
       <use xlink:href="#ArialMT-2d"/>
       <use xlink:href="#ArialMT-31" x="33.300781"/>
       <use xlink:href="#ArialMT-30" x="88.916016"/>
      </g>
     </g>
    </g>
    <g id="xtick_21">
     <g id="line2d_21"/>
     <g id="text_21">
      <!-- 0 -->
      <g style="fill: #262626" transform="translate(388.405088 342.849139) rotate(-45) scale(0.1 -0.1)">
       <use xlink:href="#ArialMT-30"/>
      </g>
     </g>
    </g>
    <g id="xtick_22">
     <g id="line2d_22"/>
     <g id="text_22">
      <!-- 10 -->
      <g style="fill: #262626" transform="translate(402.736918 346.781316) rotate(-45) scale(0.1 -0.1)">
       <use xlink:href="#ArialMT-31"/>
       <use xlink:href="#ArialMT-30" x="55.615234"/>
      </g>
     </g>
    </g>
    <g id="xtick_23">
     <g id="line2d_23"/>
     <g id="text_23">
      <!-- 20 -->
      <g style="fill: #262626" transform="translate(419.034837 346.781316) rotate(-45) scale(0.1 -0.1)">
       <use xlink:href="#ArialMT-32"/>
       <use xlink:href="#ArialMT-30" x="55.615234"/>
      </g>
     </g>
    </g>
    <g id="xtick_24">
     <g id="line2d_24"/>
     <g id="text_24">
      <!-- 30 -->
      <g style="fill: #262626" transform="translate(435.332756 346.781316) rotate(-45) scale(0.1 -0.1)">
       <use xlink:href="#ArialMT-33"/>
       <use xlink:href="#ArialMT-30" x="55.615234"/>
      </g>
     </g>
    </g>
    <g id="xtick_25">
     <g id="line2d_25"/>
     <g id="text_25">
      <!-- 40 -->
      <g style="fill: #262626" transform="translate(451.630675 346.781316) rotate(-45) scale(0.1 -0.1)">
       <use xlink:href="#ArialMT-34"/>
       <use xlink:href="#ArialMT-30" x="55.615234"/>
      </g>
     </g>
    </g>
    <g id="xtick_26">
     <g id="line2d_26"/>
     <g id="text_26">
      <!-- 50 -->
      <g style="fill: #262626" transform="translate(467.928594 346.781316) rotate(-45) scale(0.1 -0.1)">
       <use xlink:href="#ArialMT-35"/>
       <use xlink:href="#ArialMT-30" x="55.615234"/>
      </g>
     </g>
    </g>
    <g id="text_27">
     <!-- Position -->
     <g style="fill: #262626" transform="translate(245.927656 366.346906) scale(0.11 -0.11)">
      <defs>
       <path id="ArialMT-50" d="M 494 0 
L 494 4581 
L 2222 4581 
Q 2678 4581 2919 4538 
Q 3256 4481 3484 4323 
Q 3713 4166 3852 3881 
Q 3991 3597 3991 3256 
Q 3991 2672 3619 2267 
Q 3247 1863 2275 1863 
L 1100 1863 
L 1100 0 
L 494 0 
z
M 1100 2403 
L 2284 2403 
Q 2872 2403 3119 2622 
Q 3366 2841 3366 3238 
Q 3366 3525 3220 3729 
Q 3075 3934 2838 4000 
Q 2684 4041 2272 4041 
L 1100 4041 
L 1100 2403 
z
" transform="scale(0.015625)"/>
       <path id="ArialMT-6f" d="M 213 1659 
Q 213 2581 725 3025 
Q 1153 3394 1769 3394 
Q 2453 3394 2887 2945 
Q 3322 2497 3322 1706 
Q 3322 1066 3130 698 
Q 2938 331 2570 128 
Q 2203 -75 1769 -75 
Q 1072 -75 642 372 
Q 213 819 213 1659 
z
M 791 1659 
Q 791 1022 1069 705 
Q 1347 388 1769 388 
Q 2188 388 2466 706 
Q 2744 1025 2744 1678 
Q 2744 2294 2464 2611 
Q 2184 2928 1769 2928 
Q 1347 2928 1069 2612 
Q 791 2297 791 1659 
z
" transform="scale(0.015625)"/>
       <path id="ArialMT-73" d="M 197 991 
L 753 1078 
Q 800 744 1014 566 
Q 1228 388 1613 388 
Q 2000 388 2187 545 
Q 2375 703 2375 916 
Q 2375 1106 2209 1216 
Q 2094 1291 1634 1406 
Q 1016 1563 777 1677 
Q 538 1791 414 1992 
Q 291 2194 291 2438 
Q 291 2659 392 2848 
Q 494 3038 669 3163 
Q 800 3259 1026 3326 
Q 1253 3394 1513 3394 
Q 1903 3394 2198 3281 
Q 2494 3169 2634 2976 
Q 2775 2784 2828 2463 
L 2278 2388 
Q 2241 2644 2061 2787 
Q 1881 2931 1553 2931 
Q 1166 2931 1000 2803 
Q 834 2675 834 2503 
Q 834 2394 903 2306 
Q 972 2216 1119 2156 
Q 1203 2125 1616 2013 
Q 2213 1853 2448 1751 
Q 2684 1650 2818 1456 
Q 2953 1263 2953 975 
Q 2953 694 2789 445 
Q 2625 197 2315 61 
Q 2006 -75 1616 -75 
Q 969 -75 630 194 
Q 291 463 197 991 
z
" transform="scale(0.015625)"/>
       <path id="ArialMT-69" d="M 425 3934 
L 425 4581 
L 988 4581 
L 988 3934 
L 425 3934 
z
M 425 0 
L 425 3319 
L 988 3319 
L 988 0 
L 425 0 
z
" transform="scale(0.015625)"/>
       <path id="ArialMT-74" d="M 1650 503 
L 1731 6 
Q 1494 -44 1306 -44 
Q 1000 -44 831 53 
Q 663 150 594 308 
Q 525 466 525 972 
L 525 2881 
L 113 2881 
L 113 3319 
L 525 3319 
L 525 4141 
L 1084 4478 
L 1084 3319 
L 1650 3319 
L 1650 2881 
L 1084 2881 
L 1084 941 
Q 1084 700 1114 631 
Q 1144 563 1211 522 
Q 1278 481 1403 481 
Q 1497 481 1650 503 
z
" transform="scale(0.015625)"/>
       <path id="ArialMT-6e" d="M 422 0 
L 422 3319 
L 928 3319 
L 928 2847 
Q 1294 3394 1984 3394 
Q 2284 3394 2536 3286 
Q 2788 3178 2913 3003 
Q 3038 2828 3088 2588 
Q 3119 2431 3119 2041 
L 3119 0 
L 2556 0 
L 2556 2019 
Q 2556 2363 2490 2533 
Q 2425 2703 2258 2804 
Q 2091 2906 1866 2906 
Q 1506 2906 1245 2678 
Q 984 2450 984 1813 
L 984 0 
L 422 0 
z
" transform="scale(0.015625)"/>
      </defs>
      <use xlink:href="#ArialMT-50"/>
      <use xlink:href="#ArialMT-6f" x="66.699219"/>
      <use xlink:href="#ArialMT-73" x="122.314453"/>
      <use xlink:href="#ArialMT-69" x="172.314453"/>
      <use xlink:href="#ArialMT-74" x="194.53125"/>
      <use xlink:href="#ArialMT-69" x="222.314453"/>
      <use xlink:href="#ArialMT-6f" x="244.53125"/>
      <use xlink:href="#ArialMT-6e" x="300.146484"/>
     </g>
    </g>
   </g>
   <g id="matplotlib.axis_2">
    <g id="ytick_1">
     <g id="line2d_27"/>
     <g id="text_28">
      <!-- 7.5 -->
      <g style="fill: #262626" transform="translate(21.393906 313.147749) scale(0.1 -0.1)">
       <defs>
        <path id="ArialMT-2e" d="M 581 0 
L 581 641 
L 1222 641 
L 1222 0 
L 581 0 
z
" transform="scale(0.015625)"/>
       </defs>
       <use xlink:href="#ArialMT-37"/>
       <use xlink:href="#ArialMT-2e" x="55.615234"/>
       <use xlink:href="#ArialMT-35" x="83.398438"/>
      </g>
     </g>
    </g>
    <g id="ytick_2">
     <g id="line2d_28"/>
     <g id="text_29">
      <!-- 7.6 -->
      <g style="fill: #262626" transform="translate(21.393906 266.880501) scale(0.1 -0.1)">
       <use xlink:href="#ArialMT-37"/>
       <use xlink:href="#ArialMT-2e" x="55.615234"/>
       <use xlink:href="#ArialMT-36" x="83.398438"/>
      </g>
     </g>
    </g>
    <g id="ytick_3">
     <g id="line2d_29"/>
     <g id="text_30">
      <!-- 7.7 -->
      <g style="fill: #262626" transform="translate(21.393906 220.613254) scale(0.1 -0.1)">
       <use xlink:href="#ArialMT-37"/>
       <use xlink:href="#ArialMT-2e" x="55.615234"/>
       <use xlink:href="#ArialMT-37" x="83.398438"/>
      </g>
     </g>
    </g>
    <g id="ytick_4">
     <g id="line2d_30"/>
     <g id="text_31">
      <!-- 7.8 -->
      <g style="fill: #262626" transform="translate(21.393906 174.346006) scale(0.1 -0.1)">
       <use xlink:href="#ArialMT-37"/>
       <use xlink:href="#ArialMT-2e" x="55.615234"/>
       <use xlink:href="#ArialMT-38" x="83.398438"/>
      </g>
     </g>
    </g>
    <g id="ytick_5">
     <g id="line2d_31"/>
     <g id="text_32">
      <!-- 7.9 -->
      <g style="fill: #262626" transform="translate(21.393906 128.078759) scale(0.1 -0.1)">
       <use xlink:href="#ArialMT-37"/>
       <use xlink:href="#ArialMT-2e" x="55.615234"/>
       <use xlink:href="#ArialMT-39" x="83.398438"/>
      </g>
     </g>
    </g>
    <g id="ytick_6">
     <g id="line2d_32"/>
     <g id="text_33">
      <!-- 8.0 -->
      <g style="fill: #262626" transform="translate(21.393906 81.811511) scale(0.1 -0.1)">
       <use xlink:href="#ArialMT-38"/>
       <use xlink:href="#ArialMT-2e" x="55.615234"/>
       <use xlink:href="#ArialMT-30" x="83.398438"/>
      </g>
     </g>
    </g>
    <g id="ytick_7">
     <g id="line2d_33"/>
     <g id="text_34">
      <!-- 8.1 -->
      <g style="fill: #262626" transform="translate(21.393906 35.544264) scale(0.1 -0.1)">
       <use xlink:href="#ArialMT-38"/>
       <use xlink:href="#ArialMT-2e" x="55.615234"/>
       <use xlink:href="#ArialMT-31" x="83.398438"/>
      </g>
     </g>
    </g>
    <g id="text_35">
     <!-- SantaLucia_dH -->
     <g style="fill: #262626" transform="translate(15.207656 212.004453) rotate(-90) scale(0.11 -0.11)">
      <defs>
       <path id="ArialMT-53" d="M 288 1472 
L 859 1522 
Q 900 1178 1048 958 
Q 1197 738 1509 602 
Q 1822 466 2213 466 
Q 2559 466 2825 569 
Q 3091 672 3220 851 
Q 3350 1031 3350 1244 
Q 3350 1459 3225 1620 
Q 3100 1781 2813 1891 
Q 2628 1963 1997 2114 
Q 1366 2266 1113 2400 
Q 784 2572 623 2826 
Q 463 3081 463 3397 
Q 463 3744 659 4045 
Q 856 4347 1234 4503 
Q 1613 4659 2075 4659 
Q 2584 4659 2973 4495 
Q 3363 4331 3572 4012 
Q 3781 3694 3797 3291 
L 3216 3247 
Q 3169 3681 2898 3903 
Q 2628 4125 2100 4125 
Q 1550 4125 1298 3923 
Q 1047 3722 1047 3438 
Q 1047 3191 1225 3031 
Q 1400 2872 2139 2705 
Q 2878 2538 3153 2413 
Q 3553 2228 3743 1945 
Q 3934 1663 3934 1294 
Q 3934 928 3725 604 
Q 3516 281 3123 101 
Q 2731 -78 2241 -78 
Q 1619 -78 1198 103 
Q 778 284 539 648 
Q 300 1013 288 1472 
z
" transform="scale(0.015625)"/>
       <path id="ArialMT-61" d="M 2588 409 
Q 2275 144 1986 34 
Q 1697 -75 1366 -75 
Q 819 -75 525 192 
Q 231 459 231 875 
Q 231 1119 342 1320 
Q 453 1522 633 1644 
Q 813 1766 1038 1828 
Q 1203 1872 1538 1913 
Q 2219 1994 2541 2106 
Q 2544 2222 2544 2253 
Q 2544 2597 2384 2738 
Q 2169 2928 1744 2928 
Q 1347 2928 1158 2789 
Q 969 2650 878 2297 
L 328 2372 
Q 403 2725 575 2942 
Q 747 3159 1072 3276 
Q 1397 3394 1825 3394 
Q 2250 3394 2515 3294 
Q 2781 3194 2906 3042 
Q 3031 2891 3081 2659 
Q 3109 2516 3109 2141 
L 3109 1391 
Q 3109 606 3145 398 
Q 3181 191 3288 0 
L 2700 0 
Q 2613 175 2588 409 
z
M 2541 1666 
Q 2234 1541 1622 1453 
Q 1275 1403 1131 1340 
Q 988 1278 909 1158 
Q 831 1038 831 891 
Q 831 666 1001 516 
Q 1172 366 1500 366 
Q 1825 366 2078 508 
Q 2331 650 2450 897 
Q 2541 1088 2541 1459 
L 2541 1666 
z
" transform="scale(0.015625)"/>
       <path id="ArialMT-4c" d="M 469 0 
L 469 4581 
L 1075 4581 
L 1075 541 
L 3331 541 
L 3331 0 
L 469 0 
z
" transform="scale(0.015625)"/>
       <path id="ArialMT-75" d="M 2597 0 
L 2597 488 
Q 2209 -75 1544 -75 
Q 1250 -75 995 37 
Q 741 150 617 320 
Q 494 491 444 738 
Q 409 903 409 1263 
L 409 3319 
L 972 3319 
L 972 1478 
Q 972 1038 1006 884 
Q 1059 663 1231 536 
Q 1403 409 1656 409 
Q 1909 409 2131 539 
Q 2353 669 2445 892 
Q 2538 1116 2538 1541 
L 2538 3319 
L 3100 3319 
L 3100 0 
L 2597 0 
z
" transform="scale(0.015625)"/>
       <path id="ArialMT-63" d="M 2588 1216 
L 3141 1144 
Q 3050 572 2676 248 
Q 2303 -75 1759 -75 
Q 1078 -75 664 370 
Q 250 816 250 1647 
Q 250 2184 428 2587 
Q 606 2991 970 3192 
Q 1334 3394 1763 3394 
Q 2303 3394 2647 3120 
Q 2991 2847 3088 2344 
L 2541 2259 
Q 2463 2594 2264 2762 
Q 2066 2931 1784 2931 
Q 1359 2931 1093 2626 
Q 828 2322 828 1663 
Q 828 994 1084 691 
Q 1341 388 1753 388 
Q 2084 388 2306 591 
Q 2528 794 2588 1216 
z
" transform="scale(0.015625)"/>
       <path id="ArialMT-5f" d="M -97 -1272 
L -97 -866 
L 3631 -866 
L 3631 -1272 
L -97 -1272 
z
" transform="scale(0.015625)"/>
       <path id="ArialMT-64" d="M 2575 0 
L 2575 419 
Q 2259 -75 1647 -75 
Q 1250 -75 917 144 
Q 584 363 401 755 
Q 219 1147 219 1656 
Q 219 2153 384 2558 
Q 550 2963 881 3178 
Q 1213 3394 1622 3394 
Q 1922 3394 2156 3267 
Q 2391 3141 2538 2938 
L 2538 4581 
L 3097 4581 
L 3097 0 
L 2575 0 
z
M 797 1656 
Q 797 1019 1065 703 
Q 1334 388 1700 388 
Q 2069 388 2326 689 
Q 2584 991 2584 1609 
Q 2584 2291 2321 2609 
Q 2059 2928 1675 2928 
Q 1300 2928 1048 2622 
Q 797 2316 797 1656 
z
" transform="scale(0.015625)"/>
       <path id="ArialMT-48" d="M 513 0 
L 513 4581 
L 1119 4581 
L 1119 2700 
L 3500 2700 
L 3500 4581 
L 4106 4581 
L 4106 0 
L 3500 0 
L 3500 2159 
L 1119 2159 
L 1119 0 
L 513 0 
z
" transform="scale(0.015625)"/>
      </defs>
      <use xlink:href="#ArialMT-53"/>
      <use xlink:href="#ArialMT-61" x="66.699219"/>
      <use xlink:href="#ArialMT-6e" x="122.314453"/>
      <use xlink:href="#ArialMT-74" x="177.929688"/>
      <use xlink:href="#ArialMT-61" x="205.712891"/>
      <use xlink:href="#ArialMT-4c" x="261.328125"/>
      <use xlink:href="#ArialMT-75" x="316.943359"/>
      <use xlink:href="#ArialMT-63" x="372.558594"/>
      <use xlink:href="#ArialMT-69" x="422.558594"/>
      <use xlink:href="#ArialMT-61" x="444.775391"/>
      <use xlink:href="#ArialMT-5f" x="500.390625"/>
      <use xlink:href="#ArialMT-64" x="556.005859"/>
      <use xlink:href="#ArialMT-48" x="611.621094"/>
     </g>
    </g>
   </g>
   <g id="line2d_34">
    <path d="M 62.584815 212.519291 
L 64.214607 218.020329 
L 65.844399 213.829198 
L 67.474191 216.892275 
L 69.103983 217.162212 
L 70.733775 223.433281 
L 72.363567 225.248965 
L 73.993359 217.335541 
L 75.62315 208.816889 
L 77.252942 214.621961 
L 78.882734 212.24083 
L 80.512526 205.921456 
L 82.142318 214.576498 
L 83.77211 212.823326 
L 85.401902 212.820485 
L 87.031694 208.458867 
L 88.661486 202.764611 
L 90.291278 212.076026 
L 91.921069 207.103497 
L 93.550861 207.751347 
L 95.180653 206.555099 
L 96.810445 215.403358 
L 98.440237 213.155775 
L 100.070029 208.885083 
L 101.699821 212.357329 
L 103.329613 209.532933 
L 104.959405 200.840953 
L 106.589197 206.810829 
L 108.218988 203.84436 
L 109.84878 201.474595 
L 111.478572 207.177375 
L 113.108364 209.163545 
L 114.738156 200.269822 
L 116.367948 206.0067 
L 117.99774 202.838489 
L 119.627532 191.898926 
L 121.257324 207.12907 
L 122.887115 212.453938 
L 124.516907 199.815191 
L 126.146699 201.147829 
L 127.776491 206.313576 
L 129.406283 195.476305 
L 131.036075 204.594502 
L 132.665867 211.223593 
L 134.295659 204.327406 
L 135.925451 198.192726 
L 137.555243 201.843983 
L 139.185034 210.499024 
L 140.814826 205.421362 
L 142.444618 203.668191 
L 144.07441 193.666304 
L 145.704202 193.782804 
L 147.333994 198.724076 
L 148.963786 202.426479 
L 150.593578 202.344077 
L 152.22337 194.518738 
L 153.853161 199.89191 
L 155.482953 201.971848 
L 157.112745 198.442773 
L 158.742537 202.571393 
L 160.372329 201.039854 
L 162.002121 192.160339 
L 163.631913 196.212239 
L 165.261705 201.014281 
L 166.891497 192.006901 
L 168.521289 189.341625 
L 170.15108 196.502066 
L 171.780872 194.802882 
L 173.410664 202.582759 
L 175.040456 191.410197 
L 176.670248 181.843052 
L 178.30004 195.70362 
L 179.929832 185.051043 
L 181.559624 189.117151 
L 183.189416 185.173226 
L 184.819207 186.48029 
L 186.448999 184.766899 
L 188.078791 179.638091 
L 189.708583 179.851199 
L 191.338375 185.420431 
L 192.968167 185.548296 
L 194.597959 189.242175 
L 196.227751 184.332158 
L 197.857543 184.053696 
L 199.487335 189.071688 
L 201.117126 176.393161 
L 202.746918 182.817668 
L 204.37671 185.991562 
L 206.006502 172.437869 
L 207.636294 183.300713 
L 209.266086 184.98569 
L 210.895878 188.219255 
L 212.52567 186.233085 
L 214.155462 179.388044 
L 215.785253 179.45908 
L 217.415045 175.012219 
L 219.044837 178.223051 
L 220.674629 184.678814 
L 222.304421 172.827147 
L 223.934213 173.54035 
L 225.564005 179.535799 
L 227.193797 176.702878 
L 228.823589 186.497339 
L 230.453381 169.906142 
L 232.083172 175.813506 
L 233.712964 163.995937 
L 235.342756 168.192751 
L 236.972548 166.090082 
L 238.60234 167.814839 
L 240.232132 162.677506 
L 241.861924 174.551904 
L 243.491716 167.215294 
L 245.121508 176.324966 
L 246.751299 172.278749 
L 248.381091 159.5576 
L 250.010883 159.801964 
L 251.640675 165.621243 
L 253.270467 148.50722 
L 254.900259 157.258871 
L 256.530051 167.36589 
L 258.159843 157.187835 
L 259.789635 169.789643 
L 261.419427 164.939296 
L 263.049218 152.925667 
L 264.67901 154.951617 
L 266.308802 157.693612 
L 267.938594 154.082135 
L 269.568386 156.079671 
L 271.198178 160.924335 
L 272.82797 145.878884 
L 274.457762 148.100894 
L 276.087554 158.094256 
L 277.717345 155.710283 
L 279.347137 143.918287 
L 280.976929 154.013941 
L 282.606721 149.581287 
L 284.236513 150.94518 
L 285.866305 139.917532 
L 287.496097 139.491316 
L 289.125889 141.065476 
L 290.755681 152.16416 
L 292.385473 153.189922 
L 294.015264 156.755935 
L 295.645056 145.560642 
L 297.274848 144.176858 
L 298.90464 147.100705 
L 300.534432 141.994629 
L 302.164224 145.867518 
L 303.794016 160.276485 
L 305.423808 150.4735 
L 307.0536 157.991964 
L 308.683391 159.827537 
L 310.313183 159.156956 
L 311.942975 151.780565 
L 313.572767 137.542084 
L 315.202559 125.369334 
L 316.832351 120.40533 
L 318.462143 130.287876 
L 320.091935 136.740797 
L 321.721727 136.189557 
L 323.351519 139.138977 
L 324.98131 142.702148 
L 326.611102 127.997671 
L 328.240894 139.411755 
L 329.870686 127.463479 
L 331.500478 128.759178 
L 333.13027 149.17496 
L 336.389854 143.969433 
L 338.019646 151.695322 
L 339.649437 165.649658 
L 341.279229 176.606269 
L 342.909021 184.295219 
L 344.538813 195.857058 
L 346.168605 182.42839 
L 347.798397 173.48068 
L 349.428189 143.23634 
L 351.057981 121.411202 
L 352.687773 114.176883 
L 354.317565 99.583222 
L 355.947356 98.585875 
L 357.577148 102.23429 
L 359.20694 97.571479 
L 362.466524 123.144483 
L 364.096316 122.615974 
L 365.726108 88.890865 
L 367.3559 91.067411 
L 368.985692 139.988569 
L 370.615483 129.503637 
L 372.245275 139.011111 
L 373.875067 133.566903 
L 375.504859 122.320464 
L 377.134651 136.25491 
L 378.764443 143.835885 
L 380.394235 116.989913 
L 382.024027 177.569519 
L 383.653819 147.265509 
L 385.283611 35.795625 
L 386.913402 227.056124 
L 388.543194 312.995625 
L 390.172986 187.528783 
L 391.802778 215.644881 
L 393.43257 141.562729 
L 395.062362 127.810136 
L 396.692154 120.737779 
L 398.321946 108.462737 
L 399.951738 102.245656 
L 401.581529 117.833823 
L 403.211321 111.804276 
L 404.841113 117.407606 
L 406.470905 133.48166 
L 408.100697 78.809418 
L 409.730489 98.884226 
L 411.360281 103.68911 
L 412.990073 110.895014 
L 414.619865 115.870384 
L 416.249657 112.844245 
L 417.879448 116.776805 
L 419.50924 135.922461 
L 421.139032 130.921518 
L 422.768824 133.137845 
L 424.398616 138.408725 
L 426.028408 131.367625 
L 427.6582 116.597794 
L 429.287992 105.749157 
L 430.917784 118.606696 
L 432.547575 113.111341 
L 434.177367 126.471815 
L 435.807159 122.689852 
L 437.436951 103.643647 
L 439.066743 98.111353 
L 440.696535 115.873226 
L 442.326327 115.020792 
L 443.956119 131.504014 
L 445.585911 141.639448 
L 447.215703 144.483734 
L 448.845494 143.878507 
L 450.475286 147.654787 
L 452.105078 135.285977 
L 453.73487 137.584706 
L 455.364662 132.933261 
L 456.994454 142.412321 
L 458.624246 121.493604 
L 460.254038 137.544926 
L 461.88383 144.506466 
L 463.513621 137.328976 
L 465.143413 145.96981 
L 466.773205 144.020579 
L 468.402997 138.766747 
L 468.402997 138.766747 
" clip-path="url(#pce60c26564)" style="fill: none; stroke: #0272a2; stroke-width: 1.75; stroke-linecap: round"/>
   </g>
   <g id="line2d_35">
    <path d="M 62.584815 288.632829 
L 64.214607 296.008524 
L 65.844399 286.453858 
L 67.474191 300.163294 
L 69.103983 290.554573 
L 70.733775 294.267584 
L 72.363567 290.047576 
L 73.993359 285.115534 
L 75.62315 288.522855 
L 77.252942 291.445547 
L 78.882734 287.937571 
L 80.512526 293.712124 
L 82.142318 286.291694 
L 83.77211 292.407351 
L 85.401902 292.042014 
L 87.031694 288.573182 
L 88.661486 297.018791 
L 90.291278 293.551823 
L 91.921069 290.53407 
L 93.550861 292.960947 
L 95.180653 288.079233 
L 96.810445 289.499571 
L 98.440237 302.206195 
L 100.070029 282.517172 
L 101.699821 293.753131 
L 103.329613 285.574069 
L 104.959405 290.88263 
L 106.589197 285.281427 
L 108.218988 290.109086 
L 109.84878 296.403684 
L 111.478572 288.314092 
L 113.108364 295.755025 
L 114.738156 288.356963 
L 116.367948 290.603036 
L 117.99774 292.578835 
L 119.627532 288.550815 
L 121.257324 289.272168 
L 122.887115 293.508952 
L 124.516907 297.106397 
L 126.146699 290.670139 
L 127.776491 289.523803 
L 129.406283 286.623479 
L 131.036075 292.192995 
L 132.665867 285.035384 
L 134.295659 293.844465 
L 135.925451 290.383089 
L 137.555243 291.490282 
L 139.185034 285.672858 
L 140.814826 287.883517 
L 142.444618 289.529394 
L 144.07441 294.014085 
L 147.333994 290.062487 
L 148.963786 289.121187 
L 150.593578 293.231222 
L 152.22337 288.740939 
L 153.853161 290.973964 
L 155.482953 288.332731 
L 157.112745 293.859377 
L 158.742537 291.333709 
L 160.372329 292.459542 
L 162.002121 290.938549 
L 163.631913 292.396167 
L 165.261705 291.766148 
L 166.891497 289.598361 
L 168.521289 296.112906 
L 170.15108 286.975767 
L 171.780872 290.718602 
L 173.410664 289.876091 
L 175.040456 286.517233 
L 176.670248 286.425899 
L 178.30004 297.714049 
L 179.929832 297.516469 
L 181.559624 293.091424 
L 183.189416 289.736294 
L 184.819207 289.402645 
L 186.448999 292.701857 
L 188.078791 289.827628 
L 189.708583 293.894792 
L 191.338375 292.053198 
L 192.968167 291.982368 
L 194.597959 287.771679 
L 196.227751 293.339331 
L 197.857543 293.853785 
L 199.487335 287.499541 
L 201.117126 279.080027 
L 202.746918 293.443713 
L 206.006502 285.734369 
L 207.636294 288.146335 
L 209.266086 289.490251 
L 210.895878 295.676739 
L 212.52567 297.033703 
L 214.155462 289.825764 
L 215.785253 289.009349 
L 217.415045 293.259181 
L 219.044837 289.693423 
L 220.674629 290.036392 
L 222.304421 296.603128 
L 223.934213 292.918076 
L 225.564005 290.31785 
L 227.193797 294.647832 
L 228.823589 297.988051 
L 230.453381 293.031778 
L 232.083172 288.502352 
L 233.712964 291.7531 
L 235.342756 290.178053 
L 236.972548 297.907901 
L 238.60234 284.800525 
L 240.232132 291.393356 
L 241.861924 288.8826 
L 243.491716 289.173378 
L 245.121508 284.640224 
L 246.751299 288.258173 
L 248.381091 294.137107 
L 250.010883 287.322464 
L 251.640675 298.379483 
L 253.270467 291.818339 
L 254.900259 293.00009 
L 256.530051 285.956181 
L 258.159843 294.066276 
L 259.789635 298.344067 
L 261.419427 294.386878 
L 263.049218 285.3914 
L 264.67901 293.993582 
L 266.308802 292.893845 
L 267.938594 293.436257 
L 269.568386 291.986095 
L 271.198178 287.889108 
L 272.82797 288.947839 
L 274.457762 293.01873 
L 276.087554 290.064351 
L 277.717345 290.116542 
L 279.347137 290.979556 
L 280.976929 284.94405 
L 282.606721 293.057873 
L 284.236513 286.233911 
L 285.866305 288.623509 
L 287.496097 293.527591 
L 289.125889 289.287079 
L 290.755681 293.635701 
L 292.385473 291.190184 
L 294.015264 295.520166 
L 295.645056 291.085802 
L 298.90464 296.103586 
L 300.534432 290.159413 
L 302.164224 295.110095 
L 303.794016 293.516408 
L 305.423808 292.198587 
L 307.0536 287.236722 
L 308.683391 289.818308 
L 310.313183 294.038317 
L 311.942975 291.930177 
L 313.572767 287.24045 
L 315.202559 291.477234 
L 316.832351 290.977692 
L 318.462143 293.687892 
L 320.091935 292.80251 
L 321.721727 290.452055 
L 323.351519 286.616023 
L 324.98131 291.074618 
L 326.611102 291.374716 
L 328.240894 291.410131 
L 329.870686 290.664547 
L 331.500478 289.361638 
L 333.13027 289.915234 
L 334.760062 291.283382 
L 336.389854 289.221841 
L 338.019646 288.653333 
L 339.649437 298.856657 
L 341.279229 288.662652 
L 342.909021 293.643157 
L 344.538813 292.878933 
L 346.168605 293.123112 
L 347.798397 293.678572 
L 349.428189 296.317942 
L 351.057981 288.606734 
L 352.687773 291.855618 
L 354.317565 285.180773 
L 355.947356 290.086719 
L 357.577148 283.861088 
L 359.20694 285.396992 
L 360.836732 292.261962 
L 362.466524 296.079354 
L 364.096316 291.055979 
L 365.726108 296.841715 
L 367.3559 293.249861 
L 368.985692 291.072754 
L 370.615483 286.539601 
L 372.245275 296.215424 
L 373.875067 290.912454 
L 375.504859 286.506049 
L 377.134651 288.483712 
L 378.764443 290.045712 
L 380.394235 285.956181 
L 382.024027 291.769876 
L 383.653819 288.99071 
L 385.283611 289.835084 
L 386.913402 292.619842 
L 388.543194 290.493062 
L 390.172986 292.91062 
L 391.802778 296.17628 
L 395.062362 288.541495 
L 396.692154 289.33927 
L 398.321946 295.277851 
L 399.951738 289.041037 
L 401.581529 293.492176 
L 403.211321 293.268501 
L 404.841113 289.218113 
L 406.470905 297.978731 
L 408.100697 293.671116 
L 409.730489 294.513627 
L 411.360281 285.946861 
L 412.990073 295.579813 
L 414.619865 290.804344 
L 416.249657 292.562059 
L 417.879448 293.846329 
L 419.50924 292.131484 
L 421.139032 284.681231 
L 422.768824 291.620759 
L 424.398616 295.933965 
L 426.028408 290.904998 
L 427.6582 286.830378 
L 429.287992 288.701796 
L 430.917784 288.878872 
L 432.547575 294.884555 
L 434.177367 288.479984 
L 435.807159 290.875174 
L 439.066743 292.601203 
L 440.696535 290.856535 
L 442.326327 291.939496 
L 443.956119 290.142638 
L 445.585911 289.486523 
L 447.215703 290.836031 
L 448.845494 292.470725 
L 450.475286 291.652446 
L 452.105078 290.12959 
L 453.73487 291.594664 
L 455.364662 291.316933 
L 456.994454 294.280632 
L 458.624246 287.011183 
L 461.88383 294.465164 
L 463.513621 290.233972 
L 465.143413 287.154708 
L 466.773205 294.379422 
L 468.402997 298.504368 
L 468.402997 298.504368 
" clip-path="url(#pce60c26564)" style="fill: none; stroke-dasharray: 1.75,2.8875; stroke-dashoffset: 0; stroke: #9fc377; stroke-width: 1.75"/>
   </g>
   <g id="patch_3">
    <path d="M 42.293906 326.855625 
L 42.293906 21.935625 
" style="fill: none; stroke: #cccccc; stroke-width: 1.25; stroke-linejoin: miter; stroke-linecap: square"/>
   </g>
   <g id="patch_4">
    <path d="M 488.693906 326.855625 
L 488.693906 21.935625 
" style="fill: none; stroke: #cccccc; stroke-width: 1.25; stroke-linejoin: miter; stroke-linecap: square"/>
   </g>
   <g id="patch_5">
    <path d="M 42.293906 326.855625 
L 488.693906 326.855625 
" style="fill: none; stroke: #cccccc; stroke-width: 1.25; stroke-linejoin: miter; stroke-linecap: square"/>
   </g>
   <g id="patch_6">
    <path d="M 42.293906 21.935625 
L 488.693906 21.935625 
" style="fill: none; stroke: #cccccc; stroke-width: 1.25; stroke-linejoin: miter; stroke-linecap: square"/>
   </g>
   <g id="text_36">
    <!-- "SantaLucia_dH" for dataset Mouse_non_tata -->
    <g style="fill: #262626" transform="translate(143.827031 15.935625) scale(0.12 -0.12)">
     <defs>
      <path id="ArialMT-22" d="M 450 2959 
L 294 3831 
L 294 4581 
L 934 4581 
L 934 3831 
L 794 2959 
L 450 2959 
z
M 1484 2959 
L 1331 3831 
L 1331 4581 
L 1972 4581 
L 1972 3831 
L 1822 2959 
L 1484 2959 
z
" transform="scale(0.015625)"/>
      <path id="ArialMT-20" transform="scale(0.015625)"/>
      <path id="ArialMT-66" d="M 556 0 
L 556 2881 
L 59 2881 
L 59 3319 
L 556 3319 
L 556 3672 
Q 556 4006 616 4169 
Q 697 4388 901 4523 
Q 1106 4659 1475 4659 
Q 1713 4659 2000 4603 
L 1916 4113 
Q 1741 4144 1584 4144 
Q 1328 4144 1222 4034 
Q 1116 3925 1116 3625 
L 1116 3319 
L 1763 3319 
L 1763 2881 
L 1116 2881 
L 1116 0 
L 556 0 
z
" transform="scale(0.015625)"/>
      <path id="ArialMT-72" d="M 416 0 
L 416 3319 
L 922 3319 
L 922 2816 
Q 1116 3169 1280 3281 
Q 1444 3394 1641 3394 
Q 1925 3394 2219 3213 
L 2025 2691 
Q 1819 2813 1613 2813 
Q 1428 2813 1281 2702 
Q 1134 2591 1072 2394 
Q 978 2094 978 1738 
L 978 0 
L 416 0 
z
" transform="scale(0.015625)"/>
      <path id="ArialMT-65" d="M 2694 1069 
L 3275 997 
Q 3138 488 2766 206 
Q 2394 -75 1816 -75 
Q 1088 -75 661 373 
Q 234 822 234 1631 
Q 234 2469 665 2931 
Q 1097 3394 1784 3394 
Q 2450 3394 2872 2941 
Q 3294 2488 3294 1666 
Q 3294 1616 3291 1516 
L 816 1516 
Q 847 969 1125 678 
Q 1403 388 1819 388 
Q 2128 388 2347 550 
Q 2566 713 2694 1069 
z
M 847 1978 
L 2700 1978 
Q 2663 2397 2488 2606 
Q 2219 2931 1791 2931 
Q 1403 2931 1139 2672 
Q 875 2413 847 1978 
z
" transform="scale(0.015625)"/>
      <path id="ArialMT-4d" d="M 475 0 
L 475 4581 
L 1388 4581 
L 2472 1338 
Q 2622 884 2691 659 
Q 2769 909 2934 1394 
L 4031 4581 
L 4847 4581 
L 4847 0 
L 4263 0 
L 4263 3834 
L 2931 0 
L 2384 0 
L 1059 3900 
L 1059 0 
L 475 0 
z
" transform="scale(0.015625)"/>
     </defs>
     <use xlink:href="#ArialMT-22"/>
     <use xlink:href="#ArialMT-53" x="35.498047"/>
     <use xlink:href="#ArialMT-61" x="102.197266"/>
     <use xlink:href="#ArialMT-6e" x="157.8125"/>
     <use xlink:href="#ArialMT-74" x="213.427734"/>
     <use xlink:href="#ArialMT-61" x="241.210938"/>
     <use xlink:href="#ArialMT-4c" x="296.826172"/>
     <use xlink:href="#ArialMT-75" x="352.441406"/>
     <use xlink:href="#ArialMT-63" x="408.056641"/>
     <use xlink:href="#ArialMT-69" x="458.056641"/>
     <use xlink:href="#ArialMT-61" x="480.273438"/>
     <use xlink:href="#ArialMT-5f" x="535.888672"/>
     <use xlink:href="#ArialMT-64" x="591.503906"/>
     <use xlink:href="#ArialMT-48" x="647.119141"/>
     <use xlink:href="#ArialMT-22" x="719.335938"/>
     <use xlink:href="#ArialMT-20" x="754.833984"/>
     <use xlink:href="#ArialMT-66" x="782.617188"/>
     <use xlink:href="#ArialMT-6f" x="810.400391"/>
     <use xlink:href="#ArialMT-72" x="866.015625"/>
     <use xlink:href="#ArialMT-20" x="899.316406"/>
     <use xlink:href="#ArialMT-64" x="927.099609"/>
     <use xlink:href="#ArialMT-61" x="982.714844"/>
     <use xlink:href="#ArialMT-74" x="1038.330078"/>
     <use xlink:href="#ArialMT-61" x="1066.113281"/>
     <use xlink:href="#ArialMT-73" x="1121.728516"/>
     <use xlink:href="#ArialMT-65" x="1171.728516"/>
     <use xlink:href="#ArialMT-74" x="1227.34375"/>
     <use xlink:href="#ArialMT-20" x="1255.126953"/>
     <use xlink:href="#ArialMT-4d" x="1282.910156"/>
     <use xlink:href="#ArialMT-6f" x="1366.210938"/>
     <use xlink:href="#ArialMT-75" x="1421.826172"/>
     <use xlink:href="#ArialMT-73" x="1477.441406"/>
     <use xlink:href="#ArialMT-65" x="1527.441406"/>
     <use xlink:href="#ArialMT-5f" x="1583.056641"/>
     <use xlink:href="#ArialMT-6e" x="1638.671875"/>
     <use xlink:href="#ArialMT-6f" x="1694.287109"/>
     <use xlink:href="#ArialMT-6e" x="1749.902344"/>
     <use xlink:href="#ArialMT-5f" x="1805.517578"/>
     <use xlink:href="#ArialMT-74" x="1861.132812"/>
     <use xlink:href="#ArialMT-61" x="1888.916016"/>
     <use xlink:href="#ArialMT-74" x="1944.53125"/>
     <use xlink:href="#ArialMT-61" x="1972.314453"/>
    </g>
   </g>
   <g id="legend_1">
    <g id="line2d_36">
     <path d="M 51.293906 34.593437 
L 61.293906 34.593437 
L 71.293906 34.593437 
" style="fill: none; stroke: #0272a2; stroke-width: 1.75; stroke-linecap: round"/>
    </g>
    <g id="text_37">
     <!-- Promoter -->
     <g style="fill: #262626" transform="translate(79.293906 38.093437) scale(0.1 -0.1)">
      <defs>
       <path id="ArialMT-6d" d="M 422 0 
L 422 3319 
L 925 3319 
L 925 2853 
Q 1081 3097 1340 3245 
Q 1600 3394 1931 3394 
Q 2300 3394 2536 3241 
Q 2772 3088 2869 2813 
Q 3263 3394 3894 3394 
Q 4388 3394 4653 3120 
Q 4919 2847 4919 2278 
L 4919 0 
L 4359 0 
L 4359 2091 
Q 4359 2428 4304 2576 
Q 4250 2725 4106 2815 
Q 3963 2906 3769 2906 
Q 3419 2906 3187 2673 
Q 2956 2441 2956 1928 
L 2956 0 
L 2394 0 
L 2394 2156 
Q 2394 2531 2256 2718 
Q 2119 2906 1806 2906 
Q 1569 2906 1367 2781 
Q 1166 2656 1075 2415 
Q 984 2175 984 1722 
L 984 0 
L 422 0 
z
" transform="scale(0.015625)"/>
      </defs>
      <use xlink:href="#ArialMT-50"/>
      <use xlink:href="#ArialMT-72" x="66.699219"/>
      <use xlink:href="#ArialMT-6f" x="100"/>
      <use xlink:href="#ArialMT-6d" x="155.615234"/>
      <use xlink:href="#ArialMT-6f" x="238.916016"/>
      <use xlink:href="#ArialMT-74" x="294.53125"/>
      <use xlink:href="#ArialMT-65" x="322.314453"/>
      <use xlink:href="#ArialMT-72" x="377.929688"/>
     </g>
    </g>
    <g id="line2d_37">
     <path d="M 51.293906 48.73875 
L 61.293906 48.73875 
L 71.293906 48.73875 
" style="fill: none; stroke-dasharray: 1.75,2.8875; stroke-dashoffset: 0; stroke: #9fc377; stroke-width: 1.75"/>
    </g>
    <g id="text_38">
     <!-- Non-promoter -->
     <g style="fill: #262626" transform="translate(79.293906 52.23875) scale(0.1 -0.1)">
      <defs>
       <path id="ArialMT-4e" d="M 488 0 
L 488 4581 
L 1109 4581 
L 3516 984 
L 3516 4581 
L 4097 4581 
L 4097 0 
L 3475 0 
L 1069 3600 
L 1069 0 
L 488 0 
z
" transform="scale(0.015625)"/>
       <path id="ArialMT-70" d="M 422 -1272 
L 422 3319 
L 934 3319 
L 934 2888 
Q 1116 3141 1344 3267 
Q 1572 3394 1897 3394 
Q 2322 3394 2647 3175 
Q 2972 2956 3137 2557 
Q 3303 2159 3303 1684 
Q 3303 1175 3120 767 
Q 2938 359 2589 142 
Q 2241 -75 1856 -75 
Q 1575 -75 1351 44 
Q 1128 163 984 344 
L 984 -1272 
L 422 -1272 
z
M 931 1641 
Q 931 1000 1190 694 
Q 1450 388 1819 388 
Q 2194 388 2461 705 
Q 2728 1022 2728 1688 
Q 2728 2322 2467 2637 
Q 2206 2953 1844 2953 
Q 1484 2953 1207 2617 
Q 931 2281 931 1641 
z
" transform="scale(0.015625)"/>
      </defs>
      <use xlink:href="#ArialMT-4e"/>
      <use xlink:href="#ArialMT-6f" x="72.216797"/>
      <use xlink:href="#ArialMT-6e" x="127.832031"/>
      <use xlink:href="#ArialMT-2d" x="183.447266"/>
      <use xlink:href="#ArialMT-70" x="216.748047"/>
      <use xlink:href="#ArialMT-72" x="272.363281"/>
      <use xlink:href="#ArialMT-6f" x="305.664062"/>
      <use xlink:href="#ArialMT-6d" x="361.279297"/>
      <use xlink:href="#ArialMT-6f" x="444.580078"/>
      <use xlink:href="#ArialMT-74" x="500.195312"/>
      <use xlink:href="#ArialMT-65" x="527.978516"/>
      <use xlink:href="#ArialMT-72" x="583.59375"/>
     </g>
    </g>
   </g>
  </g>
 </g>
 <defs>
  <clipPath id="pce60c26564">
   <rect x="42.293906" y="21.935625" width="446.4" height="304.92"/>
  </clipPath>
 </defs>
</svg>
