<?xml version="1.0" encoding="utf-8" standalone="no"?>
<!DOCTYPE svg PUBLIC "-//W3C//DTD SVG 1.1//EN"
  "http://www.w3.org/Graphics/SVG/1.1/DTD/svg11.dtd">
<svg xmlns:xlink="http://www.w3.org/1999/xlink" width="492.981719pt" height="375.733156pt" viewBox="0 0 492.981719 375.733156" xmlns="http://www.w3.org/2000/svg" version="1.1">
 <metadata>
  <rdf:RDF xmlns:dc="http://purl.org/dc/elements/1.1/" xmlns:cc="http://creativecommons.org/ns#" xmlns:rdf="http://www.w3.org/1999/02/22-rdf-syntax-ns#">
   <cc:Work>
    <dc:type rdf:resource="http://purl.org/dc/dcmitype/StillImage"/>
    <dc:date>2023-05-11T16:25:38.069981</dc:date>
    <dc:format>image/svg+xml</dc:format>
    <dc:creator>
     <cc:Agent>
      <dc:title>Matplotlib v3.7.1, https://matplotlib.org/</dc:title>
     </cc:Agent>
    </dc:creator>
   </cc:Work>
  </rdf:RDF>
 </metadata>
 <defs>
  <style type="text/css">*{stroke-linejoin: round; stroke-linecap: butt}</style>
 </defs>
 <g id="figure_1">
  <g id="patch_1">
   <path d="M 0 375.733156 
L 492.981719 375.733156 
L 492.981719 0 
L 0 0 
z
" style="fill: #ffffff"/>
  </g>
  <g id="axes_1">
   <g id="patch_2">
    <path d="M 39.381719 326.855625 
L 485.781719 326.855625 
L 485.781719 21.935625 
L 39.381719 21.935625 
z
" style="fill: #ffffff"/>
   </g>
   <g id="matplotlib.axis_1">
    <g id="xtick_1">
     <g id="line2d_1"/>
     <g id="text_1">
      <!-- -200 -->
      <g style="fill: #262626" transform="translate(54.425122 353.067937) rotate(-45) scale(0.1 -0.1)">
       <defs>
        <path id="ArialMT-2d" d="M 203 1375 
L 203 1941 
L 1931 1941 
L 1931 1375 
L 203 1375 
z
" transform="scale(0.015625)"/>
        <path id="ArialMT-32" d="M 3222 541 
L 3222 0 
L 194 0 
Q 188 203 259 391 
Q 375 700 629 1000 
Q 884 1300 1366 1694 
Q 2113 2306 2375 2664 
Q 2638 3022 2638 3341 
Q 2638 3675 2398 3904 
Q 2159 4134 1775 4134 
Q 1369 4134 1125 3890 
Q 881 3647 878 3216 
L 300 3275 
Q 359 3922 746 4261 
Q 1134 4600 1788 4600 
Q 2447 4600 2831 4234 
Q 3216 3869 3216 3328 
Q 3216 3053 3103 2787 
Q 2991 2522 2730 2228 
Q 2469 1934 1863 1422 
Q 1356 997 1212 845 
Q 1069 694 975 541 
L 3222 541 
z
" transform="scale(0.015625)"/>
        <path id="ArialMT-30" d="M 266 2259 
Q 266 3072 433 3567 
Q 600 4063 929 4331 
Q 1259 4600 1759 4600 
Q 2128 4600 2406 4451 
Q 2684 4303 2865 4023 
Q 3047 3744 3150 3342 
Q 3253 2941 3253 2259 
Q 3253 1453 3087 958 
Q 2922 463 2592 192 
Q 2263 -78 1759 -78 
Q 1097 -78 719 397 
Q 266 969 266 2259 
z
M 844 2259 
Q 844 1131 1108 757 
Q 1372 384 1759 384 
Q 2147 384 2411 759 
Q 2675 1134 2675 2259 
Q 2675 3391 2411 3762 
Q 2147 4134 1753 4134 
Q 1366 4134 1134 3806 
Q 844 3388 844 2259 
z
" transform="scale(0.015625)"/>
       </defs>
       <use xlink:href="#ArialMT-2d"/>
       <use xlink:href="#ArialMT-32" x="33.300781"/>
       <use xlink:href="#ArialMT-30" x="88.916016"/>
       <use xlink:href="#ArialMT-30" x="144.53125"/>
      </g>
     </g>
    </g>
    <g id="xtick_2">
     <g id="line2d_2"/>
     <g id="text_2">
      <!-- -190 -->
      <g style="fill: #262626" transform="translate(70.723041 353.067937) rotate(-45) scale(0.1 -0.1)">
       <defs>
        <path id="ArialMT-31" d="M 2384 0 
L 1822 0 
L 1822 3584 
Q 1619 3391 1289 3197 
Q 959 3003 697 2906 
L 697 3450 
Q 1169 3672 1522 3987 
Q 1875 4303 2022 4600 
L 2384 4600 
L 2384 0 
z
" transform="scale(0.015625)"/>
        <path id="ArialMT-39" d="M 350 1059 
L 891 1109 
Q 959 728 1153 556 
Q 1347 384 1650 384 
Q 1909 384 2104 503 
Q 2300 622 2425 820 
Q 2550 1019 2634 1356 
Q 2719 1694 2719 2044 
Q 2719 2081 2716 2156 
Q 2547 1888 2255 1720 
Q 1963 1553 1622 1553 
Q 1053 1553 659 1965 
Q 266 2378 266 3053 
Q 266 3750 677 4175 
Q 1088 4600 1706 4600 
Q 2153 4600 2523 4359 
Q 2894 4119 3086 3673 
Q 3278 3228 3278 2384 
Q 3278 1506 3087 986 
Q 2897 466 2520 194 
Q 2144 -78 1638 -78 
Q 1100 -78 759 220 
Q 419 519 350 1059 
z
M 2653 3081 
Q 2653 3566 2395 3850 
Q 2138 4134 1775 4134 
Q 1400 4134 1122 3828 
Q 844 3522 844 3034 
Q 844 2597 1108 2323 
Q 1372 2050 1759 2050 
Q 2150 2050 2401 2323 
Q 2653 2597 2653 3081 
z
" transform="scale(0.015625)"/>
       </defs>
       <use xlink:href="#ArialMT-2d"/>
       <use xlink:href="#ArialMT-31" x="33.300781"/>
       <use xlink:href="#ArialMT-39" x="88.916016"/>
       <use xlink:href="#ArialMT-30" x="144.53125"/>
      </g>
     </g>
    </g>
    <g id="xtick_3">
     <g id="line2d_3"/>
     <g id="text_3">
      <!-- -180 -->
      <g style="fill: #262626" transform="translate(87.02096 353.067937) rotate(-45) scale(0.1 -0.1)">
       <defs>
        <path id="ArialMT-38" d="M 1131 2484 
Q 781 2613 612 2850 
Q 444 3088 444 3419 
Q 444 3919 803 4259 
Q 1163 4600 1759 4600 
Q 2359 4600 2725 4251 
Q 3091 3903 3091 3403 
Q 3091 3084 2923 2848 
Q 2756 2613 2416 2484 
Q 2838 2347 3058 2040 
Q 3278 1734 3278 1309 
Q 3278 722 2862 322 
Q 2447 -78 1769 -78 
Q 1091 -78 675 323 
Q 259 725 259 1325 
Q 259 1772 486 2073 
Q 713 2375 1131 2484 
z
M 1019 3438 
Q 1019 3113 1228 2906 
Q 1438 2700 1772 2700 
Q 2097 2700 2305 2904 
Q 2513 3109 2513 3406 
Q 2513 3716 2298 3927 
Q 2084 4138 1766 4138 
Q 1444 4138 1231 3931 
Q 1019 3725 1019 3438 
z
M 838 1322 
Q 838 1081 952 856 
Q 1066 631 1291 507 
Q 1516 384 1775 384 
Q 2178 384 2440 643 
Q 2703 903 2703 1303 
Q 2703 1709 2433 1975 
Q 2163 2241 1756 2241 
Q 1359 2241 1098 1978 
Q 838 1716 838 1322 
z
" transform="scale(0.015625)"/>
       </defs>
       <use xlink:href="#ArialMT-2d"/>
       <use xlink:href="#ArialMT-31" x="33.300781"/>
       <use xlink:href="#ArialMT-38" x="88.916016"/>
       <use xlink:href="#ArialMT-30" x="144.53125"/>
      </g>
     </g>
    </g>
    <g id="xtick_4">
     <g id="line2d_4"/>
     <g id="text_4">
      <!-- -170 -->
      <g style="fill: #262626" transform="translate(103.318879 353.067937) rotate(-45) scale(0.1 -0.1)">
       <defs>
        <path id="ArialMT-37" d="M 303 3981 
L 303 4522 
L 3269 4522 
L 3269 4084 
Q 2831 3619 2401 2847 
Q 1972 2075 1738 1259 
Q 1569 684 1522 0 
L 944 0 
Q 953 541 1156 1306 
Q 1359 2072 1739 2783 
Q 2119 3494 2547 3981 
L 303 3981 
z
" transform="scale(0.015625)"/>
       </defs>
       <use xlink:href="#ArialMT-2d"/>
       <use xlink:href="#ArialMT-31" x="33.300781"/>
       <use xlink:href="#ArialMT-37" x="88.916016"/>
       <use xlink:href="#ArialMT-30" x="144.53125"/>
      </g>
     </g>
    </g>
    <g id="xtick_5">
     <g id="line2d_5"/>
     <g id="text_5">
      <!-- -160 -->
      <g style="fill: #262626" transform="translate(119.616798 353.067937) rotate(-45) scale(0.1 -0.1)">
       <defs>
        <path id="ArialMT-36" d="M 3184 3459 
L 2625 3416 
Q 2550 3747 2413 3897 
Q 2184 4138 1850 4138 
Q 1581 4138 1378 3988 
Q 1113 3794 959 3422 
Q 806 3050 800 2363 
Q 1003 2672 1297 2822 
Q 1591 2972 1913 2972 
Q 2475 2972 2870 2558 
Q 3266 2144 3266 1488 
Q 3266 1056 3080 686 
Q 2894 316 2569 119 
Q 2244 -78 1831 -78 
Q 1128 -78 684 439 
Q 241 956 241 2144 
Q 241 3472 731 4075 
Q 1159 4600 1884 4600 
Q 2425 4600 2770 4297 
Q 3116 3994 3184 3459 
z
M 888 1484 
Q 888 1194 1011 928 
Q 1134 663 1356 523 
Q 1578 384 1822 384 
Q 2178 384 2434 671 
Q 2691 959 2691 1453 
Q 2691 1928 2437 2201 
Q 2184 2475 1800 2475 
Q 1419 2475 1153 2201 
Q 888 1928 888 1484 
z
" transform="scale(0.015625)"/>
       </defs>
       <use xlink:href="#ArialMT-2d"/>
       <use xlink:href="#ArialMT-31" x="33.300781"/>
       <use xlink:href="#ArialMT-36" x="88.916016"/>
       <use xlink:href="#ArialMT-30" x="144.53125"/>
      </g>
     </g>
    </g>
    <g id="xtick_6">
     <g id="line2d_6"/>
     <g id="text_6">
      <!-- -150 -->
      <g style="fill: #262626" transform="translate(135.914717 353.067937) rotate(-45) scale(0.1 -0.1)">
       <defs>
        <path id="ArialMT-35" d="M 266 1200 
L 856 1250 
Q 922 819 1161 601 
Q 1400 384 1738 384 
Q 2144 384 2425 690 
Q 2706 997 2706 1503 
Q 2706 1984 2436 2262 
Q 2166 2541 1728 2541 
Q 1456 2541 1237 2417 
Q 1019 2294 894 2097 
L 366 2166 
L 809 4519 
L 3088 4519 
L 3088 3981 
L 1259 3981 
L 1013 2750 
Q 1425 3038 1878 3038 
Q 2478 3038 2890 2622 
Q 3303 2206 3303 1553 
Q 3303 931 2941 478 
Q 2500 -78 1738 -78 
Q 1113 -78 717 272 
Q 322 622 266 1200 
z
" transform="scale(0.015625)"/>
       </defs>
       <use xlink:href="#ArialMT-2d"/>
       <use xlink:href="#ArialMT-31" x="33.300781"/>
       <use xlink:href="#ArialMT-35" x="88.916016"/>
       <use xlink:href="#ArialMT-30" x="144.53125"/>
      </g>
     </g>
    </g>
    <g id="xtick_7">
     <g id="line2d_7"/>
     <g id="text_7">
      <!-- -140 -->
      <g style="fill: #262626" transform="translate(152.212636 353.067937) rotate(-45) scale(0.1 -0.1)">
       <defs>
        <path id="ArialMT-34" d="M 2069 0 
L 2069 1097 
L 81 1097 
L 81 1613 
L 2172 4581 
L 2631 4581 
L 2631 1613 
L 3250 1613 
L 3250 1097 
L 2631 1097 
L 2631 0 
L 2069 0 
z
M 2069 1613 
L 2069 3678 
L 634 1613 
L 2069 1613 
z
" transform="scale(0.015625)"/>
       </defs>
       <use xlink:href="#ArialMT-2d"/>
       <use xlink:href="#ArialMT-31" x="33.300781"/>
       <use xlink:href="#ArialMT-34" x="88.916016"/>
       <use xlink:href="#ArialMT-30" x="144.53125"/>
      </g>
     </g>
    </g>
    <g id="xtick_8">
     <g id="line2d_8"/>
     <g id="text_8">
      <!-- -130 -->
      <g style="fill: #262626" transform="translate(168.510555 353.067937) rotate(-45) scale(0.1 -0.1)">
       <defs>
        <path id="ArialMT-33" d="M 269 1209 
L 831 1284 
Q 928 806 1161 595 
Q 1394 384 1728 384 
Q 2125 384 2398 659 
Q 2672 934 2672 1341 
Q 2672 1728 2419 1979 
Q 2166 2231 1775 2231 
Q 1616 2231 1378 2169 
L 1441 2663 
Q 1497 2656 1531 2656 
Q 1891 2656 2178 2843 
Q 2466 3031 2466 3422 
Q 2466 3731 2256 3934 
Q 2047 4138 1716 4138 
Q 1388 4138 1169 3931 
Q 950 3725 888 3313 
L 325 3413 
Q 428 3978 793 4289 
Q 1159 4600 1703 4600 
Q 2078 4600 2393 4439 
Q 2709 4278 2876 4000 
Q 3044 3722 3044 3409 
Q 3044 3113 2884 2869 
Q 2725 2625 2413 2481 
Q 2819 2388 3044 2092 
Q 3269 1797 3269 1353 
Q 3269 753 2831 336 
Q 2394 -81 1725 -81 
Q 1122 -81 723 278 
Q 325 638 269 1209 
z
" transform="scale(0.015625)"/>
       </defs>
       <use xlink:href="#ArialMT-2d"/>
       <use xlink:href="#ArialMT-31" x="33.300781"/>
       <use xlink:href="#ArialMT-33" x="88.916016"/>
       <use xlink:href="#ArialMT-30" x="144.53125"/>
      </g>
     </g>
    </g>
    <g id="xtick_9">
     <g id="line2d_9"/>
     <g id="text_9">
      <!-- -120 -->
      <g style="fill: #262626" transform="translate(184.808474 353.067937) rotate(-45) scale(0.1 -0.1)">
       <use xlink:href="#ArialMT-2d"/>
       <use xlink:href="#ArialMT-31" x="33.300781"/>
       <use xlink:href="#ArialMT-32" x="88.916016"/>
       <use xlink:href="#ArialMT-30" x="144.53125"/>
      </g>
     </g>
    </g>
    <g id="xtick_10">
     <g id="line2d_10"/>
     <g id="text_10">
      <!-- -110 -->
      <g style="fill: #262626" transform="translate(201.367138 352.546446) rotate(-45) scale(0.1 -0.1)">
       <use xlink:href="#ArialMT-2d"/>
       <use xlink:href="#ArialMT-31" x="33.300781"/>
       <use xlink:href="#ArialMT-31" x="81.541016"/>
       <use xlink:href="#ArialMT-30" x="137.15625"/>
      </g>
     </g>
    </g>
    <g id="xtick_11">
     <g id="line2d_11"/>
     <g id="text_11">
      <!-- -100 -->
      <g style="fill: #262626" transform="translate(217.404312 353.067937) rotate(-45) scale(0.1 -0.1)">
       <use xlink:href="#ArialMT-2d"/>
       <use xlink:href="#ArialMT-31" x="33.300781"/>
       <use xlink:href="#ArialMT-30" x="88.916016"/>
       <use xlink:href="#ArialMT-30" x="144.53125"/>
      </g>
     </g>
    </g>
    <g id="xtick_12">
     <g id="line2d_12"/>
     <g id="text_12">
      <!-- -90 -->
      <g style="fill: #262626" transform="translate(235.668319 349.135761) rotate(-45) scale(0.1 -0.1)">
       <use xlink:href="#ArialMT-2d"/>
       <use xlink:href="#ArialMT-39" x="33.300781"/>
       <use xlink:href="#ArialMT-30" x="88.916016"/>
      </g>
     </g>
    </g>
    <g id="xtick_13">
     <g id="line2d_13"/>
     <g id="text_13">
      <!-- -80 -->
      <g style="fill: #262626" transform="translate(251.966238 349.135761) rotate(-45) scale(0.1 -0.1)">
       <use xlink:href="#ArialMT-2d"/>
       <use xlink:href="#ArialMT-38" x="33.300781"/>
       <use xlink:href="#ArialMT-30" x="88.916016"/>
      </g>
     </g>
    </g>
    <g id="xtick_14">
     <g id="line2d_14"/>
     <g id="text_14">
      <!-- -70 -->
      <g style="fill: #262626" transform="translate(268.264157 349.135761) rotate(-45) scale(0.1 -0.1)">
       <use xlink:href="#ArialMT-2d"/>
       <use xlink:href="#ArialMT-37" x="33.300781"/>
       <use xlink:href="#ArialMT-30" x="88.916016"/>
      </g>
     </g>
    </g>
    <g id="xtick_15">
     <g id="line2d_15"/>
     <g id="text_15">
      <!-- -60 -->
      <g style="fill: #262626" transform="translate(284.562076 349.135761) rotate(-45) scale(0.1 -0.1)">
       <use xlink:href="#ArialMT-2d"/>
       <use xlink:href="#ArialMT-36" x="33.300781"/>
       <use xlink:href="#ArialMT-30" x="88.916016"/>
      </g>
     </g>
    </g>
    <g id="xtick_16">
     <g id="line2d_16"/>
     <g id="text_16">
      <!-- -50 -->
      <g style="fill: #262626" transform="translate(300.859995 349.135761) rotate(-45) scale(0.1 -0.1)">
       <use xlink:href="#ArialMT-2d"/>
       <use xlink:href="#ArialMT-35" x="33.300781"/>
       <use xlink:href="#ArialMT-30" x="88.916016"/>
      </g>
     </g>
    </g>
    <g id="xtick_17">
     <g id="line2d_17"/>
     <g id="text_17">
      <!-- -40 -->
      <g style="fill: #262626" transform="translate(317.157914 349.135761) rotate(-45) scale(0.1 -0.1)">
       <use xlink:href="#ArialMT-2d"/>
       <use xlink:href="#ArialMT-34" x="33.300781"/>
       <use xlink:href="#ArialMT-30" x="88.916016"/>
      </g>
     </g>
    </g>
    <g id="xtick_18">
     <g id="line2d_18"/>
     <g id="text_18">
      <!-- -30 -->
      <g style="fill: #262626" transform="translate(333.455833 349.135761) rotate(-45) scale(0.1 -0.1)">
       <use xlink:href="#ArialMT-2d"/>
       <use xlink:href="#ArialMT-33" x="33.300781"/>
       <use xlink:href="#ArialMT-30" x="88.916016"/>
      </g>
     </g>
    </g>
    <g id="xtick_19">
     <g id="line2d_19"/>
     <g id="text_19">
      <!-- -20 -->
      <g style="fill: #262626" transform="translate(349.753752 349.135761) rotate(-45) scale(0.1 -0.1)">
       <use xlink:href="#ArialMT-2d"/>
       <use xlink:href="#ArialMT-32" x="33.300781"/>
       <use xlink:href="#ArialMT-30" x="88.916016"/>
      </g>
     </g>
    </g>
    <g id="xtick_20">
     <g id="line2d_20"/>
     <g id="text_20">
      <!-- -10 -->
      <g style="fill: #262626" transform="translate(366.05167 349.135761) rotate(-45) scale(0.1 -0.1)">
       <use xlink:href="#ArialMT-2d"/>
       <use xlink:href="#ArialMT-31" x="33.300781"/>
       <use xlink:href="#ArialMT-30" x="88.916016"/>
      </g>
     </g>
    </g>
    <g id="xtick_21">
     <g id="line2d_21"/>
     <g id="text_21">
      <!-- 0 -->
      <g style="fill: #262626" transform="translate(385.4929 342.849139) rotate(-45) scale(0.1 -0.1)">
       <use xlink:href="#ArialMT-30"/>
      </g>
     </g>
    </g>
    <g id="xtick_22">
     <g id="line2d_22"/>
     <g id="text_22">
      <!-- 10 -->
      <g style="fill: #262626" transform="translate(399.824731 346.781316) rotate(-45) scale(0.1 -0.1)">
       <use xlink:href="#ArialMT-31"/>
       <use xlink:href="#ArialMT-30" x="55.615234"/>
      </g>
     </g>
    </g>
    <g id="xtick_23">
     <g id="line2d_23"/>
     <g id="text_23">
      <!-- 20 -->
      <g style="fill: #262626" transform="translate(416.12265 346.781316) rotate(-45) scale(0.1 -0.1)">
       <use xlink:href="#ArialMT-32"/>
       <use xlink:href="#ArialMT-30" x="55.615234"/>
      </g>
     </g>
    </g>
    <g id="xtick_24">
     <g id="line2d_24"/>
     <g id="text_24">
      <!-- 30 -->
      <g style="fill: #262626" transform="translate(432.420569 346.781316) rotate(-45) scale(0.1 -0.1)">
       <use xlink:href="#ArialMT-33"/>
       <use xlink:href="#ArialMT-30" x="55.615234"/>
      </g>
     </g>
    </g>
    <g id="xtick_25">
     <g id="line2d_25"/>
     <g id="text_25">
      <!-- 40 -->
      <g style="fill: #262626" transform="translate(448.718488 346.781316) rotate(-45) scale(0.1 -0.1)">
       <use xlink:href="#ArialMT-34"/>
       <use xlink:href="#ArialMT-30" x="55.615234"/>
      </g>
     </g>
    </g>
    <g id="xtick_26">
     <g id="line2d_26"/>
     <g id="text_26">
      <!-- 50 -->
      <g style="fill: #262626" transform="translate(465.016406 346.781316) rotate(-45) scale(0.1 -0.1)">
       <use xlink:href="#ArialMT-35"/>
       <use xlink:href="#ArialMT-30" x="55.615234"/>
      </g>
     </g>
    </g>
    <g id="text_27">
     <!-- Position -->
     <g style="fill: #262626" transform="translate(243.015469 366.346906) scale(0.11 -0.11)">
      <defs>
       <path id="ArialMT-50" d="M 494 0 
L 494 4581 
L 2222 4581 
Q 2678 4581 2919 4538 
Q 3256 4481 3484 4323 
Q 3713 4166 3852 3881 
Q 3991 3597 3991 3256 
Q 3991 2672 3619 2267 
Q 3247 1863 2275 1863 
L 1100 1863 
L 1100 0 
L 494 0 
z
M 1100 2403 
L 2284 2403 
Q 2872 2403 3119 2622 
Q 3366 2841 3366 3238 
Q 3366 3525 3220 3729 
Q 3075 3934 2838 4000 
Q 2684 4041 2272 4041 
L 1100 4041 
L 1100 2403 
z
" transform="scale(0.015625)"/>
       <path id="ArialMT-6f" d="M 213 1659 
Q 213 2581 725 3025 
Q 1153 3394 1769 3394 
Q 2453 3394 2887 2945 
Q 3322 2497 3322 1706 
Q 3322 1066 3130 698 
Q 2938 331 2570 128 
Q 2203 -75 1769 -75 
Q 1072 -75 642 372 
Q 213 819 213 1659 
z
M 791 1659 
Q 791 1022 1069 705 
Q 1347 388 1769 388 
Q 2188 388 2466 706 
Q 2744 1025 2744 1678 
Q 2744 2294 2464 2611 
Q 2184 2928 1769 2928 
Q 1347 2928 1069 2612 
Q 791 2297 791 1659 
z
" transform="scale(0.015625)"/>
       <path id="ArialMT-73" d="M 197 991 
L 753 1078 
Q 800 744 1014 566 
Q 1228 388 1613 388 
Q 2000 388 2187 545 
Q 2375 703 2375 916 
Q 2375 1106 2209 1216 
Q 2094 1291 1634 1406 
Q 1016 1563 777 1677 
Q 538 1791 414 1992 
Q 291 2194 291 2438 
Q 291 2659 392 2848 
Q 494 3038 669 3163 
Q 800 3259 1026 3326 
Q 1253 3394 1513 3394 
Q 1903 3394 2198 3281 
Q 2494 3169 2634 2976 
Q 2775 2784 2828 2463 
L 2278 2388 
Q 2241 2644 2061 2787 
Q 1881 2931 1553 2931 
Q 1166 2931 1000 2803 
Q 834 2675 834 2503 
Q 834 2394 903 2306 
Q 972 2216 1119 2156 
Q 1203 2125 1616 2013 
Q 2213 1853 2448 1751 
Q 2684 1650 2818 1456 
Q 2953 1263 2953 975 
Q 2953 694 2789 445 
Q 2625 197 2315 61 
Q 2006 -75 1616 -75 
Q 969 -75 630 194 
Q 291 463 197 991 
z
" transform="scale(0.015625)"/>
       <path id="ArialMT-69" d="M 425 3934 
L 425 4581 
L 988 4581 
L 988 3934 
L 425 3934 
z
M 425 0 
L 425 3319 
L 988 3319 
L 988 0 
L 425 0 
z
" transform="scale(0.015625)"/>
       <path id="ArialMT-74" d="M 1650 503 
L 1731 6 
Q 1494 -44 1306 -44 
Q 1000 -44 831 53 
Q 663 150 594 308 
Q 525 466 525 972 
L 525 2881 
L 113 2881 
L 113 3319 
L 525 3319 
L 525 4141 
L 1084 4478 
L 1084 3319 
L 1650 3319 
L 1650 2881 
L 1084 2881 
L 1084 941 
Q 1084 700 1114 631 
Q 1144 563 1211 522 
Q 1278 481 1403 481 
Q 1497 481 1650 503 
z
" transform="scale(0.015625)"/>
       <path id="ArialMT-6e" d="M 422 0 
L 422 3319 
L 928 3319 
L 928 2847 
Q 1294 3394 1984 3394 
Q 2284 3394 2536 3286 
Q 2788 3178 2913 3003 
Q 3038 2828 3088 2588 
Q 3119 2431 3119 2041 
L 3119 0 
L 2556 0 
L 2556 2019 
Q 2556 2363 2490 2533 
Q 2425 2703 2258 2804 
Q 2091 2906 1866 2906 
Q 1506 2906 1245 2678 
Q 984 2450 984 1813 
L 984 0 
L 422 0 
z
" transform="scale(0.015625)"/>
      </defs>
      <use xlink:href="#ArialMT-50"/>
      <use xlink:href="#ArialMT-6f" x="66.699219"/>
      <use xlink:href="#ArialMT-73" x="122.314453"/>
      <use xlink:href="#ArialMT-69" x="172.314453"/>
      <use xlink:href="#ArialMT-74" x="194.53125"/>
      <use xlink:href="#ArialMT-69" x="222.314453"/>
      <use xlink:href="#ArialMT-6f" x="244.53125"/>
      <use xlink:href="#ArialMT-6e" x="300.146484"/>
     </g>
    </g>
   </g>
   <g id="matplotlib.axis_2">
    <g id="ytick_1">
     <g id="line2d_27"/>
     <g id="text_28">
      <!-- 75 -->
      <g style="fill: #262626" transform="translate(21.259844 282.399254) scale(0.1 -0.1)">
       <use xlink:href="#ArialMT-37"/>
       <use xlink:href="#ArialMT-35" x="55.615234"/>
      </g>
     </g>
    </g>
    <g id="ytick_2">
     <g id="line2d_28"/>
     <g id="text_29">
      <!-- 80 -->
      <g style="fill: #262626" transform="translate(21.259844 227.59377) scale(0.1 -0.1)">
       <use xlink:href="#ArialMT-38"/>
       <use xlink:href="#ArialMT-30" x="55.615234"/>
      </g>
     </g>
    </g>
    <g id="ytick_3">
     <g id="line2d_29"/>
     <g id="text_30">
      <!-- 85 -->
      <g style="fill: #262626" transform="translate(21.259844 172.788286) scale(0.1 -0.1)">
       <use xlink:href="#ArialMT-38"/>
       <use xlink:href="#ArialMT-35" x="55.615234"/>
      </g>
     </g>
    </g>
    <g id="ytick_4">
     <g id="line2d_30"/>
     <g id="text_31">
      <!-- 90 -->
      <g style="fill: #262626" transform="translate(21.259844 117.982802) scale(0.1 -0.1)">
       <use xlink:href="#ArialMT-39"/>
       <use xlink:href="#ArialMT-30" x="55.615234"/>
      </g>
     </g>
    </g>
    <g id="ytick_5">
     <g id="line2d_31"/>
     <g id="text_32">
      <!-- 95 -->
      <g style="fill: #262626" transform="translate(21.259844 63.177317) scale(0.1 -0.1)">
       <use xlink:href="#ArialMT-39"/>
       <use xlink:href="#ArialMT-35" x="55.615234"/>
      </g>
     </g>
    </g>
    <g id="text_33">
     <!-- DNA denaturation -->
     <g style="fill: #262626" transform="translate(15.073594 217.81125) rotate(-90) scale(0.11 -0.11)">
      <defs>
       <path id="ArialMT-44" d="M 494 0 
L 494 4581 
L 2072 4581 
Q 2606 4581 2888 4516 
Q 3281 4425 3559 4188 
Q 3922 3881 4101 3404 
Q 4281 2928 4281 2316 
Q 4281 1794 4159 1391 
Q 4038 988 3847 723 
Q 3656 459 3429 307 
Q 3203 156 2883 78 
Q 2563 0 2147 0 
L 494 0 
z
M 1100 541 
L 2078 541 
Q 2531 541 2789 625 
Q 3047 709 3200 863 
Q 3416 1078 3536 1442 
Q 3656 1806 3656 2325 
Q 3656 3044 3420 3430 
Q 3184 3816 2847 3947 
Q 2603 4041 2063 4041 
L 1100 4041 
L 1100 541 
z
" transform="scale(0.015625)"/>
       <path id="ArialMT-4e" d="M 488 0 
L 488 4581 
L 1109 4581 
L 3516 984 
L 3516 4581 
L 4097 4581 
L 4097 0 
L 3475 0 
L 1069 3600 
L 1069 0 
L 488 0 
z
" transform="scale(0.015625)"/>
       <path id="ArialMT-41" d="M -9 0 
L 1750 4581 
L 2403 4581 
L 4278 0 
L 3588 0 
L 3053 1388 
L 1138 1388 
L 634 0 
L -9 0 
z
M 1313 1881 
L 2866 1881 
L 2388 3150 
Q 2169 3728 2063 4100 
Q 1975 3659 1816 3225 
L 1313 1881 
z
" transform="scale(0.015625)"/>
       <path id="ArialMT-20" transform="scale(0.015625)"/>
       <path id="ArialMT-64" d="M 2575 0 
L 2575 419 
Q 2259 -75 1647 -75 
Q 1250 -75 917 144 
Q 584 363 401 755 
Q 219 1147 219 1656 
Q 219 2153 384 2558 
Q 550 2963 881 3178 
Q 1213 3394 1622 3394 
Q 1922 3394 2156 3267 
Q 2391 3141 2538 2938 
L 2538 4581 
L 3097 4581 
L 3097 0 
L 2575 0 
z
M 797 1656 
Q 797 1019 1065 703 
Q 1334 388 1700 388 
Q 2069 388 2326 689 
Q 2584 991 2584 1609 
Q 2584 2291 2321 2609 
Q 2059 2928 1675 2928 
Q 1300 2928 1048 2622 
Q 797 2316 797 1656 
z
" transform="scale(0.015625)"/>
       <path id="ArialMT-65" d="M 2694 1069 
L 3275 997 
Q 3138 488 2766 206 
Q 2394 -75 1816 -75 
Q 1088 -75 661 373 
Q 234 822 234 1631 
Q 234 2469 665 2931 
Q 1097 3394 1784 3394 
Q 2450 3394 2872 2941 
Q 3294 2488 3294 1666 
Q 3294 1616 3291 1516 
L 816 1516 
Q 847 969 1125 678 
Q 1403 388 1819 388 
Q 2128 388 2347 550 
Q 2566 713 2694 1069 
z
M 847 1978 
L 2700 1978 
Q 2663 2397 2488 2606 
Q 2219 2931 1791 2931 
Q 1403 2931 1139 2672 
Q 875 2413 847 1978 
z
" transform="scale(0.015625)"/>
       <path id="ArialMT-61" d="M 2588 409 
Q 2275 144 1986 34 
Q 1697 -75 1366 -75 
Q 819 -75 525 192 
Q 231 459 231 875 
Q 231 1119 342 1320 
Q 453 1522 633 1644 
Q 813 1766 1038 1828 
Q 1203 1872 1538 1913 
Q 2219 1994 2541 2106 
Q 2544 2222 2544 2253 
Q 2544 2597 2384 2738 
Q 2169 2928 1744 2928 
Q 1347 2928 1158 2789 
Q 969 2650 878 2297 
L 328 2372 
Q 403 2725 575 2942 
Q 747 3159 1072 3276 
Q 1397 3394 1825 3394 
Q 2250 3394 2515 3294 
Q 2781 3194 2906 3042 
Q 3031 2891 3081 2659 
Q 3109 2516 3109 2141 
L 3109 1391 
Q 3109 606 3145 398 
Q 3181 191 3288 0 
L 2700 0 
Q 2613 175 2588 409 
z
M 2541 1666 
Q 2234 1541 1622 1453 
Q 1275 1403 1131 1340 
Q 988 1278 909 1158 
Q 831 1038 831 891 
Q 831 666 1001 516 
Q 1172 366 1500 366 
Q 1825 366 2078 508 
Q 2331 650 2450 897 
Q 2541 1088 2541 1459 
L 2541 1666 
z
" transform="scale(0.015625)"/>
       <path id="ArialMT-75" d="M 2597 0 
L 2597 488 
Q 2209 -75 1544 -75 
Q 1250 -75 995 37 
Q 741 150 617 320 
Q 494 491 444 738 
Q 409 903 409 1263 
L 409 3319 
L 972 3319 
L 972 1478 
Q 972 1038 1006 884 
Q 1059 663 1231 536 
Q 1403 409 1656 409 
Q 1909 409 2131 539 
Q 2353 669 2445 892 
Q 2538 1116 2538 1541 
L 2538 3319 
L 3100 3319 
L 3100 0 
L 2597 0 
z
" transform="scale(0.015625)"/>
       <path id="ArialMT-72" d="M 416 0 
L 416 3319 
L 922 3319 
L 922 2816 
Q 1116 3169 1280 3281 
Q 1444 3394 1641 3394 
Q 1925 3394 2219 3213 
L 2025 2691 
Q 1819 2813 1613 2813 
Q 1428 2813 1281 2702 
Q 1134 2591 1072 2394 
Q 978 2094 978 1738 
L 978 0 
L 416 0 
z
" transform="scale(0.015625)"/>
      </defs>
      <use xlink:href="#ArialMT-44"/>
      <use xlink:href="#ArialMT-4e" x="72.216797"/>
      <use xlink:href="#ArialMT-41" x="144.433594"/>
      <use xlink:href="#ArialMT-20" x="205.632812"/>
      <use xlink:href="#ArialMT-64" x="233.416016"/>
      <use xlink:href="#ArialMT-65" x="289.03125"/>
      <use xlink:href="#ArialMT-6e" x="344.646484"/>
      <use xlink:href="#ArialMT-61" x="400.261719"/>
      <use xlink:href="#ArialMT-74" x="455.876953"/>
      <use xlink:href="#ArialMT-75" x="483.660156"/>
      <use xlink:href="#ArialMT-72" x="539.275391"/>
      <use xlink:href="#ArialMT-61" x="572.576172"/>
      <use xlink:href="#ArialMT-74" x="628.191406"/>
      <use xlink:href="#ArialMT-69" x="655.974609"/>
      <use xlink:href="#ArialMT-6f" x="678.191406"/>
      <use xlink:href="#ArialMT-6e" x="733.806641"/>
     </g>
    </g>
   </g>
   <g id="line2d_32">
    <path d="M 59.672628 149.838127 
L 61.30242 148.93269 
L 64.562004 143.800113 
L 66.191795 142.533067 
L 67.821587 147.423144 
L 69.451379 147.81648 
L 71.081171 147.96535 
L 72.710963 143.803822 
L 74.340755 143.697826 
L 75.970547 143.226848 
L 77.600339 144.685825 
L 79.230131 145.818858 
L 80.859922 145.06903 
L 82.489714 142.897019 
L 84.119506 143.042906 
L 85.749298 139.287073 
L 87.37909 142.732255 
L 89.008882 140.515163 
L 90.638674 141.180785 
L 92.268466 142.09152 
L 93.898258 144.062403 
L 95.52805 143.72902 
L 97.157841 139.634425 
L 98.787633 143.386529 
L 100.417425 142.410262 
L 102.047217 139.476009 
L 103.677009 143.335772 
L 105.306801 137.929877 
L 106.936593 138.208492 
L 108.566385 137.853844 
L 110.196177 141.609913 
L 111.825968 135.214806 
L 113.45576 138.599876 
L 115.085552 138.048058 
L 116.715344 137.877647 
L 118.345136 136.81228 
L 119.974928 141.161694 
L 121.60472 136.788827 
L 123.234512 135.635506 
L 124.864304 138.850763 
L 126.494096 134.70216 
L 128.123887 139.025166 
L 129.753679 138.448791 
L 131.383471 140.848445 
L 133.013263 137.068701 
L 134.643055 135.776089 
L 136.272847 137.853029 
L 137.902639 137.425834 
L 139.532431 133.065891 
L 141.162223 135.69574 
L 142.792014 133.347246 
L 144.421806 135.632968 
L 146.051598 137.53774 
L 147.68139 133.199339 
L 149.311182 132.542555 
L 150.940974 132.415758 
L 152.570766 130.267012 
L 154.200558 133.383826 
L 155.83035 134.300632 
L 157.460142 135.620319 
L 159.089933 130.264494 
L 160.719725 129.685225 
L 162.349517 129.658143 
L 163.979309 131.142977 
L 165.609101 129.18728 
L 167.238893 128.903165 
L 168.868685 132.621147 
L 170.498477 130.041065 
L 172.128269 128.90083 
L 173.75806 129.021494 
L 175.387852 129.949737 
L 177.017644 124.332651 
L 178.647436 128.376066 
L 180.277228 126.841095 
L 181.90702 128.394814 
L 183.536812 125.797903 
L 185.166604 124.6707 
L 186.796396 127.296213 
L 188.426188 125.183313 
L 190.055979 127.381402 
L 191.685771 128.69155 
L 193.315563 124.315438 
L 194.945355 125.850726 
L 196.575147 123.61772 
L 198.204939 124.618557 
L 199.834731 128.373111 
L 201.464523 124.377443 
L 203.094315 123.714224 
L 204.724106 125.850362 
L 206.353898 122.160371 
L 207.98369 123.811462 
L 209.613482 123.323359 
L 211.243274 120.208053 
L 212.873066 119.118076 
L 214.502858 121.480302 
L 216.13265 120.866352 
L 217.762442 122.886262 
L 219.392234 119.148631 
L 221.022025 120.174025 
L 222.651817 121.782693 
L 224.281609 118.846704 
L 225.911401 124.570412 
L 227.541193 118.539163 
L 229.170985 121.078936 
L 230.800777 116.921064 
L 232.430569 114.695536 
L 234.060361 118.369035 
L 235.690152 118.214672 
L 237.319944 114.889205 
L 238.949736 118.583336 
L 240.579528 117.092 
L 242.20932 115.964426 
L 243.839112 114.518999 
L 245.468904 114.152725 
L 247.098696 113.458022 
L 248.728488 116.357654 
L 250.35828 110.086012 
L 251.988071 114.738598 
L 253.617863 114.113177 
L 255.247655 113.913436 
L 256.877447 112.355511 
L 258.507239 113.135288 
L 260.137031 110.638577 
L 261.766823 110.684325 
L 263.396615 107.845655 
L 265.026407 109.250739 
L 266.656198 109.026072 
L 268.28599 114.851319 
L 269.915782 107.981088 
L 271.545574 110.094191 
L 273.175366 111.562815 
L 274.805158 111.38199 
L 276.43495 107.988722 
L 278.064742 109.724814 
L 279.694534 107.819462 
L 281.324326 106.219329 
L 282.954117 108.056664 
L 284.583909 104.580429 
L 286.213701 110.949141 
L 287.843493 109.04251 
L 289.473285 106.702633 
L 291.103077 109.428138 
L 292.732869 105.581899 
L 295.992453 104.423919 
L 297.622244 100.631109 
L 299.252036 104.481609 
L 300.881828 107.452724 
L 302.51162 107.19466 
L 304.141412 107.852393 
L 305.771204 106.392433 
L 307.400996 102.325107 
L 309.030788 96.501859 
L 310.66058 94.515021 
L 312.290372 95.719106 
L 313.920163 92.304983 
L 315.549955 96.855309 
L 317.179747 94.43783 
L 318.809539 96.075014 
L 320.439331 98.232673 
L 322.069123 99.871257 
L 323.698915 97.453434 
L 325.328707 107.147007 
L 326.958499 104.84099 
L 328.58829 103.791093 
L 330.218082 101.932681 
L 331.847874 94.330878 
L 333.477666 99.395183 
L 335.107458 110.863609 
L 336.73725 117.071791 
L 338.367042 124.958126 
L 339.996834 141.036311 
L 341.626626 150.796898 
L 343.256418 137.963589 
L 346.516001 98.492076 
L 348.145793 93.017498 
L 349.775585 92.681833 
L 351.405377 90.667106 
L 353.035169 91.137606 
L 354.664961 92.640171 
L 356.294753 91.944027 
L 357.924545 99.720065 
L 359.554336 103.672704 
L 361.184128 100.788729 
L 362.81392 91.813279 
L 364.443712 84.399214 
L 366.073504 92.231656 
L 367.703296 101.443292 
L 369.333088 104.083238 
L 370.96288 105.508713 
L 372.592672 101.643396 
L 374.222464 104.565485 
L 375.852255 105.301702 
L 377.482047 104.234747 
L 379.111839 112.768361 
L 380.741631 83.269587 
L 382.371423 35.795625 
L 384.001215 312.995625 
L 385.631007 68.301642 
L 387.260799 145.51372 
L 388.890591 162.734544 
L 390.520382 122.304596 
L 392.150174 124.430091 
L 393.779966 123.457217 
L 395.409758 105.436334 
L 397.03955 92.963114 
L 398.669342 103.738108 
L 400.299134 106.750508 
L 401.928926 113.748707 
L 403.558718 109.03143 
L 405.18851 85.007126 
L 406.818301 88.46802 
L 408.448093 91.584619 
L 410.077885 97.522285 
L 411.707677 99.922397 
L 413.337469 100.310219 
L 414.967261 100.407821 
L 416.597053 107.031789 
L 418.226845 104.352348 
L 419.856637 105.190186 
L 421.486428 105.29085 
L 423.11622 104.17606 
L 424.746012 98.819919 
L 426.375804 102.679096 
L 428.005596 109.961053 
L 429.635388 91.004959 
L 431.26518 92.801582 
L 432.894972 96.516534 
L 434.524764 95.727319 
L 436.154556 94.286106 
L 441.043931 111.499363 
L 442.673723 115.370294 
L 444.303515 112.154094 
L 445.933307 113.988225 
L 447.563099 111.070983 
L 449.192891 108.667229 
L 450.822683 112.124111 
L 452.452475 104.955542 
L 454.082266 103.646551 
L 455.712058 98.875859 
L 457.34185 98.29836 
L 458.971642 99.7196 
L 460.601434 97.959867 
L 462.231226 104.188083 
L 463.861018 104.785925 
L 465.49081 106.094236 
L 465.49081 106.094236 
" clip-path="url(#pfcb8a83166)" style="fill: none; stroke: #0272a2; stroke-width: 1.75; stroke-linecap: round"/>
   </g>
   <g id="line2d_33">
    <path d="M 59.672628 197.298937 
L 61.30242 197.887887 
L 62.932212 196.28158 
L 64.562004 199.795145 
L 66.191795 196.772842 
L 69.451379 200.442293 
L 71.081171 195.605195 
L 72.710963 197.021699 
L 74.340755 197.298685 
L 75.970547 198.256975 
L 77.600339 197.799742 
L 79.230131 196.751747 
L 82.489714 196.940981 
L 84.119506 199.421557 
L 85.749298 199.477524 
L 87.37909 196.261514 
L 89.008882 198.464234 
L 90.638674 199.629426 
L 92.268466 198.366886 
L 93.898258 195.441326 
L 95.52805 200.686773 
L 97.157841 197.877722 
L 98.787633 196.693767 
L 100.417425 195.361456 
L 102.047217 197.193181 
L 103.677009 196.828941 
L 105.306801 197.281331 
L 106.936593 198.457103 
L 108.566385 197.479162 
L 110.196177 198.205649 
L 111.825968 196.713197 
L 113.45576 195.397128 
L 115.085552 196.867536 
L 116.715344 197.517094 
L 118.345136 196.094978 
L 119.974928 197.619675 
L 121.60472 197.78581 
L 123.234512 196.25111 
L 124.864304 198.400871 
L 126.494096 197.229656 
L 128.123887 196.906082 
L 129.753679 195.897217 
L 131.383471 198.069269 
L 134.643055 196.850924 
L 136.272847 193.828227 
L 137.902639 195.70835 
L 139.532431 197.979194 
L 141.162223 200.692417 
L 142.792014 197.21885 
L 144.421806 196.238516 
L 146.051598 196.884087 
L 147.68139 197.960149 
L 150.940974 196.094629 
L 152.570766 199.802387 
L 154.200558 198.674982 
L 155.83035 195.007294 
L 157.460142 196.389778 
L 159.089933 196.722042 
L 160.719725 198.50857 
L 162.349517 197.96925 
L 163.979309 198.889435 
L 165.609101 199.146382 
L 167.238893 194.789675 
L 168.868685 196.233089 
L 170.498477 195.885855 
L 173.75806 196.868433 
L 175.387852 199.548978 
L 177.017644 199.319215 
L 178.647436 197.351618 
L 180.277228 196.699759 
L 181.90702 196.467303 
L 183.536812 198.484026 
L 185.166604 196.08204 
L 186.796396 198.467546 
L 188.426188 198.23679 
L 190.055979 197.327402 
L 191.685771 197.069881 
L 193.315563 199.119644 
L 194.945355 198.705606 
L 196.575147 200.095774 
L 198.204939 194.205163 
L 199.834731 198.287648 
L 201.464523 198.303814 
L 203.094315 194.87911 
L 204.724106 196.89038 
L 206.353898 197.66598 
L 207.98369 200.382259 
L 209.613482 198.23641 
L 211.243274 197.584675 
L 212.873066 196.039713 
L 214.502858 198.668963 
L 216.13265 196.733271 
L 219.392234 196.926263 
L 221.022025 197.141484 
L 222.651817 197.207453 
L 224.281609 197.445557 
L 225.911401 201.974978 
L 227.541193 198.332893 
L 229.170985 196.059987 
L 230.800777 194.884378 
L 232.430569 198.229791 
L 234.060361 197.988075 
L 235.690152 195.731573 
L 237.319944 197.676693 
L 238.949736 198.675711 
L 240.579528 198.005274 
L 242.20932 198.283307 
L 243.839112 194.099363 
L 245.468904 197.180357 
L 248.728488 199.125928 
L 250.35828 197.814738 
L 251.988071 196.173426 
L 253.617863 197.058439 
L 255.247655 196.375771 
L 258.507239 197.172241 
L 260.137031 195.585204 
L 261.766823 197.029723 
L 263.396615 198.894611 
L 265.026407 197.64546 
L 266.656198 196.796759 
L 268.28599 198.490937 
L 269.915782 197.986352 
L 271.545574 197.759094 
L 273.175366 198.530799 
L 274.805158 197.684637 
L 276.43495 198.550905 
L 278.064742 196.226638 
L 279.694534 198.553113 
L 281.324326 195.283017 
L 282.954117 197.807143 
L 284.583909 199.080824 
L 286.213701 196.468641 
L 287.843493 197.698172 
L 289.473285 197.573927 
L 291.103077 196.681968 
L 292.732869 197.863021 
L 294.362661 197.591635 
L 295.992453 199.021201 
L 297.622244 197.834512 
L 299.252036 200.533374 
L 300.881828 198.134752 
L 304.141412 196.790188 
L 305.771204 197.828776 
L 307.400996 196.346184 
L 309.030788 197.039473 
L 310.66058 196.784531 
L 313.920163 200.182917 
L 315.549955 198.001848 
L 317.179747 198.302662 
L 318.809539 199.340107 
L 320.439331 195.382273 
L 322.069123 200.31504 
L 323.698915 197.853708 
L 325.328707 196.511157 
L 326.958499 197.641371 
L 328.58829 195.89924 
L 330.218082 196.647307 
L 331.847874 198.42227 
L 333.477666 196.472072 
L 335.107458 197.358644 
L 336.73725 198.599948 
L 338.367042 195.688788 
L 339.996834 197.96955 
L 341.626626 199.963077 
L 343.256418 198.680542 
L 344.886209 199.983249 
L 346.516001 198.681359 
L 348.145793 194.524682 
L 349.775585 197.86832 
L 351.405377 195.484968 
L 353.035169 196.935982 
L 354.664961 196.214057 
L 356.294753 196.432528 
L 357.924545 199.895752 
L 359.554336 199.406075 
L 361.184128 197.872202 
L 362.81392 198.803228 
L 366.073504 196.901234 
L 367.703296 196.496408 
L 369.333088 199.28036 
L 370.96288 196.820905 
L 372.592672 196.327898 
L 374.222464 199.176763 
L 375.852255 195.744702 
L 377.482047 197.102205 
L 379.111839 195.408088 
L 380.741631 197.287495 
L 382.371423 197.449373 
L 384.001215 194.968253 
L 385.631007 198.685863 
L 387.260799 198.832771 
L 388.890591 199.530294 
L 390.520382 198.893966 
L 392.150174 195.810357 
L 393.779966 198.221489 
L 395.409758 201.071008 
L 397.03955 197.094848 
L 398.669342 195.670683 
L 400.299134 198.262168 
L 401.928926 197.30598 
L 403.558718 197.640284 
L 405.18851 197.595874 
L 406.818301 197.878393 
L 408.448093 197.811537 
L 410.077885 196.176177 
L 411.707677 196.039652 
L 413.337469 196.538906 
L 414.967261 197.332422 
L 416.597053 196.840754 
L 418.226845 195.405359 
L 419.856637 197.358741 
L 421.486428 197.582321 
L 423.11622 195.855377 
L 424.746012 197.734197 
L 426.375804 196.911055 
L 428.005596 195.65256 
L 429.635388 198.735723 
L 431.26518 196.030122 
L 432.894972 196.610925 
L 434.524764 198.566396 
L 436.154556 199.151915 
L 437.784347 197.983071 
L 439.414139 198.00875 
L 441.043931 197.435215 
L 442.673723 195.69187 
L 444.303515 195.895813 
L 445.933307 195.075837 
L 449.192891 198.232538 
L 452.452475 196.967631 
L 454.082266 196.014896 
L 455.712058 196.295989 
L 457.34185 196.722682 
L 458.971642 199.425254 
L 460.601434 196.702153 
L 463.861018 198.448726 
L 465.49081 198.815659 
L 465.49081 198.815659 
" clip-path="url(#pfcb8a83166)" style="fill: none; stroke-dasharray: 1.75,2.8875; stroke-dashoffset: 0; stroke: #9fc377; stroke-width: 1.75"/>
   </g>
   <g id="patch_3">
    <path d="M 39.381719 326.855625 
L 39.381719 21.935625 
" style="fill: none; stroke: #cccccc; stroke-width: 1.25; stroke-linejoin: miter; stroke-linecap: square"/>
   </g>
   <g id="patch_4">
    <path d="M 485.781719 326.855625 
L 485.781719 21.935625 
" style="fill: none; stroke: #cccccc; stroke-width: 1.25; stroke-linejoin: miter; stroke-linecap: square"/>
   </g>
   <g id="patch_5">
    <path d="M 39.381719 326.855625 
L 485.781719 326.855625 
" style="fill: none; stroke: #cccccc; stroke-width: 1.25; stroke-linejoin: miter; stroke-linecap: square"/>
   </g>
   <g id="patch_6">
    <path d="M 39.381719 21.935625 
L 485.781719 21.935625 
" style="fill: none; stroke: #cccccc; stroke-width: 1.25; stroke-linejoin: miter; stroke-linecap: square"/>
   </g>
   <g id="text_34">
    <!-- "DNA denaturation" for dataset Mouse_non_tata -->
    <g style="fill: #262626" transform="translate(134.580156 15.935625) scale(0.12 -0.12)">
     <defs>
      <path id="ArialMT-22" d="M 450 2959 
L 294 3831 
L 294 4581 
L 934 4581 
L 934 3831 
L 794 2959 
L 450 2959 
z
M 1484 2959 
L 1331 3831 
L 1331 4581 
L 1972 4581 
L 1972 3831 
L 1822 2959 
L 1484 2959 
z
" transform="scale(0.015625)"/>
      <path id="ArialMT-66" d="M 556 0 
L 556 2881 
L 59 2881 
L 59 3319 
L 556 3319 
L 556 3672 
Q 556 4006 616 4169 
Q 697 4388 901 4523 
Q 1106 4659 1475 4659 
Q 1713 4659 2000 4603 
L 1916 4113 
Q 1741 4144 1584 4144 
Q 1328 4144 1222 4034 
Q 1116 3925 1116 3625 
L 1116 3319 
L 1763 3319 
L 1763 2881 
L 1116 2881 
L 1116 0 
L 556 0 
z
" transform="scale(0.015625)"/>
      <path id="ArialMT-4d" d="M 475 0 
L 475 4581 
L 1388 4581 
L 2472 1338 
Q 2622 884 2691 659 
Q 2769 909 2934 1394 
L 4031 4581 
L 4847 4581 
L 4847 0 
L 4263 0 
L 4263 3834 
L 2931 0 
L 2384 0 
L 1059 3900 
L 1059 0 
L 475 0 
z
" transform="scale(0.015625)"/>
      <path id="ArialMT-5f" d="M -97 -1272 
L -97 -866 
L 3631 -866 
L 3631 -1272 
L -97 -1272 
z
" transform="scale(0.015625)"/>
     </defs>
     <use xlink:href="#ArialMT-22"/>
     <use xlink:href="#ArialMT-44" x="35.498047"/>
     <use xlink:href="#ArialMT-4e" x="107.714844"/>
     <use xlink:href="#ArialMT-41" x="179.931641"/>
     <use xlink:href="#ArialMT-20" x="241.130859"/>
     <use xlink:href="#ArialMT-64" x="268.914062"/>
     <use xlink:href="#ArialMT-65" x="324.529297"/>
     <use xlink:href="#ArialMT-6e" x="380.144531"/>
     <use xlink:href="#ArialMT-61" x="435.759766"/>
     <use xlink:href="#ArialMT-74" x="491.375"/>
     <use xlink:href="#ArialMT-75" x="519.158203"/>
     <use xlink:href="#ArialMT-72" x="574.773438"/>
     <use xlink:href="#ArialMT-61" x="608.074219"/>
     <use xlink:href="#ArialMT-74" x="663.689453"/>
     <use xlink:href="#ArialMT-69" x="691.472656"/>
     <use xlink:href="#ArialMT-6f" x="713.689453"/>
     <use xlink:href="#ArialMT-6e" x="769.304688"/>
     <use xlink:href="#ArialMT-22" x="824.919922"/>
     <use xlink:href="#ArialMT-20" x="860.417969"/>
     <use xlink:href="#ArialMT-66" x="888.201172"/>
     <use xlink:href="#ArialMT-6f" x="915.984375"/>
     <use xlink:href="#ArialMT-72" x="971.599609"/>
     <use xlink:href="#ArialMT-20" x="1004.900391"/>
     <use xlink:href="#ArialMT-64" x="1032.683594"/>
     <use xlink:href="#ArialMT-61" x="1088.298828"/>
     <use xlink:href="#ArialMT-74" x="1143.914062"/>
     <use xlink:href="#ArialMT-61" x="1171.697266"/>
     <use xlink:href="#ArialMT-73" x="1227.3125"/>
     <use xlink:href="#ArialMT-65" x="1277.3125"/>
     <use xlink:href="#ArialMT-74" x="1332.927734"/>
     <use xlink:href="#ArialMT-20" x="1360.710938"/>
     <use xlink:href="#ArialMT-4d" x="1388.494141"/>
     <use xlink:href="#ArialMT-6f" x="1471.794922"/>
     <use xlink:href="#ArialMT-75" x="1527.410156"/>
     <use xlink:href="#ArialMT-73" x="1583.025391"/>
     <use xlink:href="#ArialMT-65" x="1633.025391"/>
     <use xlink:href="#ArialMT-5f" x="1688.640625"/>
     <use xlink:href="#ArialMT-6e" x="1744.255859"/>
     <use xlink:href="#ArialMT-6f" x="1799.871094"/>
     <use xlink:href="#ArialMT-6e" x="1855.486328"/>
     <use xlink:href="#ArialMT-5f" x="1911.101562"/>
     <use xlink:href="#ArialMT-74" x="1966.716797"/>
     <use xlink:href="#ArialMT-61" x="1994.5"/>
     <use xlink:href="#ArialMT-74" x="2050.115234"/>
     <use xlink:href="#ArialMT-61" x="2077.898438"/>
    </g>
   </g>
   <g id="legend_1">
    <g id="line2d_34">
     <path d="M 48.381719 34.593437 
L 58.381719 34.593437 
L 68.381719 34.593437 
" style="fill: none; stroke: #0272a2; stroke-width: 1.75; stroke-linecap: round"/>
    </g>
    <g id="text_35">
     <!-- Promoter -->
     <g style="fill: #262626" transform="translate(76.381719 38.093437) scale(0.1 -0.1)">
      <defs>
       <path id="ArialMT-6d" d="M 422 0 
L 422 3319 
L 925 3319 
L 925 2853 
Q 1081 3097 1340 3245 
Q 1600 3394 1931 3394 
Q 2300 3394 2536 3241 
Q 2772 3088 2869 2813 
Q 3263 3394 3894 3394 
Q 4388 3394 4653 3120 
Q 4919 2847 4919 2278 
L 4919 0 
L 4359 0 
L 4359 2091 
Q 4359 2428 4304 2576 
Q 4250 2725 4106 2815 
Q 3963 2906 3769 2906 
Q 3419 2906 3187 2673 
Q 2956 2441 2956 1928 
L 2956 0 
L 2394 0 
L 2394 2156 
Q 2394 2531 2256 2718 
Q 2119 2906 1806 2906 
Q 1569 2906 1367 2781 
Q 1166 2656 1075 2415 
Q 984 2175 984 1722 
L 984 0 
L 422 0 
z
" transform="scale(0.015625)"/>
      </defs>
      <use xlink:href="#ArialMT-50"/>
      <use xlink:href="#ArialMT-72" x="66.699219"/>
      <use xlink:href="#ArialMT-6f" x="100"/>
      <use xlink:href="#ArialMT-6d" x="155.615234"/>
      <use xlink:href="#ArialMT-6f" x="238.916016"/>
      <use xlink:href="#ArialMT-74" x="294.53125"/>
      <use xlink:href="#ArialMT-65" x="322.314453"/>
      <use xlink:href="#ArialMT-72" x="377.929688"/>
     </g>
    </g>
    <g id="line2d_35">
     <path d="M 48.381719 48.73875 
L 58.381719 48.73875 
L 68.381719 48.73875 
" style="fill: none; stroke-dasharray: 1.75,2.8875; stroke-dashoffset: 0; stroke: #9fc377; stroke-width: 1.75"/>
    </g>
    <g id="text_36">
     <!-- Non-promoter -->
     <g style="fill: #262626" transform="translate(76.381719 52.23875) scale(0.1 -0.1)">
      <defs>
       <path id="ArialMT-70" d="M 422 -1272 
L 422 3319 
L 934 3319 
L 934 2888 
Q 1116 3141 1344 3267 
Q 1572 3394 1897 3394 
Q 2322 3394 2647 3175 
Q 2972 2956 3137 2557 
Q 3303 2159 3303 1684 
Q 3303 1175 3120 767 
Q 2938 359 2589 142 
Q 2241 -75 1856 -75 
Q 1575 -75 1351 44 
Q 1128 163 984 344 
L 984 -1272 
L 422 -1272 
z
M 931 1641 
Q 931 1000 1190 694 
Q 1450 388 1819 388 
Q 2194 388 2461 705 
Q 2728 1022 2728 1688 
Q 2728 2322 2467 2637 
Q 2206 2953 1844 2953 
Q 1484 2953 1207 2617 
Q 931 2281 931 1641 
z
" transform="scale(0.015625)"/>
      </defs>
      <use xlink:href="#ArialMT-4e"/>
      <use xlink:href="#ArialMT-6f" x="72.216797"/>
      <use xlink:href="#ArialMT-6e" x="127.832031"/>
      <use xlink:href="#ArialMT-2d" x="183.447266"/>
      <use xlink:href="#ArialMT-70" x="216.748047"/>
      <use xlink:href="#ArialMT-72" x="272.363281"/>
      <use xlink:href="#ArialMT-6f" x="305.664062"/>
      <use xlink:href="#ArialMT-6d" x="361.279297"/>
      <use xlink:href="#ArialMT-6f" x="444.580078"/>
      <use xlink:href="#ArialMT-74" x="500.195312"/>
      <use xlink:href="#ArialMT-65" x="527.978516"/>
      <use xlink:href="#ArialMT-72" x="583.59375"/>
     </g>
    </g>
   </g>
  </g>
 </g>
 <defs>
  <clipPath id="pfcb8a83166">
   <rect x="39.381719" y="21.935625" width="446.4" height="304.92"/>
  </clipPath>
 </defs>
</svg>
