<?xml version="1.0" encoding="utf-8" standalone="no"?>
<!DOCTYPE svg PUBLIC "-//W3C//DTD SVG 1.1//EN"
  "http://www.w3.org/Graphics/SVG/1.1/DTD/svg11.dtd">
<svg xmlns:xlink="http://www.w3.org/1999/xlink" width="496.022812pt" height="375.733156pt" viewBox="0 0 496.022812 375.733156" xmlns="http://www.w3.org/2000/svg" version="1.1">
 <metadata>
  <rdf:RDF xmlns:dc="http://purl.org/dc/elements/1.1/" xmlns:cc="http://creativecommons.org/ns#" xmlns:rdf="http://www.w3.org/1999/02/22-rdf-syntax-ns#">
   <cc:Work>
    <dc:type rdf:resource="http://purl.org/dc/dcmitype/StillImage"/>
    <dc:date>2023-05-11T16:25:54.133124</dc:date>
    <dc:format>image/svg+xml</dc:format>
    <dc:creator>
     <cc:Agent>
      <dc:title>Matplotlib v3.7.1, https://matplotlib.org/</dc:title>
     </cc:Agent>
    </dc:creator>
   </cc:Work>
  </rdf:RDF>
 </metadata>
 <defs>
  <style type="text/css">*{stroke-linejoin: round; stroke-linecap: butt}</style>
 </defs>
 <g id="figure_1">
  <g id="patch_1">
   <path d="M 0 375.733156 
L 496.022812 375.733156 
L 496.022812 0 
L 0 0 
z
" style="fill: #ffffff"/>
  </g>
  <g id="axes_1">
   <g id="patch_2">
    <path d="M 42.422813 326.855625 
L 488.822812 326.855625 
L 488.822812 21.935625 
L 42.422813 21.935625 
z
" style="fill: #ffffff"/>
   </g>
   <g id="matplotlib.axis_1">
    <g id="xtick_1">
     <g id="line2d_1"/>
     <g id="text_1">
      <!-- -200 -->
      <g style="fill: #262626" transform="translate(57.466216 353.067937) rotate(-45) scale(0.1 -0.1)">
       <defs>
        <path id="ArialMT-2d" d="M 203 1375 
L 203 1941 
L 1931 1941 
L 1931 1375 
L 203 1375 
z
" transform="scale(0.015625)"/>
        <path id="ArialMT-32" d="M 3222 541 
L 3222 0 
L 194 0 
Q 188 203 259 391 
Q 375 700 629 1000 
Q 884 1300 1366 1694 
Q 2113 2306 2375 2664 
Q 2638 3022 2638 3341 
Q 2638 3675 2398 3904 
Q 2159 4134 1775 4134 
Q 1369 4134 1125 3890 
Q 881 3647 878 3216 
L 300 3275 
Q 359 3922 746 4261 
Q 1134 4600 1788 4600 
Q 2447 4600 2831 4234 
Q 3216 3869 3216 3328 
Q 3216 3053 3103 2787 
Q 2991 2522 2730 2228 
Q 2469 1934 1863 1422 
Q 1356 997 1212 845 
Q 1069 694 975 541 
L 3222 541 
z
" transform="scale(0.015625)"/>
        <path id="ArialMT-30" d="M 266 2259 
Q 266 3072 433 3567 
Q 600 4063 929 4331 
Q 1259 4600 1759 4600 
Q 2128 4600 2406 4451 
Q 2684 4303 2865 4023 
Q 3047 3744 3150 3342 
Q 3253 2941 3253 2259 
Q 3253 1453 3087 958 
Q 2922 463 2592 192 
Q 2263 -78 1759 -78 
Q 1097 -78 719 397 
Q 266 969 266 2259 
z
M 844 2259 
Q 844 1131 1108 757 
Q 1372 384 1759 384 
Q 2147 384 2411 759 
Q 2675 1134 2675 2259 
Q 2675 3391 2411 3762 
Q 2147 4134 1753 4134 
Q 1366 4134 1134 3806 
Q 844 3388 844 2259 
z
" transform="scale(0.015625)"/>
       </defs>
       <use xlink:href="#ArialMT-2d"/>
       <use xlink:href="#ArialMT-32" x="33.300781"/>
       <use xlink:href="#ArialMT-30" x="88.916016"/>
       <use xlink:href="#ArialMT-30" x="144.53125"/>
      </g>
     </g>
    </g>
    <g id="xtick_2">
     <g id="line2d_2"/>
     <g id="text_2">
      <!-- -190 -->
      <g style="fill: #262626" transform="translate(73.764135 353.067937) rotate(-45) scale(0.1 -0.1)">
       <defs>
        <path id="ArialMT-31" d="M 2384 0 
L 1822 0 
L 1822 3584 
Q 1619 3391 1289 3197 
Q 959 3003 697 2906 
L 697 3450 
Q 1169 3672 1522 3987 
Q 1875 4303 2022 4600 
L 2384 4600 
L 2384 0 
z
" transform="scale(0.015625)"/>
        <path id="ArialMT-39" d="M 350 1059 
L 891 1109 
Q 959 728 1153 556 
Q 1347 384 1650 384 
Q 1909 384 2104 503 
Q 2300 622 2425 820 
Q 2550 1019 2634 1356 
Q 2719 1694 2719 2044 
Q 2719 2081 2716 2156 
Q 2547 1888 2255 1720 
Q 1963 1553 1622 1553 
Q 1053 1553 659 1965 
Q 266 2378 266 3053 
Q 266 3750 677 4175 
Q 1088 4600 1706 4600 
Q 2153 4600 2523 4359 
Q 2894 4119 3086 3673 
Q 3278 3228 3278 2384 
Q 3278 1506 3087 986 
Q 2897 466 2520 194 
Q 2144 -78 1638 -78 
Q 1100 -78 759 220 
Q 419 519 350 1059 
z
M 2653 3081 
Q 2653 3566 2395 3850 
Q 2138 4134 1775 4134 
Q 1400 4134 1122 3828 
Q 844 3522 844 3034 
Q 844 2597 1108 2323 
Q 1372 2050 1759 2050 
Q 2150 2050 2401 2323 
Q 2653 2597 2653 3081 
z
" transform="scale(0.015625)"/>
       </defs>
       <use xlink:href="#ArialMT-2d"/>
       <use xlink:href="#ArialMT-31" x="33.300781"/>
       <use xlink:href="#ArialMT-39" x="88.916016"/>
       <use xlink:href="#ArialMT-30" x="144.53125"/>
      </g>
     </g>
    </g>
    <g id="xtick_3">
     <g id="line2d_3"/>
     <g id="text_3">
      <!-- -180 -->
      <g style="fill: #262626" transform="translate(90.062054 353.067937) rotate(-45) scale(0.1 -0.1)">
       <defs>
        <path id="ArialMT-38" d="M 1131 2484 
Q 781 2613 612 2850 
Q 444 3088 444 3419 
Q 444 3919 803 4259 
Q 1163 4600 1759 4600 
Q 2359 4600 2725 4251 
Q 3091 3903 3091 3403 
Q 3091 3084 2923 2848 
Q 2756 2613 2416 2484 
Q 2838 2347 3058 2040 
Q 3278 1734 3278 1309 
Q 3278 722 2862 322 
Q 2447 -78 1769 -78 
Q 1091 -78 675 323 
Q 259 725 259 1325 
Q 259 1772 486 2073 
Q 713 2375 1131 2484 
z
M 1019 3438 
Q 1019 3113 1228 2906 
Q 1438 2700 1772 2700 
Q 2097 2700 2305 2904 
Q 2513 3109 2513 3406 
Q 2513 3716 2298 3927 
Q 2084 4138 1766 4138 
Q 1444 4138 1231 3931 
Q 1019 3725 1019 3438 
z
M 838 1322 
Q 838 1081 952 856 
Q 1066 631 1291 507 
Q 1516 384 1775 384 
Q 2178 384 2440 643 
Q 2703 903 2703 1303 
Q 2703 1709 2433 1975 
Q 2163 2241 1756 2241 
Q 1359 2241 1098 1978 
Q 838 1716 838 1322 
z
" transform="scale(0.015625)"/>
       </defs>
       <use xlink:href="#ArialMT-2d"/>
       <use xlink:href="#ArialMT-31" x="33.300781"/>
       <use xlink:href="#ArialMT-38" x="88.916016"/>
       <use xlink:href="#ArialMT-30" x="144.53125"/>
      </g>
     </g>
    </g>
    <g id="xtick_4">
     <g id="line2d_4"/>
     <g id="text_4">
      <!-- -170 -->
      <g style="fill: #262626" transform="translate(106.359973 353.067937) rotate(-45) scale(0.1 -0.1)">
       <defs>
        <path id="ArialMT-37" d="M 303 3981 
L 303 4522 
L 3269 4522 
L 3269 4084 
Q 2831 3619 2401 2847 
Q 1972 2075 1738 1259 
Q 1569 684 1522 0 
L 944 0 
Q 953 541 1156 1306 
Q 1359 2072 1739 2783 
Q 2119 3494 2547 3981 
L 303 3981 
z
" transform="scale(0.015625)"/>
       </defs>
       <use xlink:href="#ArialMT-2d"/>
       <use xlink:href="#ArialMT-31" x="33.300781"/>
       <use xlink:href="#ArialMT-37" x="88.916016"/>
       <use xlink:href="#ArialMT-30" x="144.53125"/>
      </g>
     </g>
    </g>
    <g id="xtick_5">
     <g id="line2d_5"/>
     <g id="text_5">
      <!-- -160 -->
      <g style="fill: #262626" transform="translate(122.657892 353.067937) rotate(-45) scale(0.1 -0.1)">
       <defs>
        <path id="ArialMT-36" d="M 3184 3459 
L 2625 3416 
Q 2550 3747 2413 3897 
Q 2184 4138 1850 4138 
Q 1581 4138 1378 3988 
Q 1113 3794 959 3422 
Q 806 3050 800 2363 
Q 1003 2672 1297 2822 
Q 1591 2972 1913 2972 
Q 2475 2972 2870 2558 
Q 3266 2144 3266 1488 
Q 3266 1056 3080 686 
Q 2894 316 2569 119 
Q 2244 -78 1831 -78 
Q 1128 -78 684 439 
Q 241 956 241 2144 
Q 241 3472 731 4075 
Q 1159 4600 1884 4600 
Q 2425 4600 2770 4297 
Q 3116 3994 3184 3459 
z
M 888 1484 
Q 888 1194 1011 928 
Q 1134 663 1356 523 
Q 1578 384 1822 384 
Q 2178 384 2434 671 
Q 2691 959 2691 1453 
Q 2691 1928 2437 2201 
Q 2184 2475 1800 2475 
Q 1419 2475 1153 2201 
Q 888 1928 888 1484 
z
" transform="scale(0.015625)"/>
       </defs>
       <use xlink:href="#ArialMT-2d"/>
       <use xlink:href="#ArialMT-31" x="33.300781"/>
       <use xlink:href="#ArialMT-36" x="88.916016"/>
       <use xlink:href="#ArialMT-30" x="144.53125"/>
      </g>
     </g>
    </g>
    <g id="xtick_6">
     <g id="line2d_6"/>
     <g id="text_6">
      <!-- -150 -->
      <g style="fill: #262626" transform="translate(138.955811 353.067937) rotate(-45) scale(0.1 -0.1)">
       <defs>
        <path id="ArialMT-35" d="M 266 1200 
L 856 1250 
Q 922 819 1161 601 
Q 1400 384 1738 384 
Q 2144 384 2425 690 
Q 2706 997 2706 1503 
Q 2706 1984 2436 2262 
Q 2166 2541 1728 2541 
Q 1456 2541 1237 2417 
Q 1019 2294 894 2097 
L 366 2166 
L 809 4519 
L 3088 4519 
L 3088 3981 
L 1259 3981 
L 1013 2750 
Q 1425 3038 1878 3038 
Q 2478 3038 2890 2622 
Q 3303 2206 3303 1553 
Q 3303 931 2941 478 
Q 2500 -78 1738 -78 
Q 1113 -78 717 272 
Q 322 622 266 1200 
z
" transform="scale(0.015625)"/>
       </defs>
       <use xlink:href="#ArialMT-2d"/>
       <use xlink:href="#ArialMT-31" x="33.300781"/>
       <use xlink:href="#ArialMT-35" x="88.916016"/>
       <use xlink:href="#ArialMT-30" x="144.53125"/>
      </g>
     </g>
    </g>
    <g id="xtick_7">
     <g id="line2d_7"/>
     <g id="text_7">
      <!-- -140 -->
      <g style="fill: #262626" transform="translate(155.25373 353.067937) rotate(-45) scale(0.1 -0.1)">
       <defs>
        <path id="ArialMT-34" d="M 2069 0 
L 2069 1097 
L 81 1097 
L 81 1613 
L 2172 4581 
L 2631 4581 
L 2631 1613 
L 3250 1613 
L 3250 1097 
L 2631 1097 
L 2631 0 
L 2069 0 
z
M 2069 1613 
L 2069 3678 
L 634 1613 
L 2069 1613 
z
" transform="scale(0.015625)"/>
       </defs>
       <use xlink:href="#ArialMT-2d"/>
       <use xlink:href="#ArialMT-31" x="33.300781"/>
       <use xlink:href="#ArialMT-34" x="88.916016"/>
       <use xlink:href="#ArialMT-30" x="144.53125"/>
      </g>
     </g>
    </g>
    <g id="xtick_8">
     <g id="line2d_8"/>
     <g id="text_8">
      <!-- -130 -->
      <g style="fill: #262626" transform="translate(171.551649 353.067937) rotate(-45) scale(0.1 -0.1)">
       <defs>
        <path id="ArialMT-33" d="M 269 1209 
L 831 1284 
Q 928 806 1161 595 
Q 1394 384 1728 384 
Q 2125 384 2398 659 
Q 2672 934 2672 1341 
Q 2672 1728 2419 1979 
Q 2166 2231 1775 2231 
Q 1616 2231 1378 2169 
L 1441 2663 
Q 1497 2656 1531 2656 
Q 1891 2656 2178 2843 
Q 2466 3031 2466 3422 
Q 2466 3731 2256 3934 
Q 2047 4138 1716 4138 
Q 1388 4138 1169 3931 
Q 950 3725 888 3313 
L 325 3413 
Q 428 3978 793 4289 
Q 1159 4600 1703 4600 
Q 2078 4600 2393 4439 
Q 2709 4278 2876 4000 
Q 3044 3722 3044 3409 
Q 3044 3113 2884 2869 
Q 2725 2625 2413 2481 
Q 2819 2388 3044 2092 
Q 3269 1797 3269 1353 
Q 3269 753 2831 336 
Q 2394 -81 1725 -81 
Q 1122 -81 723 278 
Q 325 638 269 1209 
z
" transform="scale(0.015625)"/>
       </defs>
       <use xlink:href="#ArialMT-2d"/>
       <use xlink:href="#ArialMT-31" x="33.300781"/>
       <use xlink:href="#ArialMT-33" x="88.916016"/>
       <use xlink:href="#ArialMT-30" x="144.53125"/>
      </g>
     </g>
    </g>
    <g id="xtick_9">
     <g id="line2d_9"/>
     <g id="text_9">
      <!-- -120 -->
      <g style="fill: #262626" transform="translate(187.849567 353.067937) rotate(-45) scale(0.1 -0.1)">
       <use xlink:href="#ArialMT-2d"/>
       <use xlink:href="#ArialMT-31" x="33.300781"/>
       <use xlink:href="#ArialMT-32" x="88.916016"/>
       <use xlink:href="#ArialMT-30" x="144.53125"/>
      </g>
     </g>
    </g>
    <g id="xtick_10">
     <g id="line2d_10"/>
     <g id="text_10">
      <!-- -110 -->
      <g style="fill: #262626" transform="translate(204.408232 352.546446) rotate(-45) scale(0.1 -0.1)">
       <use xlink:href="#ArialMT-2d"/>
       <use xlink:href="#ArialMT-31" x="33.300781"/>
       <use xlink:href="#ArialMT-31" x="81.541016"/>
       <use xlink:href="#ArialMT-30" x="137.15625"/>
      </g>
     </g>
    </g>
    <g id="xtick_11">
     <g id="line2d_11"/>
     <g id="text_11">
      <!-- -100 -->
      <g style="fill: #262626" transform="translate(220.445405 353.067937) rotate(-45) scale(0.1 -0.1)">
       <use xlink:href="#ArialMT-2d"/>
       <use xlink:href="#ArialMT-31" x="33.300781"/>
       <use xlink:href="#ArialMT-30" x="88.916016"/>
       <use xlink:href="#ArialMT-30" x="144.53125"/>
      </g>
     </g>
    </g>
    <g id="xtick_12">
     <g id="line2d_12"/>
     <g id="text_12">
      <!-- -90 -->
      <g style="fill: #262626" transform="translate(238.709413 349.135761) rotate(-45) scale(0.1 -0.1)">
       <use xlink:href="#ArialMT-2d"/>
       <use xlink:href="#ArialMT-39" x="33.300781"/>
       <use xlink:href="#ArialMT-30" x="88.916016"/>
      </g>
     </g>
    </g>
    <g id="xtick_13">
     <g id="line2d_13"/>
     <g id="text_13">
      <!-- -80 -->
      <g style="fill: #262626" transform="translate(255.007332 349.135761) rotate(-45) scale(0.1 -0.1)">
       <use xlink:href="#ArialMT-2d"/>
       <use xlink:href="#ArialMT-38" x="33.300781"/>
       <use xlink:href="#ArialMT-30" x="88.916016"/>
      </g>
     </g>
    </g>
    <g id="xtick_14">
     <g id="line2d_14"/>
     <g id="text_14">
      <!-- -70 -->
      <g style="fill: #262626" transform="translate(271.305251 349.135761) rotate(-45) scale(0.1 -0.1)">
       <use xlink:href="#ArialMT-2d"/>
       <use xlink:href="#ArialMT-37" x="33.300781"/>
       <use xlink:href="#ArialMT-30" x="88.916016"/>
      </g>
     </g>
    </g>
    <g id="xtick_15">
     <g id="line2d_15"/>
     <g id="text_15">
      <!-- -60 -->
      <g style="fill: #262626" transform="translate(287.603169 349.135761) rotate(-45) scale(0.1 -0.1)">
       <use xlink:href="#ArialMT-2d"/>
       <use xlink:href="#ArialMT-36" x="33.300781"/>
       <use xlink:href="#ArialMT-30" x="88.916016"/>
      </g>
     </g>
    </g>
    <g id="xtick_16">
     <g id="line2d_16"/>
     <g id="text_16">
      <!-- -50 -->
      <g style="fill: #262626" transform="translate(303.901088 349.135761) rotate(-45) scale(0.1 -0.1)">
       <use xlink:href="#ArialMT-2d"/>
       <use xlink:href="#ArialMT-35" x="33.300781"/>
       <use xlink:href="#ArialMT-30" x="88.916016"/>
      </g>
     </g>
    </g>
    <g id="xtick_17">
     <g id="line2d_17"/>
     <g id="text_17">
      <!-- -40 -->
      <g style="fill: #262626" transform="translate(320.199007 349.135761) rotate(-45) scale(0.1 -0.1)">
       <use xlink:href="#ArialMT-2d"/>
       <use xlink:href="#ArialMT-34" x="33.300781"/>
       <use xlink:href="#ArialMT-30" x="88.916016"/>
      </g>
     </g>
    </g>
    <g id="xtick_18">
     <g id="line2d_18"/>
     <g id="text_18">
      <!-- -30 -->
      <g style="fill: #262626" transform="translate(336.496926 349.135761) rotate(-45) scale(0.1 -0.1)">
       <use xlink:href="#ArialMT-2d"/>
       <use xlink:href="#ArialMT-33" x="33.300781"/>
       <use xlink:href="#ArialMT-30" x="88.916016"/>
      </g>
     </g>
    </g>
    <g id="xtick_19">
     <g id="line2d_19"/>
     <g id="text_19">
      <!-- -20 -->
      <g style="fill: #262626" transform="translate(352.794845 349.135761) rotate(-45) scale(0.1 -0.1)">
       <use xlink:href="#ArialMT-2d"/>
       <use xlink:href="#ArialMT-32" x="33.300781"/>
       <use xlink:href="#ArialMT-30" x="88.916016"/>
      </g>
     </g>
    </g>
    <g id="xtick_20">
     <g id="line2d_20"/>
     <g id="text_20">
      <!-- -10 -->
      <g style="fill: #262626" transform="translate(369.092764 349.135761) rotate(-45) scale(0.1 -0.1)">
       <use xlink:href="#ArialMT-2d"/>
       <use xlink:href="#ArialMT-31" x="33.300781"/>
       <use xlink:href="#ArialMT-30" x="88.916016"/>
      </g>
     </g>
    </g>
    <g id="xtick_21">
     <g id="line2d_21"/>
     <g id="text_21">
      <!-- 0 -->
      <g style="fill: #262626" transform="translate(388.533994 342.849139) rotate(-45) scale(0.1 -0.1)">
       <use xlink:href="#ArialMT-30"/>
      </g>
     </g>
    </g>
    <g id="xtick_22">
     <g id="line2d_22"/>
     <g id="text_22">
      <!-- 10 -->
      <g style="fill: #262626" transform="translate(402.865824 346.781316) rotate(-45) scale(0.1 -0.1)">
       <use xlink:href="#ArialMT-31"/>
       <use xlink:href="#ArialMT-30" x="55.615234"/>
      </g>
     </g>
    </g>
    <g id="xtick_23">
     <g id="line2d_23"/>
     <g id="text_23">
      <!-- 20 -->
      <g style="fill: #262626" transform="translate(419.163743 346.781316) rotate(-45) scale(0.1 -0.1)">
       <use xlink:href="#ArialMT-32"/>
       <use xlink:href="#ArialMT-30" x="55.615234"/>
      </g>
     </g>
    </g>
    <g id="xtick_24">
     <g id="line2d_24"/>
     <g id="text_24">
      <!-- 30 -->
      <g style="fill: #262626" transform="translate(435.461662 346.781316) rotate(-45) scale(0.1 -0.1)">
       <use xlink:href="#ArialMT-33"/>
       <use xlink:href="#ArialMT-30" x="55.615234"/>
      </g>
     </g>
    </g>
    <g id="xtick_25">
     <g id="line2d_25"/>
     <g id="text_25">
      <!-- 40 -->
      <g style="fill: #262626" transform="translate(451.759581 346.781316) rotate(-45) scale(0.1 -0.1)">
       <use xlink:href="#ArialMT-34"/>
       <use xlink:href="#ArialMT-30" x="55.615234"/>
      </g>
     </g>
    </g>
    <g id="xtick_26">
     <g id="line2d_26"/>
     <g id="text_26">
      <!-- 50 -->
      <g style="fill: #262626" transform="translate(468.0575 346.781316) rotate(-45) scale(0.1 -0.1)">
       <use xlink:href="#ArialMT-35"/>
       <use xlink:href="#ArialMT-30" x="55.615234"/>
      </g>
     </g>
    </g>
    <g id="text_27">
     <!-- Position -->
     <g style="fill: #262626" transform="translate(246.056563 366.346906) scale(0.11 -0.11)">
      <defs>
       <path id="ArialMT-50" d="M 494 0 
L 494 4581 
L 2222 4581 
Q 2678 4581 2919 4538 
Q 3256 4481 3484 4323 
Q 3713 4166 3852 3881 
Q 3991 3597 3991 3256 
Q 3991 2672 3619 2267 
Q 3247 1863 2275 1863 
L 1100 1863 
L 1100 0 
L 494 0 
z
M 1100 2403 
L 2284 2403 
Q 2872 2403 3119 2622 
Q 3366 2841 3366 3238 
Q 3366 3525 3220 3729 
Q 3075 3934 2838 4000 
Q 2684 4041 2272 4041 
L 1100 4041 
L 1100 2403 
z
" transform="scale(0.015625)"/>
       <path id="ArialMT-6f" d="M 213 1659 
Q 213 2581 725 3025 
Q 1153 3394 1769 3394 
Q 2453 3394 2887 2945 
Q 3322 2497 3322 1706 
Q 3322 1066 3130 698 
Q 2938 331 2570 128 
Q 2203 -75 1769 -75 
Q 1072 -75 642 372 
Q 213 819 213 1659 
z
M 791 1659 
Q 791 1022 1069 705 
Q 1347 388 1769 388 
Q 2188 388 2466 706 
Q 2744 1025 2744 1678 
Q 2744 2294 2464 2611 
Q 2184 2928 1769 2928 
Q 1347 2928 1069 2612 
Q 791 2297 791 1659 
z
" transform="scale(0.015625)"/>
       <path id="ArialMT-73" d="M 197 991 
L 753 1078 
Q 800 744 1014 566 
Q 1228 388 1613 388 
Q 2000 388 2187 545 
Q 2375 703 2375 916 
Q 2375 1106 2209 1216 
Q 2094 1291 1634 1406 
Q 1016 1563 777 1677 
Q 538 1791 414 1992 
Q 291 2194 291 2438 
Q 291 2659 392 2848 
Q 494 3038 669 3163 
Q 800 3259 1026 3326 
Q 1253 3394 1513 3394 
Q 1903 3394 2198 3281 
Q 2494 3169 2634 2976 
Q 2775 2784 2828 2463 
L 2278 2388 
Q 2241 2644 2061 2787 
Q 1881 2931 1553 2931 
Q 1166 2931 1000 2803 
Q 834 2675 834 2503 
Q 834 2394 903 2306 
Q 972 2216 1119 2156 
Q 1203 2125 1616 2013 
Q 2213 1853 2448 1751 
Q 2684 1650 2818 1456 
Q 2953 1263 2953 975 
Q 2953 694 2789 445 
Q 2625 197 2315 61 
Q 2006 -75 1616 -75 
Q 969 -75 630 194 
Q 291 463 197 991 
z
" transform="scale(0.015625)"/>
       <path id="ArialMT-69" d="M 425 3934 
L 425 4581 
L 988 4581 
L 988 3934 
L 425 3934 
z
M 425 0 
L 425 3319 
L 988 3319 
L 988 0 
L 425 0 
z
" transform="scale(0.015625)"/>
       <path id="ArialMT-74" d="M 1650 503 
L 1731 6 
Q 1494 -44 1306 -44 
Q 1000 -44 831 53 
Q 663 150 594 308 
Q 525 466 525 972 
L 525 2881 
L 113 2881 
L 113 3319 
L 525 3319 
L 525 4141 
L 1084 4478 
L 1084 3319 
L 1650 3319 
L 1650 2881 
L 1084 2881 
L 1084 941 
Q 1084 700 1114 631 
Q 1144 563 1211 522 
Q 1278 481 1403 481 
Q 1497 481 1650 503 
z
" transform="scale(0.015625)"/>
       <path id="ArialMT-6e" d="M 422 0 
L 422 3319 
L 928 3319 
L 928 2847 
Q 1294 3394 1984 3394 
Q 2284 3394 2536 3286 
Q 2788 3178 2913 3003 
Q 3038 2828 3088 2588 
Q 3119 2431 3119 2041 
L 3119 0 
L 2556 0 
L 2556 2019 
Q 2556 2363 2490 2533 
Q 2425 2703 2258 2804 
Q 2091 2906 1866 2906 
Q 1506 2906 1245 2678 
Q 984 2450 984 1813 
L 984 0 
L 422 0 
z
" transform="scale(0.015625)"/>
      </defs>
      <use xlink:href="#ArialMT-50"/>
      <use xlink:href="#ArialMT-6f" x="66.699219"/>
      <use xlink:href="#ArialMT-73" x="122.314453"/>
      <use xlink:href="#ArialMT-69" x="172.314453"/>
      <use xlink:href="#ArialMT-74" x="194.53125"/>
      <use xlink:href="#ArialMT-69" x="222.314453"/>
      <use xlink:href="#ArialMT-6f" x="244.53125"/>
      <use xlink:href="#ArialMT-6e" x="300.146484"/>
     </g>
    </g>
   </g>
   <g id="matplotlib.axis_2">
    <g id="ytick_1">
     <g id="line2d_27"/>
     <g id="text_28">
      <!-- 7.5 -->
      <g style="fill: #262626" transform="translate(21.522813 277.581471) scale(0.1 -0.1)">
       <defs>
        <path id="ArialMT-2e" d="M 581 0 
L 581 641 
L 1222 641 
L 1222 0 
L 581 0 
z
" transform="scale(0.015625)"/>
       </defs>
       <use xlink:href="#ArialMT-37"/>
       <use xlink:href="#ArialMT-2e" x="55.615234"/>
       <use xlink:href="#ArialMT-35" x="83.398438"/>
      </g>
     </g>
    </g>
    <g id="ytick_2">
     <g id="line2d_28"/>
     <g id="text_29">
      <!-- 8.0 -->
      <g style="fill: #262626" transform="translate(21.522813 217.475445) scale(0.1 -0.1)">
       <use xlink:href="#ArialMT-38"/>
       <use xlink:href="#ArialMT-2e" x="55.615234"/>
       <use xlink:href="#ArialMT-30" x="83.398438"/>
      </g>
     </g>
    </g>
    <g id="ytick_3">
     <g id="line2d_29"/>
     <g id="text_30">
      <!-- 8.5 -->
      <g style="fill: #262626" transform="translate(21.522813 157.369419) scale(0.1 -0.1)">
       <use xlink:href="#ArialMT-38"/>
       <use xlink:href="#ArialMT-2e" x="55.615234"/>
       <use xlink:href="#ArialMT-35" x="83.398438"/>
      </g>
     </g>
    </g>
    <g id="ytick_4">
     <g id="line2d_30"/>
     <g id="text_31">
      <!-- 9.0 -->
      <g style="fill: #262626" transform="translate(21.522813 97.263393) scale(0.1 -0.1)">
       <use xlink:href="#ArialMT-39"/>
       <use xlink:href="#ArialMT-2e" x="55.615234"/>
       <use xlink:href="#ArialMT-30" x="83.398438"/>
      </g>
     </g>
    </g>
    <g id="ytick_5">
     <g id="line2d_31"/>
     <g id="text_32">
      <!-- 9.5 -->
      <g style="fill: #262626" transform="translate(21.522813 37.157367) scale(0.1 -0.1)">
       <use xlink:href="#ArialMT-39"/>
       <use xlink:href="#ArialMT-2e" x="55.615234"/>
       <use xlink:href="#ArialMT-35" x="83.398438"/>
      </g>
     </g>
    </g>
    <g id="text_33">
     <!-- Stacking_energy -->
     <g style="fill: #262626" transform="translate(15.207656 215.36375) rotate(-90) scale(0.11 -0.11)">
      <defs>
       <path id="ArialMT-53" d="M 288 1472 
L 859 1522 
Q 900 1178 1048 958 
Q 1197 738 1509 602 
Q 1822 466 2213 466 
Q 2559 466 2825 569 
Q 3091 672 3220 851 
Q 3350 1031 3350 1244 
Q 3350 1459 3225 1620 
Q 3100 1781 2813 1891 
Q 2628 1963 1997 2114 
Q 1366 2266 1113 2400 
Q 784 2572 623 2826 
Q 463 3081 463 3397 
Q 463 3744 659 4045 
Q 856 4347 1234 4503 
Q 1613 4659 2075 4659 
Q 2584 4659 2973 4495 
Q 3363 4331 3572 4012 
Q 3781 3694 3797 3291 
L 3216 3247 
Q 3169 3681 2898 3903 
Q 2628 4125 2100 4125 
Q 1550 4125 1298 3923 
Q 1047 3722 1047 3438 
Q 1047 3191 1225 3031 
Q 1400 2872 2139 2705 
Q 2878 2538 3153 2413 
Q 3553 2228 3743 1945 
Q 3934 1663 3934 1294 
Q 3934 928 3725 604 
Q 3516 281 3123 101 
Q 2731 -78 2241 -78 
Q 1619 -78 1198 103 
Q 778 284 539 648 
Q 300 1013 288 1472 
z
" transform="scale(0.015625)"/>
       <path id="ArialMT-61" d="M 2588 409 
Q 2275 144 1986 34 
Q 1697 -75 1366 -75 
Q 819 -75 525 192 
Q 231 459 231 875 
Q 231 1119 342 1320 
Q 453 1522 633 1644 
Q 813 1766 1038 1828 
Q 1203 1872 1538 1913 
Q 2219 1994 2541 2106 
Q 2544 2222 2544 2253 
Q 2544 2597 2384 2738 
Q 2169 2928 1744 2928 
Q 1347 2928 1158 2789 
Q 969 2650 878 2297 
L 328 2372 
Q 403 2725 575 2942 
Q 747 3159 1072 3276 
Q 1397 3394 1825 3394 
Q 2250 3394 2515 3294 
Q 2781 3194 2906 3042 
Q 3031 2891 3081 2659 
Q 3109 2516 3109 2141 
L 3109 1391 
Q 3109 606 3145 398 
Q 3181 191 3288 0 
L 2700 0 
Q 2613 175 2588 409 
z
M 2541 1666 
Q 2234 1541 1622 1453 
Q 1275 1403 1131 1340 
Q 988 1278 909 1158 
Q 831 1038 831 891 
Q 831 666 1001 516 
Q 1172 366 1500 366 
Q 1825 366 2078 508 
Q 2331 650 2450 897 
Q 2541 1088 2541 1459 
L 2541 1666 
z
" transform="scale(0.015625)"/>
       <path id="ArialMT-63" d="M 2588 1216 
L 3141 1144 
Q 3050 572 2676 248 
Q 2303 -75 1759 -75 
Q 1078 -75 664 370 
Q 250 816 250 1647 
Q 250 2184 428 2587 
Q 606 2991 970 3192 
Q 1334 3394 1763 3394 
Q 2303 3394 2647 3120 
Q 2991 2847 3088 2344 
L 2541 2259 
Q 2463 2594 2264 2762 
Q 2066 2931 1784 2931 
Q 1359 2931 1093 2626 
Q 828 2322 828 1663 
Q 828 994 1084 691 
Q 1341 388 1753 388 
Q 2084 388 2306 591 
Q 2528 794 2588 1216 
z
" transform="scale(0.015625)"/>
       <path id="ArialMT-6b" d="M 425 0 
L 425 4581 
L 988 4581 
L 988 1969 
L 2319 3319 
L 3047 3319 
L 1778 2088 
L 3175 0 
L 2481 0 
L 1384 1697 
L 988 1316 
L 988 0 
L 425 0 
z
" transform="scale(0.015625)"/>
       <path id="ArialMT-67" d="M 319 -275 
L 866 -356 
Q 900 -609 1056 -725 
Q 1266 -881 1628 -881 
Q 2019 -881 2231 -725 
Q 2444 -569 2519 -288 
Q 2563 -116 2559 434 
Q 2191 0 1641 0 
Q 956 0 581 494 
Q 206 988 206 1678 
Q 206 2153 378 2554 
Q 550 2956 876 3175 
Q 1203 3394 1644 3394 
Q 2231 3394 2613 2919 
L 2613 3319 
L 3131 3319 
L 3131 450 
Q 3131 -325 2973 -648 
Q 2816 -972 2473 -1159 
Q 2131 -1347 1631 -1347 
Q 1038 -1347 672 -1080 
Q 306 -813 319 -275 
z
M 784 1719 
Q 784 1066 1043 766 
Q 1303 466 1694 466 
Q 2081 466 2343 764 
Q 2606 1063 2606 1700 
Q 2606 2309 2336 2618 
Q 2066 2928 1684 2928 
Q 1309 2928 1046 2623 
Q 784 2319 784 1719 
z
" transform="scale(0.015625)"/>
       <path id="ArialMT-5f" d="M -97 -1272 
L -97 -866 
L 3631 -866 
L 3631 -1272 
L -97 -1272 
z
" transform="scale(0.015625)"/>
       <path id="ArialMT-65" d="M 2694 1069 
L 3275 997 
Q 3138 488 2766 206 
Q 2394 -75 1816 -75 
Q 1088 -75 661 373 
Q 234 822 234 1631 
Q 234 2469 665 2931 
Q 1097 3394 1784 3394 
Q 2450 3394 2872 2941 
Q 3294 2488 3294 1666 
Q 3294 1616 3291 1516 
L 816 1516 
Q 847 969 1125 678 
Q 1403 388 1819 388 
Q 2128 388 2347 550 
Q 2566 713 2694 1069 
z
M 847 1978 
L 2700 1978 
Q 2663 2397 2488 2606 
Q 2219 2931 1791 2931 
Q 1403 2931 1139 2672 
Q 875 2413 847 1978 
z
" transform="scale(0.015625)"/>
       <path id="ArialMT-72" d="M 416 0 
L 416 3319 
L 922 3319 
L 922 2816 
Q 1116 3169 1280 3281 
Q 1444 3394 1641 3394 
Q 1925 3394 2219 3213 
L 2025 2691 
Q 1819 2813 1613 2813 
Q 1428 2813 1281 2702 
Q 1134 2591 1072 2394 
Q 978 2094 978 1738 
L 978 0 
L 416 0 
z
" transform="scale(0.015625)"/>
       <path id="ArialMT-79" d="M 397 -1278 
L 334 -750 
Q 519 -800 656 -800 
Q 844 -800 956 -737 
Q 1069 -675 1141 -563 
Q 1194 -478 1313 -144 
Q 1328 -97 1363 -6 
L 103 3319 
L 709 3319 
L 1400 1397 
Q 1534 1031 1641 628 
Q 1738 1016 1872 1384 
L 2581 3319 
L 3144 3319 
L 1881 -56 
Q 1678 -603 1566 -809 
Q 1416 -1088 1222 -1217 
Q 1028 -1347 759 -1347 
Q 597 -1347 397 -1278 
z
" transform="scale(0.015625)"/>
      </defs>
      <use xlink:href="#ArialMT-53"/>
      <use xlink:href="#ArialMT-74" x="66.699219"/>
      <use xlink:href="#ArialMT-61" x="94.482422"/>
      <use xlink:href="#ArialMT-63" x="150.097656"/>
      <use xlink:href="#ArialMT-6b" x="200.097656"/>
      <use xlink:href="#ArialMT-69" x="250.097656"/>
      <use xlink:href="#ArialMT-6e" x="272.314453"/>
      <use xlink:href="#ArialMT-67" x="327.929688"/>
      <use xlink:href="#ArialMT-5f" x="383.544922"/>
      <use xlink:href="#ArialMT-65" x="439.160156"/>
      <use xlink:href="#ArialMT-6e" x="494.775391"/>
      <use xlink:href="#ArialMT-65" x="550.390625"/>
      <use xlink:href="#ArialMT-72" x="606.005859"/>
      <use xlink:href="#ArialMT-67" x="639.306641"/>
      <use xlink:href="#ArialMT-79" x="694.921875"/>
     </g>
    </g>
   </g>
   <g id="line2d_32">
    <path d="M 62.713722 187.493888 
L 64.343513 186.726459 
L 65.973305 187.079499 
L 67.603097 181.039513 
L 69.232889 180.152707 
L 70.862681 186.225767 
L 72.492473 188.014145 
L 74.122265 186.18243 
L 75.752057 179.950126 
L 77.381849 182.641701 
L 79.011641 181.227107 
L 80.641432 181.059299 
L 82.271224 184.303688 
L 83.901016 181.158891 
L 85.530808 181.972978 
L 88.790392 175.171692 
L 90.420184 180.101249 
L 92.049976 177.058333 
L 93.679768 177.097535 
L 95.309559 178.190983 
L 96.939351 181.680846 
L 98.569143 182.02606 
L 100.198935 176.178614 
L 101.828727 181.868661 
L 103.458519 179.441312 
L 105.088311 175.689291 
L 106.718103 180.123102 
L 108.347895 172.602005 
L 109.977687 174.583662 
L 111.607478 174.750362 
L 113.23727 178.204862 
L 114.867062 171.282057 
L 116.496854 173.222297 
L 118.126646 175.33758 
L 119.756438 171.479469 
L 121.38623 174.702523 
L 123.016022 179.525253 
L 124.645814 172.630207 
L 126.275605 171.273124 
L 127.905397 175.499334 
L 129.535189 170.663684 
L 131.164981 175.83975 
L 132.794773 176.672589 
L 134.424565 176.014424 
L 136.054357 172.938138 
L 137.684149 171.620109 
L 139.313941 174.949325 
L 140.943733 173.540564 
L 142.573524 169.100477 
L 144.203316 171.319413 
L 145.833108 167.506927 
L 147.4629 172.307731 
L 149.092692 173.400736 
L 150.722484 169.989942 
L 152.352276 168.114152 
L 153.982068 167.835013 
L 155.61186 166.182181 
L 157.241651 168.859211 
L 158.871443 170.894393 
L 160.501235 171.37434 
L 162.131027 166.378855 
L 163.760819 163.622091 
L 165.390611 165.511022 
L 167.020403 164.338063 
L 168.650195 162.463898 
L 170.279987 163.772033 
L 171.909779 168.519166 
L 173.53957 165.961586 
L 175.169362 163.078505 
L 176.799154 162.01038 
L 178.428946 164.816386 
L 180.058738 157.957293 
L 181.68853 163.769671 
L 183.318322 160.079959 
L 184.948114 161.591635 
L 188.207697 157.12534 
L 189.837489 160.093765 
L 191.467281 158.555216 
L 193.097073 159.813666 
L 194.726865 162.956765 
L 196.356657 156.652111 
L 197.986449 158.178183 
L 199.616241 158.758608 
L 201.246033 156.692346 
L 202.875825 162.50716 
L 204.505616 157.750726 
L 206.135408 154.575882 
L 207.7652 160.450791 
L 209.394992 156.448349 
L 211.024784 156.441261 
L 212.654576 157.050627 
L 214.284368 152.665394 
L 215.91416 151.808118 
L 217.543952 151.41344 
L 219.173743 154.044182 
L 220.803535 155.303296 
L 222.433327 151.54559 
L 224.063119 151.806641 
L 225.692911 153.97914 
L 227.322703 149.830226 
L 228.952495 157.009653 
L 230.582287 149.268479 
L 232.212079 153.508273 
L 233.841871 147.236103 
L 235.471662 146.154615 
L 237.101454 149.175974 
L 238.731246 147.520852 
L 240.361038 144.520682 
L 241.99083 148.851358 
L 243.620622 146.976676 
L 245.250414 146.752095 
L 246.880206 145.921249 
L 248.509998 143.639117 
L 250.139789 142.283068 
L 251.769581 147.543517 
L 253.399373 138.762788 
L 255.029165 143.345508 
L 256.658957 145.569907 
L 258.288749 140.719344 
L 259.918541 142.499306 
L 261.548333 142.123971 
L 263.178125 139.282159 
L 264.807917 138.125442 
L 266.437708 136.764594 
L 268.0675 137.664837 
L 269.697292 137.931647 
L 271.327084 141.541183 
L 272.956876 134.859643 
L 274.586668 136.278667 
L 277.846252 140.998926 
L 279.476044 132.923611 
L 281.105836 136.073133 
L 282.735627 136.440347 
L 284.365419 135.605367 
L 285.995211 133.262771 
L 287.625003 130.388697 
L 289.254795 136.500885 
L 290.884587 136.676667 
L 292.514379 133.037895 
L 294.144171 136.966806 
L 295.773963 133.207992 
L 297.403754 133.194408 
L 299.033546 131.212456 
L 300.663338 127.234155 
L 302.29313 131.205147 
L 303.922922 137.478499 
L 305.552714 134.138135 
L 307.182506 135.969111 
L 308.812298 134.467107 
L 310.44209 131.773243 
L 312.071882 123.599149 
L 315.331465 119.734984 
L 316.961257 116.427695 
L 318.591049 121.814314 
L 320.220841 121.937088 
L 321.850633 120.988119 
L 325.110217 126.376879 
L 326.740009 120.89901 
L 328.3698 131.133166 
L 329.999592 126.624863 
L 331.629384 125.458696 
L 333.259176 128.279541 
L 334.888968 122.994212 
L 336.51876 126.506371 
L 338.148552 138.02238 
L 339.778344 147.687184 
L 341.408136 159.206441 
L 343.037928 175.525691 
L 344.667719 189.504781 
L 346.297511 171.294534 
L 349.557095 126.372376 
L 351.186887 114.057488 
L 352.816679 112.525214 
L 354.446471 110.7973 
L 356.076263 110.24264 
L 357.706055 111.557567 
L 359.335846 112.308828 
L 360.965638 120.244167 
L 362.59543 127.290854 
L 364.225222 124.638186 
L 365.855014 108.250278 
L 367.484806 103.051621 
L 369.114598 121.085866 
L 370.74439 125.888589 
L 372.374182 132.074899 
L 374.003974 130.514055 
L 375.633765 124.434498 
L 377.263557 131.659107 
L 378.893349 131.707168 
L 380.523141 119.514538 
L 382.152933 154.309884 
L 383.782725 121.590471 
L 385.412517 35.795625 
L 387.042309 312.995625 
L 388.672101 137.247126 
L 390.301892 149.282136 
L 391.931684 190.226215 
L 393.561476 143.186486 
L 395.191268 143.878906 
L 396.82106 140.910186 
L 398.450852 123.214733 
L 400.080644 110.353601 
L 401.710436 122.899788 
L 403.340228 124.894217 
L 404.97002 132.266406 
L 406.599811 131.229362 
L 408.229603 93.4839 
L 409.859395 104.102176 
L 411.489187 110.05918 
L 413.118979 114.91469 
L 414.748771 118.50134 
L 416.378563 116.261289 
L 418.008355 117.036691 
L 419.638147 127.865373 
L 421.267938 123.89416 
L 422.89773 124.698798 
L 424.527522 127.210973 
L 426.157314 123.262499 
L 427.787106 113.052706 
L 429.416898 117.90733 
L 431.04669 130.771636 
L 432.676482 110.534034 
L 435.936066 115.784295 
L 437.565857 111.698724 
L 439.195649 110.440938 
L 440.825441 119.560384 
L 442.455233 123.831408 
L 444.085025 132.125175 
L 445.714817 137.702415 
L 447.344609 134.799844 
L 448.974401 135.10903 
L 450.604193 135.106815 
L 452.233984 129.820305 
L 453.863776 132.993451 
L 455.493568 126.075445 
L 457.12336 126.021773 
L 458.753152 116.177865 
L 460.382944 118.029513 
L 462.012736 119.294165 
L 463.642528 116.286316 
L 465.27232 124.422021 
L 466.902112 125.536952 
L 468.531903 127.472246 
L 468.531903 127.472246 
" clip-path="url(#p6f995972ff)" style="fill: none; stroke: #0272a2; stroke-width: 1.75; stroke-linecap: round"/>
   </g>
   <g id="line2d_33">
    <path d="M 62.713722 246.459709 
L 64.343513 248.703357 
L 65.973305 245.699315 
L 67.603097 250.536031 
L 69.232889 246.918483 
L 70.862681 250.396651 
L 72.492473 250.717933 
L 74.122265 246.211652 
L 75.752057 245.537463 
L 77.381849 248.269282 
L 79.011641 247.972554 
L 80.641432 249.001829 
L 82.271224 246.205744 
L 83.901016 247.972505 
L 85.530808 247.189253 
L 87.1606 249.596496 
L 88.790392 250.751931 
L 90.420184 245.864896 
L 92.049976 249.576253 
L 93.679768 250.502082 
L 95.309559 247.552475 
L 96.939351 246.187244 
L 98.569143 253.470529 
L 100.198935 246.625241 
L 101.828727 247.117722 
L 103.458519 246.347497 
L 105.088311 246.639576 
L 106.718103 248.120313 
L 108.347895 248.126899 
L 109.977687 249.137529 
L 111.607478 247.36883 
L 113.23727 249.341418 
L 114.867062 247.176564 
L 116.496854 245.599986 
L 118.126646 247.45087 
L 119.756438 247.106632 
L 121.38623 245.805909 
L 123.016022 248.256206 
L 124.645814 248.563202 
L 126.275605 247.675777 
L 127.905397 248.324976 
L 129.535189 247.251146 
L 131.164981 247.70406 
L 132.794773 244.960618 
L 134.424565 250.024469 
L 137.684149 247.804939 
L 139.313941 244.215867 
L 140.943733 244.423775 
L 142.573524 248.464454 
L 144.203316 251.769728 
L 145.833108 248.623012 
L 147.4629 246.113824 
L 149.092692 247.023914 
L 150.722484 247.105421 
L 152.352276 246.912865 
L 155.61186 248.795083 
L 157.241651 249.835933 
L 158.871443 244.318053 
L 160.501235 246.99258 
L 162.131027 247.046918 
L 163.760819 249.487239 
L 165.390611 247.934149 
L 167.020403 248.574389 
L 168.650195 251.185231 
L 170.279987 243.873614 
L 171.909779 246.637591 
L 173.53957 246.726023 
L 175.169362 246.161527 
L 176.799154 245.449466 
L 178.428946 251.095878 
L 180.058738 250.340666 
L 181.68853 246.329142 
L 183.318322 246.554001 
L 184.948114 247.626379 
L 186.577906 249.421859 
L 188.207697 246.216543 
L 189.837489 248.609355 
L 191.467281 249.179808 
L 193.097073 247.654177 
L 194.726865 247.816756 
L 196.356657 250.641027 
L 197.986449 249.220295 
L 199.616241 250.659818 
L 201.246033 243.27822 
L 202.875825 249.191092 
L 204.505616 248.22865 
L 206.135408 245.145183 
L 207.7652 247.793413 
L 209.394992 247.560902 
L 211.024784 252.236929 
L 212.654576 249.669819 
L 214.284368 247.679264 
L 215.91416 246.315049 
L 217.543952 249.578045 
L 219.173743 246.963861 
L 220.803535 247.365488 
L 222.433327 248.4029 
L 224.063119 247.746678 
L 225.692911 246.515693 
L 227.322703 248.730817 
L 228.952495 252.625189 
L 230.582287 248.682387 
L 232.212079 246.088738 
L 233.841871 244.931027 
L 237.101454 250.134695 
L 238.731246 244.980958 
L 240.361038 247.610009 
L 241.99083 250.023258 
L 243.620622 248.386482 
L 245.250414 247.906254 
L 246.880206 243.567248 
L 248.509998 248.278581 
L 250.139789 247.923204 
L 251.769581 251.533198 
L 253.399373 249.077089 
L 255.029165 247.607588 
L 256.658957 247.111281 
L 258.288749 246.798813 
L 259.918541 248.43186 
L 261.548333 247.30684 
L 263.178125 245.019992 
L 264.807917 248.589402 
L 266.437708 249.971342 
L 268.0675 248.361541 
L 269.697292 246.918773 
L 271.327084 248.378539 
L 272.956876 247.622311 
L 274.586668 248.251896 
L 276.21646 249.542885 
L 277.846252 247.841067 
L 279.476044 249.438567 
L 281.105836 245.9434 
L 282.735627 250.064763 
L 284.365419 245.32878 
L 285.995211 248.500195 
L 287.625003 248.900078 
L 289.254795 246.521069 
L 290.884587 248.510801 
L 294.144171 247.226786 
L 295.773963 248.377765 
L 297.403754 248.53487 
L 299.033546 249.642166 
L 300.663338 247.175935 
L 302.29313 251.798011 
L 303.922922 248.625724 
L 305.552714 247.503852 
L 307.182506 246.925457 
L 308.812298 248.511769 
L 310.44209 247.748906 
L 312.071882 247.659553 
L 313.701673 246.838525 
L 315.331465 248.166902 
L 316.961257 250.372581 
L 318.591049 249.513391 
L 320.220841 247.618097 
L 321.850633 249.400066 
L 323.480425 245.384135 
L 325.110217 250.220222 
L 326.740009 249.215161 
L 328.3698 247.416582 
L 329.999592 249.163971 
L 331.629384 245.945628 
L 333.259176 247.624732 
L 334.888968 248.101086 
L 336.51876 246.828888 
L 338.148552 247.721107 
L 339.778344 249.897341 
L 341.408136 244.860853 
L 343.037928 250.009069 
L 344.667719 250.350498 
L 346.297511 250.252282 
L 347.927303 250.510993 
L 349.557095 248.291269 
L 351.186887 245.588169 
L 352.816679 247.893468 
L 354.446471 245.108037 
L 356.076263 247.370428 
L 357.706055 245.913083 
L 359.335846 245.504095 
L 360.965638 250.531673 
L 362.59543 251.232837 
L 364.225222 248.393649 
L 365.855014 250.105589 
L 367.484806 247.873128 
L 369.114598 247.886543 
L 370.74439 247.120289 
L 372.374182 250.074545 
L 374.003974 247.878261 
L 375.633765 247.025318 
L 377.263557 249.338899 
L 378.893349 244.884196 
L 380.523141 246.210926 
L 382.152933 245.720769 
L 383.782725 249.107454 
L 385.412517 246.912284 
L 387.042309 246.139782 
L 388.672101 248.524555 
L 391.931684 250.416265 
L 393.561476 249.874579 
L 395.191268 246.716967 
L 396.82106 249.839371 
L 398.450852 251.786582 
L 400.080644 246.460968 
L 401.710436 246.922987 
L 403.340228 248.796729 
L 404.97002 247.401084 
L 406.599811 249.436679 
L 408.229603 247.991393 
L 409.859395 249.793944 
L 411.489187 246.485909 
L 413.118979 247.795156 
L 414.748771 246.663162 
L 419.638147 247.273956 
L 421.267938 245.927031 
L 422.89773 247.364374 
L 424.527522 248.243614 
L 426.157314 245.525598 
L 427.787106 247.697909 
L 431.04669 246.102589 
L 432.676482 249.736313 
L 434.306274 246.294225 
L 435.936066 246.912816 
L 437.565857 249.455421 
L 439.195649 251.00144 
L 440.825441 248.075854 
L 442.455233 248.570272 
L 444.085025 247.287274 
L 445.714817 245.456682 
L 447.344609 245.584876 
L 448.974401 247.452613 
L 450.604193 247.393868 
L 452.233984 249.34689 
L 453.863776 249.416483 
L 455.493568 247.733699 
L 457.12336 246.852521 
L 458.753152 245.406364 
L 460.382944 246.04641 
L 462.012736 248.355487 
L 463.642528 247.898166 
L 465.27232 248.116196 
L 466.902112 249.775783 
L 468.531903 250.527314 
L 468.531903 250.527314 
" clip-path="url(#p6f995972ff)" style="fill: none; stroke-dasharray: 1.75,2.8875; stroke-dashoffset: 0; stroke: #9fc377; stroke-width: 1.75"/>
   </g>
   <g id="patch_3">
    <path d="M 42.422813 326.855625 
L 42.422813 21.935625 
" style="fill: none; stroke: #cccccc; stroke-width: 1.25; stroke-linejoin: miter; stroke-linecap: square"/>
   </g>
   <g id="patch_4">
    <path d="M 488.822812 326.855625 
L 488.822812 21.935625 
" style="fill: none; stroke: #cccccc; stroke-width: 1.25; stroke-linejoin: miter; stroke-linecap: square"/>
   </g>
   <g id="patch_5">
    <path d="M 42.422813 326.855625 
L 488.822813 326.855625 
" style="fill: none; stroke: #cccccc; stroke-width: 1.25; stroke-linejoin: miter; stroke-linecap: square"/>
   </g>
   <g id="patch_6">
    <path d="M 42.422813 21.935625 
L 488.822813 21.935625 
" style="fill: none; stroke: #cccccc; stroke-width: 1.25; stroke-linejoin: miter; stroke-linecap: square"/>
   </g>
   <g id="text_34">
    <!-- "Stacking_energy" for dataset Mouse_non_tata -->
    <g style="fill: #262626" transform="translate(140.29125 15.935625) scale(0.12 -0.12)">
     <defs>
      <path id="ArialMT-22" d="M 450 2959 
L 294 3831 
L 294 4581 
L 934 4581 
L 934 3831 
L 794 2959 
L 450 2959 
z
M 1484 2959 
L 1331 3831 
L 1331 4581 
L 1972 4581 
L 1972 3831 
L 1822 2959 
L 1484 2959 
z
" transform="scale(0.015625)"/>
      <path id="ArialMT-20" transform="scale(0.015625)"/>
      <path id="ArialMT-66" d="M 556 0 
L 556 2881 
L 59 2881 
L 59 3319 
L 556 3319 
L 556 3672 
Q 556 4006 616 4169 
Q 697 4388 901 4523 
Q 1106 4659 1475 4659 
Q 1713 4659 2000 4603 
L 1916 4113 
Q 1741 4144 1584 4144 
Q 1328 4144 1222 4034 
Q 1116 3925 1116 3625 
L 1116 3319 
L 1763 3319 
L 1763 2881 
L 1116 2881 
L 1116 0 
L 556 0 
z
" transform="scale(0.015625)"/>
      <path id="ArialMT-64" d="M 2575 0 
L 2575 419 
Q 2259 -75 1647 -75 
Q 1250 -75 917 144 
Q 584 363 401 755 
Q 219 1147 219 1656 
Q 219 2153 384 2558 
Q 550 2963 881 3178 
Q 1213 3394 1622 3394 
Q 1922 3394 2156 3267 
Q 2391 3141 2538 2938 
L 2538 4581 
L 3097 4581 
L 3097 0 
L 2575 0 
z
M 797 1656 
Q 797 1019 1065 703 
Q 1334 388 1700 388 
Q 2069 388 2326 689 
Q 2584 991 2584 1609 
Q 2584 2291 2321 2609 
Q 2059 2928 1675 2928 
Q 1300 2928 1048 2622 
Q 797 2316 797 1656 
z
" transform="scale(0.015625)"/>
      <path id="ArialMT-4d" d="M 475 0 
L 475 4581 
L 1388 4581 
L 2472 1338 
Q 2622 884 2691 659 
Q 2769 909 2934 1394 
L 4031 4581 
L 4847 4581 
L 4847 0 
L 4263 0 
L 4263 3834 
L 2931 0 
L 2384 0 
L 1059 3900 
L 1059 0 
L 475 0 
z
" transform="scale(0.015625)"/>
      <path id="ArialMT-75" d="M 2597 0 
L 2597 488 
Q 2209 -75 1544 -75 
Q 1250 -75 995 37 
Q 741 150 617 320 
Q 494 491 444 738 
Q 409 903 409 1263 
L 409 3319 
L 972 3319 
L 972 1478 
Q 972 1038 1006 884 
Q 1059 663 1231 536 
Q 1403 409 1656 409 
Q 1909 409 2131 539 
Q 2353 669 2445 892 
Q 2538 1116 2538 1541 
L 2538 3319 
L 3100 3319 
L 3100 0 
L 2597 0 
z
" transform="scale(0.015625)"/>
     </defs>
     <use xlink:href="#ArialMT-22"/>
     <use xlink:href="#ArialMT-53" x="35.498047"/>
     <use xlink:href="#ArialMT-74" x="102.197266"/>
     <use xlink:href="#ArialMT-61" x="129.980469"/>
     <use xlink:href="#ArialMT-63" x="185.595703"/>
     <use xlink:href="#ArialMT-6b" x="235.595703"/>
     <use xlink:href="#ArialMT-69" x="285.595703"/>
     <use xlink:href="#ArialMT-6e" x="307.8125"/>
     <use xlink:href="#ArialMT-67" x="363.427734"/>
     <use xlink:href="#ArialMT-5f" x="419.042969"/>
     <use xlink:href="#ArialMT-65" x="474.658203"/>
     <use xlink:href="#ArialMT-6e" x="530.273438"/>
     <use xlink:href="#ArialMT-65" x="585.888672"/>
     <use xlink:href="#ArialMT-72" x="641.503906"/>
     <use xlink:href="#ArialMT-67" x="674.804688"/>
     <use xlink:href="#ArialMT-79" x="730.419922"/>
     <use xlink:href="#ArialMT-22" x="780.419922"/>
     <use xlink:href="#ArialMT-20" x="815.917969"/>
     <use xlink:href="#ArialMT-66" x="843.701172"/>
     <use xlink:href="#ArialMT-6f" x="871.484375"/>
     <use xlink:href="#ArialMT-72" x="927.099609"/>
     <use xlink:href="#ArialMT-20" x="960.400391"/>
     <use xlink:href="#ArialMT-64" x="988.183594"/>
     <use xlink:href="#ArialMT-61" x="1043.798828"/>
     <use xlink:href="#ArialMT-74" x="1099.414062"/>
     <use xlink:href="#ArialMT-61" x="1127.197266"/>
     <use xlink:href="#ArialMT-73" x="1182.8125"/>
     <use xlink:href="#ArialMT-65" x="1232.8125"/>
     <use xlink:href="#ArialMT-74" x="1288.427734"/>
     <use xlink:href="#ArialMT-20" x="1316.210938"/>
     <use xlink:href="#ArialMT-4d" x="1343.994141"/>
     <use xlink:href="#ArialMT-6f" x="1427.294922"/>
     <use xlink:href="#ArialMT-75" x="1482.910156"/>
     <use xlink:href="#ArialMT-73" x="1538.525391"/>
     <use xlink:href="#ArialMT-65" x="1588.525391"/>
     <use xlink:href="#ArialMT-5f" x="1644.140625"/>
     <use xlink:href="#ArialMT-6e" x="1699.755859"/>
     <use xlink:href="#ArialMT-6f" x="1755.371094"/>
     <use xlink:href="#ArialMT-6e" x="1810.986328"/>
     <use xlink:href="#ArialMT-5f" x="1866.601562"/>
     <use xlink:href="#ArialMT-74" x="1922.216797"/>
     <use xlink:href="#ArialMT-61" x="1950"/>
     <use xlink:href="#ArialMT-74" x="2005.615234"/>
     <use xlink:href="#ArialMT-61" x="2033.398438"/>
    </g>
   </g>
   <g id="legend_1">
    <g id="line2d_34">
     <path d="M 51.422813 34.593437 
L 61.422813 34.593437 
L 71.422813 34.593437 
" style="fill: none; stroke: #0272a2; stroke-width: 1.75; stroke-linecap: round"/>
    </g>
    <g id="text_35">
     <!-- Promoter -->
     <g style="fill: #262626" transform="translate(79.422813 38.093437) scale(0.1 -0.1)">
      <defs>
       <path id="ArialMT-6d" d="M 422 0 
L 422 3319 
L 925 3319 
L 925 2853 
Q 1081 3097 1340 3245 
Q 1600 3394 1931 3394 
Q 2300 3394 2536 3241 
Q 2772 3088 2869 2813 
Q 3263 3394 3894 3394 
Q 4388 3394 4653 3120 
Q 4919 2847 4919 2278 
L 4919 0 
L 4359 0 
L 4359 2091 
Q 4359 2428 4304 2576 
Q 4250 2725 4106 2815 
Q 3963 2906 3769 2906 
Q 3419 2906 3187 2673 
Q 2956 2441 2956 1928 
L 2956 0 
L 2394 0 
L 2394 2156 
Q 2394 2531 2256 2718 
Q 2119 2906 1806 2906 
Q 1569 2906 1367 2781 
Q 1166 2656 1075 2415 
Q 984 2175 984 1722 
L 984 0 
L 422 0 
z
" transform="scale(0.015625)"/>
      </defs>
      <use xlink:href="#ArialMT-50"/>
      <use xlink:href="#ArialMT-72" x="66.699219"/>
      <use xlink:href="#ArialMT-6f" x="100"/>
      <use xlink:href="#ArialMT-6d" x="155.615234"/>
      <use xlink:href="#ArialMT-6f" x="238.916016"/>
      <use xlink:href="#ArialMT-74" x="294.53125"/>
      <use xlink:href="#ArialMT-65" x="322.314453"/>
      <use xlink:href="#ArialMT-72" x="377.929688"/>
     </g>
    </g>
    <g id="line2d_35">
     <path d="M 51.422813 48.73875 
L 61.422813 48.73875 
L 71.422813 48.73875 
" style="fill: none; stroke-dasharray: 1.75,2.8875; stroke-dashoffset: 0; stroke: #9fc377; stroke-width: 1.75"/>
    </g>
    <g id="text_36">
     <!-- Non-promoter -->
     <g style="fill: #262626" transform="translate(79.422813 52.23875) scale(0.1 -0.1)">
      <defs>
       <path id="ArialMT-4e" d="M 488 0 
L 488 4581 
L 1109 4581 
L 3516 984 
L 3516 4581 
L 4097 4581 
L 4097 0 
L 3475 0 
L 1069 3600 
L 1069 0 
L 488 0 
z
" transform="scale(0.015625)"/>
       <path id="ArialMT-70" d="M 422 -1272 
L 422 3319 
L 934 3319 
L 934 2888 
Q 1116 3141 1344 3267 
Q 1572 3394 1897 3394 
Q 2322 3394 2647 3175 
Q 2972 2956 3137 2557 
Q 3303 2159 3303 1684 
Q 3303 1175 3120 767 
Q 2938 359 2589 142 
Q 2241 -75 1856 -75 
Q 1575 -75 1351 44 
Q 1128 163 984 344 
L 984 -1272 
L 422 -1272 
z
M 931 1641 
Q 931 1000 1190 694 
Q 1450 388 1819 388 
Q 2194 388 2461 705 
Q 2728 1022 2728 1688 
Q 2728 2322 2467 2637 
Q 2206 2953 1844 2953 
Q 1484 2953 1207 2617 
Q 931 2281 931 1641 
z
" transform="scale(0.015625)"/>
      </defs>
      <use xlink:href="#ArialMT-4e"/>
      <use xlink:href="#ArialMT-6f" x="72.216797"/>
      <use xlink:href="#ArialMT-6e" x="127.832031"/>
      <use xlink:href="#ArialMT-2d" x="183.447266"/>
      <use xlink:href="#ArialMT-70" x="216.748047"/>
      <use xlink:href="#ArialMT-72" x="272.363281"/>
      <use xlink:href="#ArialMT-6f" x="305.664062"/>
      <use xlink:href="#ArialMT-6d" x="361.279297"/>
      <use xlink:href="#ArialMT-6f" x="444.580078"/>
      <use xlink:href="#ArialMT-74" x="500.195312"/>
      <use xlink:href="#ArialMT-65" x="527.978516"/>
      <use xlink:href="#ArialMT-72" x="583.59375"/>
     </g>
    </g>
   </g>
  </g>
 </g>
 <defs>
  <clipPath id="p6f995972ff">
   <rect x="42.422813" y="21.935625" width="446.4" height="304.92"/>
  </clipPath>
 </defs>
</svg>
