<?xml version="1.0" encoding="utf-8" standalone="no"?>
<!DOCTYPE svg PUBLIC "-//W3C//DTD SVG 1.1//EN"
  "http://www.w3.org/Graphics/SVG/1.1/DTD/svg11.dtd">
<svg xmlns:xlink="http://www.w3.org/1999/xlink" width="501.58375pt" height="375.733156pt" viewBox="0 0 501.58375 375.733156" xmlns="http://www.w3.org/2000/svg" version="1.1">
 <metadata>
  <rdf:RDF xmlns:dc="http://purl.org/dc/elements/1.1/" xmlns:cc="http://creativecommons.org/ns#" xmlns:rdf="http://www.w3.org/1999/02/22-rdf-syntax-ns#">
   <cc:Work>
    <dc:type rdf:resource="http://purl.org/dc/dcmitype/StillImage"/>
    <dc:date>2023-05-11T16:25:56.715530</dc:date>
    <dc:format>image/svg+xml</dc:format>
    <dc:creator>
     <cc:Agent>
      <dc:title>Matplotlib v3.7.1, https://matplotlib.org/</dc:title>
     </cc:Agent>
    </dc:creator>
   </cc:Work>
  </rdf:RDF>
 </metadata>
 <defs>
  <style type="text/css">*{stroke-linejoin: round; stroke-linecap: butt}</style>
 </defs>
 <g id="figure_1">
  <g id="patch_1">
   <path d="M 0 375.733156 
L 501.58375 375.733156 
L 501.58375 0 
L 0 0 
z
" style="fill: #ffffff"/>
  </g>
  <g id="axes_1">
   <g id="patch_2">
    <path d="M 47.98375 326.855625 
L 494.38375 326.855625 
L 494.38375 21.935625 
L 47.98375 21.935625 
z
" style="fill: #ffffff"/>
   </g>
   <g id="matplotlib.axis_1">
    <g id="xtick_1">
     <g id="line2d_1"/>
     <g id="text_1">
      <!-- -200 -->
      <g style="fill: #262626" transform="translate(63.027153 353.067937) rotate(-45) scale(0.1 -0.1)">
       <defs>
        <path id="ArialMT-2d" d="M 203 1375 
L 203 1941 
L 1931 1941 
L 1931 1375 
L 203 1375 
z
" transform="scale(0.015625)"/>
        <path id="ArialMT-32" d="M 3222 541 
L 3222 0 
L 194 0 
Q 188 203 259 391 
Q 375 700 629 1000 
Q 884 1300 1366 1694 
Q 2113 2306 2375 2664 
Q 2638 3022 2638 3341 
Q 2638 3675 2398 3904 
Q 2159 4134 1775 4134 
Q 1369 4134 1125 3890 
Q 881 3647 878 3216 
L 300 3275 
Q 359 3922 746 4261 
Q 1134 4600 1788 4600 
Q 2447 4600 2831 4234 
Q 3216 3869 3216 3328 
Q 3216 3053 3103 2787 
Q 2991 2522 2730 2228 
Q 2469 1934 1863 1422 
Q 1356 997 1212 845 
Q 1069 694 975 541 
L 3222 541 
z
" transform="scale(0.015625)"/>
        <path id="ArialMT-30" d="M 266 2259 
Q 266 3072 433 3567 
Q 600 4063 929 4331 
Q 1259 4600 1759 4600 
Q 2128 4600 2406 4451 
Q 2684 4303 2865 4023 
Q 3047 3744 3150 3342 
Q 3253 2941 3253 2259 
Q 3253 1453 3087 958 
Q 2922 463 2592 192 
Q 2263 -78 1759 -78 
Q 1097 -78 719 397 
Q 266 969 266 2259 
z
M 844 2259 
Q 844 1131 1108 757 
Q 1372 384 1759 384 
Q 2147 384 2411 759 
Q 2675 1134 2675 2259 
Q 2675 3391 2411 3762 
Q 2147 4134 1753 4134 
Q 1366 4134 1134 3806 
Q 844 3388 844 2259 
z
" transform="scale(0.015625)"/>
       </defs>
       <use xlink:href="#ArialMT-2d"/>
       <use xlink:href="#ArialMT-32" x="33.300781"/>
       <use xlink:href="#ArialMT-30" x="88.916016"/>
       <use xlink:href="#ArialMT-30" x="144.53125"/>
      </g>
     </g>
    </g>
    <g id="xtick_2">
     <g id="line2d_2"/>
     <g id="text_2">
      <!-- -190 -->
      <g style="fill: #262626" transform="translate(79.325072 353.067937) rotate(-45) scale(0.1 -0.1)">
       <defs>
        <path id="ArialMT-31" d="M 2384 0 
L 1822 0 
L 1822 3584 
Q 1619 3391 1289 3197 
Q 959 3003 697 2906 
L 697 3450 
Q 1169 3672 1522 3987 
Q 1875 4303 2022 4600 
L 2384 4600 
L 2384 0 
z
" transform="scale(0.015625)"/>
        <path id="ArialMT-39" d="M 350 1059 
L 891 1109 
Q 959 728 1153 556 
Q 1347 384 1650 384 
Q 1909 384 2104 503 
Q 2300 622 2425 820 
Q 2550 1019 2634 1356 
Q 2719 1694 2719 2044 
Q 2719 2081 2716 2156 
Q 2547 1888 2255 1720 
Q 1963 1553 1622 1553 
Q 1053 1553 659 1965 
Q 266 2378 266 3053 
Q 266 3750 677 4175 
Q 1088 4600 1706 4600 
Q 2153 4600 2523 4359 
Q 2894 4119 3086 3673 
Q 3278 3228 3278 2384 
Q 3278 1506 3087 986 
Q 2897 466 2520 194 
Q 2144 -78 1638 -78 
Q 1100 -78 759 220 
Q 419 519 350 1059 
z
M 2653 3081 
Q 2653 3566 2395 3850 
Q 2138 4134 1775 4134 
Q 1400 4134 1122 3828 
Q 844 3522 844 3034 
Q 844 2597 1108 2323 
Q 1372 2050 1759 2050 
Q 2150 2050 2401 2323 
Q 2653 2597 2653 3081 
z
" transform="scale(0.015625)"/>
       </defs>
       <use xlink:href="#ArialMT-2d"/>
       <use xlink:href="#ArialMT-31" x="33.300781"/>
       <use xlink:href="#ArialMT-39" x="88.916016"/>
       <use xlink:href="#ArialMT-30" x="144.53125"/>
      </g>
     </g>
    </g>
    <g id="xtick_3">
     <g id="line2d_3"/>
     <g id="text_3">
      <!-- -180 -->
      <g style="fill: #262626" transform="translate(95.622991 353.067937) rotate(-45) scale(0.1 -0.1)">
       <defs>
        <path id="ArialMT-38" d="M 1131 2484 
Q 781 2613 612 2850 
Q 444 3088 444 3419 
Q 444 3919 803 4259 
Q 1163 4600 1759 4600 
Q 2359 4600 2725 4251 
Q 3091 3903 3091 3403 
Q 3091 3084 2923 2848 
Q 2756 2613 2416 2484 
Q 2838 2347 3058 2040 
Q 3278 1734 3278 1309 
Q 3278 722 2862 322 
Q 2447 -78 1769 -78 
Q 1091 -78 675 323 
Q 259 725 259 1325 
Q 259 1772 486 2073 
Q 713 2375 1131 2484 
z
M 1019 3438 
Q 1019 3113 1228 2906 
Q 1438 2700 1772 2700 
Q 2097 2700 2305 2904 
Q 2513 3109 2513 3406 
Q 2513 3716 2298 3927 
Q 2084 4138 1766 4138 
Q 1444 4138 1231 3931 
Q 1019 3725 1019 3438 
z
M 838 1322 
Q 838 1081 952 856 
Q 1066 631 1291 507 
Q 1516 384 1775 384 
Q 2178 384 2440 643 
Q 2703 903 2703 1303 
Q 2703 1709 2433 1975 
Q 2163 2241 1756 2241 
Q 1359 2241 1098 1978 
Q 838 1716 838 1322 
z
" transform="scale(0.015625)"/>
       </defs>
       <use xlink:href="#ArialMT-2d"/>
       <use xlink:href="#ArialMT-31" x="33.300781"/>
       <use xlink:href="#ArialMT-38" x="88.916016"/>
       <use xlink:href="#ArialMT-30" x="144.53125"/>
      </g>
     </g>
    </g>
    <g id="xtick_4">
     <g id="line2d_4"/>
     <g id="text_4">
      <!-- -170 -->
      <g style="fill: #262626" transform="translate(111.92091 353.067937) rotate(-45) scale(0.1 -0.1)">
       <defs>
        <path id="ArialMT-37" d="M 303 3981 
L 303 4522 
L 3269 4522 
L 3269 4084 
Q 2831 3619 2401 2847 
Q 1972 2075 1738 1259 
Q 1569 684 1522 0 
L 944 0 
Q 953 541 1156 1306 
Q 1359 2072 1739 2783 
Q 2119 3494 2547 3981 
L 303 3981 
z
" transform="scale(0.015625)"/>
       </defs>
       <use xlink:href="#ArialMT-2d"/>
       <use xlink:href="#ArialMT-31" x="33.300781"/>
       <use xlink:href="#ArialMT-37" x="88.916016"/>
       <use xlink:href="#ArialMT-30" x="144.53125"/>
      </g>
     </g>
    </g>
    <g id="xtick_5">
     <g id="line2d_5"/>
     <g id="text_5">
      <!-- -160 -->
      <g style="fill: #262626" transform="translate(128.218829 353.067937) rotate(-45) scale(0.1 -0.1)">
       <defs>
        <path id="ArialMT-36" d="M 3184 3459 
L 2625 3416 
Q 2550 3747 2413 3897 
Q 2184 4138 1850 4138 
Q 1581 4138 1378 3988 
Q 1113 3794 959 3422 
Q 806 3050 800 2363 
Q 1003 2672 1297 2822 
Q 1591 2972 1913 2972 
Q 2475 2972 2870 2558 
Q 3266 2144 3266 1488 
Q 3266 1056 3080 686 
Q 2894 316 2569 119 
Q 2244 -78 1831 -78 
Q 1128 -78 684 439 
Q 241 956 241 2144 
Q 241 3472 731 4075 
Q 1159 4600 1884 4600 
Q 2425 4600 2770 4297 
Q 3116 3994 3184 3459 
z
M 888 1484 
Q 888 1194 1011 928 
Q 1134 663 1356 523 
Q 1578 384 1822 384 
Q 2178 384 2434 671 
Q 2691 959 2691 1453 
Q 2691 1928 2437 2201 
Q 2184 2475 1800 2475 
Q 1419 2475 1153 2201 
Q 888 1928 888 1484 
z
" transform="scale(0.015625)"/>
       </defs>
       <use xlink:href="#ArialMT-2d"/>
       <use xlink:href="#ArialMT-31" x="33.300781"/>
       <use xlink:href="#ArialMT-36" x="88.916016"/>
       <use xlink:href="#ArialMT-30" x="144.53125"/>
      </g>
     </g>
    </g>
    <g id="xtick_6">
     <g id="line2d_6"/>
     <g id="text_6">
      <!-- -150 -->
      <g style="fill: #262626" transform="translate(144.516748 353.067937) rotate(-45) scale(0.1 -0.1)">
       <defs>
        <path id="ArialMT-35" d="M 266 1200 
L 856 1250 
Q 922 819 1161 601 
Q 1400 384 1738 384 
Q 2144 384 2425 690 
Q 2706 997 2706 1503 
Q 2706 1984 2436 2262 
Q 2166 2541 1728 2541 
Q 1456 2541 1237 2417 
Q 1019 2294 894 2097 
L 366 2166 
L 809 4519 
L 3088 4519 
L 3088 3981 
L 1259 3981 
L 1013 2750 
Q 1425 3038 1878 3038 
Q 2478 3038 2890 2622 
Q 3303 2206 3303 1553 
Q 3303 931 2941 478 
Q 2500 -78 1738 -78 
Q 1113 -78 717 272 
Q 322 622 266 1200 
z
" transform="scale(0.015625)"/>
       </defs>
       <use xlink:href="#ArialMT-2d"/>
       <use xlink:href="#ArialMT-31" x="33.300781"/>
       <use xlink:href="#ArialMT-35" x="88.916016"/>
       <use xlink:href="#ArialMT-30" x="144.53125"/>
      </g>
     </g>
    </g>
    <g id="xtick_7">
     <g id="line2d_7"/>
     <g id="text_7">
      <!-- -140 -->
      <g style="fill: #262626" transform="translate(160.814667 353.067937) rotate(-45) scale(0.1 -0.1)">
       <defs>
        <path id="ArialMT-34" d="M 2069 0 
L 2069 1097 
L 81 1097 
L 81 1613 
L 2172 4581 
L 2631 4581 
L 2631 1613 
L 3250 1613 
L 3250 1097 
L 2631 1097 
L 2631 0 
L 2069 0 
z
M 2069 1613 
L 2069 3678 
L 634 1613 
L 2069 1613 
z
" transform="scale(0.015625)"/>
       </defs>
       <use xlink:href="#ArialMT-2d"/>
       <use xlink:href="#ArialMT-31" x="33.300781"/>
       <use xlink:href="#ArialMT-34" x="88.916016"/>
       <use xlink:href="#ArialMT-30" x="144.53125"/>
      </g>
     </g>
    </g>
    <g id="xtick_8">
     <g id="line2d_8"/>
     <g id="text_8">
      <!-- -130 -->
      <g style="fill: #262626" transform="translate(177.112586 353.067937) rotate(-45) scale(0.1 -0.1)">
       <defs>
        <path id="ArialMT-33" d="M 269 1209 
L 831 1284 
Q 928 806 1161 595 
Q 1394 384 1728 384 
Q 2125 384 2398 659 
Q 2672 934 2672 1341 
Q 2672 1728 2419 1979 
Q 2166 2231 1775 2231 
Q 1616 2231 1378 2169 
L 1441 2663 
Q 1497 2656 1531 2656 
Q 1891 2656 2178 2843 
Q 2466 3031 2466 3422 
Q 2466 3731 2256 3934 
Q 2047 4138 1716 4138 
Q 1388 4138 1169 3931 
Q 950 3725 888 3313 
L 325 3413 
Q 428 3978 793 4289 
Q 1159 4600 1703 4600 
Q 2078 4600 2393 4439 
Q 2709 4278 2876 4000 
Q 3044 3722 3044 3409 
Q 3044 3113 2884 2869 
Q 2725 2625 2413 2481 
Q 2819 2388 3044 2092 
Q 3269 1797 3269 1353 
Q 3269 753 2831 336 
Q 2394 -81 1725 -81 
Q 1122 -81 723 278 
Q 325 638 269 1209 
z
" transform="scale(0.015625)"/>
       </defs>
       <use xlink:href="#ArialMT-2d"/>
       <use xlink:href="#ArialMT-31" x="33.300781"/>
       <use xlink:href="#ArialMT-33" x="88.916016"/>
       <use xlink:href="#ArialMT-30" x="144.53125"/>
      </g>
     </g>
    </g>
    <g id="xtick_9">
     <g id="line2d_9"/>
     <g id="text_9">
      <!-- -120 -->
      <g style="fill: #262626" transform="translate(193.410505 353.067937) rotate(-45) scale(0.1 -0.1)">
       <use xlink:href="#ArialMT-2d"/>
       <use xlink:href="#ArialMT-31" x="33.300781"/>
       <use xlink:href="#ArialMT-32" x="88.916016"/>
       <use xlink:href="#ArialMT-30" x="144.53125"/>
      </g>
     </g>
    </g>
    <g id="xtick_10">
     <g id="line2d_10"/>
     <g id="text_10">
      <!-- -110 -->
      <g style="fill: #262626" transform="translate(209.96917 352.546446) rotate(-45) scale(0.1 -0.1)">
       <use xlink:href="#ArialMT-2d"/>
       <use xlink:href="#ArialMT-31" x="33.300781"/>
       <use xlink:href="#ArialMT-31" x="81.541016"/>
       <use xlink:href="#ArialMT-30" x="137.15625"/>
      </g>
     </g>
    </g>
    <g id="xtick_11">
     <g id="line2d_11"/>
     <g id="text_11">
      <!-- -100 -->
      <g style="fill: #262626" transform="translate(226.006343 353.067937) rotate(-45) scale(0.1 -0.1)">
       <use xlink:href="#ArialMT-2d"/>
       <use xlink:href="#ArialMT-31" x="33.300781"/>
       <use xlink:href="#ArialMT-30" x="88.916016"/>
       <use xlink:href="#ArialMT-30" x="144.53125"/>
      </g>
     </g>
    </g>
    <g id="xtick_12">
     <g id="line2d_12"/>
     <g id="text_12">
      <!-- -90 -->
      <g style="fill: #262626" transform="translate(244.27035 349.135761) rotate(-45) scale(0.1 -0.1)">
       <use xlink:href="#ArialMT-2d"/>
       <use xlink:href="#ArialMT-39" x="33.300781"/>
       <use xlink:href="#ArialMT-30" x="88.916016"/>
      </g>
     </g>
    </g>
    <g id="xtick_13">
     <g id="line2d_13"/>
     <g id="text_13">
      <!-- -80 -->
      <g style="fill: #262626" transform="translate(260.568269 349.135761) rotate(-45) scale(0.1 -0.1)">
       <use xlink:href="#ArialMT-2d"/>
       <use xlink:href="#ArialMT-38" x="33.300781"/>
       <use xlink:href="#ArialMT-30" x="88.916016"/>
      </g>
     </g>
    </g>
    <g id="xtick_14">
     <g id="line2d_14"/>
     <g id="text_14">
      <!-- -70 -->
      <g style="fill: #262626" transform="translate(276.866188 349.135761) rotate(-45) scale(0.1 -0.1)">
       <use xlink:href="#ArialMT-2d"/>
       <use xlink:href="#ArialMT-37" x="33.300781"/>
       <use xlink:href="#ArialMT-30" x="88.916016"/>
      </g>
     </g>
    </g>
    <g id="xtick_15">
     <g id="line2d_15"/>
     <g id="text_15">
      <!-- -60 -->
      <g style="fill: #262626" transform="translate(293.164107 349.135761) rotate(-45) scale(0.1 -0.1)">
       <use xlink:href="#ArialMT-2d"/>
       <use xlink:href="#ArialMT-36" x="33.300781"/>
       <use xlink:href="#ArialMT-30" x="88.916016"/>
      </g>
     </g>
    </g>
    <g id="xtick_16">
     <g id="line2d_16"/>
     <g id="text_16">
      <!-- -50 -->
      <g style="fill: #262626" transform="translate(309.462026 349.135761) rotate(-45) scale(0.1 -0.1)">
       <use xlink:href="#ArialMT-2d"/>
       <use xlink:href="#ArialMT-35" x="33.300781"/>
       <use xlink:href="#ArialMT-30" x="88.916016"/>
      </g>
     </g>
    </g>
    <g id="xtick_17">
     <g id="line2d_17"/>
     <g id="text_17">
      <!-- -40 -->
      <g style="fill: #262626" transform="translate(325.759945 349.135761) rotate(-45) scale(0.1 -0.1)">
       <use xlink:href="#ArialMT-2d"/>
       <use xlink:href="#ArialMT-34" x="33.300781"/>
       <use xlink:href="#ArialMT-30" x="88.916016"/>
      </g>
     </g>
    </g>
    <g id="xtick_18">
     <g id="line2d_18"/>
     <g id="text_18">
      <!-- -30 -->
      <g style="fill: #262626" transform="translate(342.057864 349.135761) rotate(-45) scale(0.1 -0.1)">
       <use xlink:href="#ArialMT-2d"/>
       <use xlink:href="#ArialMT-33" x="33.300781"/>
       <use xlink:href="#ArialMT-30" x="88.916016"/>
      </g>
     </g>
    </g>
    <g id="xtick_19">
     <g id="line2d_19"/>
     <g id="text_19">
      <!-- -20 -->
      <g style="fill: #262626" transform="translate(358.355783 349.135761) rotate(-45) scale(0.1 -0.1)">
       <use xlink:href="#ArialMT-2d"/>
       <use xlink:href="#ArialMT-32" x="33.300781"/>
       <use xlink:href="#ArialMT-30" x="88.916016"/>
      </g>
     </g>
    </g>
    <g id="xtick_20">
     <g id="line2d_20"/>
     <g id="text_20">
      <!-- -10 -->
      <g style="fill: #262626" transform="translate(374.653702 349.135761) rotate(-45) scale(0.1 -0.1)">
       <use xlink:href="#ArialMT-2d"/>
       <use xlink:href="#ArialMT-31" x="33.300781"/>
       <use xlink:href="#ArialMT-30" x="88.916016"/>
      </g>
     </g>
    </g>
    <g id="xtick_21">
     <g id="line2d_21"/>
     <g id="text_21">
      <!-- 0 -->
      <g style="fill: #262626" transform="translate(394.094931 342.849139) rotate(-45) scale(0.1 -0.1)">
       <use xlink:href="#ArialMT-30"/>
      </g>
     </g>
    </g>
    <g id="xtick_22">
     <g id="line2d_22"/>
     <g id="text_22">
      <!-- 10 -->
      <g style="fill: #262626" transform="translate(408.426762 346.781316) rotate(-45) scale(0.1 -0.1)">
       <use xlink:href="#ArialMT-31"/>
       <use xlink:href="#ArialMT-30" x="55.615234"/>
      </g>
     </g>
    </g>
    <g id="xtick_23">
     <g id="line2d_23"/>
     <g id="text_23">
      <!-- 20 -->
      <g style="fill: #262626" transform="translate(424.724681 346.781316) rotate(-45) scale(0.1 -0.1)">
       <use xlink:href="#ArialMT-32"/>
       <use xlink:href="#ArialMT-30" x="55.615234"/>
      </g>
     </g>
    </g>
    <g id="xtick_24">
     <g id="line2d_24"/>
     <g id="text_24">
      <!-- 30 -->
      <g style="fill: #262626" transform="translate(441.0226 346.781316) rotate(-45) scale(0.1 -0.1)">
       <use xlink:href="#ArialMT-33"/>
       <use xlink:href="#ArialMT-30" x="55.615234"/>
      </g>
     </g>
    </g>
    <g id="xtick_25">
     <g id="line2d_25"/>
     <g id="text_25">
      <!-- 40 -->
      <g style="fill: #262626" transform="translate(457.320519 346.781316) rotate(-45) scale(0.1 -0.1)">
       <use xlink:href="#ArialMT-34"/>
       <use xlink:href="#ArialMT-30" x="55.615234"/>
      </g>
     </g>
    </g>
    <g id="xtick_26">
     <g id="line2d_26"/>
     <g id="text_26">
      <!-- 50 -->
      <g style="fill: #262626" transform="translate(473.618438 346.781316) rotate(-45) scale(0.1 -0.1)">
       <use xlink:href="#ArialMT-35"/>
       <use xlink:href="#ArialMT-30" x="55.615234"/>
      </g>
     </g>
    </g>
    <g id="text_27">
     <!-- Position -->
     <g style="fill: #262626" transform="translate(251.6175 366.346906) scale(0.11 -0.11)">
      <defs>
       <path id="ArialMT-50" d="M 494 0 
L 494 4581 
L 2222 4581 
Q 2678 4581 2919 4538 
Q 3256 4481 3484 4323 
Q 3713 4166 3852 3881 
Q 3991 3597 3991 3256 
Q 3991 2672 3619 2267 
Q 3247 1863 2275 1863 
L 1100 1863 
L 1100 0 
L 494 0 
z
M 1100 2403 
L 2284 2403 
Q 2872 2403 3119 2622 
Q 3366 2841 3366 3238 
Q 3366 3525 3220 3729 
Q 3075 3934 2838 4000 
Q 2684 4041 2272 4041 
L 1100 4041 
L 1100 2403 
z
" transform="scale(0.015625)"/>
       <path id="ArialMT-6f" d="M 213 1659 
Q 213 2581 725 3025 
Q 1153 3394 1769 3394 
Q 2453 3394 2887 2945 
Q 3322 2497 3322 1706 
Q 3322 1066 3130 698 
Q 2938 331 2570 128 
Q 2203 -75 1769 -75 
Q 1072 -75 642 372 
Q 213 819 213 1659 
z
M 791 1659 
Q 791 1022 1069 705 
Q 1347 388 1769 388 
Q 2188 388 2466 706 
Q 2744 1025 2744 1678 
Q 2744 2294 2464 2611 
Q 2184 2928 1769 2928 
Q 1347 2928 1069 2612 
Q 791 2297 791 1659 
z
" transform="scale(0.015625)"/>
       <path id="ArialMT-73" d="M 197 991 
L 753 1078 
Q 800 744 1014 566 
Q 1228 388 1613 388 
Q 2000 388 2187 545 
Q 2375 703 2375 916 
Q 2375 1106 2209 1216 
Q 2094 1291 1634 1406 
Q 1016 1563 777 1677 
Q 538 1791 414 1992 
Q 291 2194 291 2438 
Q 291 2659 392 2848 
Q 494 3038 669 3163 
Q 800 3259 1026 3326 
Q 1253 3394 1513 3394 
Q 1903 3394 2198 3281 
Q 2494 3169 2634 2976 
Q 2775 2784 2828 2463 
L 2278 2388 
Q 2241 2644 2061 2787 
Q 1881 2931 1553 2931 
Q 1166 2931 1000 2803 
Q 834 2675 834 2503 
Q 834 2394 903 2306 
Q 972 2216 1119 2156 
Q 1203 2125 1616 2013 
Q 2213 1853 2448 1751 
Q 2684 1650 2818 1456 
Q 2953 1263 2953 975 
Q 2953 694 2789 445 
Q 2625 197 2315 61 
Q 2006 -75 1616 -75 
Q 969 -75 630 194 
Q 291 463 197 991 
z
" transform="scale(0.015625)"/>
       <path id="ArialMT-69" d="M 425 3934 
L 425 4581 
L 988 4581 
L 988 3934 
L 425 3934 
z
M 425 0 
L 425 3319 
L 988 3319 
L 988 0 
L 425 0 
z
" transform="scale(0.015625)"/>
       <path id="ArialMT-74" d="M 1650 503 
L 1731 6 
Q 1494 -44 1306 -44 
Q 1000 -44 831 53 
Q 663 150 594 308 
Q 525 466 525 972 
L 525 2881 
L 113 2881 
L 113 3319 
L 525 3319 
L 525 4141 
L 1084 4478 
L 1084 3319 
L 1650 3319 
L 1650 2881 
L 1084 2881 
L 1084 941 
Q 1084 700 1114 631 
Q 1144 563 1211 522 
Q 1278 481 1403 481 
Q 1497 481 1650 503 
z
" transform="scale(0.015625)"/>
       <path id="ArialMT-6e" d="M 422 0 
L 422 3319 
L 928 3319 
L 928 2847 
Q 1294 3394 1984 3394 
Q 2284 3394 2536 3286 
Q 2788 3178 2913 3003 
Q 3038 2828 3088 2588 
Q 3119 2431 3119 2041 
L 3119 0 
L 2556 0 
L 2556 2019 
Q 2556 2363 2490 2533 
Q 2425 2703 2258 2804 
Q 2091 2906 1866 2906 
Q 1506 2906 1245 2678 
Q 984 2450 984 1813 
L 984 0 
L 422 0 
z
" transform="scale(0.015625)"/>
      </defs>
      <use xlink:href="#ArialMT-50"/>
      <use xlink:href="#ArialMT-6f" x="66.699219"/>
      <use xlink:href="#ArialMT-73" x="122.314453"/>
      <use xlink:href="#ArialMT-69" x="172.314453"/>
      <use xlink:href="#ArialMT-74" x="194.53125"/>
      <use xlink:href="#ArialMT-69" x="222.314453"/>
      <use xlink:href="#ArialMT-6f" x="244.53125"/>
      <use xlink:href="#ArialMT-6e" x="300.146484"/>
     </g>
    </g>
   </g>
   <g id="matplotlib.axis_2">
    <g id="ytick_1">
     <g id="line2d_27"/>
     <g id="text_28">
      <!-- 21.5 -->
      <g style="fill: #262626" transform="translate(21.522813 288.270634) scale(0.1 -0.1)">
       <defs>
        <path id="ArialMT-2e" d="M 581 0 
L 581 641 
L 1222 641 
L 1222 0 
L 581 0 
z
" transform="scale(0.015625)"/>
       </defs>
       <use xlink:href="#ArialMT-32"/>
       <use xlink:href="#ArialMT-31" x="55.615234"/>
       <use xlink:href="#ArialMT-2e" x="111.230469"/>
       <use xlink:href="#ArialMT-35" x="139.013672"/>
      </g>
     </g>
    </g>
    <g id="ytick_2">
     <g id="line2d_28"/>
     <g id="text_29">
      <!-- 22.0 -->
      <g style="fill: #262626" transform="translate(21.522813 243.850915) scale(0.1 -0.1)">
       <use xlink:href="#ArialMT-32"/>
       <use xlink:href="#ArialMT-32" x="55.615234"/>
       <use xlink:href="#ArialMT-2e" x="111.230469"/>
       <use xlink:href="#ArialMT-30" x="139.013672"/>
      </g>
     </g>
    </g>
    <g id="ytick_3">
     <g id="line2d_29"/>
     <g id="text_30">
      <!-- 22.5 -->
      <g style="fill: #262626" transform="translate(21.522813 199.431195) scale(0.1 -0.1)">
       <use xlink:href="#ArialMT-32"/>
       <use xlink:href="#ArialMT-32" x="55.615234"/>
       <use xlink:href="#ArialMT-2e" x="111.230469"/>
       <use xlink:href="#ArialMT-35" x="139.013672"/>
      </g>
     </g>
    </g>
    <g id="ytick_4">
     <g id="line2d_30"/>
     <g id="text_31">
      <!-- 23.0 -->
      <g style="fill: #262626" transform="translate(21.522813 155.011476) scale(0.1 -0.1)">
       <use xlink:href="#ArialMT-32"/>
       <use xlink:href="#ArialMT-33" x="55.615234"/>
       <use xlink:href="#ArialMT-2e" x="111.230469"/>
       <use xlink:href="#ArialMT-30" x="139.013672"/>
      </g>
     </g>
    </g>
    <g id="ytick_5">
     <g id="line2d_31"/>
     <g id="text_32">
      <!-- 23.5 -->
      <g style="fill: #262626" transform="translate(21.522813 110.591757) scale(0.1 -0.1)">
       <use xlink:href="#ArialMT-32"/>
       <use xlink:href="#ArialMT-33" x="55.615234"/>
       <use xlink:href="#ArialMT-2e" x="111.230469"/>
       <use xlink:href="#ArialMT-35" x="139.013672"/>
      </g>
     </g>
    </g>
    <g id="ytick_6">
     <g id="line2d_32"/>
     <g id="text_33">
      <!-- 24.0 -->
      <g style="fill: #262626" transform="translate(21.522813 66.172037) scale(0.1 -0.1)">
       <use xlink:href="#ArialMT-32"/>
       <use xlink:href="#ArialMT-34" x="55.615234"/>
       <use xlink:href="#ArialMT-2e" x="111.230469"/>
       <use xlink:href="#ArialMT-30" x="139.013672"/>
      </g>
     </g>
    </g>
    <g id="text_34">
     <!-- Sugimoto_dS -->
     <g style="fill: #262626" transform="translate(15.207656 207.415391) rotate(-90) scale(0.11 -0.11)">
      <defs>
       <path id="ArialMT-53" d="M 288 1472 
L 859 1522 
Q 900 1178 1048 958 
Q 1197 738 1509 602 
Q 1822 466 2213 466 
Q 2559 466 2825 569 
Q 3091 672 3220 851 
Q 3350 1031 3350 1244 
Q 3350 1459 3225 1620 
Q 3100 1781 2813 1891 
Q 2628 1963 1997 2114 
Q 1366 2266 1113 2400 
Q 784 2572 623 2826 
Q 463 3081 463 3397 
Q 463 3744 659 4045 
Q 856 4347 1234 4503 
Q 1613 4659 2075 4659 
Q 2584 4659 2973 4495 
Q 3363 4331 3572 4012 
Q 3781 3694 3797 3291 
L 3216 3247 
Q 3169 3681 2898 3903 
Q 2628 4125 2100 4125 
Q 1550 4125 1298 3923 
Q 1047 3722 1047 3438 
Q 1047 3191 1225 3031 
Q 1400 2872 2139 2705 
Q 2878 2538 3153 2413 
Q 3553 2228 3743 1945 
Q 3934 1663 3934 1294 
Q 3934 928 3725 604 
Q 3516 281 3123 101 
Q 2731 -78 2241 -78 
Q 1619 -78 1198 103 
Q 778 284 539 648 
Q 300 1013 288 1472 
z
" transform="scale(0.015625)"/>
       <path id="ArialMT-75" d="M 2597 0 
L 2597 488 
Q 2209 -75 1544 -75 
Q 1250 -75 995 37 
Q 741 150 617 320 
Q 494 491 444 738 
Q 409 903 409 1263 
L 409 3319 
L 972 3319 
L 972 1478 
Q 972 1038 1006 884 
Q 1059 663 1231 536 
Q 1403 409 1656 409 
Q 1909 409 2131 539 
Q 2353 669 2445 892 
Q 2538 1116 2538 1541 
L 2538 3319 
L 3100 3319 
L 3100 0 
L 2597 0 
z
" transform="scale(0.015625)"/>
       <path id="ArialMT-67" d="M 319 -275 
L 866 -356 
Q 900 -609 1056 -725 
Q 1266 -881 1628 -881 
Q 2019 -881 2231 -725 
Q 2444 -569 2519 -288 
Q 2563 -116 2559 434 
Q 2191 0 1641 0 
Q 956 0 581 494 
Q 206 988 206 1678 
Q 206 2153 378 2554 
Q 550 2956 876 3175 
Q 1203 3394 1644 3394 
Q 2231 3394 2613 2919 
L 2613 3319 
L 3131 3319 
L 3131 450 
Q 3131 -325 2973 -648 
Q 2816 -972 2473 -1159 
Q 2131 -1347 1631 -1347 
Q 1038 -1347 672 -1080 
Q 306 -813 319 -275 
z
M 784 1719 
Q 784 1066 1043 766 
Q 1303 466 1694 466 
Q 2081 466 2343 764 
Q 2606 1063 2606 1700 
Q 2606 2309 2336 2618 
Q 2066 2928 1684 2928 
Q 1309 2928 1046 2623 
Q 784 2319 784 1719 
z
" transform="scale(0.015625)"/>
       <path id="ArialMT-6d" d="M 422 0 
L 422 3319 
L 925 3319 
L 925 2853 
Q 1081 3097 1340 3245 
Q 1600 3394 1931 3394 
Q 2300 3394 2536 3241 
Q 2772 3088 2869 2813 
Q 3263 3394 3894 3394 
Q 4388 3394 4653 3120 
Q 4919 2847 4919 2278 
L 4919 0 
L 4359 0 
L 4359 2091 
Q 4359 2428 4304 2576 
Q 4250 2725 4106 2815 
Q 3963 2906 3769 2906 
Q 3419 2906 3187 2673 
Q 2956 2441 2956 1928 
L 2956 0 
L 2394 0 
L 2394 2156 
Q 2394 2531 2256 2718 
Q 2119 2906 1806 2906 
Q 1569 2906 1367 2781 
Q 1166 2656 1075 2415 
Q 984 2175 984 1722 
L 984 0 
L 422 0 
z
" transform="scale(0.015625)"/>
       <path id="ArialMT-5f" d="M -97 -1272 
L -97 -866 
L 3631 -866 
L 3631 -1272 
L -97 -1272 
z
" transform="scale(0.015625)"/>
       <path id="ArialMT-64" d="M 2575 0 
L 2575 419 
Q 2259 -75 1647 -75 
Q 1250 -75 917 144 
Q 584 363 401 755 
Q 219 1147 219 1656 
Q 219 2153 384 2558 
Q 550 2963 881 3178 
Q 1213 3394 1622 3394 
Q 1922 3394 2156 3267 
Q 2391 3141 2538 2938 
L 2538 4581 
L 3097 4581 
L 3097 0 
L 2575 0 
z
M 797 1656 
Q 797 1019 1065 703 
Q 1334 388 1700 388 
Q 2069 388 2326 689 
Q 2584 991 2584 1609 
Q 2584 2291 2321 2609 
Q 2059 2928 1675 2928 
Q 1300 2928 1048 2622 
Q 797 2316 797 1656 
z
" transform="scale(0.015625)"/>
      </defs>
      <use xlink:href="#ArialMT-53"/>
      <use xlink:href="#ArialMT-75" x="66.699219"/>
      <use xlink:href="#ArialMT-67" x="122.314453"/>
      <use xlink:href="#ArialMT-69" x="177.929688"/>
      <use xlink:href="#ArialMT-6d" x="200.146484"/>
      <use xlink:href="#ArialMT-6f" x="283.447266"/>
      <use xlink:href="#ArialMT-74" x="339.0625"/>
      <use xlink:href="#ArialMT-6f" x="366.845703"/>
      <use xlink:href="#ArialMT-5f" x="422.460938"/>
      <use xlink:href="#ArialMT-64" x="478.076172"/>
      <use xlink:href="#ArialMT-53" x="533.691406"/>
     </g>
    </g>
   </g>
   <g id="line2d_33">
    <path d="M 68.274659 146.992507 
L 69.904451 148.905368 
L 71.534243 151.159772 
L 73.164035 145.565227 
L 74.793827 147.727971 
L 78.05341 152.728906 
L 79.683202 151.043014 
L 82.942786 144.8625 
L 84.572578 143.359927 
L 86.20237 146.269047 
L 87.832162 149.851432 
L 91.091746 143.363747 
L 92.721538 144.947067 
L 94.351329 140.114175 
L 95.981121 143.539429 
L 97.610913 139.168111 
L 99.240705 141.52345 
L 100.870497 146.563123 
L 102.500289 144.632258 
L 104.130081 141.421424 
L 105.759873 146.801003 
L 107.389665 146.599132 
L 109.019456 137.376373 
L 110.649248 137.497496 
L 112.27904 139.177932 
L 113.908832 139.127192 
L 115.538624 136.44886 
L 117.168416 136.938805 
L 118.798208 138.165305 
L 120.428 132.397807 
L 122.057792 131.57232 
L 123.687584 137.794846 
L 125.317375 131.293521 
L 126.947167 134.318306 
L 128.576959 139.105913 
L 130.206751 132.629686 
L 131.836543 132.903575 
L 133.466335 133.619397 
L 135.096127 132.131011 
L 136.725919 134.566553 
L 138.355711 134.887909 
L 139.985502 136.619631 
L 141.615294 136.517059 
L 143.245086 130.827036 
L 144.874878 135.101237 
L 146.50467 129.075672 
L 148.134462 130.56515 
L 149.764254 126.936934 
L 151.394046 131.217137 
L 153.023838 129.970995 
L 154.65363 129.637636 
L 156.283421 126.420255 
L 157.913213 123.478945 
L 159.543005 127.230465 
L 161.172797 123.932336 
L 162.802589 125.690247 
L 164.432381 130.701549 
L 166.062173 127.036233 
L 167.691965 128.095235 
L 169.321757 120.381595 
L 170.951548 120.259382 
L 172.58134 120.922827 
L 174.211132 122.900068 
L 175.840924 118.292507 
L 177.470716 123.948704 
L 179.100508 123.806849 
L 180.7303 119.609031 
L 183.989884 120.68822 
L 185.619676 114.95946 
L 187.249467 116.462032 
L 188.879259 116.557511 
L 190.509051 117.136934 
L 192.138843 115.74621 
L 193.768635 116.523684 
L 195.398427 110.279335 
L 197.028219 111.812461 
L 198.658011 114.940364 
L 200.287803 120.246288 
L 201.917594 114.941455 
L 203.547386 113.588376 
L 205.177178 114.310746 
L 206.80697 108.628361 
L 208.436762 112.162733 
L 210.066554 113.23483 
L 211.696346 108.549249 
L 213.326138 109.953614 
L 214.95593 108.585259 
L 216.585722 108.744027 
L 218.215513 105.75907 
L 219.845305 106.758057 
L 221.475097 106.38105 
L 223.104889 101.258447 
L 224.734681 107.042312 
L 226.364473 107.940364 
L 227.994265 104.449639 
L 229.624057 106.26211 
L 231.253849 102.90451 
L 232.88364 104.2625 
L 234.513432 107.226724 
L 236.143224 100.000302 
L 237.773016 106.406147 
L 239.402808 102.22688 
L 241.0326 102.088298 
L 242.662392 99.100613 
L 244.292184 94.776217 
L 245.921976 96.553224 
L 247.551768 101.828049 
L 249.181559 96.275516 
L 250.811351 99.439974 
L 254.070935 92.505991 
L 255.700727 94.690013 
L 257.330519 92.393053 
L 258.960311 89.427737 
L 260.590103 93.860707 
L 262.219895 92.012772 
L 263.849686 92.098431 
L 265.479478 90.586038 
L 267.10927 89.560317 
L 268.739062 87.332648 
L 270.368854 85.819164 
L 271.998646 81.968345 
L 273.628438 80.997729 
L 275.25823 83.978867 
L 276.888022 90.279959 
L 278.517814 84.377698 
L 280.147605 81.647535 
L 281.777397 87.887519 
L 283.407189 87.759304 
L 285.036981 80.14769 
L 286.666773 83.174113 
L 288.296565 78.856264 
L 289.926357 82.646521 
L 291.556149 76.327971 
L 293.185941 80.145508 
L 294.815732 80.688376 
L 296.445524 86.940909 
L 298.075316 76.772632 
L 299.705108 80.107316 
L 301.3349 75.100925 
L 302.964692 70.525555 
L 304.594484 71.086428 
L 306.224276 62.919943 
L 307.854068 66.561798 
L 309.48386 76.584401 
L 311.113651 72.727036 
L 312.743443 72.713396 
L 314.373235 72.91854 
L 316.003027 60.768111 
L 317.632819 59.415578 
L 319.262611 56.293676 
L 320.892403 50.244105 
L 322.522195 47.02345 
L 324.151987 50.344495 
L 325.781778 57.448704 
L 327.41157 57.920644 
L 329.041362 62.851198 
L 330.671154 70.256576 
L 332.300946 65.100691 
L 333.930738 69.311603 
L 335.56053 70.563201 
L 337.190322 79.40186 
L 338.820114 79.931089 
L 340.449906 72.707394 
L 342.079697 69.444729 
L 346.969073 116.122671 
L 348.598865 136.501237 
L 350.228657 149.964916 
L 351.858449 135.721034 
L 353.488241 95.480582 
L 355.118033 69.470372 
L 356.747824 57.268657 
L 358.377616 50.220099 
L 360.007408 55.440364 
L 361.6372 62.679881 
L 363.266992 61.525399 
L 364.896784 62.397262 
L 366.526576 68.697807 
L 368.156368 75.530855 
L 369.78616 65.510434 
L 371.415952 56.736155 
L 373.045743 47.150029 
L 374.675535 54.190403 
L 376.305327 68.541767 
L 377.935119 71.949015 
L 379.564911 68.730543 
L 381.194703 69.329608 
L 382.824495 77.330777 
L 384.454287 89.043637 
L 386.084079 80.645274 
L 387.71387 91.593754 
L 389.343662 78.721502 
L 390.973454 35.795625 
L 392.603246 187.111837 
L 394.233038 312.995625 
L 395.86283 171.515422 
L 397.492622 200.870683 
L 399.122414 122.492507 
L 400.752206 117.67762 
L 402.381998 103.263513 
L 404.011789 91.605212 
L 405.641581 95.829218 
L 407.271373 94.375204 
L 408.901165 97.683154 
L 410.530957 98.094534 
L 412.160749 97.811915 
L 413.790541 76.88939 
L 415.420333 84.395703 
L 417.050125 86.046677 
L 418.679916 90.893209 
L 420.309708 84.909655 
L 421.9395 78.47762 
L 423.569292 82.552133 
L 425.199084 95.957433 
L 426.828876 93.267644 
L 428.458668 82.079101 
L 430.08846 88.192507 
L 431.718252 91.313318 
L 433.348044 92.908641 
L 434.977835 96.296249 
L 436.607627 95.311993 
L 438.237419 76.978867 
L 439.867211 84.048704 
L 441.497003 95.111759 
L 444.756587 85.21628 
L 446.386379 84.816358 
L 448.016171 94.133505 
L 449.645962 98.88292 
L 451.275754 100.086506 
L 452.905546 101.674191 
L 454.535338 97.216669 
L 456.16513 93.362032 
L 457.794922 95.906693 
L 459.424714 100.597184 
L 461.054506 91.357511 
L 462.684298 95.331089 
L 464.31409 83.881206 
L 465.943881 87.04621 
L 467.573673 86.246911 
L 469.203465 76.051354 
L 470.833257 84.080348 
L 472.463049 81.387285 
L 474.092841 86.115422 
L 474.092841 86.115422 
" clip-path="url(#pafa6a8ed18)" style="fill: none; stroke: #0272a2; stroke-width: 1.75; stroke-linecap: round"/>
   </g>
   <g id="line2d_34">
    <path d="M 68.274659 243.110561 
L 69.904451 243.516785 
L 71.534243 238.258071 
L 73.164035 244.053644 
L 74.793827 244.536101 
L 76.423619 242.315652 
L 78.05341 243.231891 
L 79.683202 239.948819 
L 81.312994 240.985315 
L 82.942786 240.326768 
L 84.572578 241.03399 
L 86.20237 244.566165 
L 87.832162 240.668926 
L 89.461954 243.377559 
L 91.091746 240.707222 
L 92.721538 241.275577 
L 94.351329 243.477773 
L 95.981121 240.498563 
L 97.610913 238.687201 
L 99.240705 245.244397 
L 100.870497 242.331758 
L 102.500289 241.021106 
L 104.130081 246.527848 
L 105.759873 238.805309 
L 107.389665 240.704717 
L 109.019456 240.455256 
L 110.649248 240.947377 
L 112.27904 241.793467 
L 113.908832 242.228323 
L 115.538624 242.234407 
L 117.168416 240.146741 
L 118.798208 244.974894 
L 120.428 243.789151 
L 123.687584 242.659242 
L 125.317375 240.116319 
L 126.947167 243.954862 
L 128.576959 240.550459 
L 130.206751 241.775572 
L 133.466335 240.985315 
L 135.096127 241.219386 
L 136.725919 244.539322 
L 138.355711 239.522553 
L 139.985502 241.724749 
L 141.615294 244.721496 
L 143.245086 238.515406 
L 144.874878 237.508258 
L 146.50467 238.531153 
L 148.134462 242.166405 
L 149.764254 244.723286 
L 151.394046 244.001389 
L 153.023838 240.24445 
L 154.65363 240.257692 
L 156.283421 244.136678 
L 157.913213 239.493563 
L 159.543005 240.258766 
L 161.172797 242.561891 
L 162.802589 243.319221 
L 164.432381 238.645683 
L 166.062173 239.105235 
L 167.691965 240.999631 
L 169.321757 243.261598 
L 170.951548 240.985673 
L 172.58134 244.491363 
L 174.211132 244.908681 
L 175.840924 238.985694 
L 177.470716 239.370085 
L 179.100508 241.012874 
L 180.7303 240.344305 
L 182.360092 241.994968 
L 183.989884 244.697875 
L 185.619676 242.58265 
L 187.249467 242.056528 
L 188.879259 238.154278 
L 190.509051 238.694717 
L 192.138843 240.261987 
L 193.768635 239.935577 
L 195.398427 245.550049 
L 197.028219 242.164616 
L 198.658011 244.004969 
L 200.287803 238.835016 
L 201.917594 243.942693 
L 203.547386 245.518553 
L 206.80697 238.502521 
L 208.436762 247.262987 
L 210.066554 240.349674 
L 211.696346 238.641746 
L 213.326138 241.710791 
L 214.95593 242.776277 
L 216.585722 241.186101 
L 218.215513 243.6714 
L 219.845305 241.834626 
L 221.475097 242.401549 
L 223.104889 242.11093 
L 224.734681 240.116677 
L 226.364473 240.157479 
L 227.994265 246.859269 
L 229.624057 241.055823 
L 231.253849 241.626683 
L 232.88364 247.277661 
L 234.513432 248.1531 
L 237.773016 241.525038 
L 239.402808 241.03399 
L 241.0326 241.323894 
L 242.662392 246.186048 
L 244.292184 237.772393 
L 245.921976 242.508921 
L 247.551768 246.111604 
L 249.181559 244.622714 
L 250.811351 237.554428 
L 252.441143 237.541185 
L 254.070935 244.296304 
L 255.700727 239.745529 
L 257.330519 246.53787 
L 258.960311 242.45452 
L 260.590103 240.137078 
L 262.219895 238.623135 
L 263.849686 239.089129 
L 265.479478 244.633452 
L 267.10927 239.165721 
L 268.739062 239.049401 
L 270.368854 245.735444 
L 273.628438 241.396907 
L 276.888022 244.008548 
L 278.517814 242.056886 
L 280.147605 244.850701 
L 281.777397 242.439845 
L 283.407189 243.683211 
L 285.036981 242.513574 
L 286.666773 240.209017 
L 288.296565 241.295978 
L 289.926357 238.758424 
L 291.556149 242.159963 
L 293.185941 244.689285 
L 294.815732 241.91766 
L 296.445524 241.499984 
L 298.075316 240.103793 
L 299.705108 242.965609 
L 301.3349 240.866133 
L 302.964692 242.999968 
L 304.594484 243.813131 
L 306.224276 243.187511 
L 307.854068 246.541091 
L 309.48386 244.722212 
L 311.113651 241.409792 
L 312.743443 241.461688 
L 314.373235 243.891154 
L 316.003027 242.371485 
L 317.632819 238.223712 
L 319.262611 241.585166 
L 320.892403 241.892965 
L 322.522195 244.475973 
L 324.151987 242.975989 
L 325.781778 242.795246 
L 327.41157 244.333526 
L 329.041362 243.164247 
L 330.671154 240.381886 
L 332.300946 241.541859 
L 333.930738 236.423445 
L 335.56053 239.898355 
L 337.190322 242.166405 
L 338.820114 242.28702 
L 340.449906 242.112719 
L 342.079697 242.848932 
L 343.709489 240.144594 
L 345.339281 242.191101 
L 346.969073 240.484605 
L 348.598865 243.666032 
L 350.228657 244.264808 
L 351.858449 246.03537 
L 353.488241 241.720812 
L 355.118033 244.049707 
L 356.747824 239.014327 
L 358.377616 241.94343 
L 360.007408 238.046907 
L 361.6372 240.881165 
L 363.266992 237.921282 
L 364.896784 240.783098 
L 366.526576 240.200427 
L 368.156368 247.522469 
L 369.78616 242.434119 
L 371.415952 246.002442 
L 373.045743 242.228681 
L 374.675535 239.930208 
L 376.305327 241.980294 
L 377.935119 244.441614 
L 379.564911 240.54187 
L 381.194703 239.763782 
L 382.824495 242.605556 
L 384.454287 240.725475 
L 386.084079 239.276314 
L 387.71387 242.432329 
L 389.343662 241.390107 
L 390.973454 238.696148 
L 392.603246 241.109509 
L 394.233038 241.708643 
L 395.86283 244.1739 
L 397.492622 244.887923 
L 399.122414 243.561165 
L 400.752206 239.845384 
L 402.381998 238.600229 
L 404.011789 246.135941 
L 405.641581 240.894407 
L 408.901165 240.140299 
L 410.530957 242.88007 
L 412.160749 243.241913 
L 413.790541 245.774456 
L 417.050125 241.093761 
L 418.679916 243.123446 
L 420.309708 238.027938 
L 421.9395 241.064412 
L 423.569292 243.569397 
L 425.199084 242.408708 
L 426.828876 239.707591 
L 428.458668 242.998537 
L 430.08846 242.617367 
L 431.718252 242.708275 
L 433.348044 238.885123 
L 434.977835 241.894039 
L 436.607627 241.453456 
L 438.237419 242.170342 
L 439.867211 241.221533 
L 441.497003 239.917681 
L 443.126795 242.728318 
L 444.756587 242.90906 
L 446.386379 240.81352 
L 448.016171 242.981357 
L 449.645962 241.929471 
L 451.275754 241.650663 
L 452.905546 240.510374 
L 454.535338 237.058728 
L 456.16513 239.948461 
L 457.794922 240.25125 
L 459.424714 244.220428 
L 461.054506 241.571207 
L 462.684298 240.591261 
L 464.31409 239.379749 
L 465.943881 241.555102 
L 467.573673 246.782319 
L 469.203465 243.08694 
L 470.833257 240.459909 
L 472.463049 244.212196 
L 474.092841 246.668505 
L 474.092841 246.668505 
" clip-path="url(#pafa6a8ed18)" style="fill: none; stroke-dasharray: 1.75,2.8875; stroke-dashoffset: 0; stroke: #9fc377; stroke-width: 1.75"/>
   </g>
   <g id="patch_3">
    <path d="M 47.98375 326.855625 
L 47.98375 21.935625 
" style="fill: none; stroke: #cccccc; stroke-width: 1.25; stroke-linejoin: miter; stroke-linecap: square"/>
   </g>
   <g id="patch_4">
    <path d="M 494.38375 326.855625 
L 494.38375 21.935625 
" style="fill: none; stroke: #cccccc; stroke-width: 1.25; stroke-linejoin: miter; stroke-linecap: square"/>
   </g>
   <g id="patch_5">
    <path d="M 47.98375 326.855625 
L 494.38375 326.855625 
" style="fill: none; stroke: #cccccc; stroke-width: 1.25; stroke-linejoin: miter; stroke-linecap: square"/>
   </g>
   <g id="patch_6">
    <path d="M 47.98375 21.935625 
L 494.38375 21.935625 
" style="fill: none; stroke: #cccccc; stroke-width: 1.25; stroke-linejoin: miter; stroke-linecap: square"/>
   </g>
   <g id="text_35">
    <!-- "Sugimoto_dS" for dataset Mouse_non_tata -->
    <g style="fill: #262626" transform="translate(154.523125 15.935625) scale(0.12 -0.12)">
     <defs>
      <path id="ArialMT-22" d="M 450 2959 
L 294 3831 
L 294 4581 
L 934 4581 
L 934 3831 
L 794 2959 
L 450 2959 
z
M 1484 2959 
L 1331 3831 
L 1331 4581 
L 1972 4581 
L 1972 3831 
L 1822 2959 
L 1484 2959 
z
" transform="scale(0.015625)"/>
      <path id="ArialMT-20" transform="scale(0.015625)"/>
      <path id="ArialMT-66" d="M 556 0 
L 556 2881 
L 59 2881 
L 59 3319 
L 556 3319 
L 556 3672 
Q 556 4006 616 4169 
Q 697 4388 901 4523 
Q 1106 4659 1475 4659 
Q 1713 4659 2000 4603 
L 1916 4113 
Q 1741 4144 1584 4144 
Q 1328 4144 1222 4034 
Q 1116 3925 1116 3625 
L 1116 3319 
L 1763 3319 
L 1763 2881 
L 1116 2881 
L 1116 0 
L 556 0 
z
" transform="scale(0.015625)"/>
      <path id="ArialMT-72" d="M 416 0 
L 416 3319 
L 922 3319 
L 922 2816 
Q 1116 3169 1280 3281 
Q 1444 3394 1641 3394 
Q 1925 3394 2219 3213 
L 2025 2691 
Q 1819 2813 1613 2813 
Q 1428 2813 1281 2702 
Q 1134 2591 1072 2394 
Q 978 2094 978 1738 
L 978 0 
L 416 0 
z
" transform="scale(0.015625)"/>
      <path id="ArialMT-61" d="M 2588 409 
Q 2275 144 1986 34 
Q 1697 -75 1366 -75 
Q 819 -75 525 192 
Q 231 459 231 875 
Q 231 1119 342 1320 
Q 453 1522 633 1644 
Q 813 1766 1038 1828 
Q 1203 1872 1538 1913 
Q 2219 1994 2541 2106 
Q 2544 2222 2544 2253 
Q 2544 2597 2384 2738 
Q 2169 2928 1744 2928 
Q 1347 2928 1158 2789 
Q 969 2650 878 2297 
L 328 2372 
Q 403 2725 575 2942 
Q 747 3159 1072 3276 
Q 1397 3394 1825 3394 
Q 2250 3394 2515 3294 
Q 2781 3194 2906 3042 
Q 3031 2891 3081 2659 
Q 3109 2516 3109 2141 
L 3109 1391 
Q 3109 606 3145 398 
Q 3181 191 3288 0 
L 2700 0 
Q 2613 175 2588 409 
z
M 2541 1666 
Q 2234 1541 1622 1453 
Q 1275 1403 1131 1340 
Q 988 1278 909 1158 
Q 831 1038 831 891 
Q 831 666 1001 516 
Q 1172 366 1500 366 
Q 1825 366 2078 508 
Q 2331 650 2450 897 
Q 2541 1088 2541 1459 
L 2541 1666 
z
" transform="scale(0.015625)"/>
      <path id="ArialMT-65" d="M 2694 1069 
L 3275 997 
Q 3138 488 2766 206 
Q 2394 -75 1816 -75 
Q 1088 -75 661 373 
Q 234 822 234 1631 
Q 234 2469 665 2931 
Q 1097 3394 1784 3394 
Q 2450 3394 2872 2941 
Q 3294 2488 3294 1666 
Q 3294 1616 3291 1516 
L 816 1516 
Q 847 969 1125 678 
Q 1403 388 1819 388 
Q 2128 388 2347 550 
Q 2566 713 2694 1069 
z
M 847 1978 
L 2700 1978 
Q 2663 2397 2488 2606 
Q 2219 2931 1791 2931 
Q 1403 2931 1139 2672 
Q 875 2413 847 1978 
z
" transform="scale(0.015625)"/>
      <path id="ArialMT-4d" d="M 475 0 
L 475 4581 
L 1388 4581 
L 2472 1338 
Q 2622 884 2691 659 
Q 2769 909 2934 1394 
L 4031 4581 
L 4847 4581 
L 4847 0 
L 4263 0 
L 4263 3834 
L 2931 0 
L 2384 0 
L 1059 3900 
L 1059 0 
L 475 0 
z
" transform="scale(0.015625)"/>
     </defs>
     <use xlink:href="#ArialMT-22"/>
     <use xlink:href="#ArialMT-53" x="35.498047"/>
     <use xlink:href="#ArialMT-75" x="102.197266"/>
     <use xlink:href="#ArialMT-67" x="157.8125"/>
     <use xlink:href="#ArialMT-69" x="213.427734"/>
     <use xlink:href="#ArialMT-6d" x="235.644531"/>
     <use xlink:href="#ArialMT-6f" x="318.945312"/>
     <use xlink:href="#ArialMT-74" x="374.560547"/>
     <use xlink:href="#ArialMT-6f" x="402.34375"/>
     <use xlink:href="#ArialMT-5f" x="457.958984"/>
     <use xlink:href="#ArialMT-64" x="513.574219"/>
     <use xlink:href="#ArialMT-53" x="569.189453"/>
     <use xlink:href="#ArialMT-22" x="635.888672"/>
     <use xlink:href="#ArialMT-20" x="671.386719"/>
     <use xlink:href="#ArialMT-66" x="699.169922"/>
     <use xlink:href="#ArialMT-6f" x="726.953125"/>
     <use xlink:href="#ArialMT-72" x="782.568359"/>
     <use xlink:href="#ArialMT-20" x="815.869141"/>
     <use xlink:href="#ArialMT-64" x="843.652344"/>
     <use xlink:href="#ArialMT-61" x="899.267578"/>
     <use xlink:href="#ArialMT-74" x="954.882812"/>
     <use xlink:href="#ArialMT-61" x="982.666016"/>
     <use xlink:href="#ArialMT-73" x="1038.28125"/>
     <use xlink:href="#ArialMT-65" x="1088.28125"/>
     <use xlink:href="#ArialMT-74" x="1143.896484"/>
     <use xlink:href="#ArialMT-20" x="1171.679688"/>
     <use xlink:href="#ArialMT-4d" x="1199.462891"/>
     <use xlink:href="#ArialMT-6f" x="1282.763672"/>
     <use xlink:href="#ArialMT-75" x="1338.378906"/>
     <use xlink:href="#ArialMT-73" x="1393.994141"/>
     <use xlink:href="#ArialMT-65" x="1443.994141"/>
     <use xlink:href="#ArialMT-5f" x="1499.609375"/>
     <use xlink:href="#ArialMT-6e" x="1555.224609"/>
     <use xlink:href="#ArialMT-6f" x="1610.839844"/>
     <use xlink:href="#ArialMT-6e" x="1666.455078"/>
     <use xlink:href="#ArialMT-5f" x="1722.070312"/>
     <use xlink:href="#ArialMT-74" x="1777.685547"/>
     <use xlink:href="#ArialMT-61" x="1805.46875"/>
     <use xlink:href="#ArialMT-74" x="1861.083984"/>
     <use xlink:href="#ArialMT-61" x="1888.867188"/>
    </g>
   </g>
   <g id="legend_1">
    <g id="line2d_35">
     <path d="M 56.98375 34.593437 
L 66.98375 34.593437 
L 76.98375 34.593437 
" style="fill: none; stroke: #0272a2; stroke-width: 1.75; stroke-linecap: round"/>
    </g>
    <g id="text_36">
     <!-- Promoter -->
     <g style="fill: #262626" transform="translate(84.98375 38.093437) scale(0.1 -0.1)">
      <use xlink:href="#ArialMT-50"/>
      <use xlink:href="#ArialMT-72" x="66.699219"/>
      <use xlink:href="#ArialMT-6f" x="100"/>
      <use xlink:href="#ArialMT-6d" x="155.615234"/>
      <use xlink:href="#ArialMT-6f" x="238.916016"/>
      <use xlink:href="#ArialMT-74" x="294.53125"/>
      <use xlink:href="#ArialMT-65" x="322.314453"/>
      <use xlink:href="#ArialMT-72" x="377.929688"/>
     </g>
    </g>
    <g id="line2d_36">
     <path d="M 56.98375 48.73875 
L 66.98375 48.73875 
L 76.98375 48.73875 
" style="fill: none; stroke-dasharray: 1.75,2.8875; stroke-dashoffset: 0; stroke: #9fc377; stroke-width: 1.75"/>
    </g>
    <g id="text_37">
     <!-- Non-promoter -->
     <g style="fill: #262626" transform="translate(84.98375 52.23875) scale(0.1 -0.1)">
      <defs>
       <path id="ArialMT-4e" d="M 488 0 
L 488 4581 
L 1109 4581 
L 3516 984 
L 3516 4581 
L 4097 4581 
L 4097 0 
L 3475 0 
L 1069 3600 
L 1069 0 
L 488 0 
z
" transform="scale(0.015625)"/>
       <path id="ArialMT-70" d="M 422 -1272 
L 422 3319 
L 934 3319 
L 934 2888 
Q 1116 3141 1344 3267 
Q 1572 3394 1897 3394 
Q 2322 3394 2647 3175 
Q 2972 2956 3137 2557 
Q 3303 2159 3303 1684 
Q 3303 1175 3120 767 
Q 2938 359 2589 142 
Q 2241 -75 1856 -75 
Q 1575 -75 1351 44 
Q 1128 163 984 344 
L 984 -1272 
L 422 -1272 
z
M 931 1641 
Q 931 1000 1190 694 
Q 1450 388 1819 388 
Q 2194 388 2461 705 
Q 2728 1022 2728 1688 
Q 2728 2322 2467 2637 
Q 2206 2953 1844 2953 
Q 1484 2953 1207 2617 
Q 931 2281 931 1641 
z
" transform="scale(0.015625)"/>
      </defs>
      <use xlink:href="#ArialMT-4e"/>
      <use xlink:href="#ArialMT-6f" x="72.216797"/>
      <use xlink:href="#ArialMT-6e" x="127.832031"/>
      <use xlink:href="#ArialMT-2d" x="183.447266"/>
      <use xlink:href="#ArialMT-70" x="216.748047"/>
      <use xlink:href="#ArialMT-72" x="272.363281"/>
      <use xlink:href="#ArialMT-6f" x="305.664062"/>
      <use xlink:href="#ArialMT-6d" x="361.279297"/>
      <use xlink:href="#ArialMT-6f" x="444.580078"/>
      <use xlink:href="#ArialMT-74" x="500.195312"/>
      <use xlink:href="#ArialMT-65" x="527.978516"/>
      <use xlink:href="#ArialMT-72" x="583.59375"/>
     </g>
    </g>
   </g>
  </g>
 </g>
 <defs>
  <clipPath id="pafa6a8ed18">
   <rect x="47.98375" y="21.935625" width="446.4" height="304.92"/>
  </clipPath>
 </defs>
</svg>
