<?xml version="1.0" encoding="utf-8" standalone="no"?>
<!DOCTYPE svg PUBLIC "-//W3C//DTD SVG 1.1//EN"
  "http://www.w3.org/Graphics/SVG/1.1/DTD/svg11.dtd">
<svg xmlns:xlink="http://www.w3.org/1999/xlink" width="495.88875pt" height="375.733156pt" viewBox="0 0 495.88875 375.733156" xmlns="http://www.w3.org/2000/svg" version="1.1">
 <metadata>
  <rdf:RDF xmlns:dc="http://purl.org/dc/elements/1.1/" xmlns:cc="http://creativecommons.org/ns#" xmlns:rdf="http://www.w3.org/1999/02/22-rdf-syntax-ns#">
   <cc:Work>
    <dc:type rdf:resource="http://purl.org/dc/dcmitype/StillImage"/>
    <dc:date>2023-05-11T16:25:34.981224</dc:date>
    <dc:format>image/svg+xml</dc:format>
    <dc:creator>
     <cc:Agent>
      <dc:title>Matplotlib v3.7.1, https://matplotlib.org/</dc:title>
     </cc:Agent>
    </dc:creator>
   </cc:Work>
  </rdf:RDF>
 </metadata>
 <defs>
  <style type="text/css">*{stroke-linejoin: round; stroke-linecap: butt}</style>
 </defs>
 <g id="figure_1">
  <g id="patch_1">
   <path d="M 0 375.733156 
L 495.88875 375.733156 
L 495.88875 0 
L 0 0 
z
" style="fill: #ffffff"/>
  </g>
  <g id="axes_1">
   <g id="patch_2">
    <path d="M 42.28875 326.855625 
L 488.68875 326.855625 
L 488.68875 21.935625 
L 42.28875 21.935625 
z
" style="fill: #ffffff"/>
   </g>
   <g id="matplotlib.axis_1">
    <g id="xtick_1">
     <g id="line2d_1"/>
     <g id="text_1">
      <!-- -200 -->
      <g style="fill: #262626" transform="translate(57.332153 353.067937) rotate(-45) scale(0.1 -0.1)">
       <defs>
        <path id="ArialMT-2d" d="M 203 1375 
L 203 1941 
L 1931 1941 
L 1931 1375 
L 203 1375 
z
" transform="scale(0.015625)"/>
        <path id="ArialMT-32" d="M 3222 541 
L 3222 0 
L 194 0 
Q 188 203 259 391 
Q 375 700 629 1000 
Q 884 1300 1366 1694 
Q 2113 2306 2375 2664 
Q 2638 3022 2638 3341 
Q 2638 3675 2398 3904 
Q 2159 4134 1775 4134 
Q 1369 4134 1125 3890 
Q 881 3647 878 3216 
L 300 3275 
Q 359 3922 746 4261 
Q 1134 4600 1788 4600 
Q 2447 4600 2831 4234 
Q 3216 3869 3216 3328 
Q 3216 3053 3103 2787 
Q 2991 2522 2730 2228 
Q 2469 1934 1863 1422 
Q 1356 997 1212 845 
Q 1069 694 975 541 
L 3222 541 
z
" transform="scale(0.015625)"/>
        <path id="ArialMT-30" d="M 266 2259 
Q 266 3072 433 3567 
Q 600 4063 929 4331 
Q 1259 4600 1759 4600 
Q 2128 4600 2406 4451 
Q 2684 4303 2865 4023 
Q 3047 3744 3150 3342 
Q 3253 2941 3253 2259 
Q 3253 1453 3087 958 
Q 2922 463 2592 192 
Q 2263 -78 1759 -78 
Q 1097 -78 719 397 
Q 266 969 266 2259 
z
M 844 2259 
Q 844 1131 1108 757 
Q 1372 384 1759 384 
Q 2147 384 2411 759 
Q 2675 1134 2675 2259 
Q 2675 3391 2411 3762 
Q 2147 4134 1753 4134 
Q 1366 4134 1134 3806 
Q 844 3388 844 2259 
z
" transform="scale(0.015625)"/>
       </defs>
       <use xlink:href="#ArialMT-2d"/>
       <use xlink:href="#ArialMT-32" x="33.300781"/>
       <use xlink:href="#ArialMT-30" x="88.916016"/>
       <use xlink:href="#ArialMT-30" x="144.53125"/>
      </g>
     </g>
    </g>
    <g id="xtick_2">
     <g id="line2d_2"/>
     <g id="text_2">
      <!-- -190 -->
      <g style="fill: #262626" transform="translate(73.630072 353.067937) rotate(-45) scale(0.1 -0.1)">
       <defs>
        <path id="ArialMT-31" d="M 2384 0 
L 1822 0 
L 1822 3584 
Q 1619 3391 1289 3197 
Q 959 3003 697 2906 
L 697 3450 
Q 1169 3672 1522 3987 
Q 1875 4303 2022 4600 
L 2384 4600 
L 2384 0 
z
" transform="scale(0.015625)"/>
        <path id="ArialMT-39" d="M 350 1059 
L 891 1109 
Q 959 728 1153 556 
Q 1347 384 1650 384 
Q 1909 384 2104 503 
Q 2300 622 2425 820 
Q 2550 1019 2634 1356 
Q 2719 1694 2719 2044 
Q 2719 2081 2716 2156 
Q 2547 1888 2255 1720 
Q 1963 1553 1622 1553 
Q 1053 1553 659 1965 
Q 266 2378 266 3053 
Q 266 3750 677 4175 
Q 1088 4600 1706 4600 
Q 2153 4600 2523 4359 
Q 2894 4119 3086 3673 
Q 3278 3228 3278 2384 
Q 3278 1506 3087 986 
Q 2897 466 2520 194 
Q 2144 -78 1638 -78 
Q 1100 -78 759 220 
Q 419 519 350 1059 
z
M 2653 3081 
Q 2653 3566 2395 3850 
Q 2138 4134 1775 4134 
Q 1400 4134 1122 3828 
Q 844 3522 844 3034 
Q 844 2597 1108 2323 
Q 1372 2050 1759 2050 
Q 2150 2050 2401 2323 
Q 2653 2597 2653 3081 
z
" transform="scale(0.015625)"/>
       </defs>
       <use xlink:href="#ArialMT-2d"/>
       <use xlink:href="#ArialMT-31" x="33.300781"/>
       <use xlink:href="#ArialMT-39" x="88.916016"/>
       <use xlink:href="#ArialMT-30" x="144.53125"/>
      </g>
     </g>
    </g>
    <g id="xtick_3">
     <g id="line2d_3"/>
     <g id="text_3">
      <!-- -180 -->
      <g style="fill: #262626" transform="translate(89.927991 353.067937) rotate(-45) scale(0.1 -0.1)">
       <defs>
        <path id="ArialMT-38" d="M 1131 2484 
Q 781 2613 612 2850 
Q 444 3088 444 3419 
Q 444 3919 803 4259 
Q 1163 4600 1759 4600 
Q 2359 4600 2725 4251 
Q 3091 3903 3091 3403 
Q 3091 3084 2923 2848 
Q 2756 2613 2416 2484 
Q 2838 2347 3058 2040 
Q 3278 1734 3278 1309 
Q 3278 722 2862 322 
Q 2447 -78 1769 -78 
Q 1091 -78 675 323 
Q 259 725 259 1325 
Q 259 1772 486 2073 
Q 713 2375 1131 2484 
z
M 1019 3438 
Q 1019 3113 1228 2906 
Q 1438 2700 1772 2700 
Q 2097 2700 2305 2904 
Q 2513 3109 2513 3406 
Q 2513 3716 2298 3927 
Q 2084 4138 1766 4138 
Q 1444 4138 1231 3931 
Q 1019 3725 1019 3438 
z
M 838 1322 
Q 838 1081 952 856 
Q 1066 631 1291 507 
Q 1516 384 1775 384 
Q 2178 384 2440 643 
Q 2703 903 2703 1303 
Q 2703 1709 2433 1975 
Q 2163 2241 1756 2241 
Q 1359 2241 1098 1978 
Q 838 1716 838 1322 
z
" transform="scale(0.015625)"/>
       </defs>
       <use xlink:href="#ArialMT-2d"/>
       <use xlink:href="#ArialMT-31" x="33.300781"/>
       <use xlink:href="#ArialMT-38" x="88.916016"/>
       <use xlink:href="#ArialMT-30" x="144.53125"/>
      </g>
     </g>
    </g>
    <g id="xtick_4">
     <g id="line2d_4"/>
     <g id="text_4">
      <!-- -170 -->
      <g style="fill: #262626" transform="translate(106.22591 353.067937) rotate(-45) scale(0.1 -0.1)">
       <defs>
        <path id="ArialMT-37" d="M 303 3981 
L 303 4522 
L 3269 4522 
L 3269 4084 
Q 2831 3619 2401 2847 
Q 1972 2075 1738 1259 
Q 1569 684 1522 0 
L 944 0 
Q 953 541 1156 1306 
Q 1359 2072 1739 2783 
Q 2119 3494 2547 3981 
L 303 3981 
z
" transform="scale(0.015625)"/>
       </defs>
       <use xlink:href="#ArialMT-2d"/>
       <use xlink:href="#ArialMT-31" x="33.300781"/>
       <use xlink:href="#ArialMT-37" x="88.916016"/>
       <use xlink:href="#ArialMT-30" x="144.53125"/>
      </g>
     </g>
    </g>
    <g id="xtick_5">
     <g id="line2d_5"/>
     <g id="text_5">
      <!-- -160 -->
      <g style="fill: #262626" transform="translate(122.523829 353.067937) rotate(-45) scale(0.1 -0.1)">
       <defs>
        <path id="ArialMT-36" d="M 3184 3459 
L 2625 3416 
Q 2550 3747 2413 3897 
Q 2184 4138 1850 4138 
Q 1581 4138 1378 3988 
Q 1113 3794 959 3422 
Q 806 3050 800 2363 
Q 1003 2672 1297 2822 
Q 1591 2972 1913 2972 
Q 2475 2972 2870 2558 
Q 3266 2144 3266 1488 
Q 3266 1056 3080 686 
Q 2894 316 2569 119 
Q 2244 -78 1831 -78 
Q 1128 -78 684 439 
Q 241 956 241 2144 
Q 241 3472 731 4075 
Q 1159 4600 1884 4600 
Q 2425 4600 2770 4297 
Q 3116 3994 3184 3459 
z
M 888 1484 
Q 888 1194 1011 928 
Q 1134 663 1356 523 
Q 1578 384 1822 384 
Q 2178 384 2434 671 
Q 2691 959 2691 1453 
Q 2691 1928 2437 2201 
Q 2184 2475 1800 2475 
Q 1419 2475 1153 2201 
Q 888 1928 888 1484 
z
" transform="scale(0.015625)"/>
       </defs>
       <use xlink:href="#ArialMT-2d"/>
       <use xlink:href="#ArialMT-31" x="33.300781"/>
       <use xlink:href="#ArialMT-36" x="88.916016"/>
       <use xlink:href="#ArialMT-30" x="144.53125"/>
      </g>
     </g>
    </g>
    <g id="xtick_6">
     <g id="line2d_6"/>
     <g id="text_6">
      <!-- -150 -->
      <g style="fill: #262626" transform="translate(138.821748 353.067937) rotate(-45) scale(0.1 -0.1)">
       <defs>
        <path id="ArialMT-35" d="M 266 1200 
L 856 1250 
Q 922 819 1161 601 
Q 1400 384 1738 384 
Q 2144 384 2425 690 
Q 2706 997 2706 1503 
Q 2706 1984 2436 2262 
Q 2166 2541 1728 2541 
Q 1456 2541 1237 2417 
Q 1019 2294 894 2097 
L 366 2166 
L 809 4519 
L 3088 4519 
L 3088 3981 
L 1259 3981 
L 1013 2750 
Q 1425 3038 1878 3038 
Q 2478 3038 2890 2622 
Q 3303 2206 3303 1553 
Q 3303 931 2941 478 
Q 2500 -78 1738 -78 
Q 1113 -78 717 272 
Q 322 622 266 1200 
z
" transform="scale(0.015625)"/>
       </defs>
       <use xlink:href="#ArialMT-2d"/>
       <use xlink:href="#ArialMT-31" x="33.300781"/>
       <use xlink:href="#ArialMT-35" x="88.916016"/>
       <use xlink:href="#ArialMT-30" x="144.53125"/>
      </g>
     </g>
    </g>
    <g id="xtick_7">
     <g id="line2d_7"/>
     <g id="text_7">
      <!-- -140 -->
      <g style="fill: #262626" transform="translate(155.119667 353.067937) rotate(-45) scale(0.1 -0.1)">
       <defs>
        <path id="ArialMT-34" d="M 2069 0 
L 2069 1097 
L 81 1097 
L 81 1613 
L 2172 4581 
L 2631 4581 
L 2631 1613 
L 3250 1613 
L 3250 1097 
L 2631 1097 
L 2631 0 
L 2069 0 
z
M 2069 1613 
L 2069 3678 
L 634 1613 
L 2069 1613 
z
" transform="scale(0.015625)"/>
       </defs>
       <use xlink:href="#ArialMT-2d"/>
       <use xlink:href="#ArialMT-31" x="33.300781"/>
       <use xlink:href="#ArialMT-34" x="88.916016"/>
       <use xlink:href="#ArialMT-30" x="144.53125"/>
      </g>
     </g>
    </g>
    <g id="xtick_8">
     <g id="line2d_8"/>
     <g id="text_8">
      <!-- -130 -->
      <g style="fill: #262626" transform="translate(171.417586 353.067937) rotate(-45) scale(0.1 -0.1)">
       <defs>
        <path id="ArialMT-33" d="M 269 1209 
L 831 1284 
Q 928 806 1161 595 
Q 1394 384 1728 384 
Q 2125 384 2398 659 
Q 2672 934 2672 1341 
Q 2672 1728 2419 1979 
Q 2166 2231 1775 2231 
Q 1616 2231 1378 2169 
L 1441 2663 
Q 1497 2656 1531 2656 
Q 1891 2656 2178 2843 
Q 2466 3031 2466 3422 
Q 2466 3731 2256 3934 
Q 2047 4138 1716 4138 
Q 1388 4138 1169 3931 
Q 950 3725 888 3313 
L 325 3413 
Q 428 3978 793 4289 
Q 1159 4600 1703 4600 
Q 2078 4600 2393 4439 
Q 2709 4278 2876 4000 
Q 3044 3722 3044 3409 
Q 3044 3113 2884 2869 
Q 2725 2625 2413 2481 
Q 2819 2388 3044 2092 
Q 3269 1797 3269 1353 
Q 3269 753 2831 336 
Q 2394 -81 1725 -81 
Q 1122 -81 723 278 
Q 325 638 269 1209 
z
" transform="scale(0.015625)"/>
       </defs>
       <use xlink:href="#ArialMT-2d"/>
       <use xlink:href="#ArialMT-31" x="33.300781"/>
       <use xlink:href="#ArialMT-33" x="88.916016"/>
       <use xlink:href="#ArialMT-30" x="144.53125"/>
      </g>
     </g>
    </g>
    <g id="xtick_9">
     <g id="line2d_9"/>
     <g id="text_9">
      <!-- -120 -->
      <g style="fill: #262626" transform="translate(187.715505 353.067937) rotate(-45) scale(0.1 -0.1)">
       <use xlink:href="#ArialMT-2d"/>
       <use xlink:href="#ArialMT-31" x="33.300781"/>
       <use xlink:href="#ArialMT-32" x="88.916016"/>
       <use xlink:href="#ArialMT-30" x="144.53125"/>
      </g>
     </g>
    </g>
    <g id="xtick_10">
     <g id="line2d_10"/>
     <g id="text_10">
      <!-- -110 -->
      <g style="fill: #262626" transform="translate(204.27417 352.546446) rotate(-45) scale(0.1 -0.1)">
       <use xlink:href="#ArialMT-2d"/>
       <use xlink:href="#ArialMT-31" x="33.300781"/>
       <use xlink:href="#ArialMT-31" x="81.541016"/>
       <use xlink:href="#ArialMT-30" x="137.15625"/>
      </g>
     </g>
    </g>
    <g id="xtick_11">
     <g id="line2d_11"/>
     <g id="text_11">
      <!-- -100 -->
      <g style="fill: #262626" transform="translate(220.311343 353.067937) rotate(-45) scale(0.1 -0.1)">
       <use xlink:href="#ArialMT-2d"/>
       <use xlink:href="#ArialMT-31" x="33.300781"/>
       <use xlink:href="#ArialMT-30" x="88.916016"/>
       <use xlink:href="#ArialMT-30" x="144.53125"/>
      </g>
     </g>
    </g>
    <g id="xtick_12">
     <g id="line2d_12"/>
     <g id="text_12">
      <!-- -90 -->
      <g style="fill: #262626" transform="translate(238.57535 349.135761) rotate(-45) scale(0.1 -0.1)">
       <use xlink:href="#ArialMT-2d"/>
       <use xlink:href="#ArialMT-39" x="33.300781"/>
       <use xlink:href="#ArialMT-30" x="88.916016"/>
      </g>
     </g>
    </g>
    <g id="xtick_13">
     <g id="line2d_13"/>
     <g id="text_13">
      <!-- -80 -->
      <g style="fill: #262626" transform="translate(254.873269 349.135761) rotate(-45) scale(0.1 -0.1)">
       <use xlink:href="#ArialMT-2d"/>
       <use xlink:href="#ArialMT-38" x="33.300781"/>
       <use xlink:href="#ArialMT-30" x="88.916016"/>
      </g>
     </g>
    </g>
    <g id="xtick_14">
     <g id="line2d_14"/>
     <g id="text_14">
      <!-- -70 -->
      <g style="fill: #262626" transform="translate(271.171188 349.135761) rotate(-45) scale(0.1 -0.1)">
       <use xlink:href="#ArialMT-2d"/>
       <use xlink:href="#ArialMT-37" x="33.300781"/>
       <use xlink:href="#ArialMT-30" x="88.916016"/>
      </g>
     </g>
    </g>
    <g id="xtick_15">
     <g id="line2d_15"/>
     <g id="text_15">
      <!-- -60 -->
      <g style="fill: #262626" transform="translate(287.469107 349.135761) rotate(-45) scale(0.1 -0.1)">
       <use xlink:href="#ArialMT-2d"/>
       <use xlink:href="#ArialMT-36" x="33.300781"/>
       <use xlink:href="#ArialMT-30" x="88.916016"/>
      </g>
     </g>
    </g>
    <g id="xtick_16">
     <g id="line2d_16"/>
     <g id="text_16">
      <!-- -50 -->
      <g style="fill: #262626" transform="translate(303.767026 349.135761) rotate(-45) scale(0.1 -0.1)">
       <use xlink:href="#ArialMT-2d"/>
       <use xlink:href="#ArialMT-35" x="33.300781"/>
       <use xlink:href="#ArialMT-30" x="88.916016"/>
      </g>
     </g>
    </g>
    <g id="xtick_17">
     <g id="line2d_17"/>
     <g id="text_17">
      <!-- -40 -->
      <g style="fill: #262626" transform="translate(320.064945 349.135761) rotate(-45) scale(0.1 -0.1)">
       <use xlink:href="#ArialMT-2d"/>
       <use xlink:href="#ArialMT-34" x="33.300781"/>
       <use xlink:href="#ArialMT-30" x="88.916016"/>
      </g>
     </g>
    </g>
    <g id="xtick_18">
     <g id="line2d_18"/>
     <g id="text_18">
      <!-- -30 -->
      <g style="fill: #262626" transform="translate(336.362864 349.135761) rotate(-45) scale(0.1 -0.1)">
       <use xlink:href="#ArialMT-2d"/>
       <use xlink:href="#ArialMT-33" x="33.300781"/>
       <use xlink:href="#ArialMT-30" x="88.916016"/>
      </g>
     </g>
    </g>
    <g id="xtick_19">
     <g id="line2d_19"/>
     <g id="text_19">
      <!-- -20 -->
      <g style="fill: #262626" transform="translate(352.660783 349.135761) rotate(-45) scale(0.1 -0.1)">
       <use xlink:href="#ArialMT-2d"/>
       <use xlink:href="#ArialMT-32" x="33.300781"/>
       <use xlink:href="#ArialMT-30" x="88.916016"/>
      </g>
     </g>
    </g>
    <g id="xtick_20">
     <g id="line2d_20"/>
     <g id="text_20">
      <!-- -10 -->
      <g style="fill: #262626" transform="translate(368.958702 349.135761) rotate(-45) scale(0.1 -0.1)">
       <use xlink:href="#ArialMT-2d"/>
       <use xlink:href="#ArialMT-31" x="33.300781"/>
       <use xlink:href="#ArialMT-30" x="88.916016"/>
      </g>
     </g>
    </g>
    <g id="xtick_21">
     <g id="line2d_21"/>
     <g id="text_21">
      <!-- 0 -->
      <g style="fill: #262626" transform="translate(388.399931 342.849139) rotate(-45) scale(0.1 -0.1)">
       <use xlink:href="#ArialMT-30"/>
      </g>
     </g>
    </g>
    <g id="xtick_22">
     <g id="line2d_22"/>
     <g id="text_22">
      <!-- 10 -->
      <g style="fill: #262626" transform="translate(402.731762 346.781316) rotate(-45) scale(0.1 -0.1)">
       <use xlink:href="#ArialMT-31"/>
       <use xlink:href="#ArialMT-30" x="55.615234"/>
      </g>
     </g>
    </g>
    <g id="xtick_23">
     <g id="line2d_23"/>
     <g id="text_23">
      <!-- 20 -->
      <g style="fill: #262626" transform="translate(419.029681 346.781316) rotate(-45) scale(0.1 -0.1)">
       <use xlink:href="#ArialMT-32"/>
       <use xlink:href="#ArialMT-30" x="55.615234"/>
      </g>
     </g>
    </g>
    <g id="xtick_24">
     <g id="line2d_24"/>
     <g id="text_24">
      <!-- 30 -->
      <g style="fill: #262626" transform="translate(435.3276 346.781316) rotate(-45) scale(0.1 -0.1)">
       <use xlink:href="#ArialMT-33"/>
       <use xlink:href="#ArialMT-30" x="55.615234"/>
      </g>
     </g>
    </g>
    <g id="xtick_25">
     <g id="line2d_25"/>
     <g id="text_25">
      <!-- 40 -->
      <g style="fill: #262626" transform="translate(451.625519 346.781316) rotate(-45) scale(0.1 -0.1)">
       <use xlink:href="#ArialMT-34"/>
       <use xlink:href="#ArialMT-30" x="55.615234"/>
      </g>
     </g>
    </g>
    <g id="xtick_26">
     <g id="line2d_26"/>
     <g id="text_26">
      <!-- 50 -->
      <g style="fill: #262626" transform="translate(467.923438 346.781316) rotate(-45) scale(0.1 -0.1)">
       <use xlink:href="#ArialMT-35"/>
       <use xlink:href="#ArialMT-30" x="55.615234"/>
      </g>
     </g>
    </g>
    <g id="text_27">
     <!-- Position -->
     <g style="fill: #262626" transform="translate(245.9225 366.346906) scale(0.11 -0.11)">
      <defs>
       <path id="ArialMT-50" d="M 494 0 
L 494 4581 
L 2222 4581 
Q 2678 4581 2919 4538 
Q 3256 4481 3484 4323 
Q 3713 4166 3852 3881 
Q 3991 3597 3991 3256 
Q 3991 2672 3619 2267 
Q 3247 1863 2275 1863 
L 1100 1863 
L 1100 0 
L 494 0 
z
M 1100 2403 
L 2284 2403 
Q 2872 2403 3119 2622 
Q 3366 2841 3366 3238 
Q 3366 3525 3220 3729 
Q 3075 3934 2838 4000 
Q 2684 4041 2272 4041 
L 1100 4041 
L 1100 2403 
z
" transform="scale(0.015625)"/>
       <path id="ArialMT-6f" d="M 213 1659 
Q 213 2581 725 3025 
Q 1153 3394 1769 3394 
Q 2453 3394 2887 2945 
Q 3322 2497 3322 1706 
Q 3322 1066 3130 698 
Q 2938 331 2570 128 
Q 2203 -75 1769 -75 
Q 1072 -75 642 372 
Q 213 819 213 1659 
z
M 791 1659 
Q 791 1022 1069 705 
Q 1347 388 1769 388 
Q 2188 388 2466 706 
Q 2744 1025 2744 1678 
Q 2744 2294 2464 2611 
Q 2184 2928 1769 2928 
Q 1347 2928 1069 2612 
Q 791 2297 791 1659 
z
" transform="scale(0.015625)"/>
       <path id="ArialMT-73" d="M 197 991 
L 753 1078 
Q 800 744 1014 566 
Q 1228 388 1613 388 
Q 2000 388 2187 545 
Q 2375 703 2375 916 
Q 2375 1106 2209 1216 
Q 2094 1291 1634 1406 
Q 1016 1563 777 1677 
Q 538 1791 414 1992 
Q 291 2194 291 2438 
Q 291 2659 392 2848 
Q 494 3038 669 3163 
Q 800 3259 1026 3326 
Q 1253 3394 1513 3394 
Q 1903 3394 2198 3281 
Q 2494 3169 2634 2976 
Q 2775 2784 2828 2463 
L 2278 2388 
Q 2241 2644 2061 2787 
Q 1881 2931 1553 2931 
Q 1166 2931 1000 2803 
Q 834 2675 834 2503 
Q 834 2394 903 2306 
Q 972 2216 1119 2156 
Q 1203 2125 1616 2013 
Q 2213 1853 2448 1751 
Q 2684 1650 2818 1456 
Q 2953 1263 2953 975 
Q 2953 694 2789 445 
Q 2625 197 2315 61 
Q 2006 -75 1616 -75 
Q 969 -75 630 194 
Q 291 463 197 991 
z
" transform="scale(0.015625)"/>
       <path id="ArialMT-69" d="M 425 3934 
L 425 4581 
L 988 4581 
L 988 3934 
L 425 3934 
z
M 425 0 
L 425 3319 
L 988 3319 
L 988 0 
L 425 0 
z
" transform="scale(0.015625)"/>
       <path id="ArialMT-74" d="M 1650 503 
L 1731 6 
Q 1494 -44 1306 -44 
Q 1000 -44 831 53 
Q 663 150 594 308 
Q 525 466 525 972 
L 525 2881 
L 113 2881 
L 113 3319 
L 525 3319 
L 525 4141 
L 1084 4478 
L 1084 3319 
L 1650 3319 
L 1650 2881 
L 1084 2881 
L 1084 941 
Q 1084 700 1114 631 
Q 1144 563 1211 522 
Q 1278 481 1403 481 
Q 1497 481 1650 503 
z
" transform="scale(0.015625)"/>
       <path id="ArialMT-6e" d="M 422 0 
L 422 3319 
L 928 3319 
L 928 2847 
Q 1294 3394 1984 3394 
Q 2284 3394 2536 3286 
Q 2788 3178 2913 3003 
Q 3038 2828 3088 2588 
Q 3119 2431 3119 2041 
L 3119 0 
L 2556 0 
L 2556 2019 
Q 2556 2363 2490 2533 
Q 2425 2703 2258 2804 
Q 2091 2906 1866 2906 
Q 1506 2906 1245 2678 
Q 984 2450 984 1813 
L 984 0 
L 422 0 
z
" transform="scale(0.015625)"/>
      </defs>
      <use xlink:href="#ArialMT-50"/>
      <use xlink:href="#ArialMT-6f" x="66.699219"/>
      <use xlink:href="#ArialMT-73" x="122.314453"/>
      <use xlink:href="#ArialMT-69" x="172.314453"/>
      <use xlink:href="#ArialMT-74" x="194.53125"/>
      <use xlink:href="#ArialMT-69" x="222.314453"/>
      <use xlink:href="#ArialMT-6f" x="244.53125"/>
      <use xlink:href="#ArialMT-6e" x="300.146484"/>
     </g>
    </g>
   </g>
   <g id="matplotlib.axis_2">
    <g id="ytick_1">
     <g id="line2d_27"/>
     <g id="text_28">
      <!-- 0.4 -->
      <g style="fill: #262626" transform="translate(21.38875 329.181111) scale(0.1 -0.1)">
       <defs>
        <path id="ArialMT-2e" d="M 581 0 
L 581 641 
L 1222 641 
L 1222 0 
L 581 0 
z
" transform="scale(0.015625)"/>
       </defs>
       <use xlink:href="#ArialMT-30"/>
       <use xlink:href="#ArialMT-2e" x="55.615234"/>
       <use xlink:href="#ArialMT-34" x="83.398438"/>
      </g>
     </g>
    </g>
    <g id="ytick_2">
     <g id="line2d_28"/>
     <g id="text_29">
      <!-- 0.5 -->
      <g style="fill: #262626" transform="translate(21.38875 263.707477) scale(0.1 -0.1)">
       <use xlink:href="#ArialMT-30"/>
       <use xlink:href="#ArialMT-2e" x="55.615234"/>
       <use xlink:href="#ArialMT-35" x="83.398438"/>
      </g>
     </g>
    </g>
    <g id="ytick_3">
     <g id="line2d_29"/>
     <g id="text_30">
      <!-- 0.6 -->
      <g style="fill: #262626" transform="translate(21.38875 198.233842) scale(0.1 -0.1)">
       <use xlink:href="#ArialMT-30"/>
       <use xlink:href="#ArialMT-2e" x="55.615234"/>
       <use xlink:href="#ArialMT-36" x="83.398438"/>
      </g>
     </g>
    </g>
    <g id="ytick_4">
     <g id="line2d_30"/>
     <g id="text_31">
      <!-- 0.7 -->
      <g style="fill: #262626" transform="translate(21.38875 132.760208) scale(0.1 -0.1)">
       <use xlink:href="#ArialMT-30"/>
       <use xlink:href="#ArialMT-2e" x="55.615234"/>
       <use xlink:href="#ArialMT-37" x="83.398438"/>
      </g>
     </g>
    </g>
    <g id="ytick_5">
     <g id="line2d_31"/>
     <g id="text_32">
      <!-- 0.8 -->
      <g style="fill: #262626" transform="translate(21.38875 67.286573) scale(0.1 -0.1)">
       <use xlink:href="#ArialMT-30"/>
       <use xlink:href="#ArialMT-2e" x="55.615234"/>
       <use xlink:href="#ArialMT-38" x="83.398438"/>
      </g>
     </g>
    </g>
    <g id="text_33">
     <!-- A-philicity -->
     <g style="fill: #262626" transform="translate(15.073594 197.92875) rotate(-90) scale(0.11 -0.11)">
      <defs>
       <path id="ArialMT-41" d="M -9 0 
L 1750 4581 
L 2403 4581 
L 4278 0 
L 3588 0 
L 3053 1388 
L 1138 1388 
L 634 0 
L -9 0 
z
M 1313 1881 
L 2866 1881 
L 2388 3150 
Q 2169 3728 2063 4100 
Q 1975 3659 1816 3225 
L 1313 1881 
z
" transform="scale(0.015625)"/>
       <path id="ArialMT-70" d="M 422 -1272 
L 422 3319 
L 934 3319 
L 934 2888 
Q 1116 3141 1344 3267 
Q 1572 3394 1897 3394 
Q 2322 3394 2647 3175 
Q 2972 2956 3137 2557 
Q 3303 2159 3303 1684 
Q 3303 1175 3120 767 
Q 2938 359 2589 142 
Q 2241 -75 1856 -75 
Q 1575 -75 1351 44 
Q 1128 163 984 344 
L 984 -1272 
L 422 -1272 
z
M 931 1641 
Q 931 1000 1190 694 
Q 1450 388 1819 388 
Q 2194 388 2461 705 
Q 2728 1022 2728 1688 
Q 2728 2322 2467 2637 
Q 2206 2953 1844 2953 
Q 1484 2953 1207 2617 
Q 931 2281 931 1641 
z
" transform="scale(0.015625)"/>
       <path id="ArialMT-68" d="M 422 0 
L 422 4581 
L 984 4581 
L 984 2938 
Q 1378 3394 1978 3394 
Q 2347 3394 2619 3248 
Q 2891 3103 3008 2847 
Q 3125 2591 3125 2103 
L 3125 0 
L 2563 0 
L 2563 2103 
Q 2563 2525 2380 2717 
Q 2197 2909 1863 2909 
Q 1613 2909 1392 2779 
Q 1172 2650 1078 2428 
Q 984 2206 984 1816 
L 984 0 
L 422 0 
z
" transform="scale(0.015625)"/>
       <path id="ArialMT-6c" d="M 409 0 
L 409 4581 
L 972 4581 
L 972 0 
L 409 0 
z
" transform="scale(0.015625)"/>
       <path id="ArialMT-63" d="M 2588 1216 
L 3141 1144 
Q 3050 572 2676 248 
Q 2303 -75 1759 -75 
Q 1078 -75 664 370 
Q 250 816 250 1647 
Q 250 2184 428 2587 
Q 606 2991 970 3192 
Q 1334 3394 1763 3394 
Q 2303 3394 2647 3120 
Q 2991 2847 3088 2344 
L 2541 2259 
Q 2463 2594 2264 2762 
Q 2066 2931 1784 2931 
Q 1359 2931 1093 2626 
Q 828 2322 828 1663 
Q 828 994 1084 691 
Q 1341 388 1753 388 
Q 2084 388 2306 591 
Q 2528 794 2588 1216 
z
" transform="scale(0.015625)"/>
       <path id="ArialMT-79" d="M 397 -1278 
L 334 -750 
Q 519 -800 656 -800 
Q 844 -800 956 -737 
Q 1069 -675 1141 -563 
Q 1194 -478 1313 -144 
Q 1328 -97 1363 -6 
L 103 3319 
L 709 3319 
L 1400 1397 
Q 1534 1031 1641 628 
Q 1738 1016 1872 1384 
L 2581 3319 
L 3144 3319 
L 1881 -56 
Q 1678 -603 1566 -809 
Q 1416 -1088 1222 -1217 
Q 1028 -1347 759 -1347 
Q 597 -1347 397 -1278 
z
" transform="scale(0.015625)"/>
      </defs>
      <use xlink:href="#ArialMT-41"/>
      <use xlink:href="#ArialMT-2d" x="66.699219"/>
      <use xlink:href="#ArialMT-70" x="100"/>
      <use xlink:href="#ArialMT-68" x="155.615234"/>
      <use xlink:href="#ArialMT-69" x="211.230469"/>
      <use xlink:href="#ArialMT-6c" x="233.447266"/>
      <use xlink:href="#ArialMT-69" x="255.664062"/>
      <use xlink:href="#ArialMT-63" x="277.880859"/>
      <use xlink:href="#ArialMT-69" x="327.880859"/>
      <use xlink:href="#ArialMT-74" x="350.097656"/>
      <use xlink:href="#ArialMT-79" x="377.880859"/>
     </g>
    </g>
   </g>
   <g id="line2d_32">
    <path d="M 62.579659 194.399202 
L 64.209451 196.370689 
L 65.839243 198.648574 
L 67.469035 198.18978 
L 69.098827 199.856075 
L 70.728619 198.328102 
L 72.35841 197.987123 
L 73.988202 195.88415 
L 75.617994 196.770776 
L 77.247786 200.468068 
L 78.877578 198.854851 
L 80.50737 194.194131 
L 82.137162 197.938469 
L 83.766954 195.244814 
L 85.396746 200.452788 
L 87.026538 196.809378 
L 88.656329 200.074816 
L 90.286121 198.482508 
L 91.915913 200.574222 
L 93.545705 200.624082 
L 95.175497 196.573748 
L 96.805289 198.269396 
L 98.435081 199.243277 
L 100.064873 199.186984 
L 103.324456 199.727404 
L 104.954248 200.170114 
L 106.58404 198.000392 
L 108.213832 199.692823 
L 111.473416 202.022982 
L 113.103208 198.863697 
L 114.733 203.236514 
L 116.362792 202.30244 
L 117.992584 202.572248 
L 119.622375 198.086039 
L 121.252167 205.308123 
L 122.881959 200.737072 
L 124.511751 201.530009 
L 126.141543 202.832405 
L 127.771335 201.626111 
L 129.401127 205.519627 
L 131.030919 200.513505 
L 132.660711 204.06564 
L 134.290502 199.432264 
L 135.920294 201.348261 
L 137.550086 203.859766 
L 139.179878 203.90078 
L 140.80967 201.101775 
L 142.439462 206.160169 
L 144.069254 202.951828 
L 145.699046 203.70335 
L 147.328838 204.071269 
L 148.95863 202.780132 
L 150.588421 205.917704 
L 152.218213 204.995693 
L 153.848005 206.342319 
L 155.477797 209.002198 
L 157.107589 204.38571 
L 158.737381 205.190308 
L 160.367173 202.725447 
L 161.996965 205.7062 
L 163.626757 206.283613 
L 165.256548 209.801167 
L 166.88634 205.102249 
L 168.516132 205.236952 
L 170.145924 210.00101 
L 171.775716 204.832441 
L 173.405508 208.90087 
L 175.0353 208.127635 
L 176.665092 204.469346 
L 178.294884 205.691725 
L 179.924676 209.355241 
L 183.184259 208.00781 
L 184.814051 205.699365 
L 186.443843 208.239418 
L 188.073635 208.56753 
L 189.703427 206.286428 
L 191.333219 209.278038 
L 192.963011 207.785047 
L 194.592803 208.610153 
L 196.222594 207.152145 
L 197.852386 206.912092 
L 199.482178 212.265225 
L 201.11197 207.152547 
L 202.741762 206.487075 
L 204.371554 210.022321 
L 206.001346 206.478229 
L 207.631138 210.806413 
L 209.26093 212.179578 
L 210.890722 211.313056 
L 212.520513 211.32914 
L 214.150305 213.069421 
L 215.780097 212.232655 
L 217.409889 210.535398 
L 219.039681 212.972917 
L 220.669473 209.404297 
L 222.299265 212.596553 
L 223.929057 212.163092 
L 225.558849 211.170713 
L 227.18864 214.047725 
L 228.818432 210.160643 
L 230.448224 211.6472 
L 232.078016 211.41157 
L 233.707808 212.381431 
L 235.3376 214.002288 
L 236.967392 212.042462 
L 238.597184 211.638756 
L 240.226976 215.32117 
L 241.856768 213.076256 
L 243.486559 212.925872 
L 246.746143 217.079947 
L 248.375935 212.91984 
L 250.005727 214.970943 
L 251.635519 213.83019 
L 253.265311 215.611485 
L 254.895103 212.928686 
L 256.524895 216.529475 
L 258.154686 212.675365 
L 259.784478 217.909878 
L 261.41427 215.96131 
L 263.044062 217.044965 
L 264.673854 215.560016 
L 266.303646 218.534738 
L 267.933438 217.291451 
L 269.56323 219.50299 
L 271.193022 211.929473 
L 272.822814 216.735349 
L 274.452605 216.260069 
L 276.082397 215.278548 
L 277.712189 219.196592 
L 279.341981 215.247184 
L 280.971773 216.771136 
L 282.601565 219.728567 
L 284.231357 220.340159 
L 285.861149 216.676643 
L 287.490941 217.626399 
L 289.120732 213.792795 
L 290.750524 216.447447 
L 292.380316 220.494162 
L 294.010108 218.954931 
L 295.6399 219.377134 
L 297.269692 221.203463 
L 298.899484 221.729006 
L 300.529276 223.799007 
L 302.159068 221.007642 
L 303.78886 221.55168 
L 305.418651 219.541994 
L 307.048443 221.836768 
L 308.678235 222.412572 
L 310.308027 227.652715 
L 311.937819 228.680075 
L 313.567611 229.312978 
L 315.197403 224.528815 
L 316.827195 228.181072 
L 318.456987 226.348309 
L 320.086778 229.902454 
L 321.71657 224.747556 
L 323.346362 223.794986 
L 324.976154 224.349479 
L 326.605946 220.307991 
L 328.235738 219.486504 
L 329.86553 215.507342 
L 331.495322 216.997115 
L 333.125114 222.895492 
L 334.754906 231.416755 
L 336.384697 224.889095 
L 338.014489 215.617114 
L 339.644281 211.843022 
L 341.274073 208.764558 
L 342.903865 198.443906 
L 344.533657 191.968921 
L 346.163449 197.851214 
L 347.793241 215.349317 
L 349.423033 227.181054 
L 351.052824 222.562957 
L 352.682616 224.938151 
L 354.312408 223.733465 
L 355.9422 221.326103 
L 357.571992 220.145141 
L 359.201784 221.216733 
L 360.831576 216.245594 
L 364.09116 220.682344 
L 365.720952 214.093163 
L 367.350743 224.539671 
L 368.980535 233.7252 
L 370.610327 219.440263 
L 372.240119 222.702083 
L 373.869911 216.165174 
L 375.499703 215.676625 
L 377.129495 217.765927 
L 378.759287 215.328006 
L 380.389079 202.5248 
L 382.01887 235.204921 
L 383.648662 240.200186 
L 385.278454 217.634441 
L 386.908246 35.795625 
L 388.538038 312.995625 
L 390.16783 180.085313 
L 391.797622 173.867268 
L 393.427414 201.166513 
L 395.057206 192.002295 
L 396.686998 195.311562 
L 398.316789 206.225309 
L 399.946581 214.329194 
L 401.576373 209.613388 
L 403.206165 206.907669 
L 404.835957 201.452002 
L 406.465749 211.127689 
L 408.095541 210.470259 
L 409.725333 216.559632 
L 411.355125 219.614774 
L 412.984916 210.964437 
L 414.614708 213.885278 
L 416.2445 212.683407 
L 417.874292 211.009874 
L 419.504084 209.725573 
L 421.133876 212.443756 
L 422.763668 212.82776 
L 424.39346 216.703583 
L 426.023252 215.063023 
L 427.653044 208.260327 
L 429.282835 207.840537 
L 430.912627 208.373719 
L 432.542419 222.008866 
L 434.172211 221.371138 
L 435.802003 219.661819 
L 437.431795 216.044545 
L 439.061587 216.268513 
L 440.691379 215.380681 
L 442.321171 208.57517 
L 443.950962 207.150939 
L 445.580754 207.390589 
L 447.210546 210.130084 
L 448.840338 206.270746 
L 450.47013 211.640364 
L 452.099922 211.117234 
L 453.729714 207.710659 
L 455.359506 212.446169 
L 456.989298 216.473583 
L 458.61909 214.746974 
L 460.248881 218.663007 
L 461.878673 218.168025 
L 463.508465 218.177273 
L 465.138257 214.616292 
L 466.768049 217.426154 
L 468.397841 213.381851 
L 468.397841 213.381851 
" clip-path="url(#p4f210d8454)" style="fill: none; stroke: #0272a2; stroke-width: 1.75; stroke-linecap: round"/>
   </g>
   <g id="line2d_33">
    <path d="M 62.579659 165.186789 
L 64.209451 167.03689 
L 65.839243 165.88183 
L 67.469035 166.511719 
L 69.098827 166.701635 
L 70.728619 165.532067 
L 72.35841 162.159998 
L 73.988202 167.16693 
L 75.617994 164.597257 
L 77.247786 166.715879 
L 78.877578 164.734946 
L 80.50737 165.933001 
L 82.137162 165.842 
L 83.766954 166.51673 
L 85.396746 167.057992 
L 87.026538 163.045219 
L 88.656329 165.522307 
L 90.286121 166.920038 
L 91.915913 164.683774 
L 93.545705 165.229256 
L 95.175497 164.040433 
L 96.805289 167.803149 
L 98.435081 167.059838 
L 100.064873 163.051813 
L 101.694665 167.627477 
L 103.324456 167.149257 
L 104.954248 165.415743 
L 106.58404 165.224244 
L 109.843624 166.122918 
L 111.473416 165.817205 
L 113.103208 165.662898 
L 116.362792 166.547328 
L 117.992584 166.570804 
L 119.622375 164.730198 
L 121.252167 166.118434 
L 122.881959 166.733024 
L 124.511751 167.063267 
L 126.141543 168.256838 
L 127.771335 163.397883 
L 129.401127 164.827267 
L 131.030919 167.634598 
L 132.660711 165.432097 
L 134.290502 166.644132 
L 135.920294 166.182003 
L 137.550086 165.925616 
L 139.179878 169.357297 
L 140.80967 166.586894 
L 142.439462 164.227712 
L 144.069254 164.338232 
L 145.699046 167.473697 
L 147.328838 166.96277 
L 148.95863 165.848067 
L 150.588421 165.713015 
L 152.218213 165.725412 
L 153.848005 169.218817 
L 155.477797 161.932626 
L 157.107589 166.008968 
L 158.737381 168.732156 
L 160.367173 166.749641 
L 161.996965 166.396977 
L 163.626757 165.497513 
L 165.256548 166.125555 
L 166.88634 163.145189 
L 168.516132 166.155626 
L 170.145924 167.578942 
L 171.775716 166.541525 
L 173.405508 166.104981 
L 175.0353 166.57687 
L 176.665092 164.021969 
L 178.294884 165.867322 
L 179.924676 166.780503 
L 181.554467 165.743085 
L 183.184259 165.445813 
L 184.814051 167.289584 
L 186.443843 165.148014 
L 188.073635 166.624877 
L 189.703427 165.461112 
L 191.333219 165.118735 
L 192.963011 167.221003 
L 194.592803 166.478747 
L 196.222594 164.567978 
L 197.852386 165.606715 
L 199.482178 161.942386 
L 201.11197 165.442912 
L 204.371554 164.60728 
L 206.001346 167.381904 
L 209.26093 165.685847 
L 210.890722 165.940387 
L 212.520513 167.795236 
L 214.150305 164.442159 
L 215.780097 167.260833 
L 217.409889 165.744404 
L 219.039681 166.075702 
L 220.669473 165.788982 
L 222.299265 167.830318 
L 223.929057 166.673147 
L 225.558849 164.453237 
L 227.18864 168.02762 
L 228.818432 162.947623 
L 232.078016 165.825118 
L 233.707808 167.733513 
L 235.3376 164.784536 
L 236.967392 167.719006 
L 238.597184 165.988394 
L 240.226976 165.948828 
L 241.856768 164.531841 
L 243.486559 165.299683 
L 245.116351 163.181589 
L 246.746143 168.085122 
L 248.375935 167.966424 
L 250.005727 164.390987 
L 251.635519 166.421508 
L 253.265311 166.76283 
L 254.895103 168.956627 
L 256.524895 164.498342 
L 258.154686 168.091716 
L 259.784478 168.927876 
L 261.41427 166.633054 
L 263.044062 165.574007 
L 264.673854 167.766485 
L 266.303646 164.826475 
L 267.933438 166.400934 
L 269.56323 166.347652 
L 271.193022 164.948602 
L 272.822814 164.872899 
L 274.452605 165.481159 
L 276.082397 164.666102 
L 277.712189 165.743085 
L 279.341981 164.751564 
L 280.971773 166.515148 
L 282.601565 166.780239 
L 284.231357 167.480819 
L 285.861149 165.42603 
L 287.490941 164.60517 
L 289.120732 166.176727 
L 290.750524 165.964127 
L 292.380316 165.225827 
L 294.010108 167.55151 
L 295.6399 166.272213 
L 297.269692 167.57947 
L 298.899484 165.870487 
L 300.529276 163.673525 
L 302.159068 164.570616 
L 303.78886 166.308877 
L 305.418651 165.09948 
L 307.048443 165.892908 
L 308.678235 164.493594 
L 310.308027 167.919209 
L 311.937819 166.290941 
L 315.197403 165.204989 
L 316.827195 162.740562 
L 318.456987 167.228125 
L 320.086778 164.212677 
L 321.71657 163.330093 
L 323.346362 166.211018 
L 324.976154 162.969516 
L 326.605946 166.711131 
L 328.235738 168.709472 
L 329.86553 166.932436 
L 333.125114 166.343959 
L 334.754906 164.799834 
L 336.384697 166.468987 
L 338.014489 165.93221 
L 339.644281 166.313625 
L 341.274073 167.115758 
L 342.903865 166.785251 
L 344.533657 163.33827 
L 346.163449 166.239769 
L 347.793241 163.539793 
L 349.423033 165.110295 
L 351.052824 169.533761 
L 352.682616 164.840455 
L 354.312408 166.683434 
L 355.9422 166.223679 
L 359.201784 164.67296 
L 360.831576 163.683285 
L 364.09116 166.551284 
L 365.720952 166.940877 
L 367.350743 166.07834 
L 368.980535 167.236302 
L 370.610327 166.741728 
L 372.240119 164.149107 
L 373.869911 166.54047 
L 375.499703 166.182267 
L 377.129495 163.745271 
L 378.759287 167.418041 
L 380.389079 164.484626 
L 382.01887 167.169567 
L 383.648662 166.682379 
L 385.278454 165.699035 
L 386.908246 169.149708 
L 388.538038 163.52845 
L 390.16783 165.378024 
L 391.797622 165.216068 
L 393.427414 165.412314 
L 395.057206 167.372672 
L 396.686998 165.194438 
L 398.316789 162.720251 
L 401.576373 168.450711 
L 403.206165 165.374067 
L 404.835957 166.923468 
L 406.465749 168.701822 
L 408.095541 165.70985 
L 409.725333 167.24105 
L 411.355125 163.80251 
L 412.984916 168.694964 
L 414.614708 167.875687 
L 416.2445 167.257667 
L 417.874292 166.1063 
L 419.504084 166.542052 
L 421.133876 166.077021 
L 422.763668 165.974941 
L 426.023252 167.320445 
L 427.653044 164.232723 
L 429.282835 166.480066 
L 430.912627 167.054563 
L 432.542419 165.359824 
L 434.172211 167.007875 
L 435.802003 167.966688 
L 437.431795 165.247984 
L 440.691379 165.562928 
L 442.321171 165.086555 
L 443.950962 166.639912 
L 445.580754 166.763621 
L 447.210546 166.056711 
L 448.840338 170.284458 
L 450.47013 166.849611 
L 452.099922 165.656568 
L 453.729714 165.99235 
L 455.359506 166.125555 
L 456.989298 167.986207 
L 458.61909 165.401236 
L 460.248881 165.611726 
L 461.878673 162.171604 
L 463.508465 166.910015 
L 465.138257 164.471174 
L 468.397841 166.642813 
L 468.397841 166.642813 
" clip-path="url(#p4f210d8454)" style="fill: none; stroke-dasharray: 1.75,2.8875; stroke-dashoffset: 0; stroke: #9fc377; stroke-width: 1.75"/>
   </g>
   <g id="patch_3">
    <path d="M 42.28875 326.855625 
L 42.28875 21.935625 
" style="fill: none; stroke: #cccccc; stroke-width: 1.25; stroke-linejoin: miter; stroke-linecap: square"/>
   </g>
   <g id="patch_4">
    <path d="M 488.68875 326.855625 
L 488.68875 21.935625 
" style="fill: none; stroke: #cccccc; stroke-width: 1.25; stroke-linejoin: miter; stroke-linecap: square"/>
   </g>
   <g id="patch_5">
    <path d="M 42.28875 326.855625 
L 488.68875 326.855625 
" style="fill: none; stroke: #cccccc; stroke-width: 1.25; stroke-linejoin: miter; stroke-linecap: square"/>
   </g>
   <g id="patch_6">
    <path d="M 42.28875 21.935625 
L 488.68875 21.935625 
" style="fill: none; stroke: #cccccc; stroke-width: 1.25; stroke-linejoin: miter; stroke-linecap: square"/>
   </g>
   <g id="text_34">
    <!-- "A-philicity" for dataset Mouse_non_tata -->
    <g style="fill: #262626" transform="translate(159.177188 15.935625) scale(0.12 -0.12)">
     <defs>
      <path id="ArialMT-22" d="M 450 2959 
L 294 3831 
L 294 4581 
L 934 4581 
L 934 3831 
L 794 2959 
L 450 2959 
z
M 1484 2959 
L 1331 3831 
L 1331 4581 
L 1972 4581 
L 1972 3831 
L 1822 2959 
L 1484 2959 
z
" transform="scale(0.015625)"/>
      <path id="ArialMT-20" transform="scale(0.015625)"/>
      <path id="ArialMT-66" d="M 556 0 
L 556 2881 
L 59 2881 
L 59 3319 
L 556 3319 
L 556 3672 
Q 556 4006 616 4169 
Q 697 4388 901 4523 
Q 1106 4659 1475 4659 
Q 1713 4659 2000 4603 
L 1916 4113 
Q 1741 4144 1584 4144 
Q 1328 4144 1222 4034 
Q 1116 3925 1116 3625 
L 1116 3319 
L 1763 3319 
L 1763 2881 
L 1116 2881 
L 1116 0 
L 556 0 
z
" transform="scale(0.015625)"/>
      <path id="ArialMT-72" d="M 416 0 
L 416 3319 
L 922 3319 
L 922 2816 
Q 1116 3169 1280 3281 
Q 1444 3394 1641 3394 
Q 1925 3394 2219 3213 
L 2025 2691 
Q 1819 2813 1613 2813 
Q 1428 2813 1281 2702 
Q 1134 2591 1072 2394 
Q 978 2094 978 1738 
L 978 0 
L 416 0 
z
" transform="scale(0.015625)"/>
      <path id="ArialMT-64" d="M 2575 0 
L 2575 419 
Q 2259 -75 1647 -75 
Q 1250 -75 917 144 
Q 584 363 401 755 
Q 219 1147 219 1656 
Q 219 2153 384 2558 
Q 550 2963 881 3178 
Q 1213 3394 1622 3394 
Q 1922 3394 2156 3267 
Q 2391 3141 2538 2938 
L 2538 4581 
L 3097 4581 
L 3097 0 
L 2575 0 
z
M 797 1656 
Q 797 1019 1065 703 
Q 1334 388 1700 388 
Q 2069 388 2326 689 
Q 2584 991 2584 1609 
Q 2584 2291 2321 2609 
Q 2059 2928 1675 2928 
Q 1300 2928 1048 2622 
Q 797 2316 797 1656 
z
" transform="scale(0.015625)"/>
      <path id="ArialMT-61" d="M 2588 409 
Q 2275 144 1986 34 
Q 1697 -75 1366 -75 
Q 819 -75 525 192 
Q 231 459 231 875 
Q 231 1119 342 1320 
Q 453 1522 633 1644 
Q 813 1766 1038 1828 
Q 1203 1872 1538 1913 
Q 2219 1994 2541 2106 
Q 2544 2222 2544 2253 
Q 2544 2597 2384 2738 
Q 2169 2928 1744 2928 
Q 1347 2928 1158 2789 
Q 969 2650 878 2297 
L 328 2372 
Q 403 2725 575 2942 
Q 747 3159 1072 3276 
Q 1397 3394 1825 3394 
Q 2250 3394 2515 3294 
Q 2781 3194 2906 3042 
Q 3031 2891 3081 2659 
Q 3109 2516 3109 2141 
L 3109 1391 
Q 3109 606 3145 398 
Q 3181 191 3288 0 
L 2700 0 
Q 2613 175 2588 409 
z
M 2541 1666 
Q 2234 1541 1622 1453 
Q 1275 1403 1131 1340 
Q 988 1278 909 1158 
Q 831 1038 831 891 
Q 831 666 1001 516 
Q 1172 366 1500 366 
Q 1825 366 2078 508 
Q 2331 650 2450 897 
Q 2541 1088 2541 1459 
L 2541 1666 
z
" transform="scale(0.015625)"/>
      <path id="ArialMT-65" d="M 2694 1069 
L 3275 997 
Q 3138 488 2766 206 
Q 2394 -75 1816 -75 
Q 1088 -75 661 373 
Q 234 822 234 1631 
Q 234 2469 665 2931 
Q 1097 3394 1784 3394 
Q 2450 3394 2872 2941 
Q 3294 2488 3294 1666 
Q 3294 1616 3291 1516 
L 816 1516 
Q 847 969 1125 678 
Q 1403 388 1819 388 
Q 2128 388 2347 550 
Q 2566 713 2694 1069 
z
M 847 1978 
L 2700 1978 
Q 2663 2397 2488 2606 
Q 2219 2931 1791 2931 
Q 1403 2931 1139 2672 
Q 875 2413 847 1978 
z
" transform="scale(0.015625)"/>
      <path id="ArialMT-4d" d="M 475 0 
L 475 4581 
L 1388 4581 
L 2472 1338 
Q 2622 884 2691 659 
Q 2769 909 2934 1394 
L 4031 4581 
L 4847 4581 
L 4847 0 
L 4263 0 
L 4263 3834 
L 2931 0 
L 2384 0 
L 1059 3900 
L 1059 0 
L 475 0 
z
" transform="scale(0.015625)"/>
      <path id="ArialMT-75" d="M 2597 0 
L 2597 488 
Q 2209 -75 1544 -75 
Q 1250 -75 995 37 
Q 741 150 617 320 
Q 494 491 444 738 
Q 409 903 409 1263 
L 409 3319 
L 972 3319 
L 972 1478 
Q 972 1038 1006 884 
Q 1059 663 1231 536 
Q 1403 409 1656 409 
Q 1909 409 2131 539 
Q 2353 669 2445 892 
Q 2538 1116 2538 1541 
L 2538 3319 
L 3100 3319 
L 3100 0 
L 2597 0 
z
" transform="scale(0.015625)"/>
      <path id="ArialMT-5f" d="M -97 -1272 
L -97 -866 
L 3631 -866 
L 3631 -1272 
L -97 -1272 
z
" transform="scale(0.015625)"/>
     </defs>
     <use xlink:href="#ArialMT-22"/>
     <use xlink:href="#ArialMT-41" x="35.498047"/>
     <use xlink:href="#ArialMT-2d" x="102.197266"/>
     <use xlink:href="#ArialMT-70" x="135.498047"/>
     <use xlink:href="#ArialMT-68" x="191.113281"/>
     <use xlink:href="#ArialMT-69" x="246.728516"/>
     <use xlink:href="#ArialMT-6c" x="268.945312"/>
     <use xlink:href="#ArialMT-69" x="291.162109"/>
     <use xlink:href="#ArialMT-63" x="313.378906"/>
     <use xlink:href="#ArialMT-69" x="363.378906"/>
     <use xlink:href="#ArialMT-74" x="385.595703"/>
     <use xlink:href="#ArialMT-79" x="413.378906"/>
     <use xlink:href="#ArialMT-22" x="463.378906"/>
     <use xlink:href="#ArialMT-20" x="498.876953"/>
     <use xlink:href="#ArialMT-66" x="526.660156"/>
     <use xlink:href="#ArialMT-6f" x="554.443359"/>
     <use xlink:href="#ArialMT-72" x="610.058594"/>
     <use xlink:href="#ArialMT-20" x="643.359375"/>
     <use xlink:href="#ArialMT-64" x="671.142578"/>
     <use xlink:href="#ArialMT-61" x="726.757812"/>
     <use xlink:href="#ArialMT-74" x="782.373047"/>
     <use xlink:href="#ArialMT-61" x="810.15625"/>
     <use xlink:href="#ArialMT-73" x="865.771484"/>
     <use xlink:href="#ArialMT-65" x="915.771484"/>
     <use xlink:href="#ArialMT-74" x="971.386719"/>
     <use xlink:href="#ArialMT-20" x="999.169922"/>
     <use xlink:href="#ArialMT-4d" x="1026.953125"/>
     <use xlink:href="#ArialMT-6f" x="1110.253906"/>
     <use xlink:href="#ArialMT-75" x="1165.869141"/>
     <use xlink:href="#ArialMT-73" x="1221.484375"/>
     <use xlink:href="#ArialMT-65" x="1271.484375"/>
     <use xlink:href="#ArialMT-5f" x="1327.099609"/>
     <use xlink:href="#ArialMT-6e" x="1382.714844"/>
     <use xlink:href="#ArialMT-6f" x="1438.330078"/>
     <use xlink:href="#ArialMT-6e" x="1493.945312"/>
     <use xlink:href="#ArialMT-5f" x="1549.560547"/>
     <use xlink:href="#ArialMT-74" x="1605.175781"/>
     <use xlink:href="#ArialMT-61" x="1632.958984"/>
     <use xlink:href="#ArialMT-74" x="1688.574219"/>
     <use xlink:href="#ArialMT-61" x="1716.357422"/>
    </g>
   </g>
   <g id="legend_1">
    <g id="line2d_34">
     <path d="M 51.28875 34.593437 
L 61.28875 34.593437 
L 71.28875 34.593437 
" style="fill: none; stroke: #0272a2; stroke-width: 1.75; stroke-linecap: round"/>
    </g>
    <g id="text_35">
     <!-- Promoter -->
     <g style="fill: #262626" transform="translate(79.28875 38.093437) scale(0.1 -0.1)">
      <defs>
       <path id="ArialMT-6d" d="M 422 0 
L 422 3319 
L 925 3319 
L 925 2853 
Q 1081 3097 1340 3245 
Q 1600 3394 1931 3394 
Q 2300 3394 2536 3241 
Q 2772 3088 2869 2813 
Q 3263 3394 3894 3394 
Q 4388 3394 4653 3120 
Q 4919 2847 4919 2278 
L 4919 0 
L 4359 0 
L 4359 2091 
Q 4359 2428 4304 2576 
Q 4250 2725 4106 2815 
Q 3963 2906 3769 2906 
Q 3419 2906 3187 2673 
Q 2956 2441 2956 1928 
L 2956 0 
L 2394 0 
L 2394 2156 
Q 2394 2531 2256 2718 
Q 2119 2906 1806 2906 
Q 1569 2906 1367 2781 
Q 1166 2656 1075 2415 
Q 984 2175 984 1722 
L 984 0 
L 422 0 
z
" transform="scale(0.015625)"/>
      </defs>
      <use xlink:href="#ArialMT-50"/>
      <use xlink:href="#ArialMT-72" x="66.699219"/>
      <use xlink:href="#ArialMT-6f" x="100"/>
      <use xlink:href="#ArialMT-6d" x="155.615234"/>
      <use xlink:href="#ArialMT-6f" x="238.916016"/>
      <use xlink:href="#ArialMT-74" x="294.53125"/>
      <use xlink:href="#ArialMT-65" x="322.314453"/>
      <use xlink:href="#ArialMT-72" x="377.929688"/>
     </g>
    </g>
    <g id="line2d_35">
     <path d="M 51.28875 48.73875 
L 61.28875 48.73875 
L 71.28875 48.73875 
" style="fill: none; stroke-dasharray: 1.75,2.8875; stroke-dashoffset: 0; stroke: #9fc377; stroke-width: 1.75"/>
    </g>
    <g id="text_36">
     <!-- Non-promoter -->
     <g style="fill: #262626" transform="translate(79.28875 52.23875) scale(0.1 -0.1)">
      <defs>
       <path id="ArialMT-4e" d="M 488 0 
L 488 4581 
L 1109 4581 
L 3516 984 
L 3516 4581 
L 4097 4581 
L 4097 0 
L 3475 0 
L 1069 3600 
L 1069 0 
L 488 0 
z
" transform="scale(0.015625)"/>
      </defs>
      <use xlink:href="#ArialMT-4e"/>
      <use xlink:href="#ArialMT-6f" x="72.216797"/>
      <use xlink:href="#ArialMT-6e" x="127.832031"/>
      <use xlink:href="#ArialMT-2d" x="183.447266"/>
      <use xlink:href="#ArialMT-70" x="216.748047"/>
      <use xlink:href="#ArialMT-72" x="272.363281"/>
      <use xlink:href="#ArialMT-6f" x="305.664062"/>
      <use xlink:href="#ArialMT-6d" x="361.279297"/>
      <use xlink:href="#ArialMT-6f" x="444.580078"/>
      <use xlink:href="#ArialMT-74" x="500.195312"/>
      <use xlink:href="#ArialMT-65" x="527.978516"/>
      <use xlink:href="#ArialMT-72" x="583.59375"/>
     </g>
    </g>
   </g>
  </g>
 </g>
 <defs>
  <clipPath id="p4f210d8454">
   <rect x="42.28875" y="21.935625" width="446.4" height="304.92"/>
  </clipPath>
 </defs>
</svg>
