<?xml version="1.0" encoding="utf-8" standalone="no"?>
<!DOCTYPE svg PUBLIC "-//W3C//DTD SVG 1.1//EN"
  "http://www.w3.org/Graphics/SVG/1.1/DTD/svg11.dtd">
<svg xmlns:xlink="http://www.w3.org/1999/xlink" width="487.68375pt" height="375.733156pt" viewBox="0 0 487.68375 375.733156" xmlns="http://www.w3.org/2000/svg" version="1.1">
 <metadata>
  <rdf:RDF xmlns:dc="http://purl.org/dc/elements/1.1/" xmlns:cc="http://creativecommons.org/ns#" xmlns:rdf="http://www.w3.org/1999/02/22-rdf-syntax-ns#">
   <cc:Work>
    <dc:type rdf:resource="http://purl.org/dc/dcmitype/StillImage"/>
    <dc:date>2023-05-11T16:25:32.677807</dc:date>
    <dc:format>image/svg+xml</dc:format>
    <dc:creator>
     <cc:Agent>
      <dc:title>Matplotlib v3.7.1, https://matplotlib.org/</dc:title>
     </cc:Agent>
    </dc:creator>
   </cc:Work>
  </rdf:RDF>
 </metadata>
 <defs>
  <style type="text/css">*{stroke-linejoin: round; stroke-linecap: butt}</style>
 </defs>
 <g id="figure_1">
  <g id="patch_1">
   <path d="M 0 375.733156 
L 487.68375 375.733156 
L 487.68375 0 
L 0 0 
z
" style="fill: #ffffff"/>
  </g>
  <g id="axes_1">
   <g id="patch_2">
    <path d="M 34.08375 326.855625 
L 480.48375 326.855625 
L 480.48375 21.935625 
L 34.08375 21.935625 
z
" style="fill: #ffffff"/>
   </g>
   <g id="matplotlib.axis_1">
    <g id="xtick_1">
     <g id="line2d_1"/>
     <g id="text_1">
      <!-- -200 -->
      <g style="fill: #262626" transform="translate(49.127153 353.067937) rotate(-45) scale(0.1 -0.1)">
       <defs>
        <path id="ArialMT-2d" d="M 203 1375 
L 203 1941 
L 1931 1941 
L 1931 1375 
L 203 1375 
z
" transform="scale(0.015625)"/>
        <path id="ArialMT-32" d="M 3222 541 
L 3222 0 
L 194 0 
Q 188 203 259 391 
Q 375 700 629 1000 
Q 884 1300 1366 1694 
Q 2113 2306 2375 2664 
Q 2638 3022 2638 3341 
Q 2638 3675 2398 3904 
Q 2159 4134 1775 4134 
Q 1369 4134 1125 3890 
Q 881 3647 878 3216 
L 300 3275 
Q 359 3922 746 4261 
Q 1134 4600 1788 4600 
Q 2447 4600 2831 4234 
Q 3216 3869 3216 3328 
Q 3216 3053 3103 2787 
Q 2991 2522 2730 2228 
Q 2469 1934 1863 1422 
Q 1356 997 1212 845 
Q 1069 694 975 541 
L 3222 541 
z
" transform="scale(0.015625)"/>
        <path id="ArialMT-30" d="M 266 2259 
Q 266 3072 433 3567 
Q 600 4063 929 4331 
Q 1259 4600 1759 4600 
Q 2128 4600 2406 4451 
Q 2684 4303 2865 4023 
Q 3047 3744 3150 3342 
Q 3253 2941 3253 2259 
Q 3253 1453 3087 958 
Q 2922 463 2592 192 
Q 2263 -78 1759 -78 
Q 1097 -78 719 397 
Q 266 969 266 2259 
z
M 844 2259 
Q 844 1131 1108 757 
Q 1372 384 1759 384 
Q 2147 384 2411 759 
Q 2675 1134 2675 2259 
Q 2675 3391 2411 3762 
Q 2147 4134 1753 4134 
Q 1366 4134 1134 3806 
Q 844 3388 844 2259 
z
" transform="scale(0.015625)"/>
       </defs>
       <use xlink:href="#ArialMT-2d"/>
       <use xlink:href="#ArialMT-32" x="33.300781"/>
       <use xlink:href="#ArialMT-30" x="88.916016"/>
       <use xlink:href="#ArialMT-30" x="144.53125"/>
      </g>
     </g>
    </g>
    <g id="xtick_2">
     <g id="line2d_2"/>
     <g id="text_2">
      <!-- -190 -->
      <g style="fill: #262626" transform="translate(65.425072 353.067937) rotate(-45) scale(0.1 -0.1)">
       <defs>
        <path id="ArialMT-31" d="M 2384 0 
L 1822 0 
L 1822 3584 
Q 1619 3391 1289 3197 
Q 959 3003 697 2906 
L 697 3450 
Q 1169 3672 1522 3987 
Q 1875 4303 2022 4600 
L 2384 4600 
L 2384 0 
z
" transform="scale(0.015625)"/>
        <path id="ArialMT-39" d="M 350 1059 
L 891 1109 
Q 959 728 1153 556 
Q 1347 384 1650 384 
Q 1909 384 2104 503 
Q 2300 622 2425 820 
Q 2550 1019 2634 1356 
Q 2719 1694 2719 2044 
Q 2719 2081 2716 2156 
Q 2547 1888 2255 1720 
Q 1963 1553 1622 1553 
Q 1053 1553 659 1965 
Q 266 2378 266 3053 
Q 266 3750 677 4175 
Q 1088 4600 1706 4600 
Q 2153 4600 2523 4359 
Q 2894 4119 3086 3673 
Q 3278 3228 3278 2384 
Q 3278 1506 3087 986 
Q 2897 466 2520 194 
Q 2144 -78 1638 -78 
Q 1100 -78 759 220 
Q 419 519 350 1059 
z
M 2653 3081 
Q 2653 3566 2395 3850 
Q 2138 4134 1775 4134 
Q 1400 4134 1122 3828 
Q 844 3522 844 3034 
Q 844 2597 1108 2323 
Q 1372 2050 1759 2050 
Q 2150 2050 2401 2323 
Q 2653 2597 2653 3081 
z
" transform="scale(0.015625)"/>
       </defs>
       <use xlink:href="#ArialMT-2d"/>
       <use xlink:href="#ArialMT-31" x="33.300781"/>
       <use xlink:href="#ArialMT-39" x="88.916016"/>
       <use xlink:href="#ArialMT-30" x="144.53125"/>
      </g>
     </g>
    </g>
    <g id="xtick_3">
     <g id="line2d_3"/>
     <g id="text_3">
      <!-- -180 -->
      <g style="fill: #262626" transform="translate(81.722991 353.067937) rotate(-45) scale(0.1 -0.1)">
       <defs>
        <path id="ArialMT-38" d="M 1131 2484 
Q 781 2613 612 2850 
Q 444 3088 444 3419 
Q 444 3919 803 4259 
Q 1163 4600 1759 4600 
Q 2359 4600 2725 4251 
Q 3091 3903 3091 3403 
Q 3091 3084 2923 2848 
Q 2756 2613 2416 2484 
Q 2838 2347 3058 2040 
Q 3278 1734 3278 1309 
Q 3278 722 2862 322 
Q 2447 -78 1769 -78 
Q 1091 -78 675 323 
Q 259 725 259 1325 
Q 259 1772 486 2073 
Q 713 2375 1131 2484 
z
M 1019 3438 
Q 1019 3113 1228 2906 
Q 1438 2700 1772 2700 
Q 2097 2700 2305 2904 
Q 2513 3109 2513 3406 
Q 2513 3716 2298 3927 
Q 2084 4138 1766 4138 
Q 1444 4138 1231 3931 
Q 1019 3725 1019 3438 
z
M 838 1322 
Q 838 1081 952 856 
Q 1066 631 1291 507 
Q 1516 384 1775 384 
Q 2178 384 2440 643 
Q 2703 903 2703 1303 
Q 2703 1709 2433 1975 
Q 2163 2241 1756 2241 
Q 1359 2241 1098 1978 
Q 838 1716 838 1322 
z
" transform="scale(0.015625)"/>
       </defs>
       <use xlink:href="#ArialMT-2d"/>
       <use xlink:href="#ArialMT-31" x="33.300781"/>
       <use xlink:href="#ArialMT-38" x="88.916016"/>
       <use xlink:href="#ArialMT-30" x="144.53125"/>
      </g>
     </g>
    </g>
    <g id="xtick_4">
     <g id="line2d_4"/>
     <g id="text_4">
      <!-- -170 -->
      <g style="fill: #262626" transform="translate(98.02091 353.067937) rotate(-45) scale(0.1 -0.1)">
       <defs>
        <path id="ArialMT-37" d="M 303 3981 
L 303 4522 
L 3269 4522 
L 3269 4084 
Q 2831 3619 2401 2847 
Q 1972 2075 1738 1259 
Q 1569 684 1522 0 
L 944 0 
Q 953 541 1156 1306 
Q 1359 2072 1739 2783 
Q 2119 3494 2547 3981 
L 303 3981 
z
" transform="scale(0.015625)"/>
       </defs>
       <use xlink:href="#ArialMT-2d"/>
       <use xlink:href="#ArialMT-31" x="33.300781"/>
       <use xlink:href="#ArialMT-37" x="88.916016"/>
       <use xlink:href="#ArialMT-30" x="144.53125"/>
      </g>
     </g>
    </g>
    <g id="xtick_5">
     <g id="line2d_5"/>
     <g id="text_5">
      <!-- -160 -->
      <g style="fill: #262626" transform="translate(114.318829 353.067937) rotate(-45) scale(0.1 -0.1)">
       <defs>
        <path id="ArialMT-36" d="M 3184 3459 
L 2625 3416 
Q 2550 3747 2413 3897 
Q 2184 4138 1850 4138 
Q 1581 4138 1378 3988 
Q 1113 3794 959 3422 
Q 806 3050 800 2363 
Q 1003 2672 1297 2822 
Q 1591 2972 1913 2972 
Q 2475 2972 2870 2558 
Q 3266 2144 3266 1488 
Q 3266 1056 3080 686 
Q 2894 316 2569 119 
Q 2244 -78 1831 -78 
Q 1128 -78 684 439 
Q 241 956 241 2144 
Q 241 3472 731 4075 
Q 1159 4600 1884 4600 
Q 2425 4600 2770 4297 
Q 3116 3994 3184 3459 
z
M 888 1484 
Q 888 1194 1011 928 
Q 1134 663 1356 523 
Q 1578 384 1822 384 
Q 2178 384 2434 671 
Q 2691 959 2691 1453 
Q 2691 1928 2437 2201 
Q 2184 2475 1800 2475 
Q 1419 2475 1153 2201 
Q 888 1928 888 1484 
z
" transform="scale(0.015625)"/>
       </defs>
       <use xlink:href="#ArialMT-2d"/>
       <use xlink:href="#ArialMT-31" x="33.300781"/>
       <use xlink:href="#ArialMT-36" x="88.916016"/>
       <use xlink:href="#ArialMT-30" x="144.53125"/>
      </g>
     </g>
    </g>
    <g id="xtick_6">
     <g id="line2d_6"/>
     <g id="text_6">
      <!-- -150 -->
      <g style="fill: #262626" transform="translate(130.616748 353.067937) rotate(-45) scale(0.1 -0.1)">
       <defs>
        <path id="ArialMT-35" d="M 266 1200 
L 856 1250 
Q 922 819 1161 601 
Q 1400 384 1738 384 
Q 2144 384 2425 690 
Q 2706 997 2706 1503 
Q 2706 1984 2436 2262 
Q 2166 2541 1728 2541 
Q 1456 2541 1237 2417 
Q 1019 2294 894 2097 
L 366 2166 
L 809 4519 
L 3088 4519 
L 3088 3981 
L 1259 3981 
L 1013 2750 
Q 1425 3038 1878 3038 
Q 2478 3038 2890 2622 
Q 3303 2206 3303 1553 
Q 3303 931 2941 478 
Q 2500 -78 1738 -78 
Q 1113 -78 717 272 
Q 322 622 266 1200 
z
" transform="scale(0.015625)"/>
       </defs>
       <use xlink:href="#ArialMT-2d"/>
       <use xlink:href="#ArialMT-31" x="33.300781"/>
       <use xlink:href="#ArialMT-35" x="88.916016"/>
       <use xlink:href="#ArialMT-30" x="144.53125"/>
      </g>
     </g>
    </g>
    <g id="xtick_7">
     <g id="line2d_7"/>
     <g id="text_7">
      <!-- -140 -->
      <g style="fill: #262626" transform="translate(146.914667 353.067937) rotate(-45) scale(0.1 -0.1)">
       <defs>
        <path id="ArialMT-34" d="M 2069 0 
L 2069 1097 
L 81 1097 
L 81 1613 
L 2172 4581 
L 2631 4581 
L 2631 1613 
L 3250 1613 
L 3250 1097 
L 2631 1097 
L 2631 0 
L 2069 0 
z
M 2069 1613 
L 2069 3678 
L 634 1613 
L 2069 1613 
z
" transform="scale(0.015625)"/>
       </defs>
       <use xlink:href="#ArialMT-2d"/>
       <use xlink:href="#ArialMT-31" x="33.300781"/>
       <use xlink:href="#ArialMT-34" x="88.916016"/>
       <use xlink:href="#ArialMT-30" x="144.53125"/>
      </g>
     </g>
    </g>
    <g id="xtick_8">
     <g id="line2d_8"/>
     <g id="text_8">
      <!-- -130 -->
      <g style="fill: #262626" transform="translate(163.212586 353.067937) rotate(-45) scale(0.1 -0.1)">
       <defs>
        <path id="ArialMT-33" d="M 269 1209 
L 831 1284 
Q 928 806 1161 595 
Q 1394 384 1728 384 
Q 2125 384 2398 659 
Q 2672 934 2672 1341 
Q 2672 1728 2419 1979 
Q 2166 2231 1775 2231 
Q 1616 2231 1378 2169 
L 1441 2663 
Q 1497 2656 1531 2656 
Q 1891 2656 2178 2843 
Q 2466 3031 2466 3422 
Q 2466 3731 2256 3934 
Q 2047 4138 1716 4138 
Q 1388 4138 1169 3931 
Q 950 3725 888 3313 
L 325 3413 
Q 428 3978 793 4289 
Q 1159 4600 1703 4600 
Q 2078 4600 2393 4439 
Q 2709 4278 2876 4000 
Q 3044 3722 3044 3409 
Q 3044 3113 2884 2869 
Q 2725 2625 2413 2481 
Q 2819 2388 3044 2092 
Q 3269 1797 3269 1353 
Q 3269 753 2831 336 
Q 2394 -81 1725 -81 
Q 1122 -81 723 278 
Q 325 638 269 1209 
z
" transform="scale(0.015625)"/>
       </defs>
       <use xlink:href="#ArialMT-2d"/>
       <use xlink:href="#ArialMT-31" x="33.300781"/>
       <use xlink:href="#ArialMT-33" x="88.916016"/>
       <use xlink:href="#ArialMT-30" x="144.53125"/>
      </g>
     </g>
    </g>
    <g id="xtick_9">
     <g id="line2d_9"/>
     <g id="text_9">
      <!-- -120 -->
      <g style="fill: #262626" transform="translate(179.510505 353.067937) rotate(-45) scale(0.1 -0.1)">
       <use xlink:href="#ArialMT-2d"/>
       <use xlink:href="#ArialMT-31" x="33.300781"/>
       <use xlink:href="#ArialMT-32" x="88.916016"/>
       <use xlink:href="#ArialMT-30" x="144.53125"/>
      </g>
     </g>
    </g>
    <g id="xtick_10">
     <g id="line2d_10"/>
     <g id="text_10">
      <!-- -110 -->
      <g style="fill: #262626" transform="translate(196.06917 352.546446) rotate(-45) scale(0.1 -0.1)">
       <use xlink:href="#ArialMT-2d"/>
       <use xlink:href="#ArialMT-31" x="33.300781"/>
       <use xlink:href="#ArialMT-31" x="81.541016"/>
       <use xlink:href="#ArialMT-30" x="137.15625"/>
      </g>
     </g>
    </g>
    <g id="xtick_11">
     <g id="line2d_11"/>
     <g id="text_11">
      <!-- -100 -->
      <g style="fill: #262626" transform="translate(212.106343 353.067937) rotate(-45) scale(0.1 -0.1)">
       <use xlink:href="#ArialMT-2d"/>
       <use xlink:href="#ArialMT-31" x="33.300781"/>
       <use xlink:href="#ArialMT-30" x="88.916016"/>
       <use xlink:href="#ArialMT-30" x="144.53125"/>
      </g>
     </g>
    </g>
    <g id="xtick_12">
     <g id="line2d_12"/>
     <g id="text_12">
      <!-- -90 -->
      <g style="fill: #262626" transform="translate(230.37035 349.135761) rotate(-45) scale(0.1 -0.1)">
       <use xlink:href="#ArialMT-2d"/>
       <use xlink:href="#ArialMT-39" x="33.300781"/>
       <use xlink:href="#ArialMT-30" x="88.916016"/>
      </g>
     </g>
    </g>
    <g id="xtick_13">
     <g id="line2d_13"/>
     <g id="text_13">
      <!-- -80 -->
      <g style="fill: #262626" transform="translate(246.668269 349.135761) rotate(-45) scale(0.1 -0.1)">
       <use xlink:href="#ArialMT-2d"/>
       <use xlink:href="#ArialMT-38" x="33.300781"/>
       <use xlink:href="#ArialMT-30" x="88.916016"/>
      </g>
     </g>
    </g>
    <g id="xtick_14">
     <g id="line2d_14"/>
     <g id="text_14">
      <!-- -70 -->
      <g style="fill: #262626" transform="translate(262.966188 349.135761) rotate(-45) scale(0.1 -0.1)">
       <use xlink:href="#ArialMT-2d"/>
       <use xlink:href="#ArialMT-37" x="33.300781"/>
       <use xlink:href="#ArialMT-30" x="88.916016"/>
      </g>
     </g>
    </g>
    <g id="xtick_15">
     <g id="line2d_15"/>
     <g id="text_15">
      <!-- -60 -->
      <g style="fill: #262626" transform="translate(279.264107 349.135761) rotate(-45) scale(0.1 -0.1)">
       <use xlink:href="#ArialMT-2d"/>
       <use xlink:href="#ArialMT-36" x="33.300781"/>
       <use xlink:href="#ArialMT-30" x="88.916016"/>
      </g>
     </g>
    </g>
    <g id="xtick_16">
     <g id="line2d_16"/>
     <g id="text_16">
      <!-- -50 -->
      <g style="fill: #262626" transform="translate(295.562026 349.135761) rotate(-45) scale(0.1 -0.1)">
       <use xlink:href="#ArialMT-2d"/>
       <use xlink:href="#ArialMT-35" x="33.300781"/>
       <use xlink:href="#ArialMT-30" x="88.916016"/>
      </g>
     </g>
    </g>
    <g id="xtick_17">
     <g id="line2d_17"/>
     <g id="text_17">
      <!-- -40 -->
      <g style="fill: #262626" transform="translate(311.859945 349.135761) rotate(-45) scale(0.1 -0.1)">
       <use xlink:href="#ArialMT-2d"/>
       <use xlink:href="#ArialMT-34" x="33.300781"/>
       <use xlink:href="#ArialMT-30" x="88.916016"/>
      </g>
     </g>
    </g>
    <g id="xtick_18">
     <g id="line2d_18"/>
     <g id="text_18">
      <!-- -30 -->
      <g style="fill: #262626" transform="translate(328.157864 349.135761) rotate(-45) scale(0.1 -0.1)">
       <use xlink:href="#ArialMT-2d"/>
       <use xlink:href="#ArialMT-33" x="33.300781"/>
       <use xlink:href="#ArialMT-30" x="88.916016"/>
      </g>
     </g>
    </g>
    <g id="xtick_19">
     <g id="line2d_19"/>
     <g id="text_19">
      <!-- -20 -->
      <g style="fill: #262626" transform="translate(344.455783 349.135761) rotate(-45) scale(0.1 -0.1)">
       <use xlink:href="#ArialMT-2d"/>
       <use xlink:href="#ArialMT-32" x="33.300781"/>
       <use xlink:href="#ArialMT-30" x="88.916016"/>
      </g>
     </g>
    </g>
    <g id="xtick_20">
     <g id="line2d_20"/>
     <g id="text_20">
      <!-- -10 -->
      <g style="fill: #262626" transform="translate(360.753702 349.135761) rotate(-45) scale(0.1 -0.1)">
       <use xlink:href="#ArialMT-2d"/>
       <use xlink:href="#ArialMT-31" x="33.300781"/>
       <use xlink:href="#ArialMT-30" x="88.916016"/>
      </g>
     </g>
    </g>
    <g id="xtick_21">
     <g id="line2d_21"/>
     <g id="text_21">
      <!-- 0 -->
      <g style="fill: #262626" transform="translate(380.194931 342.849139) rotate(-45) scale(0.1 -0.1)">
       <use xlink:href="#ArialMT-30"/>
      </g>
     </g>
    </g>
    <g id="xtick_22">
     <g id="line2d_22"/>
     <g id="text_22">
      <!-- 10 -->
      <g style="fill: #262626" transform="translate(394.526762 346.781316) rotate(-45) scale(0.1 -0.1)">
       <use xlink:href="#ArialMT-31"/>
       <use xlink:href="#ArialMT-30" x="55.615234"/>
      </g>
     </g>
    </g>
    <g id="xtick_23">
     <g id="line2d_23"/>
     <g id="text_23">
      <!-- 20 -->
      <g style="fill: #262626" transform="translate(410.824681 346.781316) rotate(-45) scale(0.1 -0.1)">
       <use xlink:href="#ArialMT-32"/>
       <use xlink:href="#ArialMT-30" x="55.615234"/>
      </g>
     </g>
    </g>
    <g id="xtick_24">
     <g id="line2d_24"/>
     <g id="text_24">
      <!-- 30 -->
      <g style="fill: #262626" transform="translate(427.1226 346.781316) rotate(-45) scale(0.1 -0.1)">
       <use xlink:href="#ArialMT-33"/>
       <use xlink:href="#ArialMT-30" x="55.615234"/>
      </g>
     </g>
    </g>
    <g id="xtick_25">
     <g id="line2d_25"/>
     <g id="text_25">
      <!-- 40 -->
      <g style="fill: #262626" transform="translate(443.420519 346.781316) rotate(-45) scale(0.1 -0.1)">
       <use xlink:href="#ArialMT-34"/>
       <use xlink:href="#ArialMT-30" x="55.615234"/>
      </g>
     </g>
    </g>
    <g id="xtick_26">
     <g id="line2d_26"/>
     <g id="text_26">
      <!-- 50 -->
      <g style="fill: #262626" transform="translate(459.718438 346.781316) rotate(-45) scale(0.1 -0.1)">
       <use xlink:href="#ArialMT-35"/>
       <use xlink:href="#ArialMT-30" x="55.615234"/>
      </g>
     </g>
    </g>
    <g id="text_27">
     <!-- Position -->
     <g style="fill: #262626" transform="translate(237.7175 366.346906) scale(0.11 -0.11)">
      <defs>
       <path id="ArialMT-50" d="M 494 0 
L 494 4581 
L 2222 4581 
Q 2678 4581 2919 4538 
Q 3256 4481 3484 4323 
Q 3713 4166 3852 3881 
Q 3991 3597 3991 3256 
Q 3991 2672 3619 2267 
Q 3247 1863 2275 1863 
L 1100 1863 
L 1100 0 
L 494 0 
z
M 1100 2403 
L 2284 2403 
Q 2872 2403 3119 2622 
Q 3366 2841 3366 3238 
Q 3366 3525 3220 3729 
Q 3075 3934 2838 4000 
Q 2684 4041 2272 4041 
L 1100 4041 
L 1100 2403 
z
" transform="scale(0.015625)"/>
       <path id="ArialMT-6f" d="M 213 1659 
Q 213 2581 725 3025 
Q 1153 3394 1769 3394 
Q 2453 3394 2887 2945 
Q 3322 2497 3322 1706 
Q 3322 1066 3130 698 
Q 2938 331 2570 128 
Q 2203 -75 1769 -75 
Q 1072 -75 642 372 
Q 213 819 213 1659 
z
M 791 1659 
Q 791 1022 1069 705 
Q 1347 388 1769 388 
Q 2188 388 2466 706 
Q 2744 1025 2744 1678 
Q 2744 2294 2464 2611 
Q 2184 2928 1769 2928 
Q 1347 2928 1069 2612 
Q 791 2297 791 1659 
z
" transform="scale(0.015625)"/>
       <path id="ArialMT-73" d="M 197 991 
L 753 1078 
Q 800 744 1014 566 
Q 1228 388 1613 388 
Q 2000 388 2187 545 
Q 2375 703 2375 916 
Q 2375 1106 2209 1216 
Q 2094 1291 1634 1406 
Q 1016 1563 777 1677 
Q 538 1791 414 1992 
Q 291 2194 291 2438 
Q 291 2659 392 2848 
Q 494 3038 669 3163 
Q 800 3259 1026 3326 
Q 1253 3394 1513 3394 
Q 1903 3394 2198 3281 
Q 2494 3169 2634 2976 
Q 2775 2784 2828 2463 
L 2278 2388 
Q 2241 2644 2061 2787 
Q 1881 2931 1553 2931 
Q 1166 2931 1000 2803 
Q 834 2675 834 2503 
Q 834 2394 903 2306 
Q 972 2216 1119 2156 
Q 1203 2125 1616 2013 
Q 2213 1853 2448 1751 
Q 2684 1650 2818 1456 
Q 2953 1263 2953 975 
Q 2953 694 2789 445 
Q 2625 197 2315 61 
Q 2006 -75 1616 -75 
Q 969 -75 630 194 
Q 291 463 197 991 
z
" transform="scale(0.015625)"/>
       <path id="ArialMT-69" d="M 425 3934 
L 425 4581 
L 988 4581 
L 988 3934 
L 425 3934 
z
M 425 0 
L 425 3319 
L 988 3319 
L 988 0 
L 425 0 
z
" transform="scale(0.015625)"/>
       <path id="ArialMT-74" d="M 1650 503 
L 1731 6 
Q 1494 -44 1306 -44 
Q 1000 -44 831 53 
Q 663 150 594 308 
Q 525 466 525 972 
L 525 2881 
L 113 2881 
L 113 3319 
L 525 3319 
L 525 4141 
L 1084 4478 
L 1084 3319 
L 1650 3319 
L 1650 2881 
L 1084 2881 
L 1084 941 
Q 1084 700 1114 631 
Q 1144 563 1211 522 
Q 1278 481 1403 481 
Q 1497 481 1650 503 
z
" transform="scale(0.015625)"/>
       <path id="ArialMT-6e" d="M 422 0 
L 422 3319 
L 928 3319 
L 928 2847 
Q 1294 3394 1984 3394 
Q 2284 3394 2536 3286 
Q 2788 3178 2913 3003 
Q 3038 2828 3088 2588 
Q 3119 2431 3119 2041 
L 3119 0 
L 2556 0 
L 2556 2019 
Q 2556 2363 2490 2533 
Q 2425 2703 2258 2804 
Q 2091 2906 1866 2906 
Q 1506 2906 1245 2678 
Q 984 2450 984 1813 
L 984 0 
L 422 0 
z
" transform="scale(0.015625)"/>
      </defs>
      <use xlink:href="#ArialMT-50"/>
      <use xlink:href="#ArialMT-6f" x="66.699219"/>
      <use xlink:href="#ArialMT-73" x="122.314453"/>
      <use xlink:href="#ArialMT-69" x="172.314453"/>
      <use xlink:href="#ArialMT-74" x="194.53125"/>
      <use xlink:href="#ArialMT-69" x="222.314453"/>
      <use xlink:href="#ArialMT-6f" x="244.53125"/>
      <use xlink:href="#ArialMT-6e" x="300.146484"/>
     </g>
    </g>
   </g>
   <g id="matplotlib.axis_2">
    <g id="ytick_1">
     <g id="line2d_27"/>
     <g id="text_28">
      <!-- 3 -->
      <g style="fill: #262626" transform="translate(21.522813 315.20235) scale(0.1 -0.1)">
       <use xlink:href="#ArialMT-33"/>
      </g>
     </g>
    </g>
    <g id="ytick_2">
     <g id="line2d_28"/>
     <g id="text_29">
      <!-- 4 -->
      <g style="fill: #262626" transform="translate(21.522813 267.245228) scale(0.1 -0.1)">
       <use xlink:href="#ArialMT-34"/>
      </g>
     </g>
    </g>
    <g id="ytick_3">
     <g id="line2d_29"/>
     <g id="text_30">
      <!-- 5 -->
      <g style="fill: #262626" transform="translate(21.522813 219.288106) scale(0.1 -0.1)">
       <use xlink:href="#ArialMT-35"/>
      </g>
     </g>
    </g>
    <g id="ytick_4">
     <g id="line2d_30"/>
     <g id="text_31">
      <!-- 6 -->
      <g style="fill: #262626" transform="translate(21.522813 171.330984) scale(0.1 -0.1)">
       <use xlink:href="#ArialMT-36"/>
      </g>
     </g>
    </g>
    <g id="ytick_5">
     <g id="line2d_31"/>
     <g id="text_32">
      <!-- 7 -->
      <g style="fill: #262626" transform="translate(21.522813 123.373862) scale(0.1 -0.1)">
       <use xlink:href="#ArialMT-37"/>
      </g>
     </g>
    </g>
    <g id="ytick_6">
     <g id="line2d_32"/>
     <g id="text_33">
      <!-- 8 -->
      <g style="fill: #262626" transform="translate(21.522813 75.41674) scale(0.1 -0.1)">
       <use xlink:href="#ArialMT-38"/>
      </g>
     </g>
    </g>
    <g id="ytick_7">
     <g id="line2d_33"/>
     <g id="text_34">
      <!-- 9 -->
      <g style="fill: #262626" transform="translate(21.522813 27.459618) scale(0.1 -0.1)">
       <use xlink:href="#ArialMT-39"/>
      </g>
     </g>
    </g>
    <g id="text_35">
     <!-- Protein induced deformability -->
     <g style="fill: #262626" transform="translate(15.207656 245.318984) rotate(-90) scale(0.11 -0.11)">
      <defs>
       <path id="ArialMT-72" d="M 416 0 
L 416 3319 
L 922 3319 
L 922 2816 
Q 1116 3169 1280 3281 
Q 1444 3394 1641 3394 
Q 1925 3394 2219 3213 
L 2025 2691 
Q 1819 2813 1613 2813 
Q 1428 2813 1281 2702 
Q 1134 2591 1072 2394 
Q 978 2094 978 1738 
L 978 0 
L 416 0 
z
" transform="scale(0.015625)"/>
       <path id="ArialMT-65" d="M 2694 1069 
L 3275 997 
Q 3138 488 2766 206 
Q 2394 -75 1816 -75 
Q 1088 -75 661 373 
Q 234 822 234 1631 
Q 234 2469 665 2931 
Q 1097 3394 1784 3394 
Q 2450 3394 2872 2941 
Q 3294 2488 3294 1666 
Q 3294 1616 3291 1516 
L 816 1516 
Q 847 969 1125 678 
Q 1403 388 1819 388 
Q 2128 388 2347 550 
Q 2566 713 2694 1069 
z
M 847 1978 
L 2700 1978 
Q 2663 2397 2488 2606 
Q 2219 2931 1791 2931 
Q 1403 2931 1139 2672 
Q 875 2413 847 1978 
z
" transform="scale(0.015625)"/>
       <path id="ArialMT-20" transform="scale(0.015625)"/>
       <path id="ArialMT-64" d="M 2575 0 
L 2575 419 
Q 2259 -75 1647 -75 
Q 1250 -75 917 144 
Q 584 363 401 755 
Q 219 1147 219 1656 
Q 219 2153 384 2558 
Q 550 2963 881 3178 
Q 1213 3394 1622 3394 
Q 1922 3394 2156 3267 
Q 2391 3141 2538 2938 
L 2538 4581 
L 3097 4581 
L 3097 0 
L 2575 0 
z
M 797 1656 
Q 797 1019 1065 703 
Q 1334 388 1700 388 
Q 2069 388 2326 689 
Q 2584 991 2584 1609 
Q 2584 2291 2321 2609 
Q 2059 2928 1675 2928 
Q 1300 2928 1048 2622 
Q 797 2316 797 1656 
z
" transform="scale(0.015625)"/>
       <path id="ArialMT-75" d="M 2597 0 
L 2597 488 
Q 2209 -75 1544 -75 
Q 1250 -75 995 37 
Q 741 150 617 320 
Q 494 491 444 738 
Q 409 903 409 1263 
L 409 3319 
L 972 3319 
L 972 1478 
Q 972 1038 1006 884 
Q 1059 663 1231 536 
Q 1403 409 1656 409 
Q 1909 409 2131 539 
Q 2353 669 2445 892 
Q 2538 1116 2538 1541 
L 2538 3319 
L 3100 3319 
L 3100 0 
L 2597 0 
z
" transform="scale(0.015625)"/>
       <path id="ArialMT-63" d="M 2588 1216 
L 3141 1144 
Q 3050 572 2676 248 
Q 2303 -75 1759 -75 
Q 1078 -75 664 370 
Q 250 816 250 1647 
Q 250 2184 428 2587 
Q 606 2991 970 3192 
Q 1334 3394 1763 3394 
Q 2303 3394 2647 3120 
Q 2991 2847 3088 2344 
L 2541 2259 
Q 2463 2594 2264 2762 
Q 2066 2931 1784 2931 
Q 1359 2931 1093 2626 
Q 828 2322 828 1663 
Q 828 994 1084 691 
Q 1341 388 1753 388 
Q 2084 388 2306 591 
Q 2528 794 2588 1216 
z
" transform="scale(0.015625)"/>
       <path id="ArialMT-66" d="M 556 0 
L 556 2881 
L 59 2881 
L 59 3319 
L 556 3319 
L 556 3672 
Q 556 4006 616 4169 
Q 697 4388 901 4523 
Q 1106 4659 1475 4659 
Q 1713 4659 2000 4603 
L 1916 4113 
Q 1741 4144 1584 4144 
Q 1328 4144 1222 4034 
Q 1116 3925 1116 3625 
L 1116 3319 
L 1763 3319 
L 1763 2881 
L 1116 2881 
L 1116 0 
L 556 0 
z
" transform="scale(0.015625)"/>
       <path id="ArialMT-6d" d="M 422 0 
L 422 3319 
L 925 3319 
L 925 2853 
Q 1081 3097 1340 3245 
Q 1600 3394 1931 3394 
Q 2300 3394 2536 3241 
Q 2772 3088 2869 2813 
Q 3263 3394 3894 3394 
Q 4388 3394 4653 3120 
Q 4919 2847 4919 2278 
L 4919 0 
L 4359 0 
L 4359 2091 
Q 4359 2428 4304 2576 
Q 4250 2725 4106 2815 
Q 3963 2906 3769 2906 
Q 3419 2906 3187 2673 
Q 2956 2441 2956 1928 
L 2956 0 
L 2394 0 
L 2394 2156 
Q 2394 2531 2256 2718 
Q 2119 2906 1806 2906 
Q 1569 2906 1367 2781 
Q 1166 2656 1075 2415 
Q 984 2175 984 1722 
L 984 0 
L 422 0 
z
" transform="scale(0.015625)"/>
       <path id="ArialMT-61" d="M 2588 409 
Q 2275 144 1986 34 
Q 1697 -75 1366 -75 
Q 819 -75 525 192 
Q 231 459 231 875 
Q 231 1119 342 1320 
Q 453 1522 633 1644 
Q 813 1766 1038 1828 
Q 1203 1872 1538 1913 
Q 2219 1994 2541 2106 
Q 2544 2222 2544 2253 
Q 2544 2597 2384 2738 
Q 2169 2928 1744 2928 
Q 1347 2928 1158 2789 
Q 969 2650 878 2297 
L 328 2372 
Q 403 2725 575 2942 
Q 747 3159 1072 3276 
Q 1397 3394 1825 3394 
Q 2250 3394 2515 3294 
Q 2781 3194 2906 3042 
Q 3031 2891 3081 2659 
Q 3109 2516 3109 2141 
L 3109 1391 
Q 3109 606 3145 398 
Q 3181 191 3288 0 
L 2700 0 
Q 2613 175 2588 409 
z
M 2541 1666 
Q 2234 1541 1622 1453 
Q 1275 1403 1131 1340 
Q 988 1278 909 1158 
Q 831 1038 831 891 
Q 831 666 1001 516 
Q 1172 366 1500 366 
Q 1825 366 2078 508 
Q 2331 650 2450 897 
Q 2541 1088 2541 1459 
L 2541 1666 
z
" transform="scale(0.015625)"/>
       <path id="ArialMT-62" d="M 941 0 
L 419 0 
L 419 4581 
L 981 4581 
L 981 2947 
Q 1338 3394 1891 3394 
Q 2197 3394 2470 3270 
Q 2744 3147 2920 2923 
Q 3097 2700 3197 2384 
Q 3297 2069 3297 1709 
Q 3297 856 2875 390 
Q 2453 -75 1863 -75 
Q 1275 -75 941 416 
L 941 0 
z
M 934 1684 
Q 934 1088 1097 822 
Q 1363 388 1816 388 
Q 2184 388 2453 708 
Q 2722 1028 2722 1663 
Q 2722 2313 2464 2622 
Q 2206 2931 1841 2931 
Q 1472 2931 1203 2611 
Q 934 2291 934 1684 
z
" transform="scale(0.015625)"/>
       <path id="ArialMT-6c" d="M 409 0 
L 409 4581 
L 972 4581 
L 972 0 
L 409 0 
z
" transform="scale(0.015625)"/>
       <path id="ArialMT-79" d="M 397 -1278 
L 334 -750 
Q 519 -800 656 -800 
Q 844 -800 956 -737 
Q 1069 -675 1141 -563 
Q 1194 -478 1313 -144 
Q 1328 -97 1363 -6 
L 103 3319 
L 709 3319 
L 1400 1397 
Q 1534 1031 1641 628 
Q 1738 1016 1872 1384 
L 2581 3319 
L 3144 3319 
L 1881 -56 
Q 1678 -603 1566 -809 
Q 1416 -1088 1222 -1217 
Q 1028 -1347 759 -1347 
Q 597 -1347 397 -1278 
z
" transform="scale(0.015625)"/>
      </defs>
      <use xlink:href="#ArialMT-50"/>
      <use xlink:href="#ArialMT-72" x="66.699219"/>
      <use xlink:href="#ArialMT-6f" x="100"/>
      <use xlink:href="#ArialMT-74" x="155.615234"/>
      <use xlink:href="#ArialMT-65" x="183.398438"/>
      <use xlink:href="#ArialMT-69" x="239.013672"/>
      <use xlink:href="#ArialMT-6e" x="261.230469"/>
      <use xlink:href="#ArialMT-20" x="316.845703"/>
      <use xlink:href="#ArialMT-69" x="344.628906"/>
      <use xlink:href="#ArialMT-6e" x="366.845703"/>
      <use xlink:href="#ArialMT-64" x="422.460938"/>
      <use xlink:href="#ArialMT-75" x="478.076172"/>
      <use xlink:href="#ArialMT-63" x="533.691406"/>
      <use xlink:href="#ArialMT-65" x="583.691406"/>
      <use xlink:href="#ArialMT-64" x="639.306641"/>
      <use xlink:href="#ArialMT-20" x="694.921875"/>
      <use xlink:href="#ArialMT-64" x="722.705078"/>
      <use xlink:href="#ArialMT-65" x="778.320312"/>
      <use xlink:href="#ArialMT-66" x="833.935547"/>
      <use xlink:href="#ArialMT-6f" x="861.71875"/>
      <use xlink:href="#ArialMT-72" x="917.333984"/>
      <use xlink:href="#ArialMT-6d" x="950.634766"/>
      <use xlink:href="#ArialMT-61" x="1033.935547"/>
      <use xlink:href="#ArialMT-62" x="1089.550781"/>
      <use xlink:href="#ArialMT-69" x="1145.166016"/>
      <use xlink:href="#ArialMT-6c" x="1167.382812"/>
      <use xlink:href="#ArialMT-69" x="1189.599609"/>
      <use xlink:href="#ArialMT-74" x="1211.816406"/>
      <use xlink:href="#ArialMT-79" x="1239.599609"/>
     </g>
    </g>
   </g>
   <g id="line2d_34">
    <path d="M 54.374659 214.765844 
L 56.004451 216.919982 
L 57.634243 214.757303 
L 59.264035 216.129778 
L 60.893827 216.619569 
L 62.523619 215.741892 
L 64.15341 217.293732 
L 65.783202 215.447958 
L 67.412994 216.225498 
L 69.042786 214.658343 
L 70.672578 215.165511 
L 72.30237 214.930482 
L 73.932162 215.692118 
L 75.561954 214.225395 
L 77.191746 215.268299 
L 78.821538 213.866666 
L 80.451329 215.361369 
L 82.081121 213.616911 
L 83.710913 213.38306 
L 85.340705 213.414868 
L 86.970497 215.130463 
L 88.600289 214.210669 
L 90.230081 211.698979 
L 91.859873 216.443445 
L 93.489665 214.204484 
L 95.119456 213.761227 
L 96.749248 214.296375 
L 98.37904 211.878933 
L 100.008832 213.684062 
L 101.638624 213.576561 
L 103.268416 214.441574 
L 104.898208 211.42743 
L 106.528 212.906817 
L 108.157792 209.771623 
L 109.787584 212.32808 
L 111.417375 210.502039 
L 113.047167 214.538472 
L 114.676959 212.018537 
L 116.306751 213.439019 
L 117.936543 211.960516 
L 119.566335 212.168449 
L 121.196127 213.428122 
L 122.825919 211.373237 
L 124.455711 212.8002 
L 126.085502 211.843001 
L 127.715294 213.57126 
L 129.345086 211.693678 
L 130.974878 212.609644 
L 132.60467 210.310011 
L 134.234462 212.7787 
L 135.864254 209.638205 
L 137.494046 211.799117 
L 139.123838 212.480643 
L 140.75363 209.451183 
L 142.383421 211.080776 
L 144.013213 210.798918 
L 145.643005 209.87235 
L 147.272797 210.434005 
L 148.902589 210.176297 
L 150.532381 212.061831 
L 152.162173 209.636437 
L 153.791965 210.883741 
L 155.421757 209.846727 
L 157.051548 210.363908 
L 158.68134 208.941364 
L 160.311132 208.460998 
L 161.940924 209.489765 
L 163.570716 208.920453 
L 165.200508 210.115626 
L 166.8303 208.053673 
L 168.460092 208.931056 
L 170.089884 207.158913 
L 171.719676 208.551416 
L 173.349467 207.127104 
L 174.979259 208.453929 
L 176.609051 207.092351 
L 179.868635 208.439497 
L 181.498427 206.482689 
L 183.128219 208.407394 
L 184.758011 205.824431 
L 186.387803 206.408764 
L 188.017594 209.157544 
L 189.647386 206.600793 
L 191.277178 208.925165 
L 194.536762 205.329633 
L 196.166554 207.92261 
L 199.426138 204.841314 
L 201.05593 207.51234 
L 202.685722 205.664505 
L 204.315513 206.162248 
L 205.945305 206.366058 
L 207.575097 205.282509 
L 209.204889 203.053562 
L 210.834681 205.009487 
L 212.464473 204.287023 
L 214.094265 206.781924 
L 215.724057 206.049446 
L 217.353849 203.758354 
L 218.98364 206.381962 
L 220.613432 202.291043 
L 222.243224 204.435462 
L 223.873016 204.511154 
L 225.502808 205.178837 
L 227.1326 206.659403 
L 228.762392 201.456071 
L 230.392184 202.534613 
L 232.021976 203.890301 
L 233.651768 201.893437 
L 235.281559 202.161747 
L 236.911351 203.615216 
L 238.541143 204.028137 
L 240.170935 202.41003 
L 241.800727 202.950184 
L 243.430519 199.59616 
L 245.060311 202.1105 
L 246.690103 201.237241 
L 248.319895 202.427996 
L 249.949686 200.902663 
L 251.579478 202.489845 
L 253.20927 200.38931 
L 254.839062 200.317446 
L 256.468854 198.509961 
L 258.098646 200.258542 
L 259.728438 198.626003 
L 261.35823 200.779552 
L 262.988022 198.758244 
L 264.617814 200.84258 
L 266.247605 198.028416 
L 267.877397 199.854162 
L 269.507189 199.29722 
L 271.136981 199.92632 
L 272.766773 197.45557 
L 274.396565 198.100575 
L 276.026357 198.51055 
L 277.656149 195.977066 
L 279.285941 200.478845 
L 280.915732 197.173417 
L 282.545524 200.080356 
L 285.805108 197.165171 
L 287.4349 197.255589 
L 289.064692 195.984724 
L 290.694484 195.294657 
L 292.324276 197.274733 
L 293.954068 195.864853 
L 295.58386 197.36898 
L 297.213651 197.755983 
L 298.843443 196.861518 
L 300.473235 197.62492 
L 302.103027 194.770112 
L 303.732819 197.360145 
L 305.362611 195.981484 
L 306.992403 190.960462 
L 308.622195 193.472151 
L 310.251987 191.219642 
L 311.881778 195.736736 
L 313.51157 196.76138 
L 315.141362 196.861223 
L 316.771154 196.400001 
L 318.400946 194.437302 
L 320.030738 189.950249 
L 321.66053 194.348356 
L 323.290322 198.279644 
L 324.920114 200.549825 
L 326.549906 202.058959 
L 328.179697 199.344049 
L 329.809489 197.599002 
L 333.069073 211.234223 
L 334.698865 214.641555 
L 336.328657 218.580207 
L 337.958449 214.271929 
L 339.588241 199.795258 
L 341.218033 197.765408 
L 342.847824 193.751948 
L 344.477616 190.213847 
L 346.107408 192.621275 
L 347.7372 193.516919 
L 349.366992 194.914429 
L 350.996784 197.111273 
L 352.626576 195.084074 
L 355.88616 193.364945 
L 357.515952 193.734276 
L 359.145743 195.916395 
L 360.775535 195.864853 
L 362.405327 194.386938 
L 364.035119 196.133458 
L 365.664911 194.614015 
L 367.294703 199.357892 
L 368.924495 198.319405 
L 370.554287 208.33612 
L 372.184079 203.922698 
L 373.81387 195.613331 
L 375.443662 226.166226 
L 377.073454 250.819833 
L 378.703246 35.795625 
L 380.333038 312.995625 
L 381.96283 237.83757 
L 383.592622 234.320675 
L 385.222414 208.774075 
L 386.852206 204.465209 
L 388.481998 187.773138 
L 391.741581 205.18031 
L 393.371373 198.023704 
L 395.001165 195.853367 
L 396.630957 192.413048 
L 398.260749 193.067183 
L 399.890541 199.487482 
L 401.520333 200.358385 
L 403.150125 198.905505 
L 404.779916 196.618537 
L 406.409708 191.117148 
L 408.0395 188.539191 
L 409.669292 196.873004 
L 411.299084 196.769627 
L 412.928876 195.687845 
L 414.558668 191.511219 
L 416.18846 193.826462 
L 417.818252 196.712784 
L 419.448044 201.100582 
L 421.077835 199.239788 
L 422.707627 190.399691 
L 424.337419 196.609995 
L 425.967211 198.862505 
L 427.597003 202.99937 
L 429.226795 198.611571 
L 430.856587 196.405302 
L 432.486379 196.531947 
L 434.116171 197.963327 
L 435.745962 200.457345 
L 437.375754 200.338652 
L 439.005546 202.863889 
L 440.635338 200.647606 
L 442.26513 200.640243 
L 443.894922 200.995438 
L 445.524714 199.431228 
L 447.154506 201.303214 
L 448.784298 201.969424 
L 450.41409 199.505742 
L 452.043881 198.993862 
L 453.673673 197.069451 
L 455.303465 197.257356 
L 456.933257 195.380658 
L 458.563049 195.442508 
L 460.192841 197.740668 
L 460.192841 197.740668 
" clip-path="url(#p7ec814e0d5)" style="fill: none; stroke: #0272a2; stroke-width: 1.75; stroke-linecap: round"/>
   </g>
   <g id="line2d_35">
    <path d="M 54.374659 234.207333 
L 56.004451 233.531312 
L 57.634243 233.458088 
L 59.264035 233.065111 
L 60.893827 235.58256 
L 62.523619 233.86884 
L 64.15341 233.019515 
L 65.783202 235.038884 
L 67.412994 233.113798 
L 69.042786 234.09199 
L 70.672578 232.384453 
L 72.30237 234.006594 
L 75.561954 234.971262 
L 77.191746 234.374262 
L 78.821538 233.327868 
L 80.451329 233.238608 
L 82.081121 235.20446 
L 83.710913 233.33521 
L 85.340705 234.597219 
L 86.970497 233.636608 
L 88.600289 235.815178 
L 90.230081 233.706935 
L 91.859873 232.580168 
L 93.489665 234.131018 
L 95.119456 234.192457 
L 96.749248 233.616708 
L 98.37904 234.659624 
L 100.008832 233.359747 
L 101.638624 234.422756 
L 103.268416 233.630619 
L 104.898208 234.267033 
L 106.528 234.446327 
L 108.157792 234.074022 
L 109.787584 234.518392 
L 111.417375 233.151859 
L 113.047167 234.512209 
L 114.676959 233.07593 
L 116.306751 233.874249 
L 117.936543 234.812835 
L 119.566335 232.849881 
L 121.196127 234.081171 
L 122.825919 235.107858 
L 124.455711 233.204411 
L 126.085502 233.542904 
L 127.715294 234.519744 
L 129.345086 233.249234 
L 130.974878 234.203856 
L 132.60467 232.17927 
L 134.234462 233.881784 
L 135.864254 233.304297 
L 137.494046 234.767239 
L 139.123838 234.34219 
L 140.75363 233.187795 
L 142.383421 234.200571 
L 144.013213 233.846621 
L 145.643005 234.460237 
L 147.272797 232.80216 
L 148.902589 233.466396 
L 150.532381 234.348179 
L 152.162173 234.215255 
L 153.791965 233.880818 
L 155.421757 233.333278 
L 157.051548 234.477046 
L 158.68134 234.060885 
L 160.311132 233.860339 
L 161.940924 234.85051 
L 163.570716 233.345836 
L 165.200508 234.581376 
L 166.8303 233.725096 
L 168.460092 234.095661 
L 170.089884 233.721425 
L 171.719676 233.604343 
L 174.979259 233.619606 
L 176.609051 234.305481 
L 178.238843 233.167316 
L 179.868635 233.910185 
L 181.498427 233.017196 
L 183.128219 232.886204 
L 184.758011 233.621925 
L 186.387803 235.819235 
L 188.017594 233.455576 
L 189.647386 233.946701 
L 191.277178 233.022606 
L 192.90697 235.402687 
L 194.536762 234.680877 
L 196.166554 232.699955 
L 197.796346 233.169248 
L 199.426138 234.763375 
L 201.05593 234.752748 
L 202.685722 232.698216 
L 204.315513 234.767432 
L 205.945305 233.48533 
L 207.575097 235.531168 
L 209.204889 233.031107 
L 210.834681 233.421959 
L 212.464473 233.208082 
L 214.094265 235.516291 
L 215.724057 234.161351 
L 217.353849 233.121333 
L 218.98364 235.947716 
L 220.613432 232.663439 
L 222.243224 233.97375 
L 223.873016 234.145894 
L 225.502808 234.195548 
L 227.1326 232.900114 
L 228.762392 235.032122 
L 230.392184 234.174875 
L 232.021976 234.525347 
L 233.651768 235.243101 
L 235.281559 234.259112 
L 236.911351 229.824498 
L 238.541143 234.129665 
L 240.170935 233.733404 
L 241.800727 233.666169 
L 243.430519 234.529211 
L 245.060311 234.622143 
L 246.690103 234.316107 
L 248.319895 233.021253 
L 249.949686 233.202092 
L 253.20927 234.454635 
L 254.839062 233.483591 
L 256.468854 234.926439 
L 258.098646 233.607048 
L 259.728438 232.974884 
L 261.35823 235.155772 
L 262.988022 233.577488 
L 264.617814 233.746542 
L 266.247605 234.716619 
L 267.877397 234.180285 
L 269.507189 233.898593 
L 271.136981 233.961384 
L 272.766773 234.987105 
L 274.396565 232.883112 
L 276.026357 234.629871 
L 277.656149 233.561452 
L 279.285941 234.290991 
L 280.915732 233.907481 
L 284.175316 233.984762 
L 285.805108 234.12812 
L 287.4349 233.203445 
L 289.064692 235.693459 
L 290.694484 234.514528 
L 292.324276 234.126188 
L 293.954068 232.425992 
L 295.58386 234.86017 
L 297.213651 233.969113 
L 298.843443 234.129279 
L 300.473235 233.387955 
L 302.103027 234.659238 
L 303.732819 233.725675 
L 305.362611 234.382956 
L 306.992403 233.982057 
L 308.622195 232.959621 
L 310.251987 234.980729 
L 311.881778 233.405343 
L 313.51157 232.99633 
L 315.141362 235.283094 
L 316.771154 232.710774 
L 318.400946 233.924869 
L 320.030738 233.61864 
L 321.66053 234.525347 
L 323.290322 234.404015 
L 324.920114 233.723357 
L 326.549906 233.639313 
L 328.179697 233.963123 
L 329.809489 232.958269 
L 331.439281 233.403218 
L 333.069073 234.553941 
L 334.698865 233.853383 
L 336.328657 233.937814 
L 337.958449 235.964911 
L 339.588241 233.233585 
L 341.218033 233.71389 
L 342.847824 234.687252 
L 344.477616 232.773372 
L 346.107408 234.655953 
L 347.7372 232.968895 
L 349.366992 232.853939 
L 350.996784 233.994616 
L 352.626576 232.36378 
L 354.256368 234.948464 
L 355.88616 234.914654 
L 359.145743 233.800639 
L 360.775535 234.092956 
L 362.405327 234.807812 
L 364.035119 232.688363 
L 365.664911 232.997296 
L 367.294703 235.336804 
L 368.924495 233.567635 
L 370.554287 234.139325 
L 372.184079 231.39718 
L 373.81387 235.118677 
L 375.443662 233.793683 
L 377.073454 233.463304 
L 378.703246 234.370204 
L 380.333038 232.451881 
L 381.96283 234.86983 
L 383.592622 233.870192 
L 385.222414 233.609946 
L 386.852206 236.261093 
L 388.481998 233.460406 
L 391.741581 234.335041 
L 393.371373 233.364191 
L 396.630957 233.912117 
L 398.260749 234.790037 
L 399.890541 234.115755 
L 401.520333 235.101095 
L 403.150125 232.970441 
L 404.779916 235.391288 
L 406.409708 233.072066 
L 408.0395 232.739369 
L 409.669292 234.423915 
L 411.299084 233.545996 
L 414.558668 234.099912 
L 417.818252 234.289638 
L 419.448044 232.908229 
L 421.077835 232.769895 
L 422.707627 233.755622 
L 424.337419 233.017582 
L 425.967211 234.463522 
L 427.597003 233.090227 
L 429.226795 234.134689 
L 430.856587 234.743861 
L 432.486379 233.356269 
L 434.116171 234.172363 
L 435.745962 234.355134 
L 437.375754 233.370953 
L 439.005546 233.842178 
L 440.635338 234.761443 
L 442.26513 232.773566 
L 443.894922 233.434324 
L 445.524714 234.545247 
L 447.154506 233.271259 
L 448.784298 233.520493 
L 450.41409 233.64395 
L 452.043881 233.425436 
L 453.673673 232.306398 
L 455.303465 235.967036 
L 456.933257 233.912504 
L 458.563049 234.828678 
L 460.192841 233.672351 
L 460.192841 233.672351 
" clip-path="url(#p7ec814e0d5)" style="fill: none; stroke-dasharray: 1.75,2.8875; stroke-dashoffset: 0; stroke: #9fc377; stroke-width: 1.75"/>
   </g>
   <g id="patch_3">
    <path d="M 34.08375 326.855625 
L 34.08375 21.935625 
" style="fill: none; stroke: #cccccc; stroke-width: 1.25; stroke-linejoin: miter; stroke-linecap: square"/>
   </g>
   <g id="patch_4">
    <path d="M 480.48375 326.855625 
L 480.48375 21.935625 
" style="fill: none; stroke: #cccccc; stroke-width: 1.25; stroke-linejoin: miter; stroke-linecap: square"/>
   </g>
   <g id="patch_5">
    <path d="M 34.08375 326.855625 
L 480.48375 326.855625 
" style="fill: none; stroke: #cccccc; stroke-width: 1.25; stroke-linejoin: miter; stroke-linecap: square"/>
   </g>
   <g id="patch_6">
    <path d="M 34.08375 21.935625 
L 480.48375 21.935625 
" style="fill: none; stroke: #cccccc; stroke-width: 1.25; stroke-linejoin: miter; stroke-linecap: square"/>
   </g>
   <g id="text_36">
    <!-- "Protein induced deformability" for dataset Mouse_non_tata -->
    <g style="fill: #262626" transform="translate(99.27375 15.935625) scale(0.12 -0.12)">
     <defs>
      <path id="ArialMT-22" d="M 450 2959 
L 294 3831 
L 294 4581 
L 934 4581 
L 934 3831 
L 794 2959 
L 450 2959 
z
M 1484 2959 
L 1331 3831 
L 1331 4581 
L 1972 4581 
L 1972 3831 
L 1822 2959 
L 1484 2959 
z
" transform="scale(0.015625)"/>
      <path id="ArialMT-4d" d="M 475 0 
L 475 4581 
L 1388 4581 
L 2472 1338 
Q 2622 884 2691 659 
Q 2769 909 2934 1394 
L 4031 4581 
L 4847 4581 
L 4847 0 
L 4263 0 
L 4263 3834 
L 2931 0 
L 2384 0 
L 1059 3900 
L 1059 0 
L 475 0 
z
" transform="scale(0.015625)"/>
      <path id="ArialMT-5f" d="M -97 -1272 
L -97 -866 
L 3631 -866 
L 3631 -1272 
L -97 -1272 
z
" transform="scale(0.015625)"/>
     </defs>
     <use xlink:href="#ArialMT-22"/>
     <use xlink:href="#ArialMT-50" x="35.498047"/>
     <use xlink:href="#ArialMT-72" x="102.197266"/>
     <use xlink:href="#ArialMT-6f" x="135.498047"/>
     <use xlink:href="#ArialMT-74" x="191.113281"/>
     <use xlink:href="#ArialMT-65" x="218.896484"/>
     <use xlink:href="#ArialMT-69" x="274.511719"/>
     <use xlink:href="#ArialMT-6e" x="296.728516"/>
     <use xlink:href="#ArialMT-20" x="352.34375"/>
     <use xlink:href="#ArialMT-69" x="380.126953"/>
     <use xlink:href="#ArialMT-6e" x="402.34375"/>
     <use xlink:href="#ArialMT-64" x="457.958984"/>
     <use xlink:href="#ArialMT-75" x="513.574219"/>
     <use xlink:href="#ArialMT-63" x="569.189453"/>
     <use xlink:href="#ArialMT-65" x="619.189453"/>
     <use xlink:href="#ArialMT-64" x="674.804688"/>
     <use xlink:href="#ArialMT-20" x="730.419922"/>
     <use xlink:href="#ArialMT-64" x="758.203125"/>
     <use xlink:href="#ArialMT-65" x="813.818359"/>
     <use xlink:href="#ArialMT-66" x="869.433594"/>
     <use xlink:href="#ArialMT-6f" x="897.216797"/>
     <use xlink:href="#ArialMT-72" x="952.832031"/>
     <use xlink:href="#ArialMT-6d" x="986.132812"/>
     <use xlink:href="#ArialMT-61" x="1069.433594"/>
     <use xlink:href="#ArialMT-62" x="1125.048828"/>
     <use xlink:href="#ArialMT-69" x="1180.664062"/>
     <use xlink:href="#ArialMT-6c" x="1202.880859"/>
     <use xlink:href="#ArialMT-69" x="1225.097656"/>
     <use xlink:href="#ArialMT-74" x="1247.314453"/>
     <use xlink:href="#ArialMT-79" x="1275.097656"/>
     <use xlink:href="#ArialMT-22" x="1325.097656"/>
     <use xlink:href="#ArialMT-20" x="1360.595703"/>
     <use xlink:href="#ArialMT-66" x="1388.378906"/>
     <use xlink:href="#ArialMT-6f" x="1416.162109"/>
     <use xlink:href="#ArialMT-72" x="1471.777344"/>
     <use xlink:href="#ArialMT-20" x="1505.078125"/>
     <use xlink:href="#ArialMT-64" x="1532.861328"/>
     <use xlink:href="#ArialMT-61" x="1588.476562"/>
     <use xlink:href="#ArialMT-74" x="1644.091797"/>
     <use xlink:href="#ArialMT-61" x="1671.875"/>
     <use xlink:href="#ArialMT-73" x="1727.490234"/>
     <use xlink:href="#ArialMT-65" x="1777.490234"/>
     <use xlink:href="#ArialMT-74" x="1833.105469"/>
     <use xlink:href="#ArialMT-20" x="1860.888672"/>
     <use xlink:href="#ArialMT-4d" x="1888.671875"/>
     <use xlink:href="#ArialMT-6f" x="1971.972656"/>
     <use xlink:href="#ArialMT-75" x="2027.587891"/>
     <use xlink:href="#ArialMT-73" x="2083.203125"/>
     <use xlink:href="#ArialMT-65" x="2133.203125"/>
     <use xlink:href="#ArialMT-5f" x="2188.818359"/>
     <use xlink:href="#ArialMT-6e" x="2244.433594"/>
     <use xlink:href="#ArialMT-6f" x="2300.048828"/>
     <use xlink:href="#ArialMT-6e" x="2355.664062"/>
     <use xlink:href="#ArialMT-5f" x="2411.279297"/>
     <use xlink:href="#ArialMT-74" x="2466.894531"/>
     <use xlink:href="#ArialMT-61" x="2494.677734"/>
     <use xlink:href="#ArialMT-74" x="2550.292969"/>
     <use xlink:href="#ArialMT-61" x="2578.076172"/>
    </g>
   </g>
   <g id="legend_1">
    <g id="line2d_36">
     <path d="M 43.08375 34.593437 
L 53.08375 34.593437 
L 63.08375 34.593437 
" style="fill: none; stroke: #0272a2; stroke-width: 1.75; stroke-linecap: round"/>
    </g>
    <g id="text_37">
     <!-- Promoter -->
     <g style="fill: #262626" transform="translate(71.08375 38.093437) scale(0.1 -0.1)">
      <use xlink:href="#ArialMT-50"/>
      <use xlink:href="#ArialMT-72" x="66.699219"/>
      <use xlink:href="#ArialMT-6f" x="100"/>
      <use xlink:href="#ArialMT-6d" x="155.615234"/>
      <use xlink:href="#ArialMT-6f" x="238.916016"/>
      <use xlink:href="#ArialMT-74" x="294.53125"/>
      <use xlink:href="#ArialMT-65" x="322.314453"/>
      <use xlink:href="#ArialMT-72" x="377.929688"/>
     </g>
    </g>
    <g id="line2d_37">
     <path d="M 43.08375 48.73875 
L 53.08375 48.73875 
L 63.08375 48.73875 
" style="fill: none; stroke-dasharray: 1.75,2.8875; stroke-dashoffset: 0; stroke: #9fc377; stroke-width: 1.75"/>
    </g>
    <g id="text_38">
     <!-- Non-promoter -->
     <g style="fill: #262626" transform="translate(71.08375 52.23875) scale(0.1 -0.1)">
      <defs>
       <path id="ArialMT-4e" d="M 488 0 
L 488 4581 
L 1109 4581 
L 3516 984 
L 3516 4581 
L 4097 4581 
L 4097 0 
L 3475 0 
L 1069 3600 
L 1069 0 
L 488 0 
z
" transform="scale(0.015625)"/>
       <path id="ArialMT-70" d="M 422 -1272 
L 422 3319 
L 934 3319 
L 934 2888 
Q 1116 3141 1344 3267 
Q 1572 3394 1897 3394 
Q 2322 3394 2647 3175 
Q 2972 2956 3137 2557 
Q 3303 2159 3303 1684 
Q 3303 1175 3120 767 
Q 2938 359 2589 142 
Q 2241 -75 1856 -75 
Q 1575 -75 1351 44 
Q 1128 163 984 344 
L 984 -1272 
L 422 -1272 
z
M 931 1641 
Q 931 1000 1190 694 
Q 1450 388 1819 388 
Q 2194 388 2461 705 
Q 2728 1022 2728 1688 
Q 2728 2322 2467 2637 
Q 2206 2953 1844 2953 
Q 1484 2953 1207 2617 
Q 931 2281 931 1641 
z
" transform="scale(0.015625)"/>
      </defs>
      <use xlink:href="#ArialMT-4e"/>
      <use xlink:href="#ArialMT-6f" x="72.216797"/>
      <use xlink:href="#ArialMT-6e" x="127.832031"/>
      <use xlink:href="#ArialMT-2d" x="183.447266"/>
      <use xlink:href="#ArialMT-70" x="216.748047"/>
      <use xlink:href="#ArialMT-72" x="272.363281"/>
      <use xlink:href="#ArialMT-6f" x="305.664062"/>
      <use xlink:href="#ArialMT-6d" x="361.279297"/>
      <use xlink:href="#ArialMT-6f" x="444.580078"/>
      <use xlink:href="#ArialMT-74" x="500.195312"/>
      <use xlink:href="#ArialMT-65" x="527.978516"/>
      <use xlink:href="#ArialMT-72" x="583.59375"/>
     </g>
    </g>
   </g>
  </g>
 </g>
 <defs>
  <clipPath id="p7ec814e0d5">
   <rect x="34.08375" y="21.935625" width="446.4" height="304.92"/>
  </clipPath>
 </defs>
</svg>
