<?xml version="1.0" encoding="utf-8" standalone="no"?>
<!DOCTYPE svg PUBLIC "-//W3C//DTD SVG 1.1//EN"
  "http://www.w3.org/Graphics/SVG/1.1/DTD/svg11.dtd">
<svg xmlns:xlink="http://www.w3.org/1999/xlink" width="495.759844pt" height="375.733156pt" viewBox="0 0 495.759844 375.733156" xmlns="http://www.w3.org/2000/svg" version="1.1">
 <metadata>
  <rdf:RDF xmlns:dc="http://purl.org/dc/elements/1.1/" xmlns:cc="http://creativecommons.org/ns#" xmlns:rdf="http://www.w3.org/1999/02/22-rdf-syntax-ns#">
   <cc:Work>
    <dc:type rdf:resource="http://purl.org/dc/dcmitype/StillImage"/>
    <dc:date>2023-05-11T16:26:01.363155</dc:date>
    <dc:format>image/svg+xml</dc:format>
    <dc:creator>
     <cc:Agent>
      <dc:title>Matplotlib v3.7.1, https://matplotlib.org/</dc:title>
     </cc:Agent>
    </dc:creator>
   </cc:Work>
  </rdf:RDF>
 </metadata>
 <defs>
  <style type="text/css">*{stroke-linejoin: round; stroke-linecap: butt}</style>
 </defs>
 <g id="figure_1">
  <g id="patch_1">
   <path d="M 0 375.733156 
L 495.759844 375.733156 
L 495.759844 0 
L 0 0 
z
" style="fill: #ffffff"/>
  </g>
  <g id="axes_1">
   <g id="patch_2">
    <path d="M 42.159844 326.855625 
L 488.559844 326.855625 
L 488.559844 21.935625 
L 42.159844 21.935625 
z
" style="fill: #ffffff"/>
   </g>
   <g id="matplotlib.axis_1">
    <g id="xtick_1">
     <g id="line2d_1"/>
     <g id="text_1">
      <!-- -200 -->
      <g style="fill: #262626" transform="translate(57.203247 353.067937) rotate(-45) scale(0.1 -0.1)">
       <defs>
        <path id="ArialMT-2d" d="M 203 1375 
L 203 1941 
L 1931 1941 
L 1931 1375 
L 203 1375 
z
" transform="scale(0.015625)"/>
        <path id="ArialMT-32" d="M 3222 541 
L 3222 0 
L 194 0 
Q 188 203 259 391 
Q 375 700 629 1000 
Q 884 1300 1366 1694 
Q 2113 2306 2375 2664 
Q 2638 3022 2638 3341 
Q 2638 3675 2398 3904 
Q 2159 4134 1775 4134 
Q 1369 4134 1125 3890 
Q 881 3647 878 3216 
L 300 3275 
Q 359 3922 746 4261 
Q 1134 4600 1788 4600 
Q 2447 4600 2831 4234 
Q 3216 3869 3216 3328 
Q 3216 3053 3103 2787 
Q 2991 2522 2730 2228 
Q 2469 1934 1863 1422 
Q 1356 997 1212 845 
Q 1069 694 975 541 
L 3222 541 
z
" transform="scale(0.015625)"/>
        <path id="ArialMT-30" d="M 266 2259 
Q 266 3072 433 3567 
Q 600 4063 929 4331 
Q 1259 4600 1759 4600 
Q 2128 4600 2406 4451 
Q 2684 4303 2865 4023 
Q 3047 3744 3150 3342 
Q 3253 2941 3253 2259 
Q 3253 1453 3087 958 
Q 2922 463 2592 192 
Q 2263 -78 1759 -78 
Q 1097 -78 719 397 
Q 266 969 266 2259 
z
M 844 2259 
Q 844 1131 1108 757 
Q 1372 384 1759 384 
Q 2147 384 2411 759 
Q 2675 1134 2675 2259 
Q 2675 3391 2411 3762 
Q 2147 4134 1753 4134 
Q 1366 4134 1134 3806 
Q 844 3388 844 2259 
z
" transform="scale(0.015625)"/>
       </defs>
       <use xlink:href="#ArialMT-2d"/>
       <use xlink:href="#ArialMT-32" x="33.300781"/>
       <use xlink:href="#ArialMT-30" x="88.916016"/>
       <use xlink:href="#ArialMT-30" x="144.53125"/>
      </g>
     </g>
    </g>
    <g id="xtick_2">
     <g id="line2d_2"/>
     <g id="text_2">
      <!-- -190 -->
      <g style="fill: #262626" transform="translate(73.501166 353.067937) rotate(-45) scale(0.1 -0.1)">
       <defs>
        <path id="ArialMT-31" d="M 2384 0 
L 1822 0 
L 1822 3584 
Q 1619 3391 1289 3197 
Q 959 3003 697 2906 
L 697 3450 
Q 1169 3672 1522 3987 
Q 1875 4303 2022 4600 
L 2384 4600 
L 2384 0 
z
" transform="scale(0.015625)"/>
        <path id="ArialMT-39" d="M 350 1059 
L 891 1109 
Q 959 728 1153 556 
Q 1347 384 1650 384 
Q 1909 384 2104 503 
Q 2300 622 2425 820 
Q 2550 1019 2634 1356 
Q 2719 1694 2719 2044 
Q 2719 2081 2716 2156 
Q 2547 1888 2255 1720 
Q 1963 1553 1622 1553 
Q 1053 1553 659 1965 
Q 266 2378 266 3053 
Q 266 3750 677 4175 
Q 1088 4600 1706 4600 
Q 2153 4600 2523 4359 
Q 2894 4119 3086 3673 
Q 3278 3228 3278 2384 
Q 3278 1506 3087 986 
Q 2897 466 2520 194 
Q 2144 -78 1638 -78 
Q 1100 -78 759 220 
Q 419 519 350 1059 
z
M 2653 3081 
Q 2653 3566 2395 3850 
Q 2138 4134 1775 4134 
Q 1400 4134 1122 3828 
Q 844 3522 844 3034 
Q 844 2597 1108 2323 
Q 1372 2050 1759 2050 
Q 2150 2050 2401 2323 
Q 2653 2597 2653 3081 
z
" transform="scale(0.015625)"/>
       </defs>
       <use xlink:href="#ArialMT-2d"/>
       <use xlink:href="#ArialMT-31" x="33.300781"/>
       <use xlink:href="#ArialMT-39" x="88.916016"/>
       <use xlink:href="#ArialMT-30" x="144.53125"/>
      </g>
     </g>
    </g>
    <g id="xtick_3">
     <g id="line2d_3"/>
     <g id="text_3">
      <!-- -180 -->
      <g style="fill: #262626" transform="translate(89.799085 353.067937) rotate(-45) scale(0.1 -0.1)">
       <defs>
        <path id="ArialMT-38" d="M 1131 2484 
Q 781 2613 612 2850 
Q 444 3088 444 3419 
Q 444 3919 803 4259 
Q 1163 4600 1759 4600 
Q 2359 4600 2725 4251 
Q 3091 3903 3091 3403 
Q 3091 3084 2923 2848 
Q 2756 2613 2416 2484 
Q 2838 2347 3058 2040 
Q 3278 1734 3278 1309 
Q 3278 722 2862 322 
Q 2447 -78 1769 -78 
Q 1091 -78 675 323 
Q 259 725 259 1325 
Q 259 1772 486 2073 
Q 713 2375 1131 2484 
z
M 1019 3438 
Q 1019 3113 1228 2906 
Q 1438 2700 1772 2700 
Q 2097 2700 2305 2904 
Q 2513 3109 2513 3406 
Q 2513 3716 2298 3927 
Q 2084 4138 1766 4138 
Q 1444 4138 1231 3931 
Q 1019 3725 1019 3438 
z
M 838 1322 
Q 838 1081 952 856 
Q 1066 631 1291 507 
Q 1516 384 1775 384 
Q 2178 384 2440 643 
Q 2703 903 2703 1303 
Q 2703 1709 2433 1975 
Q 2163 2241 1756 2241 
Q 1359 2241 1098 1978 
Q 838 1716 838 1322 
z
" transform="scale(0.015625)"/>
       </defs>
       <use xlink:href="#ArialMT-2d"/>
       <use xlink:href="#ArialMT-31" x="33.300781"/>
       <use xlink:href="#ArialMT-38" x="88.916016"/>
       <use xlink:href="#ArialMT-30" x="144.53125"/>
      </g>
     </g>
    </g>
    <g id="xtick_4">
     <g id="line2d_4"/>
     <g id="text_4">
      <!-- -170 -->
      <g style="fill: #262626" transform="translate(106.097004 353.067937) rotate(-45) scale(0.1 -0.1)">
       <defs>
        <path id="ArialMT-37" d="M 303 3981 
L 303 4522 
L 3269 4522 
L 3269 4084 
Q 2831 3619 2401 2847 
Q 1972 2075 1738 1259 
Q 1569 684 1522 0 
L 944 0 
Q 953 541 1156 1306 
Q 1359 2072 1739 2783 
Q 2119 3494 2547 3981 
L 303 3981 
z
" transform="scale(0.015625)"/>
       </defs>
       <use xlink:href="#ArialMT-2d"/>
       <use xlink:href="#ArialMT-31" x="33.300781"/>
       <use xlink:href="#ArialMT-37" x="88.916016"/>
       <use xlink:href="#ArialMT-30" x="144.53125"/>
      </g>
     </g>
    </g>
    <g id="xtick_5">
     <g id="line2d_5"/>
     <g id="text_5">
      <!-- -160 -->
      <g style="fill: #262626" transform="translate(122.394923 353.067937) rotate(-45) scale(0.1 -0.1)">
       <defs>
        <path id="ArialMT-36" d="M 3184 3459 
L 2625 3416 
Q 2550 3747 2413 3897 
Q 2184 4138 1850 4138 
Q 1581 4138 1378 3988 
Q 1113 3794 959 3422 
Q 806 3050 800 2363 
Q 1003 2672 1297 2822 
Q 1591 2972 1913 2972 
Q 2475 2972 2870 2558 
Q 3266 2144 3266 1488 
Q 3266 1056 3080 686 
Q 2894 316 2569 119 
Q 2244 -78 1831 -78 
Q 1128 -78 684 439 
Q 241 956 241 2144 
Q 241 3472 731 4075 
Q 1159 4600 1884 4600 
Q 2425 4600 2770 4297 
Q 3116 3994 3184 3459 
z
M 888 1484 
Q 888 1194 1011 928 
Q 1134 663 1356 523 
Q 1578 384 1822 384 
Q 2178 384 2434 671 
Q 2691 959 2691 1453 
Q 2691 1928 2437 2201 
Q 2184 2475 1800 2475 
Q 1419 2475 1153 2201 
Q 888 1928 888 1484 
z
" transform="scale(0.015625)"/>
       </defs>
       <use xlink:href="#ArialMT-2d"/>
       <use xlink:href="#ArialMT-31" x="33.300781"/>
       <use xlink:href="#ArialMT-36" x="88.916016"/>
       <use xlink:href="#ArialMT-30" x="144.53125"/>
      </g>
     </g>
    </g>
    <g id="xtick_6">
     <g id="line2d_6"/>
     <g id="text_6">
      <!-- -150 -->
      <g style="fill: #262626" transform="translate(138.692842 353.067937) rotate(-45) scale(0.1 -0.1)">
       <defs>
        <path id="ArialMT-35" d="M 266 1200 
L 856 1250 
Q 922 819 1161 601 
Q 1400 384 1738 384 
Q 2144 384 2425 690 
Q 2706 997 2706 1503 
Q 2706 1984 2436 2262 
Q 2166 2541 1728 2541 
Q 1456 2541 1237 2417 
Q 1019 2294 894 2097 
L 366 2166 
L 809 4519 
L 3088 4519 
L 3088 3981 
L 1259 3981 
L 1013 2750 
Q 1425 3038 1878 3038 
Q 2478 3038 2890 2622 
Q 3303 2206 3303 1553 
Q 3303 931 2941 478 
Q 2500 -78 1738 -78 
Q 1113 -78 717 272 
Q 322 622 266 1200 
z
" transform="scale(0.015625)"/>
       </defs>
       <use xlink:href="#ArialMT-2d"/>
       <use xlink:href="#ArialMT-31" x="33.300781"/>
       <use xlink:href="#ArialMT-35" x="88.916016"/>
       <use xlink:href="#ArialMT-30" x="144.53125"/>
      </g>
     </g>
    </g>
    <g id="xtick_7">
     <g id="line2d_7"/>
     <g id="text_7">
      <!-- -140 -->
      <g style="fill: #262626" transform="translate(154.990761 353.067937) rotate(-45) scale(0.1 -0.1)">
       <defs>
        <path id="ArialMT-34" d="M 2069 0 
L 2069 1097 
L 81 1097 
L 81 1613 
L 2172 4581 
L 2631 4581 
L 2631 1613 
L 3250 1613 
L 3250 1097 
L 2631 1097 
L 2631 0 
L 2069 0 
z
M 2069 1613 
L 2069 3678 
L 634 1613 
L 2069 1613 
z
" transform="scale(0.015625)"/>
       </defs>
       <use xlink:href="#ArialMT-2d"/>
       <use xlink:href="#ArialMT-31" x="33.300781"/>
       <use xlink:href="#ArialMT-34" x="88.916016"/>
       <use xlink:href="#ArialMT-30" x="144.53125"/>
      </g>
     </g>
    </g>
    <g id="xtick_8">
     <g id="line2d_8"/>
     <g id="text_8">
      <!-- -130 -->
      <g style="fill: #262626" transform="translate(171.28868 353.067937) rotate(-45) scale(0.1 -0.1)">
       <defs>
        <path id="ArialMT-33" d="M 269 1209 
L 831 1284 
Q 928 806 1161 595 
Q 1394 384 1728 384 
Q 2125 384 2398 659 
Q 2672 934 2672 1341 
Q 2672 1728 2419 1979 
Q 2166 2231 1775 2231 
Q 1616 2231 1378 2169 
L 1441 2663 
Q 1497 2656 1531 2656 
Q 1891 2656 2178 2843 
Q 2466 3031 2466 3422 
Q 2466 3731 2256 3934 
Q 2047 4138 1716 4138 
Q 1388 4138 1169 3931 
Q 950 3725 888 3313 
L 325 3413 
Q 428 3978 793 4289 
Q 1159 4600 1703 4600 
Q 2078 4600 2393 4439 
Q 2709 4278 2876 4000 
Q 3044 3722 3044 3409 
Q 3044 3113 2884 2869 
Q 2725 2625 2413 2481 
Q 2819 2388 3044 2092 
Q 3269 1797 3269 1353 
Q 3269 753 2831 336 
Q 2394 -81 1725 -81 
Q 1122 -81 723 278 
Q 325 638 269 1209 
z
" transform="scale(0.015625)"/>
       </defs>
       <use xlink:href="#ArialMT-2d"/>
       <use xlink:href="#ArialMT-31" x="33.300781"/>
       <use xlink:href="#ArialMT-33" x="88.916016"/>
       <use xlink:href="#ArialMT-30" x="144.53125"/>
      </g>
     </g>
    </g>
    <g id="xtick_9">
     <g id="line2d_9"/>
     <g id="text_9">
      <!-- -120 -->
      <g style="fill: #262626" transform="translate(187.586599 353.067937) rotate(-45) scale(0.1 -0.1)">
       <use xlink:href="#ArialMT-2d"/>
       <use xlink:href="#ArialMT-31" x="33.300781"/>
       <use xlink:href="#ArialMT-32" x="88.916016"/>
       <use xlink:href="#ArialMT-30" x="144.53125"/>
      </g>
     </g>
    </g>
    <g id="xtick_10">
     <g id="line2d_10"/>
     <g id="text_10">
      <!-- -110 -->
      <g style="fill: #262626" transform="translate(204.145263 352.546446) rotate(-45) scale(0.1 -0.1)">
       <use xlink:href="#ArialMT-2d"/>
       <use xlink:href="#ArialMT-31" x="33.300781"/>
       <use xlink:href="#ArialMT-31" x="81.541016"/>
       <use xlink:href="#ArialMT-30" x="137.15625"/>
      </g>
     </g>
    </g>
    <g id="xtick_11">
     <g id="line2d_11"/>
     <g id="text_11">
      <!-- -100 -->
      <g style="fill: #262626" transform="translate(220.182437 353.067937) rotate(-45) scale(0.1 -0.1)">
       <use xlink:href="#ArialMT-2d"/>
       <use xlink:href="#ArialMT-31" x="33.300781"/>
       <use xlink:href="#ArialMT-30" x="88.916016"/>
       <use xlink:href="#ArialMT-30" x="144.53125"/>
      </g>
     </g>
    </g>
    <g id="xtick_12">
     <g id="line2d_12"/>
     <g id="text_12">
      <!-- -90 -->
      <g style="fill: #262626" transform="translate(238.446444 349.135761) rotate(-45) scale(0.1 -0.1)">
       <use xlink:href="#ArialMT-2d"/>
       <use xlink:href="#ArialMT-39" x="33.300781"/>
       <use xlink:href="#ArialMT-30" x="88.916016"/>
      </g>
     </g>
    </g>
    <g id="xtick_13">
     <g id="line2d_13"/>
     <g id="text_13">
      <!-- -80 -->
      <g style="fill: #262626" transform="translate(254.744363 349.135761) rotate(-45) scale(0.1 -0.1)">
       <use xlink:href="#ArialMT-2d"/>
       <use xlink:href="#ArialMT-38" x="33.300781"/>
       <use xlink:href="#ArialMT-30" x="88.916016"/>
      </g>
     </g>
    </g>
    <g id="xtick_14">
     <g id="line2d_14"/>
     <g id="text_14">
      <!-- -70 -->
      <g style="fill: #262626" transform="translate(271.042282 349.135761) rotate(-45) scale(0.1 -0.1)">
       <use xlink:href="#ArialMT-2d"/>
       <use xlink:href="#ArialMT-37" x="33.300781"/>
       <use xlink:href="#ArialMT-30" x="88.916016"/>
      </g>
     </g>
    </g>
    <g id="xtick_15">
     <g id="line2d_15"/>
     <g id="text_15">
      <!-- -60 -->
      <g style="fill: #262626" transform="translate(287.340201 349.135761) rotate(-45) scale(0.1 -0.1)">
       <use xlink:href="#ArialMT-2d"/>
       <use xlink:href="#ArialMT-36" x="33.300781"/>
       <use xlink:href="#ArialMT-30" x="88.916016"/>
      </g>
     </g>
    </g>
    <g id="xtick_16">
     <g id="line2d_16"/>
     <g id="text_16">
      <!-- -50 -->
      <g style="fill: #262626" transform="translate(303.63812 349.135761) rotate(-45) scale(0.1 -0.1)">
       <use xlink:href="#ArialMT-2d"/>
       <use xlink:href="#ArialMT-35" x="33.300781"/>
       <use xlink:href="#ArialMT-30" x="88.916016"/>
      </g>
     </g>
    </g>
    <g id="xtick_17">
     <g id="line2d_17"/>
     <g id="text_17">
      <!-- -40 -->
      <g style="fill: #262626" transform="translate(319.936039 349.135761) rotate(-45) scale(0.1 -0.1)">
       <use xlink:href="#ArialMT-2d"/>
       <use xlink:href="#ArialMT-34" x="33.300781"/>
       <use xlink:href="#ArialMT-30" x="88.916016"/>
      </g>
     </g>
    </g>
    <g id="xtick_18">
     <g id="line2d_18"/>
     <g id="text_18">
      <!-- -30 -->
      <g style="fill: #262626" transform="translate(336.233958 349.135761) rotate(-45) scale(0.1 -0.1)">
       <use xlink:href="#ArialMT-2d"/>
       <use xlink:href="#ArialMT-33" x="33.300781"/>
       <use xlink:href="#ArialMT-30" x="88.916016"/>
      </g>
     </g>
    </g>
    <g id="xtick_19">
     <g id="line2d_19"/>
     <g id="text_19">
      <!-- -20 -->
      <g style="fill: #262626" transform="translate(352.531877 349.135761) rotate(-45) scale(0.1 -0.1)">
       <use xlink:href="#ArialMT-2d"/>
       <use xlink:href="#ArialMT-32" x="33.300781"/>
       <use xlink:href="#ArialMT-30" x="88.916016"/>
      </g>
     </g>
    </g>
    <g id="xtick_20">
     <g id="line2d_20"/>
     <g id="text_20">
      <!-- -10 -->
      <g style="fill: #262626" transform="translate(368.829795 349.135761) rotate(-45) scale(0.1 -0.1)">
       <use xlink:href="#ArialMT-2d"/>
       <use xlink:href="#ArialMT-31" x="33.300781"/>
       <use xlink:href="#ArialMT-30" x="88.916016"/>
      </g>
     </g>
    </g>
    <g id="xtick_21">
     <g id="line2d_21"/>
     <g id="text_21">
      <!-- 0 -->
      <g style="fill: #262626" transform="translate(388.271025 342.849139) rotate(-45) scale(0.1 -0.1)">
       <use xlink:href="#ArialMT-30"/>
      </g>
     </g>
    </g>
    <g id="xtick_22">
     <g id="line2d_22"/>
     <g id="text_22">
      <!-- 10 -->
      <g style="fill: #262626" transform="translate(402.602856 346.781316) rotate(-45) scale(0.1 -0.1)">
       <use xlink:href="#ArialMT-31"/>
       <use xlink:href="#ArialMT-30" x="55.615234"/>
      </g>
     </g>
    </g>
    <g id="xtick_23">
     <g id="line2d_23"/>
     <g id="text_23">
      <!-- 20 -->
      <g style="fill: #262626" transform="translate(418.900775 346.781316) rotate(-45) scale(0.1 -0.1)">
       <use xlink:href="#ArialMT-32"/>
       <use xlink:href="#ArialMT-30" x="55.615234"/>
      </g>
     </g>
    </g>
    <g id="xtick_24">
     <g id="line2d_24"/>
     <g id="text_24">
      <!-- 30 -->
      <g style="fill: #262626" transform="translate(435.198694 346.781316) rotate(-45) scale(0.1 -0.1)">
       <use xlink:href="#ArialMT-33"/>
       <use xlink:href="#ArialMT-30" x="55.615234"/>
      </g>
     </g>
    </g>
    <g id="xtick_25">
     <g id="line2d_25"/>
     <g id="text_25">
      <!-- 40 -->
      <g style="fill: #262626" transform="translate(451.496613 346.781316) rotate(-45) scale(0.1 -0.1)">
       <use xlink:href="#ArialMT-34"/>
       <use xlink:href="#ArialMT-30" x="55.615234"/>
      </g>
     </g>
    </g>
    <g id="xtick_26">
     <g id="line2d_26"/>
     <g id="text_26">
      <!-- 50 -->
      <g style="fill: #262626" transform="translate(467.794531 346.781316) rotate(-45) scale(0.1 -0.1)">
       <use xlink:href="#ArialMT-35"/>
       <use xlink:href="#ArialMT-30" x="55.615234"/>
      </g>
     </g>
    </g>
    <g id="text_27">
     <!-- Position -->
     <g style="fill: #262626" transform="translate(245.793594 366.346906) scale(0.11 -0.11)">
      <defs>
       <path id="ArialMT-50" d="M 494 0 
L 494 4581 
L 2222 4581 
Q 2678 4581 2919 4538 
Q 3256 4481 3484 4323 
Q 3713 4166 3852 3881 
Q 3991 3597 3991 3256 
Q 3991 2672 3619 2267 
Q 3247 1863 2275 1863 
L 1100 1863 
L 1100 0 
L 494 0 
z
M 1100 2403 
L 2284 2403 
Q 2872 2403 3119 2622 
Q 3366 2841 3366 3238 
Q 3366 3525 3220 3729 
Q 3075 3934 2838 4000 
Q 2684 4041 2272 4041 
L 1100 4041 
L 1100 2403 
z
" transform="scale(0.015625)"/>
       <path id="ArialMT-6f" d="M 213 1659 
Q 213 2581 725 3025 
Q 1153 3394 1769 3394 
Q 2453 3394 2887 2945 
Q 3322 2497 3322 1706 
Q 3322 1066 3130 698 
Q 2938 331 2570 128 
Q 2203 -75 1769 -75 
Q 1072 -75 642 372 
Q 213 819 213 1659 
z
M 791 1659 
Q 791 1022 1069 705 
Q 1347 388 1769 388 
Q 2188 388 2466 706 
Q 2744 1025 2744 1678 
Q 2744 2294 2464 2611 
Q 2184 2928 1769 2928 
Q 1347 2928 1069 2612 
Q 791 2297 791 1659 
z
" transform="scale(0.015625)"/>
       <path id="ArialMT-73" d="M 197 991 
L 753 1078 
Q 800 744 1014 566 
Q 1228 388 1613 388 
Q 2000 388 2187 545 
Q 2375 703 2375 916 
Q 2375 1106 2209 1216 
Q 2094 1291 1634 1406 
Q 1016 1563 777 1677 
Q 538 1791 414 1992 
Q 291 2194 291 2438 
Q 291 2659 392 2848 
Q 494 3038 669 3163 
Q 800 3259 1026 3326 
Q 1253 3394 1513 3394 
Q 1903 3394 2198 3281 
Q 2494 3169 2634 2976 
Q 2775 2784 2828 2463 
L 2278 2388 
Q 2241 2644 2061 2787 
Q 1881 2931 1553 2931 
Q 1166 2931 1000 2803 
Q 834 2675 834 2503 
Q 834 2394 903 2306 
Q 972 2216 1119 2156 
Q 1203 2125 1616 2013 
Q 2213 1853 2448 1751 
Q 2684 1650 2818 1456 
Q 2953 1263 2953 975 
Q 2953 694 2789 445 
Q 2625 197 2315 61 
Q 2006 -75 1616 -75 
Q 969 -75 630 194 
Q 291 463 197 991 
z
" transform="scale(0.015625)"/>
       <path id="ArialMT-69" d="M 425 3934 
L 425 4581 
L 988 4581 
L 988 3934 
L 425 3934 
z
M 425 0 
L 425 3319 
L 988 3319 
L 988 0 
L 425 0 
z
" transform="scale(0.015625)"/>
       <path id="ArialMT-74" d="M 1650 503 
L 1731 6 
Q 1494 -44 1306 -44 
Q 1000 -44 831 53 
Q 663 150 594 308 
Q 525 466 525 972 
L 525 2881 
L 113 2881 
L 113 3319 
L 525 3319 
L 525 4141 
L 1084 4478 
L 1084 3319 
L 1650 3319 
L 1650 2881 
L 1084 2881 
L 1084 941 
Q 1084 700 1114 631 
Q 1144 563 1211 522 
Q 1278 481 1403 481 
Q 1497 481 1650 503 
z
" transform="scale(0.015625)"/>
       <path id="ArialMT-6e" d="M 422 0 
L 422 3319 
L 928 3319 
L 928 2847 
Q 1294 3394 1984 3394 
Q 2284 3394 2536 3286 
Q 2788 3178 2913 3003 
Q 3038 2828 3088 2588 
Q 3119 2431 3119 2041 
L 3119 0 
L 2556 0 
L 2556 2019 
Q 2556 2363 2490 2533 
Q 2425 2703 2258 2804 
Q 2091 2906 1866 2906 
Q 1506 2906 1245 2678 
Q 984 2450 984 1813 
L 984 0 
L 422 0 
z
" transform="scale(0.015625)"/>
      </defs>
      <use xlink:href="#ArialMT-50"/>
      <use xlink:href="#ArialMT-6f" x="66.699219"/>
      <use xlink:href="#ArialMT-73" x="122.314453"/>
      <use xlink:href="#ArialMT-69" x="172.314453"/>
      <use xlink:href="#ArialMT-74" x="194.53125"/>
      <use xlink:href="#ArialMT-69" x="222.314453"/>
      <use xlink:href="#ArialMT-6f" x="244.53125"/>
      <use xlink:href="#ArialMT-6e" x="300.146484"/>
     </g>
    </g>
   </g>
   <g id="matplotlib.axis_2">
    <g id="ytick_1">
     <g id="line2d_27"/>
     <g id="text_28">
      <!-- 1.8 -->
      <g style="fill: #262626" transform="translate(21.259844 312.378373) scale(0.1 -0.1)">
       <defs>
        <path id="ArialMT-2e" d="M 581 0 
L 581 641 
L 1222 641 
L 1222 0 
L 581 0 
z
" transform="scale(0.015625)"/>
       </defs>
       <use xlink:href="#ArialMT-31"/>
       <use xlink:href="#ArialMT-2e" x="55.615234"/>
       <use xlink:href="#ArialMT-38" x="83.398438"/>
      </g>
     </g>
    </g>
    <g id="ytick_2">
     <g id="line2d_28"/>
     <g id="text_29">
      <!-- 1.9 -->
      <g style="fill: #262626" transform="translate(21.259844 265.351022) scale(0.1 -0.1)">
       <use xlink:href="#ArialMT-31"/>
       <use xlink:href="#ArialMT-2e" x="55.615234"/>
       <use xlink:href="#ArialMT-39" x="83.398438"/>
      </g>
     </g>
    </g>
    <g id="ytick_3">
     <g id="line2d_29"/>
     <g id="text_30">
      <!-- 2.0 -->
      <g style="fill: #262626" transform="translate(21.259844 218.32367) scale(0.1 -0.1)">
       <use xlink:href="#ArialMT-32"/>
       <use xlink:href="#ArialMT-2e" x="55.615234"/>
       <use xlink:href="#ArialMT-30" x="83.398438"/>
      </g>
     </g>
    </g>
    <g id="ytick_4">
     <g id="line2d_30"/>
     <g id="text_31">
      <!-- 2.1 -->
      <g style="fill: #262626" transform="translate(21.259844 171.296318) scale(0.1 -0.1)">
       <use xlink:href="#ArialMT-32"/>
       <use xlink:href="#ArialMT-2e" x="55.615234"/>
       <use xlink:href="#ArialMT-31" x="83.398438"/>
      </g>
     </g>
    </g>
    <g id="ytick_5">
     <g id="line2d_31"/>
     <g id="text_32">
      <!-- 2.2 -->
      <g style="fill: #262626" transform="translate(21.259844 124.268966) scale(0.1 -0.1)">
       <use xlink:href="#ArialMT-32"/>
       <use xlink:href="#ArialMT-2e" x="55.615234"/>
       <use xlink:href="#ArialMT-32" x="83.398438"/>
      </g>
     </g>
    </g>
    <g id="ytick_6">
     <g id="line2d_32"/>
     <g id="text_33">
      <!-- 2.3 -->
      <g style="fill: #262626" transform="translate(21.259844 77.241615) scale(0.1 -0.1)">
       <use xlink:href="#ArialMT-32"/>
       <use xlink:href="#ArialMT-2e" x="55.615234"/>
       <use xlink:href="#ArialMT-33" x="83.398438"/>
      </g>
     </g>
    </g>
    <g id="ytick_7">
     <g id="line2d_33"/>
     <g id="text_34">
      <!-- 2.4 -->
      <g style="fill: #262626" transform="translate(21.259844 30.214263) scale(0.1 -0.1)">
       <use xlink:href="#ArialMT-32"/>
       <use xlink:href="#ArialMT-2e" x="55.615234"/>
       <use xlink:href="#ArialMT-34" x="83.398438"/>
      </g>
     </g>
    </g>
    <g id="text_35">
     <!-- Slide -->
     <g style="fill: #262626" transform="translate(15.073594 186.625391) rotate(-90) scale(0.11 -0.11)">
      <defs>
       <path id="ArialMT-53" d="M 288 1472 
L 859 1522 
Q 900 1178 1048 958 
Q 1197 738 1509 602 
Q 1822 466 2213 466 
Q 2559 466 2825 569 
Q 3091 672 3220 851 
Q 3350 1031 3350 1244 
Q 3350 1459 3225 1620 
Q 3100 1781 2813 1891 
Q 2628 1963 1997 2114 
Q 1366 2266 1113 2400 
Q 784 2572 623 2826 
Q 463 3081 463 3397 
Q 463 3744 659 4045 
Q 856 4347 1234 4503 
Q 1613 4659 2075 4659 
Q 2584 4659 2973 4495 
Q 3363 4331 3572 4012 
Q 3781 3694 3797 3291 
L 3216 3247 
Q 3169 3681 2898 3903 
Q 2628 4125 2100 4125 
Q 1550 4125 1298 3923 
Q 1047 3722 1047 3438 
Q 1047 3191 1225 3031 
Q 1400 2872 2139 2705 
Q 2878 2538 3153 2413 
Q 3553 2228 3743 1945 
Q 3934 1663 3934 1294 
Q 3934 928 3725 604 
Q 3516 281 3123 101 
Q 2731 -78 2241 -78 
Q 1619 -78 1198 103 
Q 778 284 539 648 
Q 300 1013 288 1472 
z
" transform="scale(0.015625)"/>
       <path id="ArialMT-6c" d="M 409 0 
L 409 4581 
L 972 4581 
L 972 0 
L 409 0 
z
" transform="scale(0.015625)"/>
       <path id="ArialMT-64" d="M 2575 0 
L 2575 419 
Q 2259 -75 1647 -75 
Q 1250 -75 917 144 
Q 584 363 401 755 
Q 219 1147 219 1656 
Q 219 2153 384 2558 
Q 550 2963 881 3178 
Q 1213 3394 1622 3394 
Q 1922 3394 2156 3267 
Q 2391 3141 2538 2938 
L 2538 4581 
L 3097 4581 
L 3097 0 
L 2575 0 
z
M 797 1656 
Q 797 1019 1065 703 
Q 1334 388 1700 388 
Q 2069 388 2326 689 
Q 2584 991 2584 1609 
Q 2584 2291 2321 2609 
Q 2059 2928 1675 2928 
Q 1300 2928 1048 2622 
Q 797 2316 797 1656 
z
" transform="scale(0.015625)"/>
       <path id="ArialMT-65" d="M 2694 1069 
L 3275 997 
Q 3138 488 2766 206 
Q 2394 -75 1816 -75 
Q 1088 -75 661 373 
Q 234 822 234 1631 
Q 234 2469 665 2931 
Q 1097 3394 1784 3394 
Q 2450 3394 2872 2941 
Q 3294 2488 3294 1666 
Q 3294 1616 3291 1516 
L 816 1516 
Q 847 969 1125 678 
Q 1403 388 1819 388 
Q 2128 388 2347 550 
Q 2566 713 2694 1069 
z
M 847 1978 
L 2700 1978 
Q 2663 2397 2488 2606 
Q 2219 2931 1791 2931 
Q 1403 2931 1139 2672 
Q 875 2413 847 1978 
z
" transform="scale(0.015625)"/>
      </defs>
      <use xlink:href="#ArialMT-53"/>
      <use xlink:href="#ArialMT-6c" x="66.699219"/>
      <use xlink:href="#ArialMT-69" x="88.916016"/>
      <use xlink:href="#ArialMT-64" x="111.132812"/>
      <use xlink:href="#ArialMT-65" x="166.748047"/>
     </g>
    </g>
   </g>
   <g id="line2d_34">
    <path d="M 62.450753 154.584815 
L 64.080545 157.781393 
L 65.710337 157.023837 
L 67.340129 159.182711 
L 68.96992 159.350223 
L 70.599712 160.220415 
L 72.229504 160.562369 
L 73.859296 158.621837 
L 75.489088 155.075508 
L 77.11888 159.083071 
L 78.748672 158.879458 
L 80.378464 158.909783 
L 82.008256 155.476091 
L 83.638047 159.992831 
L 85.267839 158.307032 
L 86.897631 159.612753 
L 88.527423 155.001572 
L 90.157215 160.122507 
L 91.787007 160.702154 
L 93.416799 157.934752 
L 95.046591 157.982117 
L 96.676383 158.756424 
L 98.306175 163.299735 
L 99.935966 156.83842 
L 101.565758 158.687109 
L 103.19555 160.723238 
L 104.825342 157.102683 
L 106.455134 162.231128 
L 108.084926 157.705146 
L 109.714718 159.750517 
L 111.34451 160.386771 
L 112.974302 163.54407 
L 114.604093 160.071676 
L 116.233885 161.391261 
L 117.863677 159.211593 
L 119.493469 162.91417 
L 121.123261 157.609549 
L 122.753053 161.326567 
L 124.382845 161.903326 
L 126.012637 160.943024 
L 127.642429 163.143487 
L 129.272221 156.523325 
L 130.902012 163.780608 
L 132.531804 161.025336 
L 134.161596 161.250032 
L 135.791388 157.192793 
L 137.42118 161.404835 
L 139.050972 160.835875 
L 140.680764 167.295457 
L 142.310556 160.141569 
L 143.940348 162.59561 
L 145.570139 160.455508 
L 147.199931 160.88555 
L 148.829723 164.674771 
L 150.459515 163.521254 
L 152.089307 162.039645 
L 153.719099 162.355318 
L 155.348891 164.340615 
L 156.978683 166.884188 
L 158.608475 162.163546 
L 160.238267 166.695015 
L 161.868058 161.800797 
L 163.49785 165.063224 
L 165.127642 164.599102 
L 166.757434 163.435765 
L 168.387226 162.737705 
L 170.017018 164.0183 
L 171.64681 165.651535 
L 173.276602 165.398536 
L 174.906394 162.301021 
L 176.536185 162.765431 
L 178.165977 165.718251 
L 179.795769 164.06711 
L 181.425561 165.92533 
L 183.055353 163.293092 
L 184.685145 165.145247 
L 186.314937 164.459317 
L 187.944729 162.62478 
L 189.574521 167.019929 
L 191.204313 164.690367 
L 192.834104 164.197075 
L 194.463896 163.826818 
L 196.093688 164.915352 
L 197.72348 168.487097 
L 199.353272 163.476488 
L 200.983064 163.652664 
L 202.612856 167.953083 
L 204.242648 165.425395 
L 205.87244 164.679104 
L 207.502231 167.661671 
L 209.132023 166.605483 
L 210.761815 168.054456 
L 212.391607 168.080738 
L 214.021399 163.666238 
L 215.651191 167.606219 
L 217.280983 169.55657 
L 218.910775 165.975583 
L 220.540567 170.231236 
L 222.170359 164.217581 
L 223.80015 163.765589 
L 225.429942 171.625912 
L 227.059734 163.542048 
L 228.689526 171.739127 
L 230.319318 164.668995 
L 231.94911 169.388481 
L 233.578902 163.895266 
L 235.208694 164.785387 
L 236.838486 171.381577 
L 238.468277 168.947465 
L 240.098069 164.756216 
L 241.727861 170.041198 
L 243.357653 168.067453 
L 244.987445 168.390056 
L 246.617237 167.103396 
L 248.247029 170.585321 
L 249.876821 166.659203 
L 251.506613 172.907663 
L 253.136405 164.769213 
L 254.766196 167.01733 
L 256.395988 169.884373 
L 258.02578 168.299658 
L 261.285364 171.864472 
L 262.915156 167.699217 
L 264.544948 170.229792 
L 266.17474 168.579517 
L 267.804532 171.352118 
L 269.434323 166.831912 
L 271.064115 172.41466 
L 272.693907 165.924175 
L 274.323699 167.397407 
L 275.953491 168.262979 
L 277.583283 165.92273 
L 279.213075 167.799146 
L 280.842867 168.692443 
L 282.472659 169.033242 
L 284.102451 166.875812 
L 285.732242 171.575081 
L 287.362034 165.072177 
L 288.991826 169.049993 
L 290.621618 167.257622 
L 292.25141 169.1092 
L 293.881202 172.434876 
L 295.510994 169.656499 
L 297.140786 173.24875 
L 298.770578 172.327727 
L 300.400369 169.998454 
L 302.030161 171.296955 
L 303.659953 173.632582 
L 305.289745 172.306644 
L 306.919537 170.508208 
L 308.549329 173.137557 
L 310.179121 176.40345 
L 311.808913 174.819313 
L 313.438705 171.684541 
L 315.068497 176.492115 
L 316.698288 171.89884 
L 318.32808 178.058924 
L 319.957872 174.044718 
L 321.587664 175.061627 
L 323.217456 175.22856 
L 324.847248 174.405733 
L 326.47704 176.922735 
L 328.106832 181.539115 
L 329.736624 172.147219 
L 331.366415 168.29186 
L 332.996207 170.604671 
L 334.625999 166.627722 
L 336.255791 172.161371 
L 337.885583 175.165311 
L 339.515375 170.159322 
L 341.145167 162.461312 
L 342.774959 159.337804 
L 344.404751 159.891169 
L 346.034543 160.973061 
L 347.664334 173.821177 
L 349.294126 171.080923 
L 350.923918 176.907717 
L 352.55371 177.024397 
L 354.183502 170.567414 
L 355.813294 168.965949 
L 357.443086 166.431618 
L 359.072878 165.831177 
L 360.70267 168.741541 
L 362.332461 173.634315 
L 363.962253 173.97858 
L 365.592045 171.139263 
L 367.221837 170.04784 
L 368.851629 178.945578 
L 372.111213 174.437792 
L 373.741005 177.0553 
L 375.370797 168.937934 
L 377.000589 173.577419 
L 378.63038 164.954053 
L 380.260172 168.254314 
L 381.889964 180.069348 
L 383.519756 147.646093 
L 385.149548 128.169728 
L 386.77934 312.995625 
L 388.409132 35.795625 
L 390.038924 128.098103 
L 391.668716 137.572888 
L 393.298507 153.400684 
L 394.928299 158.744583 
L 396.558091 177.691554 
L 398.187883 168.742119 
L 399.817675 155.925194 
L 401.447467 166.543677 
L 403.077259 165.799407 
L 404.707051 170.79702 
L 406.336843 172.116316 
L 407.966635 161.100427 
L 409.596426 157.1668 
L 411.226218 158.990073 
L 412.85601 169.994699 
L 414.485802 173.263191 
L 416.115594 174.989424 
L 417.745386 168.645078 
L 419.375178 172.120071 
L 421.00497 169.34978 
L 422.634762 176.210234 
L 424.264553 171.463022 
L 425.894345 165.654135 
L 427.524137 161.028513 
L 429.153929 159.246539 
L 430.783721 170.625466 
L 432.413513 164.550004 
L 434.043305 162.592721 
L 435.673097 150.849313 
L 437.302889 151.843695 
L 438.932681 157.236981 
L 440.562472 161.427074 
L 442.192264 160.481213 
L 443.822056 161.6665 
L 445.451848 167.175022 
L 447.08164 161.967442 
L 448.711432 168.695909 
L 450.341224 169.765382 
L 451.971016 161.857405 
L 453.600808 165.548429 
L 455.2306 163.961693 
L 456.860391 166.625411 
L 458.490183 164.130648 
L 460.119975 171.404971 
L 461.749767 175.073179 
L 463.379559 175.938751 
L 465.009351 178.177914 
L 466.639143 176.236805 
L 468.268935 171.241214 
L 468.268935 171.241214 
" clip-path="url(#pa22649e3aa)" style="fill: none; stroke: #0272a2; stroke-width: 1.75; stroke-linecap: round"/>
   </g>
   <g id="line2d_35">
    <path d="M 62.450753 131.072188 
L 64.080545 132.808763 
L 65.710337 132.813689 
L 67.340129 133.577775 
L 68.96992 129.811153 
L 70.599712 134.768521 
L 72.229504 133.588195 
L 73.859296 128.516395 
L 75.489088 132.956351 
L 77.11888 132.023459 
L 78.748672 133.989847 
L 82.008256 131.194957 
L 83.638047 132.080107 
L 85.267839 132.731275 
L 86.897631 132.926228 
L 88.527423 134.991703 
L 90.157215 130.893908 
L 91.787007 132.787923 
L 93.416799 133.217993 
L 95.046591 130.935968 
L 96.676383 130.099698 
L 98.306175 136.502633 
L 99.935966 132.71896 
L 101.565758 131.362438 
L 103.19555 133.03365 
L 104.825342 132.82733 
L 106.455134 132.382293 
L 108.084926 133.547462 
L 109.714718 133.097498 
L 111.34451 133.102992 
L 112.974302 133.906864 
L 114.604093 132.006597 
L 116.233885 134.18802 
L 119.493469 132.825625 
L 121.123261 129.468044 
L 122.753053 135.07317 
L 124.382845 133.473952 
L 126.012637 132.125577 
L 127.642429 134.502521 
L 129.272221 130.32288 
L 130.902012 130.502297 
L 132.531804 133.966733 
L 134.161596 135.496609 
L 135.791388 131.450158 
L 137.42118 136.074646 
L 139.050972 129.733286 
L 140.680764 132.56152 
L 142.310556 134.16017 
L 143.940348 132.90084 
L 145.570139 130.73912 
L 147.199931 131.111596 
L 148.829723 133.741846 
L 150.459515 131.320568 
L 152.089307 134.386004 
L 153.719099 130.198217 
L 155.348891 133.963133 
L 156.978683 133.977343 
L 158.608475 132.333602 
L 160.238267 133.56887 
L 161.868058 133.557882 
L 163.49785 132.613053 
L 165.127642 130.501919 
L 166.757434 134.188589 
L 168.387226 134.797697 
L 170.017018 132.66648 
L 171.64681 131.868671 
L 173.276602 133.781443 
L 174.906394 130.932368 
L 176.536185 131.811076 
L 178.165977 133.682356 
L 179.795769 134.06582 
L 181.425561 131.995608 
L 183.055353 133.17025 
L 184.685145 130.283663 
L 186.314937 137.060967 
L 187.944729 129.798081 
L 189.574521 130.183818 
L 191.204313 133.596152 
L 192.834104 131.902963 
L 194.463896 128.530226 
L 196.093688 137.604144 
L 197.72348 130.202574 
L 199.353272 133.122128 
L 200.983064 129.905883 
L 202.612856 133.767423 
L 204.242648 133.905727 
L 205.87244 132.216896 
L 207.502231 131.499606 
L 209.132023 129.016755 
L 210.761815 135.018795 
L 212.391607 131.78512 
L 214.021399 133.094088 
L 215.651191 131.467209 
L 217.280983 134.848093 
L 218.910775 134.112047 
L 222.170359 132.298363 
L 223.80015 133.444207 
L 225.429942 135.143838 
L 227.059734 127.164799 
L 228.689526 134.566179 
L 230.319318 133.930167 
L 231.94911 131.826611 
L 233.578902 131.983862 
L 235.208694 134.05502 
L 236.838486 132.510367 
L 238.468277 132.947826 
L 240.098069 130.799558 
L 241.727861 130.68664 
L 243.357653 130.266043 
L 244.987445 137.673675 
L 246.617237 130.397338 
L 248.247029 131.885343 
L 249.876821 133.615288 
L 251.506613 131.279835 
L 253.136405 132.801375 
L 254.766196 133.807588 
L 256.395988 133.792052 
L 259.655572 132.042783 
L 261.285364 135.041341 
L 262.915156 132.044867 
L 264.544948 132.592023 
L 266.17474 133.989278 
L 267.804532 135.180403 
L 269.434323 130.517454 
L 272.693907 130.78137 
L 274.323699 131.170138 
L 275.953491 132.772766 
L 277.583283 132.310488 
L 279.213075 133.386232 
L 280.842867 130.468195 
L 282.472659 135.352431 
L 284.102451 131.287981 
L 285.732242 132.4217 
L 287.362034 130.086626 
L 288.991826 134.49248 
L 290.621618 133.373728 
L 292.25141 134.22307 
L 293.881202 131.700622 
L 295.510994 133.768181 
L 297.140786 131.81316 
L 298.770578 133.18408 
L 300.400369 132.078023 
L 302.030161 132.69471 
L 303.659953 131.587894 
L 305.289745 136.624644 
L 306.919537 130.492825 
L 308.549329 133.417114 
L 310.179121 131.687738 
L 311.808913 134.265319 
L 313.438705 130.255812 
L 315.068497 129.86136 
L 316.698288 133.024178 
L 318.32808 130.359635 
L 319.957872 133.814977 
L 321.587664 131.726767 
L 323.217456 127.360889 
L 324.847248 136.815618 
L 326.47704 130.779664 
L 328.106832 133.804178 
L 329.736624 132.508282 
L 331.366415 132.36221 
L 332.996207 134.577926 
L 334.625999 135.246524 
L 336.255791 129.100685 
L 337.885583 133.226709 
L 339.515375 135.687962 
L 341.145167 128.927709 
L 342.774959 133.697702 
L 344.404751 133.389264 
L 346.034543 128.310643 
L 347.664334 134.629837 
L 349.294126 133.161535 
L 350.923918 129.504041 
L 352.55371 134.174948 
L 354.183502 132.05434 
L 355.813294 135.098936 
L 357.443086 130.958892 
L 359.072878 128.713811 
L 360.70267 137.509415 
L 362.332461 131.471377 
L 363.962253 129.436594 
L 365.592045 130.327806 
L 367.221837 135.40169 
L 368.851629 133.874846 
L 370.481421 129.818353 
L 372.111213 134.763974 
L 373.741005 134.101627 
L 375.370797 130.919864 
L 377.000589 133.74753 
L 378.63038 129.759431 
L 380.260172 134.692169 
L 381.889964 131.625028 
L 383.519756 131.319431 
L 385.149548 133.125348 
L 386.77934 132.600359 
L 388.409132 132.653597 
L 390.038924 132.060213 
L 391.668716 135.172635 
L 393.298507 133.963323 
L 394.928299 128.316138 
L 396.558091 134.56921 
L 398.187883 134.539276 
L 399.817675 131.34425 
L 401.447467 131.292528 
L 403.077259 134.861355 
L 404.707051 131.756891 
L 406.336843 132.238115 
L 407.966635 132.232242 
L 409.596426 134.275361 
L 411.226218 134.189725 
L 412.85601 131.892164 
L 414.485802 134.052936 
L 416.115594 132.906524 
L 417.745386 132.753631 
L 419.375178 134.551022 
L 421.00497 132.331328 
L 422.634762 132.310488 
L 424.264553 133.765528 
L 425.894345 129.723245 
L 427.524137 134.241826 
L 429.153929 132.340991 
L 430.783721 131.494491 
L 432.413513 134.907394 
L 434.043305 131.103259 
L 435.673097 131.297454 
L 437.302889 132.061729 
L 438.932681 131.385552 
L 440.562472 134.818917 
L 442.192264 133.745446 
L 443.822056 131.982157 
L 445.451848 131.579558 
L 447.08164 133.465426 
L 448.711432 133.723847 
L 450.341224 133.865941 
L 451.971016 134.21606 
L 453.600808 133.19109 
L 455.2306 133.345688 
L 456.860391 133.196206 
L 458.490183 132.026679 
L 460.119975 131.360354 
L 461.749767 133.190711 
L 463.379559 130.756172 
L 465.009351 135.435793 
L 466.639143 131.947107 
L 468.268935 132.748895 
L 468.268935 132.748895 
" clip-path="url(#pa22649e3aa)" style="fill: none; stroke-dasharray: 1.75,2.8875; stroke-dashoffset: 0; stroke: #9fc377; stroke-width: 1.75"/>
   </g>
   <g id="patch_3">
    <path d="M 42.159844 326.855625 
L 42.159844 21.935625 
" style="fill: none; stroke: #cccccc; stroke-width: 1.25; stroke-linejoin: miter; stroke-linecap: square"/>
   </g>
   <g id="patch_4">
    <path d="M 488.559844 326.855625 
L 488.559844 21.935625 
" style="fill: none; stroke: #cccccc; stroke-width: 1.25; stroke-linejoin: miter; stroke-linecap: square"/>
   </g>
   <g id="patch_5">
    <path d="M 42.159844 326.855625 
L 488.559844 326.855625 
" style="fill: none; stroke: #cccccc; stroke-width: 1.25; stroke-linejoin: miter; stroke-linecap: square"/>
   </g>
   <g id="patch_6">
    <path d="M 42.159844 21.935625 
L 488.559844 21.935625 
" style="fill: none; stroke: #cccccc; stroke-width: 1.25; stroke-linejoin: miter; stroke-linecap: square"/>
   </g>
   <g id="text_36">
    <!-- "Slide" for dataset Mouse_non_tata -->
    <g style="fill: #262626" transform="translate(171.379219 15.935625) scale(0.12 -0.12)">
     <defs>
      <path id="ArialMT-22" d="M 450 2959 
L 294 3831 
L 294 4581 
L 934 4581 
L 934 3831 
L 794 2959 
L 450 2959 
z
M 1484 2959 
L 1331 3831 
L 1331 4581 
L 1972 4581 
L 1972 3831 
L 1822 2959 
L 1484 2959 
z
" transform="scale(0.015625)"/>
      <path id="ArialMT-20" transform="scale(0.015625)"/>
      <path id="ArialMT-66" d="M 556 0 
L 556 2881 
L 59 2881 
L 59 3319 
L 556 3319 
L 556 3672 
Q 556 4006 616 4169 
Q 697 4388 901 4523 
Q 1106 4659 1475 4659 
Q 1713 4659 2000 4603 
L 1916 4113 
Q 1741 4144 1584 4144 
Q 1328 4144 1222 4034 
Q 1116 3925 1116 3625 
L 1116 3319 
L 1763 3319 
L 1763 2881 
L 1116 2881 
L 1116 0 
L 556 0 
z
" transform="scale(0.015625)"/>
      <path id="ArialMT-72" d="M 416 0 
L 416 3319 
L 922 3319 
L 922 2816 
Q 1116 3169 1280 3281 
Q 1444 3394 1641 3394 
Q 1925 3394 2219 3213 
L 2025 2691 
Q 1819 2813 1613 2813 
Q 1428 2813 1281 2702 
Q 1134 2591 1072 2394 
Q 978 2094 978 1738 
L 978 0 
L 416 0 
z
" transform="scale(0.015625)"/>
      <path id="ArialMT-61" d="M 2588 409 
Q 2275 144 1986 34 
Q 1697 -75 1366 -75 
Q 819 -75 525 192 
Q 231 459 231 875 
Q 231 1119 342 1320 
Q 453 1522 633 1644 
Q 813 1766 1038 1828 
Q 1203 1872 1538 1913 
Q 2219 1994 2541 2106 
Q 2544 2222 2544 2253 
Q 2544 2597 2384 2738 
Q 2169 2928 1744 2928 
Q 1347 2928 1158 2789 
Q 969 2650 878 2297 
L 328 2372 
Q 403 2725 575 2942 
Q 747 3159 1072 3276 
Q 1397 3394 1825 3394 
Q 2250 3394 2515 3294 
Q 2781 3194 2906 3042 
Q 3031 2891 3081 2659 
Q 3109 2516 3109 2141 
L 3109 1391 
Q 3109 606 3145 398 
Q 3181 191 3288 0 
L 2700 0 
Q 2613 175 2588 409 
z
M 2541 1666 
Q 2234 1541 1622 1453 
Q 1275 1403 1131 1340 
Q 988 1278 909 1158 
Q 831 1038 831 891 
Q 831 666 1001 516 
Q 1172 366 1500 366 
Q 1825 366 2078 508 
Q 2331 650 2450 897 
Q 2541 1088 2541 1459 
L 2541 1666 
z
" transform="scale(0.015625)"/>
      <path id="ArialMT-4d" d="M 475 0 
L 475 4581 
L 1388 4581 
L 2472 1338 
Q 2622 884 2691 659 
Q 2769 909 2934 1394 
L 4031 4581 
L 4847 4581 
L 4847 0 
L 4263 0 
L 4263 3834 
L 2931 0 
L 2384 0 
L 1059 3900 
L 1059 0 
L 475 0 
z
" transform="scale(0.015625)"/>
      <path id="ArialMT-75" d="M 2597 0 
L 2597 488 
Q 2209 -75 1544 -75 
Q 1250 -75 995 37 
Q 741 150 617 320 
Q 494 491 444 738 
Q 409 903 409 1263 
L 409 3319 
L 972 3319 
L 972 1478 
Q 972 1038 1006 884 
Q 1059 663 1231 536 
Q 1403 409 1656 409 
Q 1909 409 2131 539 
Q 2353 669 2445 892 
Q 2538 1116 2538 1541 
L 2538 3319 
L 3100 3319 
L 3100 0 
L 2597 0 
z
" transform="scale(0.015625)"/>
      <path id="ArialMT-5f" d="M -97 -1272 
L -97 -866 
L 3631 -866 
L 3631 -1272 
L -97 -1272 
z
" transform="scale(0.015625)"/>
     </defs>
     <use xlink:href="#ArialMT-22"/>
     <use xlink:href="#ArialMT-53" x="35.498047"/>
     <use xlink:href="#ArialMT-6c" x="102.197266"/>
     <use xlink:href="#ArialMT-69" x="124.414062"/>
     <use xlink:href="#ArialMT-64" x="146.630859"/>
     <use xlink:href="#ArialMT-65" x="202.246094"/>
     <use xlink:href="#ArialMT-22" x="257.861328"/>
     <use xlink:href="#ArialMT-20" x="293.359375"/>
     <use xlink:href="#ArialMT-66" x="321.142578"/>
     <use xlink:href="#ArialMT-6f" x="348.925781"/>
     <use xlink:href="#ArialMT-72" x="404.541016"/>
     <use xlink:href="#ArialMT-20" x="437.841797"/>
     <use xlink:href="#ArialMT-64" x="465.625"/>
     <use xlink:href="#ArialMT-61" x="521.240234"/>
     <use xlink:href="#ArialMT-74" x="576.855469"/>
     <use xlink:href="#ArialMT-61" x="604.638672"/>
     <use xlink:href="#ArialMT-73" x="660.253906"/>
     <use xlink:href="#ArialMT-65" x="710.253906"/>
     <use xlink:href="#ArialMT-74" x="765.869141"/>
     <use xlink:href="#ArialMT-20" x="793.652344"/>
     <use xlink:href="#ArialMT-4d" x="821.435547"/>
     <use xlink:href="#ArialMT-6f" x="904.736328"/>
     <use xlink:href="#ArialMT-75" x="960.351562"/>
     <use xlink:href="#ArialMT-73" x="1015.966797"/>
     <use xlink:href="#ArialMT-65" x="1065.966797"/>
     <use xlink:href="#ArialMT-5f" x="1121.582031"/>
     <use xlink:href="#ArialMT-6e" x="1177.197266"/>
     <use xlink:href="#ArialMT-6f" x="1232.8125"/>
     <use xlink:href="#ArialMT-6e" x="1288.427734"/>
     <use xlink:href="#ArialMT-5f" x="1344.042969"/>
     <use xlink:href="#ArialMT-74" x="1399.658203"/>
     <use xlink:href="#ArialMT-61" x="1427.441406"/>
     <use xlink:href="#ArialMT-74" x="1483.056641"/>
     <use xlink:href="#ArialMT-61" x="1510.839844"/>
    </g>
   </g>
   <g id="legend_1">
    <g id="line2d_36">
     <path d="M 51.159844 34.593437 
L 61.159844 34.593437 
L 71.159844 34.593437 
" style="fill: none; stroke: #0272a2; stroke-width: 1.75; stroke-linecap: round"/>
    </g>
    <g id="text_37">
     <!-- Promoter -->
     <g style="fill: #262626" transform="translate(79.159844 38.093437) scale(0.1 -0.1)">
      <defs>
       <path id="ArialMT-6d" d="M 422 0 
L 422 3319 
L 925 3319 
L 925 2853 
Q 1081 3097 1340 3245 
Q 1600 3394 1931 3394 
Q 2300 3394 2536 3241 
Q 2772 3088 2869 2813 
Q 3263 3394 3894 3394 
Q 4388 3394 4653 3120 
Q 4919 2847 4919 2278 
L 4919 0 
L 4359 0 
L 4359 2091 
Q 4359 2428 4304 2576 
Q 4250 2725 4106 2815 
Q 3963 2906 3769 2906 
Q 3419 2906 3187 2673 
Q 2956 2441 2956 1928 
L 2956 0 
L 2394 0 
L 2394 2156 
Q 2394 2531 2256 2718 
Q 2119 2906 1806 2906 
Q 1569 2906 1367 2781 
Q 1166 2656 1075 2415 
Q 984 2175 984 1722 
L 984 0 
L 422 0 
z
" transform="scale(0.015625)"/>
      </defs>
      <use xlink:href="#ArialMT-50"/>
      <use xlink:href="#ArialMT-72" x="66.699219"/>
      <use xlink:href="#ArialMT-6f" x="100"/>
      <use xlink:href="#ArialMT-6d" x="155.615234"/>
      <use xlink:href="#ArialMT-6f" x="238.916016"/>
      <use xlink:href="#ArialMT-74" x="294.53125"/>
      <use xlink:href="#ArialMT-65" x="322.314453"/>
      <use xlink:href="#ArialMT-72" x="377.929688"/>
     </g>
    </g>
    <g id="line2d_37">
     <path d="M 51.159844 48.73875 
L 61.159844 48.73875 
L 71.159844 48.73875 
" style="fill: none; stroke-dasharray: 1.75,2.8875; stroke-dashoffset: 0; stroke: #9fc377; stroke-width: 1.75"/>
    </g>
    <g id="text_38">
     <!-- Non-promoter -->
     <g style="fill: #262626" transform="translate(79.159844 52.23875) scale(0.1 -0.1)">
      <defs>
       <path id="ArialMT-4e" d="M 488 0 
L 488 4581 
L 1109 4581 
L 3516 984 
L 3516 4581 
L 4097 4581 
L 4097 0 
L 3475 0 
L 1069 3600 
L 1069 0 
L 488 0 
z
" transform="scale(0.015625)"/>
       <path id="ArialMT-70" d="M 422 -1272 
L 422 3319 
L 934 3319 
L 934 2888 
Q 1116 3141 1344 3267 
Q 1572 3394 1897 3394 
Q 2322 3394 2647 3175 
Q 2972 2956 3137 2557 
Q 3303 2159 3303 1684 
Q 3303 1175 3120 767 
Q 2938 359 2589 142 
Q 2241 -75 1856 -75 
Q 1575 -75 1351 44 
Q 1128 163 984 344 
L 984 -1272 
L 422 -1272 
z
M 931 1641 
Q 931 1000 1190 694 
Q 1450 388 1819 388 
Q 2194 388 2461 705 
Q 2728 1022 2728 1688 
Q 2728 2322 2467 2637 
Q 2206 2953 1844 2953 
Q 1484 2953 1207 2617 
Q 931 2281 931 1641 
z
" transform="scale(0.015625)"/>
      </defs>
      <use xlink:href="#ArialMT-4e"/>
      <use xlink:href="#ArialMT-6f" x="72.216797"/>
      <use xlink:href="#ArialMT-6e" x="127.832031"/>
      <use xlink:href="#ArialMT-2d" x="183.447266"/>
      <use xlink:href="#ArialMT-70" x="216.748047"/>
      <use xlink:href="#ArialMT-72" x="272.363281"/>
      <use xlink:href="#ArialMT-6f" x="305.664062"/>
      <use xlink:href="#ArialMT-6d" x="361.279297"/>
      <use xlink:href="#ArialMT-6f" x="444.580078"/>
      <use xlink:href="#ArialMT-74" x="500.195312"/>
      <use xlink:href="#ArialMT-65" x="527.978516"/>
      <use xlink:href="#ArialMT-72" x="583.59375"/>
     </g>
    </g>
   </g>
  </g>
 </g>
 <defs>
  <clipPath id="pa22649e3aa">
   <rect x="42.159844" y="21.935625" width="446.4" height="304.92"/>
  </clipPath>
 </defs>
</svg>
