<?xml version="1.0" encoding="utf-8" standalone="no"?>
<!DOCTYPE svg PUBLIC "-//W3C//DTD SVG 1.1//EN"
  "http://www.w3.org/Graphics/SVG/1.1/DTD/svg11.dtd">
<svg xmlns:xlink="http://www.w3.org/1999/xlink" width="501.58375pt" height="375.733156pt" viewBox="0 0 501.58375 375.733156" xmlns="http://www.w3.org/2000/svg" version="1.1">
 <metadata>
  <rdf:RDF xmlns:dc="http://purl.org/dc/elements/1.1/" xmlns:cc="http://creativecommons.org/ns#" xmlns:rdf="http://www.w3.org/1999/02/22-rdf-syntax-ns#">
   <cc:Work>
    <dc:type rdf:resource="http://purl.org/dc/dcmitype/StillImage"/>
    <dc:date>2023-05-11T16:25:38.854981</dc:date>
    <dc:format>image/svg+xml</dc:format>
    <dc:creator>
     <cc:Agent>
      <dc:title>Matplotlib v3.7.1, https://matplotlib.org/</dc:title>
     </cc:Agent>
    </dc:creator>
   </cc:Work>
  </rdf:RDF>
 </metadata>
 <defs>
  <style type="text/css">*{stroke-linejoin: round; stroke-linecap: butt}</style>
 </defs>
 <g id="figure_1">
  <g id="patch_1">
   <path d="M 0 375.733156 
L 501.58375 375.733156 
L 501.58375 0 
L 0 0 
z
" style="fill: #ffffff"/>
  </g>
  <g id="axes_1">
   <g id="patch_2">
    <path d="M 47.98375 326.855625 
L 494.38375 326.855625 
L 494.38375 21.935625 
L 47.98375 21.935625 
z
" style="fill: #ffffff"/>
   </g>
   <g id="matplotlib.axis_1">
    <g id="xtick_1">
     <g id="line2d_1"/>
     <g id="text_1">
      <!-- -200 -->
      <g style="fill: #262626" transform="translate(63.027153 353.067937) rotate(-45) scale(0.1 -0.1)">
       <defs>
        <path id="ArialMT-2d" d="M 203 1375 
L 203 1941 
L 1931 1941 
L 1931 1375 
L 203 1375 
z
" transform="scale(0.015625)"/>
        <path id="ArialMT-32" d="M 3222 541 
L 3222 0 
L 194 0 
Q 188 203 259 391 
Q 375 700 629 1000 
Q 884 1300 1366 1694 
Q 2113 2306 2375 2664 
Q 2638 3022 2638 3341 
Q 2638 3675 2398 3904 
Q 2159 4134 1775 4134 
Q 1369 4134 1125 3890 
Q 881 3647 878 3216 
L 300 3275 
Q 359 3922 746 4261 
Q 1134 4600 1788 4600 
Q 2447 4600 2831 4234 
Q 3216 3869 3216 3328 
Q 3216 3053 3103 2787 
Q 2991 2522 2730 2228 
Q 2469 1934 1863 1422 
Q 1356 997 1212 845 
Q 1069 694 975 541 
L 3222 541 
z
" transform="scale(0.015625)"/>
        <path id="ArialMT-30" d="M 266 2259 
Q 266 3072 433 3567 
Q 600 4063 929 4331 
Q 1259 4600 1759 4600 
Q 2128 4600 2406 4451 
Q 2684 4303 2865 4023 
Q 3047 3744 3150 3342 
Q 3253 2941 3253 2259 
Q 3253 1453 3087 958 
Q 2922 463 2592 192 
Q 2263 -78 1759 -78 
Q 1097 -78 719 397 
Q 266 969 266 2259 
z
M 844 2259 
Q 844 1131 1108 757 
Q 1372 384 1759 384 
Q 2147 384 2411 759 
Q 2675 1134 2675 2259 
Q 2675 3391 2411 3762 
Q 2147 4134 1753 4134 
Q 1366 4134 1134 3806 
Q 844 3388 844 2259 
z
" transform="scale(0.015625)"/>
       </defs>
       <use xlink:href="#ArialMT-2d"/>
       <use xlink:href="#ArialMT-32" x="33.300781"/>
       <use xlink:href="#ArialMT-30" x="88.916016"/>
       <use xlink:href="#ArialMT-30" x="144.53125"/>
      </g>
     </g>
    </g>
    <g id="xtick_2">
     <g id="line2d_2"/>
     <g id="text_2">
      <!-- -190 -->
      <g style="fill: #262626" transform="translate(79.325072 353.067937) rotate(-45) scale(0.1 -0.1)">
       <defs>
        <path id="ArialMT-31" d="M 2384 0 
L 1822 0 
L 1822 3584 
Q 1619 3391 1289 3197 
Q 959 3003 697 2906 
L 697 3450 
Q 1169 3672 1522 3987 
Q 1875 4303 2022 4600 
L 2384 4600 
L 2384 0 
z
" transform="scale(0.015625)"/>
        <path id="ArialMT-39" d="M 350 1059 
L 891 1109 
Q 959 728 1153 556 
Q 1347 384 1650 384 
Q 1909 384 2104 503 
Q 2300 622 2425 820 
Q 2550 1019 2634 1356 
Q 2719 1694 2719 2044 
Q 2719 2081 2716 2156 
Q 2547 1888 2255 1720 
Q 1963 1553 1622 1553 
Q 1053 1553 659 1965 
Q 266 2378 266 3053 
Q 266 3750 677 4175 
Q 1088 4600 1706 4600 
Q 2153 4600 2523 4359 
Q 2894 4119 3086 3673 
Q 3278 3228 3278 2384 
Q 3278 1506 3087 986 
Q 2897 466 2520 194 
Q 2144 -78 1638 -78 
Q 1100 -78 759 220 
Q 419 519 350 1059 
z
M 2653 3081 
Q 2653 3566 2395 3850 
Q 2138 4134 1775 4134 
Q 1400 4134 1122 3828 
Q 844 3522 844 3034 
Q 844 2597 1108 2323 
Q 1372 2050 1759 2050 
Q 2150 2050 2401 2323 
Q 2653 2597 2653 3081 
z
" transform="scale(0.015625)"/>
       </defs>
       <use xlink:href="#ArialMT-2d"/>
       <use xlink:href="#ArialMT-31" x="33.300781"/>
       <use xlink:href="#ArialMT-39" x="88.916016"/>
       <use xlink:href="#ArialMT-30" x="144.53125"/>
      </g>
     </g>
    </g>
    <g id="xtick_3">
     <g id="line2d_3"/>
     <g id="text_3">
      <!-- -180 -->
      <g style="fill: #262626" transform="translate(95.622991 353.067937) rotate(-45) scale(0.1 -0.1)">
       <defs>
        <path id="ArialMT-38" d="M 1131 2484 
Q 781 2613 612 2850 
Q 444 3088 444 3419 
Q 444 3919 803 4259 
Q 1163 4600 1759 4600 
Q 2359 4600 2725 4251 
Q 3091 3903 3091 3403 
Q 3091 3084 2923 2848 
Q 2756 2613 2416 2484 
Q 2838 2347 3058 2040 
Q 3278 1734 3278 1309 
Q 3278 722 2862 322 
Q 2447 -78 1769 -78 
Q 1091 -78 675 323 
Q 259 725 259 1325 
Q 259 1772 486 2073 
Q 713 2375 1131 2484 
z
M 1019 3438 
Q 1019 3113 1228 2906 
Q 1438 2700 1772 2700 
Q 2097 2700 2305 2904 
Q 2513 3109 2513 3406 
Q 2513 3716 2298 3927 
Q 2084 4138 1766 4138 
Q 1444 4138 1231 3931 
Q 1019 3725 1019 3438 
z
M 838 1322 
Q 838 1081 952 856 
Q 1066 631 1291 507 
Q 1516 384 1775 384 
Q 2178 384 2440 643 
Q 2703 903 2703 1303 
Q 2703 1709 2433 1975 
Q 2163 2241 1756 2241 
Q 1359 2241 1098 1978 
Q 838 1716 838 1322 
z
" transform="scale(0.015625)"/>
       </defs>
       <use xlink:href="#ArialMT-2d"/>
       <use xlink:href="#ArialMT-31" x="33.300781"/>
       <use xlink:href="#ArialMT-38" x="88.916016"/>
       <use xlink:href="#ArialMT-30" x="144.53125"/>
      </g>
     </g>
    </g>
    <g id="xtick_4">
     <g id="line2d_4"/>
     <g id="text_4">
      <!-- -170 -->
      <g style="fill: #262626" transform="translate(111.92091 353.067937) rotate(-45) scale(0.1 -0.1)">
       <defs>
        <path id="ArialMT-37" d="M 303 3981 
L 303 4522 
L 3269 4522 
L 3269 4084 
Q 2831 3619 2401 2847 
Q 1972 2075 1738 1259 
Q 1569 684 1522 0 
L 944 0 
Q 953 541 1156 1306 
Q 1359 2072 1739 2783 
Q 2119 3494 2547 3981 
L 303 3981 
z
" transform="scale(0.015625)"/>
       </defs>
       <use xlink:href="#ArialMT-2d"/>
       <use xlink:href="#ArialMT-31" x="33.300781"/>
       <use xlink:href="#ArialMT-37" x="88.916016"/>
       <use xlink:href="#ArialMT-30" x="144.53125"/>
      </g>
     </g>
    </g>
    <g id="xtick_5">
     <g id="line2d_5"/>
     <g id="text_5">
      <!-- -160 -->
      <g style="fill: #262626" transform="translate(128.218829 353.067937) rotate(-45) scale(0.1 -0.1)">
       <defs>
        <path id="ArialMT-36" d="M 3184 3459 
L 2625 3416 
Q 2550 3747 2413 3897 
Q 2184 4138 1850 4138 
Q 1581 4138 1378 3988 
Q 1113 3794 959 3422 
Q 806 3050 800 2363 
Q 1003 2672 1297 2822 
Q 1591 2972 1913 2972 
Q 2475 2972 2870 2558 
Q 3266 2144 3266 1488 
Q 3266 1056 3080 686 
Q 2894 316 2569 119 
Q 2244 -78 1831 -78 
Q 1128 -78 684 439 
Q 241 956 241 2144 
Q 241 3472 731 4075 
Q 1159 4600 1884 4600 
Q 2425 4600 2770 4297 
Q 3116 3994 3184 3459 
z
M 888 1484 
Q 888 1194 1011 928 
Q 1134 663 1356 523 
Q 1578 384 1822 384 
Q 2178 384 2434 671 
Q 2691 959 2691 1453 
Q 2691 1928 2437 2201 
Q 2184 2475 1800 2475 
Q 1419 2475 1153 2201 
Q 888 1928 888 1484 
z
" transform="scale(0.015625)"/>
       </defs>
       <use xlink:href="#ArialMT-2d"/>
       <use xlink:href="#ArialMT-31" x="33.300781"/>
       <use xlink:href="#ArialMT-36" x="88.916016"/>
       <use xlink:href="#ArialMT-30" x="144.53125"/>
      </g>
     </g>
    </g>
    <g id="xtick_6">
     <g id="line2d_6"/>
     <g id="text_6">
      <!-- -150 -->
      <g style="fill: #262626" transform="translate(144.516748 353.067937) rotate(-45) scale(0.1 -0.1)">
       <defs>
        <path id="ArialMT-35" d="M 266 1200 
L 856 1250 
Q 922 819 1161 601 
Q 1400 384 1738 384 
Q 2144 384 2425 690 
Q 2706 997 2706 1503 
Q 2706 1984 2436 2262 
Q 2166 2541 1728 2541 
Q 1456 2541 1237 2417 
Q 1019 2294 894 2097 
L 366 2166 
L 809 4519 
L 3088 4519 
L 3088 3981 
L 1259 3981 
L 1013 2750 
Q 1425 3038 1878 3038 
Q 2478 3038 2890 2622 
Q 3303 2206 3303 1553 
Q 3303 931 2941 478 
Q 2500 -78 1738 -78 
Q 1113 -78 717 272 
Q 322 622 266 1200 
z
" transform="scale(0.015625)"/>
       </defs>
       <use xlink:href="#ArialMT-2d"/>
       <use xlink:href="#ArialMT-31" x="33.300781"/>
       <use xlink:href="#ArialMT-35" x="88.916016"/>
       <use xlink:href="#ArialMT-30" x="144.53125"/>
      </g>
     </g>
    </g>
    <g id="xtick_7">
     <g id="line2d_7"/>
     <g id="text_7">
      <!-- -140 -->
      <g style="fill: #262626" transform="translate(160.814667 353.067937) rotate(-45) scale(0.1 -0.1)">
       <defs>
        <path id="ArialMT-34" d="M 2069 0 
L 2069 1097 
L 81 1097 
L 81 1613 
L 2172 4581 
L 2631 4581 
L 2631 1613 
L 3250 1613 
L 3250 1097 
L 2631 1097 
L 2631 0 
L 2069 0 
z
M 2069 1613 
L 2069 3678 
L 634 1613 
L 2069 1613 
z
" transform="scale(0.015625)"/>
       </defs>
       <use xlink:href="#ArialMT-2d"/>
       <use xlink:href="#ArialMT-31" x="33.300781"/>
       <use xlink:href="#ArialMT-34" x="88.916016"/>
       <use xlink:href="#ArialMT-30" x="144.53125"/>
      </g>
     </g>
    </g>
    <g id="xtick_8">
     <g id="line2d_8"/>
     <g id="text_8">
      <!-- -130 -->
      <g style="fill: #262626" transform="translate(177.112586 353.067937) rotate(-45) scale(0.1 -0.1)">
       <defs>
        <path id="ArialMT-33" d="M 269 1209 
L 831 1284 
Q 928 806 1161 595 
Q 1394 384 1728 384 
Q 2125 384 2398 659 
Q 2672 934 2672 1341 
Q 2672 1728 2419 1979 
Q 2166 2231 1775 2231 
Q 1616 2231 1378 2169 
L 1441 2663 
Q 1497 2656 1531 2656 
Q 1891 2656 2178 2843 
Q 2466 3031 2466 3422 
Q 2466 3731 2256 3934 
Q 2047 4138 1716 4138 
Q 1388 4138 1169 3931 
Q 950 3725 888 3313 
L 325 3413 
Q 428 3978 793 4289 
Q 1159 4600 1703 4600 
Q 2078 4600 2393 4439 
Q 2709 4278 2876 4000 
Q 3044 3722 3044 3409 
Q 3044 3113 2884 2869 
Q 2725 2625 2413 2481 
Q 2819 2388 3044 2092 
Q 3269 1797 3269 1353 
Q 3269 753 2831 336 
Q 2394 -81 1725 -81 
Q 1122 -81 723 278 
Q 325 638 269 1209 
z
" transform="scale(0.015625)"/>
       </defs>
       <use xlink:href="#ArialMT-2d"/>
       <use xlink:href="#ArialMT-31" x="33.300781"/>
       <use xlink:href="#ArialMT-33" x="88.916016"/>
       <use xlink:href="#ArialMT-30" x="144.53125"/>
      </g>
     </g>
    </g>
    <g id="xtick_9">
     <g id="line2d_9"/>
     <g id="text_9">
      <!-- -120 -->
      <g style="fill: #262626" transform="translate(193.410505 353.067937) rotate(-45) scale(0.1 -0.1)">
       <use xlink:href="#ArialMT-2d"/>
       <use xlink:href="#ArialMT-31" x="33.300781"/>
       <use xlink:href="#ArialMT-32" x="88.916016"/>
       <use xlink:href="#ArialMT-30" x="144.53125"/>
      </g>
     </g>
    </g>
    <g id="xtick_10">
     <g id="line2d_10"/>
     <g id="text_10">
      <!-- -110 -->
      <g style="fill: #262626" transform="translate(209.96917 352.546446) rotate(-45) scale(0.1 -0.1)">
       <use xlink:href="#ArialMT-2d"/>
       <use xlink:href="#ArialMT-31" x="33.300781"/>
       <use xlink:href="#ArialMT-31" x="81.541016"/>
       <use xlink:href="#ArialMT-30" x="137.15625"/>
      </g>
     </g>
    </g>
    <g id="xtick_11">
     <g id="line2d_11"/>
     <g id="text_11">
      <!-- -100 -->
      <g style="fill: #262626" transform="translate(226.006343 353.067937) rotate(-45) scale(0.1 -0.1)">
       <use xlink:href="#ArialMT-2d"/>
       <use xlink:href="#ArialMT-31" x="33.300781"/>
       <use xlink:href="#ArialMT-30" x="88.916016"/>
       <use xlink:href="#ArialMT-30" x="144.53125"/>
      </g>
     </g>
    </g>
    <g id="xtick_12">
     <g id="line2d_12"/>
     <g id="text_12">
      <!-- -90 -->
      <g style="fill: #262626" transform="translate(244.27035 349.135761) rotate(-45) scale(0.1 -0.1)">
       <use xlink:href="#ArialMT-2d"/>
       <use xlink:href="#ArialMT-39" x="33.300781"/>
       <use xlink:href="#ArialMT-30" x="88.916016"/>
      </g>
     </g>
    </g>
    <g id="xtick_13">
     <g id="line2d_13"/>
     <g id="text_13">
      <!-- -80 -->
      <g style="fill: #262626" transform="translate(260.568269 349.135761) rotate(-45) scale(0.1 -0.1)">
       <use xlink:href="#ArialMT-2d"/>
       <use xlink:href="#ArialMT-38" x="33.300781"/>
       <use xlink:href="#ArialMT-30" x="88.916016"/>
      </g>
     </g>
    </g>
    <g id="xtick_14">
     <g id="line2d_14"/>
     <g id="text_14">
      <!-- -70 -->
      <g style="fill: #262626" transform="translate(276.866188 349.135761) rotate(-45) scale(0.1 -0.1)">
       <use xlink:href="#ArialMT-2d"/>
       <use xlink:href="#ArialMT-37" x="33.300781"/>
       <use xlink:href="#ArialMT-30" x="88.916016"/>
      </g>
     </g>
    </g>
    <g id="xtick_15">
     <g id="line2d_15"/>
     <g id="text_15">
      <!-- -60 -->
      <g style="fill: #262626" transform="translate(293.164107 349.135761) rotate(-45) scale(0.1 -0.1)">
       <use xlink:href="#ArialMT-2d"/>
       <use xlink:href="#ArialMT-36" x="33.300781"/>
       <use xlink:href="#ArialMT-30" x="88.916016"/>
      </g>
     </g>
    </g>
    <g id="xtick_16">
     <g id="line2d_16"/>
     <g id="text_16">
      <!-- -50 -->
      <g style="fill: #262626" transform="translate(309.462026 349.135761) rotate(-45) scale(0.1 -0.1)">
       <use xlink:href="#ArialMT-2d"/>
       <use xlink:href="#ArialMT-35" x="33.300781"/>
       <use xlink:href="#ArialMT-30" x="88.916016"/>
      </g>
     </g>
    </g>
    <g id="xtick_17">
     <g id="line2d_17"/>
     <g id="text_17">
      <!-- -40 -->
      <g style="fill: #262626" transform="translate(325.759945 349.135761) rotate(-45) scale(0.1 -0.1)">
       <use xlink:href="#ArialMT-2d"/>
       <use xlink:href="#ArialMT-34" x="33.300781"/>
       <use xlink:href="#ArialMT-30" x="88.916016"/>
      </g>
     </g>
    </g>
    <g id="xtick_18">
     <g id="line2d_18"/>
     <g id="text_18">
      <!-- -30 -->
      <g style="fill: #262626" transform="translate(342.057864 349.135761) rotate(-45) scale(0.1 -0.1)">
       <use xlink:href="#ArialMT-2d"/>
       <use xlink:href="#ArialMT-33" x="33.300781"/>
       <use xlink:href="#ArialMT-30" x="88.916016"/>
      </g>
     </g>
    </g>
    <g id="xtick_19">
     <g id="line2d_19"/>
     <g id="text_19">
      <!-- -20 -->
      <g style="fill: #262626" transform="translate(358.355783 349.135761) rotate(-45) scale(0.1 -0.1)">
       <use xlink:href="#ArialMT-2d"/>
       <use xlink:href="#ArialMT-32" x="33.300781"/>
       <use xlink:href="#ArialMT-30" x="88.916016"/>
      </g>
     </g>
    </g>
    <g id="xtick_20">
     <g id="line2d_20"/>
     <g id="text_20">
      <!-- -10 -->
      <g style="fill: #262626" transform="translate(374.653702 349.135761) rotate(-45) scale(0.1 -0.1)">
       <use xlink:href="#ArialMT-2d"/>
       <use xlink:href="#ArialMT-31" x="33.300781"/>
       <use xlink:href="#ArialMT-30" x="88.916016"/>
      </g>
     </g>
    </g>
    <g id="xtick_21">
     <g id="line2d_21"/>
     <g id="text_21">
      <!-- 0 -->
      <g style="fill: #262626" transform="translate(394.094931 342.849139) rotate(-45) scale(0.1 -0.1)">
       <use xlink:href="#ArialMT-30"/>
      </g>
     </g>
    </g>
    <g id="xtick_22">
     <g id="line2d_22"/>
     <g id="text_22">
      <!-- 10 -->
      <g style="fill: #262626" transform="translate(408.426762 346.781316) rotate(-45) scale(0.1 -0.1)">
       <use xlink:href="#ArialMT-31"/>
       <use xlink:href="#ArialMT-30" x="55.615234"/>
      </g>
     </g>
    </g>
    <g id="xtick_23">
     <g id="line2d_23"/>
     <g id="text_23">
      <!-- 20 -->
      <g style="fill: #262626" transform="translate(424.724681 346.781316) rotate(-45) scale(0.1 -0.1)">
       <use xlink:href="#ArialMT-32"/>
       <use xlink:href="#ArialMT-30" x="55.615234"/>
      </g>
     </g>
    </g>
    <g id="xtick_24">
     <g id="line2d_24"/>
     <g id="text_24">
      <!-- 30 -->
      <g style="fill: #262626" transform="translate(441.0226 346.781316) rotate(-45) scale(0.1 -0.1)">
       <use xlink:href="#ArialMT-33"/>
       <use xlink:href="#ArialMT-30" x="55.615234"/>
      </g>
     </g>
    </g>
    <g id="xtick_25">
     <g id="line2d_25"/>
     <g id="text_25">
      <!-- 40 -->
      <g style="fill: #262626" transform="translate(457.320519 346.781316) rotate(-45) scale(0.1 -0.1)">
       <use xlink:href="#ArialMT-34"/>
       <use xlink:href="#ArialMT-30" x="55.615234"/>
      </g>
     </g>
    </g>
    <g id="xtick_26">
     <g id="line2d_26"/>
     <g id="text_26">
      <!-- 50 -->
      <g style="fill: #262626" transform="translate(473.618438 346.781316) rotate(-45) scale(0.1 -0.1)">
       <use xlink:href="#ArialMT-35"/>
       <use xlink:href="#ArialMT-30" x="55.615234"/>
      </g>
     </g>
    </g>
    <g id="text_27">
     <!-- Position -->
     <g style="fill: #262626" transform="translate(251.6175 366.346906) scale(0.11 -0.11)">
      <defs>
       <path id="ArialMT-50" d="M 494 0 
L 494 4581 
L 2222 4581 
Q 2678 4581 2919 4538 
Q 3256 4481 3484 4323 
Q 3713 4166 3852 3881 
Q 3991 3597 3991 3256 
Q 3991 2672 3619 2267 
Q 3247 1863 2275 1863 
L 1100 1863 
L 1100 0 
L 494 0 
z
M 1100 2403 
L 2284 2403 
Q 2872 2403 3119 2622 
Q 3366 2841 3366 3238 
Q 3366 3525 3220 3729 
Q 3075 3934 2838 4000 
Q 2684 4041 2272 4041 
L 1100 4041 
L 1100 2403 
z
" transform="scale(0.015625)"/>
       <path id="ArialMT-6f" d="M 213 1659 
Q 213 2581 725 3025 
Q 1153 3394 1769 3394 
Q 2453 3394 2887 2945 
Q 3322 2497 3322 1706 
Q 3322 1066 3130 698 
Q 2938 331 2570 128 
Q 2203 -75 1769 -75 
Q 1072 -75 642 372 
Q 213 819 213 1659 
z
M 791 1659 
Q 791 1022 1069 705 
Q 1347 388 1769 388 
Q 2188 388 2466 706 
Q 2744 1025 2744 1678 
Q 2744 2294 2464 2611 
Q 2184 2928 1769 2928 
Q 1347 2928 1069 2612 
Q 791 2297 791 1659 
z
" transform="scale(0.015625)"/>
       <path id="ArialMT-73" d="M 197 991 
L 753 1078 
Q 800 744 1014 566 
Q 1228 388 1613 388 
Q 2000 388 2187 545 
Q 2375 703 2375 916 
Q 2375 1106 2209 1216 
Q 2094 1291 1634 1406 
Q 1016 1563 777 1677 
Q 538 1791 414 1992 
Q 291 2194 291 2438 
Q 291 2659 392 2848 
Q 494 3038 669 3163 
Q 800 3259 1026 3326 
Q 1253 3394 1513 3394 
Q 1903 3394 2198 3281 
Q 2494 3169 2634 2976 
Q 2775 2784 2828 2463 
L 2278 2388 
Q 2241 2644 2061 2787 
Q 1881 2931 1553 2931 
Q 1166 2931 1000 2803 
Q 834 2675 834 2503 
Q 834 2394 903 2306 
Q 972 2216 1119 2156 
Q 1203 2125 1616 2013 
Q 2213 1853 2448 1751 
Q 2684 1650 2818 1456 
Q 2953 1263 2953 975 
Q 2953 694 2789 445 
Q 2625 197 2315 61 
Q 2006 -75 1616 -75 
Q 969 -75 630 194 
Q 291 463 197 991 
z
" transform="scale(0.015625)"/>
       <path id="ArialMT-69" d="M 425 3934 
L 425 4581 
L 988 4581 
L 988 3934 
L 425 3934 
z
M 425 0 
L 425 3319 
L 988 3319 
L 988 0 
L 425 0 
z
" transform="scale(0.015625)"/>
       <path id="ArialMT-74" d="M 1650 503 
L 1731 6 
Q 1494 -44 1306 -44 
Q 1000 -44 831 53 
Q 663 150 594 308 
Q 525 466 525 972 
L 525 2881 
L 113 2881 
L 113 3319 
L 525 3319 
L 525 4141 
L 1084 4478 
L 1084 3319 
L 1650 3319 
L 1650 2881 
L 1084 2881 
L 1084 941 
Q 1084 700 1114 631 
Q 1144 563 1211 522 
Q 1278 481 1403 481 
Q 1497 481 1650 503 
z
" transform="scale(0.015625)"/>
       <path id="ArialMT-6e" d="M 422 0 
L 422 3319 
L 928 3319 
L 928 2847 
Q 1294 3394 1984 3394 
Q 2284 3394 2536 3286 
Q 2788 3178 2913 3003 
Q 3038 2828 3088 2588 
Q 3119 2431 3119 2041 
L 3119 0 
L 2556 0 
L 2556 2019 
Q 2556 2363 2490 2533 
Q 2425 2703 2258 2804 
Q 2091 2906 1866 2906 
Q 1506 2906 1245 2678 
Q 984 2450 984 1813 
L 984 0 
L 422 0 
z
" transform="scale(0.015625)"/>
      </defs>
      <use xlink:href="#ArialMT-50"/>
      <use xlink:href="#ArialMT-6f" x="66.699219"/>
      <use xlink:href="#ArialMT-73" x="122.314453"/>
      <use xlink:href="#ArialMT-69" x="172.314453"/>
      <use xlink:href="#ArialMT-74" x="194.53125"/>
      <use xlink:href="#ArialMT-69" x="222.314453"/>
      <use xlink:href="#ArialMT-6f" x="244.53125"/>
      <use xlink:href="#ArialMT-6e" x="300.146484"/>
     </g>
    </g>
   </g>
   <g id="matplotlib.axis_2">
    <g id="ytick_1">
     <g id="line2d_27"/>
     <g id="text_28">
      <!-- 60.0 -->
      <g style="fill: #262626" transform="translate(21.522813 326.943775) scale(0.1 -0.1)">
       <defs>
        <path id="ArialMT-2e" d="M 581 0 
L 581 641 
L 1222 641 
L 1222 0 
L 581 0 
z
" transform="scale(0.015625)"/>
       </defs>
       <use xlink:href="#ArialMT-36"/>
       <use xlink:href="#ArialMT-30" x="55.615234"/>
       <use xlink:href="#ArialMT-2e" x="111.230469"/>
       <use xlink:href="#ArialMT-30" x="139.013672"/>
      </g>
     </g>
    </g>
    <g id="ytick_2">
     <g id="line2d_28"/>
     <g id="text_29">
      <!-- 62.5 -->
      <g style="fill: #262626" transform="translate(21.522813 290.507567) scale(0.1 -0.1)">
       <use xlink:href="#ArialMT-36"/>
       <use xlink:href="#ArialMT-32" x="55.615234"/>
       <use xlink:href="#ArialMT-2e" x="111.230469"/>
       <use xlink:href="#ArialMT-35" x="139.013672"/>
      </g>
     </g>
    </g>
    <g id="ytick_3">
     <g id="line2d_29"/>
     <g id="text_30">
      <!-- 65.0 -->
      <g style="fill: #262626" transform="translate(21.522813 254.071359) scale(0.1 -0.1)">
       <use xlink:href="#ArialMT-36"/>
       <use xlink:href="#ArialMT-35" x="55.615234"/>
       <use xlink:href="#ArialMT-2e" x="111.230469"/>
       <use xlink:href="#ArialMT-30" x="139.013672"/>
      </g>
     </g>
    </g>
    <g id="ytick_4">
     <g id="line2d_30"/>
     <g id="text_31">
      <!-- 67.5 -->
      <g style="fill: #262626" transform="translate(21.522813 217.63515) scale(0.1 -0.1)">
       <use xlink:href="#ArialMT-36"/>
       <use xlink:href="#ArialMT-37" x="55.615234"/>
       <use xlink:href="#ArialMT-2e" x="111.230469"/>
       <use xlink:href="#ArialMT-35" x="139.013672"/>
      </g>
     </g>
    </g>
    <g id="ytick_5">
     <g id="line2d_31"/>
     <g id="text_32">
      <!-- 70.0 -->
      <g style="fill: #262626" transform="translate(21.522813 181.198942) scale(0.1 -0.1)">
       <use xlink:href="#ArialMT-37"/>
       <use xlink:href="#ArialMT-30" x="55.615234"/>
       <use xlink:href="#ArialMT-2e" x="111.230469"/>
       <use xlink:href="#ArialMT-30" x="139.013672"/>
      </g>
     </g>
    </g>
    <g id="ytick_6">
     <g id="line2d_32"/>
     <g id="text_33">
      <!-- 72.5 -->
      <g style="fill: #262626" transform="translate(21.522813 144.762734) scale(0.1 -0.1)">
       <use xlink:href="#ArialMT-37"/>
       <use xlink:href="#ArialMT-32" x="55.615234"/>
       <use xlink:href="#ArialMT-2e" x="111.230469"/>
       <use xlink:href="#ArialMT-35" x="139.013672"/>
      </g>
     </g>
    </g>
    <g id="ytick_7">
     <g id="line2d_33"/>
     <g id="text_34">
      <!-- 75.0 -->
      <g style="fill: #262626" transform="translate(21.522813 108.326526) scale(0.1 -0.1)">
       <use xlink:href="#ArialMT-37"/>
       <use xlink:href="#ArialMT-35" x="55.615234"/>
       <use xlink:href="#ArialMT-2e" x="111.230469"/>
       <use xlink:href="#ArialMT-30" x="139.013672"/>
      </g>
     </g>
    </g>
    <g id="ytick_8">
     <g id="line2d_34"/>
     <g id="text_35">
      <!-- 77.5 -->
      <g style="fill: #262626" transform="translate(21.522813 71.890317) scale(0.1 -0.1)">
       <use xlink:href="#ArialMT-37"/>
       <use xlink:href="#ArialMT-37" x="55.615234"/>
       <use xlink:href="#ArialMT-2e" x="111.230469"/>
       <use xlink:href="#ArialMT-35" x="139.013672"/>
      </g>
     </g>
    </g>
    <g id="ytick_9">
     <g id="line2d_35"/>
     <g id="text_36">
      <!-- 80.0 -->
      <g style="fill: #262626" transform="translate(21.522813 35.454109) scale(0.1 -0.1)">
       <use xlink:href="#ArialMT-38"/>
       <use xlink:href="#ArialMT-30" x="55.615234"/>
       <use xlink:href="#ArialMT-2e" x="111.230469"/>
       <use xlink:href="#ArialMT-30" x="139.013672"/>
      </g>
     </g>
    </g>
    <g id="text_37">
     <!-- Bending stiffness -->
     <g style="fill: #262626" transform="translate(15.207656 216.183594) rotate(-90) scale(0.11 -0.11)">
      <defs>
       <path id="ArialMT-42" d="M 469 0 
L 469 4581 
L 2188 4581 
Q 2713 4581 3030 4442 
Q 3347 4303 3526 4014 
Q 3706 3725 3706 3409 
Q 3706 3116 3547 2856 
Q 3388 2597 3066 2438 
Q 3481 2316 3704 2022 
Q 3928 1728 3928 1328 
Q 3928 1006 3792 729 
Q 3656 453 3456 303 
Q 3256 153 2954 76 
Q 2653 0 2216 0 
L 469 0 
z
M 1075 2656 
L 2066 2656 
Q 2469 2656 2644 2709 
Q 2875 2778 2992 2937 
Q 3109 3097 3109 3338 
Q 3109 3566 3000 3739 
Q 2891 3913 2687 3977 
Q 2484 4041 1991 4041 
L 1075 4041 
L 1075 2656 
z
M 1075 541 
L 2216 541 
Q 2509 541 2628 563 
Q 2838 600 2978 687 
Q 3119 775 3209 942 
Q 3300 1109 3300 1328 
Q 3300 1584 3169 1773 
Q 3038 1963 2805 2039 
Q 2572 2116 2134 2116 
L 1075 2116 
L 1075 541 
z
" transform="scale(0.015625)"/>
       <path id="ArialMT-65" d="M 2694 1069 
L 3275 997 
Q 3138 488 2766 206 
Q 2394 -75 1816 -75 
Q 1088 -75 661 373 
Q 234 822 234 1631 
Q 234 2469 665 2931 
Q 1097 3394 1784 3394 
Q 2450 3394 2872 2941 
Q 3294 2488 3294 1666 
Q 3294 1616 3291 1516 
L 816 1516 
Q 847 969 1125 678 
Q 1403 388 1819 388 
Q 2128 388 2347 550 
Q 2566 713 2694 1069 
z
M 847 1978 
L 2700 1978 
Q 2663 2397 2488 2606 
Q 2219 2931 1791 2931 
Q 1403 2931 1139 2672 
Q 875 2413 847 1978 
z
" transform="scale(0.015625)"/>
       <path id="ArialMT-64" d="M 2575 0 
L 2575 419 
Q 2259 -75 1647 -75 
Q 1250 -75 917 144 
Q 584 363 401 755 
Q 219 1147 219 1656 
Q 219 2153 384 2558 
Q 550 2963 881 3178 
Q 1213 3394 1622 3394 
Q 1922 3394 2156 3267 
Q 2391 3141 2538 2938 
L 2538 4581 
L 3097 4581 
L 3097 0 
L 2575 0 
z
M 797 1656 
Q 797 1019 1065 703 
Q 1334 388 1700 388 
Q 2069 388 2326 689 
Q 2584 991 2584 1609 
Q 2584 2291 2321 2609 
Q 2059 2928 1675 2928 
Q 1300 2928 1048 2622 
Q 797 2316 797 1656 
z
" transform="scale(0.015625)"/>
       <path id="ArialMT-67" d="M 319 -275 
L 866 -356 
Q 900 -609 1056 -725 
Q 1266 -881 1628 -881 
Q 2019 -881 2231 -725 
Q 2444 -569 2519 -288 
Q 2563 -116 2559 434 
Q 2191 0 1641 0 
Q 956 0 581 494 
Q 206 988 206 1678 
Q 206 2153 378 2554 
Q 550 2956 876 3175 
Q 1203 3394 1644 3394 
Q 2231 3394 2613 2919 
L 2613 3319 
L 3131 3319 
L 3131 450 
Q 3131 -325 2973 -648 
Q 2816 -972 2473 -1159 
Q 2131 -1347 1631 -1347 
Q 1038 -1347 672 -1080 
Q 306 -813 319 -275 
z
M 784 1719 
Q 784 1066 1043 766 
Q 1303 466 1694 466 
Q 2081 466 2343 764 
Q 2606 1063 2606 1700 
Q 2606 2309 2336 2618 
Q 2066 2928 1684 2928 
Q 1309 2928 1046 2623 
Q 784 2319 784 1719 
z
" transform="scale(0.015625)"/>
       <path id="ArialMT-20" transform="scale(0.015625)"/>
       <path id="ArialMT-66" d="M 556 0 
L 556 2881 
L 59 2881 
L 59 3319 
L 556 3319 
L 556 3672 
Q 556 4006 616 4169 
Q 697 4388 901 4523 
Q 1106 4659 1475 4659 
Q 1713 4659 2000 4603 
L 1916 4113 
Q 1741 4144 1584 4144 
Q 1328 4144 1222 4034 
Q 1116 3925 1116 3625 
L 1116 3319 
L 1763 3319 
L 1763 2881 
L 1116 2881 
L 1116 0 
L 556 0 
z
" transform="scale(0.015625)"/>
      </defs>
      <use xlink:href="#ArialMT-42"/>
      <use xlink:href="#ArialMT-65" x="66.699219"/>
      <use xlink:href="#ArialMT-6e" x="122.314453"/>
      <use xlink:href="#ArialMT-64" x="177.929688"/>
      <use xlink:href="#ArialMT-69" x="233.544922"/>
      <use xlink:href="#ArialMT-6e" x="255.761719"/>
      <use xlink:href="#ArialMT-67" x="311.376953"/>
      <use xlink:href="#ArialMT-20" x="366.992188"/>
      <use xlink:href="#ArialMT-73" x="394.775391"/>
      <use xlink:href="#ArialMT-74" x="444.775391"/>
      <use xlink:href="#ArialMT-69" x="472.558594"/>
      <use xlink:href="#ArialMT-66" x="494.775391"/>
      <use xlink:href="#ArialMT-66" x="520.808594"/>
      <use xlink:href="#ArialMT-6e" x="548.591797"/>
      <use xlink:href="#ArialMT-65" x="604.207031"/>
      <use xlink:href="#ArialMT-73" x="659.822266"/>
      <use xlink:href="#ArialMT-73" x="709.822266"/>
     </g>
    </g>
   </g>
   <g id="line2d_36">
    <path d="M 68.274659 180.461895 
L 69.904451 180.287355 
L 71.534243 176.196869 
L 73.164035 169.949255 
L 74.793827 168.763283 
L 76.423619 173.842825 
L 78.05341 175.740381 
L 79.683202 176.957681 
L 81.312994 175.72248 
L 82.942786 168.257566 
L 84.572578 167.443049 
L 86.20237 173.314732 
L 87.832162 174.540983 
L 89.461954 169.712061 
L 91.091746 166.906005 
L 92.721538 167.801079 
L 94.351329 165.245643 
L 95.981121 164.207358 
L 97.610913 160.788177 
L 99.240705 164.296865 
L 100.870497 169.349556 
L 104.130081 162.972156 
L 105.759873 166.646434 
L 107.389665 168.606645 
L 109.019456 161.338647 
L 110.649248 162.126312 
L 112.27904 162.676782 
L 113.908832 159.669335 
L 117.168416 154.737479 
L 118.798208 156.26358 
L 120.428 150.257636 
L 122.057792 151.175087 
L 123.687584 157.333193 
L 125.317375 154.956772 
L 126.947167 153.649965 
L 128.576959 156.675314 
L 131.836543 150.30239 
L 133.466335 152.092537 
L 135.096127 155.077607 
L 136.725919 153.189002 
L 138.355711 152.056734 
L 139.985502 158.599722 
L 141.615294 157.633043 
L 143.245086 149.680314 
L 144.874878 150.356094 
L 146.50467 144.153234 
L 148.134462 145.236273 
L 149.764254 146.892159 
L 151.394046 149.769821 
L 153.023838 149.514725 
L 154.65363 147.558989 
L 156.283421 140.246238 
L 157.913213 139.740521 
L 159.543005 139.386967 
L 161.172797 134.150787 
L 164.432381 144.985653 
L 166.062173 141.342703 
L 167.691965 139.395918 
L 169.321757 131.474517 
L 170.951548 129.885761 
L 172.58134 136.325816 
L 174.211132 134.857895 
L 175.840924 130.266167 
L 177.470716 136.818106 
L 179.100508 133.228861 
L 180.7303 131.39396 
L 182.360092 137.059776 
L 183.989884 127.612274 
L 185.619676 123.758982 
L 187.249467 126.793282 
L 188.879259 129.071244 
L 190.509051 127.768912 
L 192.138843 125.929536 
L 193.768635 127.343752 
L 195.398427 124.322879 
L 197.028219 122.183653 
L 198.658011 125.831078 
L 200.287803 128.878803 
L 201.917594 124.475041 
L 203.547386 122.693845 
L 205.177178 119.243336 
L 206.80697 121.803247 
L 208.436762 122.183653 
L 210.066554 120.268195 
L 211.696346 122.197079 
L 213.326138 118.352738 
L 214.95593 113.662552 
L 216.585722 113.975828 
L 218.215513 111.263755 
L 219.845305 112.812232 
L 221.475097 107.513397 
L 223.104889 109.035022 
L 224.734681 111.514376 
L 226.364473 110.932578 
L 229.624057 113.971353 
L 231.253849 107.661084 
L 232.88364 111.496474 
L 236.143224 108.430847 
L 237.773016 110.878873 
L 239.402808 110.601401 
L 241.0326 105.190681 
L 242.662392 102.921669 
L 244.292184 101.681992 
L 245.921976 103.642203 
L 247.551768 102.939571 
L 249.181559 102.062398 
L 250.811351 98.661119 
L 252.441143 96.374206 
L 254.070935 95.201659 
L 255.700727 99.542766 
L 257.330519 93.617379 
L 258.960311 95.237462 
L 260.590103 99.211589 
L 262.219895 92.238966 
L 263.849686 96.633777 
L 265.479478 89.083831 
L 267.10927 88.09925 
L 268.739062 89.978905 
L 270.368854 85.615421 
L 271.998646 78.951598 
L 273.628438 80.410568 
L 275.25823 84.894887 
L 276.888022 91.334941 
L 278.517814 88.081349 
L 280.147605 85.888419 
L 281.777397 89.06593 
L 283.407189 89.142011 
L 285.036981 86.295677 
L 286.666773 83.959535 
L 288.296565 79.506544 
L 289.926357 78.615946 
L 291.556149 80.746221 
L 293.185941 82.075405 
L 294.815732 88.452804 
L 296.445524 86.183793 
L 298.075316 76.767619 
L 299.705108 76.664685 
L 301.3349 73.147046 
L 302.964692 68.219666 
L 304.594484 66.56378 
L 306.224276 60.741326 
L 307.854068 64.01282 
L 309.48386 68.479237 
L 311.113651 72.126662 
L 312.743443 70.184352 
L 314.373235 66.429519 
L 316.003027 48.845798 
L 317.632819 45.556403 
L 319.262611 47.086978 
L 320.892403 43.864713 
L 322.522195 42.947263 
L 324.151987 43.658847 
L 325.781778 46.37987 
L 327.41157 49.606611 
L 329.041362 55.988485 
L 330.671154 59.573255 
L 332.300946 57.997925 
L 333.930738 63.618988 
L 335.56053 73.120194 
L 337.190322 84.013239 
L 340.449906 61.542417 
L 342.079697 64.576716 
L 343.709489 86.000303 
L 345.339281 105.781429 
L 346.969073 132.85293 
L 348.598865 171.511159 
L 350.228657 190.356933 
L 351.858449 164.363996 
L 353.488241 96.875447 
L 355.118033 61.587171 
L 356.747824 48.87265 
L 358.377616 44.603149 
L 360.007408 54.252042 
L 361.6372 61.82884 
L 363.266992 65.270398 
L 364.896784 68.170437 
L 366.526576 73.872056 
L 368.156368 75.800939 
L 369.78616 64.952647 
L 371.415952 61.775136 
L 373.045743 45.730942 
L 374.675535 35.795625 
L 376.305327 64.142606 
L 377.935119 68.582171 
L 379.564911 68.385255 
L 381.194703 75.353402 
L 382.824495 74.887964 
L 384.454287 92.896845 
L 386.084079 94.158899 
L 387.71387 64.769157 
L 389.343662 67.673671 
L 390.973454 58.338053 
L 392.603246 258.105053 
L 394.233038 257.666467 
L 395.86283 256.471544 
L 397.492622 260.535178 
L 399.122414 147.371024 
L 400.752206 148.892649 
L 402.381998 119.408925 
L 404.011789 102.013169 
L 405.641581 101.001736 
L 407.271373 98.397072 
L 408.901165 106.233441 
L 410.530957 108.779926 
L 412.160749 93.756116 
L 413.790541 82.191765 
L 415.420333 82.487139 
L 417.050125 84.120648 
L 418.679916 86.340431 
L 420.309708 77.586611 
L 421.9395 73.5006 
L 423.569292 85.874993 
L 425.199084 93.411512 
L 426.828876 89.920725 
L 428.458668 76.127641 
L 430.08846 81.739753 
L 431.718252 92.462734 
L 433.348044 97.658636 
L 434.977835 111.048937 
L 436.607627 100.634756 
L 438.237419 72.82482 
L 439.867211 77.389695 
L 441.497003 100.652658 
L 443.126795 100.37966 
L 444.756587 93.044532 
L 446.386379 90.202673 
L 448.016171 106.255818 
L 449.645962 111.295083 
L 452.905546 110.856497 
L 454.535338 105.933592 
L 456.16513 96.083307 
L 457.794922 104.000233 
L 459.424714 108.730697 
L 461.054506 96.181765 
L 462.684298 91.088796 
L 464.31409 85.512488 
L 465.943881 77.367318 
L 467.573673 71.428505 
L 469.203465 66.040162 
L 470.833257 74.019743 
L 472.463049 76.508047 
L 474.092841 86.094286 
L 474.092841 86.094286 
" clip-path="url(#pd75dec344b)" style="fill: none; stroke: #0272a2; stroke-width: 1.75; stroke-linecap: round"/>
   </g>
   <g id="line2d_37">
    <path d="M 68.274659 309.595969 
L 69.904451 305.412455 
L 71.534243 304.766579 
L 73.164035 307.761094 
L 74.793827 309.484409 
L 76.423619 305.670805 
L 78.05341 310.051018 
L 79.683202 306.14934 
L 82.942786 304.290979 
L 84.572578 308.2044 
L 86.20237 306.416498 
L 87.832162 308.75633 
L 89.461954 305.940899 
L 91.091746 305.306766 
L 92.721538 308.395227 
L 94.351329 305.870439 
L 95.981121 304.047308 
L 97.610913 304.020886 
L 99.240705 311.973967 
L 100.870497 309.598905 
L 102.500289 305.753007 
L 104.130081 308.292474 
L 105.759873 307.411734 
L 107.389665 304.428962 
L 109.019456 304.431898 
L 110.649248 305.071902 
L 112.27904 306.66017 
L 115.538624 305.888054 
L 117.168416 307.215036 
L 118.798208 306.798152 
L 120.428 308.785688 
L 122.057792 304.144189 
L 123.687584 304.889882 
L 125.317375 305.274472 
L 126.947167 306.730629 
L 128.576959 304.804744 
L 130.206751 303.457212 
L 131.836543 306.008422 
L 133.466335 305.145297 
L 135.096127 307.769902 
L 136.725919 308.559632 
L 138.355711 304.95447 
L 139.985502 304.901626 
L 141.615294 309.369913 
L 143.245086 301.090958 
L 144.874878 301.73977 
L 146.50467 302.740877 
L 149.764254 311.304604 
L 151.394046 308.691743 
L 153.023838 305.13649 
L 154.65363 304.540522 
L 156.283421 308.911928 
L 157.913213 305.582731 
L 159.543005 305.133554 
L 161.172797 310.11267 
L 162.802589 307.640727 
L 164.432381 302.682161 
L 166.062173 300.586 
L 167.691965 305.054287 
L 169.321757 307.197421 
L 170.951548 307.981279 
L 172.58134 310.153771 
L 174.211132 308.101647 
L 175.840924 304.725478 
L 177.470716 300.726919 
L 179.100508 302.779043 
L 180.7303 306.249158 
L 182.360092 308.342383 
L 183.989884 307.511551 
L 185.619676 306.9743 
L 187.249467 305.585667 
L 188.879259 301.780871 
L 190.509051 304.123639 
L 192.138843 304.25575 
L 193.768635 303.369138 
L 195.398427 309.595969 
L 197.028219 305.512272 
L 198.658011 308.271924 
L 200.287803 307.405863 
L 201.917594 307.250265 
L 203.547386 310.124413 
L 205.177178 309.226058 
L 206.80697 306.07301 
L 208.436762 309.179086 
L 211.696346 302.708583 
L 213.326138 308.189721 
L 214.95593 309.857255 
L 216.585722 307.332468 
L 218.215513 307.129897 
L 219.845305 305.993743 
L 221.475097 308.424585 
L 224.734681 303.630424 
L 226.364473 303.994464 
L 227.994265 308.371741 
L 229.624057 304.396668 
L 231.253849 305.19227 
L 232.88364 312.3703 
L 234.513432 312.995625 
L 236.143224 307.81981 
L 239.402808 301.716283 
L 241.0326 307.89027 
L 242.662392 307.681828 
L 244.292184 304.643275 
L 247.551768 312.634522 
L 249.181559 310.823133 
L 250.811351 303.169504 
L 252.441143 300.671138 
L 254.070935 307.391184 
L 255.700727 308.210272 
L 257.330519 308.389355 
L 258.960311 307.035952 
L 260.590103 304.285108 
L 262.219895 304.264557 
L 263.849686 302.453169 
L 265.479478 304.19997 
L 267.10927 302.688033 
L 268.739062 302.996292 
L 270.368854 308.459815 
L 271.998646 307.993023 
L 273.628438 304.505293 
L 275.25823 307.514487 
L 276.888022 312.408465 
L 278.517814 308.00183 
L 280.147605 308.122198 
L 283.407189 308.897249 
L 285.036981 308.368805 
L 286.666773 308.354126 
L 288.296565 305.726585 
L 289.926357 304.854653 
L 291.556149 307.097604 
L 293.185941 310.042211 
L 294.815732 306.131726 
L 296.445524 304.352631 
L 298.075316 304.763643 
L 299.705108 303.850609 
L 301.3349 306.175763 
L 302.964692 308.961836 
L 304.594484 308.506787 
L 306.224276 307.344211 
L 307.854068 310.602948 
L 309.48386 309.772117 
L 311.113651 304.939791 
L 312.743443 307.564396 
L 314.373235 307.957793 
L 316.003027 304.023822 
L 317.632819 301.499034 
L 319.262611 307.537974 
L 320.892403 308.732844 
L 322.522195 311.034511 
L 324.151987 307.699443 
L 325.781778 306.560352 
L 327.41157 309.572483 
L 329.041362 307.074117 
L 330.671154 307.74348 
L 332.300946 306.68072 
L 333.930738 302.770235 
L 335.56053 306.096496 
L 338.820114 305.021993 
L 340.449906 307.772838 
L 342.079697 306.759987 
L 343.709489 306.525123 
L 345.339281 303.37501 
L 346.969073 306.343103 
L 348.598865 305.732457 
L 350.228657 310.579462 
L 351.858449 312.3703 
L 353.488241 307.725865 
L 355.118033 307.194485 
L 356.747824 303.747856 
L 358.377616 304.155933 
L 360.007408 304.355567 
L 361.6372 303.695012 
L 363.266992 304.467127 
L 364.896784 306.316681 
L 366.526576 305.864568 
L 368.156368 311.016896 
L 369.78616 310.365149 
L 371.415952 310.373956 
L 373.045743 306.472278 
L 374.675535 304.317402 
L 376.305327 309.349362 
L 377.935119 305.412455 
L 379.564911 303.02565 
L 382.824495 309.725144 
L 384.454287 305.814659 
L 386.084079 304.035565 
L 387.71387 304.663826 
L 389.343662 306.272644 
L 390.973454 304.337952 
L 392.603246 302.673354 
L 394.233038 305.935027 
L 395.86283 309.992302 
L 399.122414 308.656513 
L 400.752206 305.808788 
L 402.381998 304.766579 
L 404.011789 310.649921 
L 405.641581 307.904949 
L 407.271373 301.763256 
L 408.901165 304.296851 
L 410.530957 309.137984 
L 412.160749 305.964385 
L 413.790541 308.189721 
L 415.420333 307.26788 
L 417.050125 309.132113 
L 418.679916 304.381989 
L 420.309708 301.686925 
L 421.9395 303.146017 
L 423.569292 307.038888 
L 425.199084 304.848781 
L 426.828876 303.865288 
L 428.458668 307.297238 
L 430.08846 305.036672 
L 431.718252 305.967321 
L 433.348044 305.717778 
L 434.977835 306.29613 
L 436.607627 304.699055 
L 438.237419 305.312638 
L 439.867211 306.316681 
L 441.497003 304.534651 
L 443.126795 307.813939 
L 444.756587 309.587162 
L 446.386379 306.36659 
L 448.016171 306.407691 
L 449.645962 309.352298 
L 451.275754 304.229328 
L 452.905546 303.146017 
L 454.535338 299.672967 
L 456.16513 302.056836 
L 457.794922 306.504572 
L 459.424714 307.508616 
L 461.054506 304.317402 
L 462.684298 300.671138 
L 464.31409 305.127682 
L 465.943881 305.165848 
L 467.573673 307.529166 
L 469.203465 308.26018 
L 470.833257 306.243286 
L 472.463049 307.658341 
L 474.092841 307.640727 
L 474.092841 307.640727 
" clip-path="url(#pd75dec344b)" style="fill: none; stroke-dasharray: 1.75,2.8875; stroke-dashoffset: 0; stroke: #9fc377; stroke-width: 1.75"/>
   </g>
   <g id="patch_3">
    <path d="M 47.98375 326.855625 
L 47.98375 21.935625 
" style="fill: none; stroke: #cccccc; stroke-width: 1.25; stroke-linejoin: miter; stroke-linecap: square"/>
   </g>
   <g id="patch_4">
    <path d="M 494.38375 326.855625 
L 494.38375 21.935625 
" style="fill: none; stroke: #cccccc; stroke-width: 1.25; stroke-linejoin: miter; stroke-linecap: square"/>
   </g>
   <g id="patch_5">
    <path d="M 47.98375 326.855625 
L 494.38375 326.855625 
" style="fill: none; stroke: #cccccc; stroke-width: 1.25; stroke-linejoin: miter; stroke-linecap: square"/>
   </g>
   <g id="patch_6">
    <path d="M 47.98375 21.935625 
L 494.38375 21.935625 
" style="fill: none; stroke: #cccccc; stroke-width: 1.25; stroke-linejoin: miter; stroke-linecap: square"/>
   </g>
   <g id="text_38">
    <!-- "Bending stiffness" for dataset Mouse_non_tata -->
    <g style="fill: #262626" transform="translate(144.957812 15.935625) scale(0.12 -0.12)">
     <defs>
      <path id="ArialMT-22" d="M 450 2959 
L 294 3831 
L 294 4581 
L 934 4581 
L 934 3831 
L 794 2959 
L 450 2959 
z
M 1484 2959 
L 1331 3831 
L 1331 4581 
L 1972 4581 
L 1972 3831 
L 1822 2959 
L 1484 2959 
z
" transform="scale(0.015625)"/>
      <path id="ArialMT-72" d="M 416 0 
L 416 3319 
L 922 3319 
L 922 2816 
Q 1116 3169 1280 3281 
Q 1444 3394 1641 3394 
Q 1925 3394 2219 3213 
L 2025 2691 
Q 1819 2813 1613 2813 
Q 1428 2813 1281 2702 
Q 1134 2591 1072 2394 
Q 978 2094 978 1738 
L 978 0 
L 416 0 
z
" transform="scale(0.015625)"/>
      <path id="ArialMT-61" d="M 2588 409 
Q 2275 144 1986 34 
Q 1697 -75 1366 -75 
Q 819 -75 525 192 
Q 231 459 231 875 
Q 231 1119 342 1320 
Q 453 1522 633 1644 
Q 813 1766 1038 1828 
Q 1203 1872 1538 1913 
Q 2219 1994 2541 2106 
Q 2544 2222 2544 2253 
Q 2544 2597 2384 2738 
Q 2169 2928 1744 2928 
Q 1347 2928 1158 2789 
Q 969 2650 878 2297 
L 328 2372 
Q 403 2725 575 2942 
Q 747 3159 1072 3276 
Q 1397 3394 1825 3394 
Q 2250 3394 2515 3294 
Q 2781 3194 2906 3042 
Q 3031 2891 3081 2659 
Q 3109 2516 3109 2141 
L 3109 1391 
Q 3109 606 3145 398 
Q 3181 191 3288 0 
L 2700 0 
Q 2613 175 2588 409 
z
M 2541 1666 
Q 2234 1541 1622 1453 
Q 1275 1403 1131 1340 
Q 988 1278 909 1158 
Q 831 1038 831 891 
Q 831 666 1001 516 
Q 1172 366 1500 366 
Q 1825 366 2078 508 
Q 2331 650 2450 897 
Q 2541 1088 2541 1459 
L 2541 1666 
z
" transform="scale(0.015625)"/>
      <path id="ArialMT-4d" d="M 475 0 
L 475 4581 
L 1388 4581 
L 2472 1338 
Q 2622 884 2691 659 
Q 2769 909 2934 1394 
L 4031 4581 
L 4847 4581 
L 4847 0 
L 4263 0 
L 4263 3834 
L 2931 0 
L 2384 0 
L 1059 3900 
L 1059 0 
L 475 0 
z
" transform="scale(0.015625)"/>
      <path id="ArialMT-75" d="M 2597 0 
L 2597 488 
Q 2209 -75 1544 -75 
Q 1250 -75 995 37 
Q 741 150 617 320 
Q 494 491 444 738 
Q 409 903 409 1263 
L 409 3319 
L 972 3319 
L 972 1478 
Q 972 1038 1006 884 
Q 1059 663 1231 536 
Q 1403 409 1656 409 
Q 1909 409 2131 539 
Q 2353 669 2445 892 
Q 2538 1116 2538 1541 
L 2538 3319 
L 3100 3319 
L 3100 0 
L 2597 0 
z
" transform="scale(0.015625)"/>
      <path id="ArialMT-5f" d="M -97 -1272 
L -97 -866 
L 3631 -866 
L 3631 -1272 
L -97 -1272 
z
" transform="scale(0.015625)"/>
     </defs>
     <use xlink:href="#ArialMT-22"/>
     <use xlink:href="#ArialMT-42" x="35.498047"/>
     <use xlink:href="#ArialMT-65" x="102.197266"/>
     <use xlink:href="#ArialMT-6e" x="157.8125"/>
     <use xlink:href="#ArialMT-64" x="213.427734"/>
     <use xlink:href="#ArialMT-69" x="269.042969"/>
     <use xlink:href="#ArialMT-6e" x="291.259766"/>
     <use xlink:href="#ArialMT-67" x="346.875"/>
     <use xlink:href="#ArialMT-20" x="402.490234"/>
     <use xlink:href="#ArialMT-73" x="430.273438"/>
     <use xlink:href="#ArialMT-74" x="480.273438"/>
     <use xlink:href="#ArialMT-69" x="508.056641"/>
     <use xlink:href="#ArialMT-66" x="530.273438"/>
     <use xlink:href="#ArialMT-66" x="556.306641"/>
     <use xlink:href="#ArialMT-6e" x="584.089844"/>
     <use xlink:href="#ArialMT-65" x="639.705078"/>
     <use xlink:href="#ArialMT-73" x="695.320312"/>
     <use xlink:href="#ArialMT-73" x="745.320312"/>
     <use xlink:href="#ArialMT-22" x="795.320312"/>
     <use xlink:href="#ArialMT-20" x="830.818359"/>
     <use xlink:href="#ArialMT-66" x="858.601562"/>
     <use xlink:href="#ArialMT-6f" x="886.384766"/>
     <use xlink:href="#ArialMT-72" x="942"/>
     <use xlink:href="#ArialMT-20" x="975.300781"/>
     <use xlink:href="#ArialMT-64" x="1003.083984"/>
     <use xlink:href="#ArialMT-61" x="1058.699219"/>
     <use xlink:href="#ArialMT-74" x="1114.314453"/>
     <use xlink:href="#ArialMT-61" x="1142.097656"/>
     <use xlink:href="#ArialMT-73" x="1197.712891"/>
     <use xlink:href="#ArialMT-65" x="1247.712891"/>
     <use xlink:href="#ArialMT-74" x="1303.328125"/>
     <use xlink:href="#ArialMT-20" x="1331.111328"/>
     <use xlink:href="#ArialMT-4d" x="1358.894531"/>
     <use xlink:href="#ArialMT-6f" x="1442.195312"/>
     <use xlink:href="#ArialMT-75" x="1497.810547"/>
     <use xlink:href="#ArialMT-73" x="1553.425781"/>
     <use xlink:href="#ArialMT-65" x="1603.425781"/>
     <use xlink:href="#ArialMT-5f" x="1659.041016"/>
     <use xlink:href="#ArialMT-6e" x="1714.65625"/>
     <use xlink:href="#ArialMT-6f" x="1770.271484"/>
     <use xlink:href="#ArialMT-6e" x="1825.886719"/>
     <use xlink:href="#ArialMT-5f" x="1881.501953"/>
     <use xlink:href="#ArialMT-74" x="1937.117188"/>
     <use xlink:href="#ArialMT-61" x="1964.900391"/>
     <use xlink:href="#ArialMT-74" x="2020.515625"/>
     <use xlink:href="#ArialMT-61" x="2048.298828"/>
    </g>
   </g>
   <g id="legend_1">
    <g id="line2d_38">
     <path d="M 56.98375 34.593437 
L 66.98375 34.593437 
L 76.98375 34.593437 
" style="fill: none; stroke: #0272a2; stroke-width: 1.75; stroke-linecap: round"/>
    </g>
    <g id="text_39">
     <!-- Promoter -->
     <g style="fill: #262626" transform="translate(84.98375 38.093437) scale(0.1 -0.1)">
      <defs>
       <path id="ArialMT-6d" d="M 422 0 
L 422 3319 
L 925 3319 
L 925 2853 
Q 1081 3097 1340 3245 
Q 1600 3394 1931 3394 
Q 2300 3394 2536 3241 
Q 2772 3088 2869 2813 
Q 3263 3394 3894 3394 
Q 4388 3394 4653 3120 
Q 4919 2847 4919 2278 
L 4919 0 
L 4359 0 
L 4359 2091 
Q 4359 2428 4304 2576 
Q 4250 2725 4106 2815 
Q 3963 2906 3769 2906 
Q 3419 2906 3187 2673 
Q 2956 2441 2956 1928 
L 2956 0 
L 2394 0 
L 2394 2156 
Q 2394 2531 2256 2718 
Q 2119 2906 1806 2906 
Q 1569 2906 1367 2781 
Q 1166 2656 1075 2415 
Q 984 2175 984 1722 
L 984 0 
L 422 0 
z
" transform="scale(0.015625)"/>
      </defs>
      <use xlink:href="#ArialMT-50"/>
      <use xlink:href="#ArialMT-72" x="66.699219"/>
      <use xlink:href="#ArialMT-6f" x="100"/>
      <use xlink:href="#ArialMT-6d" x="155.615234"/>
      <use xlink:href="#ArialMT-6f" x="238.916016"/>
      <use xlink:href="#ArialMT-74" x="294.53125"/>
      <use xlink:href="#ArialMT-65" x="322.314453"/>
      <use xlink:href="#ArialMT-72" x="377.929688"/>
     </g>
    </g>
    <g id="line2d_39">
     <path d="M 56.98375 48.73875 
L 66.98375 48.73875 
L 76.98375 48.73875 
" style="fill: none; stroke-dasharray: 1.75,2.8875; stroke-dashoffset: 0; stroke: #9fc377; stroke-width: 1.75"/>
    </g>
    <g id="text_40">
     <!-- Non-promoter -->
     <g style="fill: #262626" transform="translate(84.98375 52.23875) scale(0.1 -0.1)">
      <defs>
       <path id="ArialMT-4e" d="M 488 0 
L 488 4581 
L 1109 4581 
L 3516 984 
L 3516 4581 
L 4097 4581 
L 4097 0 
L 3475 0 
L 1069 3600 
L 1069 0 
L 488 0 
z
" transform="scale(0.015625)"/>
       <path id="ArialMT-70" d="M 422 -1272 
L 422 3319 
L 934 3319 
L 934 2888 
Q 1116 3141 1344 3267 
Q 1572 3394 1897 3394 
Q 2322 3394 2647 3175 
Q 2972 2956 3137 2557 
Q 3303 2159 3303 1684 
Q 3303 1175 3120 767 
Q 2938 359 2589 142 
Q 2241 -75 1856 -75 
Q 1575 -75 1351 44 
Q 1128 163 984 344 
L 984 -1272 
L 422 -1272 
z
M 931 1641 
Q 931 1000 1190 694 
Q 1450 388 1819 388 
Q 2194 388 2461 705 
Q 2728 1022 2728 1688 
Q 2728 2322 2467 2637 
Q 2206 2953 1844 2953 
Q 1484 2953 1207 2617 
Q 931 2281 931 1641 
z
" transform="scale(0.015625)"/>
      </defs>
      <use xlink:href="#ArialMT-4e"/>
      <use xlink:href="#ArialMT-6f" x="72.216797"/>
      <use xlink:href="#ArialMT-6e" x="127.832031"/>
      <use xlink:href="#ArialMT-2d" x="183.447266"/>
      <use xlink:href="#ArialMT-70" x="216.748047"/>
      <use xlink:href="#ArialMT-72" x="272.363281"/>
      <use xlink:href="#ArialMT-6f" x="305.664062"/>
      <use xlink:href="#ArialMT-6d" x="361.279297"/>
      <use xlink:href="#ArialMT-6f" x="444.580078"/>
      <use xlink:href="#ArialMT-74" x="500.195312"/>
      <use xlink:href="#ArialMT-65" x="527.978516"/>
      <use xlink:href="#ArialMT-72" x="583.59375"/>
     </g>
    </g>
   </g>
  </g>
 </g>
 <defs>
  <clipPath id="pd75dec344b">
   <rect x="47.98375" y="21.935625" width="446.4" height="304.92"/>
  </clipPath>
 </defs>
</svg>
