<?xml version="1.0" encoding="utf-8" standalone="no"?>
<!DOCTYPE svg PUBLIC "-//W3C//DTD SVG 1.1//EN"
  "http://www.w3.org/Graphics/SVG/1.1/DTD/svg11.dtd">
<svg xmlns:xlink="http://www.w3.org/1999/xlink" width="507.161406pt" height="375.733156pt" viewBox="0 0 507.161406 375.733156" xmlns="http://www.w3.org/2000/svg" version="1.1">
 <metadata>
  <rdf:RDF xmlns:dc="http://purl.org/dc/elements/1.1/" xmlns:cc="http://creativecommons.org/ns#" xmlns:rdf="http://www.w3.org/1999/02/22-rdf-syntax-ns#">
   <cc:Work>
    <dc:type rdf:resource="http://purl.org/dc/dcmitype/StillImage"/>
    <dc:date>2023-05-11T16:25:35.734259</dc:date>
    <dc:format>image/svg+xml</dc:format>
    <dc:creator>
     <cc:Agent>
      <dc:title>Matplotlib v3.7.1, https://matplotlib.org/</dc:title>
     </cc:Agent>
    </dc:creator>
   </cc:Work>
  </rdf:RDF>
 </metadata>
 <defs>
  <style type="text/css">*{stroke-linejoin: round; stroke-linecap: butt}</style>
 </defs>
 <g id="figure_1">
  <g id="patch_1">
   <path d="M 0 375.733156 
L 507.161406 375.733156 
L 507.161406 0 
L 0 0 
z
" style="fill: #ffffff"/>
  </g>
  <g id="axes_1">
   <g id="patch_2">
    <path d="M 53.561406 326.855625 
L 499.961406 326.855625 
L 499.961406 21.935625 
L 53.561406 21.935625 
z
" style="fill: #ffffff"/>
   </g>
   <g id="matplotlib.axis_1">
    <g id="xtick_1">
     <g id="line2d_1"/>
     <g id="text_1">
      <!-- -200 -->
      <g style="fill: #262626" transform="translate(68.60481 353.067937) rotate(-45) scale(0.1 -0.1)">
       <defs>
        <path id="ArialMT-2d" d="M 203 1375 
L 203 1941 
L 1931 1941 
L 1931 1375 
L 203 1375 
z
" transform="scale(0.015625)"/>
        <path id="ArialMT-32" d="M 3222 541 
L 3222 0 
L 194 0 
Q 188 203 259 391 
Q 375 700 629 1000 
Q 884 1300 1366 1694 
Q 2113 2306 2375 2664 
Q 2638 3022 2638 3341 
Q 2638 3675 2398 3904 
Q 2159 4134 1775 4134 
Q 1369 4134 1125 3890 
Q 881 3647 878 3216 
L 300 3275 
Q 359 3922 746 4261 
Q 1134 4600 1788 4600 
Q 2447 4600 2831 4234 
Q 3216 3869 3216 3328 
Q 3216 3053 3103 2787 
Q 2991 2522 2730 2228 
Q 2469 1934 1863 1422 
Q 1356 997 1212 845 
Q 1069 694 975 541 
L 3222 541 
z
" transform="scale(0.015625)"/>
        <path id="ArialMT-30" d="M 266 2259 
Q 266 3072 433 3567 
Q 600 4063 929 4331 
Q 1259 4600 1759 4600 
Q 2128 4600 2406 4451 
Q 2684 4303 2865 4023 
Q 3047 3744 3150 3342 
Q 3253 2941 3253 2259 
Q 3253 1453 3087 958 
Q 2922 463 2592 192 
Q 2263 -78 1759 -78 
Q 1097 -78 719 397 
Q 266 969 266 2259 
z
M 844 2259 
Q 844 1131 1108 757 
Q 1372 384 1759 384 
Q 2147 384 2411 759 
Q 2675 1134 2675 2259 
Q 2675 3391 2411 3762 
Q 2147 4134 1753 4134 
Q 1366 4134 1134 3806 
Q 844 3388 844 2259 
z
" transform="scale(0.015625)"/>
       </defs>
       <use xlink:href="#ArialMT-2d"/>
       <use xlink:href="#ArialMT-32" x="33.300781"/>
       <use xlink:href="#ArialMT-30" x="88.916016"/>
       <use xlink:href="#ArialMT-30" x="144.53125"/>
      </g>
     </g>
    </g>
    <g id="xtick_2">
     <g id="line2d_2"/>
     <g id="text_2">
      <!-- -190 -->
      <g style="fill: #262626" transform="translate(84.902729 353.067937) rotate(-45) scale(0.1 -0.1)">
       <defs>
        <path id="ArialMT-31" d="M 2384 0 
L 1822 0 
L 1822 3584 
Q 1619 3391 1289 3197 
Q 959 3003 697 2906 
L 697 3450 
Q 1169 3672 1522 3987 
Q 1875 4303 2022 4600 
L 2384 4600 
L 2384 0 
z
" transform="scale(0.015625)"/>
        <path id="ArialMT-39" d="M 350 1059 
L 891 1109 
Q 959 728 1153 556 
Q 1347 384 1650 384 
Q 1909 384 2104 503 
Q 2300 622 2425 820 
Q 2550 1019 2634 1356 
Q 2719 1694 2719 2044 
Q 2719 2081 2716 2156 
Q 2547 1888 2255 1720 
Q 1963 1553 1622 1553 
Q 1053 1553 659 1965 
Q 266 2378 266 3053 
Q 266 3750 677 4175 
Q 1088 4600 1706 4600 
Q 2153 4600 2523 4359 
Q 2894 4119 3086 3673 
Q 3278 3228 3278 2384 
Q 3278 1506 3087 986 
Q 2897 466 2520 194 
Q 2144 -78 1638 -78 
Q 1100 -78 759 220 
Q 419 519 350 1059 
z
M 2653 3081 
Q 2653 3566 2395 3850 
Q 2138 4134 1775 4134 
Q 1400 4134 1122 3828 
Q 844 3522 844 3034 
Q 844 2597 1108 2323 
Q 1372 2050 1759 2050 
Q 2150 2050 2401 2323 
Q 2653 2597 2653 3081 
z
" transform="scale(0.015625)"/>
       </defs>
       <use xlink:href="#ArialMT-2d"/>
       <use xlink:href="#ArialMT-31" x="33.300781"/>
       <use xlink:href="#ArialMT-39" x="88.916016"/>
       <use xlink:href="#ArialMT-30" x="144.53125"/>
      </g>
     </g>
    </g>
    <g id="xtick_3">
     <g id="line2d_3"/>
     <g id="text_3">
      <!-- -180 -->
      <g style="fill: #262626" transform="translate(101.200648 353.067937) rotate(-45) scale(0.1 -0.1)">
       <defs>
        <path id="ArialMT-38" d="M 1131 2484 
Q 781 2613 612 2850 
Q 444 3088 444 3419 
Q 444 3919 803 4259 
Q 1163 4600 1759 4600 
Q 2359 4600 2725 4251 
Q 3091 3903 3091 3403 
Q 3091 3084 2923 2848 
Q 2756 2613 2416 2484 
Q 2838 2347 3058 2040 
Q 3278 1734 3278 1309 
Q 3278 722 2862 322 
Q 2447 -78 1769 -78 
Q 1091 -78 675 323 
Q 259 725 259 1325 
Q 259 1772 486 2073 
Q 713 2375 1131 2484 
z
M 1019 3438 
Q 1019 3113 1228 2906 
Q 1438 2700 1772 2700 
Q 2097 2700 2305 2904 
Q 2513 3109 2513 3406 
Q 2513 3716 2298 3927 
Q 2084 4138 1766 4138 
Q 1444 4138 1231 3931 
Q 1019 3725 1019 3438 
z
M 838 1322 
Q 838 1081 952 856 
Q 1066 631 1291 507 
Q 1516 384 1775 384 
Q 2178 384 2440 643 
Q 2703 903 2703 1303 
Q 2703 1709 2433 1975 
Q 2163 2241 1756 2241 
Q 1359 2241 1098 1978 
Q 838 1716 838 1322 
z
" transform="scale(0.015625)"/>
       </defs>
       <use xlink:href="#ArialMT-2d"/>
       <use xlink:href="#ArialMT-31" x="33.300781"/>
       <use xlink:href="#ArialMT-38" x="88.916016"/>
       <use xlink:href="#ArialMT-30" x="144.53125"/>
      </g>
     </g>
    </g>
    <g id="xtick_4">
     <g id="line2d_4"/>
     <g id="text_4">
      <!-- -170 -->
      <g style="fill: #262626" transform="translate(117.498566 353.067937) rotate(-45) scale(0.1 -0.1)">
       <defs>
        <path id="ArialMT-37" d="M 303 3981 
L 303 4522 
L 3269 4522 
L 3269 4084 
Q 2831 3619 2401 2847 
Q 1972 2075 1738 1259 
Q 1569 684 1522 0 
L 944 0 
Q 953 541 1156 1306 
Q 1359 2072 1739 2783 
Q 2119 3494 2547 3981 
L 303 3981 
z
" transform="scale(0.015625)"/>
       </defs>
       <use xlink:href="#ArialMT-2d"/>
       <use xlink:href="#ArialMT-31" x="33.300781"/>
       <use xlink:href="#ArialMT-37" x="88.916016"/>
       <use xlink:href="#ArialMT-30" x="144.53125"/>
      </g>
     </g>
    </g>
    <g id="xtick_5">
     <g id="line2d_5"/>
     <g id="text_5">
      <!-- -160 -->
      <g style="fill: #262626" transform="translate(133.796485 353.067937) rotate(-45) scale(0.1 -0.1)">
       <defs>
        <path id="ArialMT-36" d="M 3184 3459 
L 2625 3416 
Q 2550 3747 2413 3897 
Q 2184 4138 1850 4138 
Q 1581 4138 1378 3988 
Q 1113 3794 959 3422 
Q 806 3050 800 2363 
Q 1003 2672 1297 2822 
Q 1591 2972 1913 2972 
Q 2475 2972 2870 2558 
Q 3266 2144 3266 1488 
Q 3266 1056 3080 686 
Q 2894 316 2569 119 
Q 2244 -78 1831 -78 
Q 1128 -78 684 439 
Q 241 956 241 2144 
Q 241 3472 731 4075 
Q 1159 4600 1884 4600 
Q 2425 4600 2770 4297 
Q 3116 3994 3184 3459 
z
M 888 1484 
Q 888 1194 1011 928 
Q 1134 663 1356 523 
Q 1578 384 1822 384 
Q 2178 384 2434 671 
Q 2691 959 2691 1453 
Q 2691 1928 2437 2201 
Q 2184 2475 1800 2475 
Q 1419 2475 1153 2201 
Q 888 1928 888 1484 
z
" transform="scale(0.015625)"/>
       </defs>
       <use xlink:href="#ArialMT-2d"/>
       <use xlink:href="#ArialMT-31" x="33.300781"/>
       <use xlink:href="#ArialMT-36" x="88.916016"/>
       <use xlink:href="#ArialMT-30" x="144.53125"/>
      </g>
     </g>
    </g>
    <g id="xtick_6">
     <g id="line2d_6"/>
     <g id="text_6">
      <!-- -150 -->
      <g style="fill: #262626" transform="translate(150.094404 353.067937) rotate(-45) scale(0.1 -0.1)">
       <defs>
        <path id="ArialMT-35" d="M 266 1200 
L 856 1250 
Q 922 819 1161 601 
Q 1400 384 1738 384 
Q 2144 384 2425 690 
Q 2706 997 2706 1503 
Q 2706 1984 2436 2262 
Q 2166 2541 1728 2541 
Q 1456 2541 1237 2417 
Q 1019 2294 894 2097 
L 366 2166 
L 809 4519 
L 3088 4519 
L 3088 3981 
L 1259 3981 
L 1013 2750 
Q 1425 3038 1878 3038 
Q 2478 3038 2890 2622 
Q 3303 2206 3303 1553 
Q 3303 931 2941 478 
Q 2500 -78 1738 -78 
Q 1113 -78 717 272 
Q 322 622 266 1200 
z
" transform="scale(0.015625)"/>
       </defs>
       <use xlink:href="#ArialMT-2d"/>
       <use xlink:href="#ArialMT-31" x="33.300781"/>
       <use xlink:href="#ArialMT-35" x="88.916016"/>
       <use xlink:href="#ArialMT-30" x="144.53125"/>
      </g>
     </g>
    </g>
    <g id="xtick_7">
     <g id="line2d_7"/>
     <g id="text_7">
      <!-- -140 -->
      <g style="fill: #262626" transform="translate(166.392323 353.067937) rotate(-45) scale(0.1 -0.1)">
       <defs>
        <path id="ArialMT-34" d="M 2069 0 
L 2069 1097 
L 81 1097 
L 81 1613 
L 2172 4581 
L 2631 4581 
L 2631 1613 
L 3250 1613 
L 3250 1097 
L 2631 1097 
L 2631 0 
L 2069 0 
z
M 2069 1613 
L 2069 3678 
L 634 1613 
L 2069 1613 
z
" transform="scale(0.015625)"/>
       </defs>
       <use xlink:href="#ArialMT-2d"/>
       <use xlink:href="#ArialMT-31" x="33.300781"/>
       <use xlink:href="#ArialMT-34" x="88.916016"/>
       <use xlink:href="#ArialMT-30" x="144.53125"/>
      </g>
     </g>
    </g>
    <g id="xtick_8">
     <g id="line2d_8"/>
     <g id="text_8">
      <!-- -130 -->
      <g style="fill: #262626" transform="translate(182.690242 353.067937) rotate(-45) scale(0.1 -0.1)">
       <defs>
        <path id="ArialMT-33" d="M 269 1209 
L 831 1284 
Q 928 806 1161 595 
Q 1394 384 1728 384 
Q 2125 384 2398 659 
Q 2672 934 2672 1341 
Q 2672 1728 2419 1979 
Q 2166 2231 1775 2231 
Q 1616 2231 1378 2169 
L 1441 2663 
Q 1497 2656 1531 2656 
Q 1891 2656 2178 2843 
Q 2466 3031 2466 3422 
Q 2466 3731 2256 3934 
Q 2047 4138 1716 4138 
Q 1388 4138 1169 3931 
Q 950 3725 888 3313 
L 325 3413 
Q 428 3978 793 4289 
Q 1159 4600 1703 4600 
Q 2078 4600 2393 4439 
Q 2709 4278 2876 4000 
Q 3044 3722 3044 3409 
Q 3044 3113 2884 2869 
Q 2725 2625 2413 2481 
Q 2819 2388 3044 2092 
Q 3269 1797 3269 1353 
Q 3269 753 2831 336 
Q 2394 -81 1725 -81 
Q 1122 -81 723 278 
Q 325 638 269 1209 
z
" transform="scale(0.015625)"/>
       </defs>
       <use xlink:href="#ArialMT-2d"/>
       <use xlink:href="#ArialMT-31" x="33.300781"/>
       <use xlink:href="#ArialMT-33" x="88.916016"/>
       <use xlink:href="#ArialMT-30" x="144.53125"/>
      </g>
     </g>
    </g>
    <g id="xtick_9">
     <g id="line2d_9"/>
     <g id="text_9">
      <!-- -120 -->
      <g style="fill: #262626" transform="translate(198.988161 353.067937) rotate(-45) scale(0.1 -0.1)">
       <use xlink:href="#ArialMT-2d"/>
       <use xlink:href="#ArialMT-31" x="33.300781"/>
       <use xlink:href="#ArialMT-32" x="88.916016"/>
       <use xlink:href="#ArialMT-30" x="144.53125"/>
      </g>
     </g>
    </g>
    <g id="xtick_10">
     <g id="line2d_10"/>
     <g id="text_10">
      <!-- -110 -->
      <g style="fill: #262626" transform="translate(215.546826 352.546446) rotate(-45) scale(0.1 -0.1)">
       <use xlink:href="#ArialMT-2d"/>
       <use xlink:href="#ArialMT-31" x="33.300781"/>
       <use xlink:href="#ArialMT-31" x="81.541016"/>
       <use xlink:href="#ArialMT-30" x="137.15625"/>
      </g>
     </g>
    </g>
    <g id="xtick_11">
     <g id="line2d_11"/>
     <g id="text_11">
      <!-- -100 -->
      <g style="fill: #262626" transform="translate(231.583999 353.067937) rotate(-45) scale(0.1 -0.1)">
       <use xlink:href="#ArialMT-2d"/>
       <use xlink:href="#ArialMT-31" x="33.300781"/>
       <use xlink:href="#ArialMT-30" x="88.916016"/>
       <use xlink:href="#ArialMT-30" x="144.53125"/>
      </g>
     </g>
    </g>
    <g id="xtick_12">
     <g id="line2d_12"/>
     <g id="text_12">
      <!-- -90 -->
      <g style="fill: #262626" transform="translate(249.848006 349.135761) rotate(-45) scale(0.1 -0.1)">
       <use xlink:href="#ArialMT-2d"/>
       <use xlink:href="#ArialMT-39" x="33.300781"/>
       <use xlink:href="#ArialMT-30" x="88.916016"/>
      </g>
     </g>
    </g>
    <g id="xtick_13">
     <g id="line2d_13"/>
     <g id="text_13">
      <!-- -80 -->
      <g style="fill: #262626" transform="translate(266.145925 349.135761) rotate(-45) scale(0.1 -0.1)">
       <use xlink:href="#ArialMT-2d"/>
       <use xlink:href="#ArialMT-38" x="33.300781"/>
       <use xlink:href="#ArialMT-30" x="88.916016"/>
      </g>
     </g>
    </g>
    <g id="xtick_14">
     <g id="line2d_14"/>
     <g id="text_14">
      <!-- -70 -->
      <g style="fill: #262626" transform="translate(282.443844 349.135761) rotate(-45) scale(0.1 -0.1)">
       <use xlink:href="#ArialMT-2d"/>
       <use xlink:href="#ArialMT-37" x="33.300781"/>
       <use xlink:href="#ArialMT-30" x="88.916016"/>
      </g>
     </g>
    </g>
    <g id="xtick_15">
     <g id="line2d_15"/>
     <g id="text_15">
      <!-- -60 -->
      <g style="fill: #262626" transform="translate(298.741763 349.135761) rotate(-45) scale(0.1 -0.1)">
       <use xlink:href="#ArialMT-2d"/>
       <use xlink:href="#ArialMT-36" x="33.300781"/>
       <use xlink:href="#ArialMT-30" x="88.916016"/>
      </g>
     </g>
    </g>
    <g id="xtick_16">
     <g id="line2d_16"/>
     <g id="text_16">
      <!-- -50 -->
      <g style="fill: #262626" transform="translate(315.039682 349.135761) rotate(-45) scale(0.1 -0.1)">
       <use xlink:href="#ArialMT-2d"/>
       <use xlink:href="#ArialMT-35" x="33.300781"/>
       <use xlink:href="#ArialMT-30" x="88.916016"/>
      </g>
     </g>
    </g>
    <g id="xtick_17">
     <g id="line2d_17"/>
     <g id="text_17">
      <!-- -40 -->
      <g style="fill: #262626" transform="translate(331.337601 349.135761) rotate(-45) scale(0.1 -0.1)">
       <use xlink:href="#ArialMT-2d"/>
       <use xlink:href="#ArialMT-34" x="33.300781"/>
       <use xlink:href="#ArialMT-30" x="88.916016"/>
      </g>
     </g>
    </g>
    <g id="xtick_18">
     <g id="line2d_18"/>
     <g id="text_18">
      <!-- -30 -->
      <g style="fill: #262626" transform="translate(347.63552 349.135761) rotate(-45) scale(0.1 -0.1)">
       <use xlink:href="#ArialMT-2d"/>
       <use xlink:href="#ArialMT-33" x="33.300781"/>
       <use xlink:href="#ArialMT-30" x="88.916016"/>
      </g>
     </g>
    </g>
    <g id="xtick_19">
     <g id="line2d_19"/>
     <g id="text_19">
      <!-- -20 -->
      <g style="fill: #262626" transform="translate(363.933439 349.135761) rotate(-45) scale(0.1 -0.1)">
       <use xlink:href="#ArialMT-2d"/>
       <use xlink:href="#ArialMT-32" x="33.300781"/>
       <use xlink:href="#ArialMT-30" x="88.916016"/>
      </g>
     </g>
    </g>
    <g id="xtick_20">
     <g id="line2d_20"/>
     <g id="text_20">
      <!-- -10 -->
      <g style="fill: #262626" transform="translate(380.231358 349.135761) rotate(-45) scale(0.1 -0.1)">
       <use xlink:href="#ArialMT-2d"/>
       <use xlink:href="#ArialMT-31" x="33.300781"/>
       <use xlink:href="#ArialMT-30" x="88.916016"/>
      </g>
     </g>
    </g>
    <g id="xtick_21">
     <g id="line2d_21"/>
     <g id="text_21">
      <!-- 0 -->
      <g style="fill: #262626" transform="translate(399.672588 342.849139) rotate(-45) scale(0.1 -0.1)">
       <use xlink:href="#ArialMT-30"/>
      </g>
     </g>
    </g>
    <g id="xtick_22">
     <g id="line2d_22"/>
     <g id="text_22">
      <!-- 10 -->
      <g style="fill: #262626" transform="translate(414.004418 346.781316) rotate(-45) scale(0.1 -0.1)">
       <use xlink:href="#ArialMT-31"/>
       <use xlink:href="#ArialMT-30" x="55.615234"/>
      </g>
     </g>
    </g>
    <g id="xtick_23">
     <g id="line2d_23"/>
     <g id="text_23">
      <!-- 20 -->
      <g style="fill: #262626" transform="translate(430.302337 346.781316) rotate(-45) scale(0.1 -0.1)">
       <use xlink:href="#ArialMT-32"/>
       <use xlink:href="#ArialMT-30" x="55.615234"/>
      </g>
     </g>
    </g>
    <g id="xtick_24">
     <g id="line2d_24"/>
     <g id="text_24">
      <!-- 30 -->
      <g style="fill: #262626" transform="translate(446.600256 346.781316) rotate(-45) scale(0.1 -0.1)">
       <use xlink:href="#ArialMT-33"/>
       <use xlink:href="#ArialMT-30" x="55.615234"/>
      </g>
     </g>
    </g>
    <g id="xtick_25">
     <g id="line2d_25"/>
     <g id="text_25">
      <!-- 40 -->
      <g style="fill: #262626" transform="translate(462.898175 346.781316) rotate(-45) scale(0.1 -0.1)">
       <use xlink:href="#ArialMT-34"/>
       <use xlink:href="#ArialMT-30" x="55.615234"/>
      </g>
     </g>
    </g>
    <g id="xtick_26">
     <g id="line2d_26"/>
     <g id="text_26">
      <!-- 50 -->
      <g style="fill: #262626" transform="translate(479.196094 346.781316) rotate(-45) scale(0.1 -0.1)">
       <use xlink:href="#ArialMT-35"/>
       <use xlink:href="#ArialMT-30" x="55.615234"/>
      </g>
     </g>
    </g>
    <g id="text_27">
     <!-- Position -->
     <g style="fill: #262626" transform="translate(257.195156 366.346906) scale(0.11 -0.11)">
      <defs>
       <path id="ArialMT-50" d="M 494 0 
L 494 4581 
L 2222 4581 
Q 2678 4581 2919 4538 
Q 3256 4481 3484 4323 
Q 3713 4166 3852 3881 
Q 3991 3597 3991 3256 
Q 3991 2672 3619 2267 
Q 3247 1863 2275 1863 
L 1100 1863 
L 1100 0 
L 494 0 
z
M 1100 2403 
L 2284 2403 
Q 2872 2403 3119 2622 
Q 3366 2841 3366 3238 
Q 3366 3525 3220 3729 
Q 3075 3934 2838 4000 
Q 2684 4041 2272 4041 
L 1100 4041 
L 1100 2403 
z
" transform="scale(0.015625)"/>
       <path id="ArialMT-6f" d="M 213 1659 
Q 213 2581 725 3025 
Q 1153 3394 1769 3394 
Q 2453 3394 2887 2945 
Q 3322 2497 3322 1706 
Q 3322 1066 3130 698 
Q 2938 331 2570 128 
Q 2203 -75 1769 -75 
Q 1072 -75 642 372 
Q 213 819 213 1659 
z
M 791 1659 
Q 791 1022 1069 705 
Q 1347 388 1769 388 
Q 2188 388 2466 706 
Q 2744 1025 2744 1678 
Q 2744 2294 2464 2611 
Q 2184 2928 1769 2928 
Q 1347 2928 1069 2612 
Q 791 2297 791 1659 
z
" transform="scale(0.015625)"/>
       <path id="ArialMT-73" d="M 197 991 
L 753 1078 
Q 800 744 1014 566 
Q 1228 388 1613 388 
Q 2000 388 2187 545 
Q 2375 703 2375 916 
Q 2375 1106 2209 1216 
Q 2094 1291 1634 1406 
Q 1016 1563 777 1677 
Q 538 1791 414 1992 
Q 291 2194 291 2438 
Q 291 2659 392 2848 
Q 494 3038 669 3163 
Q 800 3259 1026 3326 
Q 1253 3394 1513 3394 
Q 1903 3394 2198 3281 
Q 2494 3169 2634 2976 
Q 2775 2784 2828 2463 
L 2278 2388 
Q 2241 2644 2061 2787 
Q 1881 2931 1553 2931 
Q 1166 2931 1000 2803 
Q 834 2675 834 2503 
Q 834 2394 903 2306 
Q 972 2216 1119 2156 
Q 1203 2125 1616 2013 
Q 2213 1853 2448 1751 
Q 2684 1650 2818 1456 
Q 2953 1263 2953 975 
Q 2953 694 2789 445 
Q 2625 197 2315 61 
Q 2006 -75 1616 -75 
Q 969 -75 630 194 
Q 291 463 197 991 
z
" transform="scale(0.015625)"/>
       <path id="ArialMT-69" d="M 425 3934 
L 425 4581 
L 988 4581 
L 988 3934 
L 425 3934 
z
M 425 0 
L 425 3319 
L 988 3319 
L 988 0 
L 425 0 
z
" transform="scale(0.015625)"/>
       <path id="ArialMT-74" d="M 1650 503 
L 1731 6 
Q 1494 -44 1306 -44 
Q 1000 -44 831 53 
Q 663 150 594 308 
Q 525 466 525 972 
L 525 2881 
L 113 2881 
L 113 3319 
L 525 3319 
L 525 4141 
L 1084 4478 
L 1084 3319 
L 1650 3319 
L 1650 2881 
L 1084 2881 
L 1084 941 
Q 1084 700 1114 631 
Q 1144 563 1211 522 
Q 1278 481 1403 481 
Q 1497 481 1650 503 
z
" transform="scale(0.015625)"/>
       <path id="ArialMT-6e" d="M 422 0 
L 422 3319 
L 928 3319 
L 928 2847 
Q 1294 3394 1984 3394 
Q 2284 3394 2536 3286 
Q 2788 3178 2913 3003 
Q 3038 2828 3088 2588 
Q 3119 2431 3119 2041 
L 3119 0 
L 2556 0 
L 2556 2019 
Q 2556 2363 2490 2533 
Q 2425 2703 2258 2804 
Q 2091 2906 1866 2906 
Q 1506 2906 1245 2678 
Q 984 2450 984 1813 
L 984 0 
L 422 0 
z
" transform="scale(0.015625)"/>
      </defs>
      <use xlink:href="#ArialMT-50"/>
      <use xlink:href="#ArialMT-6f" x="66.699219"/>
      <use xlink:href="#ArialMT-73" x="122.314453"/>
      <use xlink:href="#ArialMT-69" x="172.314453"/>
      <use xlink:href="#ArialMT-74" x="194.53125"/>
      <use xlink:href="#ArialMT-69" x="222.314453"/>
      <use xlink:href="#ArialMT-6f" x="244.53125"/>
      <use xlink:href="#ArialMT-6e" x="300.146484"/>
     </g>
    </g>
   </g>
   <g id="matplotlib.axis_2">
    <g id="ytick_1">
     <g id="line2d_27"/>
     <g id="text_28">
      <!-- −13.0 -->
      <g style="fill: #262626" transform="translate(21.259844 293.375669) scale(0.1 -0.1)">
       <defs>
        <path id="ArialMT-2212" d="M 3381 1997 
L 356 1997 
L 356 2522 
L 3381 2522 
L 3381 1997 
z
" transform="scale(0.015625)"/>
        <path id="ArialMT-2e" d="M 581 0 
L 581 641 
L 1222 641 
L 1222 0 
L 581 0 
z
" transform="scale(0.015625)"/>
       </defs>
       <use xlink:href="#ArialMT-2212"/>
       <use xlink:href="#ArialMT-31" x="58.398438"/>
       <use xlink:href="#ArialMT-33" x="114.013672"/>
       <use xlink:href="#ArialMT-2e" x="169.628906"/>
       <use xlink:href="#ArialMT-30" x="197.412109"/>
      </g>
     </g>
    </g>
    <g id="ytick_2">
     <g id="line2d_28"/>
     <g id="text_29">
      <!-- −12.5 -->
      <g style="fill: #262626" transform="translate(21.259844 247.368873) scale(0.1 -0.1)">
       <use xlink:href="#ArialMT-2212"/>
       <use xlink:href="#ArialMT-31" x="58.398438"/>
       <use xlink:href="#ArialMT-32" x="114.013672"/>
       <use xlink:href="#ArialMT-2e" x="169.628906"/>
       <use xlink:href="#ArialMT-35" x="197.412109"/>
      </g>
     </g>
    </g>
    <g id="ytick_3">
     <g id="line2d_29"/>
     <g id="text_30">
      <!-- −12.0 -->
      <g style="fill: #262626" transform="translate(21.259844 201.362077) scale(0.1 -0.1)">
       <use xlink:href="#ArialMT-2212"/>
       <use xlink:href="#ArialMT-31" x="58.398438"/>
       <use xlink:href="#ArialMT-32" x="114.013672"/>
       <use xlink:href="#ArialMT-2e" x="169.628906"/>
       <use xlink:href="#ArialMT-30" x="197.412109"/>
      </g>
     </g>
    </g>
    <g id="ytick_4">
     <g id="line2d_30"/>
     <g id="text_31">
      <!-- −11.5 -->
      <g style="fill: #262626" transform="translate(21.997344 155.355281) scale(0.1 -0.1)">
       <use xlink:href="#ArialMT-2212"/>
       <use xlink:href="#ArialMT-31" x="58.398438"/>
       <use xlink:href="#ArialMT-31" x="106.638672"/>
       <use xlink:href="#ArialMT-2e" x="162.253906"/>
       <use xlink:href="#ArialMT-35" x="190.037109"/>
      </g>
     </g>
    </g>
    <g id="ytick_5">
     <g id="line2d_31"/>
     <g id="text_32">
      <!-- −11.0 -->
      <g style="fill: #262626" transform="translate(21.997344 109.348486) scale(0.1 -0.1)">
       <use xlink:href="#ArialMT-2212"/>
       <use xlink:href="#ArialMT-31" x="58.398438"/>
       <use xlink:href="#ArialMT-31" x="106.638672"/>
       <use xlink:href="#ArialMT-2e" x="162.253906"/>
       <use xlink:href="#ArialMT-30" x="190.037109"/>
      </g>
     </g>
    </g>
    <g id="ytick_6">
     <g id="line2d_32"/>
     <g id="text_33">
      <!-- −10.5 -->
      <g style="fill: #262626" transform="translate(21.259844 63.34169) scale(0.1 -0.1)">
       <use xlink:href="#ArialMT-2212"/>
       <use xlink:href="#ArialMT-31" x="58.398438"/>
       <use xlink:href="#ArialMT-30" x="114.013672"/>
       <use xlink:href="#ArialMT-2e" x="169.628906"/>
       <use xlink:href="#ArialMT-35" x="197.412109"/>
      </g>
     </g>
    </g>
    <g id="text_34">
     <!-- Propeller twist -->
     <g style="fill: #262626" transform="translate(15.073594 208.933047) rotate(-90) scale(0.11 -0.11)">
      <defs>
       <path id="ArialMT-72" d="M 416 0 
L 416 3319 
L 922 3319 
L 922 2816 
Q 1116 3169 1280 3281 
Q 1444 3394 1641 3394 
Q 1925 3394 2219 3213 
L 2025 2691 
Q 1819 2813 1613 2813 
Q 1428 2813 1281 2702 
Q 1134 2591 1072 2394 
Q 978 2094 978 1738 
L 978 0 
L 416 0 
z
" transform="scale(0.015625)"/>
       <path id="ArialMT-70" d="M 422 -1272 
L 422 3319 
L 934 3319 
L 934 2888 
Q 1116 3141 1344 3267 
Q 1572 3394 1897 3394 
Q 2322 3394 2647 3175 
Q 2972 2956 3137 2557 
Q 3303 2159 3303 1684 
Q 3303 1175 3120 767 
Q 2938 359 2589 142 
Q 2241 -75 1856 -75 
Q 1575 -75 1351 44 
Q 1128 163 984 344 
L 984 -1272 
L 422 -1272 
z
M 931 1641 
Q 931 1000 1190 694 
Q 1450 388 1819 388 
Q 2194 388 2461 705 
Q 2728 1022 2728 1688 
Q 2728 2322 2467 2637 
Q 2206 2953 1844 2953 
Q 1484 2953 1207 2617 
Q 931 2281 931 1641 
z
" transform="scale(0.015625)"/>
       <path id="ArialMT-65" d="M 2694 1069 
L 3275 997 
Q 3138 488 2766 206 
Q 2394 -75 1816 -75 
Q 1088 -75 661 373 
Q 234 822 234 1631 
Q 234 2469 665 2931 
Q 1097 3394 1784 3394 
Q 2450 3394 2872 2941 
Q 3294 2488 3294 1666 
Q 3294 1616 3291 1516 
L 816 1516 
Q 847 969 1125 678 
Q 1403 388 1819 388 
Q 2128 388 2347 550 
Q 2566 713 2694 1069 
z
M 847 1978 
L 2700 1978 
Q 2663 2397 2488 2606 
Q 2219 2931 1791 2931 
Q 1403 2931 1139 2672 
Q 875 2413 847 1978 
z
" transform="scale(0.015625)"/>
       <path id="ArialMT-6c" d="M 409 0 
L 409 4581 
L 972 4581 
L 972 0 
L 409 0 
z
" transform="scale(0.015625)"/>
       <path id="ArialMT-20" transform="scale(0.015625)"/>
       <path id="ArialMT-77" d="M 1034 0 
L 19 3319 
L 600 3319 
L 1128 1403 
L 1325 691 
Q 1338 744 1497 1375 
L 2025 3319 
L 2603 3319 
L 3100 1394 
L 3266 759 
L 3456 1400 
L 4025 3319 
L 4572 3319 
L 3534 0 
L 2950 0 
L 2422 1988 
L 2294 2553 
L 1622 0 
L 1034 0 
z
" transform="scale(0.015625)"/>
      </defs>
      <use xlink:href="#ArialMT-50"/>
      <use xlink:href="#ArialMT-72" x="66.699219"/>
      <use xlink:href="#ArialMT-6f" x="100"/>
      <use xlink:href="#ArialMT-70" x="155.615234"/>
      <use xlink:href="#ArialMT-65" x="211.230469"/>
      <use xlink:href="#ArialMT-6c" x="266.845703"/>
      <use xlink:href="#ArialMT-6c" x="289.0625"/>
      <use xlink:href="#ArialMT-65" x="311.279297"/>
      <use xlink:href="#ArialMT-72" x="366.894531"/>
      <use xlink:href="#ArialMT-20" x="400.195312"/>
      <use xlink:href="#ArialMT-74" x="427.978516"/>
      <use xlink:href="#ArialMT-77" x="455.761719"/>
      <use xlink:href="#ArialMT-69" x="527.978516"/>
      <use xlink:href="#ArialMT-73" x="550.195312"/>
      <use xlink:href="#ArialMT-74" x="600.195312"/>
     </g>
    </g>
   </g>
   <g id="line2d_33">
    <path d="M 73.852315 225.805245 
L 75.482107 228.091938 
L 77.111899 222.705727 
L 78.741691 220.071674 
L 80.371483 221.030914 
L 82.001275 223.044725 
L 83.631067 225.939398 
L 85.260859 225.080461 
L 86.89065 223.099764 
L 88.520442 218.88555 
L 90.150234 219.919495 
L 91.780026 223.028676 
L 93.409818 224.346409 
L 95.03961 220.703331 
L 96.669402 219.850441 
L 98.299194 219.176797 
L 99.928986 219.100284 
L 101.558778 216.990464 
L 103.188569 216.038796 
L 104.818361 216.428652 
L 106.448153 220.861839 
L 108.077945 218.138275 
L 109.707737 213.524316 
L 111.337529 219.672777 
L 112.967321 218.719413 
L 114.597113 218.244794 
L 116.226905 218.657988 
L 117.856697 216.217139 
L 119.486488 213.358857 
L 121.11628 216.001783 
L 122.746072 215.642329 
L 126.005656 211.053178 
L 127.635448 206.187753 
L 129.26524 212.552361 
L 130.895032 211.910419 
L 132.524824 214.710496 
L 134.154615 212.007671 
L 135.784407 213.993792 
L 137.414199 209.26625 
L 139.043991 212.788851 
L 140.673783 212.90023 
L 142.303575 210.70333 
L 143.933367 211.434274 
L 145.563159 214.619008 
L 147.192951 215.378037 
L 148.822743 208.17201 
L 150.452534 211.462868 
L 152.082326 207.095288 
L 153.712118 207.051437 
L 156.971702 209.199739 
L 158.601494 212.093 
L 160.231286 206.5211 
L 161.861078 204.575326 
L 163.49087 206.559526 
L 165.120661 202.642662 
L 166.750453 200.759839 
L 168.380245 204.890137 
L 170.010037 208.433534 
L 171.639829 205.500943 
L 173.269621 204.96552 
L 174.899413 200.606643 
L 178.158997 201.971844 
L 179.788789 199.496524 
L 181.41858 199.304224 
L 183.048372 203.261605 
L 184.678164 199.087173 
L 186.307956 197.920318 
L 187.937748 202.267046 
L 189.56754 196.230473 
L 191.197332 195.783318 
L 194.456916 198.498857 
L 196.086707 197.708071 
L 197.716499 196.027776 
L 199.346291 198.529824 
L 200.976083 197.143772 
L 202.605875 196.868064 
L 204.235667 193.954517 
L 205.865459 197.050871 
L 207.495251 196.649657 
L 209.125043 194.038546 
L 210.754835 195.985959 
L 214.014418 196.47787 
L 215.64421 195.780266 
L 217.274002 194.320413 
L 218.903794 192.258569 
L 220.533586 191.914373 
L 222.163378 189.448716 
L 223.79317 190.506621 
L 225.422962 189.012128 
L 227.052753 186.158593 
L 228.682545 185.831576 
L 230.312337 188.410025 
L 231.942129 186.198545 
L 233.571921 191.031929 
L 235.201713 191.136696 
L 236.831505 186.191255 
L 238.461297 188.604755 
L 240.091089 184.681109 
L 241.720881 185.916565 
L 243.350672 189.115935 
L 244.980464 188.574466 
L 246.610256 187.319062 
L 248.240048 183.425423 
L 249.86984 183.33563 
L 251.499632 184.221578 
L 253.129424 181.184389 
L 254.759216 181.23779 
L 256.389008 180.599465 
L 258.018799 181.285427 
L 259.648591 182.294508 
L 261.278383 182.271961 
L 262.908175 177.099806 
L 264.537967 179.321909 
L 266.167759 180.942531 
L 267.797551 179.904461 
L 269.427343 179.423626 
L 271.057135 176.582806 
L 272.686927 176.110334 
L 274.316718 176.171251 
L 275.94651 171.761063 
L 277.576302 170.738815 
L 279.206094 170.40513 
L 280.835886 174.680148 
L 282.465678 175.718387 
L 284.09547 176.391014 
L 285.725262 172.577731 
L 288.984845 175.276318 
L 290.614637 174.230336 
L 292.244429 167.964111 
L 293.874221 169.428146 
L 295.504013 168.055655 
L 297.133805 169.096607 
L 298.763597 173.641852 
L 300.393389 174.25876 
L 302.023181 174.229941 
L 303.652973 168.147934 
L 305.282764 168.650017 
L 308.542348 164.95009 
L 310.17214 161.779936 
L 311.801932 162.032079 
L 313.431724 163.035057 
L 315.061516 165.482462 
L 316.691308 169.010488 
L 318.3211 164.82108 
L 319.950891 165.202855 
L 321.580683 155.486304 
L 323.210475 155.949734 
L 324.840267 155.098539 
L 326.470059 150.225316 
L 328.099851 153.189665 
L 329.729643 151.855431 
L 331.359435 155.953633 
L 332.989227 159.515621 
L 334.619019 160.586749 
L 336.24881 162.388142 
L 337.878602 158.562992 
L 339.508394 160.963664 
L 341.138186 168.328989 
L 342.767978 173.867831 
L 344.39777 169.868746 
L 346.027562 164.723885 
L 347.657354 164.76977 
L 349.287146 171.570854 
L 350.916937 186.148083 
L 352.546729 203.832572 
L 354.176521 227.692476 
L 355.806313 244.148799 
L 357.436105 225.255526 
L 359.065897 178.77445 
L 360.695689 161.889281 
L 362.325481 154.779376 
L 363.955273 150.769781 
L 365.585065 157.978011 
L 367.214856 159.969331 
L 368.844648 161.318597 
L 370.47444 167.502319 
L 372.104232 168.796206 
L 373.734024 170.236055 
L 375.363816 164.487282 
L 376.993608 162.16544 
L 378.6234 159.159049 
L 380.253192 155.605255 
L 381.882983 164.406587 
L 383.512775 168.892158 
L 385.142567 167.56041 
L 386.772359 174.818538 
L 388.402151 173.518775 
L 390.031943 190.216108 
L 391.661735 185.560333 
L 393.291527 176.929432 
L 394.921319 201.372057 
L 396.551111 211.797062 
L 398.180902 35.795625 
L 399.810694 312.995625 
L 401.440486 270.436273 
L 403.070278 278.825033 
L 404.70007 212.854967 
L 406.329862 206.855238 
L 407.959654 178.980652 
L 409.589446 177.21435 
L 411.219238 180.910038 
L 412.849029 175.478563 
L 414.478821 176.668078 
L 416.108613 176.528161 
L 417.738405 168.784169 
L 419.368197 165.524561 
L 420.997989 167.079123 
L 422.627781 168.44229 
L 424.257573 168.214389 
L 425.887365 160.238314 
L 427.517157 156.284098 
L 429.146948 168.747608 
L 430.77674 170.923543 
L 432.406532 168.192011 
L 434.036324 160.887885 
L 435.666116 164.560631 
L 437.295908 169.479908 
L 438.9257 173.094562 
L 440.555492 178.219588 
L 443.815075 158.44325 
L 445.444867 159.452896 
L 447.074659 173.213739 
L 450.334243 165.766137 
L 451.964035 168.202579 
L 453.593827 177.312902 
L 455.223619 183.772275 
L 456.853411 186.638411 
L 458.483203 185.70443 
L 460.112994 184.215532 
L 461.742786 180.40982 
L 463.372578 181.209423 
L 465.00237 181.386522 
L 466.632162 177.837983 
L 468.261954 176.815905 
L 471.521538 166.20329 
L 473.15133 162.906838 
L 474.781121 162.825126 
L 476.410913 162.972276 
L 478.040705 164.774856 
L 479.670497 171.185123 
L 479.670497 171.185123 
" clip-path="url(#p1378b32ddd)" style="fill: none; stroke: #0272a2; stroke-width: 1.75; stroke-linecap: round"/>
   </g>
   <g id="line2d_34">
    <path d="M 73.852315 285.258953 
L 75.482107 283.332309 
L 77.111899 283.23971 
L 78.741691 281.687245 
L 80.371483 287.345402 
L 82.001275 285.121944 
L 83.631067 286.274616 
L 85.260859 287.123987 
L 86.89065 283.600506 
L 88.520442 285.295688 
L 90.150234 282.748318 
L 91.780026 284.690642 
L 93.409818 285.90433 
L 95.03961 286.220421 
L 96.669402 284.804779 
L 98.299194 286.27039 
L 99.928986 284.15625 
L 101.558778 285.112269 
L 103.188569 284.869057 
L 104.818361 288.284777 
L 106.448153 285.618488 
L 108.077945 286.779835 
L 109.707737 285.036092 
L 111.337529 284.941083 
L 112.967321 282.941116 
L 114.597113 285.253689 
L 116.226905 283.656851 
L 117.856697 288.105917 
L 119.486488 283.412194 
L 121.11628 285.352182 
L 122.746072 284.435494 
L 124.375864 284.852116 
L 126.005656 285.714239 
L 127.635448 282.585954 
L 129.26524 285.337466 
L 130.895032 283.81195 
L 132.524824 285.260324 
L 134.154615 281.922709 
L 135.784407 283.506313 
L 137.414199 285.455383 
L 139.043991 284.122813 
L 140.673783 285.793604 
L 142.303575 286.336596 
L 143.933367 283.026227 
L 145.563159 283.996259 
L 147.192951 285.899845 
L 148.822743 282.42841 
L 150.452534 283.058737 
L 152.082326 279.961925 
L 153.712118 285.489079 
L 155.34191 285.894804 
L 156.971702 285.81136 
L 158.601494 284.32473 
L 160.231286 283.40237 
L 161.861078 285.407823 
L 165.120661 284.216636 
L 166.750453 285.667457 
L 170.010037 282.619243 
L 171.639829 284.759962 
L 173.269621 283.644248 
L 174.899413 284.556191 
L 176.529205 285.709049 
L 178.158997 287.342956 
L 179.788789 285.124687 
L 181.41858 284.518195 
L 183.048372 283.033085 
L 184.678164 285.595098 
L 186.307956 284.699613 
L 187.937748 285.311739 
L 191.197332 284.10806 
L 192.827124 283.247013 
L 194.456916 283.826852 
L 196.086707 284.626364 
L 197.716499 283.839455 
L 199.346291 283.497639 
L 200.976083 282.223231 
L 202.605875 282.767631 
L 204.235667 283.56314 
L 205.865459 289.040881 
L 207.495251 284.929777 
L 209.125043 284.864127 
L 210.754835 287.040136 
L 212.384626 287.708274 
L 214.014418 287.39956 
L 215.64421 283.367414 
L 217.274002 281.692212 
L 218.903794 286.405842 
L 220.533586 286.927593 
L 222.163378 283.735327 
L 223.79317 285.696816 
L 225.422962 283.92731 
L 227.052753 286.444802 
L 228.682545 284.130376 
L 230.312337 283.633461 
L 231.942129 282.037698 
L 233.571921 285.618859 
L 235.201713 284.406765 
L 236.831505 282.617575 
L 238.461297 287.016486 
L 240.091089 284.369176 
L 241.720881 285.22952 
L 243.350672 284.505962 
L 244.980464 282.270642 
L 246.610256 283.163532 
L 248.240048 286.033851 
L 249.86984 285.164352 
L 251.499632 285.99908 
L 253.129424 289.745829 
L 254.759216 286.347791 
L 256.389008 278.851327 
L 258.018799 281.615071 
L 259.648591 282.718218 
L 261.278383 285.590019 
L 262.908175 285.701338 
L 264.537967 287.191082 
L 266.167759 282.848183 
L 267.797551 283.731398 
L 269.427343 280.284169 
L 271.057135 281.491926 
L 272.686927 284.88318 
L 274.316718 283.985175 
L 275.94651 285.046619 
L 277.576302 284.551966 
L 279.206094 282.042406 
L 280.835886 285.751827 
L 282.465678 285.646142 
L 284.09547 285.898881 
L 287.355054 286.71159 
L 288.984845 285.061076 
L 290.614637 285.478848 
L 292.244429 287.465284 
L 293.874221 283.442516 
L 295.504013 285.049511 
L 297.133805 285.671609 
L 298.763597 286.069178 
L 300.393389 284.001522 
L 302.023181 284.12741 
L 303.652973 285.019336 
L 305.282764 283.237004 
L 306.912556 283.665044 
L 308.542348 287.501538 
L 310.17214 286.157366 
L 311.801932 285.641842 
L 313.431724 283.57174 
L 315.061516 286.568317 
L 316.691308 284.379296 
L 318.3211 285.443892 
L 319.950891 284.16978 
L 321.580683 284.284732 
L 323.210475 283.686618 
L 324.840267 286.170933 
L 326.470059 285.056702 
L 328.099851 285.156196 
L 329.729643 286.814606 
L 331.359435 283.929756 
L 332.989227 284.724153 
L 334.619019 286.779464 
L 336.24881 285.393514 
L 337.878602 285.20839 
L 339.508394 282.717106 
L 341.138186 286.497922 
L 342.767978 284.329475 
L 344.39777 284.105947 
L 346.027562 285.463724 
L 347.657354 284.215783 
L 349.287146 282.716772 
L 350.916937 282.566159 
L 352.546729 283.969235 
L 354.176521 284.938451 
L 355.806313 286.69046 
L 357.436105 289.259701 
L 359.065897 284.665917 
L 360.695689 283.628716 
L 363.955273 283.006655 
L 365.585065 286.126821 
L 367.214856 283.175728 
L 368.844648 283.17962 
L 370.47444 285.582679 
L 372.104232 283.872706 
L 373.734024 287.443265 
L 375.363816 286.288777 
L 376.993608 284.731085 
L 378.6234 283.91541 
L 380.253192 284.798217 
L 381.882983 286.40447 
L 383.512775 283.075937 
L 385.142567 282.380553 
L 386.772359 287.967871 
L 388.402151 286.880404 
L 390.031943 282.831242 
L 391.661735 280.705722 
L 393.291527 284.321505 
L 394.921319 285.335315 
L 396.551111 284.370511 
L 398.180902 282.26827 
L 399.810694 283.058848 
L 401.440486 287.676988 
L 403.070278 284.982712 
L 404.70007 285.337354 
L 406.329862 288.649503 
L 407.959654 285.175806 
L 409.589446 287.900034 
L 411.219238 284.928368 
L 412.849029 280.373061 
L 414.478821 284.694905 
L 416.108613 285.098479 
L 417.738405 284.618023 
L 419.368197 283.98473 
L 420.997989 286.763228 
L 422.627781 283.869704 
L 424.257573 285.137958 
L 425.887365 281.207715 
L 427.517157 280.70524 
L 429.146948 284.642823 
L 430.77674 282.747614 
L 432.406532 284.319133 
L 434.036324 284.708472 
L 437.295908 283.484775 
L 438.9257 283.85154 
L 440.555492 282.750394 
L 442.185284 282.442978 
L 443.815075 283.086094 
L 445.444867 284.648976 
L 447.074659 282.07158 
L 448.704451 286.341341 
L 450.334243 287.157275 
L 451.964035 284.144907 
L 453.593827 286.398094 
L 455.223619 285.151081 
L 456.853411 281.867179 
L 458.483203 282.458992 
L 460.112994 283.879638 
L 461.742786 281.079752 
L 463.372578 284.653906 
L 465.00237 286.232654 
L 466.632162 282.561674 
L 468.261954 281.906288 
L 469.891746 283.361038 
L 471.521538 282.640224 
L 473.15133 282.437232 
L 474.781121 288.879407 
L 476.410913 285.759167 
L 478.040705 286.677041 
L 479.670497 283.462608 
L 479.670497 283.462608 
" clip-path="url(#p1378b32ddd)" style="fill: none; stroke-dasharray: 1.75,2.8875; stroke-dashoffset: 0; stroke: #9fc377; stroke-width: 1.75"/>
   </g>
   <g id="patch_3">
    <path d="M 53.561406 326.855625 
L 53.561406 21.935625 
" style="fill: none; stroke: #cccccc; stroke-width: 1.25; stroke-linejoin: miter; stroke-linecap: square"/>
   </g>
   <g id="patch_4">
    <path d="M 499.961406 326.855625 
L 499.961406 21.935625 
" style="fill: none; stroke: #cccccc; stroke-width: 1.25; stroke-linejoin: miter; stroke-linecap: square"/>
   </g>
   <g id="patch_5">
    <path d="M 53.561406 326.855625 
L 499.961406 326.855625 
" style="fill: none; stroke: #cccccc; stroke-width: 1.25; stroke-linejoin: miter; stroke-linecap: square"/>
   </g>
   <g id="patch_6">
    <path d="M 53.561406 21.935625 
L 499.961406 21.935625 
" style="fill: none; stroke: #cccccc; stroke-width: 1.25; stroke-linejoin: miter; stroke-linecap: square"/>
   </g>
   <g id="text_35">
    <!-- "Propeller twist" for dataset Mouse_non_tata -->
    <g style="fill: #262626" transform="translate(158.445156 15.935625) scale(0.12 -0.12)">
     <defs>
      <path id="ArialMT-22" d="M 450 2959 
L 294 3831 
L 294 4581 
L 934 4581 
L 934 3831 
L 794 2959 
L 450 2959 
z
M 1484 2959 
L 1331 3831 
L 1331 4581 
L 1972 4581 
L 1972 3831 
L 1822 2959 
L 1484 2959 
z
" transform="scale(0.015625)"/>
      <path id="ArialMT-66" d="M 556 0 
L 556 2881 
L 59 2881 
L 59 3319 
L 556 3319 
L 556 3672 
Q 556 4006 616 4169 
Q 697 4388 901 4523 
Q 1106 4659 1475 4659 
Q 1713 4659 2000 4603 
L 1916 4113 
Q 1741 4144 1584 4144 
Q 1328 4144 1222 4034 
Q 1116 3925 1116 3625 
L 1116 3319 
L 1763 3319 
L 1763 2881 
L 1116 2881 
L 1116 0 
L 556 0 
z
" transform="scale(0.015625)"/>
      <path id="ArialMT-64" d="M 2575 0 
L 2575 419 
Q 2259 -75 1647 -75 
Q 1250 -75 917 144 
Q 584 363 401 755 
Q 219 1147 219 1656 
Q 219 2153 384 2558 
Q 550 2963 881 3178 
Q 1213 3394 1622 3394 
Q 1922 3394 2156 3267 
Q 2391 3141 2538 2938 
L 2538 4581 
L 3097 4581 
L 3097 0 
L 2575 0 
z
M 797 1656 
Q 797 1019 1065 703 
Q 1334 388 1700 388 
Q 2069 388 2326 689 
Q 2584 991 2584 1609 
Q 2584 2291 2321 2609 
Q 2059 2928 1675 2928 
Q 1300 2928 1048 2622 
Q 797 2316 797 1656 
z
" transform="scale(0.015625)"/>
      <path id="ArialMT-61" d="M 2588 409 
Q 2275 144 1986 34 
Q 1697 -75 1366 -75 
Q 819 -75 525 192 
Q 231 459 231 875 
Q 231 1119 342 1320 
Q 453 1522 633 1644 
Q 813 1766 1038 1828 
Q 1203 1872 1538 1913 
Q 2219 1994 2541 2106 
Q 2544 2222 2544 2253 
Q 2544 2597 2384 2738 
Q 2169 2928 1744 2928 
Q 1347 2928 1158 2789 
Q 969 2650 878 2297 
L 328 2372 
Q 403 2725 575 2942 
Q 747 3159 1072 3276 
Q 1397 3394 1825 3394 
Q 2250 3394 2515 3294 
Q 2781 3194 2906 3042 
Q 3031 2891 3081 2659 
Q 3109 2516 3109 2141 
L 3109 1391 
Q 3109 606 3145 398 
Q 3181 191 3288 0 
L 2700 0 
Q 2613 175 2588 409 
z
M 2541 1666 
Q 2234 1541 1622 1453 
Q 1275 1403 1131 1340 
Q 988 1278 909 1158 
Q 831 1038 831 891 
Q 831 666 1001 516 
Q 1172 366 1500 366 
Q 1825 366 2078 508 
Q 2331 650 2450 897 
Q 2541 1088 2541 1459 
L 2541 1666 
z
" transform="scale(0.015625)"/>
      <path id="ArialMT-4d" d="M 475 0 
L 475 4581 
L 1388 4581 
L 2472 1338 
Q 2622 884 2691 659 
Q 2769 909 2934 1394 
L 4031 4581 
L 4847 4581 
L 4847 0 
L 4263 0 
L 4263 3834 
L 2931 0 
L 2384 0 
L 1059 3900 
L 1059 0 
L 475 0 
z
" transform="scale(0.015625)"/>
      <path id="ArialMT-75" d="M 2597 0 
L 2597 488 
Q 2209 -75 1544 -75 
Q 1250 -75 995 37 
Q 741 150 617 320 
Q 494 491 444 738 
Q 409 903 409 1263 
L 409 3319 
L 972 3319 
L 972 1478 
Q 972 1038 1006 884 
Q 1059 663 1231 536 
Q 1403 409 1656 409 
Q 1909 409 2131 539 
Q 2353 669 2445 892 
Q 2538 1116 2538 1541 
L 2538 3319 
L 3100 3319 
L 3100 0 
L 2597 0 
z
" transform="scale(0.015625)"/>
      <path id="ArialMT-5f" d="M -97 -1272 
L -97 -866 
L 3631 -866 
L 3631 -1272 
L -97 -1272 
z
" transform="scale(0.015625)"/>
     </defs>
     <use xlink:href="#ArialMT-22"/>
     <use xlink:href="#ArialMT-50" x="35.498047"/>
     <use xlink:href="#ArialMT-72" x="102.197266"/>
     <use xlink:href="#ArialMT-6f" x="135.498047"/>
     <use xlink:href="#ArialMT-70" x="191.113281"/>
     <use xlink:href="#ArialMT-65" x="246.728516"/>
     <use xlink:href="#ArialMT-6c" x="302.34375"/>
     <use xlink:href="#ArialMT-6c" x="324.560547"/>
     <use xlink:href="#ArialMT-65" x="346.777344"/>
     <use xlink:href="#ArialMT-72" x="402.392578"/>
     <use xlink:href="#ArialMT-20" x="435.693359"/>
     <use xlink:href="#ArialMT-74" x="463.476562"/>
     <use xlink:href="#ArialMT-77" x="491.259766"/>
     <use xlink:href="#ArialMT-69" x="563.476562"/>
     <use xlink:href="#ArialMT-73" x="585.693359"/>
     <use xlink:href="#ArialMT-74" x="635.693359"/>
     <use xlink:href="#ArialMT-22" x="663.476562"/>
     <use xlink:href="#ArialMT-20" x="698.974609"/>
     <use xlink:href="#ArialMT-66" x="726.757812"/>
     <use xlink:href="#ArialMT-6f" x="754.541016"/>
     <use xlink:href="#ArialMT-72" x="810.15625"/>
     <use xlink:href="#ArialMT-20" x="843.457031"/>
     <use xlink:href="#ArialMT-64" x="871.240234"/>
     <use xlink:href="#ArialMT-61" x="926.855469"/>
     <use xlink:href="#ArialMT-74" x="982.470703"/>
     <use xlink:href="#ArialMT-61" x="1010.253906"/>
     <use xlink:href="#ArialMT-73" x="1065.869141"/>
     <use xlink:href="#ArialMT-65" x="1115.869141"/>
     <use xlink:href="#ArialMT-74" x="1171.484375"/>
     <use xlink:href="#ArialMT-20" x="1199.267578"/>
     <use xlink:href="#ArialMT-4d" x="1227.050781"/>
     <use xlink:href="#ArialMT-6f" x="1310.351562"/>
     <use xlink:href="#ArialMT-75" x="1365.966797"/>
     <use xlink:href="#ArialMT-73" x="1421.582031"/>
     <use xlink:href="#ArialMT-65" x="1471.582031"/>
     <use xlink:href="#ArialMT-5f" x="1527.197266"/>
     <use xlink:href="#ArialMT-6e" x="1582.8125"/>
     <use xlink:href="#ArialMT-6f" x="1638.427734"/>
     <use xlink:href="#ArialMT-6e" x="1694.042969"/>
     <use xlink:href="#ArialMT-5f" x="1749.658203"/>
     <use xlink:href="#ArialMT-74" x="1805.273438"/>
     <use xlink:href="#ArialMT-61" x="1833.056641"/>
     <use xlink:href="#ArialMT-74" x="1888.671875"/>
     <use xlink:href="#ArialMT-61" x="1916.455078"/>
    </g>
   </g>
   <g id="legend_1">
    <g id="line2d_35">
     <path d="M 62.561406 34.593437 
L 72.561406 34.593437 
L 82.561406 34.593437 
" style="fill: none; stroke: #0272a2; stroke-width: 1.75; stroke-linecap: round"/>
    </g>
    <g id="text_36">
     <!-- Promoter -->
     <g style="fill: #262626" transform="translate(90.561406 38.093437) scale(0.1 -0.1)">
      <defs>
       <path id="ArialMT-6d" d="M 422 0 
L 422 3319 
L 925 3319 
L 925 2853 
Q 1081 3097 1340 3245 
Q 1600 3394 1931 3394 
Q 2300 3394 2536 3241 
Q 2772 3088 2869 2813 
Q 3263 3394 3894 3394 
Q 4388 3394 4653 3120 
Q 4919 2847 4919 2278 
L 4919 0 
L 4359 0 
L 4359 2091 
Q 4359 2428 4304 2576 
Q 4250 2725 4106 2815 
Q 3963 2906 3769 2906 
Q 3419 2906 3187 2673 
Q 2956 2441 2956 1928 
L 2956 0 
L 2394 0 
L 2394 2156 
Q 2394 2531 2256 2718 
Q 2119 2906 1806 2906 
Q 1569 2906 1367 2781 
Q 1166 2656 1075 2415 
Q 984 2175 984 1722 
L 984 0 
L 422 0 
z
" transform="scale(0.015625)"/>
      </defs>
      <use xlink:href="#ArialMT-50"/>
      <use xlink:href="#ArialMT-72" x="66.699219"/>
      <use xlink:href="#ArialMT-6f" x="100"/>
      <use xlink:href="#ArialMT-6d" x="155.615234"/>
      <use xlink:href="#ArialMT-6f" x="238.916016"/>
      <use xlink:href="#ArialMT-74" x="294.53125"/>
      <use xlink:href="#ArialMT-65" x="322.314453"/>
      <use xlink:href="#ArialMT-72" x="377.929688"/>
     </g>
    </g>
    <g id="line2d_36">
     <path d="M 62.561406 48.73875 
L 72.561406 48.73875 
L 82.561406 48.73875 
" style="fill: none; stroke-dasharray: 1.75,2.8875; stroke-dashoffset: 0; stroke: #9fc377; stroke-width: 1.75"/>
    </g>
    <g id="text_37">
     <!-- Non-promoter -->
     <g style="fill: #262626" transform="translate(90.561406 52.23875) scale(0.1 -0.1)">
      <defs>
       <path id="ArialMT-4e" d="M 488 0 
L 488 4581 
L 1109 4581 
L 3516 984 
L 3516 4581 
L 4097 4581 
L 4097 0 
L 3475 0 
L 1069 3600 
L 1069 0 
L 488 0 
z
" transform="scale(0.015625)"/>
      </defs>
      <use xlink:href="#ArialMT-4e"/>
      <use xlink:href="#ArialMT-6f" x="72.216797"/>
      <use xlink:href="#ArialMT-6e" x="127.832031"/>
      <use xlink:href="#ArialMT-2d" x="183.447266"/>
      <use xlink:href="#ArialMT-70" x="216.748047"/>
      <use xlink:href="#ArialMT-72" x="272.363281"/>
      <use xlink:href="#ArialMT-6f" x="305.664062"/>
      <use xlink:href="#ArialMT-6d" x="361.279297"/>
      <use xlink:href="#ArialMT-6f" x="444.580078"/>
      <use xlink:href="#ArialMT-74" x="500.195312"/>
      <use xlink:href="#ArialMT-65" x="527.978516"/>
      <use xlink:href="#ArialMT-72" x="583.59375"/>
     </g>
    </g>
   </g>
  </g>
 </g>
 <defs>
  <clipPath id="p1378b32ddd">
   <rect x="53.561406" y="21.935625" width="446.4" height="304.92"/>
  </clipPath>
 </defs>
</svg>
