<?xml version="1.0" encoding="utf-8" standalone="no"?>
<!DOCTYPE svg PUBLIC "-//W3C//DTD SVG 1.1//EN"
  "http://www.w3.org/Graphics/SVG/1.1/DTD/svg11.dtd">
<svg xmlns:xlink="http://www.w3.org/1999/xlink" width="495.759844pt" height="375.733156pt" viewBox="0 0 495.759844 375.733156" xmlns="http://www.w3.org/2000/svg" version="1.1">
 <metadata>
  <rdf:RDF xmlns:dc="http://purl.org/dc/elements/1.1/" xmlns:cc="http://creativecommons.org/ns#" xmlns:rdf="http://www.w3.org/1999/02/22-rdf-syntax-ns#">
   <cc:Work>
    <dc:type rdf:resource="http://purl.org/dc/dcmitype/StillImage"/>
    <dc:date>2023-05-11T16:26:01.935985</dc:date>
    <dc:format>image/svg+xml</dc:format>
    <dc:creator>
     <cc:Agent>
      <dc:title>Matplotlib v3.7.1, https://matplotlib.org/</dc:title>
     </cc:Agent>
    </dc:creator>
   </cc:Work>
  </rdf:RDF>
 </metadata>
 <defs>
  <style type="text/css">*{stroke-linejoin: round; stroke-linecap: butt}</style>
 </defs>
 <g id="figure_1">
  <g id="patch_1">
   <path d="M 0 375.733156 
L 495.759844 375.733156 
L 495.759844 0 
L 0 0 
z
" style="fill: #ffffff"/>
  </g>
  <g id="axes_1">
   <g id="patch_2">
    <path d="M 42.159844 326.855625 
L 488.559844 326.855625 
L 488.559844 21.935625 
L 42.159844 21.935625 
z
" style="fill: #ffffff"/>
   </g>
   <g id="matplotlib.axis_1">
    <g id="xtick_1">
     <g id="line2d_1"/>
     <g id="text_1">
      <!-- -200 -->
      <g style="fill: #262626" transform="translate(57.203247 353.067937) rotate(-45) scale(0.1 -0.1)">
       <defs>
        <path id="ArialMT-2d" d="M 203 1375 
L 203 1941 
L 1931 1941 
L 1931 1375 
L 203 1375 
z
" transform="scale(0.015625)"/>
        <path id="ArialMT-32" d="M 3222 541 
L 3222 0 
L 194 0 
Q 188 203 259 391 
Q 375 700 629 1000 
Q 884 1300 1366 1694 
Q 2113 2306 2375 2664 
Q 2638 3022 2638 3341 
Q 2638 3675 2398 3904 
Q 2159 4134 1775 4134 
Q 1369 4134 1125 3890 
Q 881 3647 878 3216 
L 300 3275 
Q 359 3922 746 4261 
Q 1134 4600 1788 4600 
Q 2447 4600 2831 4234 
Q 3216 3869 3216 3328 
Q 3216 3053 3103 2787 
Q 2991 2522 2730 2228 
Q 2469 1934 1863 1422 
Q 1356 997 1212 845 
Q 1069 694 975 541 
L 3222 541 
z
" transform="scale(0.015625)"/>
        <path id="ArialMT-30" d="M 266 2259 
Q 266 3072 433 3567 
Q 600 4063 929 4331 
Q 1259 4600 1759 4600 
Q 2128 4600 2406 4451 
Q 2684 4303 2865 4023 
Q 3047 3744 3150 3342 
Q 3253 2941 3253 2259 
Q 3253 1453 3087 958 
Q 2922 463 2592 192 
Q 2263 -78 1759 -78 
Q 1097 -78 719 397 
Q 266 969 266 2259 
z
M 844 2259 
Q 844 1131 1108 757 
Q 1372 384 1759 384 
Q 2147 384 2411 759 
Q 2675 1134 2675 2259 
Q 2675 3391 2411 3762 
Q 2147 4134 1753 4134 
Q 1366 4134 1134 3806 
Q 844 3388 844 2259 
z
" transform="scale(0.015625)"/>
       </defs>
       <use xlink:href="#ArialMT-2d"/>
       <use xlink:href="#ArialMT-32" x="33.300781"/>
       <use xlink:href="#ArialMT-30" x="88.916016"/>
       <use xlink:href="#ArialMT-30" x="144.53125"/>
      </g>
     </g>
    </g>
    <g id="xtick_2">
     <g id="line2d_2"/>
     <g id="text_2">
      <!-- -190 -->
      <g style="fill: #262626" transform="translate(73.501166 353.067937) rotate(-45) scale(0.1 -0.1)">
       <defs>
        <path id="ArialMT-31" d="M 2384 0 
L 1822 0 
L 1822 3584 
Q 1619 3391 1289 3197 
Q 959 3003 697 2906 
L 697 3450 
Q 1169 3672 1522 3987 
Q 1875 4303 2022 4600 
L 2384 4600 
L 2384 0 
z
" transform="scale(0.015625)"/>
        <path id="ArialMT-39" d="M 350 1059 
L 891 1109 
Q 959 728 1153 556 
Q 1347 384 1650 384 
Q 1909 384 2104 503 
Q 2300 622 2425 820 
Q 2550 1019 2634 1356 
Q 2719 1694 2719 2044 
Q 2719 2081 2716 2156 
Q 2547 1888 2255 1720 
Q 1963 1553 1622 1553 
Q 1053 1553 659 1965 
Q 266 2378 266 3053 
Q 266 3750 677 4175 
Q 1088 4600 1706 4600 
Q 2153 4600 2523 4359 
Q 2894 4119 3086 3673 
Q 3278 3228 3278 2384 
Q 3278 1506 3087 986 
Q 2897 466 2520 194 
Q 2144 -78 1638 -78 
Q 1100 -78 759 220 
Q 419 519 350 1059 
z
M 2653 3081 
Q 2653 3566 2395 3850 
Q 2138 4134 1775 4134 
Q 1400 4134 1122 3828 
Q 844 3522 844 3034 
Q 844 2597 1108 2323 
Q 1372 2050 1759 2050 
Q 2150 2050 2401 2323 
Q 2653 2597 2653 3081 
z
" transform="scale(0.015625)"/>
       </defs>
       <use xlink:href="#ArialMT-2d"/>
       <use xlink:href="#ArialMT-31" x="33.300781"/>
       <use xlink:href="#ArialMT-39" x="88.916016"/>
       <use xlink:href="#ArialMT-30" x="144.53125"/>
      </g>
     </g>
    </g>
    <g id="xtick_3">
     <g id="line2d_3"/>
     <g id="text_3">
      <!-- -180 -->
      <g style="fill: #262626" transform="translate(89.799085 353.067937) rotate(-45) scale(0.1 -0.1)">
       <defs>
        <path id="ArialMT-38" d="M 1131 2484 
Q 781 2613 612 2850 
Q 444 3088 444 3419 
Q 444 3919 803 4259 
Q 1163 4600 1759 4600 
Q 2359 4600 2725 4251 
Q 3091 3903 3091 3403 
Q 3091 3084 2923 2848 
Q 2756 2613 2416 2484 
Q 2838 2347 3058 2040 
Q 3278 1734 3278 1309 
Q 3278 722 2862 322 
Q 2447 -78 1769 -78 
Q 1091 -78 675 323 
Q 259 725 259 1325 
Q 259 1772 486 2073 
Q 713 2375 1131 2484 
z
M 1019 3438 
Q 1019 3113 1228 2906 
Q 1438 2700 1772 2700 
Q 2097 2700 2305 2904 
Q 2513 3109 2513 3406 
Q 2513 3716 2298 3927 
Q 2084 4138 1766 4138 
Q 1444 4138 1231 3931 
Q 1019 3725 1019 3438 
z
M 838 1322 
Q 838 1081 952 856 
Q 1066 631 1291 507 
Q 1516 384 1775 384 
Q 2178 384 2440 643 
Q 2703 903 2703 1303 
Q 2703 1709 2433 1975 
Q 2163 2241 1756 2241 
Q 1359 2241 1098 1978 
Q 838 1716 838 1322 
z
" transform="scale(0.015625)"/>
       </defs>
       <use xlink:href="#ArialMT-2d"/>
       <use xlink:href="#ArialMT-31" x="33.300781"/>
       <use xlink:href="#ArialMT-38" x="88.916016"/>
       <use xlink:href="#ArialMT-30" x="144.53125"/>
      </g>
     </g>
    </g>
    <g id="xtick_4">
     <g id="line2d_4"/>
     <g id="text_4">
      <!-- -170 -->
      <g style="fill: #262626" transform="translate(106.097004 353.067937) rotate(-45) scale(0.1 -0.1)">
       <defs>
        <path id="ArialMT-37" d="M 303 3981 
L 303 4522 
L 3269 4522 
L 3269 4084 
Q 2831 3619 2401 2847 
Q 1972 2075 1738 1259 
Q 1569 684 1522 0 
L 944 0 
Q 953 541 1156 1306 
Q 1359 2072 1739 2783 
Q 2119 3494 2547 3981 
L 303 3981 
z
" transform="scale(0.015625)"/>
       </defs>
       <use xlink:href="#ArialMT-2d"/>
       <use xlink:href="#ArialMT-31" x="33.300781"/>
       <use xlink:href="#ArialMT-37" x="88.916016"/>
       <use xlink:href="#ArialMT-30" x="144.53125"/>
      </g>
     </g>
    </g>
    <g id="xtick_5">
     <g id="line2d_5"/>
     <g id="text_5">
      <!-- -160 -->
      <g style="fill: #262626" transform="translate(122.394923 353.067937) rotate(-45) scale(0.1 -0.1)">
       <defs>
        <path id="ArialMT-36" d="M 3184 3459 
L 2625 3416 
Q 2550 3747 2413 3897 
Q 2184 4138 1850 4138 
Q 1581 4138 1378 3988 
Q 1113 3794 959 3422 
Q 806 3050 800 2363 
Q 1003 2672 1297 2822 
Q 1591 2972 1913 2972 
Q 2475 2972 2870 2558 
Q 3266 2144 3266 1488 
Q 3266 1056 3080 686 
Q 2894 316 2569 119 
Q 2244 -78 1831 -78 
Q 1128 -78 684 439 
Q 241 956 241 2144 
Q 241 3472 731 4075 
Q 1159 4600 1884 4600 
Q 2425 4600 2770 4297 
Q 3116 3994 3184 3459 
z
M 888 1484 
Q 888 1194 1011 928 
Q 1134 663 1356 523 
Q 1578 384 1822 384 
Q 2178 384 2434 671 
Q 2691 959 2691 1453 
Q 2691 1928 2437 2201 
Q 2184 2475 1800 2475 
Q 1419 2475 1153 2201 
Q 888 1928 888 1484 
z
" transform="scale(0.015625)"/>
       </defs>
       <use xlink:href="#ArialMT-2d"/>
       <use xlink:href="#ArialMT-31" x="33.300781"/>
       <use xlink:href="#ArialMT-36" x="88.916016"/>
       <use xlink:href="#ArialMT-30" x="144.53125"/>
      </g>
     </g>
    </g>
    <g id="xtick_6">
     <g id="line2d_6"/>
     <g id="text_6">
      <!-- -150 -->
      <g style="fill: #262626" transform="translate(138.692842 353.067937) rotate(-45) scale(0.1 -0.1)">
       <defs>
        <path id="ArialMT-35" d="M 266 1200 
L 856 1250 
Q 922 819 1161 601 
Q 1400 384 1738 384 
Q 2144 384 2425 690 
Q 2706 997 2706 1503 
Q 2706 1984 2436 2262 
Q 2166 2541 1728 2541 
Q 1456 2541 1237 2417 
Q 1019 2294 894 2097 
L 366 2166 
L 809 4519 
L 3088 4519 
L 3088 3981 
L 1259 3981 
L 1013 2750 
Q 1425 3038 1878 3038 
Q 2478 3038 2890 2622 
Q 3303 2206 3303 1553 
Q 3303 931 2941 478 
Q 2500 -78 1738 -78 
Q 1113 -78 717 272 
Q 322 622 266 1200 
z
" transform="scale(0.015625)"/>
       </defs>
       <use xlink:href="#ArialMT-2d"/>
       <use xlink:href="#ArialMT-31" x="33.300781"/>
       <use xlink:href="#ArialMT-35" x="88.916016"/>
       <use xlink:href="#ArialMT-30" x="144.53125"/>
      </g>
     </g>
    </g>
    <g id="xtick_7">
     <g id="line2d_7"/>
     <g id="text_7">
      <!-- -140 -->
      <g style="fill: #262626" transform="translate(154.990761 353.067937) rotate(-45) scale(0.1 -0.1)">
       <defs>
        <path id="ArialMT-34" d="M 2069 0 
L 2069 1097 
L 81 1097 
L 81 1613 
L 2172 4581 
L 2631 4581 
L 2631 1613 
L 3250 1613 
L 3250 1097 
L 2631 1097 
L 2631 0 
L 2069 0 
z
M 2069 1613 
L 2069 3678 
L 634 1613 
L 2069 1613 
z
" transform="scale(0.015625)"/>
       </defs>
       <use xlink:href="#ArialMT-2d"/>
       <use xlink:href="#ArialMT-31" x="33.300781"/>
       <use xlink:href="#ArialMT-34" x="88.916016"/>
       <use xlink:href="#ArialMT-30" x="144.53125"/>
      </g>
     </g>
    </g>
    <g id="xtick_8">
     <g id="line2d_8"/>
     <g id="text_8">
      <!-- -130 -->
      <g style="fill: #262626" transform="translate(171.28868 353.067937) rotate(-45) scale(0.1 -0.1)">
       <defs>
        <path id="ArialMT-33" d="M 269 1209 
L 831 1284 
Q 928 806 1161 595 
Q 1394 384 1728 384 
Q 2125 384 2398 659 
Q 2672 934 2672 1341 
Q 2672 1728 2419 1979 
Q 2166 2231 1775 2231 
Q 1616 2231 1378 2169 
L 1441 2663 
Q 1497 2656 1531 2656 
Q 1891 2656 2178 2843 
Q 2466 3031 2466 3422 
Q 2466 3731 2256 3934 
Q 2047 4138 1716 4138 
Q 1388 4138 1169 3931 
Q 950 3725 888 3313 
L 325 3413 
Q 428 3978 793 4289 
Q 1159 4600 1703 4600 
Q 2078 4600 2393 4439 
Q 2709 4278 2876 4000 
Q 3044 3722 3044 3409 
Q 3044 3113 2884 2869 
Q 2725 2625 2413 2481 
Q 2819 2388 3044 2092 
Q 3269 1797 3269 1353 
Q 3269 753 2831 336 
Q 2394 -81 1725 -81 
Q 1122 -81 723 278 
Q 325 638 269 1209 
z
" transform="scale(0.015625)"/>
       </defs>
       <use xlink:href="#ArialMT-2d"/>
       <use xlink:href="#ArialMT-31" x="33.300781"/>
       <use xlink:href="#ArialMT-33" x="88.916016"/>
       <use xlink:href="#ArialMT-30" x="144.53125"/>
      </g>
     </g>
    </g>
    <g id="xtick_9">
     <g id="line2d_9"/>
     <g id="text_9">
      <!-- -120 -->
      <g style="fill: #262626" transform="translate(187.586599 353.067937) rotate(-45) scale(0.1 -0.1)">
       <use xlink:href="#ArialMT-2d"/>
       <use xlink:href="#ArialMT-31" x="33.300781"/>
       <use xlink:href="#ArialMT-32" x="88.916016"/>
       <use xlink:href="#ArialMT-30" x="144.53125"/>
      </g>
     </g>
    </g>
    <g id="xtick_10">
     <g id="line2d_10"/>
     <g id="text_10">
      <!-- -110 -->
      <g style="fill: #262626" transform="translate(204.145263 352.546446) rotate(-45) scale(0.1 -0.1)">
       <use xlink:href="#ArialMT-2d"/>
       <use xlink:href="#ArialMT-31" x="33.300781"/>
       <use xlink:href="#ArialMT-31" x="81.541016"/>
       <use xlink:href="#ArialMT-30" x="137.15625"/>
      </g>
     </g>
    </g>
    <g id="xtick_11">
     <g id="line2d_11"/>
     <g id="text_11">
      <!-- -100 -->
      <g style="fill: #262626" transform="translate(220.182437 353.067937) rotate(-45) scale(0.1 -0.1)">
       <use xlink:href="#ArialMT-2d"/>
       <use xlink:href="#ArialMT-31" x="33.300781"/>
       <use xlink:href="#ArialMT-30" x="88.916016"/>
       <use xlink:href="#ArialMT-30" x="144.53125"/>
      </g>
     </g>
    </g>
    <g id="xtick_12">
     <g id="line2d_12"/>
     <g id="text_12">
      <!-- -90 -->
      <g style="fill: #262626" transform="translate(238.446444 349.135761) rotate(-45) scale(0.1 -0.1)">
       <use xlink:href="#ArialMT-2d"/>
       <use xlink:href="#ArialMT-39" x="33.300781"/>
       <use xlink:href="#ArialMT-30" x="88.916016"/>
      </g>
     </g>
    </g>
    <g id="xtick_13">
     <g id="line2d_13"/>
     <g id="text_13">
      <!-- -80 -->
      <g style="fill: #262626" transform="translate(254.744363 349.135761) rotate(-45) scale(0.1 -0.1)">
       <use xlink:href="#ArialMT-2d"/>
       <use xlink:href="#ArialMT-38" x="33.300781"/>
       <use xlink:href="#ArialMT-30" x="88.916016"/>
      </g>
     </g>
    </g>
    <g id="xtick_14">
     <g id="line2d_14"/>
     <g id="text_14">
      <!-- -70 -->
      <g style="fill: #262626" transform="translate(271.042282 349.135761) rotate(-45) scale(0.1 -0.1)">
       <use xlink:href="#ArialMT-2d"/>
       <use xlink:href="#ArialMT-37" x="33.300781"/>
       <use xlink:href="#ArialMT-30" x="88.916016"/>
      </g>
     </g>
    </g>
    <g id="xtick_15">
     <g id="line2d_15"/>
     <g id="text_15">
      <!-- -60 -->
      <g style="fill: #262626" transform="translate(287.340201 349.135761) rotate(-45) scale(0.1 -0.1)">
       <use xlink:href="#ArialMT-2d"/>
       <use xlink:href="#ArialMT-36" x="33.300781"/>
       <use xlink:href="#ArialMT-30" x="88.916016"/>
      </g>
     </g>
    </g>
    <g id="xtick_16">
     <g id="line2d_16"/>
     <g id="text_16">
      <!-- -50 -->
      <g style="fill: #262626" transform="translate(303.63812 349.135761) rotate(-45) scale(0.1 -0.1)">
       <use xlink:href="#ArialMT-2d"/>
       <use xlink:href="#ArialMT-35" x="33.300781"/>
       <use xlink:href="#ArialMT-30" x="88.916016"/>
      </g>
     </g>
    </g>
    <g id="xtick_17">
     <g id="line2d_17"/>
     <g id="text_17">
      <!-- -40 -->
      <g style="fill: #262626" transform="translate(319.936039 349.135761) rotate(-45) scale(0.1 -0.1)">
       <use xlink:href="#ArialMT-2d"/>
       <use xlink:href="#ArialMT-34" x="33.300781"/>
       <use xlink:href="#ArialMT-30" x="88.916016"/>
      </g>
     </g>
    </g>
    <g id="xtick_18">
     <g id="line2d_18"/>
     <g id="text_18">
      <!-- -30 -->
      <g style="fill: #262626" transform="translate(336.233958 349.135761) rotate(-45) scale(0.1 -0.1)">
       <use xlink:href="#ArialMT-2d"/>
       <use xlink:href="#ArialMT-33" x="33.300781"/>
       <use xlink:href="#ArialMT-30" x="88.916016"/>
      </g>
     </g>
    </g>
    <g id="xtick_19">
     <g id="line2d_19"/>
     <g id="text_19">
      <!-- -20 -->
      <g style="fill: #262626" transform="translate(352.531877 349.135761) rotate(-45) scale(0.1 -0.1)">
       <use xlink:href="#ArialMT-2d"/>
       <use xlink:href="#ArialMT-32" x="33.300781"/>
       <use xlink:href="#ArialMT-30" x="88.916016"/>
      </g>
     </g>
    </g>
    <g id="xtick_20">
     <g id="line2d_20"/>
     <g id="text_20">
      <!-- -10 -->
      <g style="fill: #262626" transform="translate(368.829795 349.135761) rotate(-45) scale(0.1 -0.1)">
       <use xlink:href="#ArialMT-2d"/>
       <use xlink:href="#ArialMT-31" x="33.300781"/>
       <use xlink:href="#ArialMT-30" x="88.916016"/>
      </g>
     </g>
    </g>
    <g id="xtick_21">
     <g id="line2d_21"/>
     <g id="text_21">
      <!-- 0 -->
      <g style="fill: #262626" transform="translate(388.271025 342.849139) rotate(-45) scale(0.1 -0.1)">
       <use xlink:href="#ArialMT-30"/>
      </g>
     </g>
    </g>
    <g id="xtick_22">
     <g id="line2d_22"/>
     <g id="text_22">
      <!-- 10 -->
      <g style="fill: #262626" transform="translate(402.602856 346.781316) rotate(-45) scale(0.1 -0.1)">
       <use xlink:href="#ArialMT-31"/>
       <use xlink:href="#ArialMT-30" x="55.615234"/>
      </g>
     </g>
    </g>
    <g id="xtick_23">
     <g id="line2d_23"/>
     <g id="text_23">
      <!-- 20 -->
      <g style="fill: #262626" transform="translate(418.900775 346.781316) rotate(-45) scale(0.1 -0.1)">
       <use xlink:href="#ArialMT-32"/>
       <use xlink:href="#ArialMT-30" x="55.615234"/>
      </g>
     </g>
    </g>
    <g id="xtick_24">
     <g id="line2d_24"/>
     <g id="text_24">
      <!-- 30 -->
      <g style="fill: #262626" transform="translate(435.198694 346.781316) rotate(-45) scale(0.1 -0.1)">
       <use xlink:href="#ArialMT-33"/>
       <use xlink:href="#ArialMT-30" x="55.615234"/>
      </g>
     </g>
    </g>
    <g id="xtick_25">
     <g id="line2d_25"/>
     <g id="text_25">
      <!-- 40 -->
      <g style="fill: #262626" transform="translate(451.496613 346.781316) rotate(-45) scale(0.1 -0.1)">
       <use xlink:href="#ArialMT-34"/>
       <use xlink:href="#ArialMT-30" x="55.615234"/>
      </g>
     </g>
    </g>
    <g id="xtick_26">
     <g id="line2d_26"/>
     <g id="text_26">
      <!-- 50 -->
      <g style="fill: #262626" transform="translate(467.794531 346.781316) rotate(-45) scale(0.1 -0.1)">
       <use xlink:href="#ArialMT-35"/>
       <use xlink:href="#ArialMT-30" x="55.615234"/>
      </g>
     </g>
    </g>
    <g id="text_27">
     <!-- Position -->
     <g style="fill: #262626" transform="translate(245.793594 366.346906) scale(0.11 -0.11)">
      <defs>
       <path id="ArialMT-50" d="M 494 0 
L 494 4581 
L 2222 4581 
Q 2678 4581 2919 4538 
Q 3256 4481 3484 4323 
Q 3713 4166 3852 3881 
Q 3991 3597 3991 3256 
Q 3991 2672 3619 2267 
Q 3247 1863 2275 1863 
L 1100 1863 
L 1100 0 
L 494 0 
z
M 1100 2403 
L 2284 2403 
Q 2872 2403 3119 2622 
Q 3366 2841 3366 3238 
Q 3366 3525 3220 3729 
Q 3075 3934 2838 4000 
Q 2684 4041 2272 4041 
L 1100 4041 
L 1100 2403 
z
" transform="scale(0.015625)"/>
       <path id="ArialMT-6f" d="M 213 1659 
Q 213 2581 725 3025 
Q 1153 3394 1769 3394 
Q 2453 3394 2887 2945 
Q 3322 2497 3322 1706 
Q 3322 1066 3130 698 
Q 2938 331 2570 128 
Q 2203 -75 1769 -75 
Q 1072 -75 642 372 
Q 213 819 213 1659 
z
M 791 1659 
Q 791 1022 1069 705 
Q 1347 388 1769 388 
Q 2188 388 2466 706 
Q 2744 1025 2744 1678 
Q 2744 2294 2464 2611 
Q 2184 2928 1769 2928 
Q 1347 2928 1069 2612 
Q 791 2297 791 1659 
z
" transform="scale(0.015625)"/>
       <path id="ArialMT-73" d="M 197 991 
L 753 1078 
Q 800 744 1014 566 
Q 1228 388 1613 388 
Q 2000 388 2187 545 
Q 2375 703 2375 916 
Q 2375 1106 2209 1216 
Q 2094 1291 1634 1406 
Q 1016 1563 777 1677 
Q 538 1791 414 1992 
Q 291 2194 291 2438 
Q 291 2659 392 2848 
Q 494 3038 669 3163 
Q 800 3259 1026 3326 
Q 1253 3394 1513 3394 
Q 1903 3394 2198 3281 
Q 2494 3169 2634 2976 
Q 2775 2784 2828 2463 
L 2278 2388 
Q 2241 2644 2061 2787 
Q 1881 2931 1553 2931 
Q 1166 2931 1000 2803 
Q 834 2675 834 2503 
Q 834 2394 903 2306 
Q 972 2216 1119 2156 
Q 1203 2125 1616 2013 
Q 2213 1853 2448 1751 
Q 2684 1650 2818 1456 
Q 2953 1263 2953 975 
Q 2953 694 2789 445 
Q 2625 197 2315 61 
Q 2006 -75 1616 -75 
Q 969 -75 630 194 
Q 291 463 197 991 
z
" transform="scale(0.015625)"/>
       <path id="ArialMT-69" d="M 425 3934 
L 425 4581 
L 988 4581 
L 988 3934 
L 425 3934 
z
M 425 0 
L 425 3319 
L 988 3319 
L 988 0 
L 425 0 
z
" transform="scale(0.015625)"/>
       <path id="ArialMT-74" d="M 1650 503 
L 1731 6 
Q 1494 -44 1306 -44 
Q 1000 -44 831 53 
Q 663 150 594 308 
Q 525 466 525 972 
L 525 2881 
L 113 2881 
L 113 3319 
L 525 3319 
L 525 4141 
L 1084 4478 
L 1084 3319 
L 1650 3319 
L 1650 2881 
L 1084 2881 
L 1084 941 
Q 1084 700 1114 631 
Q 1144 563 1211 522 
Q 1278 481 1403 481 
Q 1497 481 1650 503 
z
" transform="scale(0.015625)"/>
       <path id="ArialMT-6e" d="M 422 0 
L 422 3319 
L 928 3319 
L 928 2847 
Q 1294 3394 1984 3394 
Q 2284 3394 2536 3286 
Q 2788 3178 2913 3003 
Q 3038 2828 3088 2588 
Q 3119 2431 3119 2041 
L 3119 0 
L 2556 0 
L 2556 2019 
Q 2556 2363 2490 2533 
Q 2425 2703 2258 2804 
Q 2091 2906 1866 2906 
Q 1506 2906 1245 2678 
Q 984 2450 984 1813 
L 984 0 
L 422 0 
z
" transform="scale(0.015625)"/>
      </defs>
      <use xlink:href="#ArialMT-50"/>
      <use xlink:href="#ArialMT-6f" x="66.699219"/>
      <use xlink:href="#ArialMT-73" x="122.314453"/>
      <use xlink:href="#ArialMT-69" x="172.314453"/>
      <use xlink:href="#ArialMT-74" x="194.53125"/>
      <use xlink:href="#ArialMT-69" x="222.314453"/>
      <use xlink:href="#ArialMT-6f" x="244.53125"/>
      <use xlink:href="#ArialMT-6e" x="300.146484"/>
     </g>
    </g>
   </g>
   <g id="matplotlib.axis_2">
    <g id="ytick_1">
     <g id="line2d_27"/>
     <g id="text_28">
      <!-- 6.8 -->
      <g style="fill: #262626" transform="translate(21.259844 300.333811) scale(0.1 -0.1)">
       <defs>
        <path id="ArialMT-2e" d="M 581 0 
L 581 641 
L 1222 641 
L 1222 0 
L 581 0 
z
" transform="scale(0.015625)"/>
       </defs>
       <use xlink:href="#ArialMT-36"/>
       <use xlink:href="#ArialMT-2e" x="55.615234"/>
       <use xlink:href="#ArialMT-38" x="83.398438"/>
      </g>
     </g>
    </g>
    <g id="ytick_2">
     <g id="line2d_28"/>
     <g id="text_29">
      <!-- 7.0 -->
      <g style="fill: #262626" transform="translate(21.259844 266.165241) scale(0.1 -0.1)">
       <use xlink:href="#ArialMT-37"/>
       <use xlink:href="#ArialMT-2e" x="55.615234"/>
       <use xlink:href="#ArialMT-30" x="83.398438"/>
      </g>
     </g>
    </g>
    <g id="ytick_3">
     <g id="line2d_29"/>
     <g id="text_30">
      <!-- 7.2 -->
      <g style="fill: #262626" transform="translate(21.259844 231.996671) scale(0.1 -0.1)">
       <use xlink:href="#ArialMT-37"/>
       <use xlink:href="#ArialMT-2e" x="55.615234"/>
       <use xlink:href="#ArialMT-32" x="83.398438"/>
      </g>
     </g>
    </g>
    <g id="ytick_4">
     <g id="line2d_30"/>
     <g id="text_31">
      <!-- 7.4 -->
      <g style="fill: #262626" transform="translate(21.259844 197.828101) scale(0.1 -0.1)">
       <use xlink:href="#ArialMT-37"/>
       <use xlink:href="#ArialMT-2e" x="55.615234"/>
       <use xlink:href="#ArialMT-34" x="83.398438"/>
      </g>
     </g>
    </g>
    <g id="ytick_5">
     <g id="line2d_31"/>
     <g id="text_32">
      <!-- 7.6 -->
      <g style="fill: #262626" transform="translate(21.259844 163.659531) scale(0.1 -0.1)">
       <use xlink:href="#ArialMT-37"/>
       <use xlink:href="#ArialMT-2e" x="55.615234"/>
       <use xlink:href="#ArialMT-36" x="83.398438"/>
      </g>
     </g>
    </g>
    <g id="ytick_6">
     <g id="line2d_32"/>
     <g id="text_33">
      <!-- 7.8 -->
      <g style="fill: #262626" transform="translate(21.259844 129.490961) scale(0.1 -0.1)">
       <use xlink:href="#ArialMT-37"/>
       <use xlink:href="#ArialMT-2e" x="55.615234"/>
       <use xlink:href="#ArialMT-38" x="83.398438"/>
      </g>
     </g>
    </g>
    <g id="ytick_7">
     <g id="line2d_33"/>
     <g id="text_34">
      <!-- 8.0 -->
      <g style="fill: #262626" transform="translate(21.259844 95.322391) scale(0.1 -0.1)">
       <use xlink:href="#ArialMT-38"/>
       <use xlink:href="#ArialMT-2e" x="55.615234"/>
       <use xlink:href="#ArialMT-30" x="83.398438"/>
      </g>
     </g>
    </g>
    <g id="ytick_8">
     <g id="line2d_34"/>
     <g id="text_35">
      <!-- 8.2 -->
      <g style="fill: #262626" transform="translate(21.259844 61.153821) scale(0.1 -0.1)">
       <use xlink:href="#ArialMT-38"/>
       <use xlink:href="#ArialMT-2e" x="55.615234"/>
       <use xlink:href="#ArialMT-32" x="83.398438"/>
      </g>
     </g>
    </g>
    <g id="ytick_9">
     <g id="line2d_35"/>
     <g id="text_36">
      <!-- 8.4 -->
      <g style="fill: #262626" transform="translate(21.259844 26.985251) scale(0.1 -0.1)">
       <use xlink:href="#ArialMT-38"/>
       <use xlink:href="#ArialMT-2e" x="55.615234"/>
       <use xlink:href="#ArialMT-34" x="83.398438"/>
      </g>
     </g>
    </g>
    <g id="text_37">
     <!-- Rise -->
     <g style="fill: #262626" transform="translate(15.073594 185.398203) rotate(-90) scale(0.11 -0.11)">
      <defs>
       <path id="ArialMT-52" d="M 503 0 
L 503 4581 
L 2534 4581 
Q 3147 4581 3465 4457 
Q 3784 4334 3975 4021 
Q 4166 3709 4166 3331 
Q 4166 2844 3850 2509 
Q 3534 2175 2875 2084 
Q 3116 1969 3241 1856 
Q 3506 1613 3744 1247 
L 4541 0 
L 3778 0 
L 3172 953 
Q 2906 1366 2734 1584 
Q 2563 1803 2427 1890 
Q 2291 1978 2150 2013 
Q 2047 2034 1813 2034 
L 1109 2034 
L 1109 0 
L 503 0 
z
M 1109 2559 
L 2413 2559 
Q 2828 2559 3062 2645 
Q 3297 2731 3419 2920 
Q 3541 3109 3541 3331 
Q 3541 3656 3305 3865 
Q 3069 4075 2559 4075 
L 1109 4075 
L 1109 2559 
z
" transform="scale(0.015625)"/>
       <path id="ArialMT-65" d="M 2694 1069 
L 3275 997 
Q 3138 488 2766 206 
Q 2394 -75 1816 -75 
Q 1088 -75 661 373 
Q 234 822 234 1631 
Q 234 2469 665 2931 
Q 1097 3394 1784 3394 
Q 2450 3394 2872 2941 
Q 3294 2488 3294 1666 
Q 3294 1616 3291 1516 
L 816 1516 
Q 847 969 1125 678 
Q 1403 388 1819 388 
Q 2128 388 2347 550 
Q 2566 713 2694 1069 
z
M 847 1978 
L 2700 1978 
Q 2663 2397 2488 2606 
Q 2219 2931 1791 2931 
Q 1403 2931 1139 2672 
Q 875 2413 847 1978 
z
" transform="scale(0.015625)"/>
      </defs>
      <use xlink:href="#ArialMT-52"/>
      <use xlink:href="#ArialMT-69" x="72.216797"/>
      <use xlink:href="#ArialMT-73" x="94.433594"/>
      <use xlink:href="#ArialMT-65" x="144.433594"/>
     </g>
    </g>
   </g>
   <g id="line2d_36">
    <path d="M 62.450753 127.160195 
L 64.080545 127.124102 
L 65.710337 130.854253 
L 67.340129 125.581973 
L 68.96992 126.679342 
L 70.599712 129.019395 
L 72.229504 128.655214 
L 73.859296 129.182022 
L 75.489088 125.560674 
L 77.11888 128.200276 
L 78.748672 126.624048 
L 80.378464 127.274139 
L 82.008256 128.156839 
L 83.638047 127.966408 
L 85.267839 127.084127 
L 86.897631 127.843335 
L 88.527423 124.625199 
L 90.157215 128.024744 
L 91.787007 127.557531 
L 93.416799 127.322822 
L 95.046591 126.755724 
L 96.676383 126.994 
L 98.306175 130.456288 
L 99.935966 125.08108 
L 101.565758 128.841868 
L 103.19555 126.9876 
L 104.825342 125.79811 
L 106.455134 129.200278 
L 108.084926 124.758029 
L 109.714718 126.457854 
L 111.34451 125.667799 
L 112.974302 129.024641 
L 114.604093 125.054325 
L 116.233885 127.123158 
L 117.863677 128.240251 
L 119.493469 127.491325 
L 121.123261 125.365626 
L 122.753053 128.550083 
L 124.382845 125.361219 
L 126.012637 126.07699 
L 127.642429 127.666438 
L 129.272221 124.928001 
L 130.902012 127.955391 
L 132.531804 127.204576 
L 134.161596 127.823505 
L 135.791388 125.529618 
L 137.42118 125.867463 
L 139.050972 127.000925 
L 140.680764 127.548927 
L 142.310556 124.265529 
L 143.940348 128.10312 
L 145.570139 126.019284 
L 147.199931 126.308131 
L 148.829723 128.723937 
L 150.459515 125.767054 
L 152.089307 125.11476 
L 153.719099 126.342021 
L 155.348891 125.70515 
L 156.978683 127.00659 
L 158.608475 126.081397 
L 160.238267 127.512939 
L 161.868058 125.946574 
L 163.49785 124.123466 
L 165.127642 125.130288 
L 168.387226 125.920868 
L 170.017018 124.869035 
L 171.64681 127.706938 
L 173.276602 125.635798 
L 174.906394 125.643981 
L 176.536185 125.130183 
L 178.165977 126.734845 
L 179.795769 123.82696 
L 181.425561 127.478315 
L 183.055353 124.555006 
L 184.685145 126.128926 
L 186.314937 124.950873 
L 187.944729 124.389021 
L 189.574521 125.427844 
L 191.204313 123.438962 
L 194.463896 128.644407 
L 196.093688 122.555003 
L 197.72348 125.584911 
L 199.353272 124.091151 
L 200.983064 123.000182 
L 202.612856 127.746598 
L 204.242648 124.751419 
L 205.87244 123.40203 
L 207.502231 127.856765 
L 209.132023 123.398462 
L 210.761815 125.222724 
L 214.021399 122.920967 
L 215.651191 124.460997 
L 217.280983 125.233531 
L 218.910775 125.40749 
L 220.540567 125.856761 
L 222.170359 122.622257 
L 223.80015 123.648909 
L 225.429942 125.872394 
L 227.059734 122.187045 
L 228.689526 128.490278 
L 230.319318 122.596551 
L 231.94911 126.710818 
L 233.578902 123.356074 
L 235.208694 121.271504 
L 236.838486 127.522907 
L 238.468277 123.121366 
L 240.098069 122.640723 
L 241.727861 126.389235 
L 243.357653 124.103531 
L 244.987445 123.437073 
L 246.617237 122.292175 
L 248.247029 123.38178 
L 249.876821 123.287771 
L 251.506613 127.052336 
L 253.136405 121.467811 
L 254.766196 124.142142 
L 258.02578 123.358383 
L 259.655572 122.218416 
L 261.285364 124.582181 
L 262.915156 123.371393 
L 264.544948 123.937756 
L 266.17474 120.637676 
L 267.804532 122.811534 
L 269.434323 122.148748 
L 271.064115 125.426585 
L 272.693907 121.232054 
L 274.323699 122.965663 
L 275.953491 122.399615 
L 277.583283 125.094091 
L 279.213075 120.150423 
L 280.842867 123.047921 
L 284.102451 122.839234 
L 285.732242 124.485549 
L 287.362034 119.190816 
L 288.991826 124.380733 
L 290.621618 122.270037 
L 292.25141 120.771556 
L 293.881202 124.481142 
L 295.510994 121.988429 
L 297.140786 123.629708 
L 298.770578 123.209605 
L 300.400369 118.175076 
L 302.030161 120.691291 
L 303.659953 123.559831 
L 305.289745 121.868505 
L 306.919537 121.842169 
L 308.549329 122.035958 
L 310.179121 121.971012 
L 311.808913 117.645959 
L 313.438705 118.357533 
L 315.068497 120.969646 
L 316.698288 117.659074 
L 318.32808 122.631385 
L 319.957872 120.086946 
L 321.587664 118.072358 
L 323.217456 119.573148 
L 324.847248 123.07667 
L 326.47704 122.348518 
L 328.106832 131.084764 
L 329.736624 123.953704 
L 332.996207 121.301826 
L 334.625999 117.928931 
L 336.255791 119.571574 
L 337.885583 126.305403 
L 339.515375 124.035857 
L 341.145167 122.280319 
L 342.774959 127.441278 
L 344.404751 130.455134 
L 346.034543 127.413684 
L 347.664334 128.895168 
L 349.294126 121.528141 
L 350.923918 120.143708 
L 352.55371 122.281369 
L 354.183502 121.398878 
L 355.813294 121.679227 
L 357.443086 118.556044 
L 359.072878 118.509249 
L 360.70267 122.347889 
L 362.332461 128.698966 
L 363.962253 125.905759 
L 365.592045 117.758644 
L 367.221837 114.476296 
L 368.851629 121.430669 
L 370.481421 125.109514 
L 372.111213 126.489645 
L 373.741005 124.96147 
L 375.370797 118.364458 
L 377.000589 124.419344 
L 378.63038 116.099634 
L 380.260172 112.558865 
L 381.889964 142.644854 
L 383.519756 97.741083 
L 385.149548 35.795625 
L 386.77934 312.995625 
L 388.409132 84.679889 
L 391.668716 121.982134 
L 393.298507 125.201635 
L 394.928299 126.071535 
L 396.558091 141.386012 
L 398.187883 126.531718 
L 399.817675 116.184829 
L 401.447467 125.252836 
L 403.077259 128.379901 
L 404.707051 132.952043 
L 406.336843 133.000097 
L 407.966635 111.797348 
L 409.596426 115.474619 
L 411.226218 120.566435 
L 412.85601 124.730225 
L 414.485802 130.012157 
L 416.115594 129.895905 
L 417.745386 121.434866 
L 419.375178 127.209717 
L 421.00497 127.137742 
L 422.634762 128.779755 
L 424.264553 129.051186 
L 425.894345 125.319041 
L 427.524137 116.759272 
L 429.153929 122.375168 
L 430.783721 135.356832 
L 432.413513 120.64628 
L 434.043305 119.024306 
L 435.673097 117.756546 
L 437.302889 119.94226 
L 438.932681 121.773866 
L 440.562472 123.140776 
L 442.192264 124.288402 
L 443.822056 123.628344 
L 445.451848 126.85498 
L 447.08164 123.022006 
L 448.711432 124.53675 
L 450.341224 124.518389 
L 451.971016 122.706299 
L 453.600808 126.10343 
L 455.2306 120.892844 
L 456.860391 122.577875 
L 458.490183 119.01329 
L 460.119975 122.579659 
L 461.749767 124.325964 
L 463.379559 121.019169 
L 465.009351 125.591416 
L 466.639143 125.961263 
L 468.268935 123.948143 
L 468.268935 123.948143 
" clip-path="url(#p802bef0f76)" style="fill: none; stroke: #0272a2; stroke-width: 1.75; stroke-linecap: round"/>
   </g>
   <g id="line2d_37">
    <path d="M 62.450753 133.123768 
L 64.080545 134.913137 
L 65.710337 132.910816 
L 67.340129 134.565422 
L 68.96992 132.370523 
L 70.599712 135.054577 
L 72.229504 134.91059 
L 73.859296 132.086473 
L 75.489088 133.689389 
L 77.11888 133.530467 
L 78.748672 135.221001 
L 80.378464 134.490744 
L 82.008256 132.700343 
L 83.638047 133.506928 
L 85.267839 133.264381 
L 86.897631 134.020517 
L 88.527423 135.545452 
L 90.157215 131.300673 
L 91.787007 133.606315 
L 93.416799 135.269455 
L 95.046591 133.307398 
L 96.676383 131.723891 
L 98.306175 137.185398 
L 99.935966 133.959123 
L 101.565758 132.658289 
L 103.19555 134.299542 
L 104.825342 133.23217 
L 108.084926 134.861103 
L 109.714718 133.585185 
L 111.34451 133.644721 
L 112.974302 134.568932 
L 116.233885 133.898349 
L 117.863677 133.81672 
L 119.493469 133.563436 
L 121.123261 132.881221 
L 122.753053 134.830751 
L 124.382845 133.950244 
L 126.012637 133.78444 
L 127.642429 134.430658 
L 129.272221 132.831803 
L 130.902012 133.460401 
L 132.531804 133.753949 
L 134.161596 135.56376 
L 135.791388 134.470165 
L 137.42118 134.077231 
L 139.050972 132.194119 
L 140.680764 134.000695 
L 142.310556 134.157827 
L 143.940348 135.506083 
L 147.199931 132.548648 
L 148.829723 134.586689 
L 150.459515 133.837368 
L 152.089307 133.87949 
L 153.719099 133.289848 
L 155.348891 134.883472 
L 156.978683 135.304626 
L 158.608475 132.352421 
L 160.238267 133.196518 
L 161.868058 133.868409 
L 163.49785 135.11659 
L 165.127642 132.450913 
L 166.757434 134.882371 
L 168.387226 136.014647 
L 170.017018 132.044695 
L 171.64681 133.271333 
L 173.276602 133.847279 
L 174.906394 133.568047 
L 176.536185 132.792846 
L 178.165977 135.166971 
L 179.795769 134.851124 
L 181.425561 133.095135 
L 183.055353 132.649135 
L 184.685145 132.318627 
L 186.314937 135.137307 
L 187.944729 132.281529 
L 189.574521 134.46872 
L 192.834104 134.80143 
L 194.463896 130.859284 
L 196.093688 136.210873 
L 197.72348 134.032286 
L 199.353272 134.858419 
L 200.983064 131.009259 
L 202.612856 135.457766 
L 204.242648 134.400237 
L 205.87244 133.661996 
L 207.502231 133.330456 
L 209.132023 132.682723 
L 210.761815 135.800595 
L 212.391607 133.828627 
L 214.021399 133.721669 
L 215.651191 132.385665 
L 217.280983 135.804793 
L 218.910775 134.237667 
L 220.540567 133.466871 
L 222.170359 134.098567 
L 223.80015 133.589659 
L 225.429942 134.284332 
L 227.059734 132.552364 
L 228.689526 136.595962 
L 230.319318 134.626472 
L 231.94911 133.136019 
L 233.578902 132.73923 
L 235.208694 134.614427 
L 236.838486 134.948101 
L 238.468277 132.616718 
L 240.098069 133.227284 
L 241.727861 134.38124 
L 243.357653 133.985484 
L 244.987445 137.091311 
L 246.617237 130.958533 
L 248.247029 134.767911 
L 249.876821 133.87247 
L 251.506613 134.688898 
L 253.136405 134.528049 
L 254.766196 133.645409 
L 256.395988 133.739633 
L 258.02578 133.319856 
L 259.655572 134.366718 
L 261.285364 133.214482 
L 262.915156 133.266446 
L 264.544948 134.269534 
L 266.17474 134.612637 
L 267.804532 135.094083 
L 269.434323 132.259229 
L 271.064115 134.773555 
L 272.693907 133.690078 
L 274.323699 133.612509 
L 275.953491 134.262376 
L 277.583283 134.401407 
L 279.213075 134.11832 
L 280.842867 132.578656 
L 282.472659 136.016643 
L 284.102451 132.328607 
L 285.732242 134.804046 
L 287.362034 132.928849 
L 288.991826 134.431828 
L 290.621618 133.513261 
L 292.25141 133.710863 
L 293.881202 133.541549 
L 295.510994 134.83488 
L 297.140786 132.92176 
L 298.770578 134.120592 
L 300.400369 132.946331 
L 302.030161 136.405035 
L 303.659953 133.785679 
L 305.289745 134.429419 
L 306.919537 133.287852 
L 308.549329 135.152105 
L 310.179121 133.356197 
L 311.808913 133.048884 
L 313.438705 133.062511 
L 315.068497 132.541902 
L 316.698288 135.029455 
L 318.32808 133.149922 
L 319.957872 134.053829 
L 321.587664 134.519376 
L 323.217456 131.737244 
L 324.847248 135.40883 
L 326.47704 133.947973 
L 328.106832 133.722839 
L 329.736624 133.700746 
L 331.366415 133.166234 
L 332.996207 135.069787 
L 334.625999 135.117209 
L 336.255791 133.281932 
L 337.885583 134.5403 
L 339.515375 134.863099 
L 341.145167 131.360897 
L 342.774959 135.32142 
L 344.404751 134.596669 
L 346.034543 132.541145 
L 347.664334 134.369677 
L 349.294126 133.755601 
L 350.923918 132.200933 
L 352.55371 134.851055 
L 354.183502 132.320072 
L 355.813294 135.454531 
L 357.443086 133.362185 
L 359.072878 132.10251 
L 360.70267 135.987185 
L 362.332461 134.607131 
L 363.962253 132.507214 
L 365.592045 134.185633 
L 367.221837 134.51738 
L 368.851629 134.113021 
L 370.481421 133.072767 
L 372.111213 135.844231 
L 373.741005 134.901643 
L 375.370797 132.344713 
L 377.000589 134.968405 
L 378.63038 132.046209 
L 380.260172 135.551991 
L 381.889964 132.306651 
L 383.519756 134.70225 
L 385.149548 133.342225 
L 386.77934 133.56199 
L 388.409132 134.371329 
L 390.038924 133.755188 
L 391.668716 135.301322 
L 393.298507 135.315088 
L 394.928299 130.749711 
L 396.558091 134.526741 
L 398.187883 135.449507 
L 399.817675 132.400463 
L 401.447467 133.460126 
L 403.077259 134.175034 
L 404.707051 134.49453 
L 406.336843 133.909361 
L 407.966635 134.045088 
L 409.596426 134.430727 
L 411.226218 134.317919 
L 412.85601 133.017774 
L 414.485802 133.918171 
L 416.115594 134.516348 
L 417.745386 133.523516 
L 419.375178 134.490676 
L 421.00497 133.556484 
L 424.264553 134.065048 
L 425.894345 132.644661 
L 427.524137 134.255149 
L 429.153929 135.237244 
L 430.783721 133.235681 
L 432.413513 135.263536 
L 434.043305 132.843572 
L 435.673097 134.010881 
L 437.302889 133.979427 
L 438.932681 133.353031 
L 440.562472 134.724826 
L 442.192264 134.663914 
L 443.822056 133.422684 
L 445.451848 133.568047 
L 447.08164 133.00332 
L 448.711432 133.268373 
L 450.341224 134.393285 
L 451.971016 134.711817 
L 453.600808 134.827791 
L 455.2306 134.330721 
L 456.860391 133.985553 
L 458.490183 132.395782 
L 460.119975 133.1248 
L 461.749767 134.912724 
L 463.379559 133.056592 
L 465.009351 134.024784 
L 466.639143 133.492337 
L 468.268935 135.481305 
L 468.268935 135.481305 
" clip-path="url(#p802bef0f76)" style="fill: none; stroke-dasharray: 1.75,2.8875; stroke-dashoffset: 0; stroke: #9fc377; stroke-width: 1.75"/>
   </g>
   <g id="patch_3">
    <path d="M 42.159844 326.855625 
L 42.159844 21.935625 
" style="fill: none; stroke: #cccccc; stroke-width: 1.25; stroke-linejoin: miter; stroke-linecap: square"/>
   </g>
   <g id="patch_4">
    <path d="M 488.559844 326.855625 
L 488.559844 21.935625 
" style="fill: none; stroke: #cccccc; stroke-width: 1.25; stroke-linejoin: miter; stroke-linecap: square"/>
   </g>
   <g id="patch_5">
    <path d="M 42.159844 326.855625 
L 488.559844 326.855625 
" style="fill: none; stroke: #cccccc; stroke-width: 1.25; stroke-linejoin: miter; stroke-linecap: square"/>
   </g>
   <g id="patch_6">
    <path d="M 42.159844 21.935625 
L 488.559844 21.935625 
" style="fill: none; stroke: #cccccc; stroke-width: 1.25; stroke-linejoin: miter; stroke-linecap: square"/>
   </g>
   <g id="text_38">
    <!-- "Rise" for dataset Mouse_non_tata -->
    <g style="fill: #262626" transform="translate(172.717969 15.935625) scale(0.12 -0.12)">
     <defs>
      <path id="ArialMT-22" d="M 450 2959 
L 294 3831 
L 294 4581 
L 934 4581 
L 934 3831 
L 794 2959 
L 450 2959 
z
M 1484 2959 
L 1331 3831 
L 1331 4581 
L 1972 4581 
L 1972 3831 
L 1822 2959 
L 1484 2959 
z
" transform="scale(0.015625)"/>
      <path id="ArialMT-20" transform="scale(0.015625)"/>
      <path id="ArialMT-66" d="M 556 0 
L 556 2881 
L 59 2881 
L 59 3319 
L 556 3319 
L 556 3672 
Q 556 4006 616 4169 
Q 697 4388 901 4523 
Q 1106 4659 1475 4659 
Q 1713 4659 2000 4603 
L 1916 4113 
Q 1741 4144 1584 4144 
Q 1328 4144 1222 4034 
Q 1116 3925 1116 3625 
L 1116 3319 
L 1763 3319 
L 1763 2881 
L 1116 2881 
L 1116 0 
L 556 0 
z
" transform="scale(0.015625)"/>
      <path id="ArialMT-72" d="M 416 0 
L 416 3319 
L 922 3319 
L 922 2816 
Q 1116 3169 1280 3281 
Q 1444 3394 1641 3394 
Q 1925 3394 2219 3213 
L 2025 2691 
Q 1819 2813 1613 2813 
Q 1428 2813 1281 2702 
Q 1134 2591 1072 2394 
Q 978 2094 978 1738 
L 978 0 
L 416 0 
z
" transform="scale(0.015625)"/>
      <path id="ArialMT-64" d="M 2575 0 
L 2575 419 
Q 2259 -75 1647 -75 
Q 1250 -75 917 144 
Q 584 363 401 755 
Q 219 1147 219 1656 
Q 219 2153 384 2558 
Q 550 2963 881 3178 
Q 1213 3394 1622 3394 
Q 1922 3394 2156 3267 
Q 2391 3141 2538 2938 
L 2538 4581 
L 3097 4581 
L 3097 0 
L 2575 0 
z
M 797 1656 
Q 797 1019 1065 703 
Q 1334 388 1700 388 
Q 2069 388 2326 689 
Q 2584 991 2584 1609 
Q 2584 2291 2321 2609 
Q 2059 2928 1675 2928 
Q 1300 2928 1048 2622 
Q 797 2316 797 1656 
z
" transform="scale(0.015625)"/>
      <path id="ArialMT-61" d="M 2588 409 
Q 2275 144 1986 34 
Q 1697 -75 1366 -75 
Q 819 -75 525 192 
Q 231 459 231 875 
Q 231 1119 342 1320 
Q 453 1522 633 1644 
Q 813 1766 1038 1828 
Q 1203 1872 1538 1913 
Q 2219 1994 2541 2106 
Q 2544 2222 2544 2253 
Q 2544 2597 2384 2738 
Q 2169 2928 1744 2928 
Q 1347 2928 1158 2789 
Q 969 2650 878 2297 
L 328 2372 
Q 403 2725 575 2942 
Q 747 3159 1072 3276 
Q 1397 3394 1825 3394 
Q 2250 3394 2515 3294 
Q 2781 3194 2906 3042 
Q 3031 2891 3081 2659 
Q 3109 2516 3109 2141 
L 3109 1391 
Q 3109 606 3145 398 
Q 3181 191 3288 0 
L 2700 0 
Q 2613 175 2588 409 
z
M 2541 1666 
Q 2234 1541 1622 1453 
Q 1275 1403 1131 1340 
Q 988 1278 909 1158 
Q 831 1038 831 891 
Q 831 666 1001 516 
Q 1172 366 1500 366 
Q 1825 366 2078 508 
Q 2331 650 2450 897 
Q 2541 1088 2541 1459 
L 2541 1666 
z
" transform="scale(0.015625)"/>
      <path id="ArialMT-4d" d="M 475 0 
L 475 4581 
L 1388 4581 
L 2472 1338 
Q 2622 884 2691 659 
Q 2769 909 2934 1394 
L 4031 4581 
L 4847 4581 
L 4847 0 
L 4263 0 
L 4263 3834 
L 2931 0 
L 2384 0 
L 1059 3900 
L 1059 0 
L 475 0 
z
" transform="scale(0.015625)"/>
      <path id="ArialMT-75" d="M 2597 0 
L 2597 488 
Q 2209 -75 1544 -75 
Q 1250 -75 995 37 
Q 741 150 617 320 
Q 494 491 444 738 
Q 409 903 409 1263 
L 409 3319 
L 972 3319 
L 972 1478 
Q 972 1038 1006 884 
Q 1059 663 1231 536 
Q 1403 409 1656 409 
Q 1909 409 2131 539 
Q 2353 669 2445 892 
Q 2538 1116 2538 1541 
L 2538 3319 
L 3100 3319 
L 3100 0 
L 2597 0 
z
" transform="scale(0.015625)"/>
      <path id="ArialMT-5f" d="M -97 -1272 
L -97 -866 
L 3631 -866 
L 3631 -1272 
L -97 -1272 
z
" transform="scale(0.015625)"/>
     </defs>
     <use xlink:href="#ArialMT-22"/>
     <use xlink:href="#ArialMT-52" x="35.498047"/>
     <use xlink:href="#ArialMT-69" x="107.714844"/>
     <use xlink:href="#ArialMT-73" x="129.931641"/>
     <use xlink:href="#ArialMT-65" x="179.931641"/>
     <use xlink:href="#ArialMT-22" x="235.546875"/>
     <use xlink:href="#ArialMT-20" x="271.044922"/>
     <use xlink:href="#ArialMT-66" x="298.828125"/>
     <use xlink:href="#ArialMT-6f" x="326.611328"/>
     <use xlink:href="#ArialMT-72" x="382.226562"/>
     <use xlink:href="#ArialMT-20" x="415.527344"/>
     <use xlink:href="#ArialMT-64" x="443.310547"/>
     <use xlink:href="#ArialMT-61" x="498.925781"/>
     <use xlink:href="#ArialMT-74" x="554.541016"/>
     <use xlink:href="#ArialMT-61" x="582.324219"/>
     <use xlink:href="#ArialMT-73" x="637.939453"/>
     <use xlink:href="#ArialMT-65" x="687.939453"/>
     <use xlink:href="#ArialMT-74" x="743.554688"/>
     <use xlink:href="#ArialMT-20" x="771.337891"/>
     <use xlink:href="#ArialMT-4d" x="799.121094"/>
     <use xlink:href="#ArialMT-6f" x="882.421875"/>
     <use xlink:href="#ArialMT-75" x="938.037109"/>
     <use xlink:href="#ArialMT-73" x="993.652344"/>
     <use xlink:href="#ArialMT-65" x="1043.652344"/>
     <use xlink:href="#ArialMT-5f" x="1099.267578"/>
     <use xlink:href="#ArialMT-6e" x="1154.882812"/>
     <use xlink:href="#ArialMT-6f" x="1210.498047"/>
     <use xlink:href="#ArialMT-6e" x="1266.113281"/>
     <use xlink:href="#ArialMT-5f" x="1321.728516"/>
     <use xlink:href="#ArialMT-74" x="1377.34375"/>
     <use xlink:href="#ArialMT-61" x="1405.126953"/>
     <use xlink:href="#ArialMT-74" x="1460.742188"/>
     <use xlink:href="#ArialMT-61" x="1488.525391"/>
    </g>
   </g>
   <g id="legend_1">
    <g id="line2d_38">
     <path d="M 51.159844 34.593437 
L 61.159844 34.593437 
L 71.159844 34.593437 
" style="fill: none; stroke: #0272a2; stroke-width: 1.75; stroke-linecap: round"/>
    </g>
    <g id="text_39">
     <!-- Promoter -->
     <g style="fill: #262626" transform="translate(79.159844 38.093437) scale(0.1 -0.1)">
      <defs>
       <path id="ArialMT-6d" d="M 422 0 
L 422 3319 
L 925 3319 
L 925 2853 
Q 1081 3097 1340 3245 
Q 1600 3394 1931 3394 
Q 2300 3394 2536 3241 
Q 2772 3088 2869 2813 
Q 3263 3394 3894 3394 
Q 4388 3394 4653 3120 
Q 4919 2847 4919 2278 
L 4919 0 
L 4359 0 
L 4359 2091 
Q 4359 2428 4304 2576 
Q 4250 2725 4106 2815 
Q 3963 2906 3769 2906 
Q 3419 2906 3187 2673 
Q 2956 2441 2956 1928 
L 2956 0 
L 2394 0 
L 2394 2156 
Q 2394 2531 2256 2718 
Q 2119 2906 1806 2906 
Q 1569 2906 1367 2781 
Q 1166 2656 1075 2415 
Q 984 2175 984 1722 
L 984 0 
L 422 0 
z
" transform="scale(0.015625)"/>
      </defs>
      <use xlink:href="#ArialMT-50"/>
      <use xlink:href="#ArialMT-72" x="66.699219"/>
      <use xlink:href="#ArialMT-6f" x="100"/>
      <use xlink:href="#ArialMT-6d" x="155.615234"/>
      <use xlink:href="#ArialMT-6f" x="238.916016"/>
      <use xlink:href="#ArialMT-74" x="294.53125"/>
      <use xlink:href="#ArialMT-65" x="322.314453"/>
      <use xlink:href="#ArialMT-72" x="377.929688"/>
     </g>
    </g>
    <g id="line2d_39">
     <path d="M 51.159844 48.73875 
L 61.159844 48.73875 
L 71.159844 48.73875 
" style="fill: none; stroke-dasharray: 1.75,2.8875; stroke-dashoffset: 0; stroke: #9fc377; stroke-width: 1.75"/>
    </g>
    <g id="text_40">
     <!-- Non-promoter -->
     <g style="fill: #262626" transform="translate(79.159844 52.23875) scale(0.1 -0.1)">
      <defs>
       <path id="ArialMT-4e" d="M 488 0 
L 488 4581 
L 1109 4581 
L 3516 984 
L 3516 4581 
L 4097 4581 
L 4097 0 
L 3475 0 
L 1069 3600 
L 1069 0 
L 488 0 
z
" transform="scale(0.015625)"/>
       <path id="ArialMT-70" d="M 422 -1272 
L 422 3319 
L 934 3319 
L 934 2888 
Q 1116 3141 1344 3267 
Q 1572 3394 1897 3394 
Q 2322 3394 2647 3175 
Q 2972 2956 3137 2557 
Q 3303 2159 3303 1684 
Q 3303 1175 3120 767 
Q 2938 359 2589 142 
Q 2241 -75 1856 -75 
Q 1575 -75 1351 44 
Q 1128 163 984 344 
L 984 -1272 
L 422 -1272 
z
M 931 1641 
Q 931 1000 1190 694 
Q 1450 388 1819 388 
Q 2194 388 2461 705 
Q 2728 1022 2728 1688 
Q 2728 2322 2467 2637 
Q 2206 2953 1844 2953 
Q 1484 2953 1207 2617 
Q 931 2281 931 1641 
z
" transform="scale(0.015625)"/>
      </defs>
      <use xlink:href="#ArialMT-4e"/>
      <use xlink:href="#ArialMT-6f" x="72.216797"/>
      <use xlink:href="#ArialMT-6e" x="127.832031"/>
      <use xlink:href="#ArialMT-2d" x="183.447266"/>
      <use xlink:href="#ArialMT-70" x="216.748047"/>
      <use xlink:href="#ArialMT-72" x="272.363281"/>
      <use xlink:href="#ArialMT-6f" x="305.664062"/>
      <use xlink:href="#ArialMT-6d" x="361.279297"/>
      <use xlink:href="#ArialMT-6f" x="444.580078"/>
      <use xlink:href="#ArialMT-74" x="500.195312"/>
      <use xlink:href="#ArialMT-65" x="527.978516"/>
      <use xlink:href="#ArialMT-72" x="583.59375"/>
     </g>
    </g>
   </g>
  </g>
 </g>
 <defs>
  <clipPath id="p802bef0f76">
   <rect x="42.159844" y="21.935625" width="446.4" height="304.92"/>
  </clipPath>
 </defs>
</svg>
