<?xml version="1.0" encoding="utf-8" standalone="no"?>
<!DOCTYPE svg PUBLIC "-//W3C//DTD SVG 1.1//EN"
  "http://www.w3.org/Graphics/SVG/1.1/DTD/svg11.dtd">
<svg xmlns:xlink="http://www.w3.org/1999/xlink" width="493.115781pt" height="375.733156pt" viewBox="0 0 493.115781 375.733156" xmlns="http://www.w3.org/2000/svg" version="1.1">
 <metadata>
  <rdf:RDF xmlns:dc="http://purl.org/dc/elements/1.1/" xmlns:cc="http://creativecommons.org/ns#" xmlns:rdf="http://www.w3.org/1999/02/22-rdf-syntax-ns#">
   <cc:Work>
    <dc:type rdf:resource="http://purl.org/dc/dcmitype/StillImage"/>
    <dc:date>2023-05-11T16:25:43.799268</dc:date>
    <dc:format>image/svg+xml</dc:format>
    <dc:creator>
     <cc:Agent>
      <dc:title>Matplotlib v3.7.1, https://matplotlib.org/</dc:title>
     </cc:Agent>
    </dc:creator>
   </cc:Work>
  </rdf:RDF>
 </metadata>
 <defs>
  <style type="text/css">*{stroke-linejoin: round; stroke-linecap: butt}</style>
 </defs>
 <g id="figure_1">
  <g id="patch_1">
   <path d="M 0 375.733156 
L 493.115781 375.733156 
L 493.115781 0 
L 0 0 
z
" style="fill: #ffffff"/>
  </g>
  <g id="axes_1">
   <g id="patch_2">
    <path d="M 39.515781 326.855625 
L 485.915781 326.855625 
L 485.915781 21.935625 
L 39.515781 21.935625 
z
" style="fill: #ffffff"/>
   </g>
   <g id="matplotlib.axis_1">
    <g id="xtick_1">
     <g id="line2d_1"/>
     <g id="text_1">
      <!-- -200 -->
      <g style="fill: #262626" transform="translate(54.559185 353.067937) rotate(-45) scale(0.1 -0.1)">
       <defs>
        <path id="ArialMT-2d" d="M 203 1375 
L 203 1941 
L 1931 1941 
L 1931 1375 
L 203 1375 
z
" transform="scale(0.015625)"/>
        <path id="ArialMT-32" d="M 3222 541 
L 3222 0 
L 194 0 
Q 188 203 259 391 
Q 375 700 629 1000 
Q 884 1300 1366 1694 
Q 2113 2306 2375 2664 
Q 2638 3022 2638 3341 
Q 2638 3675 2398 3904 
Q 2159 4134 1775 4134 
Q 1369 4134 1125 3890 
Q 881 3647 878 3216 
L 300 3275 
Q 359 3922 746 4261 
Q 1134 4600 1788 4600 
Q 2447 4600 2831 4234 
Q 3216 3869 3216 3328 
Q 3216 3053 3103 2787 
Q 2991 2522 2730 2228 
Q 2469 1934 1863 1422 
Q 1356 997 1212 845 
Q 1069 694 975 541 
L 3222 541 
z
" transform="scale(0.015625)"/>
        <path id="ArialMT-30" d="M 266 2259 
Q 266 3072 433 3567 
Q 600 4063 929 4331 
Q 1259 4600 1759 4600 
Q 2128 4600 2406 4451 
Q 2684 4303 2865 4023 
Q 3047 3744 3150 3342 
Q 3253 2941 3253 2259 
Q 3253 1453 3087 958 
Q 2922 463 2592 192 
Q 2263 -78 1759 -78 
Q 1097 -78 719 397 
Q 266 969 266 2259 
z
M 844 2259 
Q 844 1131 1108 757 
Q 1372 384 1759 384 
Q 2147 384 2411 759 
Q 2675 1134 2675 2259 
Q 2675 3391 2411 3762 
Q 2147 4134 1753 4134 
Q 1366 4134 1134 3806 
Q 844 3388 844 2259 
z
" transform="scale(0.015625)"/>
       </defs>
       <use xlink:href="#ArialMT-2d"/>
       <use xlink:href="#ArialMT-32" x="33.300781"/>
       <use xlink:href="#ArialMT-30" x="88.916016"/>
       <use xlink:href="#ArialMT-30" x="144.53125"/>
      </g>
     </g>
    </g>
    <g id="xtick_2">
     <g id="line2d_2"/>
     <g id="text_2">
      <!-- -190 -->
      <g style="fill: #262626" transform="translate(70.857104 353.067937) rotate(-45) scale(0.1 -0.1)">
       <defs>
        <path id="ArialMT-31" d="M 2384 0 
L 1822 0 
L 1822 3584 
Q 1619 3391 1289 3197 
Q 959 3003 697 2906 
L 697 3450 
Q 1169 3672 1522 3987 
Q 1875 4303 2022 4600 
L 2384 4600 
L 2384 0 
z
" transform="scale(0.015625)"/>
        <path id="ArialMT-39" d="M 350 1059 
L 891 1109 
Q 959 728 1153 556 
Q 1347 384 1650 384 
Q 1909 384 2104 503 
Q 2300 622 2425 820 
Q 2550 1019 2634 1356 
Q 2719 1694 2719 2044 
Q 2719 2081 2716 2156 
Q 2547 1888 2255 1720 
Q 1963 1553 1622 1553 
Q 1053 1553 659 1965 
Q 266 2378 266 3053 
Q 266 3750 677 4175 
Q 1088 4600 1706 4600 
Q 2153 4600 2523 4359 
Q 2894 4119 3086 3673 
Q 3278 3228 3278 2384 
Q 3278 1506 3087 986 
Q 2897 466 2520 194 
Q 2144 -78 1638 -78 
Q 1100 -78 759 220 
Q 419 519 350 1059 
z
M 2653 3081 
Q 2653 3566 2395 3850 
Q 2138 4134 1775 4134 
Q 1400 4134 1122 3828 
Q 844 3522 844 3034 
Q 844 2597 1108 2323 
Q 1372 2050 1759 2050 
Q 2150 2050 2401 2323 
Q 2653 2597 2653 3081 
z
" transform="scale(0.015625)"/>
       </defs>
       <use xlink:href="#ArialMT-2d"/>
       <use xlink:href="#ArialMT-31" x="33.300781"/>
       <use xlink:href="#ArialMT-39" x="88.916016"/>
       <use xlink:href="#ArialMT-30" x="144.53125"/>
      </g>
     </g>
    </g>
    <g id="xtick_3">
     <g id="line2d_3"/>
     <g id="text_3">
      <!-- -180 -->
      <g style="fill: #262626" transform="translate(87.155023 353.067937) rotate(-45) scale(0.1 -0.1)">
       <defs>
        <path id="ArialMT-38" d="M 1131 2484 
Q 781 2613 612 2850 
Q 444 3088 444 3419 
Q 444 3919 803 4259 
Q 1163 4600 1759 4600 
Q 2359 4600 2725 4251 
Q 3091 3903 3091 3403 
Q 3091 3084 2923 2848 
Q 2756 2613 2416 2484 
Q 2838 2347 3058 2040 
Q 3278 1734 3278 1309 
Q 3278 722 2862 322 
Q 2447 -78 1769 -78 
Q 1091 -78 675 323 
Q 259 725 259 1325 
Q 259 1772 486 2073 
Q 713 2375 1131 2484 
z
M 1019 3438 
Q 1019 3113 1228 2906 
Q 1438 2700 1772 2700 
Q 2097 2700 2305 2904 
Q 2513 3109 2513 3406 
Q 2513 3716 2298 3927 
Q 2084 4138 1766 4138 
Q 1444 4138 1231 3931 
Q 1019 3725 1019 3438 
z
M 838 1322 
Q 838 1081 952 856 
Q 1066 631 1291 507 
Q 1516 384 1775 384 
Q 2178 384 2440 643 
Q 2703 903 2703 1303 
Q 2703 1709 2433 1975 
Q 2163 2241 1756 2241 
Q 1359 2241 1098 1978 
Q 838 1716 838 1322 
z
" transform="scale(0.015625)"/>
       </defs>
       <use xlink:href="#ArialMT-2d"/>
       <use xlink:href="#ArialMT-31" x="33.300781"/>
       <use xlink:href="#ArialMT-38" x="88.916016"/>
       <use xlink:href="#ArialMT-30" x="144.53125"/>
      </g>
     </g>
    </g>
    <g id="xtick_4">
     <g id="line2d_4"/>
     <g id="text_4">
      <!-- -170 -->
      <g style="fill: #262626" transform="translate(103.452941 353.067937) rotate(-45) scale(0.1 -0.1)">
       <defs>
        <path id="ArialMT-37" d="M 303 3981 
L 303 4522 
L 3269 4522 
L 3269 4084 
Q 2831 3619 2401 2847 
Q 1972 2075 1738 1259 
Q 1569 684 1522 0 
L 944 0 
Q 953 541 1156 1306 
Q 1359 2072 1739 2783 
Q 2119 3494 2547 3981 
L 303 3981 
z
" transform="scale(0.015625)"/>
       </defs>
       <use xlink:href="#ArialMT-2d"/>
       <use xlink:href="#ArialMT-31" x="33.300781"/>
       <use xlink:href="#ArialMT-37" x="88.916016"/>
       <use xlink:href="#ArialMT-30" x="144.53125"/>
      </g>
     </g>
    </g>
    <g id="xtick_5">
     <g id="line2d_5"/>
     <g id="text_5">
      <!-- -160 -->
      <g style="fill: #262626" transform="translate(119.75086 353.067937) rotate(-45) scale(0.1 -0.1)">
       <defs>
        <path id="ArialMT-36" d="M 3184 3459 
L 2625 3416 
Q 2550 3747 2413 3897 
Q 2184 4138 1850 4138 
Q 1581 4138 1378 3988 
Q 1113 3794 959 3422 
Q 806 3050 800 2363 
Q 1003 2672 1297 2822 
Q 1591 2972 1913 2972 
Q 2475 2972 2870 2558 
Q 3266 2144 3266 1488 
Q 3266 1056 3080 686 
Q 2894 316 2569 119 
Q 2244 -78 1831 -78 
Q 1128 -78 684 439 
Q 241 956 241 2144 
Q 241 3472 731 4075 
Q 1159 4600 1884 4600 
Q 2425 4600 2770 4297 
Q 3116 3994 3184 3459 
z
M 888 1484 
Q 888 1194 1011 928 
Q 1134 663 1356 523 
Q 1578 384 1822 384 
Q 2178 384 2434 671 
Q 2691 959 2691 1453 
Q 2691 1928 2437 2201 
Q 2184 2475 1800 2475 
Q 1419 2475 1153 2201 
Q 888 1928 888 1484 
z
" transform="scale(0.015625)"/>
       </defs>
       <use xlink:href="#ArialMT-2d"/>
       <use xlink:href="#ArialMT-31" x="33.300781"/>
       <use xlink:href="#ArialMT-36" x="88.916016"/>
       <use xlink:href="#ArialMT-30" x="144.53125"/>
      </g>
     </g>
    </g>
    <g id="xtick_6">
     <g id="line2d_6"/>
     <g id="text_6">
      <!-- -150 -->
      <g style="fill: #262626" transform="translate(136.048779 353.067937) rotate(-45) scale(0.1 -0.1)">
       <defs>
        <path id="ArialMT-35" d="M 266 1200 
L 856 1250 
Q 922 819 1161 601 
Q 1400 384 1738 384 
Q 2144 384 2425 690 
Q 2706 997 2706 1503 
Q 2706 1984 2436 2262 
Q 2166 2541 1728 2541 
Q 1456 2541 1237 2417 
Q 1019 2294 894 2097 
L 366 2166 
L 809 4519 
L 3088 4519 
L 3088 3981 
L 1259 3981 
L 1013 2750 
Q 1425 3038 1878 3038 
Q 2478 3038 2890 2622 
Q 3303 2206 3303 1553 
Q 3303 931 2941 478 
Q 2500 -78 1738 -78 
Q 1113 -78 717 272 
Q 322 622 266 1200 
z
" transform="scale(0.015625)"/>
       </defs>
       <use xlink:href="#ArialMT-2d"/>
       <use xlink:href="#ArialMT-31" x="33.300781"/>
       <use xlink:href="#ArialMT-35" x="88.916016"/>
       <use xlink:href="#ArialMT-30" x="144.53125"/>
      </g>
     </g>
    </g>
    <g id="xtick_7">
     <g id="line2d_7"/>
     <g id="text_7">
      <!-- -140 -->
      <g style="fill: #262626" transform="translate(152.346698 353.067937) rotate(-45) scale(0.1 -0.1)">
       <defs>
        <path id="ArialMT-34" d="M 2069 0 
L 2069 1097 
L 81 1097 
L 81 1613 
L 2172 4581 
L 2631 4581 
L 2631 1613 
L 3250 1613 
L 3250 1097 
L 2631 1097 
L 2631 0 
L 2069 0 
z
M 2069 1613 
L 2069 3678 
L 634 1613 
L 2069 1613 
z
" transform="scale(0.015625)"/>
       </defs>
       <use xlink:href="#ArialMT-2d"/>
       <use xlink:href="#ArialMT-31" x="33.300781"/>
       <use xlink:href="#ArialMT-34" x="88.916016"/>
       <use xlink:href="#ArialMT-30" x="144.53125"/>
      </g>
     </g>
    </g>
    <g id="xtick_8">
     <g id="line2d_8"/>
     <g id="text_8">
      <!-- -130 -->
      <g style="fill: #262626" transform="translate(168.644617 353.067937) rotate(-45) scale(0.1 -0.1)">
       <defs>
        <path id="ArialMT-33" d="M 269 1209 
L 831 1284 
Q 928 806 1161 595 
Q 1394 384 1728 384 
Q 2125 384 2398 659 
Q 2672 934 2672 1341 
Q 2672 1728 2419 1979 
Q 2166 2231 1775 2231 
Q 1616 2231 1378 2169 
L 1441 2663 
Q 1497 2656 1531 2656 
Q 1891 2656 2178 2843 
Q 2466 3031 2466 3422 
Q 2466 3731 2256 3934 
Q 2047 4138 1716 4138 
Q 1388 4138 1169 3931 
Q 950 3725 888 3313 
L 325 3413 
Q 428 3978 793 4289 
Q 1159 4600 1703 4600 
Q 2078 4600 2393 4439 
Q 2709 4278 2876 4000 
Q 3044 3722 3044 3409 
Q 3044 3113 2884 2869 
Q 2725 2625 2413 2481 
Q 2819 2388 3044 2092 
Q 3269 1797 3269 1353 
Q 3269 753 2831 336 
Q 2394 -81 1725 -81 
Q 1122 -81 723 278 
Q 325 638 269 1209 
z
" transform="scale(0.015625)"/>
       </defs>
       <use xlink:href="#ArialMT-2d"/>
       <use xlink:href="#ArialMT-31" x="33.300781"/>
       <use xlink:href="#ArialMT-33" x="88.916016"/>
       <use xlink:href="#ArialMT-30" x="144.53125"/>
      </g>
     </g>
    </g>
    <g id="xtick_9">
     <g id="line2d_9"/>
     <g id="text_9">
      <!-- -120 -->
      <g style="fill: #262626" transform="translate(184.942536 353.067937) rotate(-45) scale(0.1 -0.1)">
       <use xlink:href="#ArialMT-2d"/>
       <use xlink:href="#ArialMT-31" x="33.300781"/>
       <use xlink:href="#ArialMT-32" x="88.916016"/>
       <use xlink:href="#ArialMT-30" x="144.53125"/>
      </g>
     </g>
    </g>
    <g id="xtick_10">
     <g id="line2d_10"/>
     <g id="text_10">
      <!-- -110 -->
      <g style="fill: #262626" transform="translate(201.501201 352.546446) rotate(-45) scale(0.1 -0.1)">
       <use xlink:href="#ArialMT-2d"/>
       <use xlink:href="#ArialMT-31" x="33.300781"/>
       <use xlink:href="#ArialMT-31" x="81.541016"/>
       <use xlink:href="#ArialMT-30" x="137.15625"/>
      </g>
     </g>
    </g>
    <g id="xtick_11">
     <g id="line2d_11"/>
     <g id="text_11">
      <!-- -100 -->
      <g style="fill: #262626" transform="translate(217.538374 353.067937) rotate(-45) scale(0.1 -0.1)">
       <use xlink:href="#ArialMT-2d"/>
       <use xlink:href="#ArialMT-31" x="33.300781"/>
       <use xlink:href="#ArialMT-30" x="88.916016"/>
       <use xlink:href="#ArialMT-30" x="144.53125"/>
      </g>
     </g>
    </g>
    <g id="xtick_12">
     <g id="line2d_12"/>
     <g id="text_12">
      <!-- -90 -->
      <g style="fill: #262626" transform="translate(235.802381 349.135761) rotate(-45) scale(0.1 -0.1)">
       <use xlink:href="#ArialMT-2d"/>
       <use xlink:href="#ArialMT-39" x="33.300781"/>
       <use xlink:href="#ArialMT-30" x="88.916016"/>
      </g>
     </g>
    </g>
    <g id="xtick_13">
     <g id="line2d_13"/>
     <g id="text_13">
      <!-- -80 -->
      <g style="fill: #262626" transform="translate(252.1003 349.135761) rotate(-45) scale(0.1 -0.1)">
       <use xlink:href="#ArialMT-2d"/>
       <use xlink:href="#ArialMT-38" x="33.300781"/>
       <use xlink:href="#ArialMT-30" x="88.916016"/>
      </g>
     </g>
    </g>
    <g id="xtick_14">
     <g id="line2d_14"/>
     <g id="text_14">
      <!-- -70 -->
      <g style="fill: #262626" transform="translate(268.398219 349.135761) rotate(-45) scale(0.1 -0.1)">
       <use xlink:href="#ArialMT-2d"/>
       <use xlink:href="#ArialMT-37" x="33.300781"/>
       <use xlink:href="#ArialMT-30" x="88.916016"/>
      </g>
     </g>
    </g>
    <g id="xtick_15">
     <g id="line2d_15"/>
     <g id="text_15">
      <!-- -60 -->
      <g style="fill: #262626" transform="translate(284.696138 349.135761) rotate(-45) scale(0.1 -0.1)">
       <use xlink:href="#ArialMT-2d"/>
       <use xlink:href="#ArialMT-36" x="33.300781"/>
       <use xlink:href="#ArialMT-30" x="88.916016"/>
      </g>
     </g>
    </g>
    <g id="xtick_16">
     <g id="line2d_16"/>
     <g id="text_16">
      <!-- -50 -->
      <g style="fill: #262626" transform="translate(300.994057 349.135761) rotate(-45) scale(0.1 -0.1)">
       <use xlink:href="#ArialMT-2d"/>
       <use xlink:href="#ArialMT-35" x="33.300781"/>
       <use xlink:href="#ArialMT-30" x="88.916016"/>
      </g>
     </g>
    </g>
    <g id="xtick_17">
     <g id="line2d_17"/>
     <g id="text_17">
      <!-- -40 -->
      <g style="fill: #262626" transform="translate(317.291976 349.135761) rotate(-45) scale(0.1 -0.1)">
       <use xlink:href="#ArialMT-2d"/>
       <use xlink:href="#ArialMT-34" x="33.300781"/>
       <use xlink:href="#ArialMT-30" x="88.916016"/>
      </g>
     </g>
    </g>
    <g id="xtick_18">
     <g id="line2d_18"/>
     <g id="text_18">
      <!-- -30 -->
      <g style="fill: #262626" transform="translate(333.589895 349.135761) rotate(-45) scale(0.1 -0.1)">
       <use xlink:href="#ArialMT-2d"/>
       <use xlink:href="#ArialMT-33" x="33.300781"/>
       <use xlink:href="#ArialMT-30" x="88.916016"/>
      </g>
     </g>
    </g>
    <g id="xtick_19">
     <g id="line2d_19"/>
     <g id="text_19">
      <!-- -20 -->
      <g style="fill: #262626" transform="translate(349.887814 349.135761) rotate(-45) scale(0.1 -0.1)">
       <use xlink:href="#ArialMT-2d"/>
       <use xlink:href="#ArialMT-32" x="33.300781"/>
       <use xlink:href="#ArialMT-30" x="88.916016"/>
      </g>
     </g>
    </g>
    <g id="xtick_20">
     <g id="line2d_20"/>
     <g id="text_20">
      <!-- -10 -->
      <g style="fill: #262626" transform="translate(366.185733 349.135761) rotate(-45) scale(0.1 -0.1)">
       <use xlink:href="#ArialMT-2d"/>
       <use xlink:href="#ArialMT-31" x="33.300781"/>
       <use xlink:href="#ArialMT-30" x="88.916016"/>
      </g>
     </g>
    </g>
    <g id="xtick_21">
     <g id="line2d_21"/>
     <g id="text_21">
      <!-- 0 -->
      <g style="fill: #262626" transform="translate(385.626963 342.849139) rotate(-45) scale(0.1 -0.1)">
       <use xlink:href="#ArialMT-30"/>
      </g>
     </g>
    </g>
    <g id="xtick_22">
     <g id="line2d_22"/>
     <g id="text_22">
      <!-- 10 -->
      <g style="fill: #262626" transform="translate(399.958793 346.781316) rotate(-45) scale(0.1 -0.1)">
       <use xlink:href="#ArialMT-31"/>
       <use xlink:href="#ArialMT-30" x="55.615234"/>
      </g>
     </g>
    </g>
    <g id="xtick_23">
     <g id="line2d_23"/>
     <g id="text_23">
      <!-- 20 -->
      <g style="fill: #262626" transform="translate(416.256712 346.781316) rotate(-45) scale(0.1 -0.1)">
       <use xlink:href="#ArialMT-32"/>
       <use xlink:href="#ArialMT-30" x="55.615234"/>
      </g>
     </g>
    </g>
    <g id="xtick_24">
     <g id="line2d_24"/>
     <g id="text_24">
      <!-- 30 -->
      <g style="fill: #262626" transform="translate(432.554631 346.781316) rotate(-45) scale(0.1 -0.1)">
       <use xlink:href="#ArialMT-33"/>
       <use xlink:href="#ArialMT-30" x="55.615234"/>
      </g>
     </g>
    </g>
    <g id="xtick_25">
     <g id="line2d_25"/>
     <g id="text_25">
      <!-- 40 -->
      <g style="fill: #262626" transform="translate(448.85255 346.781316) rotate(-45) scale(0.1 -0.1)">
       <use xlink:href="#ArialMT-34"/>
       <use xlink:href="#ArialMT-30" x="55.615234"/>
      </g>
     </g>
    </g>
    <g id="xtick_26">
     <g id="line2d_26"/>
     <g id="text_26">
      <!-- 50 -->
      <g style="fill: #262626" transform="translate(465.150469 346.781316) rotate(-45) scale(0.1 -0.1)">
       <use xlink:href="#ArialMT-35"/>
       <use xlink:href="#ArialMT-30" x="55.615234"/>
      </g>
     </g>
    </g>
    <g id="text_27">
     <!-- Position -->
     <g style="fill: #262626" transform="translate(243.149531 366.346906) scale(0.11 -0.11)">
      <defs>
       <path id="ArialMT-50" d="M 494 0 
L 494 4581 
L 2222 4581 
Q 2678 4581 2919 4538 
Q 3256 4481 3484 4323 
Q 3713 4166 3852 3881 
Q 3991 3597 3991 3256 
Q 3991 2672 3619 2267 
Q 3247 1863 2275 1863 
L 1100 1863 
L 1100 0 
L 494 0 
z
M 1100 2403 
L 2284 2403 
Q 2872 2403 3119 2622 
Q 3366 2841 3366 3238 
Q 3366 3525 3220 3729 
Q 3075 3934 2838 4000 
Q 2684 4041 2272 4041 
L 1100 4041 
L 1100 2403 
z
" transform="scale(0.015625)"/>
       <path id="ArialMT-6f" d="M 213 1659 
Q 213 2581 725 3025 
Q 1153 3394 1769 3394 
Q 2453 3394 2887 2945 
Q 3322 2497 3322 1706 
Q 3322 1066 3130 698 
Q 2938 331 2570 128 
Q 2203 -75 1769 -75 
Q 1072 -75 642 372 
Q 213 819 213 1659 
z
M 791 1659 
Q 791 1022 1069 705 
Q 1347 388 1769 388 
Q 2188 388 2466 706 
Q 2744 1025 2744 1678 
Q 2744 2294 2464 2611 
Q 2184 2928 1769 2928 
Q 1347 2928 1069 2612 
Q 791 2297 791 1659 
z
" transform="scale(0.015625)"/>
       <path id="ArialMT-73" d="M 197 991 
L 753 1078 
Q 800 744 1014 566 
Q 1228 388 1613 388 
Q 2000 388 2187 545 
Q 2375 703 2375 916 
Q 2375 1106 2209 1216 
Q 2094 1291 1634 1406 
Q 1016 1563 777 1677 
Q 538 1791 414 1992 
Q 291 2194 291 2438 
Q 291 2659 392 2848 
Q 494 3038 669 3163 
Q 800 3259 1026 3326 
Q 1253 3394 1513 3394 
Q 1903 3394 2198 3281 
Q 2494 3169 2634 2976 
Q 2775 2784 2828 2463 
L 2278 2388 
Q 2241 2644 2061 2787 
Q 1881 2931 1553 2931 
Q 1166 2931 1000 2803 
Q 834 2675 834 2503 
Q 834 2394 903 2306 
Q 972 2216 1119 2156 
Q 1203 2125 1616 2013 
Q 2213 1853 2448 1751 
Q 2684 1650 2818 1456 
Q 2953 1263 2953 975 
Q 2953 694 2789 445 
Q 2625 197 2315 61 
Q 2006 -75 1616 -75 
Q 969 -75 630 194 
Q 291 463 197 991 
z
" transform="scale(0.015625)"/>
       <path id="ArialMT-69" d="M 425 3934 
L 425 4581 
L 988 4581 
L 988 3934 
L 425 3934 
z
M 425 0 
L 425 3319 
L 988 3319 
L 988 0 
L 425 0 
z
" transform="scale(0.015625)"/>
       <path id="ArialMT-74" d="M 1650 503 
L 1731 6 
Q 1494 -44 1306 -44 
Q 1000 -44 831 53 
Q 663 150 594 308 
Q 525 466 525 972 
L 525 2881 
L 113 2881 
L 113 3319 
L 525 3319 
L 525 4141 
L 1084 4478 
L 1084 3319 
L 1650 3319 
L 1650 2881 
L 1084 2881 
L 1084 941 
Q 1084 700 1114 631 
Q 1144 563 1211 522 
Q 1278 481 1403 481 
Q 1497 481 1650 503 
z
" transform="scale(0.015625)"/>
       <path id="ArialMT-6e" d="M 422 0 
L 422 3319 
L 928 3319 
L 928 2847 
Q 1294 3394 1984 3394 
Q 2284 3394 2536 3286 
Q 2788 3178 2913 3003 
Q 3038 2828 3088 2588 
Q 3119 2431 3119 2041 
L 3119 0 
L 2556 0 
L 2556 2019 
Q 2556 2363 2490 2533 
Q 2425 2703 2258 2804 
Q 2091 2906 1866 2906 
Q 1506 2906 1245 2678 
Q 984 2450 984 1813 
L 984 0 
L 422 0 
z
" transform="scale(0.015625)"/>
      </defs>
      <use xlink:href="#ArialMT-50"/>
      <use xlink:href="#ArialMT-6f" x="66.699219"/>
      <use xlink:href="#ArialMT-73" x="122.314453"/>
      <use xlink:href="#ArialMT-69" x="172.314453"/>
      <use xlink:href="#ArialMT-74" x="194.53125"/>
      <use xlink:href="#ArialMT-69" x="222.314453"/>
      <use xlink:href="#ArialMT-6f" x="244.53125"/>
      <use xlink:href="#ArialMT-6e" x="300.146484"/>
     </g>
    </g>
   </g>
   <g id="matplotlib.axis_2">
    <g id="ytick_1">
     <g id="line2d_27"/>
     <g id="text_28">
      <!-- 17 -->
      <g style="fill: #262626" transform="translate(21.393906 314.022701) scale(0.1 -0.1)">
       <use xlink:href="#ArialMT-31"/>
       <use xlink:href="#ArialMT-37" x="55.615234"/>
      </g>
     </g>
    </g>
    <g id="ytick_2">
     <g id="line2d_28"/>
     <g id="text_29">
      <!-- 18 -->
      <g style="fill: #262626" transform="translate(21.393906 259.813372) scale(0.1 -0.1)">
       <use xlink:href="#ArialMT-31"/>
       <use xlink:href="#ArialMT-38" x="55.615234"/>
      </g>
     </g>
    </g>
    <g id="ytick_3">
     <g id="line2d_29"/>
     <g id="text_30">
      <!-- 19 -->
      <g style="fill: #262626" transform="translate(21.393906 205.604044) scale(0.1 -0.1)">
       <use xlink:href="#ArialMT-31"/>
       <use xlink:href="#ArialMT-39" x="55.615234"/>
      </g>
     </g>
    </g>
    <g id="ytick_4">
     <g id="line2d_30"/>
     <g id="text_31">
      <!-- 20 -->
      <g style="fill: #262626" transform="translate(21.393906 151.394715) scale(0.1 -0.1)">
       <use xlink:href="#ArialMT-32"/>
       <use xlink:href="#ArialMT-30" x="55.615234"/>
      </g>
     </g>
    </g>
    <g id="ytick_5">
     <g id="line2d_31"/>
     <g id="text_32">
      <!-- 21 -->
      <g style="fill: #262626" transform="translate(21.393906 97.185386) scale(0.1 -0.1)">
       <use xlink:href="#ArialMT-32"/>
       <use xlink:href="#ArialMT-31" x="55.615234"/>
      </g>
     </g>
    </g>
    <g id="ytick_6">
     <g id="line2d_32"/>
     <g id="text_33">
      <!-- 22 -->
      <g style="fill: #262626" transform="translate(21.393906 42.976057) scale(0.1 -0.1)">
       <use xlink:href="#ArialMT-32"/>
       <use xlink:href="#ArialMT-32" x="55.615234"/>
      </g>
     </g>
    </g>
    <g id="text_34">
     <!-- Breslauer_dS -->
     <g style="fill: #262626" transform="translate(15.207656 207.71875) rotate(-90) scale(0.11 -0.11)">
      <defs>
       <path id="ArialMT-42" d="M 469 0 
L 469 4581 
L 2188 4581 
Q 2713 4581 3030 4442 
Q 3347 4303 3526 4014 
Q 3706 3725 3706 3409 
Q 3706 3116 3547 2856 
Q 3388 2597 3066 2438 
Q 3481 2316 3704 2022 
Q 3928 1728 3928 1328 
Q 3928 1006 3792 729 
Q 3656 453 3456 303 
Q 3256 153 2954 76 
Q 2653 0 2216 0 
L 469 0 
z
M 1075 2656 
L 2066 2656 
Q 2469 2656 2644 2709 
Q 2875 2778 2992 2937 
Q 3109 3097 3109 3338 
Q 3109 3566 3000 3739 
Q 2891 3913 2687 3977 
Q 2484 4041 1991 4041 
L 1075 4041 
L 1075 2656 
z
M 1075 541 
L 2216 541 
Q 2509 541 2628 563 
Q 2838 600 2978 687 
Q 3119 775 3209 942 
Q 3300 1109 3300 1328 
Q 3300 1584 3169 1773 
Q 3038 1963 2805 2039 
Q 2572 2116 2134 2116 
L 1075 2116 
L 1075 541 
z
" transform="scale(0.015625)"/>
       <path id="ArialMT-72" d="M 416 0 
L 416 3319 
L 922 3319 
L 922 2816 
Q 1116 3169 1280 3281 
Q 1444 3394 1641 3394 
Q 1925 3394 2219 3213 
L 2025 2691 
Q 1819 2813 1613 2813 
Q 1428 2813 1281 2702 
Q 1134 2591 1072 2394 
Q 978 2094 978 1738 
L 978 0 
L 416 0 
z
" transform="scale(0.015625)"/>
       <path id="ArialMT-65" d="M 2694 1069 
L 3275 997 
Q 3138 488 2766 206 
Q 2394 -75 1816 -75 
Q 1088 -75 661 373 
Q 234 822 234 1631 
Q 234 2469 665 2931 
Q 1097 3394 1784 3394 
Q 2450 3394 2872 2941 
Q 3294 2488 3294 1666 
Q 3294 1616 3291 1516 
L 816 1516 
Q 847 969 1125 678 
Q 1403 388 1819 388 
Q 2128 388 2347 550 
Q 2566 713 2694 1069 
z
M 847 1978 
L 2700 1978 
Q 2663 2397 2488 2606 
Q 2219 2931 1791 2931 
Q 1403 2931 1139 2672 
Q 875 2413 847 1978 
z
" transform="scale(0.015625)"/>
       <path id="ArialMT-6c" d="M 409 0 
L 409 4581 
L 972 4581 
L 972 0 
L 409 0 
z
" transform="scale(0.015625)"/>
       <path id="ArialMT-61" d="M 2588 409 
Q 2275 144 1986 34 
Q 1697 -75 1366 -75 
Q 819 -75 525 192 
Q 231 459 231 875 
Q 231 1119 342 1320 
Q 453 1522 633 1644 
Q 813 1766 1038 1828 
Q 1203 1872 1538 1913 
Q 2219 1994 2541 2106 
Q 2544 2222 2544 2253 
Q 2544 2597 2384 2738 
Q 2169 2928 1744 2928 
Q 1347 2928 1158 2789 
Q 969 2650 878 2297 
L 328 2372 
Q 403 2725 575 2942 
Q 747 3159 1072 3276 
Q 1397 3394 1825 3394 
Q 2250 3394 2515 3294 
Q 2781 3194 2906 3042 
Q 3031 2891 3081 2659 
Q 3109 2516 3109 2141 
L 3109 1391 
Q 3109 606 3145 398 
Q 3181 191 3288 0 
L 2700 0 
Q 2613 175 2588 409 
z
M 2541 1666 
Q 2234 1541 1622 1453 
Q 1275 1403 1131 1340 
Q 988 1278 909 1158 
Q 831 1038 831 891 
Q 831 666 1001 516 
Q 1172 366 1500 366 
Q 1825 366 2078 508 
Q 2331 650 2450 897 
Q 2541 1088 2541 1459 
L 2541 1666 
z
" transform="scale(0.015625)"/>
       <path id="ArialMT-75" d="M 2597 0 
L 2597 488 
Q 2209 -75 1544 -75 
Q 1250 -75 995 37 
Q 741 150 617 320 
Q 494 491 444 738 
Q 409 903 409 1263 
L 409 3319 
L 972 3319 
L 972 1478 
Q 972 1038 1006 884 
Q 1059 663 1231 536 
Q 1403 409 1656 409 
Q 1909 409 2131 539 
Q 2353 669 2445 892 
Q 2538 1116 2538 1541 
L 2538 3319 
L 3100 3319 
L 3100 0 
L 2597 0 
z
" transform="scale(0.015625)"/>
       <path id="ArialMT-5f" d="M -97 -1272 
L -97 -866 
L 3631 -866 
L 3631 -1272 
L -97 -1272 
z
" transform="scale(0.015625)"/>
       <path id="ArialMT-64" d="M 2575 0 
L 2575 419 
Q 2259 -75 1647 -75 
Q 1250 -75 917 144 
Q 584 363 401 755 
Q 219 1147 219 1656 
Q 219 2153 384 2558 
Q 550 2963 881 3178 
Q 1213 3394 1622 3394 
Q 1922 3394 2156 3267 
Q 2391 3141 2538 2938 
L 2538 4581 
L 3097 4581 
L 3097 0 
L 2575 0 
z
M 797 1656 
Q 797 1019 1065 703 
Q 1334 388 1700 388 
Q 2069 388 2326 689 
Q 2584 991 2584 1609 
Q 2584 2291 2321 2609 
Q 2059 2928 1675 2928 
Q 1300 2928 1048 2622 
Q 797 2316 797 1656 
z
" transform="scale(0.015625)"/>
       <path id="ArialMT-53" d="M 288 1472 
L 859 1522 
Q 900 1178 1048 958 
Q 1197 738 1509 602 
Q 1822 466 2213 466 
Q 2559 466 2825 569 
Q 3091 672 3220 851 
Q 3350 1031 3350 1244 
Q 3350 1459 3225 1620 
Q 3100 1781 2813 1891 
Q 2628 1963 1997 2114 
Q 1366 2266 1113 2400 
Q 784 2572 623 2826 
Q 463 3081 463 3397 
Q 463 3744 659 4045 
Q 856 4347 1234 4503 
Q 1613 4659 2075 4659 
Q 2584 4659 2973 4495 
Q 3363 4331 3572 4012 
Q 3781 3694 3797 3291 
L 3216 3247 
Q 3169 3681 2898 3903 
Q 2628 4125 2100 4125 
Q 1550 4125 1298 3923 
Q 1047 3722 1047 3438 
Q 1047 3191 1225 3031 
Q 1400 2872 2139 2705 
Q 2878 2538 3153 2413 
Q 3553 2228 3743 1945 
Q 3934 1663 3934 1294 
Q 3934 928 3725 604 
Q 3516 281 3123 101 
Q 2731 -78 2241 -78 
Q 1619 -78 1198 103 
Q 778 284 539 648 
Q 300 1013 288 1472 
z
" transform="scale(0.015625)"/>
      </defs>
      <use xlink:href="#ArialMT-42"/>
      <use xlink:href="#ArialMT-72" x="66.699219"/>
      <use xlink:href="#ArialMT-65" x="100"/>
      <use xlink:href="#ArialMT-73" x="155.615234"/>
      <use xlink:href="#ArialMT-6c" x="205.615234"/>
      <use xlink:href="#ArialMT-61" x="227.832031"/>
      <use xlink:href="#ArialMT-75" x="283.447266"/>
      <use xlink:href="#ArialMT-65" x="339.0625"/>
      <use xlink:href="#ArialMT-72" x="394.677734"/>
      <use xlink:href="#ArialMT-5f" x="427.978516"/>
      <use xlink:href="#ArialMT-64" x="483.59375"/>
      <use xlink:href="#ArialMT-53" x="539.208984"/>
     </g>
    </g>
   </g>
   <g id="line2d_33">
    <path d="M 59.80669 105.60158 
L 61.436482 107.98129 
L 63.066274 105.411816 
L 64.696066 107.880083 
L 66.325858 106.650943 
L 67.95565 108.181042 
L 69.585442 105.673823 
L 71.215234 107.664684 
L 72.845025 107.092395 
L 74.474817 103.514173 
L 76.104609 103.601731 
L 77.734401 106.488478 
L 79.364193 104.610145 
L 80.993985 107.9733 
L 82.623777 102.035676 
L 84.253569 105.884229 
L 85.883361 104.793251 
L 87.513153 104.204316 
L 89.142944 102.254404 
L 90.772736 103.184915 
L 92.402528 104.752634 
L 94.03232 102.323985 
L 95.662112 106.153894 
L 97.291904 103.084706 
L 98.921696 103.490868 
L 102.18128 101.550945 
L 103.811072 101.960436 
L 105.440863 104.01555 
L 107.070655 99.366325 
L 108.700447 98.710806 
L 110.330239 100.599793 
L 111.960031 95.490806 
L 113.589823 101.425434 
L 115.219615 100.788891 
L 116.849407 101.120147 
L 118.479199 99.69758 
L 120.10899 101.391476 
L 121.738782 97.387117 
L 123.368574 98.185792 
L 124.998366 100.150684 
L 126.628158 95.91994 
L 128.25795 98.568982 
L 129.887742 100.351768 
L 131.517534 101.174745 
L 133.147326 97.427067 
L 134.777118 97.754328 
L 136.406909 98.747427 
L 139.666493 95.811408 
L 141.296285 96.477247 
L 142.926077 98.401524 
L 144.555869 96.141664 
L 146.185661 98.352252 
L 147.815453 94.714104 
L 149.445245 92.077712 
L 151.075036 92.673639 
L 152.704828 93.466987 
L 154.33462 93.66807 
L 155.964412 93.436025 
L 157.594204 93.048506 
L 159.223996 88.054044 
L 160.853788 91.354943 
L 162.48358 90.470043 
L 164.113372 95.095963 
L 165.743164 94.214391 
L 167.372955 90.602878 
L 169.002747 90.802297 
L 170.632539 92.84942 
L 172.262331 89.99996 
L 173.892123 91.366929 
L 175.521915 89.600789 
L 177.151707 86.536262 
L 178.781499 87.642222 
L 180.411291 88.054044 
L 182.041082 89.060127 
L 183.670874 87.617253 
L 185.300666 84.377278 
L 186.930458 85.687317 
L 188.56025 85.537836 
L 190.190042 88.449552 
L 191.819834 88.378973 
L 193.449626 89.172987 
L 195.079418 87.635564 
L 196.70921 82.201647 
L 198.339001 84.557387 
L 199.968793 82.287873 
L 201.598585 85.65802 
L 203.228377 85.965305 
L 204.858169 81.274465 
L 206.487961 78.971326 
L 208.117753 85.886736 
L 209.747545 81.268806 
L 211.377337 80.94088 
L 213.007128 81.436597 
L 214.63692 83.205733 
L 216.266712 78.161998 
L 217.896504 85.47325 
L 219.526296 79.213026 
L 221.156088 79.575576 
L 222.78588 80.202464 
L 224.415672 82.308181 
L 226.045464 85.048777 
L 229.305047 79.93413 
L 230.934839 81.132974 
L 232.564631 75.750327 
L 234.194423 76.756411 
L 235.824215 76.897569 
L 237.454007 76.11554 
L 239.083799 79.266959 
L 240.713591 79.303247 
L 242.343383 78.521884 
L 243.973174 72.349219 
L 245.602966 70.575755 
L 247.232758 76.867939 
L 248.86255 74.25352 
L 250.492342 69.360598 
L 252.122134 74.625058 
L 253.751926 70.512167 
L 255.381718 75.78595 
L 257.01151 72.38018 
L 258.641302 73.155218 
L 260.271093 68.71207 
L 261.900885 71.772269 
L 263.530677 67.495248 
L 265.160469 67.39737 
L 266.790261 70.643338 
L 268.420053 77.246469 
L 270.049845 69.28669 
L 271.679637 70.287114 
L 273.309429 72.511684 
L 274.93922 68.077858 
L 276.569012 71.939062 
L 278.198804 72.842606 
L 279.828596 64.501634 
L 281.458388 64.235298 
L 283.08818 68.64482 
L 284.717972 63.933672 
L 286.347764 71.59449 
L 287.977556 67.656048 
L 289.607348 68.793635 
L 291.237139 66.566735 
L 292.866931 62.579688 
L 294.496723 60.572847 
L 296.126515 63.132334 
L 297.756307 59.55611 
L 299.386099 59.969264 
L 301.015891 61.188416 
L 302.645683 64.69739 
L 304.275475 64.608834 
L 305.905266 65.113207 
L 307.535058 57.896172 
L 309.16485 56.408021 
L 310.794642 53.848533 
L 312.424434 52.066747 
L 314.054226 48.701926 
L 315.684018 54.058939 
L 317.31381 50.394823 
L 318.943602 55.754832 
L 320.573394 58.683527 
L 322.203185 57.310233 
L 323.832977 60.35878 
L 325.462769 60.291863 
L 327.092561 63.754894 
L 328.722353 68.256303 
L 330.352145 65.948836 
L 331.981937 60.328151 
L 333.611729 62.682893 
L 335.241521 70.841425 
L 336.871312 76.094899 
L 338.501104 79.771 
L 340.130896 92.925326 
L 341.760688 97.82757 
L 343.39048 94.933498 
L 345.020272 79.276947 
L 346.650064 60.298521 
L 348.279856 58.755771 
L 349.909648 55.452541 
L 351.53944 52.54715 
L 353.169231 56.928041 
L 354.799023 60.40672 
L 356.428815 56.051796 
L 358.058607 61.876561 
L 359.688399 62.051677 
L 361.318191 60.601145 
L 362.947983 55.754832 
L 364.577775 46.782977 
L 366.207567 42.756312 
L 367.837358 58.567671 
L 369.46715 59.248492 
L 371.096942 61.514344 
L 372.726734 61.222707 
L 374.356526 60.276881 
L 375.986318 67.826503 
L 377.61611 73.527089 
L 379.245902 37.706252 
L 380.875694 35.795625 
L 382.505486 54.436137 
L 384.135277 312.995625 
L 385.765069 99.917307 
L 387.394861 198.249161 
L 389.024653 152.022583 
L 390.654445 96.191935 
L 392.284237 97.865856 
L 393.914029 88.941275 
L 395.543821 77.150921 
L 397.173613 71.578509 
L 398.803404 76.492738 
L 400.433196 77.059368 
L 402.062988 82.359784 
L 403.69278 75.059186 
L 406.952364 68.038573 
L 408.582156 65.56165 
L 410.211948 71.58883 
L 411.84174 70.194895 
L 413.471532 72.340563 
L 415.101323 76.450125 
L 416.731115 79.203371 
L 418.360907 78.416682 
L 419.990699 74.050439 
L 421.620491 72.964454 
L 423.250283 79.647486 
L 424.880075 84.782108 
L 426.509867 85.415322 
L 428.139659 81.277794 
L 429.76945 72.622879 
L 431.399242 78.515892 
L 433.029034 86.449703 
L 434.658826 84.459509 
L 436.288618 78.590799 
L 437.91841 77.769153 
L 439.548202 84.106614 
L 441.177994 82.047838 
L 442.807786 82.669399 
L 444.437578 83.727751 
L 446.067369 85.21224 
L 447.697161 77.464531 
L 449.326953 81.392319 
L 450.956745 84.642615 
L 452.586537 79.216688 
L 454.216329 74.939668 
L 455.846121 74.019477 
L 457.475913 76.632565 
L 459.105705 76.094566 
L 460.735496 73.329335 
L 462.365288 76.49973 
L 463.99508 75.699391 
L 465.624872 76.38687 
L 465.624872 76.38687 
" clip-path="url(#p70a8c88054)" style="fill: none; stroke: #0272a2; stroke-width: 1.75; stroke-linecap: round"/>
   </g>
   <g id="line2d_34">
    <path d="M 59.80669 156.364556 
L 61.436482 156.048324 
L 63.066274 154.674418 
L 64.696066 155.713747 
L 66.325858 152.355092 
L 67.95565 155.081501 
L 69.585442 154.939546 
L 71.215234 151.390672 
L 72.845025 156.258854 
L 74.474817 152.45446 
L 76.104609 157.735841 
L 77.734401 153.132787 
L 79.364193 155.359514 
L 80.993985 153.138465 
L 82.623777 154.601256 
L 84.253569 153.806527 
L 85.883361 154.639038 
L 87.513153 154.58859 
L 89.142944 153.305098 
L 90.772736 156.917962 
L 92.402528 155.457791 
L 94.03232 152.532645 
L 95.662112 154.559762 
L 97.291904 155.667884 
L 98.921696 154.203783 
L 100.551488 152.545312 
L 102.18128 154.876212 
L 103.811072 150.464033 
L 105.440863 156.048979 
L 107.070655 155.705448 
L 108.700447 154.419991 
L 110.330239 154.668084 
L 111.960031 155.628137 
L 113.589823 153.824654 
L 115.219615 152.948245 
L 116.849407 154.162943 
L 118.479199 153.688158 
L 120.10899 157.104687 
L 121.738782 154.601256 
L 123.368574 153.705848 
L 124.998366 154.309266 
L 126.628158 153.831642 
L 128.25795 153.053947 
L 129.887742 155.006811 
L 131.517534 154.499704 
L 133.147326 154.83166 
L 136.406909 151.370361 
L 138.036701 158.470731 
L 139.666493 154.227587 
L 141.296285 155.922748 
L 142.926077 154.897178 
L 144.555869 154.797591 
L 146.185661 156.632305 
L 147.815453 159.099919 
L 149.445245 156.368705 
L 151.075036 152.673508 
L 152.704828 158.417006 
L 154.33462 155.761356 
L 155.964412 156.055749 
L 157.594204 152.430656 
L 159.223996 155.831242 
L 160.853788 155.482032 
L 162.48358 155.32348 
L 164.113372 157.260619 
L 165.743164 155.642988 
L 167.372955 154.377186 
L 169.002747 151.666283 
L 170.632539 154.564567 
L 172.262331 154.518049 
L 173.892123 156.779501 
L 175.521915 154.571337 
L 177.151707 155.606953 
L 178.781499 156.256451 
L 180.411291 152.586151 
L 182.041082 151.784433 
L 183.670874 154.179541 
L 185.300666 153.139775 
L 186.930458 158.031981 
L 188.56025 153.283914 
L 190.190042 156.077807 
L 191.819834 151.340005 
L 193.449626 153.887332 
L 195.079418 155.693218 
L 196.70921 153.948045 
L 198.339001 151.90979 
L 199.968793 155.176065 
L 201.598585 154.39837 
L 203.228377 154.023172 
L 204.858169 153.294179 
L 206.487961 156.09091 
L 208.117753 154.682935 
L 209.747545 153.450984 
L 211.377337 154.426324 
L 213.007128 153.204201 
L 214.63692 156.339877 
L 216.266712 154.371945 
L 217.896504 153.019878 
L 219.526296 155.261456 
L 221.156088 153.766561 
L 222.78588 157.119538 
L 224.415672 154.248553 
L 226.045464 158.295798 
L 227.675256 155.587953 
L 229.305047 153.633997 
L 230.934839 153.689469 
L 232.564631 158.968665 
L 234.194423 155.197249 
L 235.824215 154.544038 
L 237.454007 157.171297 
L 239.083799 154.44314 
L 240.713591 155.23787 
L 242.343383 156.96295 
L 243.973174 151.321223 
L 245.602966 155.449492 
L 247.232758 157.351252 
L 248.86255 153.937126 
L 250.492342 153.933413 
L 252.122134 153.313397 
L 253.751926 153.396386 
L 255.381718 155.860506 
L 257.01151 153.086488 
L 258.641302 155.587079 
L 260.271093 154.284369 
L 261.900885 152.412748 
L 263.530677 153.608664 
L 265.160469 155.816391 
L 266.790261 155.738207 
L 268.420053 159.153425 
L 270.049845 155.762667 
L 271.679637 155.262985 
L 273.309429 155.105306 
L 274.93922 155.442285 
L 276.569012 154.46498 
L 278.198804 154.338312 
L 279.828596 154.503198 
L 281.458388 153.055694 
L 283.08818 154.073621 
L 284.717972 154.280001 
L 286.347764 156.125416 
L 287.977556 152.32823 
L 289.607348 155.86138 
L 291.237139 154.287864 
L 292.866931 156.020806 
L 294.496723 153.876194 
L 296.126515 156.296199 
L 297.756307 154.263622 
L 299.386099 155.12649 
L 301.015891 155.529205 
L 302.645683 156.671834 
L 304.275475 154.835155 
L 305.905266 156.982606 
L 307.535058 152.80498 
L 309.16485 151.368396 
L 310.794642 154.405795 
L 312.424434 155.094605 
L 314.054226 156.294452 
L 315.684018 151.586351 
L 317.31381 157.101411 
L 318.943602 154.712855 
L 320.573394 152.655163 
L 322.203185 156.676201 
L 323.832977 153.689906 
L 325.462769 156.369142 
L 327.092561 153.269719 
L 328.722353 152.934705 
L 330.352145 154.234357 
L 331.981937 158.935469 
L 333.611729 154.552555 
L 335.241521 157.059917 
L 336.871312 155.382664 
L 338.501104 154.350324 
L 340.130896 151.648811 
L 341.760688 157.53077 
L 343.39048 151.66672 
L 345.020272 156.017967 
L 346.650064 156.32044 
L 348.279856 153.05351 
L 349.909648 154.775752 
L 351.53944 152.792968 
L 353.169231 155.395112 
L 354.799023 155.112294 
L 356.428815 153.962241 
L 358.058607 156.569626 
L 359.688399 155.374147 
L 361.318191 155.419135 
L 362.947983 156.220417 
L 364.577775 155.912484 
L 366.207567 153.924459 
L 367.837358 154.544693 
L 369.46715 156.837812 
L 371.096942 154.282404 
L 372.726734 153.23827 
L 374.356526 155.500814 
L 375.986318 155.951576 
L 377.61611 157.650668 
L 379.245902 153.998057 
L 380.875694 154.090655 
L 382.505486 154.975144 
L 384.135277 154.237197 
L 385.765069 155.525493 
L 387.394861 154.522854 
L 389.024653 156.64519 
L 390.654445 155.095041 
L 392.284237 151.121176 
L 393.914029 154.17146 
L 395.543821 155.216686 
L 397.173613 155.841288 
L 398.803404 154.210116 
L 400.433196 155.402101 
L 402.062988 155.679241 
L 403.69278 154.107253 
L 405.322572 154.506474 
L 406.952364 152.671761 
L 408.582156 158.276143 
L 410.211948 151.64903 
L 411.84174 154.17561 
L 413.471532 155.784724 
L 415.101323 156.811386 
L 416.731115 153.91201 
L 418.360907 152.410127 
L 419.990699 155.930392 
L 421.620491 156.378751 
L 423.250283 154.666556 
L 424.880075 156.456936 
L 426.509867 157.011652 
L 428.139659 152.698841 
L 429.76945 156.492315 
L 431.399242 153.426524 
L 433.029034 155.495354 
L 434.658826 153.535502 
L 436.288618 152.271666 
L 437.91841 156.593867 
L 439.548202 155.757425 
L 441.177994 156.326774 
L 442.807786 154.970121 
L 444.437578 155.567424 
L 446.067369 150.872427 
L 447.697161 153.608227 
L 449.326953 154.931029 
L 450.956745 153.865056 
L 452.586537 154.298128 
L 454.216329 153.448364 
L 455.846121 153.989758 
L 457.475913 156.250555 
L 459.105705 155.795207 
L 460.735496 154.519578 
L 462.365288 151.701007 
L 463.99508 152.511461 
L 465.624872 155.032363 
L 465.624872 155.032363 
" clip-path="url(#p70a8c88054)" style="fill: none; stroke-dasharray: 1.75,2.8875; stroke-dashoffset: 0; stroke: #9fc377; stroke-width: 1.75"/>
   </g>
   <g id="patch_3">
    <path d="M 39.515781 326.855625 
L 39.515781 21.935625 
" style="fill: none; stroke: #cccccc; stroke-width: 1.25; stroke-linejoin: miter; stroke-linecap: square"/>
   </g>
   <g id="patch_4">
    <path d="M 485.915781 326.855625 
L 485.915781 21.935625 
" style="fill: none; stroke: #cccccc; stroke-width: 1.25; stroke-linejoin: miter; stroke-linecap: square"/>
   </g>
   <g id="patch_5">
    <path d="M 39.515781 326.855625 
L 485.915781 326.855625 
" style="fill: none; stroke: #cccccc; stroke-width: 1.25; stroke-linejoin: miter; stroke-linecap: square"/>
   </g>
   <g id="patch_6">
    <path d="M 39.515781 21.935625 
L 485.915781 21.935625 
" style="fill: none; stroke: #cccccc; stroke-width: 1.25; stroke-linejoin: miter; stroke-linecap: square"/>
   </g>
   <g id="text_35">
    <!-- "Breslauer_dS" for dataset Mouse_non_tata -->
    <g style="fill: #262626" transform="translate(145.724219 15.935625) scale(0.12 -0.12)">
     <defs>
      <path id="ArialMT-22" d="M 450 2959 
L 294 3831 
L 294 4581 
L 934 4581 
L 934 3831 
L 794 2959 
L 450 2959 
z
M 1484 2959 
L 1331 3831 
L 1331 4581 
L 1972 4581 
L 1972 3831 
L 1822 2959 
L 1484 2959 
z
" transform="scale(0.015625)"/>
      <path id="ArialMT-20" transform="scale(0.015625)"/>
      <path id="ArialMT-66" d="M 556 0 
L 556 2881 
L 59 2881 
L 59 3319 
L 556 3319 
L 556 3672 
Q 556 4006 616 4169 
Q 697 4388 901 4523 
Q 1106 4659 1475 4659 
Q 1713 4659 2000 4603 
L 1916 4113 
Q 1741 4144 1584 4144 
Q 1328 4144 1222 4034 
Q 1116 3925 1116 3625 
L 1116 3319 
L 1763 3319 
L 1763 2881 
L 1116 2881 
L 1116 0 
L 556 0 
z
" transform="scale(0.015625)"/>
      <path id="ArialMT-4d" d="M 475 0 
L 475 4581 
L 1388 4581 
L 2472 1338 
Q 2622 884 2691 659 
Q 2769 909 2934 1394 
L 4031 4581 
L 4847 4581 
L 4847 0 
L 4263 0 
L 4263 3834 
L 2931 0 
L 2384 0 
L 1059 3900 
L 1059 0 
L 475 0 
z
" transform="scale(0.015625)"/>
     </defs>
     <use xlink:href="#ArialMT-22"/>
     <use xlink:href="#ArialMT-42" x="35.498047"/>
     <use xlink:href="#ArialMT-72" x="102.197266"/>
     <use xlink:href="#ArialMT-65" x="135.498047"/>
     <use xlink:href="#ArialMT-73" x="191.113281"/>
     <use xlink:href="#ArialMT-6c" x="241.113281"/>
     <use xlink:href="#ArialMT-61" x="263.330078"/>
     <use xlink:href="#ArialMT-75" x="318.945312"/>
     <use xlink:href="#ArialMT-65" x="374.560547"/>
     <use xlink:href="#ArialMT-72" x="430.175781"/>
     <use xlink:href="#ArialMT-5f" x="463.476562"/>
     <use xlink:href="#ArialMT-64" x="519.091797"/>
     <use xlink:href="#ArialMT-53" x="574.707031"/>
     <use xlink:href="#ArialMT-22" x="641.40625"/>
     <use xlink:href="#ArialMT-20" x="676.904297"/>
     <use xlink:href="#ArialMT-66" x="704.6875"/>
     <use xlink:href="#ArialMT-6f" x="732.470703"/>
     <use xlink:href="#ArialMT-72" x="788.085938"/>
     <use xlink:href="#ArialMT-20" x="821.386719"/>
     <use xlink:href="#ArialMT-64" x="849.169922"/>
     <use xlink:href="#ArialMT-61" x="904.785156"/>
     <use xlink:href="#ArialMT-74" x="960.400391"/>
     <use xlink:href="#ArialMT-61" x="988.183594"/>
     <use xlink:href="#ArialMT-73" x="1043.798828"/>
     <use xlink:href="#ArialMT-65" x="1093.798828"/>
     <use xlink:href="#ArialMT-74" x="1149.414062"/>
     <use xlink:href="#ArialMT-20" x="1177.197266"/>
     <use xlink:href="#ArialMT-4d" x="1204.980469"/>
     <use xlink:href="#ArialMT-6f" x="1288.28125"/>
     <use xlink:href="#ArialMT-75" x="1343.896484"/>
     <use xlink:href="#ArialMT-73" x="1399.511719"/>
     <use xlink:href="#ArialMT-65" x="1449.511719"/>
     <use xlink:href="#ArialMT-5f" x="1505.126953"/>
     <use xlink:href="#ArialMT-6e" x="1560.742188"/>
     <use xlink:href="#ArialMT-6f" x="1616.357422"/>
     <use xlink:href="#ArialMT-6e" x="1671.972656"/>
     <use xlink:href="#ArialMT-5f" x="1727.587891"/>
     <use xlink:href="#ArialMT-74" x="1783.203125"/>
     <use xlink:href="#ArialMT-61" x="1810.986328"/>
     <use xlink:href="#ArialMT-74" x="1866.601562"/>
     <use xlink:href="#ArialMT-61" x="1894.384766"/>
    </g>
   </g>
   <g id="legend_1">
    <g id="line2d_35">
     <path d="M 48.515781 34.593437 
L 58.515781 34.593437 
L 68.515781 34.593437 
" style="fill: none; stroke: #0272a2; stroke-width: 1.75; stroke-linecap: round"/>
    </g>
    <g id="text_36">
     <!-- Promoter -->
     <g style="fill: #262626" transform="translate(76.515781 38.093437) scale(0.1 -0.1)">
      <defs>
       <path id="ArialMT-6d" d="M 422 0 
L 422 3319 
L 925 3319 
L 925 2853 
Q 1081 3097 1340 3245 
Q 1600 3394 1931 3394 
Q 2300 3394 2536 3241 
Q 2772 3088 2869 2813 
Q 3263 3394 3894 3394 
Q 4388 3394 4653 3120 
Q 4919 2847 4919 2278 
L 4919 0 
L 4359 0 
L 4359 2091 
Q 4359 2428 4304 2576 
Q 4250 2725 4106 2815 
Q 3963 2906 3769 2906 
Q 3419 2906 3187 2673 
Q 2956 2441 2956 1928 
L 2956 0 
L 2394 0 
L 2394 2156 
Q 2394 2531 2256 2718 
Q 2119 2906 1806 2906 
Q 1569 2906 1367 2781 
Q 1166 2656 1075 2415 
Q 984 2175 984 1722 
L 984 0 
L 422 0 
z
" transform="scale(0.015625)"/>
      </defs>
      <use xlink:href="#ArialMT-50"/>
      <use xlink:href="#ArialMT-72" x="66.699219"/>
      <use xlink:href="#ArialMT-6f" x="100"/>
      <use xlink:href="#ArialMT-6d" x="155.615234"/>
      <use xlink:href="#ArialMT-6f" x="238.916016"/>
      <use xlink:href="#ArialMT-74" x="294.53125"/>
      <use xlink:href="#ArialMT-65" x="322.314453"/>
      <use xlink:href="#ArialMT-72" x="377.929688"/>
     </g>
    </g>
    <g id="line2d_36">
     <path d="M 48.515781 48.73875 
L 58.515781 48.73875 
L 68.515781 48.73875 
" style="fill: none; stroke-dasharray: 1.75,2.8875; stroke-dashoffset: 0; stroke: #9fc377; stroke-width: 1.75"/>
    </g>
    <g id="text_37">
     <!-- Non-promoter -->
     <g style="fill: #262626" transform="translate(76.515781 52.23875) scale(0.1 -0.1)">
      <defs>
       <path id="ArialMT-4e" d="M 488 0 
L 488 4581 
L 1109 4581 
L 3516 984 
L 3516 4581 
L 4097 4581 
L 4097 0 
L 3475 0 
L 1069 3600 
L 1069 0 
L 488 0 
z
" transform="scale(0.015625)"/>
       <path id="ArialMT-70" d="M 422 -1272 
L 422 3319 
L 934 3319 
L 934 2888 
Q 1116 3141 1344 3267 
Q 1572 3394 1897 3394 
Q 2322 3394 2647 3175 
Q 2972 2956 3137 2557 
Q 3303 2159 3303 1684 
Q 3303 1175 3120 767 
Q 2938 359 2589 142 
Q 2241 -75 1856 -75 
Q 1575 -75 1351 44 
Q 1128 163 984 344 
L 984 -1272 
L 422 -1272 
z
M 931 1641 
Q 931 1000 1190 694 
Q 1450 388 1819 388 
Q 2194 388 2461 705 
Q 2728 1022 2728 1688 
Q 2728 2322 2467 2637 
Q 2206 2953 1844 2953 
Q 1484 2953 1207 2617 
Q 931 2281 931 1641 
z
" transform="scale(0.015625)"/>
      </defs>
      <use xlink:href="#ArialMT-4e"/>
      <use xlink:href="#ArialMT-6f" x="72.216797"/>
      <use xlink:href="#ArialMT-6e" x="127.832031"/>
      <use xlink:href="#ArialMT-2d" x="183.447266"/>
      <use xlink:href="#ArialMT-70" x="216.748047"/>
      <use xlink:href="#ArialMT-72" x="272.363281"/>
      <use xlink:href="#ArialMT-6f" x="305.664062"/>
      <use xlink:href="#ArialMT-6d" x="361.279297"/>
      <use xlink:href="#ArialMT-6f" x="444.580078"/>
      <use xlink:href="#ArialMT-74" x="500.195312"/>
      <use xlink:href="#ArialMT-65" x="527.978516"/>
      <use xlink:href="#ArialMT-72" x="583.59375"/>
     </g>
    </g>
   </g>
  </g>
 </g>
 <defs>
  <clipPath id="p70a8c88054">
   <rect x="39.515781" y="21.935625" width="446.4" height="304.92"/>
  </clipPath>
 </defs>
</svg>
