<?xml version="1.0" encoding="utf-8" standalone="no"?>
<!DOCTYPE svg PUBLIC "-//W3C//DTD SVG 1.1//EN"
  "http://www.w3.org/Graphics/SVG/1.1/DTD/svg11.dtd">
<svg xmlns:xlink="http://www.w3.org/1999/xlink" width="496.022812pt" height="375.733156pt" viewBox="0 0 496.022812 375.733156" xmlns="http://www.w3.org/2000/svg" version="1.1">
 <metadata>
  <rdf:RDF xmlns:dc="http://purl.org/dc/elements/1.1/" xmlns:cc="http://creativecommons.org/ns#" xmlns:rdf="http://www.w3.org/1999/02/22-rdf-syntax-ns#">
   <cc:Work>
    <dc:type rdf:resource="http://purl.org/dc/dcmitype/StillImage"/>
    <dc:date>2023-05-11T16:25:55.816530</dc:date>
    <dc:format>image/svg+xml</dc:format>
    <dc:creator>
     <cc:Agent>
      <dc:title>Matplotlib v3.7.1, https://matplotlib.org/</dc:title>
     </cc:Agent>
    </dc:creator>
   </cc:Work>
  </rdf:RDF>
 </metadata>
 <defs>
  <style type="text/css">*{stroke-linejoin: round; stroke-linecap: butt}</style>
 </defs>
 <g id="figure_1">
  <g id="patch_1">
   <path d="M 0 375.733156 
L 496.022812 375.733156 
L 496.022812 0 
L 0 0 
z
" style="fill: #ffffff"/>
  </g>
  <g id="axes_1">
   <g id="patch_2">
    <path d="M 42.422813 326.855625 
L 488.822812 326.855625 
L 488.822812 21.935625 
L 42.422813 21.935625 
z
" style="fill: #ffffff"/>
   </g>
   <g id="matplotlib.axis_1">
    <g id="xtick_1">
     <g id="line2d_1"/>
     <g id="text_1">
      <!-- -200 -->
      <g style="fill: #262626" transform="translate(57.466216 353.067937) rotate(-45) scale(0.1 -0.1)">
       <defs>
        <path id="ArialMT-2d" d="M 203 1375 
L 203 1941 
L 1931 1941 
L 1931 1375 
L 203 1375 
z
" transform="scale(0.015625)"/>
        <path id="ArialMT-32" d="M 3222 541 
L 3222 0 
L 194 0 
Q 188 203 259 391 
Q 375 700 629 1000 
Q 884 1300 1366 1694 
Q 2113 2306 2375 2664 
Q 2638 3022 2638 3341 
Q 2638 3675 2398 3904 
Q 2159 4134 1775 4134 
Q 1369 4134 1125 3890 
Q 881 3647 878 3216 
L 300 3275 
Q 359 3922 746 4261 
Q 1134 4600 1788 4600 
Q 2447 4600 2831 4234 
Q 3216 3869 3216 3328 
Q 3216 3053 3103 2787 
Q 2991 2522 2730 2228 
Q 2469 1934 1863 1422 
Q 1356 997 1212 845 
Q 1069 694 975 541 
L 3222 541 
z
" transform="scale(0.015625)"/>
        <path id="ArialMT-30" d="M 266 2259 
Q 266 3072 433 3567 
Q 600 4063 929 4331 
Q 1259 4600 1759 4600 
Q 2128 4600 2406 4451 
Q 2684 4303 2865 4023 
Q 3047 3744 3150 3342 
Q 3253 2941 3253 2259 
Q 3253 1453 3087 958 
Q 2922 463 2592 192 
Q 2263 -78 1759 -78 
Q 1097 -78 719 397 
Q 266 969 266 2259 
z
M 844 2259 
Q 844 1131 1108 757 
Q 1372 384 1759 384 
Q 2147 384 2411 759 
Q 2675 1134 2675 2259 
Q 2675 3391 2411 3762 
Q 2147 4134 1753 4134 
Q 1366 4134 1134 3806 
Q 844 3388 844 2259 
z
" transform="scale(0.015625)"/>
       </defs>
       <use xlink:href="#ArialMT-2d"/>
       <use xlink:href="#ArialMT-32" x="33.300781"/>
       <use xlink:href="#ArialMT-30" x="88.916016"/>
       <use xlink:href="#ArialMT-30" x="144.53125"/>
      </g>
     </g>
    </g>
    <g id="xtick_2">
     <g id="line2d_2"/>
     <g id="text_2">
      <!-- -190 -->
      <g style="fill: #262626" transform="translate(73.764135 353.067937) rotate(-45) scale(0.1 -0.1)">
       <defs>
        <path id="ArialMT-31" d="M 2384 0 
L 1822 0 
L 1822 3584 
Q 1619 3391 1289 3197 
Q 959 3003 697 2906 
L 697 3450 
Q 1169 3672 1522 3987 
Q 1875 4303 2022 4600 
L 2384 4600 
L 2384 0 
z
" transform="scale(0.015625)"/>
        <path id="ArialMT-39" d="M 350 1059 
L 891 1109 
Q 959 728 1153 556 
Q 1347 384 1650 384 
Q 1909 384 2104 503 
Q 2300 622 2425 820 
Q 2550 1019 2634 1356 
Q 2719 1694 2719 2044 
Q 2719 2081 2716 2156 
Q 2547 1888 2255 1720 
Q 1963 1553 1622 1553 
Q 1053 1553 659 1965 
Q 266 2378 266 3053 
Q 266 3750 677 4175 
Q 1088 4600 1706 4600 
Q 2153 4600 2523 4359 
Q 2894 4119 3086 3673 
Q 3278 3228 3278 2384 
Q 3278 1506 3087 986 
Q 2897 466 2520 194 
Q 2144 -78 1638 -78 
Q 1100 -78 759 220 
Q 419 519 350 1059 
z
M 2653 3081 
Q 2653 3566 2395 3850 
Q 2138 4134 1775 4134 
Q 1400 4134 1122 3828 
Q 844 3522 844 3034 
Q 844 2597 1108 2323 
Q 1372 2050 1759 2050 
Q 2150 2050 2401 2323 
Q 2653 2597 2653 3081 
z
" transform="scale(0.015625)"/>
       </defs>
       <use xlink:href="#ArialMT-2d"/>
       <use xlink:href="#ArialMT-31" x="33.300781"/>
       <use xlink:href="#ArialMT-39" x="88.916016"/>
       <use xlink:href="#ArialMT-30" x="144.53125"/>
      </g>
     </g>
    </g>
    <g id="xtick_3">
     <g id="line2d_3"/>
     <g id="text_3">
      <!-- -180 -->
      <g style="fill: #262626" transform="translate(90.062054 353.067937) rotate(-45) scale(0.1 -0.1)">
       <defs>
        <path id="ArialMT-38" d="M 1131 2484 
Q 781 2613 612 2850 
Q 444 3088 444 3419 
Q 444 3919 803 4259 
Q 1163 4600 1759 4600 
Q 2359 4600 2725 4251 
Q 3091 3903 3091 3403 
Q 3091 3084 2923 2848 
Q 2756 2613 2416 2484 
Q 2838 2347 3058 2040 
Q 3278 1734 3278 1309 
Q 3278 722 2862 322 
Q 2447 -78 1769 -78 
Q 1091 -78 675 323 
Q 259 725 259 1325 
Q 259 1772 486 2073 
Q 713 2375 1131 2484 
z
M 1019 3438 
Q 1019 3113 1228 2906 
Q 1438 2700 1772 2700 
Q 2097 2700 2305 2904 
Q 2513 3109 2513 3406 
Q 2513 3716 2298 3927 
Q 2084 4138 1766 4138 
Q 1444 4138 1231 3931 
Q 1019 3725 1019 3438 
z
M 838 1322 
Q 838 1081 952 856 
Q 1066 631 1291 507 
Q 1516 384 1775 384 
Q 2178 384 2440 643 
Q 2703 903 2703 1303 
Q 2703 1709 2433 1975 
Q 2163 2241 1756 2241 
Q 1359 2241 1098 1978 
Q 838 1716 838 1322 
z
" transform="scale(0.015625)"/>
       </defs>
       <use xlink:href="#ArialMT-2d"/>
       <use xlink:href="#ArialMT-31" x="33.300781"/>
       <use xlink:href="#ArialMT-38" x="88.916016"/>
       <use xlink:href="#ArialMT-30" x="144.53125"/>
      </g>
     </g>
    </g>
    <g id="xtick_4">
     <g id="line2d_4"/>
     <g id="text_4">
      <!-- -170 -->
      <g style="fill: #262626" transform="translate(106.359973 353.067937) rotate(-45) scale(0.1 -0.1)">
       <defs>
        <path id="ArialMT-37" d="M 303 3981 
L 303 4522 
L 3269 4522 
L 3269 4084 
Q 2831 3619 2401 2847 
Q 1972 2075 1738 1259 
Q 1569 684 1522 0 
L 944 0 
Q 953 541 1156 1306 
Q 1359 2072 1739 2783 
Q 2119 3494 2547 3981 
L 303 3981 
z
" transform="scale(0.015625)"/>
       </defs>
       <use xlink:href="#ArialMT-2d"/>
       <use xlink:href="#ArialMT-31" x="33.300781"/>
       <use xlink:href="#ArialMT-37" x="88.916016"/>
       <use xlink:href="#ArialMT-30" x="144.53125"/>
      </g>
     </g>
    </g>
    <g id="xtick_5">
     <g id="line2d_5"/>
     <g id="text_5">
      <!-- -160 -->
      <g style="fill: #262626" transform="translate(122.657892 353.067937) rotate(-45) scale(0.1 -0.1)">
       <defs>
        <path id="ArialMT-36" d="M 3184 3459 
L 2625 3416 
Q 2550 3747 2413 3897 
Q 2184 4138 1850 4138 
Q 1581 4138 1378 3988 
Q 1113 3794 959 3422 
Q 806 3050 800 2363 
Q 1003 2672 1297 2822 
Q 1591 2972 1913 2972 
Q 2475 2972 2870 2558 
Q 3266 2144 3266 1488 
Q 3266 1056 3080 686 
Q 2894 316 2569 119 
Q 2244 -78 1831 -78 
Q 1128 -78 684 439 
Q 241 956 241 2144 
Q 241 3472 731 4075 
Q 1159 4600 1884 4600 
Q 2425 4600 2770 4297 
Q 3116 3994 3184 3459 
z
M 888 1484 
Q 888 1194 1011 928 
Q 1134 663 1356 523 
Q 1578 384 1822 384 
Q 2178 384 2434 671 
Q 2691 959 2691 1453 
Q 2691 1928 2437 2201 
Q 2184 2475 1800 2475 
Q 1419 2475 1153 2201 
Q 888 1928 888 1484 
z
" transform="scale(0.015625)"/>
       </defs>
       <use xlink:href="#ArialMT-2d"/>
       <use xlink:href="#ArialMT-31" x="33.300781"/>
       <use xlink:href="#ArialMT-36" x="88.916016"/>
       <use xlink:href="#ArialMT-30" x="144.53125"/>
      </g>
     </g>
    </g>
    <g id="xtick_6">
     <g id="line2d_6"/>
     <g id="text_6">
      <!-- -150 -->
      <g style="fill: #262626" transform="translate(138.955811 353.067937) rotate(-45) scale(0.1 -0.1)">
       <defs>
        <path id="ArialMT-35" d="M 266 1200 
L 856 1250 
Q 922 819 1161 601 
Q 1400 384 1738 384 
Q 2144 384 2425 690 
Q 2706 997 2706 1503 
Q 2706 1984 2436 2262 
Q 2166 2541 1728 2541 
Q 1456 2541 1237 2417 
Q 1019 2294 894 2097 
L 366 2166 
L 809 4519 
L 3088 4519 
L 3088 3981 
L 1259 3981 
L 1013 2750 
Q 1425 3038 1878 3038 
Q 2478 3038 2890 2622 
Q 3303 2206 3303 1553 
Q 3303 931 2941 478 
Q 2500 -78 1738 -78 
Q 1113 -78 717 272 
Q 322 622 266 1200 
z
" transform="scale(0.015625)"/>
       </defs>
       <use xlink:href="#ArialMT-2d"/>
       <use xlink:href="#ArialMT-31" x="33.300781"/>
       <use xlink:href="#ArialMT-35" x="88.916016"/>
       <use xlink:href="#ArialMT-30" x="144.53125"/>
      </g>
     </g>
    </g>
    <g id="xtick_7">
     <g id="line2d_7"/>
     <g id="text_7">
      <!-- -140 -->
      <g style="fill: #262626" transform="translate(155.25373 353.067937) rotate(-45) scale(0.1 -0.1)">
       <defs>
        <path id="ArialMT-34" d="M 2069 0 
L 2069 1097 
L 81 1097 
L 81 1613 
L 2172 4581 
L 2631 4581 
L 2631 1613 
L 3250 1613 
L 3250 1097 
L 2631 1097 
L 2631 0 
L 2069 0 
z
M 2069 1613 
L 2069 3678 
L 634 1613 
L 2069 1613 
z
" transform="scale(0.015625)"/>
       </defs>
       <use xlink:href="#ArialMT-2d"/>
       <use xlink:href="#ArialMT-31" x="33.300781"/>
       <use xlink:href="#ArialMT-34" x="88.916016"/>
       <use xlink:href="#ArialMT-30" x="144.53125"/>
      </g>
     </g>
    </g>
    <g id="xtick_8">
     <g id="line2d_8"/>
     <g id="text_8">
      <!-- -130 -->
      <g style="fill: #262626" transform="translate(171.551649 353.067937) rotate(-45) scale(0.1 -0.1)">
       <defs>
        <path id="ArialMT-33" d="M 269 1209 
L 831 1284 
Q 928 806 1161 595 
Q 1394 384 1728 384 
Q 2125 384 2398 659 
Q 2672 934 2672 1341 
Q 2672 1728 2419 1979 
Q 2166 2231 1775 2231 
Q 1616 2231 1378 2169 
L 1441 2663 
Q 1497 2656 1531 2656 
Q 1891 2656 2178 2843 
Q 2466 3031 2466 3422 
Q 2466 3731 2256 3934 
Q 2047 4138 1716 4138 
Q 1388 4138 1169 3931 
Q 950 3725 888 3313 
L 325 3413 
Q 428 3978 793 4289 
Q 1159 4600 1703 4600 
Q 2078 4600 2393 4439 
Q 2709 4278 2876 4000 
Q 3044 3722 3044 3409 
Q 3044 3113 2884 2869 
Q 2725 2625 2413 2481 
Q 2819 2388 3044 2092 
Q 3269 1797 3269 1353 
Q 3269 753 2831 336 
Q 2394 -81 1725 -81 
Q 1122 -81 723 278 
Q 325 638 269 1209 
z
" transform="scale(0.015625)"/>
       </defs>
       <use xlink:href="#ArialMT-2d"/>
       <use xlink:href="#ArialMT-31" x="33.300781"/>
       <use xlink:href="#ArialMT-33" x="88.916016"/>
       <use xlink:href="#ArialMT-30" x="144.53125"/>
      </g>
     </g>
    </g>
    <g id="xtick_9">
     <g id="line2d_9"/>
     <g id="text_9">
      <!-- -120 -->
      <g style="fill: #262626" transform="translate(187.849567 353.067937) rotate(-45) scale(0.1 -0.1)">
       <use xlink:href="#ArialMT-2d"/>
       <use xlink:href="#ArialMT-31" x="33.300781"/>
       <use xlink:href="#ArialMT-32" x="88.916016"/>
       <use xlink:href="#ArialMT-30" x="144.53125"/>
      </g>
     </g>
    </g>
    <g id="xtick_10">
     <g id="line2d_10"/>
     <g id="text_10">
      <!-- -110 -->
      <g style="fill: #262626" transform="translate(204.408232 352.546446) rotate(-45) scale(0.1 -0.1)">
       <use xlink:href="#ArialMT-2d"/>
       <use xlink:href="#ArialMT-31" x="33.300781"/>
       <use xlink:href="#ArialMT-31" x="81.541016"/>
       <use xlink:href="#ArialMT-30" x="137.15625"/>
      </g>
     </g>
    </g>
    <g id="xtick_11">
     <g id="line2d_11"/>
     <g id="text_11">
      <!-- -100 -->
      <g style="fill: #262626" transform="translate(220.445405 353.067937) rotate(-45) scale(0.1 -0.1)">
       <use xlink:href="#ArialMT-2d"/>
       <use xlink:href="#ArialMT-31" x="33.300781"/>
       <use xlink:href="#ArialMT-30" x="88.916016"/>
       <use xlink:href="#ArialMT-30" x="144.53125"/>
      </g>
     </g>
    </g>
    <g id="xtick_12">
     <g id="line2d_12"/>
     <g id="text_12">
      <!-- -90 -->
      <g style="fill: #262626" transform="translate(238.709413 349.135761) rotate(-45) scale(0.1 -0.1)">
       <use xlink:href="#ArialMT-2d"/>
       <use xlink:href="#ArialMT-39" x="33.300781"/>
       <use xlink:href="#ArialMT-30" x="88.916016"/>
      </g>
     </g>
    </g>
    <g id="xtick_13">
     <g id="line2d_13"/>
     <g id="text_13">
      <!-- -80 -->
      <g style="fill: #262626" transform="translate(255.007332 349.135761) rotate(-45) scale(0.1 -0.1)">
       <use xlink:href="#ArialMT-2d"/>
       <use xlink:href="#ArialMT-38" x="33.300781"/>
       <use xlink:href="#ArialMT-30" x="88.916016"/>
      </g>
     </g>
    </g>
    <g id="xtick_14">
     <g id="line2d_14"/>
     <g id="text_14">
      <!-- -70 -->
      <g style="fill: #262626" transform="translate(271.305251 349.135761) rotate(-45) scale(0.1 -0.1)">
       <use xlink:href="#ArialMT-2d"/>
       <use xlink:href="#ArialMT-37" x="33.300781"/>
       <use xlink:href="#ArialMT-30" x="88.916016"/>
      </g>
     </g>
    </g>
    <g id="xtick_15">
     <g id="line2d_15"/>
     <g id="text_15">
      <!-- -60 -->
      <g style="fill: #262626" transform="translate(287.603169 349.135761) rotate(-45) scale(0.1 -0.1)">
       <use xlink:href="#ArialMT-2d"/>
       <use xlink:href="#ArialMT-36" x="33.300781"/>
       <use xlink:href="#ArialMT-30" x="88.916016"/>
      </g>
     </g>
    </g>
    <g id="xtick_16">
     <g id="line2d_16"/>
     <g id="text_16">
      <!-- -50 -->
      <g style="fill: #262626" transform="translate(303.901088 349.135761) rotate(-45) scale(0.1 -0.1)">
       <use xlink:href="#ArialMT-2d"/>
       <use xlink:href="#ArialMT-35" x="33.300781"/>
       <use xlink:href="#ArialMT-30" x="88.916016"/>
      </g>
     </g>
    </g>
    <g id="xtick_17">
     <g id="line2d_17"/>
     <g id="text_17">
      <!-- -40 -->
      <g style="fill: #262626" transform="translate(320.199007 349.135761) rotate(-45) scale(0.1 -0.1)">
       <use xlink:href="#ArialMT-2d"/>
       <use xlink:href="#ArialMT-34" x="33.300781"/>
       <use xlink:href="#ArialMT-30" x="88.916016"/>
      </g>
     </g>
    </g>
    <g id="xtick_18">
     <g id="line2d_18"/>
     <g id="text_18">
      <!-- -30 -->
      <g style="fill: #262626" transform="translate(336.496926 349.135761) rotate(-45) scale(0.1 -0.1)">
       <use xlink:href="#ArialMT-2d"/>
       <use xlink:href="#ArialMT-33" x="33.300781"/>
       <use xlink:href="#ArialMT-30" x="88.916016"/>
      </g>
     </g>
    </g>
    <g id="xtick_19">
     <g id="line2d_19"/>
     <g id="text_19">
      <!-- -20 -->
      <g style="fill: #262626" transform="translate(352.794845 349.135761) rotate(-45) scale(0.1 -0.1)">
       <use xlink:href="#ArialMT-2d"/>
       <use xlink:href="#ArialMT-32" x="33.300781"/>
       <use xlink:href="#ArialMT-30" x="88.916016"/>
      </g>
     </g>
    </g>
    <g id="xtick_20">
     <g id="line2d_20"/>
     <g id="text_20">
      <!-- -10 -->
      <g style="fill: #262626" transform="translate(369.092764 349.135761) rotate(-45) scale(0.1 -0.1)">
       <use xlink:href="#ArialMT-2d"/>
       <use xlink:href="#ArialMT-31" x="33.300781"/>
       <use xlink:href="#ArialMT-30" x="88.916016"/>
      </g>
     </g>
    </g>
    <g id="xtick_21">
     <g id="line2d_21"/>
     <g id="text_21">
      <!-- 0 -->
      <g style="fill: #262626" transform="translate(388.533994 342.849139) rotate(-45) scale(0.1 -0.1)">
       <use xlink:href="#ArialMT-30"/>
      </g>
     </g>
    </g>
    <g id="xtick_22">
     <g id="line2d_22"/>
     <g id="text_22">
      <!-- 10 -->
      <g style="fill: #262626" transform="translate(402.865824 346.781316) rotate(-45) scale(0.1 -0.1)">
       <use xlink:href="#ArialMT-31"/>
       <use xlink:href="#ArialMT-30" x="55.615234"/>
      </g>
     </g>
    </g>
    <g id="xtick_23">
     <g id="line2d_23"/>
     <g id="text_23">
      <!-- 20 -->
      <g style="fill: #262626" transform="translate(419.163743 346.781316) rotate(-45) scale(0.1 -0.1)">
       <use xlink:href="#ArialMT-32"/>
       <use xlink:href="#ArialMT-30" x="55.615234"/>
      </g>
     </g>
    </g>
    <g id="xtick_24">
     <g id="line2d_24"/>
     <g id="text_24">
      <!-- 30 -->
      <g style="fill: #262626" transform="translate(435.461662 346.781316) rotate(-45) scale(0.1 -0.1)">
       <use xlink:href="#ArialMT-33"/>
       <use xlink:href="#ArialMT-30" x="55.615234"/>
      </g>
     </g>
    </g>
    <g id="xtick_25">
     <g id="line2d_25"/>
     <g id="text_25">
      <!-- 40 -->
      <g style="fill: #262626" transform="translate(451.759581 346.781316) rotate(-45) scale(0.1 -0.1)">
       <use xlink:href="#ArialMT-34"/>
       <use xlink:href="#ArialMT-30" x="55.615234"/>
      </g>
     </g>
    </g>
    <g id="xtick_26">
     <g id="line2d_26"/>
     <g id="text_26">
      <!-- 50 -->
      <g style="fill: #262626" transform="translate(468.0575 346.781316) rotate(-45) scale(0.1 -0.1)">
       <use xlink:href="#ArialMT-35"/>
       <use xlink:href="#ArialMT-30" x="55.615234"/>
      </g>
     </g>
    </g>
    <g id="text_27">
     <!-- Position -->
     <g style="fill: #262626" transform="translate(246.056563 366.346906) scale(0.11 -0.11)">
      <defs>
       <path id="ArialMT-50" d="M 494 0 
L 494 4581 
L 2222 4581 
Q 2678 4581 2919 4538 
Q 3256 4481 3484 4323 
Q 3713 4166 3852 3881 
Q 3991 3597 3991 3256 
Q 3991 2672 3619 2267 
Q 3247 1863 2275 1863 
L 1100 1863 
L 1100 0 
L 494 0 
z
M 1100 2403 
L 2284 2403 
Q 2872 2403 3119 2622 
Q 3366 2841 3366 3238 
Q 3366 3525 3220 3729 
Q 3075 3934 2838 4000 
Q 2684 4041 2272 4041 
L 1100 4041 
L 1100 2403 
z
" transform="scale(0.015625)"/>
       <path id="ArialMT-6f" d="M 213 1659 
Q 213 2581 725 3025 
Q 1153 3394 1769 3394 
Q 2453 3394 2887 2945 
Q 3322 2497 3322 1706 
Q 3322 1066 3130 698 
Q 2938 331 2570 128 
Q 2203 -75 1769 -75 
Q 1072 -75 642 372 
Q 213 819 213 1659 
z
M 791 1659 
Q 791 1022 1069 705 
Q 1347 388 1769 388 
Q 2188 388 2466 706 
Q 2744 1025 2744 1678 
Q 2744 2294 2464 2611 
Q 2184 2928 1769 2928 
Q 1347 2928 1069 2612 
Q 791 2297 791 1659 
z
" transform="scale(0.015625)"/>
       <path id="ArialMT-73" d="M 197 991 
L 753 1078 
Q 800 744 1014 566 
Q 1228 388 1613 388 
Q 2000 388 2187 545 
Q 2375 703 2375 916 
Q 2375 1106 2209 1216 
Q 2094 1291 1634 1406 
Q 1016 1563 777 1677 
Q 538 1791 414 1992 
Q 291 2194 291 2438 
Q 291 2659 392 2848 
Q 494 3038 669 3163 
Q 800 3259 1026 3326 
Q 1253 3394 1513 3394 
Q 1903 3394 2198 3281 
Q 2494 3169 2634 2976 
Q 2775 2784 2828 2463 
L 2278 2388 
Q 2241 2644 2061 2787 
Q 1881 2931 1553 2931 
Q 1166 2931 1000 2803 
Q 834 2675 834 2503 
Q 834 2394 903 2306 
Q 972 2216 1119 2156 
Q 1203 2125 1616 2013 
Q 2213 1853 2448 1751 
Q 2684 1650 2818 1456 
Q 2953 1263 2953 975 
Q 2953 694 2789 445 
Q 2625 197 2315 61 
Q 2006 -75 1616 -75 
Q 969 -75 630 194 
Q 291 463 197 991 
z
" transform="scale(0.015625)"/>
       <path id="ArialMT-69" d="M 425 3934 
L 425 4581 
L 988 4581 
L 988 3934 
L 425 3934 
z
M 425 0 
L 425 3319 
L 988 3319 
L 988 0 
L 425 0 
z
" transform="scale(0.015625)"/>
       <path id="ArialMT-74" d="M 1650 503 
L 1731 6 
Q 1494 -44 1306 -44 
Q 1000 -44 831 53 
Q 663 150 594 308 
Q 525 466 525 972 
L 525 2881 
L 113 2881 
L 113 3319 
L 525 3319 
L 525 4141 
L 1084 4478 
L 1084 3319 
L 1650 3319 
L 1650 2881 
L 1084 2881 
L 1084 941 
Q 1084 700 1114 631 
Q 1144 563 1211 522 
Q 1278 481 1403 481 
Q 1497 481 1650 503 
z
" transform="scale(0.015625)"/>
       <path id="ArialMT-6e" d="M 422 0 
L 422 3319 
L 928 3319 
L 928 2847 
Q 1294 3394 1984 3394 
Q 2284 3394 2536 3286 
Q 2788 3178 2913 3003 
Q 3038 2828 3088 2588 
Q 3119 2431 3119 2041 
L 3119 0 
L 2556 0 
L 2556 2019 
Q 2556 2363 2490 2533 
Q 2425 2703 2258 2804 
Q 2091 2906 1866 2906 
Q 1506 2906 1245 2678 
Q 984 2450 984 1813 
L 984 0 
L 422 0 
z
" transform="scale(0.015625)"/>
      </defs>
      <use xlink:href="#ArialMT-50"/>
      <use xlink:href="#ArialMT-6f" x="66.699219"/>
      <use xlink:href="#ArialMT-73" x="122.314453"/>
      <use xlink:href="#ArialMT-69" x="172.314453"/>
      <use xlink:href="#ArialMT-74" x="194.53125"/>
      <use xlink:href="#ArialMT-69" x="222.314453"/>
      <use xlink:href="#ArialMT-6f" x="244.53125"/>
      <use xlink:href="#ArialMT-6e" x="300.146484"/>
     </g>
    </g>
   </g>
   <g id="matplotlib.axis_2">
    <g id="ytick_1">
     <g id="line2d_27"/>
     <g id="text_28">
      <!-- 8.2 -->
      <g style="fill: #262626" transform="translate(21.522813 307.458671) scale(0.1 -0.1)">
       <defs>
        <path id="ArialMT-2e" d="M 581 0 
L 581 641 
L 1222 641 
L 1222 0 
L 581 0 
z
" transform="scale(0.015625)"/>
       </defs>
       <use xlink:href="#ArialMT-38"/>
       <use xlink:href="#ArialMT-2e" x="55.615234"/>
       <use xlink:href="#ArialMT-32" x="83.398438"/>
      </g>
     </g>
    </g>
    <g id="ytick_2">
     <g id="line2d_28"/>
     <g id="text_29">
      <!-- 8.4 -->
      <g style="fill: #262626" transform="translate(21.522813 260.685848) scale(0.1 -0.1)">
       <use xlink:href="#ArialMT-38"/>
       <use xlink:href="#ArialMT-2e" x="55.615234"/>
       <use xlink:href="#ArialMT-34" x="83.398438"/>
      </g>
     </g>
    </g>
    <g id="ytick_3">
     <g id="line2d_29"/>
     <g id="text_30">
      <!-- 8.6 -->
      <g style="fill: #262626" transform="translate(21.522813 213.913024) scale(0.1 -0.1)">
       <use xlink:href="#ArialMT-38"/>
       <use xlink:href="#ArialMT-2e" x="55.615234"/>
       <use xlink:href="#ArialMT-36" x="83.398438"/>
      </g>
     </g>
    </g>
    <g id="ytick_4">
     <g id="line2d_30"/>
     <g id="text_31">
      <!-- 8.8 -->
      <g style="fill: #262626" transform="translate(21.522813 167.140201) scale(0.1 -0.1)">
       <use xlink:href="#ArialMT-38"/>
       <use xlink:href="#ArialMT-2e" x="55.615234"/>
       <use xlink:href="#ArialMT-38" x="83.398438"/>
      </g>
     </g>
    </g>
    <g id="ytick_5">
     <g id="line2d_31"/>
     <g id="text_32">
      <!-- 9.0 -->
      <g style="fill: #262626" transform="translate(21.522813 120.367378) scale(0.1 -0.1)">
       <use xlink:href="#ArialMT-39"/>
       <use xlink:href="#ArialMT-2e" x="55.615234"/>
       <use xlink:href="#ArialMT-30" x="83.398438"/>
      </g>
     </g>
    </g>
    <g id="ytick_6">
     <g id="line2d_32"/>
     <g id="text_33">
      <!-- 9.2 -->
      <g style="fill: #262626" transform="translate(21.522813 73.594555) scale(0.1 -0.1)">
       <use xlink:href="#ArialMT-39"/>
       <use xlink:href="#ArialMT-2e" x="55.615234"/>
       <use xlink:href="#ArialMT-32" x="83.398438"/>
      </g>
     </g>
    </g>
    <g id="ytick_7">
     <g id="line2d_33"/>
     <g id="text_34">
      <!-- 9.4 -->
      <g style="fill: #262626" transform="translate(21.522813 26.821732) scale(0.1 -0.1)">
       <use xlink:href="#ArialMT-39"/>
       <use xlink:href="#ArialMT-2e" x="55.615234"/>
       <use xlink:href="#ArialMT-34" x="83.398438"/>
      </g>
     </g>
    </g>
    <g id="text_35">
     <!-- Sugimoto_dH -->
     <g style="fill: #262626" transform="translate(15.207656 207.71875) rotate(-90) scale(0.11 -0.11)">
      <defs>
       <path id="ArialMT-53" d="M 288 1472 
L 859 1522 
Q 900 1178 1048 958 
Q 1197 738 1509 602 
Q 1822 466 2213 466 
Q 2559 466 2825 569 
Q 3091 672 3220 851 
Q 3350 1031 3350 1244 
Q 3350 1459 3225 1620 
Q 3100 1781 2813 1891 
Q 2628 1963 1997 2114 
Q 1366 2266 1113 2400 
Q 784 2572 623 2826 
Q 463 3081 463 3397 
Q 463 3744 659 4045 
Q 856 4347 1234 4503 
Q 1613 4659 2075 4659 
Q 2584 4659 2973 4495 
Q 3363 4331 3572 4012 
Q 3781 3694 3797 3291 
L 3216 3247 
Q 3169 3681 2898 3903 
Q 2628 4125 2100 4125 
Q 1550 4125 1298 3923 
Q 1047 3722 1047 3438 
Q 1047 3191 1225 3031 
Q 1400 2872 2139 2705 
Q 2878 2538 3153 2413 
Q 3553 2228 3743 1945 
Q 3934 1663 3934 1294 
Q 3934 928 3725 604 
Q 3516 281 3123 101 
Q 2731 -78 2241 -78 
Q 1619 -78 1198 103 
Q 778 284 539 648 
Q 300 1013 288 1472 
z
" transform="scale(0.015625)"/>
       <path id="ArialMT-75" d="M 2597 0 
L 2597 488 
Q 2209 -75 1544 -75 
Q 1250 -75 995 37 
Q 741 150 617 320 
Q 494 491 444 738 
Q 409 903 409 1263 
L 409 3319 
L 972 3319 
L 972 1478 
Q 972 1038 1006 884 
Q 1059 663 1231 536 
Q 1403 409 1656 409 
Q 1909 409 2131 539 
Q 2353 669 2445 892 
Q 2538 1116 2538 1541 
L 2538 3319 
L 3100 3319 
L 3100 0 
L 2597 0 
z
" transform="scale(0.015625)"/>
       <path id="ArialMT-67" d="M 319 -275 
L 866 -356 
Q 900 -609 1056 -725 
Q 1266 -881 1628 -881 
Q 2019 -881 2231 -725 
Q 2444 -569 2519 -288 
Q 2563 -116 2559 434 
Q 2191 0 1641 0 
Q 956 0 581 494 
Q 206 988 206 1678 
Q 206 2153 378 2554 
Q 550 2956 876 3175 
Q 1203 3394 1644 3394 
Q 2231 3394 2613 2919 
L 2613 3319 
L 3131 3319 
L 3131 450 
Q 3131 -325 2973 -648 
Q 2816 -972 2473 -1159 
Q 2131 -1347 1631 -1347 
Q 1038 -1347 672 -1080 
Q 306 -813 319 -275 
z
M 784 1719 
Q 784 1066 1043 766 
Q 1303 466 1694 466 
Q 2081 466 2343 764 
Q 2606 1063 2606 1700 
Q 2606 2309 2336 2618 
Q 2066 2928 1684 2928 
Q 1309 2928 1046 2623 
Q 784 2319 784 1719 
z
" transform="scale(0.015625)"/>
       <path id="ArialMT-6d" d="M 422 0 
L 422 3319 
L 925 3319 
L 925 2853 
Q 1081 3097 1340 3245 
Q 1600 3394 1931 3394 
Q 2300 3394 2536 3241 
Q 2772 3088 2869 2813 
Q 3263 3394 3894 3394 
Q 4388 3394 4653 3120 
Q 4919 2847 4919 2278 
L 4919 0 
L 4359 0 
L 4359 2091 
Q 4359 2428 4304 2576 
Q 4250 2725 4106 2815 
Q 3963 2906 3769 2906 
Q 3419 2906 3187 2673 
Q 2956 2441 2956 1928 
L 2956 0 
L 2394 0 
L 2394 2156 
Q 2394 2531 2256 2718 
Q 2119 2906 1806 2906 
Q 1569 2906 1367 2781 
Q 1166 2656 1075 2415 
Q 984 2175 984 1722 
L 984 0 
L 422 0 
z
" transform="scale(0.015625)"/>
       <path id="ArialMT-5f" d="M -97 -1272 
L -97 -866 
L 3631 -866 
L 3631 -1272 
L -97 -1272 
z
" transform="scale(0.015625)"/>
       <path id="ArialMT-64" d="M 2575 0 
L 2575 419 
Q 2259 -75 1647 -75 
Q 1250 -75 917 144 
Q 584 363 401 755 
Q 219 1147 219 1656 
Q 219 2153 384 2558 
Q 550 2963 881 3178 
Q 1213 3394 1622 3394 
Q 1922 3394 2156 3267 
Q 2391 3141 2538 2938 
L 2538 4581 
L 3097 4581 
L 3097 0 
L 2575 0 
z
M 797 1656 
Q 797 1019 1065 703 
Q 1334 388 1700 388 
Q 2069 388 2326 689 
Q 2584 991 2584 1609 
Q 2584 2291 2321 2609 
Q 2059 2928 1675 2928 
Q 1300 2928 1048 2622 
Q 797 2316 797 1656 
z
" transform="scale(0.015625)"/>
       <path id="ArialMT-48" d="M 513 0 
L 513 4581 
L 1119 4581 
L 1119 2700 
L 3500 2700 
L 3500 4581 
L 4106 4581 
L 4106 0 
L 3500 0 
L 3500 2159 
L 1119 2159 
L 1119 0 
L 513 0 
z
" transform="scale(0.015625)"/>
      </defs>
      <use xlink:href="#ArialMT-53"/>
      <use xlink:href="#ArialMT-75" x="66.699219"/>
      <use xlink:href="#ArialMT-67" x="122.314453"/>
      <use xlink:href="#ArialMT-69" x="177.929688"/>
      <use xlink:href="#ArialMT-6d" x="200.146484"/>
      <use xlink:href="#ArialMT-6f" x="283.447266"/>
      <use xlink:href="#ArialMT-74" x="339.0625"/>
      <use xlink:href="#ArialMT-6f" x="366.845703"/>
      <use xlink:href="#ArialMT-5f" x="422.460938"/>
      <use xlink:href="#ArialMT-64" x="478.076172"/>
      <use xlink:href="#ArialMT-48" x="533.691406"/>
     </g>
    </g>
   </g>
   <g id="line2d_34">
    <path d="M 62.713722 156.652946 
L 64.343513 158.632095 
L 65.973305 158.492779 
L 67.603097 154.102172 
L 69.232889 154.956739 
L 70.862681 158.224201 
L 72.492473 161.121111 
L 74.122265 158.923653 
L 75.752057 156.077011 
L 77.381849 152.23505 
L 79.011641 151.068818 
L 80.641432 153.822103 
L 82.271224 157.197284 
L 83.901016 153.527673 
L 85.530808 150.943864 
L 87.1606 151.153556 
L 88.790392 147.226857 
L 90.420184 149.915511 
L 92.049976 145.147171 
L 93.679768 147.531341 
L 95.309559 152.927321 
L 96.939351 151.666296 
L 98.569143 147.957906 
L 100.198935 153.026422 
L 101.828727 153.099671 
L 103.458519 144.542511 
L 105.088311 143.999609 
L 106.718103 145.336755 
L 108.347895 145.029399 
L 109.977687 141.908434 
L 111.607478 142.485805 
L 113.23727 143.21111 
L 114.867062 137.256429 
L 116.496854 136.746562 
L 118.126646 142.775927 
L 119.756438 136.14621 
L 123.016022 144.867103 
L 124.645814 138.268983 
L 126.275605 137.512081 
L 127.905397 138.913858 
L 129.535189 137.490538 
L 131.164981 139.748318 
L 132.794773 140.673261 
L 134.424565 142.034823 
L 136.054357 141.678634 
L 137.684149 135.975297 
L 139.313941 139.929285 
L 140.943733 133.655758 
L 142.573524 135.136529 
L 144.203316 131.027426 
L 145.833108 135.02881 
L 147.4629 134.962743 
L 149.092692 133.983222 
L 152.352276 127.40521 
L 153.982068 130.047905 
L 155.61186 126.941303 
L 157.241651 129.079874 
L 158.871443 134.629533 
L 160.501235 130.618095 
L 162.131027 130.12259 
L 163.760819 123.208496 
L 165.390611 123.056254 
L 167.020403 123.955345 
L 168.650195 124.690703 
L 170.279987 121.120193 
L 171.909779 126.473086 
L 173.53957 126.757463 
L 175.169362 121.502235 
L 176.799154 122.612454 
L 178.428946 121.947471 
L 180.058738 116.037315 
L 181.68853 117.70767 
L 183.318322 118.198866 
L 184.948114 118.20892 
L 186.577906 116.901935 
L 188.207697 116.788472 
L 189.837489 111.778842 
L 191.467281 113.36015 
L 193.097073 115.633729 
L 194.726865 120.143545 
L 196.356657 116.512712 
L 197.986449 114.164448 
L 199.616241 114.657081 
L 201.246033 110.000768 
L 202.875825 112.336106 
L 204.505616 113.55548 
L 206.135408 109.429142 
L 207.7652 109.653196 
L 209.394992 108.785703 
L 211.024784 108.702401 
L 212.654576 106.128646 
L 214.284368 106.34121 
L 215.91416 104.729741 
L 217.543952 100.115079 
L 219.173743 105.479462 
L 220.803535 107.132582 
L 222.433327 104.047524 
L 224.063119 105.196521 
L 225.692911 101.740911 
L 228.952495 105.614469 
L 230.582287 99.48313 
L 232.212079 104.373552 
L 233.841871 100.528718 
L 235.471662 100.142368 
L 237.101454 95.493236 
L 238.731246 93.064542 
L 240.361038 94.171889 
L 241.99083 98.424616 
L 243.620622 94.161835 
L 245.250414 96.721227 
L 246.880206 93.284288 
L 248.509998 88.770163 
L 250.139789 91.333864 
L 253.399373 85.557278 
L 255.029165 90.115927 
L 256.658957 88.602122 
L 258.288749 88.047731 
L 259.918541 87.174493 
L 264.807917 80.441366 
L 266.437708 77.304603 
L 268.0675 75.970329 
L 269.697292 79.520732 
L 271.327084 85.430889 
L 272.956876 79.438866 
L 274.586668 76.497432 
L 276.21646 83.328223 
L 277.846252 82.275454 
L 279.476044 75.904262 
L 281.105836 77.955223 
L 282.735627 73.399447 
L 284.365419 76.221672 
L 285.995211 70.032883 
L 287.625003 74.321517 
L 289.254795 75.490622 
L 290.884587 81.2629 
L 292.514379 71.711856 
L 294.144171 73.645045 
L 297.403754 63.701906 
L 299.033546 63.775155 
L 300.663338 57.155492 
L 302.29313 60.341088 
L 303.922922 70.117622 
L 305.552714 67.180497 
L 307.182506 67.513706 
L 308.812298 66.952133 
L 310.44209 53.776003 
L 312.071882 51.858613 
L 313.701673 48.259377 
L 315.331465 40.71908 
L 316.961257 38.130963 
L 318.591049 40.917282 
L 320.220841 48.211981 
L 321.850633 49.822014 
L 325.110217 60.601049 
L 326.740009 55.269699 
L 328.3698 57.922448 
L 329.999592 61.814678 
L 331.629384 71.32407 
L 333.259176 72.328006 
L 334.888968 64.962931 
L 336.51876 62.906225 
L 338.148552 79.056824 
L 339.778344 97.712238 
L 341.408136 118.457391 
L 343.037928 142.484369 
L 344.667719 158.636404 
L 346.297511 140.01546 
L 347.927303 91.579463 
L 349.557095 61.415401 
L 351.186887 46.580405 
L 352.816679 38.35789 
L 354.446471 43.189425 
L 356.076263 50.152351 
L 357.706055 51.591471 
L 359.335846 52.527904 
L 360.965638 59.127459 
L 362.59543 64.476043 
L 365.855014 45.987234 
L 367.484806 35.795625 
L 369.114598 42.971116 
L 370.74439 58.540034 
L 372.374182 63.159005 
L 374.003974 60.639827 
L 375.633765 62.845903 
L 377.263557 69.105068 
L 378.893349 85.113478 
L 380.523141 76.210182 
L 382.152933 76.284867 
L 383.782725 77.034588 
L 385.412517 44.907177 
L 387.042309 167.253886 
L 388.672101 312.995625 
L 390.301892 192.701312 
L 391.931684 216.567431 
L 393.561476 119.36079 
L 395.191268 115.574843 
L 396.82106 92.141035 
L 398.450852 81.72968 
L 400.080644 85.848837 
L 401.710436 84.162683 
L 403.340228 86.733565 
L 404.97002 87.648454 
L 406.599811 85.340405 
L 408.229603 65.02469 
L 409.859395 72.385456 
L 411.489187 73.221352 
L 413.118979 77.676591 
L 414.748771 70.176508 
L 416.378563 63.793826 
L 418.008355 73.014532 
L 419.638147 85.975226 
L 421.267938 82.028419 
L 422.89773 70.279918 
L 424.527522 76.553445 
L 426.157314 81.373491 
L 429.416898 87.647018 
L 431.04669 83.322478 
L 432.676482 65.780156 
L 434.306274 74.233906 
L 435.936066 87.478977 
L 439.195649 74.256886 
L 440.825441 75.433173 
L 442.455233 85.90485 
L 444.085025 92.771548 
L 445.714817 94.090022 
L 447.344609 96.478501 
L 450.604193 87.017942 
L 452.233984 89.367642 
L 453.863776 93.50547 
L 455.493568 84.544724 
L 457.12336 86.364449 
L 458.753152 74.577169 
L 460.382944 76.18433 
L 462.012736 74.30141 
L 463.642528 65.547484 
L 465.27232 73.672334 
L 466.902112 71.77936 
L 468.531903 78.006927 
L 468.531903 78.006927 
" clip-path="url(#p7cd7564c96)" style="fill: none; stroke: #0272a2; stroke-width: 1.75; stroke-linecap: round"/>
   </g>
   <g id="line2d_35">
    <path d="M 62.713722 268.884 
L 64.343513 268.670128 
L 65.973305 264.134548 
L 67.603097 270.114467 
L 69.232889 270.135195 
L 70.862681 268.118962 
L 72.492473 269.180782 
L 74.122265 265.661797 
L 75.752057 266.010398 
L 77.381849 265.928429 
L 79.011641 266.784857 
L 80.641432 269.614177 
L 82.271224 266.835734 
L 83.901016 268.732311 
L 85.530808 266.513514 
L 87.1606 267.331312 
L 88.790392 268.867983 
L 90.420184 266.536125 
L 92.049976 264.876973 
L 93.679768 271.272387 
L 95.309559 268.216947 
L 96.939351 266.984596 
L 98.569143 271.968647 
L 100.198935 264.509529 
L 101.828727 266.603019 
L 103.458519 265.390453 
L 105.088311 266.450389 
L 106.718103 266.975174 
L 109.977687 268.294205 
L 111.607478 266.125342 
L 113.23727 270.307611 
L 114.867062 269.161938 
L 116.496854 267.857983 
L 118.126646 267.756229 
L 119.756438 265.643896 
L 121.38623 268.801089 
L 123.016022 266.3769 
L 124.645814 267.250286 
L 126.275605 267.132516 
L 127.905397 266.329791 
L 129.535189 267.104251 
L 131.164981 269.931687 
L 132.794773 264.709268 
L 134.424565 267.286089 
L 136.054357 270.317975 
L 137.684149 264.026199 
L 139.313941 262.742028 
L 140.943733 263.624837 
L 142.573524 267.816527 
L 144.203316 270.827686 
L 145.833108 269.747023 
L 147.4629 266.052795 
L 149.092692 265.611862 
L 150.722484 269.734775 
L 152.352276 265.404586 
L 153.982068 266.162086 
L 155.61186 268.441182 
L 157.241651 268.976332 
L 158.871443 264.323923 
L 160.501235 264.302253 
L 162.131027 266.614325 
L 163.760819 268.658823 
L 165.390611 267.49996 
L 167.020403 270.00706 
L 168.650195 270.484738 
L 170.279987 264.698904 
L 171.909779 264.215574 
L 173.53957 266.090482 
L 175.169362 265.736228 
L 176.799154 267.668607 
L 178.428946 270.322685 
L 180.058738 268.591929 
L 181.68853 267.477348 
L 183.318322 263.719995 
L 186.577906 265.934082 
L 188.207697 265.426256 
L 189.837489 271.070764 
L 191.467281 267.53482 
L 193.097073 269.212815 
L 194.726865 265.816312 
L 196.356657 269.255213 
L 197.986449 271.209262 
L 199.616241 267.971042 
L 201.246033 264.194846 
L 202.875825 272.011987 
L 204.505616 265.937851 
L 206.135408 263.759566 
L 207.7652 267.694046 
L 209.394992 268.972563 
L 211.024784 267.528225 
L 212.654576 269.505829 
L 214.284368 267.348271 
L 215.91416 268.369578 
L 217.543952 267.482059 
L 219.173743 265.317907 
L 220.803535 265.748476 
L 222.433327 272.196651 
L 224.063119 266.644474 
L 225.692911 266.904512 
L 227.322703 273.388489 
L 228.952495 273.915159 
L 230.582287 270.115409 
L 232.212079 266.670855 
L 233.841871 265.896396 
L 235.471662 267.223906 
L 237.101454 271.578591 
L 238.731246 263.614473 
L 240.361038 268.59664 
L 241.99083 271.946035 
L 243.620622 270.298189 
L 245.250414 262.443362 
L 246.880206 262.968148 
L 248.509998 269.578375 
L 250.139789 266.200715 
L 251.769581 272.167444 
L 253.399373 268.030399 
L 256.658957 264.229706 
L 258.288749 264.968363 
L 259.918541 269.507713 
L 261.548333 265.1323 
L 263.178125 264.037505 
L 264.807917 270.989738 
L 266.437708 269.257097 
L 268.0675 266.791452 
L 269.697292 268.81428 
L 271.327084 270.029672 
L 272.956876 267.672376 
L 274.586668 270.31609 
L 276.21646 268.501481 
L 277.846252 269.11483 
L 279.476044 268.59664 
L 281.105836 266.238401 
L 282.735627 266.788626 
L 284.365419 264.572654 
L 285.995211 267.419876 
L 287.625003 270.629831 
L 289.254795 267.209773 
L 290.884587 267.061853 
L 292.514379 266.0462 
L 294.144171 268.017208 
L 295.773963 266.555911 
L 297.403754 269.350371 
L 299.033546 269.894943 
L 300.663338 268.64469 
L 302.29313 271.799057 
L 303.922922 270.561995 
L 305.552714 267.002497 
L 307.182506 267.173029 
L 308.812298 269.232601 
L 310.44209 267.7176 
L 312.071882 263.90466 
L 313.701673 267.254997 
L 315.331465 268.243328 
L 316.961257 270.380157 
L 318.591049 268.949951 
L 320.220841 268.270651 
L 321.850633 269.803553 
L 323.480425 268.378057 
L 325.110217 266.566275 
L 326.740009 267.404801 
L 328.3698 262.89937 
L 329.999592 266.161144 
L 331.629384 267.301163 
L 333.259176 267.218253 
L 334.888968 267.833486 
L 336.51876 268.121789 
L 338.148552 266.073523 
L 339.778344 267.781667 
L 341.408136 266.427777 
L 343.037928 268.672955 
L 346.297511 272.415233 
L 347.927303 268.133095 
L 349.557095 269.659401 
L 351.186887 264.872263 
L 352.816679 266.798047 
L 354.446471 263.761451 
L 356.076263 265.699483 
L 357.706055 263.537215 
L 359.335846 266.209194 
L 360.965638 266.142301 
L 362.59543 273.346092 
L 364.225222 269.161938 
L 365.855014 272.019524 
L 367.484806 267.831602 
L 369.114598 265.596787 
L 370.74439 268.032283 
L 372.374182 269.413496 
L 374.003974 265.625052 
L 375.633765 265.964232 
L 377.263557 268.386537 
L 378.893349 266.497497 
L 380.523141 264.124184 
L 382.152933 267.868346 
L 383.782725 266.977059 
L 385.412517 264.495397 
L 387.042309 266.321312 
L 388.672101 267.119325 
L 390.301892 270.209626 
L 391.931684 270.771156 
L 393.561476 269.17984 
L 395.191268 266.248765 
L 396.82106 264.872263 
L 398.450852 271.803768 
L 400.080644 267.159839 
L 401.710436 265.789931 
L 403.340228 266.028299 
L 404.97002 268.361098 
L 406.599811 269.113888 
L 408.229603 270.910596 
L 409.859395 269.27594 
L 411.489187 266.943141 
L 413.118979 268.511845 
L 414.748771 263.557943 
L 416.378563 266.068812 
L 418.008355 269.104466 
L 419.638147 267.431182 
L 421.267938 264.789352 
L 422.89773 268.515613 
L 426.157314 267.929587 
L 427.787106 264.887337 
L 429.416898 266.841387 
L 431.04669 266.616209 
L 432.676482 267.788262 
L 434.306274 266.856461 
L 435.936066 265.409297 
L 437.565857 268.53163 
L 439.195649 269.549168 
L 440.825441 266.573812 
L 442.455233 268.310222 
L 444.085025 268.148169 
L 445.714817 266.544605 
L 447.344609 265.900164 
L 448.974401 262.83436 
L 450.604193 265.046563 
L 452.233984 266.330734 
L 453.863776 269.617004 
L 455.493568 266.802758 
L 457.12336 265.388569 
L 458.753152 265.098382 
L 460.382944 266.931835 
L 462.012736 271.176287 
L 463.642528 269.046052 
L 465.27232 266.127226 
L 466.902112 269.998581 
L 468.531903 271.767024 
L 468.531903 271.767024 
" clip-path="url(#p7cd7564c96)" style="fill: none; stroke-dasharray: 1.75,2.8875; stroke-dashoffset: 0; stroke: #9fc377; stroke-width: 1.75"/>
   </g>
   <g id="patch_3">
    <path d="M 42.422813 326.855625 
L 42.422813 21.935625 
" style="fill: none; stroke: #cccccc; stroke-width: 1.25; stroke-linejoin: miter; stroke-linecap: square"/>
   </g>
   <g id="patch_4">
    <path d="M 488.822812 326.855625 
L 488.822812 21.935625 
" style="fill: none; stroke: #cccccc; stroke-width: 1.25; stroke-linejoin: miter; stroke-linecap: square"/>
   </g>
   <g id="patch_5">
    <path d="M 42.422813 326.855625 
L 488.822813 326.855625 
" style="fill: none; stroke: #cccccc; stroke-width: 1.25; stroke-linejoin: miter; stroke-linecap: square"/>
   </g>
   <g id="patch_6">
    <path d="M 42.422813 21.935625 
L 488.822813 21.935625 
" style="fill: none; stroke: #cccccc; stroke-width: 1.25; stroke-linejoin: miter; stroke-linecap: square"/>
   </g>
   <g id="text_36">
    <!-- "Sugimoto_dH" for dataset Mouse_non_tata -->
    <g style="fill: #262626" transform="translate(148.63125 15.935625) scale(0.12 -0.12)">
     <defs>
      <path id="ArialMT-22" d="M 450 2959 
L 294 3831 
L 294 4581 
L 934 4581 
L 934 3831 
L 794 2959 
L 450 2959 
z
M 1484 2959 
L 1331 3831 
L 1331 4581 
L 1972 4581 
L 1972 3831 
L 1822 2959 
L 1484 2959 
z
" transform="scale(0.015625)"/>
      <path id="ArialMT-20" transform="scale(0.015625)"/>
      <path id="ArialMT-66" d="M 556 0 
L 556 2881 
L 59 2881 
L 59 3319 
L 556 3319 
L 556 3672 
Q 556 4006 616 4169 
Q 697 4388 901 4523 
Q 1106 4659 1475 4659 
Q 1713 4659 2000 4603 
L 1916 4113 
Q 1741 4144 1584 4144 
Q 1328 4144 1222 4034 
Q 1116 3925 1116 3625 
L 1116 3319 
L 1763 3319 
L 1763 2881 
L 1116 2881 
L 1116 0 
L 556 0 
z
" transform="scale(0.015625)"/>
      <path id="ArialMT-72" d="M 416 0 
L 416 3319 
L 922 3319 
L 922 2816 
Q 1116 3169 1280 3281 
Q 1444 3394 1641 3394 
Q 1925 3394 2219 3213 
L 2025 2691 
Q 1819 2813 1613 2813 
Q 1428 2813 1281 2702 
Q 1134 2591 1072 2394 
Q 978 2094 978 1738 
L 978 0 
L 416 0 
z
" transform="scale(0.015625)"/>
      <path id="ArialMT-61" d="M 2588 409 
Q 2275 144 1986 34 
Q 1697 -75 1366 -75 
Q 819 -75 525 192 
Q 231 459 231 875 
Q 231 1119 342 1320 
Q 453 1522 633 1644 
Q 813 1766 1038 1828 
Q 1203 1872 1538 1913 
Q 2219 1994 2541 2106 
Q 2544 2222 2544 2253 
Q 2544 2597 2384 2738 
Q 2169 2928 1744 2928 
Q 1347 2928 1158 2789 
Q 969 2650 878 2297 
L 328 2372 
Q 403 2725 575 2942 
Q 747 3159 1072 3276 
Q 1397 3394 1825 3394 
Q 2250 3394 2515 3294 
Q 2781 3194 2906 3042 
Q 3031 2891 3081 2659 
Q 3109 2516 3109 2141 
L 3109 1391 
Q 3109 606 3145 398 
Q 3181 191 3288 0 
L 2700 0 
Q 2613 175 2588 409 
z
M 2541 1666 
Q 2234 1541 1622 1453 
Q 1275 1403 1131 1340 
Q 988 1278 909 1158 
Q 831 1038 831 891 
Q 831 666 1001 516 
Q 1172 366 1500 366 
Q 1825 366 2078 508 
Q 2331 650 2450 897 
Q 2541 1088 2541 1459 
L 2541 1666 
z
" transform="scale(0.015625)"/>
      <path id="ArialMT-65" d="M 2694 1069 
L 3275 997 
Q 3138 488 2766 206 
Q 2394 -75 1816 -75 
Q 1088 -75 661 373 
Q 234 822 234 1631 
Q 234 2469 665 2931 
Q 1097 3394 1784 3394 
Q 2450 3394 2872 2941 
Q 3294 2488 3294 1666 
Q 3294 1616 3291 1516 
L 816 1516 
Q 847 969 1125 678 
Q 1403 388 1819 388 
Q 2128 388 2347 550 
Q 2566 713 2694 1069 
z
M 847 1978 
L 2700 1978 
Q 2663 2397 2488 2606 
Q 2219 2931 1791 2931 
Q 1403 2931 1139 2672 
Q 875 2413 847 1978 
z
" transform="scale(0.015625)"/>
      <path id="ArialMT-4d" d="M 475 0 
L 475 4581 
L 1388 4581 
L 2472 1338 
Q 2622 884 2691 659 
Q 2769 909 2934 1394 
L 4031 4581 
L 4847 4581 
L 4847 0 
L 4263 0 
L 4263 3834 
L 2931 0 
L 2384 0 
L 1059 3900 
L 1059 0 
L 475 0 
z
" transform="scale(0.015625)"/>
     </defs>
     <use xlink:href="#ArialMT-22"/>
     <use xlink:href="#ArialMT-53" x="35.498047"/>
     <use xlink:href="#ArialMT-75" x="102.197266"/>
     <use xlink:href="#ArialMT-67" x="157.8125"/>
     <use xlink:href="#ArialMT-69" x="213.427734"/>
     <use xlink:href="#ArialMT-6d" x="235.644531"/>
     <use xlink:href="#ArialMT-6f" x="318.945312"/>
     <use xlink:href="#ArialMT-74" x="374.560547"/>
     <use xlink:href="#ArialMT-6f" x="402.34375"/>
     <use xlink:href="#ArialMT-5f" x="457.958984"/>
     <use xlink:href="#ArialMT-64" x="513.574219"/>
     <use xlink:href="#ArialMT-48" x="569.189453"/>
     <use xlink:href="#ArialMT-22" x="641.40625"/>
     <use xlink:href="#ArialMT-20" x="676.904297"/>
     <use xlink:href="#ArialMT-66" x="704.6875"/>
     <use xlink:href="#ArialMT-6f" x="732.470703"/>
     <use xlink:href="#ArialMT-72" x="788.085938"/>
     <use xlink:href="#ArialMT-20" x="821.386719"/>
     <use xlink:href="#ArialMT-64" x="849.169922"/>
     <use xlink:href="#ArialMT-61" x="904.785156"/>
     <use xlink:href="#ArialMT-74" x="960.400391"/>
     <use xlink:href="#ArialMT-61" x="988.183594"/>
     <use xlink:href="#ArialMT-73" x="1043.798828"/>
     <use xlink:href="#ArialMT-65" x="1093.798828"/>
     <use xlink:href="#ArialMT-74" x="1149.414062"/>
     <use xlink:href="#ArialMT-20" x="1177.197266"/>
     <use xlink:href="#ArialMT-4d" x="1204.980469"/>
     <use xlink:href="#ArialMT-6f" x="1288.28125"/>
     <use xlink:href="#ArialMT-75" x="1343.896484"/>
     <use xlink:href="#ArialMT-73" x="1399.511719"/>
     <use xlink:href="#ArialMT-65" x="1449.511719"/>
     <use xlink:href="#ArialMT-5f" x="1505.126953"/>
     <use xlink:href="#ArialMT-6e" x="1560.742188"/>
     <use xlink:href="#ArialMT-6f" x="1616.357422"/>
     <use xlink:href="#ArialMT-6e" x="1671.972656"/>
     <use xlink:href="#ArialMT-5f" x="1727.587891"/>
     <use xlink:href="#ArialMT-74" x="1783.203125"/>
     <use xlink:href="#ArialMT-61" x="1810.986328"/>
     <use xlink:href="#ArialMT-74" x="1866.601562"/>
     <use xlink:href="#ArialMT-61" x="1894.384766"/>
    </g>
   </g>
   <g id="legend_1">
    <g id="line2d_36">
     <path d="M 51.422813 34.593437 
L 61.422813 34.593437 
L 71.422813 34.593437 
" style="fill: none; stroke: #0272a2; stroke-width: 1.75; stroke-linecap: round"/>
    </g>
    <g id="text_37">
     <!-- Promoter -->
     <g style="fill: #262626" transform="translate(79.422813 38.093437) scale(0.1 -0.1)">
      <use xlink:href="#ArialMT-50"/>
      <use xlink:href="#ArialMT-72" x="66.699219"/>
      <use xlink:href="#ArialMT-6f" x="100"/>
      <use xlink:href="#ArialMT-6d" x="155.615234"/>
      <use xlink:href="#ArialMT-6f" x="238.916016"/>
      <use xlink:href="#ArialMT-74" x="294.53125"/>
      <use xlink:href="#ArialMT-65" x="322.314453"/>
      <use xlink:href="#ArialMT-72" x="377.929688"/>
     </g>
    </g>
    <g id="line2d_37">
     <path d="M 51.422813 48.73875 
L 61.422813 48.73875 
L 71.422813 48.73875 
" style="fill: none; stroke-dasharray: 1.75,2.8875; stroke-dashoffset: 0; stroke: #9fc377; stroke-width: 1.75"/>
    </g>
    <g id="text_38">
     <!-- Non-promoter -->
     <g style="fill: #262626" transform="translate(79.422813 52.23875) scale(0.1 -0.1)">
      <defs>
       <path id="ArialMT-4e" d="M 488 0 
L 488 4581 
L 1109 4581 
L 3516 984 
L 3516 4581 
L 4097 4581 
L 4097 0 
L 3475 0 
L 1069 3600 
L 1069 0 
L 488 0 
z
" transform="scale(0.015625)"/>
       <path id="ArialMT-70" d="M 422 -1272 
L 422 3319 
L 934 3319 
L 934 2888 
Q 1116 3141 1344 3267 
Q 1572 3394 1897 3394 
Q 2322 3394 2647 3175 
Q 2972 2956 3137 2557 
Q 3303 2159 3303 1684 
Q 3303 1175 3120 767 
Q 2938 359 2589 142 
Q 2241 -75 1856 -75 
Q 1575 -75 1351 44 
Q 1128 163 984 344 
L 984 -1272 
L 422 -1272 
z
M 931 1641 
Q 931 1000 1190 694 
Q 1450 388 1819 388 
Q 2194 388 2461 705 
Q 2728 1022 2728 1688 
Q 2728 2322 2467 2637 
Q 2206 2953 1844 2953 
Q 1484 2953 1207 2617 
Q 931 2281 931 1641 
z
" transform="scale(0.015625)"/>
      </defs>
      <use xlink:href="#ArialMT-4e"/>
      <use xlink:href="#ArialMT-6f" x="72.216797"/>
      <use xlink:href="#ArialMT-6e" x="127.832031"/>
      <use xlink:href="#ArialMT-2d" x="183.447266"/>
      <use xlink:href="#ArialMT-70" x="216.748047"/>
      <use xlink:href="#ArialMT-72" x="272.363281"/>
      <use xlink:href="#ArialMT-6f" x="305.664062"/>
      <use xlink:href="#ArialMT-6d" x="361.279297"/>
      <use xlink:href="#ArialMT-6f" x="444.580078"/>
      <use xlink:href="#ArialMT-74" x="500.195312"/>
      <use xlink:href="#ArialMT-65" x="527.978516"/>
      <use xlink:href="#ArialMT-72" x="583.59375"/>
     </g>
    </g>
   </g>
  </g>
 </g>
 <defs>
  <clipPath id="p7cd7564c96">
   <rect x="42.422813" y="21.935625" width="446.4" height="304.92"/>
  </clipPath>
 </defs>
</svg>
