<?xml version="1.0" encoding="utf-8" standalone="no"?>
<!DOCTYPE svg PUBLIC "-//W3C//DTD SVG 1.1//EN"
  "http://www.w3.org/Graphics/SVG/1.1/DTD/svg11.dtd">
<svg xmlns:xlink="http://www.w3.org/1999/xlink" width="495.759844pt" height="375.733156pt" viewBox="0 0 495.759844 375.733156" xmlns="http://www.w3.org/2000/svg" version="1.1">
 <metadata>
  <rdf:RDF xmlns:dc="http://purl.org/dc/elements/1.1/" xmlns:cc="http://creativecommons.org/ns#" xmlns:rdf="http://www.w3.org/1999/02/22-rdf-syntax-ns#">
   <cc:Work>
    <dc:type rdf:resource="http://purl.org/dc/dcmitype/StillImage"/>
    <dc:date>2023-05-11T16:25:47.469322</dc:date>
    <dc:format>image/svg+xml</dc:format>
    <dc:creator>
     <cc:Agent>
      <dc:title>Matplotlib v3.7.1, https://matplotlib.org/</dc:title>
     </cc:Agent>
    </dc:creator>
   </cc:Work>
  </rdf:RDF>
 </metadata>
 <defs>
  <style type="text/css">*{stroke-linejoin: round; stroke-linecap: butt}</style>
 </defs>
 <g id="figure_1">
  <g id="patch_1">
   <path d="M 0 375.733156 
L 495.759844 375.733156 
L 495.759844 0 
L 0 0 
z
" style="fill: #ffffff"/>
  </g>
  <g id="axes_1">
   <g id="patch_2">
    <path d="M 42.159844 326.855625 
L 488.559844 326.855625 
L 488.559844 21.935625 
L 42.159844 21.935625 
z
" style="fill: #ffffff"/>
   </g>
   <g id="matplotlib.axis_1">
    <g id="xtick_1">
     <g id="line2d_1"/>
     <g id="text_1">
      <!-- -200 -->
      <g style="fill: #262626" transform="translate(57.203247 353.067937) rotate(-45) scale(0.1 -0.1)">
       <defs>
        <path id="ArialMT-2d" d="M 203 1375 
L 203 1941 
L 1931 1941 
L 1931 1375 
L 203 1375 
z
" transform="scale(0.015625)"/>
        <path id="ArialMT-32" d="M 3222 541 
L 3222 0 
L 194 0 
Q 188 203 259 391 
Q 375 700 629 1000 
Q 884 1300 1366 1694 
Q 2113 2306 2375 2664 
Q 2638 3022 2638 3341 
Q 2638 3675 2398 3904 
Q 2159 4134 1775 4134 
Q 1369 4134 1125 3890 
Q 881 3647 878 3216 
L 300 3275 
Q 359 3922 746 4261 
Q 1134 4600 1788 4600 
Q 2447 4600 2831 4234 
Q 3216 3869 3216 3328 
Q 3216 3053 3103 2787 
Q 2991 2522 2730 2228 
Q 2469 1934 1863 1422 
Q 1356 997 1212 845 
Q 1069 694 975 541 
L 3222 541 
z
" transform="scale(0.015625)"/>
        <path id="ArialMT-30" d="M 266 2259 
Q 266 3072 433 3567 
Q 600 4063 929 4331 
Q 1259 4600 1759 4600 
Q 2128 4600 2406 4451 
Q 2684 4303 2865 4023 
Q 3047 3744 3150 3342 
Q 3253 2941 3253 2259 
Q 3253 1453 3087 958 
Q 2922 463 2592 192 
Q 2263 -78 1759 -78 
Q 1097 -78 719 397 
Q 266 969 266 2259 
z
M 844 2259 
Q 844 1131 1108 757 
Q 1372 384 1759 384 
Q 2147 384 2411 759 
Q 2675 1134 2675 2259 
Q 2675 3391 2411 3762 
Q 2147 4134 1753 4134 
Q 1366 4134 1134 3806 
Q 844 3388 844 2259 
z
" transform="scale(0.015625)"/>
       </defs>
       <use xlink:href="#ArialMT-2d"/>
       <use xlink:href="#ArialMT-32" x="33.300781"/>
       <use xlink:href="#ArialMT-30" x="88.916016"/>
       <use xlink:href="#ArialMT-30" x="144.53125"/>
      </g>
     </g>
    </g>
    <g id="xtick_2">
     <g id="line2d_2"/>
     <g id="text_2">
      <!-- -190 -->
      <g style="fill: #262626" transform="translate(73.501166 353.067937) rotate(-45) scale(0.1 -0.1)">
       <defs>
        <path id="ArialMT-31" d="M 2384 0 
L 1822 0 
L 1822 3584 
Q 1619 3391 1289 3197 
Q 959 3003 697 2906 
L 697 3450 
Q 1169 3672 1522 3987 
Q 1875 4303 2022 4600 
L 2384 4600 
L 2384 0 
z
" transform="scale(0.015625)"/>
        <path id="ArialMT-39" d="M 350 1059 
L 891 1109 
Q 959 728 1153 556 
Q 1347 384 1650 384 
Q 1909 384 2104 503 
Q 2300 622 2425 820 
Q 2550 1019 2634 1356 
Q 2719 1694 2719 2044 
Q 2719 2081 2716 2156 
Q 2547 1888 2255 1720 
Q 1963 1553 1622 1553 
Q 1053 1553 659 1965 
Q 266 2378 266 3053 
Q 266 3750 677 4175 
Q 1088 4600 1706 4600 
Q 2153 4600 2523 4359 
Q 2894 4119 3086 3673 
Q 3278 3228 3278 2384 
Q 3278 1506 3087 986 
Q 2897 466 2520 194 
Q 2144 -78 1638 -78 
Q 1100 -78 759 220 
Q 419 519 350 1059 
z
M 2653 3081 
Q 2653 3566 2395 3850 
Q 2138 4134 1775 4134 
Q 1400 4134 1122 3828 
Q 844 3522 844 3034 
Q 844 2597 1108 2323 
Q 1372 2050 1759 2050 
Q 2150 2050 2401 2323 
Q 2653 2597 2653 3081 
z
" transform="scale(0.015625)"/>
       </defs>
       <use xlink:href="#ArialMT-2d"/>
       <use xlink:href="#ArialMT-31" x="33.300781"/>
       <use xlink:href="#ArialMT-39" x="88.916016"/>
       <use xlink:href="#ArialMT-30" x="144.53125"/>
      </g>
     </g>
    </g>
    <g id="xtick_3">
     <g id="line2d_3"/>
     <g id="text_3">
      <!-- -180 -->
      <g style="fill: #262626" transform="translate(89.799085 353.067937) rotate(-45) scale(0.1 -0.1)">
       <defs>
        <path id="ArialMT-38" d="M 1131 2484 
Q 781 2613 612 2850 
Q 444 3088 444 3419 
Q 444 3919 803 4259 
Q 1163 4600 1759 4600 
Q 2359 4600 2725 4251 
Q 3091 3903 3091 3403 
Q 3091 3084 2923 2848 
Q 2756 2613 2416 2484 
Q 2838 2347 3058 2040 
Q 3278 1734 3278 1309 
Q 3278 722 2862 322 
Q 2447 -78 1769 -78 
Q 1091 -78 675 323 
Q 259 725 259 1325 
Q 259 1772 486 2073 
Q 713 2375 1131 2484 
z
M 1019 3438 
Q 1019 3113 1228 2906 
Q 1438 2700 1772 2700 
Q 2097 2700 2305 2904 
Q 2513 3109 2513 3406 
Q 2513 3716 2298 3927 
Q 2084 4138 1766 4138 
Q 1444 4138 1231 3931 
Q 1019 3725 1019 3438 
z
M 838 1322 
Q 838 1081 952 856 
Q 1066 631 1291 507 
Q 1516 384 1775 384 
Q 2178 384 2440 643 
Q 2703 903 2703 1303 
Q 2703 1709 2433 1975 
Q 2163 2241 1756 2241 
Q 1359 2241 1098 1978 
Q 838 1716 838 1322 
z
" transform="scale(0.015625)"/>
       </defs>
       <use xlink:href="#ArialMT-2d"/>
       <use xlink:href="#ArialMT-31" x="33.300781"/>
       <use xlink:href="#ArialMT-38" x="88.916016"/>
       <use xlink:href="#ArialMT-30" x="144.53125"/>
      </g>
     </g>
    </g>
    <g id="xtick_4">
     <g id="line2d_4"/>
     <g id="text_4">
      <!-- -170 -->
      <g style="fill: #262626" transform="translate(106.097004 353.067937) rotate(-45) scale(0.1 -0.1)">
       <defs>
        <path id="ArialMT-37" d="M 303 3981 
L 303 4522 
L 3269 4522 
L 3269 4084 
Q 2831 3619 2401 2847 
Q 1972 2075 1738 1259 
Q 1569 684 1522 0 
L 944 0 
Q 953 541 1156 1306 
Q 1359 2072 1739 2783 
Q 2119 3494 2547 3981 
L 303 3981 
z
" transform="scale(0.015625)"/>
       </defs>
       <use xlink:href="#ArialMT-2d"/>
       <use xlink:href="#ArialMT-31" x="33.300781"/>
       <use xlink:href="#ArialMT-37" x="88.916016"/>
       <use xlink:href="#ArialMT-30" x="144.53125"/>
      </g>
     </g>
    </g>
    <g id="xtick_5">
     <g id="line2d_5"/>
     <g id="text_5">
      <!-- -160 -->
      <g style="fill: #262626" transform="translate(122.394923 353.067937) rotate(-45) scale(0.1 -0.1)">
       <defs>
        <path id="ArialMT-36" d="M 3184 3459 
L 2625 3416 
Q 2550 3747 2413 3897 
Q 2184 4138 1850 4138 
Q 1581 4138 1378 3988 
Q 1113 3794 959 3422 
Q 806 3050 800 2363 
Q 1003 2672 1297 2822 
Q 1591 2972 1913 2972 
Q 2475 2972 2870 2558 
Q 3266 2144 3266 1488 
Q 3266 1056 3080 686 
Q 2894 316 2569 119 
Q 2244 -78 1831 -78 
Q 1128 -78 684 439 
Q 241 956 241 2144 
Q 241 3472 731 4075 
Q 1159 4600 1884 4600 
Q 2425 4600 2770 4297 
Q 3116 3994 3184 3459 
z
M 888 1484 
Q 888 1194 1011 928 
Q 1134 663 1356 523 
Q 1578 384 1822 384 
Q 2178 384 2434 671 
Q 2691 959 2691 1453 
Q 2691 1928 2437 2201 
Q 2184 2475 1800 2475 
Q 1419 2475 1153 2201 
Q 888 1928 888 1484 
z
" transform="scale(0.015625)"/>
       </defs>
       <use xlink:href="#ArialMT-2d"/>
       <use xlink:href="#ArialMT-31" x="33.300781"/>
       <use xlink:href="#ArialMT-36" x="88.916016"/>
       <use xlink:href="#ArialMT-30" x="144.53125"/>
      </g>
     </g>
    </g>
    <g id="xtick_6">
     <g id="line2d_6"/>
     <g id="text_6">
      <!-- -150 -->
      <g style="fill: #262626" transform="translate(138.692842 353.067937) rotate(-45) scale(0.1 -0.1)">
       <defs>
        <path id="ArialMT-35" d="M 266 1200 
L 856 1250 
Q 922 819 1161 601 
Q 1400 384 1738 384 
Q 2144 384 2425 690 
Q 2706 997 2706 1503 
Q 2706 1984 2436 2262 
Q 2166 2541 1728 2541 
Q 1456 2541 1237 2417 
Q 1019 2294 894 2097 
L 366 2166 
L 809 4519 
L 3088 4519 
L 3088 3981 
L 1259 3981 
L 1013 2750 
Q 1425 3038 1878 3038 
Q 2478 3038 2890 2622 
Q 3303 2206 3303 1553 
Q 3303 931 2941 478 
Q 2500 -78 1738 -78 
Q 1113 -78 717 272 
Q 322 622 266 1200 
z
" transform="scale(0.015625)"/>
       </defs>
       <use xlink:href="#ArialMT-2d"/>
       <use xlink:href="#ArialMT-31" x="33.300781"/>
       <use xlink:href="#ArialMT-35" x="88.916016"/>
       <use xlink:href="#ArialMT-30" x="144.53125"/>
      </g>
     </g>
    </g>
    <g id="xtick_7">
     <g id="line2d_7"/>
     <g id="text_7">
      <!-- -140 -->
      <g style="fill: #262626" transform="translate(154.990761 353.067937) rotate(-45) scale(0.1 -0.1)">
       <defs>
        <path id="ArialMT-34" d="M 2069 0 
L 2069 1097 
L 81 1097 
L 81 1613 
L 2172 4581 
L 2631 4581 
L 2631 1613 
L 3250 1613 
L 3250 1097 
L 2631 1097 
L 2631 0 
L 2069 0 
z
M 2069 1613 
L 2069 3678 
L 634 1613 
L 2069 1613 
z
" transform="scale(0.015625)"/>
       </defs>
       <use xlink:href="#ArialMT-2d"/>
       <use xlink:href="#ArialMT-31" x="33.300781"/>
       <use xlink:href="#ArialMT-34" x="88.916016"/>
       <use xlink:href="#ArialMT-30" x="144.53125"/>
      </g>
     </g>
    </g>
    <g id="xtick_8">
     <g id="line2d_8"/>
     <g id="text_8">
      <!-- -130 -->
      <g style="fill: #262626" transform="translate(171.28868 353.067937) rotate(-45) scale(0.1 -0.1)">
       <defs>
        <path id="ArialMT-33" d="M 269 1209 
L 831 1284 
Q 928 806 1161 595 
Q 1394 384 1728 384 
Q 2125 384 2398 659 
Q 2672 934 2672 1341 
Q 2672 1728 2419 1979 
Q 2166 2231 1775 2231 
Q 1616 2231 1378 2169 
L 1441 2663 
Q 1497 2656 1531 2656 
Q 1891 2656 2178 2843 
Q 2466 3031 2466 3422 
Q 2466 3731 2256 3934 
Q 2047 4138 1716 4138 
Q 1388 4138 1169 3931 
Q 950 3725 888 3313 
L 325 3413 
Q 428 3978 793 4289 
Q 1159 4600 1703 4600 
Q 2078 4600 2393 4439 
Q 2709 4278 2876 4000 
Q 3044 3722 3044 3409 
Q 3044 3113 2884 2869 
Q 2725 2625 2413 2481 
Q 2819 2388 3044 2092 
Q 3269 1797 3269 1353 
Q 3269 753 2831 336 
Q 2394 -81 1725 -81 
Q 1122 -81 723 278 
Q 325 638 269 1209 
z
" transform="scale(0.015625)"/>
       </defs>
       <use xlink:href="#ArialMT-2d"/>
       <use xlink:href="#ArialMT-31" x="33.300781"/>
       <use xlink:href="#ArialMT-33" x="88.916016"/>
       <use xlink:href="#ArialMT-30" x="144.53125"/>
      </g>
     </g>
    </g>
    <g id="xtick_9">
     <g id="line2d_9"/>
     <g id="text_9">
      <!-- -120 -->
      <g style="fill: #262626" transform="translate(187.586599 353.067937) rotate(-45) scale(0.1 -0.1)">
       <use xlink:href="#ArialMT-2d"/>
       <use xlink:href="#ArialMT-31" x="33.300781"/>
       <use xlink:href="#ArialMT-32" x="88.916016"/>
       <use xlink:href="#ArialMT-30" x="144.53125"/>
      </g>
     </g>
    </g>
    <g id="xtick_10">
     <g id="line2d_10"/>
     <g id="text_10">
      <!-- -110 -->
      <g style="fill: #262626" transform="translate(204.145263 352.546446) rotate(-45) scale(0.1 -0.1)">
       <use xlink:href="#ArialMT-2d"/>
       <use xlink:href="#ArialMT-31" x="33.300781"/>
       <use xlink:href="#ArialMT-31" x="81.541016"/>
       <use xlink:href="#ArialMT-30" x="137.15625"/>
      </g>
     </g>
    </g>
    <g id="xtick_11">
     <g id="line2d_11"/>
     <g id="text_11">
      <!-- -100 -->
      <g style="fill: #262626" transform="translate(220.182437 353.067937) rotate(-45) scale(0.1 -0.1)">
       <use xlink:href="#ArialMT-2d"/>
       <use xlink:href="#ArialMT-31" x="33.300781"/>
       <use xlink:href="#ArialMT-30" x="88.916016"/>
       <use xlink:href="#ArialMT-30" x="144.53125"/>
      </g>
     </g>
    </g>
    <g id="xtick_12">
     <g id="line2d_12"/>
     <g id="text_12">
      <!-- -90 -->
      <g style="fill: #262626" transform="translate(238.446444 349.135761) rotate(-45) scale(0.1 -0.1)">
       <use xlink:href="#ArialMT-2d"/>
       <use xlink:href="#ArialMT-39" x="33.300781"/>
       <use xlink:href="#ArialMT-30" x="88.916016"/>
      </g>
     </g>
    </g>
    <g id="xtick_13">
     <g id="line2d_13"/>
     <g id="text_13">
      <!-- -80 -->
      <g style="fill: #262626" transform="translate(254.744363 349.135761) rotate(-45) scale(0.1 -0.1)">
       <use xlink:href="#ArialMT-2d"/>
       <use xlink:href="#ArialMT-38" x="33.300781"/>
       <use xlink:href="#ArialMT-30" x="88.916016"/>
      </g>
     </g>
    </g>
    <g id="xtick_14">
     <g id="line2d_14"/>
     <g id="text_14">
      <!-- -70 -->
      <g style="fill: #262626" transform="translate(271.042282 349.135761) rotate(-45) scale(0.1 -0.1)">
       <use xlink:href="#ArialMT-2d"/>
       <use xlink:href="#ArialMT-37" x="33.300781"/>
       <use xlink:href="#ArialMT-30" x="88.916016"/>
      </g>
     </g>
    </g>
    <g id="xtick_15">
     <g id="line2d_15"/>
     <g id="text_15">
      <!-- -60 -->
      <g style="fill: #262626" transform="translate(287.340201 349.135761) rotate(-45) scale(0.1 -0.1)">
       <use xlink:href="#ArialMT-2d"/>
       <use xlink:href="#ArialMT-36" x="33.300781"/>
       <use xlink:href="#ArialMT-30" x="88.916016"/>
      </g>
     </g>
    </g>
    <g id="xtick_16">
     <g id="line2d_16"/>
     <g id="text_16">
      <!-- -50 -->
      <g style="fill: #262626" transform="translate(303.63812 349.135761) rotate(-45) scale(0.1 -0.1)">
       <use xlink:href="#ArialMT-2d"/>
       <use xlink:href="#ArialMT-35" x="33.300781"/>
       <use xlink:href="#ArialMT-30" x="88.916016"/>
      </g>
     </g>
    </g>
    <g id="xtick_17">
     <g id="line2d_17"/>
     <g id="text_17">
      <!-- -40 -->
      <g style="fill: #262626" transform="translate(319.936039 349.135761) rotate(-45) scale(0.1 -0.1)">
       <use xlink:href="#ArialMT-2d"/>
       <use xlink:href="#ArialMT-34" x="33.300781"/>
       <use xlink:href="#ArialMT-30" x="88.916016"/>
      </g>
     </g>
    </g>
    <g id="xtick_18">
     <g id="line2d_18"/>
     <g id="text_18">
      <!-- -30 -->
      <g style="fill: #262626" transform="translate(336.233958 349.135761) rotate(-45) scale(0.1 -0.1)">
       <use xlink:href="#ArialMT-2d"/>
       <use xlink:href="#ArialMT-33" x="33.300781"/>
       <use xlink:href="#ArialMT-30" x="88.916016"/>
      </g>
     </g>
    </g>
    <g id="xtick_19">
     <g id="line2d_19"/>
     <g id="text_19">
      <!-- -20 -->
      <g style="fill: #262626" transform="translate(352.531877 349.135761) rotate(-45) scale(0.1 -0.1)">
       <use xlink:href="#ArialMT-2d"/>
       <use xlink:href="#ArialMT-32" x="33.300781"/>
       <use xlink:href="#ArialMT-30" x="88.916016"/>
      </g>
     </g>
    </g>
    <g id="xtick_20">
     <g id="line2d_20"/>
     <g id="text_20">
      <!-- -10 -->
      <g style="fill: #262626" transform="translate(368.829795 349.135761) rotate(-45) scale(0.1 -0.1)">
       <use xlink:href="#ArialMT-2d"/>
       <use xlink:href="#ArialMT-31" x="33.300781"/>
       <use xlink:href="#ArialMT-30" x="88.916016"/>
      </g>
     </g>
    </g>
    <g id="xtick_21">
     <g id="line2d_21"/>
     <g id="text_21">
      <!-- 0 -->
      <g style="fill: #262626" transform="translate(388.271025 342.849139) rotate(-45) scale(0.1 -0.1)">
       <use xlink:href="#ArialMT-30"/>
      </g>
     </g>
    </g>
    <g id="xtick_22">
     <g id="line2d_22"/>
     <g id="text_22">
      <!-- 10 -->
      <g style="fill: #262626" transform="translate(402.602856 346.781316) rotate(-45) scale(0.1 -0.1)">
       <use xlink:href="#ArialMT-31"/>
       <use xlink:href="#ArialMT-30" x="55.615234"/>
      </g>
     </g>
    </g>
    <g id="xtick_23">
     <g id="line2d_23"/>
     <g id="text_23">
      <!-- 20 -->
      <g style="fill: #262626" transform="translate(418.900775 346.781316) rotate(-45) scale(0.1 -0.1)">
       <use xlink:href="#ArialMT-32"/>
       <use xlink:href="#ArialMT-30" x="55.615234"/>
      </g>
     </g>
    </g>
    <g id="xtick_24">
     <g id="line2d_24"/>
     <g id="text_24">
      <!-- 30 -->
      <g style="fill: #262626" transform="translate(435.198694 346.781316) rotate(-45) scale(0.1 -0.1)">
       <use xlink:href="#ArialMT-33"/>
       <use xlink:href="#ArialMT-30" x="55.615234"/>
      </g>
     </g>
    </g>
    <g id="xtick_25">
     <g id="line2d_25"/>
     <g id="text_25">
      <!-- 40 -->
      <g style="fill: #262626" transform="translate(451.496613 346.781316) rotate(-45) scale(0.1 -0.1)">
       <use xlink:href="#ArialMT-34"/>
       <use xlink:href="#ArialMT-30" x="55.615234"/>
      </g>
     </g>
    </g>
    <g id="xtick_26">
     <g id="line2d_26"/>
     <g id="text_26">
      <!-- 50 -->
      <g style="fill: #262626" transform="translate(467.794531 346.781316) rotate(-45) scale(0.1 -0.1)">
       <use xlink:href="#ArialMT-35"/>
       <use xlink:href="#ArialMT-30" x="55.615234"/>
      </g>
     </g>
    </g>
    <g id="text_27">
     <!-- Position -->
     <g style="fill: #262626" transform="translate(245.793594 366.346906) scale(0.11 -0.11)">
      <defs>
       <path id="ArialMT-50" d="M 494 0 
L 494 4581 
L 2222 4581 
Q 2678 4581 2919 4538 
Q 3256 4481 3484 4323 
Q 3713 4166 3852 3881 
Q 3991 3597 3991 3256 
Q 3991 2672 3619 2267 
Q 3247 1863 2275 1863 
L 1100 1863 
L 1100 0 
L 494 0 
z
M 1100 2403 
L 2284 2403 
Q 2872 2403 3119 2622 
Q 3366 2841 3366 3238 
Q 3366 3525 3220 3729 
Q 3075 3934 2838 4000 
Q 2684 4041 2272 4041 
L 1100 4041 
L 1100 2403 
z
" transform="scale(0.015625)"/>
       <path id="ArialMT-6f" d="M 213 1659 
Q 213 2581 725 3025 
Q 1153 3394 1769 3394 
Q 2453 3394 2887 2945 
Q 3322 2497 3322 1706 
Q 3322 1066 3130 698 
Q 2938 331 2570 128 
Q 2203 -75 1769 -75 
Q 1072 -75 642 372 
Q 213 819 213 1659 
z
M 791 1659 
Q 791 1022 1069 705 
Q 1347 388 1769 388 
Q 2188 388 2466 706 
Q 2744 1025 2744 1678 
Q 2744 2294 2464 2611 
Q 2184 2928 1769 2928 
Q 1347 2928 1069 2612 
Q 791 2297 791 1659 
z
" transform="scale(0.015625)"/>
       <path id="ArialMT-73" d="M 197 991 
L 753 1078 
Q 800 744 1014 566 
Q 1228 388 1613 388 
Q 2000 388 2187 545 
Q 2375 703 2375 916 
Q 2375 1106 2209 1216 
Q 2094 1291 1634 1406 
Q 1016 1563 777 1677 
Q 538 1791 414 1992 
Q 291 2194 291 2438 
Q 291 2659 392 2848 
Q 494 3038 669 3163 
Q 800 3259 1026 3326 
Q 1253 3394 1513 3394 
Q 1903 3394 2198 3281 
Q 2494 3169 2634 2976 
Q 2775 2784 2828 2463 
L 2278 2388 
Q 2241 2644 2061 2787 
Q 1881 2931 1553 2931 
Q 1166 2931 1000 2803 
Q 834 2675 834 2503 
Q 834 2394 903 2306 
Q 972 2216 1119 2156 
Q 1203 2125 1616 2013 
Q 2213 1853 2448 1751 
Q 2684 1650 2818 1456 
Q 2953 1263 2953 975 
Q 2953 694 2789 445 
Q 2625 197 2315 61 
Q 2006 -75 1616 -75 
Q 969 -75 630 194 
Q 291 463 197 991 
z
" transform="scale(0.015625)"/>
       <path id="ArialMT-69" d="M 425 3934 
L 425 4581 
L 988 4581 
L 988 3934 
L 425 3934 
z
M 425 0 
L 425 3319 
L 988 3319 
L 988 0 
L 425 0 
z
" transform="scale(0.015625)"/>
       <path id="ArialMT-74" d="M 1650 503 
L 1731 6 
Q 1494 -44 1306 -44 
Q 1000 -44 831 53 
Q 663 150 594 308 
Q 525 466 525 972 
L 525 2881 
L 113 2881 
L 113 3319 
L 525 3319 
L 525 4141 
L 1084 4478 
L 1084 3319 
L 1650 3319 
L 1650 2881 
L 1084 2881 
L 1084 941 
Q 1084 700 1114 631 
Q 1144 563 1211 522 
Q 1278 481 1403 481 
Q 1497 481 1650 503 
z
" transform="scale(0.015625)"/>
       <path id="ArialMT-6e" d="M 422 0 
L 422 3319 
L 928 3319 
L 928 2847 
Q 1294 3394 1984 3394 
Q 2284 3394 2536 3286 
Q 2788 3178 2913 3003 
Q 3038 2828 3088 2588 
Q 3119 2431 3119 2041 
L 3119 0 
L 2556 0 
L 2556 2019 
Q 2556 2363 2490 2533 
Q 2425 2703 2258 2804 
Q 2091 2906 1866 2906 
Q 1506 2906 1245 2678 
Q 984 2450 984 1813 
L 984 0 
L 422 0 
z
" transform="scale(0.015625)"/>
      </defs>
      <use xlink:href="#ArialMT-50"/>
      <use xlink:href="#ArialMT-6f" x="66.699219"/>
      <use xlink:href="#ArialMT-73" x="122.314453"/>
      <use xlink:href="#ArialMT-69" x="172.314453"/>
      <use xlink:href="#ArialMT-74" x="194.53125"/>
      <use xlink:href="#ArialMT-69" x="222.314453"/>
      <use xlink:href="#ArialMT-6f" x="244.53125"/>
      <use xlink:href="#ArialMT-6e" x="300.146484"/>
     </g>
    </g>
   </g>
   <g id="matplotlib.axis_2">
    <g id="ytick_1">
     <g id="line2d_27"/>
     <g id="text_28">
      <!-- 0.4 -->
      <g style="fill: #262626" transform="translate(21.259844 329.181111) scale(0.1 -0.1)">
       <defs>
        <path id="ArialMT-2e" d="M 581 0 
L 581 641 
L 1222 641 
L 1222 0 
L 581 0 
z
" transform="scale(0.015625)"/>
       </defs>
       <use xlink:href="#ArialMT-30"/>
       <use xlink:href="#ArialMT-2e" x="55.615234"/>
       <use xlink:href="#ArialMT-34" x="83.398438"/>
      </g>
     </g>
    </g>
    <g id="ytick_2">
     <g id="line2d_28"/>
     <g id="text_29">
      <!-- 0.5 -->
      <g style="fill: #262626" transform="translate(21.259844 263.707477) scale(0.1 -0.1)">
       <use xlink:href="#ArialMT-30"/>
       <use xlink:href="#ArialMT-2e" x="55.615234"/>
       <use xlink:href="#ArialMT-35" x="83.398438"/>
      </g>
     </g>
    </g>
    <g id="ytick_3">
     <g id="line2d_29"/>
     <g id="text_30">
      <!-- 0.6 -->
      <g style="fill: #262626" transform="translate(21.259844 198.233842) scale(0.1 -0.1)">
       <use xlink:href="#ArialMT-30"/>
       <use xlink:href="#ArialMT-2e" x="55.615234"/>
       <use xlink:href="#ArialMT-36" x="83.398438"/>
      </g>
     </g>
    </g>
    <g id="ytick_4">
     <g id="line2d_30"/>
     <g id="text_31">
      <!-- 0.7 -->
      <g style="fill: #262626" transform="translate(21.259844 132.760208) scale(0.1 -0.1)">
       <use xlink:href="#ArialMT-30"/>
       <use xlink:href="#ArialMT-2e" x="55.615234"/>
       <use xlink:href="#ArialMT-37" x="83.398438"/>
      </g>
     </g>
    </g>
    <g id="ytick_5">
     <g id="line2d_31"/>
     <g id="text_32">
      <!-- 0.8 -->
      <g style="fill: #262626" transform="translate(21.259844 67.286573) scale(0.1 -0.1)">
       <use xlink:href="#ArialMT-30"/>
       <use xlink:href="#ArialMT-2e" x="55.615234"/>
       <use xlink:href="#ArialMT-38" x="83.398438"/>
      </g>
     </g>
    </g>
    <g id="text_33">
     <!-- Ivanov_BA_transition -->
     <g style="fill: #262626" transform="translate(15.073594 226.368906) rotate(-90) scale(0.11 -0.11)">
      <defs>
       <path id="ArialMT-49" d="M 597 0 
L 597 4581 
L 1203 4581 
L 1203 0 
L 597 0 
z
" transform="scale(0.015625)"/>
       <path id="ArialMT-76" d="M 1344 0 
L 81 3319 
L 675 3319 
L 1388 1331 
Q 1503 1009 1600 663 
Q 1675 925 1809 1294 
L 2547 3319 
L 3125 3319 
L 1869 0 
L 1344 0 
z
" transform="scale(0.015625)"/>
       <path id="ArialMT-61" d="M 2588 409 
Q 2275 144 1986 34 
Q 1697 -75 1366 -75 
Q 819 -75 525 192 
Q 231 459 231 875 
Q 231 1119 342 1320 
Q 453 1522 633 1644 
Q 813 1766 1038 1828 
Q 1203 1872 1538 1913 
Q 2219 1994 2541 2106 
Q 2544 2222 2544 2253 
Q 2544 2597 2384 2738 
Q 2169 2928 1744 2928 
Q 1347 2928 1158 2789 
Q 969 2650 878 2297 
L 328 2372 
Q 403 2725 575 2942 
Q 747 3159 1072 3276 
Q 1397 3394 1825 3394 
Q 2250 3394 2515 3294 
Q 2781 3194 2906 3042 
Q 3031 2891 3081 2659 
Q 3109 2516 3109 2141 
L 3109 1391 
Q 3109 606 3145 398 
Q 3181 191 3288 0 
L 2700 0 
Q 2613 175 2588 409 
z
M 2541 1666 
Q 2234 1541 1622 1453 
Q 1275 1403 1131 1340 
Q 988 1278 909 1158 
Q 831 1038 831 891 
Q 831 666 1001 516 
Q 1172 366 1500 366 
Q 1825 366 2078 508 
Q 2331 650 2450 897 
Q 2541 1088 2541 1459 
L 2541 1666 
z
" transform="scale(0.015625)"/>
       <path id="ArialMT-5f" d="M -97 -1272 
L -97 -866 
L 3631 -866 
L 3631 -1272 
L -97 -1272 
z
" transform="scale(0.015625)"/>
       <path id="ArialMT-42" d="M 469 0 
L 469 4581 
L 2188 4581 
Q 2713 4581 3030 4442 
Q 3347 4303 3526 4014 
Q 3706 3725 3706 3409 
Q 3706 3116 3547 2856 
Q 3388 2597 3066 2438 
Q 3481 2316 3704 2022 
Q 3928 1728 3928 1328 
Q 3928 1006 3792 729 
Q 3656 453 3456 303 
Q 3256 153 2954 76 
Q 2653 0 2216 0 
L 469 0 
z
M 1075 2656 
L 2066 2656 
Q 2469 2656 2644 2709 
Q 2875 2778 2992 2937 
Q 3109 3097 3109 3338 
Q 3109 3566 3000 3739 
Q 2891 3913 2687 3977 
Q 2484 4041 1991 4041 
L 1075 4041 
L 1075 2656 
z
M 1075 541 
L 2216 541 
Q 2509 541 2628 563 
Q 2838 600 2978 687 
Q 3119 775 3209 942 
Q 3300 1109 3300 1328 
Q 3300 1584 3169 1773 
Q 3038 1963 2805 2039 
Q 2572 2116 2134 2116 
L 1075 2116 
L 1075 541 
z
" transform="scale(0.015625)"/>
       <path id="ArialMT-41" d="M -9 0 
L 1750 4581 
L 2403 4581 
L 4278 0 
L 3588 0 
L 3053 1388 
L 1138 1388 
L 634 0 
L -9 0 
z
M 1313 1881 
L 2866 1881 
L 2388 3150 
Q 2169 3728 2063 4100 
Q 1975 3659 1816 3225 
L 1313 1881 
z
" transform="scale(0.015625)"/>
       <path id="ArialMT-72" d="M 416 0 
L 416 3319 
L 922 3319 
L 922 2816 
Q 1116 3169 1280 3281 
Q 1444 3394 1641 3394 
Q 1925 3394 2219 3213 
L 2025 2691 
Q 1819 2813 1613 2813 
Q 1428 2813 1281 2702 
Q 1134 2591 1072 2394 
Q 978 2094 978 1738 
L 978 0 
L 416 0 
z
" transform="scale(0.015625)"/>
      </defs>
      <use xlink:href="#ArialMT-49"/>
      <use xlink:href="#ArialMT-76" x="27.783203"/>
      <use xlink:href="#ArialMT-61" x="77.783203"/>
      <use xlink:href="#ArialMT-6e" x="133.398438"/>
      <use xlink:href="#ArialMT-6f" x="189.013672"/>
      <use xlink:href="#ArialMT-76" x="244.628906"/>
      <use xlink:href="#ArialMT-5f" x="294.628906"/>
      <use xlink:href="#ArialMT-42" x="350.244141"/>
      <use xlink:href="#ArialMT-41" x="416.943359"/>
      <use xlink:href="#ArialMT-5f" x="483.642578"/>
      <use xlink:href="#ArialMT-74" x="539.257812"/>
      <use xlink:href="#ArialMT-72" x="567.041016"/>
      <use xlink:href="#ArialMT-61" x="600.341797"/>
      <use xlink:href="#ArialMT-6e" x="655.957031"/>
      <use xlink:href="#ArialMT-73" x="711.572266"/>
      <use xlink:href="#ArialMT-69" x="761.572266"/>
      <use xlink:href="#ArialMT-74" x="783.789062"/>
      <use xlink:href="#ArialMT-69" x="811.572266"/>
      <use xlink:href="#ArialMT-6f" x="833.789062"/>
      <use xlink:href="#ArialMT-6e" x="889.404297"/>
     </g>
    </g>
   </g>
   <g id="line2d_32">
    <path d="M 62.450753 194.399202 
L 64.080545 196.370689 
L 65.710337 198.648574 
L 67.340129 198.18978 
L 68.96992 199.856075 
L 70.599712 198.328102 
L 72.229504 197.987123 
L 73.859296 195.88415 
L 75.489088 196.770776 
L 77.11888 200.468068 
L 78.748672 198.854851 
L 80.378464 194.194131 
L 82.008256 197.938469 
L 83.638047 195.244814 
L 85.267839 200.452788 
L 86.897631 196.809378 
L 88.527423 200.074816 
L 90.157215 198.482508 
L 91.787007 200.574222 
L 93.416799 200.624082 
L 95.046591 196.573748 
L 96.676383 198.269396 
L 98.306175 199.243277 
L 99.935966 199.186984 
L 103.19555 199.727404 
L 104.825342 200.170114 
L 106.455134 198.000392 
L 108.084926 199.692823 
L 111.34451 202.022982 
L 112.974302 198.863697 
L 114.604093 203.236514 
L 116.233885 202.30244 
L 117.863677 202.572248 
L 119.493469 198.086039 
L 121.123261 205.308123 
L 122.753053 200.737072 
L 124.382845 201.530009 
L 126.012637 202.832405 
L 127.642429 201.626111 
L 129.272221 205.519627 
L 130.902012 200.513505 
L 132.531804 204.06564 
L 134.161596 199.432264 
L 135.791388 201.348261 
L 137.42118 203.859766 
L 139.050972 203.90078 
L 140.680764 201.101775 
L 142.310556 206.160169 
L 143.940348 202.951828 
L 145.570139 203.70335 
L 147.199931 204.071269 
L 148.829723 202.780132 
L 150.459515 205.917704 
L 152.089307 204.995693 
L 153.719099 206.342319 
L 155.348891 209.002198 
L 156.978683 204.38571 
L 158.608475 205.190308 
L 160.238267 202.725447 
L 161.868058 205.7062 
L 163.49785 206.283613 
L 165.127642 209.801167 
L 166.757434 205.102249 
L 168.387226 205.236952 
L 170.017018 210.00101 
L 171.64681 204.832441 
L 173.276602 208.90087 
L 174.906394 208.127635 
L 176.536185 204.469346 
L 178.165977 205.691725 
L 179.795769 209.355241 
L 183.055353 208.00781 
L 184.685145 205.699365 
L 186.314937 208.239418 
L 187.944729 208.56753 
L 189.574521 206.286428 
L 191.204313 209.278038 
L 192.834104 207.785047 
L 194.463896 208.610153 
L 196.093688 207.152145 
L 197.72348 206.912092 
L 199.353272 212.265225 
L 200.983064 207.152547 
L 202.612856 206.487075 
L 204.242648 210.022321 
L 205.87244 206.478229 
L 207.502231 210.806413 
L 209.132023 212.179578 
L 210.761815 211.313056 
L 212.391607 211.32914 
L 214.021399 213.069421 
L 215.651191 212.232655 
L 217.280983 210.535398 
L 218.910775 212.972917 
L 220.540567 209.404297 
L 222.170359 212.596553 
L 223.80015 212.163092 
L 225.429942 211.170713 
L 227.059734 214.047725 
L 228.689526 210.160643 
L 230.319318 211.6472 
L 231.94911 211.41157 
L 233.578902 212.381431 
L 235.208694 214.002288 
L 236.838486 212.042462 
L 238.468277 211.638756 
L 240.098069 215.32117 
L 241.727861 213.076256 
L 243.357653 212.925872 
L 246.617237 217.079947 
L 248.247029 212.91984 
L 249.876821 214.970943 
L 251.506613 213.83019 
L 253.136405 215.611485 
L 254.766196 212.928686 
L 256.395988 216.529475 
L 258.02578 212.675365 
L 259.655572 217.909878 
L 261.285364 215.96131 
L 262.915156 217.044965 
L 264.544948 215.560016 
L 266.17474 218.534738 
L 267.804532 217.291451 
L 269.434323 219.50299 
L 271.064115 211.929473 
L 272.693907 216.735349 
L 274.323699 216.260069 
L 275.953491 215.278548 
L 277.583283 219.196592 
L 279.213075 215.247184 
L 280.842867 216.771136 
L 282.472659 219.728567 
L 284.102451 220.340159 
L 285.732242 216.676643 
L 287.362034 217.626399 
L 288.991826 213.792795 
L 290.621618 216.447447 
L 292.25141 220.494162 
L 293.881202 218.954931 
L 295.510994 219.377134 
L 297.140786 221.203463 
L 298.770578 221.729006 
L 300.400369 223.799007 
L 302.030161 221.007642 
L 303.659953 221.55168 
L 305.289745 219.541994 
L 306.919537 221.836768 
L 308.549329 222.412572 
L 310.179121 227.652715 
L 311.808913 228.680075 
L 313.438705 229.312978 
L 315.068497 224.528815 
L 316.698288 228.181072 
L 318.32808 226.348309 
L 319.957872 229.902454 
L 321.587664 224.747556 
L 323.217456 223.794986 
L 324.847248 224.349479 
L 326.47704 220.307991 
L 328.106832 219.486504 
L 329.736624 215.507342 
L 331.366415 216.997115 
L 332.996207 222.895492 
L 334.625999 231.416755 
L 336.255791 224.889095 
L 337.885583 215.617114 
L 339.515375 211.843022 
L 341.145167 208.764558 
L 342.774959 198.443906 
L 344.404751 191.968921 
L 346.034543 197.851214 
L 347.664334 215.349317 
L 349.294126 227.181054 
L 350.923918 222.562957 
L 352.55371 224.938151 
L 354.183502 223.733465 
L 355.813294 221.326103 
L 357.443086 220.145141 
L 359.072878 221.216733 
L 360.70267 216.245594 
L 363.962253 220.682344 
L 365.592045 214.093163 
L 367.221837 224.539671 
L 368.851629 233.7252 
L 370.481421 219.440263 
L 372.111213 222.702083 
L 373.741005 216.165174 
L 375.370797 215.676625 
L 377.000589 217.765927 
L 378.63038 215.328006 
L 380.260172 202.5248 
L 381.889964 235.204921 
L 383.519756 240.200186 
L 385.149548 217.634441 
L 386.77934 35.795625 
L 388.409132 312.995625 
L 390.038924 180.085313 
L 391.668716 173.867268 
L 393.298507 201.166513 
L 394.928299 192.002295 
L 396.558091 195.311562 
L 398.187883 206.225309 
L 399.817675 214.329194 
L 401.447467 209.613388 
L 403.077259 206.907669 
L 404.707051 201.452002 
L 406.336843 211.127689 
L 407.966635 210.470259 
L 409.596426 216.559632 
L 411.226218 219.614774 
L 412.85601 210.964437 
L 414.485802 213.885278 
L 416.115594 212.683407 
L 417.745386 211.009874 
L 419.375178 209.725573 
L 421.00497 212.443756 
L 422.634762 212.82776 
L 424.264553 216.703583 
L 425.894345 215.063023 
L 427.524137 208.260327 
L 429.153929 207.840537 
L 430.783721 208.373719 
L 432.413513 222.008866 
L 434.043305 221.371138 
L 435.673097 219.661819 
L 437.302889 216.044545 
L 438.932681 216.268513 
L 440.562472 215.380681 
L 442.192264 208.57517 
L 443.822056 207.150939 
L 445.451848 207.390589 
L 447.08164 210.130084 
L 448.711432 206.270746 
L 450.341224 211.640364 
L 451.971016 211.117234 
L 453.600808 207.710659 
L 455.2306 212.446169 
L 456.860391 216.473583 
L 458.490183 214.746974 
L 460.119975 218.663007 
L 461.749767 218.168025 
L 463.379559 218.177273 
L 465.009351 214.616292 
L 466.639143 217.426154 
L 468.268935 213.381851 
L 468.268935 213.381851 
" clip-path="url(#pf54afa333e)" style="fill: none; stroke: #0272a2; stroke-width: 1.75; stroke-linecap: round"/>
   </g>
   <g id="line2d_33">
    <path d="M 62.450753 165.186789 
L 64.080545 167.03689 
L 65.710337 165.88183 
L 67.340129 166.511719 
L 68.96992 166.701635 
L 70.599712 165.532067 
L 72.229504 162.159998 
L 73.859296 167.16693 
L 75.489088 164.597257 
L 77.11888 166.715879 
L 78.748672 164.734946 
L 80.378464 165.933001 
L 82.008256 165.842 
L 83.638047 166.51673 
L 85.267839 167.057992 
L 86.897631 163.045219 
L 88.527423 165.522307 
L 90.157215 166.920038 
L 91.787007 164.683774 
L 93.416799 165.229256 
L 95.046591 164.040433 
L 96.676383 167.803149 
L 98.306175 167.059838 
L 99.935966 163.051813 
L 101.565758 167.627477 
L 103.19555 167.149257 
L 104.825342 165.415743 
L 106.455134 165.224244 
L 109.714718 166.122918 
L 111.34451 165.817205 
L 112.974302 165.662898 
L 116.233885 166.547328 
L 117.863677 166.570804 
L 119.493469 164.730198 
L 121.123261 166.118434 
L 122.753053 166.733024 
L 124.382845 167.063267 
L 126.012637 168.256838 
L 127.642429 163.397883 
L 129.272221 164.827267 
L 130.902012 167.634598 
L 132.531804 165.432097 
L 134.161596 166.644132 
L 135.791388 166.182003 
L 137.42118 165.925616 
L 139.050972 169.357297 
L 140.680764 166.586894 
L 142.310556 164.227712 
L 143.940348 164.338232 
L 145.570139 167.473697 
L 147.199931 166.96277 
L 148.829723 165.848067 
L 150.459515 165.713015 
L 152.089307 165.725412 
L 153.719099 169.218817 
L 155.348891 161.932626 
L 156.978683 166.008968 
L 158.608475 168.732156 
L 160.238267 166.749641 
L 161.868058 166.396977 
L 163.49785 165.497513 
L 165.127642 166.125555 
L 166.757434 163.145189 
L 168.387226 166.155626 
L 170.017018 167.578942 
L 171.64681 166.541525 
L 173.276602 166.104981 
L 174.906394 166.57687 
L 176.536185 164.021969 
L 178.165977 165.867322 
L 179.795769 166.780503 
L 181.425561 165.743085 
L 183.055353 165.445813 
L 184.685145 167.289584 
L 186.314937 165.148014 
L 187.944729 166.624877 
L 189.574521 165.461112 
L 191.204313 165.118735 
L 192.834104 167.221003 
L 194.463896 166.478747 
L 196.093688 164.567978 
L 197.72348 165.606715 
L 199.353272 161.942386 
L 200.983064 165.442912 
L 204.242648 164.60728 
L 205.87244 167.381904 
L 209.132023 165.685847 
L 210.761815 165.940387 
L 212.391607 167.795236 
L 214.021399 164.442159 
L 215.651191 167.260833 
L 217.280983 165.744404 
L 218.910775 166.075702 
L 220.540567 165.788982 
L 222.170359 167.830318 
L 223.80015 166.673147 
L 225.429942 164.453237 
L 227.059734 168.02762 
L 228.689526 162.947623 
L 231.94911 165.825118 
L 233.578902 167.733513 
L 235.208694 164.784536 
L 236.838486 167.719006 
L 238.468277 165.988394 
L 240.098069 165.948828 
L 241.727861 164.531841 
L 243.357653 165.299683 
L 244.987445 163.181589 
L 246.617237 168.085122 
L 248.247029 167.966424 
L 249.876821 164.390987 
L 251.506613 166.421508 
L 253.136405 166.76283 
L 254.766196 168.956627 
L 256.395988 164.498342 
L 258.02578 168.091716 
L 259.655572 168.927876 
L 261.285364 166.633054 
L 262.915156 165.574007 
L 264.544948 167.766485 
L 266.17474 164.826475 
L 267.804532 166.400934 
L 269.434323 166.347652 
L 271.064115 164.948602 
L 272.693907 164.872899 
L 274.323699 165.481159 
L 275.953491 164.666102 
L 277.583283 165.743085 
L 279.213075 164.751564 
L 280.842867 166.515148 
L 282.472659 166.780239 
L 284.102451 167.480819 
L 285.732242 165.42603 
L 287.362034 164.60517 
L 288.991826 166.176727 
L 290.621618 165.964127 
L 292.25141 165.225827 
L 293.881202 167.55151 
L 295.510994 166.272213 
L 297.140786 167.57947 
L 298.770578 165.870487 
L 300.400369 163.673525 
L 302.030161 164.570616 
L 303.659953 166.308877 
L 305.289745 165.09948 
L 306.919537 165.892908 
L 308.549329 164.493594 
L 310.179121 167.919209 
L 311.808913 166.290941 
L 315.068497 165.204989 
L 316.698288 162.740562 
L 318.32808 167.228125 
L 319.957872 164.212677 
L 321.587664 163.330093 
L 323.217456 166.211018 
L 324.847248 162.969516 
L 326.47704 166.711131 
L 328.106832 168.709472 
L 329.736624 166.932436 
L 332.996207 166.343959 
L 334.625999 164.799834 
L 336.255791 166.468987 
L 337.885583 165.93221 
L 339.515375 166.313625 
L 341.145167 167.115758 
L 342.774959 166.785251 
L 344.404751 163.33827 
L 346.034543 166.239769 
L 347.664334 163.539793 
L 349.294126 165.110295 
L 350.923918 169.533761 
L 352.55371 164.840455 
L 354.183502 166.683434 
L 355.813294 166.223679 
L 359.072878 164.67296 
L 360.70267 163.683285 
L 363.962253 166.551284 
L 365.592045 166.940877 
L 367.221837 166.07834 
L 368.851629 167.236302 
L 370.481421 166.741728 
L 372.111213 164.149107 
L 373.741005 166.54047 
L 375.370797 166.182267 
L 377.000589 163.745271 
L 378.63038 167.418041 
L 380.260172 164.484626 
L 381.889964 167.169567 
L 383.519756 166.682379 
L 385.149548 165.699035 
L 386.77934 169.149708 
L 388.409132 163.52845 
L 390.038924 165.378024 
L 391.668716 165.216068 
L 393.298507 165.412314 
L 394.928299 167.372672 
L 396.558091 165.194438 
L 398.187883 162.720251 
L 401.447467 168.450711 
L 403.077259 165.374067 
L 404.707051 166.923468 
L 406.336843 168.701822 
L 407.966635 165.70985 
L 409.596426 167.24105 
L 411.226218 163.80251 
L 412.85601 168.694964 
L 414.485802 167.875687 
L 416.115594 167.257667 
L 417.745386 166.1063 
L 419.375178 166.542052 
L 421.00497 166.077021 
L 422.634762 165.974941 
L 425.894345 167.320445 
L 427.524137 164.232723 
L 429.153929 166.480066 
L 430.783721 167.054563 
L 432.413513 165.359824 
L 434.043305 167.007875 
L 435.673097 167.966688 
L 437.302889 165.247984 
L 440.562472 165.562928 
L 442.192264 165.086555 
L 443.822056 166.639912 
L 445.451848 166.763621 
L 447.08164 166.056711 
L 448.711432 170.284458 
L 450.341224 166.849611 
L 451.971016 165.656568 
L 453.600808 165.99235 
L 455.2306 166.125555 
L 456.860391 167.986207 
L 458.490183 165.401236 
L 460.119975 165.611726 
L 461.749767 162.171604 
L 463.379559 166.910015 
L 465.009351 164.471174 
L 468.268935 166.642813 
L 468.268935 166.642813 
" clip-path="url(#pf54afa333e)" style="fill: none; stroke-dasharray: 1.75,2.8875; stroke-dashoffset: 0; stroke: #9fc377; stroke-width: 1.75"/>
   </g>
   <g id="patch_3">
    <path d="M 42.159844 326.855625 
L 42.159844 21.935625 
" style="fill: none; stroke: #cccccc; stroke-width: 1.25; stroke-linejoin: miter; stroke-linecap: square"/>
   </g>
   <g id="patch_4">
    <path d="M 488.559844 326.855625 
L 488.559844 21.935625 
" style="fill: none; stroke: #cccccc; stroke-width: 1.25; stroke-linejoin: miter; stroke-linecap: square"/>
   </g>
   <g id="patch_5">
    <path d="M 42.159844 326.855625 
L 488.559844 326.855625 
" style="fill: none; stroke: #cccccc; stroke-width: 1.25; stroke-linejoin: miter; stroke-linecap: square"/>
   </g>
   <g id="patch_6">
    <path d="M 42.159844 21.935625 
L 488.559844 21.935625 
" style="fill: none; stroke: #cccccc; stroke-width: 1.25; stroke-linejoin: miter; stroke-linecap: square"/>
   </g>
   <g id="text_34">
    <!-- "Ivanov_BA_transition" for dataset Mouse_non_tata -->
    <g style="fill: #262626" transform="translate(128.022656 15.935625) scale(0.12 -0.12)">
     <defs>
      <path id="ArialMT-22" d="M 450 2959 
L 294 3831 
L 294 4581 
L 934 4581 
L 934 3831 
L 794 2959 
L 450 2959 
z
M 1484 2959 
L 1331 3831 
L 1331 4581 
L 1972 4581 
L 1972 3831 
L 1822 2959 
L 1484 2959 
z
" transform="scale(0.015625)"/>
      <path id="ArialMT-20" transform="scale(0.015625)"/>
      <path id="ArialMT-66" d="M 556 0 
L 556 2881 
L 59 2881 
L 59 3319 
L 556 3319 
L 556 3672 
Q 556 4006 616 4169 
Q 697 4388 901 4523 
Q 1106 4659 1475 4659 
Q 1713 4659 2000 4603 
L 1916 4113 
Q 1741 4144 1584 4144 
Q 1328 4144 1222 4034 
Q 1116 3925 1116 3625 
L 1116 3319 
L 1763 3319 
L 1763 2881 
L 1116 2881 
L 1116 0 
L 556 0 
z
" transform="scale(0.015625)"/>
      <path id="ArialMT-64" d="M 2575 0 
L 2575 419 
Q 2259 -75 1647 -75 
Q 1250 -75 917 144 
Q 584 363 401 755 
Q 219 1147 219 1656 
Q 219 2153 384 2558 
Q 550 2963 881 3178 
Q 1213 3394 1622 3394 
Q 1922 3394 2156 3267 
Q 2391 3141 2538 2938 
L 2538 4581 
L 3097 4581 
L 3097 0 
L 2575 0 
z
M 797 1656 
Q 797 1019 1065 703 
Q 1334 388 1700 388 
Q 2069 388 2326 689 
Q 2584 991 2584 1609 
Q 2584 2291 2321 2609 
Q 2059 2928 1675 2928 
Q 1300 2928 1048 2622 
Q 797 2316 797 1656 
z
" transform="scale(0.015625)"/>
      <path id="ArialMT-65" d="M 2694 1069 
L 3275 997 
Q 3138 488 2766 206 
Q 2394 -75 1816 -75 
Q 1088 -75 661 373 
Q 234 822 234 1631 
Q 234 2469 665 2931 
Q 1097 3394 1784 3394 
Q 2450 3394 2872 2941 
Q 3294 2488 3294 1666 
Q 3294 1616 3291 1516 
L 816 1516 
Q 847 969 1125 678 
Q 1403 388 1819 388 
Q 2128 388 2347 550 
Q 2566 713 2694 1069 
z
M 847 1978 
L 2700 1978 
Q 2663 2397 2488 2606 
Q 2219 2931 1791 2931 
Q 1403 2931 1139 2672 
Q 875 2413 847 1978 
z
" transform="scale(0.015625)"/>
      <path id="ArialMT-4d" d="M 475 0 
L 475 4581 
L 1388 4581 
L 2472 1338 
Q 2622 884 2691 659 
Q 2769 909 2934 1394 
L 4031 4581 
L 4847 4581 
L 4847 0 
L 4263 0 
L 4263 3834 
L 2931 0 
L 2384 0 
L 1059 3900 
L 1059 0 
L 475 0 
z
" transform="scale(0.015625)"/>
      <path id="ArialMT-75" d="M 2597 0 
L 2597 488 
Q 2209 -75 1544 -75 
Q 1250 -75 995 37 
Q 741 150 617 320 
Q 494 491 444 738 
Q 409 903 409 1263 
L 409 3319 
L 972 3319 
L 972 1478 
Q 972 1038 1006 884 
Q 1059 663 1231 536 
Q 1403 409 1656 409 
Q 1909 409 2131 539 
Q 2353 669 2445 892 
Q 2538 1116 2538 1541 
L 2538 3319 
L 3100 3319 
L 3100 0 
L 2597 0 
z
" transform="scale(0.015625)"/>
     </defs>
     <use xlink:href="#ArialMT-22"/>
     <use xlink:href="#ArialMT-49" x="35.498047"/>
     <use xlink:href="#ArialMT-76" x="63.28125"/>
     <use xlink:href="#ArialMT-61" x="113.28125"/>
     <use xlink:href="#ArialMT-6e" x="168.896484"/>
     <use xlink:href="#ArialMT-6f" x="224.511719"/>
     <use xlink:href="#ArialMT-76" x="280.126953"/>
     <use xlink:href="#ArialMT-5f" x="330.126953"/>
     <use xlink:href="#ArialMT-42" x="385.742188"/>
     <use xlink:href="#ArialMT-41" x="452.441406"/>
     <use xlink:href="#ArialMT-5f" x="519.140625"/>
     <use xlink:href="#ArialMT-74" x="574.755859"/>
     <use xlink:href="#ArialMT-72" x="602.539062"/>
     <use xlink:href="#ArialMT-61" x="635.839844"/>
     <use xlink:href="#ArialMT-6e" x="691.455078"/>
     <use xlink:href="#ArialMT-73" x="747.070312"/>
     <use xlink:href="#ArialMT-69" x="797.070312"/>
     <use xlink:href="#ArialMT-74" x="819.287109"/>
     <use xlink:href="#ArialMT-69" x="847.070312"/>
     <use xlink:href="#ArialMT-6f" x="869.287109"/>
     <use xlink:href="#ArialMT-6e" x="924.902344"/>
     <use xlink:href="#ArialMT-22" x="980.517578"/>
     <use xlink:href="#ArialMT-20" x="1016.015625"/>
     <use xlink:href="#ArialMT-66" x="1043.798828"/>
     <use xlink:href="#ArialMT-6f" x="1071.582031"/>
     <use xlink:href="#ArialMT-72" x="1127.197266"/>
     <use xlink:href="#ArialMT-20" x="1160.498047"/>
     <use xlink:href="#ArialMT-64" x="1188.28125"/>
     <use xlink:href="#ArialMT-61" x="1243.896484"/>
     <use xlink:href="#ArialMT-74" x="1299.511719"/>
     <use xlink:href="#ArialMT-61" x="1327.294922"/>
     <use xlink:href="#ArialMT-73" x="1382.910156"/>
     <use xlink:href="#ArialMT-65" x="1432.910156"/>
     <use xlink:href="#ArialMT-74" x="1488.525391"/>
     <use xlink:href="#ArialMT-20" x="1516.308594"/>
     <use xlink:href="#ArialMT-4d" x="1544.091797"/>
     <use xlink:href="#ArialMT-6f" x="1627.392578"/>
     <use xlink:href="#ArialMT-75" x="1683.007812"/>
     <use xlink:href="#ArialMT-73" x="1738.623047"/>
     <use xlink:href="#ArialMT-65" x="1788.623047"/>
     <use xlink:href="#ArialMT-5f" x="1844.238281"/>
     <use xlink:href="#ArialMT-6e" x="1899.853516"/>
     <use xlink:href="#ArialMT-6f" x="1955.46875"/>
     <use xlink:href="#ArialMT-6e" x="2011.083984"/>
     <use xlink:href="#ArialMT-5f" x="2066.699219"/>
     <use xlink:href="#ArialMT-74" x="2122.314453"/>
     <use xlink:href="#ArialMT-61" x="2150.097656"/>
     <use xlink:href="#ArialMT-74" x="2205.712891"/>
     <use xlink:href="#ArialMT-61" x="2233.496094"/>
    </g>
   </g>
   <g id="legend_1">
    <g id="line2d_34">
     <path d="M 51.159844 34.593437 
L 61.159844 34.593437 
L 71.159844 34.593437 
" style="fill: none; stroke: #0272a2; stroke-width: 1.75; stroke-linecap: round"/>
    </g>
    <g id="text_35">
     <!-- Promoter -->
     <g style="fill: #262626" transform="translate(79.159844 38.093437) scale(0.1 -0.1)">
      <defs>
       <path id="ArialMT-6d" d="M 422 0 
L 422 3319 
L 925 3319 
L 925 2853 
Q 1081 3097 1340 3245 
Q 1600 3394 1931 3394 
Q 2300 3394 2536 3241 
Q 2772 3088 2869 2813 
Q 3263 3394 3894 3394 
Q 4388 3394 4653 3120 
Q 4919 2847 4919 2278 
L 4919 0 
L 4359 0 
L 4359 2091 
Q 4359 2428 4304 2576 
Q 4250 2725 4106 2815 
Q 3963 2906 3769 2906 
Q 3419 2906 3187 2673 
Q 2956 2441 2956 1928 
L 2956 0 
L 2394 0 
L 2394 2156 
Q 2394 2531 2256 2718 
Q 2119 2906 1806 2906 
Q 1569 2906 1367 2781 
Q 1166 2656 1075 2415 
Q 984 2175 984 1722 
L 984 0 
L 422 0 
z
" transform="scale(0.015625)"/>
      </defs>
      <use xlink:href="#ArialMT-50"/>
      <use xlink:href="#ArialMT-72" x="66.699219"/>
      <use xlink:href="#ArialMT-6f" x="100"/>
      <use xlink:href="#ArialMT-6d" x="155.615234"/>
      <use xlink:href="#ArialMT-6f" x="238.916016"/>
      <use xlink:href="#ArialMT-74" x="294.53125"/>
      <use xlink:href="#ArialMT-65" x="322.314453"/>
      <use xlink:href="#ArialMT-72" x="377.929688"/>
     </g>
    </g>
    <g id="line2d_35">
     <path d="M 51.159844 48.73875 
L 61.159844 48.73875 
L 71.159844 48.73875 
" style="fill: none; stroke-dasharray: 1.75,2.8875; stroke-dashoffset: 0; stroke: #9fc377; stroke-width: 1.75"/>
    </g>
    <g id="text_36">
     <!-- Non-promoter -->
     <g style="fill: #262626" transform="translate(79.159844 52.23875) scale(0.1 -0.1)">
      <defs>
       <path id="ArialMT-4e" d="M 488 0 
L 488 4581 
L 1109 4581 
L 3516 984 
L 3516 4581 
L 4097 4581 
L 4097 0 
L 3475 0 
L 1069 3600 
L 1069 0 
L 488 0 
z
" transform="scale(0.015625)"/>
       <path id="ArialMT-70" d="M 422 -1272 
L 422 3319 
L 934 3319 
L 934 2888 
Q 1116 3141 1344 3267 
Q 1572 3394 1897 3394 
Q 2322 3394 2647 3175 
Q 2972 2956 3137 2557 
Q 3303 2159 3303 1684 
Q 3303 1175 3120 767 
Q 2938 359 2589 142 
Q 2241 -75 1856 -75 
Q 1575 -75 1351 44 
Q 1128 163 984 344 
L 984 -1272 
L 422 -1272 
z
M 931 1641 
Q 931 1000 1190 694 
Q 1450 388 1819 388 
Q 2194 388 2461 705 
Q 2728 1022 2728 1688 
Q 2728 2322 2467 2637 
Q 2206 2953 1844 2953 
Q 1484 2953 1207 2617 
Q 931 2281 931 1641 
z
" transform="scale(0.015625)"/>
      </defs>
      <use xlink:href="#ArialMT-4e"/>
      <use xlink:href="#ArialMT-6f" x="72.216797"/>
      <use xlink:href="#ArialMT-6e" x="127.832031"/>
      <use xlink:href="#ArialMT-2d" x="183.447266"/>
      <use xlink:href="#ArialMT-70" x="216.748047"/>
      <use xlink:href="#ArialMT-72" x="272.363281"/>
      <use xlink:href="#ArialMT-6f" x="305.664062"/>
      <use xlink:href="#ArialMT-6d" x="361.279297"/>
      <use xlink:href="#ArialMT-6f" x="444.580078"/>
      <use xlink:href="#ArialMT-74" x="500.195312"/>
      <use xlink:href="#ArialMT-65" x="527.978516"/>
      <use xlink:href="#ArialMT-72" x="583.59375"/>
     </g>
    </g>
   </g>
  </g>
 </g>
 <defs>
  <clipPath id="pf54afa333e">
   <rect x="42.159844" y="21.935625" width="446.4" height="304.92"/>
  </clipPath>
 </defs>
</svg>
