<?xml version="1.0" encoding="utf-8" standalone="no"?>
<!DOCTYPE svg PUBLIC "-//W3C//DTD SVG 1.1//EN"
  "http://www.w3.org/Graphics/SVG/1.1/DTD/svg11.dtd">
<svg xmlns:xlink="http://www.w3.org/1999/xlink" width="501.58375pt" height="375.733156pt" viewBox="0 0 501.58375 375.733156" xmlns="http://www.w3.org/2000/svg" version="1.1">
 <metadata>
  <rdf:RDF xmlns:dc="http://purl.org/dc/elements/1.1/" xmlns:cc="http://creativecommons.org/ns#" xmlns:rdf="http://www.w3.org/1999/02/22-rdf-syntax-ns#">
   <cc:Work>
    <dc:type rdf:resource="http://purl.org/dc/dcmitype/StillImage"/>
    <dc:date>2023-05-11T16:25:52.439206</dc:date>
    <dc:format>image/svg+xml</dc:format>
    <dc:creator>
     <cc:Agent>
      <dc:title>Matplotlib v3.7.1, https://matplotlib.org/</dc:title>
     </cc:Agent>
    </dc:creator>
   </cc:Work>
  </rdf:RDF>
 </metadata>
 <defs>
  <style type="text/css">*{stroke-linejoin: round; stroke-linecap: butt}</style>
 </defs>
 <g id="figure_1">
  <g id="patch_1">
   <path d="M 0 375.733156 
L 501.58375 375.733156 
L 501.58375 0 
L 0 0 
z
" style="fill: #ffffff"/>
  </g>
  <g id="axes_1">
   <g id="patch_2">
    <path d="M 47.98375 326.855625 
L 494.38375 326.855625 
L 494.38375 21.935625 
L 47.98375 21.935625 
z
" style="fill: #ffffff"/>
   </g>
   <g id="matplotlib.axis_1">
    <g id="xtick_1">
     <g id="line2d_1"/>
     <g id="text_1">
      <!-- -200 -->
      <g style="fill: #262626" transform="translate(63.027153 353.067937) rotate(-45) scale(0.1 -0.1)">
       <defs>
        <path id="ArialMT-2d" d="M 203 1375 
L 203 1941 
L 1931 1941 
L 1931 1375 
L 203 1375 
z
" transform="scale(0.015625)"/>
        <path id="ArialMT-32" d="M 3222 541 
L 3222 0 
L 194 0 
Q 188 203 259 391 
Q 375 700 629 1000 
Q 884 1300 1366 1694 
Q 2113 2306 2375 2664 
Q 2638 3022 2638 3341 
Q 2638 3675 2398 3904 
Q 2159 4134 1775 4134 
Q 1369 4134 1125 3890 
Q 881 3647 878 3216 
L 300 3275 
Q 359 3922 746 4261 
Q 1134 4600 1788 4600 
Q 2447 4600 2831 4234 
Q 3216 3869 3216 3328 
Q 3216 3053 3103 2787 
Q 2991 2522 2730 2228 
Q 2469 1934 1863 1422 
Q 1356 997 1212 845 
Q 1069 694 975 541 
L 3222 541 
z
" transform="scale(0.015625)"/>
        <path id="ArialMT-30" d="M 266 2259 
Q 266 3072 433 3567 
Q 600 4063 929 4331 
Q 1259 4600 1759 4600 
Q 2128 4600 2406 4451 
Q 2684 4303 2865 4023 
Q 3047 3744 3150 3342 
Q 3253 2941 3253 2259 
Q 3253 1453 3087 958 
Q 2922 463 2592 192 
Q 2263 -78 1759 -78 
Q 1097 -78 719 397 
Q 266 969 266 2259 
z
M 844 2259 
Q 844 1131 1108 757 
Q 1372 384 1759 384 
Q 2147 384 2411 759 
Q 2675 1134 2675 2259 
Q 2675 3391 2411 3762 
Q 2147 4134 1753 4134 
Q 1366 4134 1134 3806 
Q 844 3388 844 2259 
z
" transform="scale(0.015625)"/>
       </defs>
       <use xlink:href="#ArialMT-2d"/>
       <use xlink:href="#ArialMT-32" x="33.300781"/>
       <use xlink:href="#ArialMT-30" x="88.916016"/>
       <use xlink:href="#ArialMT-30" x="144.53125"/>
      </g>
     </g>
    </g>
    <g id="xtick_2">
     <g id="line2d_2"/>
     <g id="text_2">
      <!-- -190 -->
      <g style="fill: #262626" transform="translate(79.325072 353.067937) rotate(-45) scale(0.1 -0.1)">
       <defs>
        <path id="ArialMT-31" d="M 2384 0 
L 1822 0 
L 1822 3584 
Q 1619 3391 1289 3197 
Q 959 3003 697 2906 
L 697 3450 
Q 1169 3672 1522 3987 
Q 1875 4303 2022 4600 
L 2384 4600 
L 2384 0 
z
" transform="scale(0.015625)"/>
        <path id="ArialMT-39" d="M 350 1059 
L 891 1109 
Q 959 728 1153 556 
Q 1347 384 1650 384 
Q 1909 384 2104 503 
Q 2300 622 2425 820 
Q 2550 1019 2634 1356 
Q 2719 1694 2719 2044 
Q 2719 2081 2716 2156 
Q 2547 1888 2255 1720 
Q 1963 1553 1622 1553 
Q 1053 1553 659 1965 
Q 266 2378 266 3053 
Q 266 3750 677 4175 
Q 1088 4600 1706 4600 
Q 2153 4600 2523 4359 
Q 2894 4119 3086 3673 
Q 3278 3228 3278 2384 
Q 3278 1506 3087 986 
Q 2897 466 2520 194 
Q 2144 -78 1638 -78 
Q 1100 -78 759 220 
Q 419 519 350 1059 
z
M 2653 3081 
Q 2653 3566 2395 3850 
Q 2138 4134 1775 4134 
Q 1400 4134 1122 3828 
Q 844 3522 844 3034 
Q 844 2597 1108 2323 
Q 1372 2050 1759 2050 
Q 2150 2050 2401 2323 
Q 2653 2597 2653 3081 
z
" transform="scale(0.015625)"/>
       </defs>
       <use xlink:href="#ArialMT-2d"/>
       <use xlink:href="#ArialMT-31" x="33.300781"/>
       <use xlink:href="#ArialMT-39" x="88.916016"/>
       <use xlink:href="#ArialMT-30" x="144.53125"/>
      </g>
     </g>
    </g>
    <g id="xtick_3">
     <g id="line2d_3"/>
     <g id="text_3">
      <!-- -180 -->
      <g style="fill: #262626" transform="translate(95.622991 353.067937) rotate(-45) scale(0.1 -0.1)">
       <defs>
        <path id="ArialMT-38" d="M 1131 2484 
Q 781 2613 612 2850 
Q 444 3088 444 3419 
Q 444 3919 803 4259 
Q 1163 4600 1759 4600 
Q 2359 4600 2725 4251 
Q 3091 3903 3091 3403 
Q 3091 3084 2923 2848 
Q 2756 2613 2416 2484 
Q 2838 2347 3058 2040 
Q 3278 1734 3278 1309 
Q 3278 722 2862 322 
Q 2447 -78 1769 -78 
Q 1091 -78 675 323 
Q 259 725 259 1325 
Q 259 1772 486 2073 
Q 713 2375 1131 2484 
z
M 1019 3438 
Q 1019 3113 1228 2906 
Q 1438 2700 1772 2700 
Q 2097 2700 2305 2904 
Q 2513 3109 2513 3406 
Q 2513 3716 2298 3927 
Q 2084 4138 1766 4138 
Q 1444 4138 1231 3931 
Q 1019 3725 1019 3438 
z
M 838 1322 
Q 838 1081 952 856 
Q 1066 631 1291 507 
Q 1516 384 1775 384 
Q 2178 384 2440 643 
Q 2703 903 2703 1303 
Q 2703 1709 2433 1975 
Q 2163 2241 1756 2241 
Q 1359 2241 1098 1978 
Q 838 1716 838 1322 
z
" transform="scale(0.015625)"/>
       </defs>
       <use xlink:href="#ArialMT-2d"/>
       <use xlink:href="#ArialMT-31" x="33.300781"/>
       <use xlink:href="#ArialMT-38" x="88.916016"/>
       <use xlink:href="#ArialMT-30" x="144.53125"/>
      </g>
     </g>
    </g>
    <g id="xtick_4">
     <g id="line2d_4"/>
     <g id="text_4">
      <!-- -170 -->
      <g style="fill: #262626" transform="translate(111.92091 353.067937) rotate(-45) scale(0.1 -0.1)">
       <defs>
        <path id="ArialMT-37" d="M 303 3981 
L 303 4522 
L 3269 4522 
L 3269 4084 
Q 2831 3619 2401 2847 
Q 1972 2075 1738 1259 
Q 1569 684 1522 0 
L 944 0 
Q 953 541 1156 1306 
Q 1359 2072 1739 2783 
Q 2119 3494 2547 3981 
L 303 3981 
z
" transform="scale(0.015625)"/>
       </defs>
       <use xlink:href="#ArialMT-2d"/>
       <use xlink:href="#ArialMT-31" x="33.300781"/>
       <use xlink:href="#ArialMT-37" x="88.916016"/>
       <use xlink:href="#ArialMT-30" x="144.53125"/>
      </g>
     </g>
    </g>
    <g id="xtick_5">
     <g id="line2d_5"/>
     <g id="text_5">
      <!-- -160 -->
      <g style="fill: #262626" transform="translate(128.218829 353.067937) rotate(-45) scale(0.1 -0.1)">
       <defs>
        <path id="ArialMT-36" d="M 3184 3459 
L 2625 3416 
Q 2550 3747 2413 3897 
Q 2184 4138 1850 4138 
Q 1581 4138 1378 3988 
Q 1113 3794 959 3422 
Q 806 3050 800 2363 
Q 1003 2672 1297 2822 
Q 1591 2972 1913 2972 
Q 2475 2972 2870 2558 
Q 3266 2144 3266 1488 
Q 3266 1056 3080 686 
Q 2894 316 2569 119 
Q 2244 -78 1831 -78 
Q 1128 -78 684 439 
Q 241 956 241 2144 
Q 241 3472 731 4075 
Q 1159 4600 1884 4600 
Q 2425 4600 2770 4297 
Q 3116 3994 3184 3459 
z
M 888 1484 
Q 888 1194 1011 928 
Q 1134 663 1356 523 
Q 1578 384 1822 384 
Q 2178 384 2434 671 
Q 2691 959 2691 1453 
Q 2691 1928 2437 2201 
Q 2184 2475 1800 2475 
Q 1419 2475 1153 2201 
Q 888 1928 888 1484 
z
" transform="scale(0.015625)"/>
       </defs>
       <use xlink:href="#ArialMT-2d"/>
       <use xlink:href="#ArialMT-31" x="33.300781"/>
       <use xlink:href="#ArialMT-36" x="88.916016"/>
       <use xlink:href="#ArialMT-30" x="144.53125"/>
      </g>
     </g>
    </g>
    <g id="xtick_6">
     <g id="line2d_6"/>
     <g id="text_6">
      <!-- -150 -->
      <g style="fill: #262626" transform="translate(144.516748 353.067937) rotate(-45) scale(0.1 -0.1)">
       <defs>
        <path id="ArialMT-35" d="M 266 1200 
L 856 1250 
Q 922 819 1161 601 
Q 1400 384 1738 384 
Q 2144 384 2425 690 
Q 2706 997 2706 1503 
Q 2706 1984 2436 2262 
Q 2166 2541 1728 2541 
Q 1456 2541 1237 2417 
Q 1019 2294 894 2097 
L 366 2166 
L 809 4519 
L 3088 4519 
L 3088 3981 
L 1259 3981 
L 1013 2750 
Q 1425 3038 1878 3038 
Q 2478 3038 2890 2622 
Q 3303 2206 3303 1553 
Q 3303 931 2941 478 
Q 2500 -78 1738 -78 
Q 1113 -78 717 272 
Q 322 622 266 1200 
z
" transform="scale(0.015625)"/>
       </defs>
       <use xlink:href="#ArialMT-2d"/>
       <use xlink:href="#ArialMT-31" x="33.300781"/>
       <use xlink:href="#ArialMT-35" x="88.916016"/>
       <use xlink:href="#ArialMT-30" x="144.53125"/>
      </g>
     </g>
    </g>
    <g id="xtick_7">
     <g id="line2d_7"/>
     <g id="text_7">
      <!-- -140 -->
      <g style="fill: #262626" transform="translate(160.814667 353.067937) rotate(-45) scale(0.1 -0.1)">
       <defs>
        <path id="ArialMT-34" d="M 2069 0 
L 2069 1097 
L 81 1097 
L 81 1613 
L 2172 4581 
L 2631 4581 
L 2631 1613 
L 3250 1613 
L 3250 1097 
L 2631 1097 
L 2631 0 
L 2069 0 
z
M 2069 1613 
L 2069 3678 
L 634 1613 
L 2069 1613 
z
" transform="scale(0.015625)"/>
       </defs>
       <use xlink:href="#ArialMT-2d"/>
       <use xlink:href="#ArialMT-31" x="33.300781"/>
       <use xlink:href="#ArialMT-34" x="88.916016"/>
       <use xlink:href="#ArialMT-30" x="144.53125"/>
      </g>
     </g>
    </g>
    <g id="xtick_8">
     <g id="line2d_8"/>
     <g id="text_8">
      <!-- -130 -->
      <g style="fill: #262626" transform="translate(177.112586 353.067937) rotate(-45) scale(0.1 -0.1)">
       <defs>
        <path id="ArialMT-33" d="M 269 1209 
L 831 1284 
Q 928 806 1161 595 
Q 1394 384 1728 384 
Q 2125 384 2398 659 
Q 2672 934 2672 1341 
Q 2672 1728 2419 1979 
Q 2166 2231 1775 2231 
Q 1616 2231 1378 2169 
L 1441 2663 
Q 1497 2656 1531 2656 
Q 1891 2656 2178 2843 
Q 2466 3031 2466 3422 
Q 2466 3731 2256 3934 
Q 2047 4138 1716 4138 
Q 1388 4138 1169 3931 
Q 950 3725 888 3313 
L 325 3413 
Q 428 3978 793 4289 
Q 1159 4600 1703 4600 
Q 2078 4600 2393 4439 
Q 2709 4278 2876 4000 
Q 3044 3722 3044 3409 
Q 3044 3113 2884 2869 
Q 2725 2625 2413 2481 
Q 2819 2388 3044 2092 
Q 3269 1797 3269 1353 
Q 3269 753 2831 336 
Q 2394 -81 1725 -81 
Q 1122 -81 723 278 
Q 325 638 269 1209 
z
" transform="scale(0.015625)"/>
       </defs>
       <use xlink:href="#ArialMT-2d"/>
       <use xlink:href="#ArialMT-31" x="33.300781"/>
       <use xlink:href="#ArialMT-33" x="88.916016"/>
       <use xlink:href="#ArialMT-30" x="144.53125"/>
      </g>
     </g>
    </g>
    <g id="xtick_9">
     <g id="line2d_9"/>
     <g id="text_9">
      <!-- -120 -->
      <g style="fill: #262626" transform="translate(193.410505 353.067937) rotate(-45) scale(0.1 -0.1)">
       <use xlink:href="#ArialMT-2d"/>
       <use xlink:href="#ArialMT-31" x="33.300781"/>
       <use xlink:href="#ArialMT-32" x="88.916016"/>
       <use xlink:href="#ArialMT-30" x="144.53125"/>
      </g>
     </g>
    </g>
    <g id="xtick_10">
     <g id="line2d_10"/>
     <g id="text_10">
      <!-- -110 -->
      <g style="fill: #262626" transform="translate(209.96917 352.546446) rotate(-45) scale(0.1 -0.1)">
       <use xlink:href="#ArialMT-2d"/>
       <use xlink:href="#ArialMT-31" x="33.300781"/>
       <use xlink:href="#ArialMT-31" x="81.541016"/>
       <use xlink:href="#ArialMT-30" x="137.15625"/>
      </g>
     </g>
    </g>
    <g id="xtick_11">
     <g id="line2d_11"/>
     <g id="text_11">
      <!-- -100 -->
      <g style="fill: #262626" transform="translate(226.006343 353.067937) rotate(-45) scale(0.1 -0.1)">
       <use xlink:href="#ArialMT-2d"/>
       <use xlink:href="#ArialMT-31" x="33.300781"/>
       <use xlink:href="#ArialMT-30" x="88.916016"/>
       <use xlink:href="#ArialMT-30" x="144.53125"/>
      </g>
     </g>
    </g>
    <g id="xtick_12">
     <g id="line2d_12"/>
     <g id="text_12">
      <!-- -90 -->
      <g style="fill: #262626" transform="translate(244.27035 349.135761) rotate(-45) scale(0.1 -0.1)">
       <use xlink:href="#ArialMT-2d"/>
       <use xlink:href="#ArialMT-39" x="33.300781"/>
       <use xlink:href="#ArialMT-30" x="88.916016"/>
      </g>
     </g>
    </g>
    <g id="xtick_13">
     <g id="line2d_13"/>
     <g id="text_13">
      <!-- -80 -->
      <g style="fill: #262626" transform="translate(260.568269 349.135761) rotate(-45) scale(0.1 -0.1)">
       <use xlink:href="#ArialMT-2d"/>
       <use xlink:href="#ArialMT-38" x="33.300781"/>
       <use xlink:href="#ArialMT-30" x="88.916016"/>
      </g>
     </g>
    </g>
    <g id="xtick_14">
     <g id="line2d_14"/>
     <g id="text_14">
      <!-- -70 -->
      <g style="fill: #262626" transform="translate(276.866188 349.135761) rotate(-45) scale(0.1 -0.1)">
       <use xlink:href="#ArialMT-2d"/>
       <use xlink:href="#ArialMT-37" x="33.300781"/>
       <use xlink:href="#ArialMT-30" x="88.916016"/>
      </g>
     </g>
    </g>
    <g id="xtick_15">
     <g id="line2d_15"/>
     <g id="text_15">
      <!-- -60 -->
      <g style="fill: #262626" transform="translate(293.164107 349.135761) rotate(-45) scale(0.1 -0.1)">
       <use xlink:href="#ArialMT-2d"/>
       <use xlink:href="#ArialMT-36" x="33.300781"/>
       <use xlink:href="#ArialMT-30" x="88.916016"/>
      </g>
     </g>
    </g>
    <g id="xtick_16">
     <g id="line2d_16"/>
     <g id="text_16">
      <!-- -50 -->
      <g style="fill: #262626" transform="translate(309.462026 349.135761) rotate(-45) scale(0.1 -0.1)">
       <use xlink:href="#ArialMT-2d"/>
       <use xlink:href="#ArialMT-35" x="33.300781"/>
       <use xlink:href="#ArialMT-30" x="88.916016"/>
      </g>
     </g>
    </g>
    <g id="xtick_17">
     <g id="line2d_17"/>
     <g id="text_17">
      <!-- -40 -->
      <g style="fill: #262626" transform="translate(325.759945 349.135761) rotate(-45) scale(0.1 -0.1)">
       <use xlink:href="#ArialMT-2d"/>
       <use xlink:href="#ArialMT-34" x="33.300781"/>
       <use xlink:href="#ArialMT-30" x="88.916016"/>
      </g>
     </g>
    </g>
    <g id="xtick_18">
     <g id="line2d_18"/>
     <g id="text_18">
      <!-- -30 -->
      <g style="fill: #262626" transform="translate(342.057864 349.135761) rotate(-45) scale(0.1 -0.1)">
       <use xlink:href="#ArialMT-2d"/>
       <use xlink:href="#ArialMT-33" x="33.300781"/>
       <use xlink:href="#ArialMT-30" x="88.916016"/>
      </g>
     </g>
    </g>
    <g id="xtick_19">
     <g id="line2d_19"/>
     <g id="text_19">
      <!-- -20 -->
      <g style="fill: #262626" transform="translate(358.355783 349.135761) rotate(-45) scale(0.1 -0.1)">
       <use xlink:href="#ArialMT-2d"/>
       <use xlink:href="#ArialMT-32" x="33.300781"/>
       <use xlink:href="#ArialMT-30" x="88.916016"/>
      </g>
     </g>
    </g>
    <g id="xtick_20">
     <g id="line2d_20"/>
     <g id="text_20">
      <!-- -10 -->
      <g style="fill: #262626" transform="translate(374.653702 349.135761) rotate(-45) scale(0.1 -0.1)">
       <use xlink:href="#ArialMT-2d"/>
       <use xlink:href="#ArialMT-31" x="33.300781"/>
       <use xlink:href="#ArialMT-30" x="88.916016"/>
      </g>
     </g>
    </g>
    <g id="xtick_21">
     <g id="line2d_21"/>
     <g id="text_21">
      <!-- 0 -->
      <g style="fill: #262626" transform="translate(394.094931 342.849139) rotate(-45) scale(0.1 -0.1)">
       <use xlink:href="#ArialMT-30"/>
      </g>
     </g>
    </g>
    <g id="xtick_22">
     <g id="line2d_22"/>
     <g id="text_22">
      <!-- 10 -->
      <g style="fill: #262626" transform="translate(408.426762 346.781316) rotate(-45) scale(0.1 -0.1)">
       <use xlink:href="#ArialMT-31"/>
       <use xlink:href="#ArialMT-30" x="55.615234"/>
      </g>
     </g>
    </g>
    <g id="xtick_23">
     <g id="line2d_23"/>
     <g id="text_23">
      <!-- 20 -->
      <g style="fill: #262626" transform="translate(424.724681 346.781316) rotate(-45) scale(0.1 -0.1)">
       <use xlink:href="#ArialMT-32"/>
       <use xlink:href="#ArialMT-30" x="55.615234"/>
      </g>
     </g>
    </g>
    <g id="xtick_24">
     <g id="line2d_24"/>
     <g id="text_24">
      <!-- 30 -->
      <g style="fill: #262626" transform="translate(441.0226 346.781316) rotate(-45) scale(0.1 -0.1)">
       <use xlink:href="#ArialMT-33"/>
       <use xlink:href="#ArialMT-30" x="55.615234"/>
      </g>
     </g>
    </g>
    <g id="xtick_25">
     <g id="line2d_25"/>
     <g id="text_25">
      <!-- 40 -->
      <g style="fill: #262626" transform="translate(457.320519 346.781316) rotate(-45) scale(0.1 -0.1)">
       <use xlink:href="#ArialMT-34"/>
       <use xlink:href="#ArialMT-30" x="55.615234"/>
      </g>
     </g>
    </g>
    <g id="xtick_26">
     <g id="line2d_26"/>
     <g id="text_26">
      <!-- 50 -->
      <g style="fill: #262626" transform="translate(473.618438 346.781316) rotate(-45) scale(0.1 -0.1)">
       <use xlink:href="#ArialMT-35"/>
       <use xlink:href="#ArialMT-30" x="55.615234"/>
      </g>
     </g>
    </g>
    <g id="text_27">
     <!-- Position -->
     <g style="fill: #262626" transform="translate(251.6175 366.346906) scale(0.11 -0.11)">
      <defs>
       <path id="ArialMT-50" d="M 494 0 
L 494 4581 
L 2222 4581 
Q 2678 4581 2919 4538 
Q 3256 4481 3484 4323 
Q 3713 4166 3852 3881 
Q 3991 3597 3991 3256 
Q 3991 2672 3619 2267 
Q 3247 1863 2275 1863 
L 1100 1863 
L 1100 0 
L 494 0 
z
M 1100 2403 
L 2284 2403 
Q 2872 2403 3119 2622 
Q 3366 2841 3366 3238 
Q 3366 3525 3220 3729 
Q 3075 3934 2838 4000 
Q 2684 4041 2272 4041 
L 1100 4041 
L 1100 2403 
z
" transform="scale(0.015625)"/>
       <path id="ArialMT-6f" d="M 213 1659 
Q 213 2581 725 3025 
Q 1153 3394 1769 3394 
Q 2453 3394 2887 2945 
Q 3322 2497 3322 1706 
Q 3322 1066 3130 698 
Q 2938 331 2570 128 
Q 2203 -75 1769 -75 
Q 1072 -75 642 372 
Q 213 819 213 1659 
z
M 791 1659 
Q 791 1022 1069 705 
Q 1347 388 1769 388 
Q 2188 388 2466 706 
Q 2744 1025 2744 1678 
Q 2744 2294 2464 2611 
Q 2184 2928 1769 2928 
Q 1347 2928 1069 2612 
Q 791 2297 791 1659 
z
" transform="scale(0.015625)"/>
       <path id="ArialMT-73" d="M 197 991 
L 753 1078 
Q 800 744 1014 566 
Q 1228 388 1613 388 
Q 2000 388 2187 545 
Q 2375 703 2375 916 
Q 2375 1106 2209 1216 
Q 2094 1291 1634 1406 
Q 1016 1563 777 1677 
Q 538 1791 414 1992 
Q 291 2194 291 2438 
Q 291 2659 392 2848 
Q 494 3038 669 3163 
Q 800 3259 1026 3326 
Q 1253 3394 1513 3394 
Q 1903 3394 2198 3281 
Q 2494 3169 2634 2976 
Q 2775 2784 2828 2463 
L 2278 2388 
Q 2241 2644 2061 2787 
Q 1881 2931 1553 2931 
Q 1166 2931 1000 2803 
Q 834 2675 834 2503 
Q 834 2394 903 2306 
Q 972 2216 1119 2156 
Q 1203 2125 1616 2013 
Q 2213 1853 2448 1751 
Q 2684 1650 2818 1456 
Q 2953 1263 2953 975 
Q 2953 694 2789 445 
Q 2625 197 2315 61 
Q 2006 -75 1616 -75 
Q 969 -75 630 194 
Q 291 463 197 991 
z
" transform="scale(0.015625)"/>
       <path id="ArialMT-69" d="M 425 3934 
L 425 4581 
L 988 4581 
L 988 3934 
L 425 3934 
z
M 425 0 
L 425 3319 
L 988 3319 
L 988 0 
L 425 0 
z
" transform="scale(0.015625)"/>
       <path id="ArialMT-74" d="M 1650 503 
L 1731 6 
Q 1494 -44 1306 -44 
Q 1000 -44 831 53 
Q 663 150 594 308 
Q 525 466 525 972 
L 525 2881 
L 113 2881 
L 113 3319 
L 525 3319 
L 525 4141 
L 1084 4478 
L 1084 3319 
L 1650 3319 
L 1650 2881 
L 1084 2881 
L 1084 941 
Q 1084 700 1114 631 
Q 1144 563 1211 522 
Q 1278 481 1403 481 
Q 1497 481 1650 503 
z
" transform="scale(0.015625)"/>
       <path id="ArialMT-6e" d="M 422 0 
L 422 3319 
L 928 3319 
L 928 2847 
Q 1294 3394 1984 3394 
Q 2284 3394 2536 3286 
Q 2788 3178 2913 3003 
Q 3038 2828 3088 2588 
Q 3119 2431 3119 2041 
L 3119 0 
L 2556 0 
L 2556 2019 
Q 2556 2363 2490 2533 
Q 2425 2703 2258 2804 
Q 2091 2906 1866 2906 
Q 1506 2906 1245 2678 
Q 984 2450 984 1813 
L 984 0 
L 422 0 
z
" transform="scale(0.015625)"/>
      </defs>
      <use xlink:href="#ArialMT-50"/>
      <use xlink:href="#ArialMT-6f" x="66.699219"/>
      <use xlink:href="#ArialMT-73" x="122.314453"/>
      <use xlink:href="#ArialMT-69" x="172.314453"/>
      <use xlink:href="#ArialMT-74" x="194.53125"/>
      <use xlink:href="#ArialMT-69" x="222.314453"/>
      <use xlink:href="#ArialMT-6f" x="244.53125"/>
      <use xlink:href="#ArialMT-6e" x="300.146484"/>
     </g>
    </g>
   </g>
   <g id="matplotlib.axis_2">
    <g id="ytick_1">
     <g id="line2d_27"/>
     <g id="text_28">
      <!-- 9.4 -->
      <g style="fill: #262626" transform="translate(27.08375 320.92665) scale(0.1 -0.1)">
       <defs>
        <path id="ArialMT-2e" d="M 581 0 
L 581 641 
L 1222 641 
L 1222 0 
L 581 0 
z
" transform="scale(0.015625)"/>
       </defs>
       <use xlink:href="#ArialMT-39"/>
       <use xlink:href="#ArialMT-2e" x="55.615234"/>
       <use xlink:href="#ArialMT-34" x="83.398438"/>
      </g>
     </g>
    </g>
    <g id="ytick_2">
     <g id="line2d_28"/>
     <g id="text_29">
      <!-- 9.6 -->
      <g style="fill: #262626" transform="translate(27.08375 280.764819) scale(0.1 -0.1)">
       <use xlink:href="#ArialMT-39"/>
       <use xlink:href="#ArialMT-2e" x="55.615234"/>
       <use xlink:href="#ArialMT-36" x="83.398438"/>
      </g>
     </g>
    </g>
    <g id="ytick_3">
     <g id="line2d_29"/>
     <g id="text_30">
      <!-- 9.8 -->
      <g style="fill: #262626" transform="translate(27.08375 240.602988) scale(0.1 -0.1)">
       <use xlink:href="#ArialMT-39"/>
       <use xlink:href="#ArialMT-2e" x="55.615234"/>
       <use xlink:href="#ArialMT-38" x="83.398438"/>
      </g>
     </g>
    </g>
    <g id="ytick_4">
     <g id="line2d_30"/>
     <g id="text_31">
      <!-- 10.0 -->
      <g style="fill: #262626" transform="translate(21.522813 200.441158) scale(0.1 -0.1)">
       <use xlink:href="#ArialMT-31"/>
       <use xlink:href="#ArialMT-30" x="55.615234"/>
       <use xlink:href="#ArialMT-2e" x="111.230469"/>
       <use xlink:href="#ArialMT-30" x="139.013672"/>
      </g>
     </g>
    </g>
    <g id="ytick_5">
     <g id="line2d_31"/>
     <g id="text_32">
      <!-- 10.2 -->
      <g style="fill: #262626" transform="translate(21.522813 160.279327) scale(0.1 -0.1)">
       <use xlink:href="#ArialMT-31"/>
       <use xlink:href="#ArialMT-30" x="55.615234"/>
       <use xlink:href="#ArialMT-2e" x="111.230469"/>
       <use xlink:href="#ArialMT-32" x="139.013672"/>
      </g>
     </g>
    </g>
    <g id="ytick_6">
     <g id="line2d_32"/>
     <g id="text_33">
      <!-- 10.4 -->
      <g style="fill: #262626" transform="translate(21.522813 120.117496) scale(0.1 -0.1)">
       <use xlink:href="#ArialMT-31"/>
       <use xlink:href="#ArialMT-30" x="55.615234"/>
       <use xlink:href="#ArialMT-2e" x="111.230469"/>
       <use xlink:href="#ArialMT-34" x="139.013672"/>
      </g>
     </g>
    </g>
    <g id="ytick_7">
     <g id="line2d_33"/>
     <g id="text_34">
      <!-- 10.6 -->
      <g style="fill: #262626" transform="translate(21.522813 79.955665) scale(0.1 -0.1)">
       <use xlink:href="#ArialMT-31"/>
       <use xlink:href="#ArialMT-30" x="55.615234"/>
       <use xlink:href="#ArialMT-2e" x="111.230469"/>
       <use xlink:href="#ArialMT-36" x="139.013672"/>
      </g>
     </g>
    </g>
    <g id="ytick_8">
     <g id="line2d_34"/>
     <g id="text_35">
      <!-- 10.8 -->
      <g style="fill: #262626" transform="translate(21.522813 39.793834) scale(0.1 -0.1)">
       <use xlink:href="#ArialMT-31"/>
       <use xlink:href="#ArialMT-30" x="55.615234"/>
       <use xlink:href="#ArialMT-2e" x="111.230469"/>
       <use xlink:href="#ArialMT-38" x="139.013672"/>
      </g>
     </g>
    </g>
    <g id="text_36">
     <!-- Sarai_flexibility -->
     <g style="fill: #262626" transform="translate(15.207656 211.076328) rotate(-90) scale(0.11 -0.11)">
      <defs>
       <path id="ArialMT-53" d="M 288 1472 
L 859 1522 
Q 900 1178 1048 958 
Q 1197 738 1509 602 
Q 1822 466 2213 466 
Q 2559 466 2825 569 
Q 3091 672 3220 851 
Q 3350 1031 3350 1244 
Q 3350 1459 3225 1620 
Q 3100 1781 2813 1891 
Q 2628 1963 1997 2114 
Q 1366 2266 1113 2400 
Q 784 2572 623 2826 
Q 463 3081 463 3397 
Q 463 3744 659 4045 
Q 856 4347 1234 4503 
Q 1613 4659 2075 4659 
Q 2584 4659 2973 4495 
Q 3363 4331 3572 4012 
Q 3781 3694 3797 3291 
L 3216 3247 
Q 3169 3681 2898 3903 
Q 2628 4125 2100 4125 
Q 1550 4125 1298 3923 
Q 1047 3722 1047 3438 
Q 1047 3191 1225 3031 
Q 1400 2872 2139 2705 
Q 2878 2538 3153 2413 
Q 3553 2228 3743 1945 
Q 3934 1663 3934 1294 
Q 3934 928 3725 604 
Q 3516 281 3123 101 
Q 2731 -78 2241 -78 
Q 1619 -78 1198 103 
Q 778 284 539 648 
Q 300 1013 288 1472 
z
" transform="scale(0.015625)"/>
       <path id="ArialMT-61" d="M 2588 409 
Q 2275 144 1986 34 
Q 1697 -75 1366 -75 
Q 819 -75 525 192 
Q 231 459 231 875 
Q 231 1119 342 1320 
Q 453 1522 633 1644 
Q 813 1766 1038 1828 
Q 1203 1872 1538 1913 
Q 2219 1994 2541 2106 
Q 2544 2222 2544 2253 
Q 2544 2597 2384 2738 
Q 2169 2928 1744 2928 
Q 1347 2928 1158 2789 
Q 969 2650 878 2297 
L 328 2372 
Q 403 2725 575 2942 
Q 747 3159 1072 3276 
Q 1397 3394 1825 3394 
Q 2250 3394 2515 3294 
Q 2781 3194 2906 3042 
Q 3031 2891 3081 2659 
Q 3109 2516 3109 2141 
L 3109 1391 
Q 3109 606 3145 398 
Q 3181 191 3288 0 
L 2700 0 
Q 2613 175 2588 409 
z
M 2541 1666 
Q 2234 1541 1622 1453 
Q 1275 1403 1131 1340 
Q 988 1278 909 1158 
Q 831 1038 831 891 
Q 831 666 1001 516 
Q 1172 366 1500 366 
Q 1825 366 2078 508 
Q 2331 650 2450 897 
Q 2541 1088 2541 1459 
L 2541 1666 
z
" transform="scale(0.015625)"/>
       <path id="ArialMT-72" d="M 416 0 
L 416 3319 
L 922 3319 
L 922 2816 
Q 1116 3169 1280 3281 
Q 1444 3394 1641 3394 
Q 1925 3394 2219 3213 
L 2025 2691 
Q 1819 2813 1613 2813 
Q 1428 2813 1281 2702 
Q 1134 2591 1072 2394 
Q 978 2094 978 1738 
L 978 0 
L 416 0 
z
" transform="scale(0.015625)"/>
       <path id="ArialMT-5f" d="M -97 -1272 
L -97 -866 
L 3631 -866 
L 3631 -1272 
L -97 -1272 
z
" transform="scale(0.015625)"/>
       <path id="ArialMT-66" d="M 556 0 
L 556 2881 
L 59 2881 
L 59 3319 
L 556 3319 
L 556 3672 
Q 556 4006 616 4169 
Q 697 4388 901 4523 
Q 1106 4659 1475 4659 
Q 1713 4659 2000 4603 
L 1916 4113 
Q 1741 4144 1584 4144 
Q 1328 4144 1222 4034 
Q 1116 3925 1116 3625 
L 1116 3319 
L 1763 3319 
L 1763 2881 
L 1116 2881 
L 1116 0 
L 556 0 
z
" transform="scale(0.015625)"/>
       <path id="ArialMT-6c" d="M 409 0 
L 409 4581 
L 972 4581 
L 972 0 
L 409 0 
z
" transform="scale(0.015625)"/>
       <path id="ArialMT-65" d="M 2694 1069 
L 3275 997 
Q 3138 488 2766 206 
Q 2394 -75 1816 -75 
Q 1088 -75 661 373 
Q 234 822 234 1631 
Q 234 2469 665 2931 
Q 1097 3394 1784 3394 
Q 2450 3394 2872 2941 
Q 3294 2488 3294 1666 
Q 3294 1616 3291 1516 
L 816 1516 
Q 847 969 1125 678 
Q 1403 388 1819 388 
Q 2128 388 2347 550 
Q 2566 713 2694 1069 
z
M 847 1978 
L 2700 1978 
Q 2663 2397 2488 2606 
Q 2219 2931 1791 2931 
Q 1403 2931 1139 2672 
Q 875 2413 847 1978 
z
" transform="scale(0.015625)"/>
       <path id="ArialMT-78" d="M 47 0 
L 1259 1725 
L 138 3319 
L 841 3319 
L 1350 2541 
Q 1494 2319 1581 2169 
Q 1719 2375 1834 2534 
L 2394 3319 
L 3066 3319 
L 1919 1756 
L 3153 0 
L 2463 0 
L 1781 1031 
L 1600 1309 
L 728 0 
L 47 0 
z
" transform="scale(0.015625)"/>
       <path id="ArialMT-62" d="M 941 0 
L 419 0 
L 419 4581 
L 981 4581 
L 981 2947 
Q 1338 3394 1891 3394 
Q 2197 3394 2470 3270 
Q 2744 3147 2920 2923 
Q 3097 2700 3197 2384 
Q 3297 2069 3297 1709 
Q 3297 856 2875 390 
Q 2453 -75 1863 -75 
Q 1275 -75 941 416 
L 941 0 
z
M 934 1684 
Q 934 1088 1097 822 
Q 1363 388 1816 388 
Q 2184 388 2453 708 
Q 2722 1028 2722 1663 
Q 2722 2313 2464 2622 
Q 2206 2931 1841 2931 
Q 1472 2931 1203 2611 
Q 934 2291 934 1684 
z
" transform="scale(0.015625)"/>
       <path id="ArialMT-79" d="M 397 -1278 
L 334 -750 
Q 519 -800 656 -800 
Q 844 -800 956 -737 
Q 1069 -675 1141 -563 
Q 1194 -478 1313 -144 
Q 1328 -97 1363 -6 
L 103 3319 
L 709 3319 
L 1400 1397 
Q 1534 1031 1641 628 
Q 1738 1016 1872 1384 
L 2581 3319 
L 3144 3319 
L 1881 -56 
Q 1678 -603 1566 -809 
Q 1416 -1088 1222 -1217 
Q 1028 -1347 759 -1347 
Q 597 -1347 397 -1278 
z
" transform="scale(0.015625)"/>
      </defs>
      <use xlink:href="#ArialMT-53"/>
      <use xlink:href="#ArialMT-61" x="66.699219"/>
      <use xlink:href="#ArialMT-72" x="122.314453"/>
      <use xlink:href="#ArialMT-61" x="155.615234"/>
      <use xlink:href="#ArialMT-69" x="211.230469"/>
      <use xlink:href="#ArialMT-5f" x="233.447266"/>
      <use xlink:href="#ArialMT-66" x="289.0625"/>
      <use xlink:href="#ArialMT-6c" x="316.845703"/>
      <use xlink:href="#ArialMT-65" x="339.0625"/>
      <use xlink:href="#ArialMT-78" x="394.677734"/>
      <use xlink:href="#ArialMT-69" x="444.677734"/>
      <use xlink:href="#ArialMT-62" x="466.894531"/>
      <use xlink:href="#ArialMT-69" x="522.509766"/>
      <use xlink:href="#ArialMT-6c" x="544.726562"/>
      <use xlink:href="#ArialMT-69" x="566.943359"/>
      <use xlink:href="#ArialMT-74" x="589.160156"/>
      <use xlink:href="#ArialMT-79" x="616.943359"/>
     </g>
    </g>
   </g>
   <g id="line2d_35">
    <path d="M 68.274659 181.156886 
L 69.904451 196.118605 
L 71.534243 195.062948 
L 73.164035 197.087935 
L 74.793827 204.842575 
L 76.423619 202.122038 
L 78.05341 205.303808 
L 79.683202 200.532386 
L 81.312994 188.557585 
L 82.942786 197.836514 
L 84.572578 200.643378 
L 86.20237 203.70429 
L 87.832162 194.638712 
L 89.461954 205.800805 
L 91.091746 199.773941 
L 92.721538 204.769813 
L 94.351329 197.210026 
L 95.981121 204.227186 
L 97.610913 208.903648 
L 99.240705 197.264289 
L 100.870497 202.762092 
L 102.500289 195.762197 
L 104.130081 206.578982 
L 105.759873 199.407667 
L 107.389665 198.448203 
L 109.019456 210.977965 
L 110.649248 205.580055 
L 112.27904 209.332817 
L 113.908832 197.089168 
L 115.538624 213.146008 
L 117.168416 214.983542 
L 118.798208 215.182094 
L 120.428 209.01094 
L 122.057792 198.090563 
L 123.687584 205.166918 
L 125.317375 216.904936 
L 126.947167 208.490511 
L 128.576959 205.390135 
L 130.206751 216.19952 
L 131.836543 208.650833 
L 133.466335 220.292658 
L 135.096127 198.844075 
L 136.725919 213.403756 
L 138.355711 210.258983 
L 139.985502 209.579466 
L 141.615294 203.804183 
L 143.245086 205.797106 
L 144.874878 212.412228 
L 146.50467 225.948316 
L 148.134462 206.046221 
L 149.764254 217.897698 
L 151.394046 212.020056 
L 153.023838 217.105955 
L 154.65363 215.064936 
L 156.283421 216.608958 
L 157.913213 219.471317 
L 159.543005 210.760914 
L 162.802589 227.731587 
L 164.432381 215.480539 
L 166.062173 224.145313 
L 167.691965 217.229279 
L 169.321757 223.180916 
L 170.951548 226.256627 
L 172.58134 219.403489 
L 174.211132 216.724883 
L 175.840924 219.451585 
L 177.470716 226.288691 
L 179.100508 217.8718 
L 180.7303 212.47019 
L 182.360092 218.976786 
L 183.989884 222.33491 
L 185.619676 224.09105 
L 187.249467 228.666386 
L 188.879259 220.535607 
L 190.509051 226.796788 
L 192.138843 223.122953 
L 193.768635 222.989763 
L 195.398427 233.124564 
L 197.028219 228.525796 
L 198.658011 216.972765 
L 200.287803 222.537162 
L 203.547386 232.782955 
L 205.177178 228.343276 
L 206.80697 226.445313 
L 208.436762 237.199203 
L 210.066554 233.644993 
L 211.696346 225.815126 
L 213.326138 231.735931 
L 214.95593 231.220435 
L 216.585722 231.948049 
L 218.215513 235.635449 
L 219.845305 221.340916 
L 221.475097 235.732875 
L 223.104889 235.935128 
L 224.734681 228.746547 
L 226.364473 235.799471 
L 227.994265 229.878665 
L 229.624057 227.377646 
L 231.253849 241.875665 
L 232.88364 223.275876 
L 234.513432 237.771428 
L 236.143224 226.330622 
L 237.773016 243.348158 
L 239.402808 232.094805 
L 241.0326 234.167889 
L 242.662392 248.320599 
L 244.292184 236.723171 
L 245.921976 229.664081 
L 247.551768 236.557916 
L 249.181559 232.795288 
L 250.811351 235.52569 
L 252.441143 234.067996 
L 254.070935 250.984407 
L 255.700727 239.316683 
L 257.330519 248.399527 
L 258.960311 231.417754 
L 260.590103 236.148479 
L 262.219895 245.828213 
L 263.849686 239.145262 
L 265.479478 241.80167 
L 267.10927 251.005372 
L 268.739062 238.374485 
L 270.368854 241.610517 
L 271.998646 240.18612 
L 273.628438 245.180759 
L 275.25823 240.910035 
L 276.888022 249.386122 
L 278.517814 239.72242 
L 280.147605 235.873465 
L 281.777397 234.113626 
L 283.407189 234.082795 
L 285.036981 240.540061 
L 286.666773 229.739309 
L 288.296565 238.639632 
L 289.926357 233.684457 
L 291.556149 248.366229 
L 293.185941 237.892286 
L 294.815732 244.054807 
L 296.445524 238.25856 
L 298.075316 239.163761 
L 299.705108 249.860921 
L 301.3349 244.048641 
L 302.964692 256.336686 
L 304.594484 249.028481 
L 306.224276 248.07395 
L 307.854068 248.427891 
L 309.48386 253.328804 
L 311.113651 255.842155 
L 312.743443 240.083761 
L 314.373235 255.701566 
L 316.003027 262.682961 
L 317.632819 266.001621 
L 319.262611 258.17792 
L 320.892403 264.386071 
L 322.522195 260.486553 
L 324.151987 274.313687 
L 325.781778 267.715831 
L 327.41157 274.493741 
L 329.041362 268.733257 
L 330.671154 269.172292 
L 332.300946 273.224733 
L 333.930738 281.33578 
L 335.56053 262.678028 
L 337.190322 253.3806 
L 338.820114 259.594918 
L 340.449906 253.51749 
L 342.079697 260.047518 
L 343.709489 254.267303 
L 345.339281 243.721831 
L 346.969073 221.364347 
L 348.598865 217.655982 
L 350.228657 232.160167 
L 351.858449 232.847084 
L 353.488241 251.5369 
L 355.118033 257.081566 
L 356.747824 278.403125 
L 358.377616 275.743017 
L 361.6372 262.479476 
L 363.266992 249.434219 
L 364.896784 259.680011 
L 366.526576 260.43229 
L 368.156368 275.837977 
L 369.78616 275.133795 
L 371.415952 268.46811 
L 373.045743 278.634975 
L 374.675535 293.810045 
L 376.305327 277.875296 
L 377.935119 275.821945 
L 379.564911 277.517656 
L 381.194703 264.414436 
L 382.824495 275.659157 
L 384.454287 264.701782 
L 386.084079 261.883819 
L 387.71387 312.995625 
L 389.343662 271.123284 
L 390.973454 261.554543 
L 392.603246 133.043097 
L 394.233038 35.795625 
L 395.86283 156.599294 
L 397.492622 176.227609 
L 399.122414 231.763062 
L 400.752206 227.640327 
L 402.381998 258.519529 
L 404.011789 251.520868 
L 405.641581 229.759041 
L 407.271373 245.380545 
L 408.901165 237.452018 
L 410.530957 246.984996 
L 412.160749 248.949554 
L 413.790541 234.069229 
L 415.420333 225.468584 
L 417.050125 232.061507 
L 418.679916 256.842317 
L 420.309708 258.735346 
L 421.9395 258.745212 
L 423.569292 248.004889 
L 425.199084 250.809286 
L 426.828876 245.474271 
L 428.458668 260.163443 
L 430.08846 249.016149 
L 431.718252 233.262687 
L 433.348044 225.173839 
L 434.977835 220.223596 
L 436.607627 242.341831 
L 438.237419 236.975986 
L 439.867211 225.276198 
L 441.497003 200.169812 
L 443.126795 199.032761 
L 444.756587 213.94515 
L 446.386379 226.915179 
L 448.016171 225.80156 
L 449.645962 226.35652 
L 451.275754 246.240116 
L 452.905546 229.831802 
L 454.535338 250.774755 
L 456.16513 255.100976 
L 457.794922 231.562044 
L 459.424714 236.438291 
L 461.054506 239.665691 
L 462.684298 250.447945 
L 464.31409 241.700544 
L 465.943881 260.85406 
L 467.573673 269.330147 
L 469.203465 275.020336 
L 470.833257 268.893579 
L 472.463049 263.833578 
L 474.092841 253.424997 
L 474.092841 253.424997 
" clip-path="url(#p34a92044ef)" style="fill: none; stroke: #0272a2; stroke-width: 1.75; stroke-linecap: round"/>
   </g>
   <g id="line2d_36">
    <path d="M 68.274659 67.857215 
L 69.904451 73.889903 
L 71.534243 73.657721 
L 73.164035 62.280801 
L 74.793827 67.443009 
L 76.423619 82.399739 
L 78.05341 74.554089 
L 79.683202 70.98156 
L 81.312994 76.249746 
L 82.942786 76.489209 
L 84.572578 72.648902 
L 86.20237 73.824374 
L 87.832162 70.710546 
L 89.461954 77.604007 
L 91.091746 75.787809 
L 92.721538 74.793552 
L 94.351329 78.55296 
L 95.981121 72.250067 
L 97.610913 77.390432 
L 99.240705 77.853987 
L 100.870497 67.426829 
L 102.500289 73.395606 
L 104.130081 80.102189 
L 105.759873 76.067722 
L 107.389665 67.444627 
L 109.019456 83.099521 
L 110.649248 73.626979 
L 112.27904 83.287208 
L 113.908832 76.305567 
L 115.538624 76.358961 
L 117.168416 72.829308 
L 118.798208 76.930922 
L 120.428 74.863935 
L 122.057792 77.726974 
L 123.687584 79.989738 
L 125.317375 74.016916 
L 126.947167 68.794033 
L 128.576959 76.612177 
L 130.206751 76.309612 
L 131.836543 76.403456 
L 133.466335 79.721151 
L 135.096127 69.484916 
L 136.725919 69.292375 
L 138.355711 77.871785 
L 139.985502 82.695832 
L 141.615294 71.975817 
L 143.245086 84.330005 
L 144.874878 70.664433 
L 146.50467 71.977435 
L 148.134462 79.511621 
L 149.764254 69.777773 
L 151.394046 70.064158 
L 153.023838 71.401429 
L 154.65363 80.06093 
L 156.283421 71.566465 
L 157.913213 81.823733 
L 159.543005 68.366883 
L 161.172797 76.834651 
L 162.802589 74.963442 
L 164.432381 74.260424 
L 166.062173 85.129294 
L 167.691965 77.314386 
L 169.321757 74.293592 
L 170.951548 67.066016 
L 172.58134 82.182928 
L 174.211132 79.108741 
L 175.840924 76.616222 
L 177.470716 76.413164 
L 179.100508 88.415438 
L 180.7303 72.390832 
L 182.360092 72.817982 
L 183.989884 73.503203 
L 185.619676 73.296909 
L 187.249467 69.793953 
L 188.879259 78.821547 
L 190.509051 69.585232 
L 192.138843 85.587995 
L 193.768635 68.247151 
L 195.398427 58.474471 
L 197.028219 72.093121 
L 198.658011 68.573177 
L 200.287803 69.890224 
L 201.917594 85.972268 
L 203.547386 62.610871 
L 205.177178 77.540096 
L 206.80697 77.400949 
L 208.436762 82.653764 
L 210.066554 74.501505 
L 211.696346 74.062219 
L 213.326138 73.071198 
L 214.95593 66.372706 
L 216.585722 73.797677 
L 218.215513 70.925739 
L 219.845305 74.155254 
L 221.475097 71.528442 
L 223.104889 81.218604 
L 224.734681 80.913612 
L 226.364473 71.297878 
L 227.994265 73.436056 
L 229.624057 77.591063 
L 231.253849 79.16537 
L 232.88364 55.679388 
L 234.513432 67.731011 
L 236.143224 77.691378 
L 237.773016 75.547537 
L 239.402808 74.235345 
L 241.0326 73.966758 
L 242.662392 76.345208 
L 244.292184 80.18147 
L 245.921976 71.034145 
L 247.551768 74.885778 
L 249.181559 67.23995 
L 250.811351 81.594787 
L 252.441143 66.985116 
L 254.070935 66.774777 
L 255.700727 77.910617 
L 257.330519 69.189632 
L 258.960311 81.069749 
L 260.590103 73.934398 
L 262.219895 78.481768 
L 263.849686 68.69938 
L 265.479478 66.40992 
L 267.10927 85.515185 
L 268.739062 79.337687 
L 270.368854 70.635309 
L 271.998646 73.066344 
L 273.628438 77.533624 
L 275.25823 69.703345 
L 276.888022 66.808755 
L 278.517814 71.873883 
L 280.147605 72.878657 
L 281.777397 77.403376 
L 283.407189 71.980671 
L 285.036981 74.308154 
L 286.666773 74.307345 
L 288.296565 79.345777 
L 289.926357 74.362357 
L 291.556149 77.288498 
L 293.185941 62.868941 
L 294.815732 80.327899 
L 296.445524 75.041105 
L 298.075316 82.301041 
L 299.705108 71.803501 
L 301.3349 76.151858 
L 302.964692 73.006479 
L 304.594484 75.068611 
L 306.224276 73.133491 
L 307.854068 64.939973 
L 309.48386 71.035763 
L 311.113651 87.072504 
L 312.743443 70.782547 
L 314.373235 76.365433 
L 316.003027 73.794441 
L 317.632819 79.927445 
L 319.262611 71.854467 
L 320.892403 62.317206 
L 322.522195 69.477635 
L 324.151987 68.787561 
L 325.781778 75.731989 
L 327.41157 67.082196 
L 329.041362 66.880756 
L 330.671154 84.217555 
L 332.300946 70.382903 
L 333.930738 78.141181 
L 335.56053 78.249586 
L 337.190322 73.98132 
L 338.820114 82.453133 
L 340.449906 84.106722 
L 342.079697 65.556428 
L 343.709489 72.921534 
L 345.339281 79.497868 
L 346.969073 61.940213 
L 348.598865 78.116102 
L 350.228657 75.46502 
L 351.858449 62.164305 
L 353.488241 75.205332 
L 355.118033 69.859482 
L 356.747824 67.252085 
L 358.377616 78.442127 
L 360.007408 79.99621 
L 361.6372 84.137464 
L 363.266992 72.159459 
L 364.896784 68.165443 
L 366.526576 85.701255 
L 368.156368 71.462104 
L 369.78616 62.685299 
L 371.415952 61.598817 
L 373.045743 78.906491 
L 374.675535 81.195143 
L 376.305327 68.625762 
L 377.935119 78.913772 
L 379.564911 79.072336 
L 381.194703 78.853098 
L 382.824495 78.976065 
L 384.454287 63.209529 
L 386.084079 77.980999 
L 387.71387 73.340594 
L 389.343662 75.558054 
L 390.973454 77.468095 
L 392.603246 74.913284 
L 394.233038 71.521161 
L 395.86283 73.669856 
L 397.492622 76.299095 
L 399.122414 76.331455 
L 400.752206 72.185347 
L 402.381998 83.265366 
L 404.011789 79.831984 
L 405.641581 68.654077 
L 407.271373 67.217299 
L 408.901165 82.708776 
L 410.530957 70.88448 
L 412.160749 71.653027 
L 413.790541 68.370119 
L 415.420333 80.728352 
L 417.050125 74.618 
L 418.679916 74.363975 
L 420.309708 76.164802 
L 421.9395 71.472621 
L 425.199084 76.536131 
L 426.828876 78.87575 
L 428.458668 73.172323 
L 430.08846 77.830526 
L 431.718252 65.037052 
L 433.348044 79.306136 
L 434.977835 73.364055 
L 436.607627 68.293264 
L 438.237419 78.293272 
L 439.867211 70.420116 
L 441.497003 68.292455 
L 443.126795 73.931971 
L 444.756587 68.80455 
L 446.386379 79.717106 
L 448.016171 83.791213 
L 449.645962 69.244644 
L 451.275754 69.759166 
L 452.905546 76.461704 
L 454.535338 83.735393 
L 456.16513 75.0047 
L 457.794922 78.379835 
L 459.424714 79.620027 
L 461.054506 74.615573 
L 462.684298 77.692996 
L 464.31409 70.471892 
L 465.943881 68.845 
L 467.573673 68.335332 
L 469.203465 79.151617 
L 470.833257 82.922351 
L 472.463049 73.170705 
L 474.092841 69.327971 
L 474.092841 69.327971 
" clip-path="url(#p34a92044ef)" style="fill: none; stroke-dasharray: 1.75,2.8875; stroke-dashoffset: 0; stroke: #9fc377; stroke-width: 1.75"/>
   </g>
   <g id="patch_3">
    <path d="M 47.98375 326.855625 
L 47.98375 21.935625 
" style="fill: none; stroke: #cccccc; stroke-width: 1.25; stroke-linejoin: miter; stroke-linecap: square"/>
   </g>
   <g id="patch_4">
    <path d="M 494.38375 326.855625 
L 494.38375 21.935625 
" style="fill: none; stroke: #cccccc; stroke-width: 1.25; stroke-linejoin: miter; stroke-linecap: square"/>
   </g>
   <g id="patch_5">
    <path d="M 47.98375 326.855625 
L 494.38375 326.855625 
" style="fill: none; stroke: #cccccc; stroke-width: 1.25; stroke-linejoin: miter; stroke-linecap: square"/>
   </g>
   <g id="patch_6">
    <path d="M 47.98375 21.935625 
L 494.38375 21.935625 
" style="fill: none; stroke: #cccccc; stroke-width: 1.25; stroke-linejoin: miter; stroke-linecap: square"/>
   </g>
   <g id="text_37">
    <!-- "Sarai_flexibility" for dataset Mouse_non_tata -->
    <g style="fill: #262626" transform="translate(150.529375 15.935625) scale(0.12 -0.12)">
     <defs>
      <path id="ArialMT-22" d="M 450 2959 
L 294 3831 
L 294 4581 
L 934 4581 
L 934 3831 
L 794 2959 
L 450 2959 
z
M 1484 2959 
L 1331 3831 
L 1331 4581 
L 1972 4581 
L 1972 3831 
L 1822 2959 
L 1484 2959 
z
" transform="scale(0.015625)"/>
      <path id="ArialMT-20" transform="scale(0.015625)"/>
      <path id="ArialMT-64" d="M 2575 0 
L 2575 419 
Q 2259 -75 1647 -75 
Q 1250 -75 917 144 
Q 584 363 401 755 
Q 219 1147 219 1656 
Q 219 2153 384 2558 
Q 550 2963 881 3178 
Q 1213 3394 1622 3394 
Q 1922 3394 2156 3267 
Q 2391 3141 2538 2938 
L 2538 4581 
L 3097 4581 
L 3097 0 
L 2575 0 
z
M 797 1656 
Q 797 1019 1065 703 
Q 1334 388 1700 388 
Q 2069 388 2326 689 
Q 2584 991 2584 1609 
Q 2584 2291 2321 2609 
Q 2059 2928 1675 2928 
Q 1300 2928 1048 2622 
Q 797 2316 797 1656 
z
" transform="scale(0.015625)"/>
      <path id="ArialMT-4d" d="M 475 0 
L 475 4581 
L 1388 4581 
L 2472 1338 
Q 2622 884 2691 659 
Q 2769 909 2934 1394 
L 4031 4581 
L 4847 4581 
L 4847 0 
L 4263 0 
L 4263 3834 
L 2931 0 
L 2384 0 
L 1059 3900 
L 1059 0 
L 475 0 
z
" transform="scale(0.015625)"/>
      <path id="ArialMT-75" d="M 2597 0 
L 2597 488 
Q 2209 -75 1544 -75 
Q 1250 -75 995 37 
Q 741 150 617 320 
Q 494 491 444 738 
Q 409 903 409 1263 
L 409 3319 
L 972 3319 
L 972 1478 
Q 972 1038 1006 884 
Q 1059 663 1231 536 
Q 1403 409 1656 409 
Q 1909 409 2131 539 
Q 2353 669 2445 892 
Q 2538 1116 2538 1541 
L 2538 3319 
L 3100 3319 
L 3100 0 
L 2597 0 
z
" transform="scale(0.015625)"/>
     </defs>
     <use xlink:href="#ArialMT-22"/>
     <use xlink:href="#ArialMT-53" x="35.498047"/>
     <use xlink:href="#ArialMT-61" x="102.197266"/>
     <use xlink:href="#ArialMT-72" x="157.8125"/>
     <use xlink:href="#ArialMT-61" x="191.113281"/>
     <use xlink:href="#ArialMT-69" x="246.728516"/>
     <use xlink:href="#ArialMT-5f" x="268.945312"/>
     <use xlink:href="#ArialMT-66" x="324.560547"/>
     <use xlink:href="#ArialMT-6c" x="352.34375"/>
     <use xlink:href="#ArialMT-65" x="374.560547"/>
     <use xlink:href="#ArialMT-78" x="430.175781"/>
     <use xlink:href="#ArialMT-69" x="480.175781"/>
     <use xlink:href="#ArialMT-62" x="502.392578"/>
     <use xlink:href="#ArialMT-69" x="558.007812"/>
     <use xlink:href="#ArialMT-6c" x="580.224609"/>
     <use xlink:href="#ArialMT-69" x="602.441406"/>
     <use xlink:href="#ArialMT-74" x="624.658203"/>
     <use xlink:href="#ArialMT-79" x="652.441406"/>
     <use xlink:href="#ArialMT-22" x="702.441406"/>
     <use xlink:href="#ArialMT-20" x="737.939453"/>
     <use xlink:href="#ArialMT-66" x="765.722656"/>
     <use xlink:href="#ArialMT-6f" x="793.505859"/>
     <use xlink:href="#ArialMT-72" x="849.121094"/>
     <use xlink:href="#ArialMT-20" x="882.421875"/>
     <use xlink:href="#ArialMT-64" x="910.205078"/>
     <use xlink:href="#ArialMT-61" x="965.820312"/>
     <use xlink:href="#ArialMT-74" x="1021.435547"/>
     <use xlink:href="#ArialMT-61" x="1049.21875"/>
     <use xlink:href="#ArialMT-73" x="1104.833984"/>
     <use xlink:href="#ArialMT-65" x="1154.833984"/>
     <use xlink:href="#ArialMT-74" x="1210.449219"/>
     <use xlink:href="#ArialMT-20" x="1238.232422"/>
     <use xlink:href="#ArialMT-4d" x="1266.015625"/>
     <use xlink:href="#ArialMT-6f" x="1349.316406"/>
     <use xlink:href="#ArialMT-75" x="1404.931641"/>
     <use xlink:href="#ArialMT-73" x="1460.546875"/>
     <use xlink:href="#ArialMT-65" x="1510.546875"/>
     <use xlink:href="#ArialMT-5f" x="1566.162109"/>
     <use xlink:href="#ArialMT-6e" x="1621.777344"/>
     <use xlink:href="#ArialMT-6f" x="1677.392578"/>
     <use xlink:href="#ArialMT-6e" x="1733.007812"/>
     <use xlink:href="#ArialMT-5f" x="1788.623047"/>
     <use xlink:href="#ArialMT-74" x="1844.238281"/>
     <use xlink:href="#ArialMT-61" x="1872.021484"/>
     <use xlink:href="#ArialMT-74" x="1927.636719"/>
     <use xlink:href="#ArialMT-61" x="1955.419922"/>
    </g>
   </g>
   <g id="legend_1">
    <g id="line2d_37">
     <path d="M 56.98375 34.593437 
L 66.98375 34.593437 
L 76.98375 34.593437 
" style="fill: none; stroke: #0272a2; stroke-width: 1.75; stroke-linecap: round"/>
    </g>
    <g id="text_38">
     <!-- Promoter -->
     <g style="fill: #262626" transform="translate(84.98375 38.093437) scale(0.1 -0.1)">
      <defs>
       <path id="ArialMT-6d" d="M 422 0 
L 422 3319 
L 925 3319 
L 925 2853 
Q 1081 3097 1340 3245 
Q 1600 3394 1931 3394 
Q 2300 3394 2536 3241 
Q 2772 3088 2869 2813 
Q 3263 3394 3894 3394 
Q 4388 3394 4653 3120 
Q 4919 2847 4919 2278 
L 4919 0 
L 4359 0 
L 4359 2091 
Q 4359 2428 4304 2576 
Q 4250 2725 4106 2815 
Q 3963 2906 3769 2906 
Q 3419 2906 3187 2673 
Q 2956 2441 2956 1928 
L 2956 0 
L 2394 0 
L 2394 2156 
Q 2394 2531 2256 2718 
Q 2119 2906 1806 2906 
Q 1569 2906 1367 2781 
Q 1166 2656 1075 2415 
Q 984 2175 984 1722 
L 984 0 
L 422 0 
z
" transform="scale(0.015625)"/>
      </defs>
      <use xlink:href="#ArialMT-50"/>
      <use xlink:href="#ArialMT-72" x="66.699219"/>
      <use xlink:href="#ArialMT-6f" x="100"/>
      <use xlink:href="#ArialMT-6d" x="155.615234"/>
      <use xlink:href="#ArialMT-6f" x="238.916016"/>
      <use xlink:href="#ArialMT-74" x="294.53125"/>
      <use xlink:href="#ArialMT-65" x="322.314453"/>
      <use xlink:href="#ArialMT-72" x="377.929688"/>
     </g>
    </g>
    <g id="line2d_38">
     <path d="M 56.98375 48.73875 
L 66.98375 48.73875 
L 76.98375 48.73875 
" style="fill: none; stroke-dasharray: 1.75,2.8875; stroke-dashoffset: 0; stroke: #9fc377; stroke-width: 1.75"/>
    </g>
    <g id="text_39">
     <!-- Non-promoter -->
     <g style="fill: #262626" transform="translate(84.98375 52.23875) scale(0.1 -0.1)">
      <defs>
       <path id="ArialMT-4e" d="M 488 0 
L 488 4581 
L 1109 4581 
L 3516 984 
L 3516 4581 
L 4097 4581 
L 4097 0 
L 3475 0 
L 1069 3600 
L 1069 0 
L 488 0 
z
" transform="scale(0.015625)"/>
       <path id="ArialMT-70" d="M 422 -1272 
L 422 3319 
L 934 3319 
L 934 2888 
Q 1116 3141 1344 3267 
Q 1572 3394 1897 3394 
Q 2322 3394 2647 3175 
Q 2972 2956 3137 2557 
Q 3303 2159 3303 1684 
Q 3303 1175 3120 767 
Q 2938 359 2589 142 
Q 2241 -75 1856 -75 
Q 1575 -75 1351 44 
Q 1128 163 984 344 
L 984 -1272 
L 422 -1272 
z
M 931 1641 
Q 931 1000 1190 694 
Q 1450 388 1819 388 
Q 2194 388 2461 705 
Q 2728 1022 2728 1688 
Q 2728 2322 2467 2637 
Q 2206 2953 1844 2953 
Q 1484 2953 1207 2617 
Q 931 2281 931 1641 
z
" transform="scale(0.015625)"/>
      </defs>
      <use xlink:href="#ArialMT-4e"/>
      <use xlink:href="#ArialMT-6f" x="72.216797"/>
      <use xlink:href="#ArialMT-6e" x="127.832031"/>
      <use xlink:href="#ArialMT-2d" x="183.447266"/>
      <use xlink:href="#ArialMT-70" x="216.748047"/>
      <use xlink:href="#ArialMT-72" x="272.363281"/>
      <use xlink:href="#ArialMT-6f" x="305.664062"/>
      <use xlink:href="#ArialMT-6d" x="361.279297"/>
      <use xlink:href="#ArialMT-6f" x="444.580078"/>
      <use xlink:href="#ArialMT-74" x="500.195312"/>
      <use xlink:href="#ArialMT-65" x="527.978516"/>
      <use xlink:href="#ArialMT-72" x="583.59375"/>
     </g>
    </g>
   </g>
  </g>
 </g>
 <defs>
  <clipPath id="p34a92044ef">
   <rect x="47.98375" y="21.935625" width="446.4" height="304.92"/>
  </clipPath>
 </defs>
</svg>
