<?xml version="1.0" encoding="utf-8" standalone="no"?>
<!DOCTYPE svg PUBLIC "-//W3C//DTD SVG 1.1//EN"
  "http://www.w3.org/Graphics/SVG/1.1/DTD/svg11.dtd">
<svg xmlns:xlink="http://www.w3.org/1999/xlink" width="501.320781pt" height="375.733156pt" viewBox="0 0 501.320781 375.733156" xmlns="http://www.w3.org/2000/svg" version="1.1">
 <metadata>
  <rdf:RDF xmlns:dc="http://purl.org/dc/elements/1.1/" xmlns:cc="http://creativecommons.org/ns#" xmlns:rdf="http://www.w3.org/1999/02/22-rdf-syntax-ns#">
   <cc:Work>
    <dc:type rdf:resource="http://purl.org/dc/dcmitype/StillImage"/>
    <dc:date>2023-05-11T16:25:33.415342</dc:date>
    <dc:format>image/svg+xml</dc:format>
    <dc:creator>
     <cc:Agent>
      <dc:title>Matplotlib v3.7.1, https://matplotlib.org/</dc:title>
     </cc:Agent>
    </dc:creator>
   </cc:Work>
  </rdf:RDF>
 </metadata>
 <defs>
  <style type="text/css">*{stroke-linejoin: round; stroke-linecap: butt}</style>
 </defs>
 <g id="figure_1">
  <g id="patch_1">
   <path d="M 0 375.733156 
L 501.320781 375.733156 
L 501.320781 0 
L 0 0 
z
" style="fill: #ffffff"/>
  </g>
  <g id="axes_1">
   <g id="patch_2">
    <path d="M 47.720781 326.855625 
L 494.120781 326.855625 
L 494.120781 21.935625 
L 47.720781 21.935625 
z
" style="fill: #ffffff"/>
   </g>
   <g id="matplotlib.axis_1">
    <g id="xtick_1">
     <g id="line2d_1"/>
     <g id="text_1">
      <!-- -200 -->
      <g style="fill: #262626" transform="translate(62.764185 353.067937) rotate(-45) scale(0.1 -0.1)">
       <defs>
        <path id="ArialMT-2d" d="M 203 1375 
L 203 1941 
L 1931 1941 
L 1931 1375 
L 203 1375 
z
" transform="scale(0.015625)"/>
        <path id="ArialMT-32" d="M 3222 541 
L 3222 0 
L 194 0 
Q 188 203 259 391 
Q 375 700 629 1000 
Q 884 1300 1366 1694 
Q 2113 2306 2375 2664 
Q 2638 3022 2638 3341 
Q 2638 3675 2398 3904 
Q 2159 4134 1775 4134 
Q 1369 4134 1125 3890 
Q 881 3647 878 3216 
L 300 3275 
Q 359 3922 746 4261 
Q 1134 4600 1788 4600 
Q 2447 4600 2831 4234 
Q 3216 3869 3216 3328 
Q 3216 3053 3103 2787 
Q 2991 2522 2730 2228 
Q 2469 1934 1863 1422 
Q 1356 997 1212 845 
Q 1069 694 975 541 
L 3222 541 
z
" transform="scale(0.015625)"/>
        <path id="ArialMT-30" d="M 266 2259 
Q 266 3072 433 3567 
Q 600 4063 929 4331 
Q 1259 4600 1759 4600 
Q 2128 4600 2406 4451 
Q 2684 4303 2865 4023 
Q 3047 3744 3150 3342 
Q 3253 2941 3253 2259 
Q 3253 1453 3087 958 
Q 2922 463 2592 192 
Q 2263 -78 1759 -78 
Q 1097 -78 719 397 
Q 266 969 266 2259 
z
M 844 2259 
Q 844 1131 1108 757 
Q 1372 384 1759 384 
Q 2147 384 2411 759 
Q 2675 1134 2675 2259 
Q 2675 3391 2411 3762 
Q 2147 4134 1753 4134 
Q 1366 4134 1134 3806 
Q 844 3388 844 2259 
z
" transform="scale(0.015625)"/>
       </defs>
       <use xlink:href="#ArialMT-2d"/>
       <use xlink:href="#ArialMT-32" x="33.300781"/>
       <use xlink:href="#ArialMT-30" x="88.916016"/>
       <use xlink:href="#ArialMT-30" x="144.53125"/>
      </g>
     </g>
    </g>
    <g id="xtick_2">
     <g id="line2d_2"/>
     <g id="text_2">
      <!-- -190 -->
      <g style="fill: #262626" transform="translate(79.062104 353.067937) rotate(-45) scale(0.1 -0.1)">
       <defs>
        <path id="ArialMT-31" d="M 2384 0 
L 1822 0 
L 1822 3584 
Q 1619 3391 1289 3197 
Q 959 3003 697 2906 
L 697 3450 
Q 1169 3672 1522 3987 
Q 1875 4303 2022 4600 
L 2384 4600 
L 2384 0 
z
" transform="scale(0.015625)"/>
        <path id="ArialMT-39" d="M 350 1059 
L 891 1109 
Q 959 728 1153 556 
Q 1347 384 1650 384 
Q 1909 384 2104 503 
Q 2300 622 2425 820 
Q 2550 1019 2634 1356 
Q 2719 1694 2719 2044 
Q 2719 2081 2716 2156 
Q 2547 1888 2255 1720 
Q 1963 1553 1622 1553 
Q 1053 1553 659 1965 
Q 266 2378 266 3053 
Q 266 3750 677 4175 
Q 1088 4600 1706 4600 
Q 2153 4600 2523 4359 
Q 2894 4119 3086 3673 
Q 3278 3228 3278 2384 
Q 3278 1506 3087 986 
Q 2897 466 2520 194 
Q 2144 -78 1638 -78 
Q 1100 -78 759 220 
Q 419 519 350 1059 
z
M 2653 3081 
Q 2653 3566 2395 3850 
Q 2138 4134 1775 4134 
Q 1400 4134 1122 3828 
Q 844 3522 844 3034 
Q 844 2597 1108 2323 
Q 1372 2050 1759 2050 
Q 2150 2050 2401 2323 
Q 2653 2597 2653 3081 
z
" transform="scale(0.015625)"/>
       </defs>
       <use xlink:href="#ArialMT-2d"/>
       <use xlink:href="#ArialMT-31" x="33.300781"/>
       <use xlink:href="#ArialMT-39" x="88.916016"/>
       <use xlink:href="#ArialMT-30" x="144.53125"/>
      </g>
     </g>
    </g>
    <g id="xtick_3">
     <g id="line2d_3"/>
     <g id="text_3">
      <!-- -180 -->
      <g style="fill: #262626" transform="translate(95.360023 353.067937) rotate(-45) scale(0.1 -0.1)">
       <defs>
        <path id="ArialMT-38" d="M 1131 2484 
Q 781 2613 612 2850 
Q 444 3088 444 3419 
Q 444 3919 803 4259 
Q 1163 4600 1759 4600 
Q 2359 4600 2725 4251 
Q 3091 3903 3091 3403 
Q 3091 3084 2923 2848 
Q 2756 2613 2416 2484 
Q 2838 2347 3058 2040 
Q 3278 1734 3278 1309 
Q 3278 722 2862 322 
Q 2447 -78 1769 -78 
Q 1091 -78 675 323 
Q 259 725 259 1325 
Q 259 1772 486 2073 
Q 713 2375 1131 2484 
z
M 1019 3438 
Q 1019 3113 1228 2906 
Q 1438 2700 1772 2700 
Q 2097 2700 2305 2904 
Q 2513 3109 2513 3406 
Q 2513 3716 2298 3927 
Q 2084 4138 1766 4138 
Q 1444 4138 1231 3931 
Q 1019 3725 1019 3438 
z
M 838 1322 
Q 838 1081 952 856 
Q 1066 631 1291 507 
Q 1516 384 1775 384 
Q 2178 384 2440 643 
Q 2703 903 2703 1303 
Q 2703 1709 2433 1975 
Q 2163 2241 1756 2241 
Q 1359 2241 1098 1978 
Q 838 1716 838 1322 
z
" transform="scale(0.015625)"/>
       </defs>
       <use xlink:href="#ArialMT-2d"/>
       <use xlink:href="#ArialMT-31" x="33.300781"/>
       <use xlink:href="#ArialMT-38" x="88.916016"/>
       <use xlink:href="#ArialMT-30" x="144.53125"/>
      </g>
     </g>
    </g>
    <g id="xtick_4">
     <g id="line2d_4"/>
     <g id="text_4">
      <!-- -170 -->
      <g style="fill: #262626" transform="translate(111.657941 353.067937) rotate(-45) scale(0.1 -0.1)">
       <defs>
        <path id="ArialMT-37" d="M 303 3981 
L 303 4522 
L 3269 4522 
L 3269 4084 
Q 2831 3619 2401 2847 
Q 1972 2075 1738 1259 
Q 1569 684 1522 0 
L 944 0 
Q 953 541 1156 1306 
Q 1359 2072 1739 2783 
Q 2119 3494 2547 3981 
L 303 3981 
z
" transform="scale(0.015625)"/>
       </defs>
       <use xlink:href="#ArialMT-2d"/>
       <use xlink:href="#ArialMT-31" x="33.300781"/>
       <use xlink:href="#ArialMT-37" x="88.916016"/>
       <use xlink:href="#ArialMT-30" x="144.53125"/>
      </g>
     </g>
    </g>
    <g id="xtick_5">
     <g id="line2d_5"/>
     <g id="text_5">
      <!-- -160 -->
      <g style="fill: #262626" transform="translate(127.95586 353.067937) rotate(-45) scale(0.1 -0.1)">
       <defs>
        <path id="ArialMT-36" d="M 3184 3459 
L 2625 3416 
Q 2550 3747 2413 3897 
Q 2184 4138 1850 4138 
Q 1581 4138 1378 3988 
Q 1113 3794 959 3422 
Q 806 3050 800 2363 
Q 1003 2672 1297 2822 
Q 1591 2972 1913 2972 
Q 2475 2972 2870 2558 
Q 3266 2144 3266 1488 
Q 3266 1056 3080 686 
Q 2894 316 2569 119 
Q 2244 -78 1831 -78 
Q 1128 -78 684 439 
Q 241 956 241 2144 
Q 241 3472 731 4075 
Q 1159 4600 1884 4600 
Q 2425 4600 2770 4297 
Q 3116 3994 3184 3459 
z
M 888 1484 
Q 888 1194 1011 928 
Q 1134 663 1356 523 
Q 1578 384 1822 384 
Q 2178 384 2434 671 
Q 2691 959 2691 1453 
Q 2691 1928 2437 2201 
Q 2184 2475 1800 2475 
Q 1419 2475 1153 2201 
Q 888 1928 888 1484 
z
" transform="scale(0.015625)"/>
       </defs>
       <use xlink:href="#ArialMT-2d"/>
       <use xlink:href="#ArialMT-31" x="33.300781"/>
       <use xlink:href="#ArialMT-36" x="88.916016"/>
       <use xlink:href="#ArialMT-30" x="144.53125"/>
      </g>
     </g>
    </g>
    <g id="xtick_6">
     <g id="line2d_6"/>
     <g id="text_6">
      <!-- -150 -->
      <g style="fill: #262626" transform="translate(144.253779 353.067937) rotate(-45) scale(0.1 -0.1)">
       <defs>
        <path id="ArialMT-35" d="M 266 1200 
L 856 1250 
Q 922 819 1161 601 
Q 1400 384 1738 384 
Q 2144 384 2425 690 
Q 2706 997 2706 1503 
Q 2706 1984 2436 2262 
Q 2166 2541 1728 2541 
Q 1456 2541 1237 2417 
Q 1019 2294 894 2097 
L 366 2166 
L 809 4519 
L 3088 4519 
L 3088 3981 
L 1259 3981 
L 1013 2750 
Q 1425 3038 1878 3038 
Q 2478 3038 2890 2622 
Q 3303 2206 3303 1553 
Q 3303 931 2941 478 
Q 2500 -78 1738 -78 
Q 1113 -78 717 272 
Q 322 622 266 1200 
z
" transform="scale(0.015625)"/>
       </defs>
       <use xlink:href="#ArialMT-2d"/>
       <use xlink:href="#ArialMT-31" x="33.300781"/>
       <use xlink:href="#ArialMT-35" x="88.916016"/>
       <use xlink:href="#ArialMT-30" x="144.53125"/>
      </g>
     </g>
    </g>
    <g id="xtick_7">
     <g id="line2d_7"/>
     <g id="text_7">
      <!-- -140 -->
      <g style="fill: #262626" transform="translate(160.551698 353.067937) rotate(-45) scale(0.1 -0.1)">
       <defs>
        <path id="ArialMT-34" d="M 2069 0 
L 2069 1097 
L 81 1097 
L 81 1613 
L 2172 4581 
L 2631 4581 
L 2631 1613 
L 3250 1613 
L 3250 1097 
L 2631 1097 
L 2631 0 
L 2069 0 
z
M 2069 1613 
L 2069 3678 
L 634 1613 
L 2069 1613 
z
" transform="scale(0.015625)"/>
       </defs>
       <use xlink:href="#ArialMT-2d"/>
       <use xlink:href="#ArialMT-31" x="33.300781"/>
       <use xlink:href="#ArialMT-34" x="88.916016"/>
       <use xlink:href="#ArialMT-30" x="144.53125"/>
      </g>
     </g>
    </g>
    <g id="xtick_8">
     <g id="line2d_8"/>
     <g id="text_8">
      <!-- -130 -->
      <g style="fill: #262626" transform="translate(176.849617 353.067937) rotate(-45) scale(0.1 -0.1)">
       <defs>
        <path id="ArialMT-33" d="M 269 1209 
L 831 1284 
Q 928 806 1161 595 
Q 1394 384 1728 384 
Q 2125 384 2398 659 
Q 2672 934 2672 1341 
Q 2672 1728 2419 1979 
Q 2166 2231 1775 2231 
Q 1616 2231 1378 2169 
L 1441 2663 
Q 1497 2656 1531 2656 
Q 1891 2656 2178 2843 
Q 2466 3031 2466 3422 
Q 2466 3731 2256 3934 
Q 2047 4138 1716 4138 
Q 1388 4138 1169 3931 
Q 950 3725 888 3313 
L 325 3413 
Q 428 3978 793 4289 
Q 1159 4600 1703 4600 
Q 2078 4600 2393 4439 
Q 2709 4278 2876 4000 
Q 3044 3722 3044 3409 
Q 3044 3113 2884 2869 
Q 2725 2625 2413 2481 
Q 2819 2388 3044 2092 
Q 3269 1797 3269 1353 
Q 3269 753 2831 336 
Q 2394 -81 1725 -81 
Q 1122 -81 723 278 
Q 325 638 269 1209 
z
" transform="scale(0.015625)"/>
       </defs>
       <use xlink:href="#ArialMT-2d"/>
       <use xlink:href="#ArialMT-31" x="33.300781"/>
       <use xlink:href="#ArialMT-33" x="88.916016"/>
       <use xlink:href="#ArialMT-30" x="144.53125"/>
      </g>
     </g>
    </g>
    <g id="xtick_9">
     <g id="line2d_9"/>
     <g id="text_9">
      <!-- -120 -->
      <g style="fill: #262626" transform="translate(193.147536 353.067937) rotate(-45) scale(0.1 -0.1)">
       <use xlink:href="#ArialMT-2d"/>
       <use xlink:href="#ArialMT-31" x="33.300781"/>
       <use xlink:href="#ArialMT-32" x="88.916016"/>
       <use xlink:href="#ArialMT-30" x="144.53125"/>
      </g>
     </g>
    </g>
    <g id="xtick_10">
     <g id="line2d_10"/>
     <g id="text_10">
      <!-- -110 -->
      <g style="fill: #262626" transform="translate(209.706201 352.546446) rotate(-45) scale(0.1 -0.1)">
       <use xlink:href="#ArialMT-2d"/>
       <use xlink:href="#ArialMT-31" x="33.300781"/>
       <use xlink:href="#ArialMT-31" x="81.541016"/>
       <use xlink:href="#ArialMT-30" x="137.15625"/>
      </g>
     </g>
    </g>
    <g id="xtick_11">
     <g id="line2d_11"/>
     <g id="text_11">
      <!-- -100 -->
      <g style="fill: #262626" transform="translate(225.743374 353.067937) rotate(-45) scale(0.1 -0.1)">
       <use xlink:href="#ArialMT-2d"/>
       <use xlink:href="#ArialMT-31" x="33.300781"/>
       <use xlink:href="#ArialMT-30" x="88.916016"/>
       <use xlink:href="#ArialMT-30" x="144.53125"/>
      </g>
     </g>
    </g>
    <g id="xtick_12">
     <g id="line2d_12"/>
     <g id="text_12">
      <!-- -90 -->
      <g style="fill: #262626" transform="translate(244.007381 349.135761) rotate(-45) scale(0.1 -0.1)">
       <use xlink:href="#ArialMT-2d"/>
       <use xlink:href="#ArialMT-39" x="33.300781"/>
       <use xlink:href="#ArialMT-30" x="88.916016"/>
      </g>
     </g>
    </g>
    <g id="xtick_13">
     <g id="line2d_13"/>
     <g id="text_13">
      <!-- -80 -->
      <g style="fill: #262626" transform="translate(260.3053 349.135761) rotate(-45) scale(0.1 -0.1)">
       <use xlink:href="#ArialMT-2d"/>
       <use xlink:href="#ArialMT-38" x="33.300781"/>
       <use xlink:href="#ArialMT-30" x="88.916016"/>
      </g>
     </g>
    </g>
    <g id="xtick_14">
     <g id="line2d_14"/>
     <g id="text_14">
      <!-- -70 -->
      <g style="fill: #262626" transform="translate(276.603219 349.135761) rotate(-45) scale(0.1 -0.1)">
       <use xlink:href="#ArialMT-2d"/>
       <use xlink:href="#ArialMT-37" x="33.300781"/>
       <use xlink:href="#ArialMT-30" x="88.916016"/>
      </g>
     </g>
    </g>
    <g id="xtick_15">
     <g id="line2d_15"/>
     <g id="text_15">
      <!-- -60 -->
      <g style="fill: #262626" transform="translate(292.901138 349.135761) rotate(-45) scale(0.1 -0.1)">
       <use xlink:href="#ArialMT-2d"/>
       <use xlink:href="#ArialMT-36" x="33.300781"/>
       <use xlink:href="#ArialMT-30" x="88.916016"/>
      </g>
     </g>
    </g>
    <g id="xtick_16">
     <g id="line2d_16"/>
     <g id="text_16">
      <!-- -50 -->
      <g style="fill: #262626" transform="translate(309.199057 349.135761) rotate(-45) scale(0.1 -0.1)">
       <use xlink:href="#ArialMT-2d"/>
       <use xlink:href="#ArialMT-35" x="33.300781"/>
       <use xlink:href="#ArialMT-30" x="88.916016"/>
      </g>
     </g>
    </g>
    <g id="xtick_17">
     <g id="line2d_17"/>
     <g id="text_17">
      <!-- -40 -->
      <g style="fill: #262626" transform="translate(325.496976 349.135761) rotate(-45) scale(0.1 -0.1)">
       <use xlink:href="#ArialMT-2d"/>
       <use xlink:href="#ArialMT-34" x="33.300781"/>
       <use xlink:href="#ArialMT-30" x="88.916016"/>
      </g>
     </g>
    </g>
    <g id="xtick_18">
     <g id="line2d_18"/>
     <g id="text_18">
      <!-- -30 -->
      <g style="fill: #262626" transform="translate(341.794895 349.135761) rotate(-45) scale(0.1 -0.1)">
       <use xlink:href="#ArialMT-2d"/>
       <use xlink:href="#ArialMT-33" x="33.300781"/>
       <use xlink:href="#ArialMT-30" x="88.916016"/>
      </g>
     </g>
    </g>
    <g id="xtick_19">
     <g id="line2d_19"/>
     <g id="text_19">
      <!-- -20 -->
      <g style="fill: #262626" transform="translate(358.092814 349.135761) rotate(-45) scale(0.1 -0.1)">
       <use xlink:href="#ArialMT-2d"/>
       <use xlink:href="#ArialMT-32" x="33.300781"/>
       <use xlink:href="#ArialMT-30" x="88.916016"/>
      </g>
     </g>
    </g>
    <g id="xtick_20">
     <g id="line2d_20"/>
     <g id="text_20">
      <!-- -10 -->
      <g style="fill: #262626" transform="translate(374.390733 349.135761) rotate(-45) scale(0.1 -0.1)">
       <use xlink:href="#ArialMT-2d"/>
       <use xlink:href="#ArialMT-31" x="33.300781"/>
       <use xlink:href="#ArialMT-30" x="88.916016"/>
      </g>
     </g>
    </g>
    <g id="xtick_21">
     <g id="line2d_21"/>
     <g id="text_21">
      <!-- 0 -->
      <g style="fill: #262626" transform="translate(393.831963 342.849139) rotate(-45) scale(0.1 -0.1)">
       <use xlink:href="#ArialMT-30"/>
      </g>
     </g>
    </g>
    <g id="xtick_22">
     <g id="line2d_22"/>
     <g id="text_22">
      <!-- 10 -->
      <g style="fill: #262626" transform="translate(408.163793 346.781316) rotate(-45) scale(0.1 -0.1)">
       <use xlink:href="#ArialMT-31"/>
       <use xlink:href="#ArialMT-30" x="55.615234"/>
      </g>
     </g>
    </g>
    <g id="xtick_23">
     <g id="line2d_23"/>
     <g id="text_23">
      <!-- 20 -->
      <g style="fill: #262626" transform="translate(424.461712 346.781316) rotate(-45) scale(0.1 -0.1)">
       <use xlink:href="#ArialMT-32"/>
       <use xlink:href="#ArialMT-30" x="55.615234"/>
      </g>
     </g>
    </g>
    <g id="xtick_24">
     <g id="line2d_24"/>
     <g id="text_24">
      <!-- 30 -->
      <g style="fill: #262626" transform="translate(440.759631 346.781316) rotate(-45) scale(0.1 -0.1)">
       <use xlink:href="#ArialMT-33"/>
       <use xlink:href="#ArialMT-30" x="55.615234"/>
      </g>
     </g>
    </g>
    <g id="xtick_25">
     <g id="line2d_25"/>
     <g id="text_25">
      <!-- 40 -->
      <g style="fill: #262626" transform="translate(457.05755 346.781316) rotate(-45) scale(0.1 -0.1)">
       <use xlink:href="#ArialMT-34"/>
       <use xlink:href="#ArialMT-30" x="55.615234"/>
      </g>
     </g>
    </g>
    <g id="xtick_26">
     <g id="line2d_26"/>
     <g id="text_26">
      <!-- 50 -->
      <g style="fill: #262626" transform="translate(473.355469 346.781316) rotate(-45) scale(0.1 -0.1)">
       <use xlink:href="#ArialMT-35"/>
       <use xlink:href="#ArialMT-30" x="55.615234"/>
      </g>
     </g>
    </g>
    <g id="text_27">
     <!-- Position -->
     <g style="fill: #262626" transform="translate(251.354531 366.346906) scale(0.11 -0.11)">
      <defs>
       <path id="ArialMT-50" d="M 494 0 
L 494 4581 
L 2222 4581 
Q 2678 4581 2919 4538 
Q 3256 4481 3484 4323 
Q 3713 4166 3852 3881 
Q 3991 3597 3991 3256 
Q 3991 2672 3619 2267 
Q 3247 1863 2275 1863 
L 1100 1863 
L 1100 0 
L 494 0 
z
M 1100 2403 
L 2284 2403 
Q 2872 2403 3119 2622 
Q 3366 2841 3366 3238 
Q 3366 3525 3220 3729 
Q 3075 3934 2838 4000 
Q 2684 4041 2272 4041 
L 1100 4041 
L 1100 2403 
z
" transform="scale(0.015625)"/>
       <path id="ArialMT-6f" d="M 213 1659 
Q 213 2581 725 3025 
Q 1153 3394 1769 3394 
Q 2453 3394 2887 2945 
Q 3322 2497 3322 1706 
Q 3322 1066 3130 698 
Q 2938 331 2570 128 
Q 2203 -75 1769 -75 
Q 1072 -75 642 372 
Q 213 819 213 1659 
z
M 791 1659 
Q 791 1022 1069 705 
Q 1347 388 1769 388 
Q 2188 388 2466 706 
Q 2744 1025 2744 1678 
Q 2744 2294 2464 2611 
Q 2184 2928 1769 2928 
Q 1347 2928 1069 2612 
Q 791 2297 791 1659 
z
" transform="scale(0.015625)"/>
       <path id="ArialMT-73" d="M 197 991 
L 753 1078 
Q 800 744 1014 566 
Q 1228 388 1613 388 
Q 2000 388 2187 545 
Q 2375 703 2375 916 
Q 2375 1106 2209 1216 
Q 2094 1291 1634 1406 
Q 1016 1563 777 1677 
Q 538 1791 414 1992 
Q 291 2194 291 2438 
Q 291 2659 392 2848 
Q 494 3038 669 3163 
Q 800 3259 1026 3326 
Q 1253 3394 1513 3394 
Q 1903 3394 2198 3281 
Q 2494 3169 2634 2976 
Q 2775 2784 2828 2463 
L 2278 2388 
Q 2241 2644 2061 2787 
Q 1881 2931 1553 2931 
Q 1166 2931 1000 2803 
Q 834 2675 834 2503 
Q 834 2394 903 2306 
Q 972 2216 1119 2156 
Q 1203 2125 1616 2013 
Q 2213 1853 2448 1751 
Q 2684 1650 2818 1456 
Q 2953 1263 2953 975 
Q 2953 694 2789 445 
Q 2625 197 2315 61 
Q 2006 -75 1616 -75 
Q 969 -75 630 194 
Q 291 463 197 991 
z
" transform="scale(0.015625)"/>
       <path id="ArialMT-69" d="M 425 3934 
L 425 4581 
L 988 4581 
L 988 3934 
L 425 3934 
z
M 425 0 
L 425 3319 
L 988 3319 
L 988 0 
L 425 0 
z
" transform="scale(0.015625)"/>
       <path id="ArialMT-74" d="M 1650 503 
L 1731 6 
Q 1494 -44 1306 -44 
Q 1000 -44 831 53 
Q 663 150 594 308 
Q 525 466 525 972 
L 525 2881 
L 113 2881 
L 113 3319 
L 525 3319 
L 525 4141 
L 1084 4478 
L 1084 3319 
L 1650 3319 
L 1650 2881 
L 1084 2881 
L 1084 941 
Q 1084 700 1114 631 
Q 1144 563 1211 522 
Q 1278 481 1403 481 
Q 1497 481 1650 503 
z
" transform="scale(0.015625)"/>
       <path id="ArialMT-6e" d="M 422 0 
L 422 3319 
L 928 3319 
L 928 2847 
Q 1294 3394 1984 3394 
Q 2284 3394 2536 3286 
Q 2788 3178 2913 3003 
Q 3038 2828 3088 2588 
Q 3119 2431 3119 2041 
L 3119 0 
L 2556 0 
L 2556 2019 
Q 2556 2363 2490 2533 
Q 2425 2703 2258 2804 
Q 2091 2906 1866 2906 
Q 1506 2906 1245 2678 
Q 984 2450 984 1813 
L 984 0 
L 422 0 
z
" transform="scale(0.015625)"/>
      </defs>
      <use xlink:href="#ArialMT-50"/>
      <use xlink:href="#ArialMT-6f" x="66.699219"/>
      <use xlink:href="#ArialMT-73" x="122.314453"/>
      <use xlink:href="#ArialMT-69" x="172.314453"/>
      <use xlink:href="#ArialMT-74" x="194.53125"/>
      <use xlink:href="#ArialMT-69" x="222.314453"/>
      <use xlink:href="#ArialMT-6f" x="244.53125"/>
      <use xlink:href="#ArialMT-6e" x="300.146484"/>
     </g>
    </g>
   </g>
   <g id="matplotlib.axis_2">
    <g id="ytick_1">
     <g id="line2d_27"/>
     <g id="text_28">
      <!-- 34.0 -->
      <g style="fill: #262626" transform="translate(21.259844 315.687175) scale(0.1 -0.1)">
       <defs>
        <path id="ArialMT-2e" d="M 581 0 
L 581 641 
L 1222 641 
L 1222 0 
L 581 0 
z
" transform="scale(0.015625)"/>
       </defs>
       <use xlink:href="#ArialMT-33"/>
       <use xlink:href="#ArialMT-34" x="55.615234"/>
       <use xlink:href="#ArialMT-2e" x="111.230469"/>
       <use xlink:href="#ArialMT-30" x="139.013672"/>
      </g>
     </g>
    </g>
    <g id="ytick_2">
     <g id="line2d_28"/>
     <g id="text_29">
      <!-- 34.5 -->
      <g style="fill: #262626" transform="translate(21.259844 249.650481) scale(0.1 -0.1)">
       <use xlink:href="#ArialMT-33"/>
       <use xlink:href="#ArialMT-34" x="55.615234"/>
       <use xlink:href="#ArialMT-2e" x="111.230469"/>
       <use xlink:href="#ArialMT-35" x="139.013672"/>
      </g>
     </g>
    </g>
    <g id="ytick_3">
     <g id="line2d_29"/>
     <g id="text_30">
      <!-- 35.0 -->
      <g style="fill: #262626" transform="translate(21.259844 183.613788) scale(0.1 -0.1)">
       <use xlink:href="#ArialMT-33"/>
       <use xlink:href="#ArialMT-35" x="55.615234"/>
       <use xlink:href="#ArialMT-2e" x="111.230469"/>
       <use xlink:href="#ArialMT-30" x="139.013672"/>
      </g>
     </g>
    </g>
    <g id="ytick_4">
     <g id="line2d_30"/>
     <g id="text_31">
      <!-- 35.5 -->
      <g style="fill: #262626" transform="translate(21.259844 117.577095) scale(0.1 -0.1)">
       <use xlink:href="#ArialMT-33"/>
       <use xlink:href="#ArialMT-35" x="55.615234"/>
       <use xlink:href="#ArialMT-2e" x="111.230469"/>
       <use xlink:href="#ArialMT-35" x="139.013672"/>
      </g>
     </g>
    </g>
    <g id="ytick_5">
     <g id="line2d_31"/>
     <g id="text_32">
      <!-- 36.0 -->
      <g style="fill: #262626" transform="translate(21.259844 51.540402) scale(0.1 -0.1)">
       <use xlink:href="#ArialMT-33"/>
       <use xlink:href="#ArialMT-36" x="55.615234"/>
       <use xlink:href="#ArialMT-2e" x="111.230469"/>
       <use xlink:href="#ArialMT-30" x="139.013672"/>
      </g>
     </g>
    </g>
    <g id="text_33">
     <!-- B-DNA twist -->
     <g style="fill: #262626" transform="translate(15.073594 203.733828) rotate(-90) scale(0.11 -0.11)">
      <defs>
       <path id="ArialMT-42" d="M 469 0 
L 469 4581 
L 2188 4581 
Q 2713 4581 3030 4442 
Q 3347 4303 3526 4014 
Q 3706 3725 3706 3409 
Q 3706 3116 3547 2856 
Q 3388 2597 3066 2438 
Q 3481 2316 3704 2022 
Q 3928 1728 3928 1328 
Q 3928 1006 3792 729 
Q 3656 453 3456 303 
Q 3256 153 2954 76 
Q 2653 0 2216 0 
L 469 0 
z
M 1075 2656 
L 2066 2656 
Q 2469 2656 2644 2709 
Q 2875 2778 2992 2937 
Q 3109 3097 3109 3338 
Q 3109 3566 3000 3739 
Q 2891 3913 2687 3977 
Q 2484 4041 1991 4041 
L 1075 4041 
L 1075 2656 
z
M 1075 541 
L 2216 541 
Q 2509 541 2628 563 
Q 2838 600 2978 687 
Q 3119 775 3209 942 
Q 3300 1109 3300 1328 
Q 3300 1584 3169 1773 
Q 3038 1963 2805 2039 
Q 2572 2116 2134 2116 
L 1075 2116 
L 1075 541 
z
" transform="scale(0.015625)"/>
       <path id="ArialMT-44" d="M 494 0 
L 494 4581 
L 2072 4581 
Q 2606 4581 2888 4516 
Q 3281 4425 3559 4188 
Q 3922 3881 4101 3404 
Q 4281 2928 4281 2316 
Q 4281 1794 4159 1391 
Q 4038 988 3847 723 
Q 3656 459 3429 307 
Q 3203 156 2883 78 
Q 2563 0 2147 0 
L 494 0 
z
M 1100 541 
L 2078 541 
Q 2531 541 2789 625 
Q 3047 709 3200 863 
Q 3416 1078 3536 1442 
Q 3656 1806 3656 2325 
Q 3656 3044 3420 3430 
Q 3184 3816 2847 3947 
Q 2603 4041 2063 4041 
L 1100 4041 
L 1100 541 
z
" transform="scale(0.015625)"/>
       <path id="ArialMT-4e" d="M 488 0 
L 488 4581 
L 1109 4581 
L 3516 984 
L 3516 4581 
L 4097 4581 
L 4097 0 
L 3475 0 
L 1069 3600 
L 1069 0 
L 488 0 
z
" transform="scale(0.015625)"/>
       <path id="ArialMT-41" d="M -9 0 
L 1750 4581 
L 2403 4581 
L 4278 0 
L 3588 0 
L 3053 1388 
L 1138 1388 
L 634 0 
L -9 0 
z
M 1313 1881 
L 2866 1881 
L 2388 3150 
Q 2169 3728 2063 4100 
Q 1975 3659 1816 3225 
L 1313 1881 
z
" transform="scale(0.015625)"/>
       <path id="ArialMT-20" transform="scale(0.015625)"/>
       <path id="ArialMT-77" d="M 1034 0 
L 19 3319 
L 600 3319 
L 1128 1403 
L 1325 691 
Q 1338 744 1497 1375 
L 2025 3319 
L 2603 3319 
L 3100 1394 
L 3266 759 
L 3456 1400 
L 4025 3319 
L 4572 3319 
L 3534 0 
L 2950 0 
L 2422 1988 
L 2294 2553 
L 1622 0 
L 1034 0 
z
" transform="scale(0.015625)"/>
      </defs>
      <use xlink:href="#ArialMT-42"/>
      <use xlink:href="#ArialMT-2d" x="66.699219"/>
      <use xlink:href="#ArialMT-44" x="100"/>
      <use xlink:href="#ArialMT-4e" x="172.216797"/>
      <use xlink:href="#ArialMT-41" x="244.433594"/>
      <use xlink:href="#ArialMT-20" x="305.632812"/>
      <use xlink:href="#ArialMT-74" x="333.416016"/>
      <use xlink:href="#ArialMT-77" x="361.199219"/>
      <use xlink:href="#ArialMT-69" x="433.416016"/>
      <use xlink:href="#ArialMT-73" x="455.632812"/>
      <use xlink:href="#ArialMT-74" x="505.632812"/>
     </g>
    </g>
   </g>
   <g id="line2d_32">
    <path d="M 68.01169 112.671209 
L 69.641482 121.697265 
L 71.271274 130.092276 
L 72.901066 118.613417 
L 74.530858 125.43487 
L 76.16065 125.608448 
L 77.790442 126.456871 
L 79.420234 122.841744 
L 81.050025 117.63116 
L 82.679817 126.264637 
L 84.309609 121.273865 
L 85.939401 118.226516 
L 87.569193 122.485666 
L 89.198985 117.912616 
L 90.828777 124.544269 
L 92.458569 120.78882 
L 94.088361 120.55603 
L 95.718153 121.353354 
L 97.347944 125.810415 
L 98.977736 123.647179 
L 100.607528 119.761952 
L 102.23732 116.850059 
L 103.867112 126.748871 
L 105.496904 120.287552 
L 107.126696 125.700914 
L 108.756488 122.930155 
L 110.38628 123.022622 
L 112.016072 123.385189 
L 113.645863 116.560492 
L 115.275655 124.752724 
L 116.905447 124.118435 
L 118.535239 122.121477 
L 120.165031 122.823089 
L 121.794823 119.148751 
L 123.424615 128.683374 
L 125.054407 122.480799 
L 126.684199 127.801695 
L 128.31399 122.215566 
L 129.943782 124.347979 
L 131.573574 123.329223 
L 133.203366 126.06267 
L 134.833158 128.574685 
L 136.46295 123.481712 
L 138.092742 126.56556 
L 139.722534 122.37211 
L 141.352326 122.431322 
L 142.982118 123.966757 
L 144.611909 125.166392 
L 146.241701 122.084166 
L 147.871493 123.580667 
L 149.501285 128.062873 
L 151.131077 127.832517 
L 152.760869 128.508985 
L 154.390661 126.593949 
L 156.020453 125.488403 
L 157.650245 123.913223 
L 159.280036 124.853302 
L 160.909828 129.436897 
L 162.53962 128.211307 
L 164.169412 126.62396 
L 165.799204 123.902679 
L 167.428996 126.948405 
L 169.058788 121.571543 
L 170.68858 129.165985 
L 172.318372 123.396545 
L 173.948164 123.488201 
L 175.577955 128.599018 
L 177.207747 127.79115 
L 178.837539 128.336218 
L 180.467331 124.74218 
L 182.097123 124.593746 
L 183.726915 120.593341 
L 186.986499 131.285421 
L 188.616291 125.75607 
L 190.246082 123.267578 
L 191.875874 126.027793 
L 193.505666 127.519428 
L 195.135458 124.884125 
L 196.76525 124.747047 
L 198.395042 123.60419 
L 200.024834 131.503611 
L 201.654626 121.442576 
L 203.284418 125.521659 
L 204.91421 129.188697 
L 206.544001 120.091263 
L 208.173793 126.945972 
L 209.803585 128.508174 
L 211.433377 120.886964 
L 213.063169 132.833023 
L 214.692961 126.747249 
L 216.322753 127.067638 
L 217.952545 124.920625 
L 219.582337 125.363492 
L 221.212128 127.402628 
L 222.84192 126.241115 
L 224.471712 130.178253 
L 226.101504 124.339868 
L 227.731296 127.971217 
L 229.361088 127.983384 
L 230.99088 128.908863 
L 232.620672 126.982472 
L 234.250464 128.528451 
L 235.880256 122.639777 
L 237.510047 133.802302 
L 239.139839 130.119042 
L 240.769631 127.39695 
L 242.399423 134.696959 
L 244.029215 122.27721 
L 245.659007 130.276398 
L 247.288799 129.90572 
L 248.918591 126.20056 
L 250.548383 126.87216 
L 252.178174 128.052329 
L 253.807966 127.924984 
L 255.437758 131.6488 
L 257.06755 131.920522 
L 258.697342 127.555928 
L 260.327134 127.032761 
L 261.956926 130.81741 
L 263.586718 124.86628 
L 265.21651 128.499251 
L 266.846302 130.280454 
L 268.476093 130.714399 
L 270.105885 126.158382 
L 271.735677 122.486477 
L 273.365469 126.323849 
L 274.995261 130.931777 
L 276.625053 124.976591 
L 278.254845 127.804128 
L 279.884637 125.245881 
L 281.514429 122.387521 
L 283.14422 134.225703 
L 284.774012 122.939889 
L 286.403804 122.905822 
L 288.033596 129.671308 
L 289.663388 128.565762 
L 291.29318 131.476033 
L 292.922972 123.651234 
L 294.552764 127.824406 
L 296.182556 125.313203 
L 297.812348 126.177037 
L 299.442139 129.906531 
L 301.071931 125.841237 
L 302.701723 133.268591 
L 304.331515 129.741875 
L 305.961307 124.221446 
L 307.591099 122.150677 
L 309.220891 129.324152 
L 310.850683 127.758706 
L 312.480475 124.349602 
L 314.110266 128.511418 
L 315.740058 130.432131 
L 317.36985 128.383262 
L 318.999642 132.255512 
L 320.629434 127.585128 
L 322.259226 129.902475 
L 323.889018 135.664616 
L 325.51881 138.823086 
L 327.148602 129.18383 
L 328.778394 131.474411 
L 330.408185 138.546497 
L 332.037977 133.611691 
L 333.667769 145.009438 
L 335.297561 129.304686 
L 336.927353 136.132627 
L 338.557145 138.212319 
L 340.186937 143.74897 
L 341.816729 136.291605 
L 343.446521 135.691382 
L 345.076312 130.909065 
L 346.706104 129.653464 
L 348.335896 135.082237 
L 349.965688 138.659242 
L 351.59548 134.579348 
L 353.225272 139.137798 
L 354.855064 140.665933 
L 356.484856 132.504523 
L 358.114648 137.462851 
L 359.74444 140.9336 
L 361.374231 140.015421 
L 363.004023 130.286131 
L 364.633815 138.741164 
L 366.263607 133.000112 
L 367.893399 149.867189 
L 369.523191 143.694626 
L 371.152983 122.784155 
L 372.782775 133.179368 
L 374.412567 149.434055 
L 376.042358 139.348687 
L 377.67215 147.826431 
L 379.301942 133.088524 
L 380.931734 125.949926 
L 382.561526 139.439532 
L 384.191318 129.974664 
L 385.82111 103.696254 
L 387.450902 194.081722 
L 389.080694 143.494281 
L 390.710486 35.795625 
L 392.340277 54.886771 
L 393.970069 312.995625 
L 395.599861 103.542954 
L 397.229653 113.53991 
L 398.859445 135.482927 
L 400.489237 120.767731 
L 402.119029 141.024445 
L 403.748821 135.818727 
L 405.378613 134.618281 
L 407.008404 135.00437 
L 408.638196 136.831806 
L 410.267988 133.657924 
L 411.89778 142.517702 
L 413.527572 115.497935 
L 415.157364 124.94658 
L 416.787156 139.964321 
L 418.416948 135.706794 
L 420.04674 141.545179 
L 421.676532 136.264028 
L 423.306323 125.698481 
L 424.936115 132.646468 
L 426.565907 135.025459 
L 428.195699 132.325267 
L 429.825491 139.888077 
L 431.455283 135.527538 
L 433.085075 114.887979 
L 434.714867 130.86121 
L 436.344659 145.736195 
L 439.604242 131.833733 
L 441.234034 133.228846 
L 442.863826 131.723422 
L 444.493618 136.349194 
L 447.753202 130.107687 
L 449.382994 124.927114 
L 451.012786 133.631969 
L 452.642578 128.786385 
L 454.272369 125.95317 
L 455.902161 131.687733 
L 457.531953 128.479785 
L 459.161745 130.331554 
L 460.791537 127.788717 
L 462.421329 137.178962 
L 464.051121 126.430104 
L 465.680913 138.771986 
L 467.310705 136.734473 
L 468.940496 131.815889 
L 470.570288 131.638255 
L 472.20008 138.213941 
L 473.829872 130.377787 
L 473.829872 130.377787 
" clip-path="url(#pc9e2308a24)" style="fill: none; stroke: #0272a2; stroke-width: 1.75; stroke-linecap: round"/>
   </g>
   <g id="line2d_33">
    <path d="M 68.01169 89.353748 
L 69.641482 93.106522 
L 71.271274 89.794312 
L 72.901066 88.725359 
L 74.530858 90.6499 
L 76.16065 93.511969 
L 77.790442 86.645451 
L 79.420234 90.698852 
L 81.050025 88.295437 
L 82.679817 91.050558 
L 84.309609 92.39034 
L 85.939401 91.215503 
L 87.569193 91.095253 
L 89.198985 92.352562 
L 90.828777 92.463235 
L 92.458569 86.528925 
L 94.088361 92.195066 
L 95.718153 86.717282 
L 97.347944 86.794434 
L 98.977736 96.163865 
L 100.607528 86.460819 
L 102.23732 91.875817 
L 103.867112 99.32124 
L 105.496904 87.821352 
L 107.126696 89.088771 
L 108.756488 97.537169 
L 110.38628 88.103888 
L 112.016072 93.839731 
L 113.645863 93.289559 
L 115.275655 90.154532 
L 116.905447 91.6135 
L 118.535239 91.951905 
L 120.165031 94.946462 
L 121.794823 93.359261 
L 123.424615 93.107587 
L 125.054407 87.622886 
L 126.684199 88.646611 
L 128.31399 94.225491 
L 129.943782 90.932435 
L 131.573574 97.014664 
L 133.203366 87.463261 
L 134.833158 87.241383 
L 136.46295 93.906242 
L 138.092742 92.161013 
L 139.722534 96.671472 
L 141.352326 94.263801 
L 142.982118 91.50868 
L 144.611909 93.096413 
L 146.241701 90.674376 
L 147.871493 90.536567 
L 149.501285 90.860072 
L 151.131077 94.850687 
L 152.760869 90.006613 
L 154.390661 93.314034 
L 156.020453 90.918601 
L 157.650245 93.643925 
L 159.280036 94.719263 
L 160.909828 87.655343 
L 162.53962 94.103644 
L 164.169412 93.19272 
L 165.799204 90.818038 
L 167.428996 92.825051 
L 169.058788 91.966803 
L 170.68858 87.809114 
L 173.948164 96.662958 
L 175.577955 93.594974 
L 177.207747 87.827205 
L 178.837539 94.065866 
L 180.467331 92.264237 
L 182.097123 87.628206 
L 183.726915 91.731623 
L 185.356707 93.094285 
L 186.986499 87.141884 
L 188.616291 86.644919 
L 190.246082 88.76633 
L 191.875874 93.598166 
L 193.505666 86.105388 
L 195.135458 87.410585 
L 196.76525 88.976502 
L 198.395042 94.901235 
L 200.024834 87.080694 
L 201.654626 96.182488 
L 203.284418 88.509334 
L 204.91421 86.73218 
L 206.544001 89.524547 
L 208.173793 95.643489 
L 209.803585 88.965861 
L 211.433377 93.152814 
L 213.063169 93.461953 
L 214.692961 88.568927 
L 216.322753 93.287962 
L 217.952545 93.02671 
L 219.582337 87.761759 
L 221.212128 93.590717 
L 222.84192 94.982643 
L 224.471712 92.783549 
L 226.101504 88.282667 
L 227.731296 96.264429 
L 229.361088 91.81782 
L 230.99088 90.237536 
L 232.620672 90.985112 
L 234.250464 89.439946 
L 235.880256 90.890933 
L 237.510047 89.785799 
L 239.139839 90.515283 
L 240.769631 91.391622 
L 242.399423 96.783209 
L 244.029215 91.959354 
L 245.659007 90.456222 
L 247.288799 93.380545 
L 248.918591 90.914345 
L 250.548383 91.917319 
L 252.178174 86.253839 
L 253.807966 94.965085 
L 255.437758 91.340542 
L 257.06755 91.02821 
L 258.697342 96.137261 
L 260.327134 96.473005 
L 261.956926 88.939789 
L 263.586718 90.538695 
L 265.21651 93.10599 
L 266.846302 92.404174 
L 268.476093 89.918819 
L 270.105885 96.060642 
L 271.735677 90.313624 
L 273.365469 93.819512 
L 274.995261 88.979163 
L 276.625053 92.76599 
L 278.254845 88.726956 
L 279.884637 89.862951 
L 281.514429 91.514533 
L 283.14422 92.92189 
L 284.774012 90.502513 
L 286.403804 93.260294 
L 288.033596 97.103522 
L 289.663388 92.659041 
L 291.29318 93.031499 
L 292.922972 84.487859 
L 294.552764 95.629123 
L 296.182556 88.916909 
L 297.812348 91.01278 
L 299.442139 90.613186 
L 301.071931 93.971156 
L 302.701723 94.413316 
L 304.331515 91.964675 
L 305.961307 85.141787 
L 307.591099 90.37641 
L 309.220891 92.639354 
L 310.850683 94.017447 
L 312.480475 90.596692 
L 314.110266 92.297758 
L 315.740058 92.367993 
L 317.36985 88.949366 
L 318.999642 90.185924 
L 320.629434 84.752303 
L 322.259226 87.264794 
L 323.889018 90.878695 
L 325.51881 87.988426 
L 327.148602 85.853713 
L 328.778394 87.10783 
L 330.408185 91.062263 
L 332.037977 91.271904 
L 333.667769 96.253255 
L 336.927353 91.955097 
L 338.557145 96.341581 
L 340.186937 95.015633 
L 341.816729 88.927551 
L 343.446521 92.830904 
L 345.076312 91.621482 
L 346.706104 86.665138 
L 348.335896 95.224741 
L 349.965688 89.259038 
L 351.59548 88.910524 
L 353.225272 87.224356 
L 354.855064 87.255217 
L 356.484856 93.408745 
L 358.114648 89.674594 
L 359.74444 92.394597 
L 361.374231 95.985618 
L 363.004023 88.624796 
L 364.633815 84.209048 
L 366.263607 92.605301 
L 367.893399 91.16868 
L 369.523191 89.42824 
L 371.152983 91.098445 
L 372.782775 94.303707 
L 374.412567 95.414694 
L 376.042358 93.108119 
L 377.67215 89.586268 
L 379.301942 93.505052 
L 380.931734 91.844956 
L 382.561526 92.142922 
L 384.191318 88.282135 
L 385.82111 91.473031 
L 387.450902 90.565299 
L 389.080694 94.40161 
L 390.710486 89.540509 
L 392.340277 95.923364 
L 393.970069 85.037499 
L 395.599861 91.405988 
L 397.229653 93.735975 
L 398.859445 94.160045 
L 400.489237 88.576377 
L 402.119029 92.603705 
L 403.748821 89.607551 
L 405.378613 88.255531 
L 407.008404 90.356191 
L 408.638196 91.169744 
L 410.267988 95.652003 
L 411.89778 94.742142 
L 413.527572 90.050244 
L 415.157364 97.181738 
L 416.787156 91.052154 
L 418.416948 93.853033 
L 420.04674 93.506648 
L 421.676532 91.847084 
L 423.306323 91.185174 
L 424.936115 93.54815 
L 426.565907 92.38768 
L 428.195699 91.544862 
L 429.825491 92.530278 
L 431.455283 89.23403 
L 433.085075 90.355659 
L 434.714867 94.637854 
L 436.344659 90.530714 
L 437.97445 91.811435 
L 439.604242 91.586364 
L 441.234034 92.61275 
L 442.863826 90.055032 
L 444.493618 88.903607 
L 446.12341 93.814724 
L 447.753202 93.194848 
L 449.382994 93.196976 
L 451.012786 90.292873 
L 452.642578 89.399507 
L 454.272369 98.357639 
L 455.902161 91.357037 
L 457.531953 93.585396 
L 459.161745 95.272628 
L 460.791537 91.17134 
L 462.421329 92.3366 
L 464.051121 86.938628 
L 465.680913 86.907767 
L 467.310705 82.125947 
L 468.940496 95.068841 
L 470.570288 92.236036 
L 472.20008 89.092496 
L 473.829872 92.662234 
L 473.829872 92.662234 
" clip-path="url(#pc9e2308a24)" style="fill: none; stroke-dasharray: 1.75,2.8875; stroke-dashoffset: 0; stroke: #9fc377; stroke-width: 1.75"/>
   </g>
   <g id="patch_3">
    <path d="M 47.720781 326.855625 
L 47.720781 21.935625 
" style="fill: none; stroke: #cccccc; stroke-width: 1.25; stroke-linejoin: miter; stroke-linecap: square"/>
   </g>
   <g id="patch_4">
    <path d="M 494.120781 326.855625 
L 494.120781 21.935625 
" style="fill: none; stroke: #cccccc; stroke-width: 1.25; stroke-linejoin: miter; stroke-linecap: square"/>
   </g>
   <g id="patch_5">
    <path d="M 47.720781 326.855625 
L 494.120781 326.855625 
" style="fill: none; stroke: #cccccc; stroke-width: 1.25; stroke-linejoin: miter; stroke-linecap: square"/>
   </g>
   <g id="patch_6">
    <path d="M 47.720781 21.935625 
L 494.120781 21.935625 
" style="fill: none; stroke: #cccccc; stroke-width: 1.25; stroke-linejoin: miter; stroke-linecap: square"/>
   </g>
   <g id="text_34">
    <!-- "B-DNA twist" for dataset Mouse_non_tata -->
    <g style="fill: #262626" transform="translate(158.276406 15.935625) scale(0.12 -0.12)">
     <defs>
      <path id="ArialMT-22" d="M 450 2959 
L 294 3831 
L 294 4581 
L 934 4581 
L 934 3831 
L 794 2959 
L 450 2959 
z
M 1484 2959 
L 1331 3831 
L 1331 4581 
L 1972 4581 
L 1972 3831 
L 1822 2959 
L 1484 2959 
z
" transform="scale(0.015625)"/>
      <path id="ArialMT-66" d="M 556 0 
L 556 2881 
L 59 2881 
L 59 3319 
L 556 3319 
L 556 3672 
Q 556 4006 616 4169 
Q 697 4388 901 4523 
Q 1106 4659 1475 4659 
Q 1713 4659 2000 4603 
L 1916 4113 
Q 1741 4144 1584 4144 
Q 1328 4144 1222 4034 
Q 1116 3925 1116 3625 
L 1116 3319 
L 1763 3319 
L 1763 2881 
L 1116 2881 
L 1116 0 
L 556 0 
z
" transform="scale(0.015625)"/>
      <path id="ArialMT-72" d="M 416 0 
L 416 3319 
L 922 3319 
L 922 2816 
Q 1116 3169 1280 3281 
Q 1444 3394 1641 3394 
Q 1925 3394 2219 3213 
L 2025 2691 
Q 1819 2813 1613 2813 
Q 1428 2813 1281 2702 
Q 1134 2591 1072 2394 
Q 978 2094 978 1738 
L 978 0 
L 416 0 
z
" transform="scale(0.015625)"/>
      <path id="ArialMT-64" d="M 2575 0 
L 2575 419 
Q 2259 -75 1647 -75 
Q 1250 -75 917 144 
Q 584 363 401 755 
Q 219 1147 219 1656 
Q 219 2153 384 2558 
Q 550 2963 881 3178 
Q 1213 3394 1622 3394 
Q 1922 3394 2156 3267 
Q 2391 3141 2538 2938 
L 2538 4581 
L 3097 4581 
L 3097 0 
L 2575 0 
z
M 797 1656 
Q 797 1019 1065 703 
Q 1334 388 1700 388 
Q 2069 388 2326 689 
Q 2584 991 2584 1609 
Q 2584 2291 2321 2609 
Q 2059 2928 1675 2928 
Q 1300 2928 1048 2622 
Q 797 2316 797 1656 
z
" transform="scale(0.015625)"/>
      <path id="ArialMT-61" d="M 2588 409 
Q 2275 144 1986 34 
Q 1697 -75 1366 -75 
Q 819 -75 525 192 
Q 231 459 231 875 
Q 231 1119 342 1320 
Q 453 1522 633 1644 
Q 813 1766 1038 1828 
Q 1203 1872 1538 1913 
Q 2219 1994 2541 2106 
Q 2544 2222 2544 2253 
Q 2544 2597 2384 2738 
Q 2169 2928 1744 2928 
Q 1347 2928 1158 2789 
Q 969 2650 878 2297 
L 328 2372 
Q 403 2725 575 2942 
Q 747 3159 1072 3276 
Q 1397 3394 1825 3394 
Q 2250 3394 2515 3294 
Q 2781 3194 2906 3042 
Q 3031 2891 3081 2659 
Q 3109 2516 3109 2141 
L 3109 1391 
Q 3109 606 3145 398 
Q 3181 191 3288 0 
L 2700 0 
Q 2613 175 2588 409 
z
M 2541 1666 
Q 2234 1541 1622 1453 
Q 1275 1403 1131 1340 
Q 988 1278 909 1158 
Q 831 1038 831 891 
Q 831 666 1001 516 
Q 1172 366 1500 366 
Q 1825 366 2078 508 
Q 2331 650 2450 897 
Q 2541 1088 2541 1459 
L 2541 1666 
z
" transform="scale(0.015625)"/>
      <path id="ArialMT-65" d="M 2694 1069 
L 3275 997 
Q 3138 488 2766 206 
Q 2394 -75 1816 -75 
Q 1088 -75 661 373 
Q 234 822 234 1631 
Q 234 2469 665 2931 
Q 1097 3394 1784 3394 
Q 2450 3394 2872 2941 
Q 3294 2488 3294 1666 
Q 3294 1616 3291 1516 
L 816 1516 
Q 847 969 1125 678 
Q 1403 388 1819 388 
Q 2128 388 2347 550 
Q 2566 713 2694 1069 
z
M 847 1978 
L 2700 1978 
Q 2663 2397 2488 2606 
Q 2219 2931 1791 2931 
Q 1403 2931 1139 2672 
Q 875 2413 847 1978 
z
" transform="scale(0.015625)"/>
      <path id="ArialMT-4d" d="M 475 0 
L 475 4581 
L 1388 4581 
L 2472 1338 
Q 2622 884 2691 659 
Q 2769 909 2934 1394 
L 4031 4581 
L 4847 4581 
L 4847 0 
L 4263 0 
L 4263 3834 
L 2931 0 
L 2384 0 
L 1059 3900 
L 1059 0 
L 475 0 
z
" transform="scale(0.015625)"/>
      <path id="ArialMT-75" d="M 2597 0 
L 2597 488 
Q 2209 -75 1544 -75 
Q 1250 -75 995 37 
Q 741 150 617 320 
Q 494 491 444 738 
Q 409 903 409 1263 
L 409 3319 
L 972 3319 
L 972 1478 
Q 972 1038 1006 884 
Q 1059 663 1231 536 
Q 1403 409 1656 409 
Q 1909 409 2131 539 
Q 2353 669 2445 892 
Q 2538 1116 2538 1541 
L 2538 3319 
L 3100 3319 
L 3100 0 
L 2597 0 
z
" transform="scale(0.015625)"/>
      <path id="ArialMT-5f" d="M -97 -1272 
L -97 -866 
L 3631 -866 
L 3631 -1272 
L -97 -1272 
z
" transform="scale(0.015625)"/>
     </defs>
     <use xlink:href="#ArialMT-22"/>
     <use xlink:href="#ArialMT-42" x="35.498047"/>
     <use xlink:href="#ArialMT-2d" x="102.197266"/>
     <use xlink:href="#ArialMT-44" x="135.498047"/>
     <use xlink:href="#ArialMT-4e" x="207.714844"/>
     <use xlink:href="#ArialMT-41" x="279.931641"/>
     <use xlink:href="#ArialMT-20" x="341.130859"/>
     <use xlink:href="#ArialMT-74" x="368.914062"/>
     <use xlink:href="#ArialMT-77" x="396.697266"/>
     <use xlink:href="#ArialMT-69" x="468.914062"/>
     <use xlink:href="#ArialMT-73" x="491.130859"/>
     <use xlink:href="#ArialMT-74" x="541.130859"/>
     <use xlink:href="#ArialMT-22" x="568.914062"/>
     <use xlink:href="#ArialMT-20" x="604.412109"/>
     <use xlink:href="#ArialMT-66" x="632.195312"/>
     <use xlink:href="#ArialMT-6f" x="659.978516"/>
     <use xlink:href="#ArialMT-72" x="715.59375"/>
     <use xlink:href="#ArialMT-20" x="748.894531"/>
     <use xlink:href="#ArialMT-64" x="776.677734"/>
     <use xlink:href="#ArialMT-61" x="832.292969"/>
     <use xlink:href="#ArialMT-74" x="887.908203"/>
     <use xlink:href="#ArialMT-61" x="915.691406"/>
     <use xlink:href="#ArialMT-73" x="971.306641"/>
     <use xlink:href="#ArialMT-65" x="1021.306641"/>
     <use xlink:href="#ArialMT-74" x="1076.921875"/>
     <use xlink:href="#ArialMT-20" x="1104.705078"/>
     <use xlink:href="#ArialMT-4d" x="1132.488281"/>
     <use xlink:href="#ArialMT-6f" x="1215.789062"/>
     <use xlink:href="#ArialMT-75" x="1271.404297"/>
     <use xlink:href="#ArialMT-73" x="1327.019531"/>
     <use xlink:href="#ArialMT-65" x="1377.019531"/>
     <use xlink:href="#ArialMT-5f" x="1432.634766"/>
     <use xlink:href="#ArialMT-6e" x="1488.25"/>
     <use xlink:href="#ArialMT-6f" x="1543.865234"/>
     <use xlink:href="#ArialMT-6e" x="1599.480469"/>
     <use xlink:href="#ArialMT-5f" x="1655.095703"/>
     <use xlink:href="#ArialMT-74" x="1710.710938"/>
     <use xlink:href="#ArialMT-61" x="1738.494141"/>
     <use xlink:href="#ArialMT-74" x="1794.109375"/>
     <use xlink:href="#ArialMT-61" x="1821.892578"/>
    </g>
   </g>
   <g id="legend_1">
    <g id="line2d_34">
     <path d="M 56.720781 34.593437 
L 66.720781 34.593437 
L 76.720781 34.593437 
" style="fill: none; stroke: #0272a2; stroke-width: 1.75; stroke-linecap: round"/>
    </g>
    <g id="text_35">
     <!-- Promoter -->
     <g style="fill: #262626" transform="translate(84.720781 38.093437) scale(0.1 -0.1)">
      <defs>
       <path id="ArialMT-6d" d="M 422 0 
L 422 3319 
L 925 3319 
L 925 2853 
Q 1081 3097 1340 3245 
Q 1600 3394 1931 3394 
Q 2300 3394 2536 3241 
Q 2772 3088 2869 2813 
Q 3263 3394 3894 3394 
Q 4388 3394 4653 3120 
Q 4919 2847 4919 2278 
L 4919 0 
L 4359 0 
L 4359 2091 
Q 4359 2428 4304 2576 
Q 4250 2725 4106 2815 
Q 3963 2906 3769 2906 
Q 3419 2906 3187 2673 
Q 2956 2441 2956 1928 
L 2956 0 
L 2394 0 
L 2394 2156 
Q 2394 2531 2256 2718 
Q 2119 2906 1806 2906 
Q 1569 2906 1367 2781 
Q 1166 2656 1075 2415 
Q 984 2175 984 1722 
L 984 0 
L 422 0 
z
" transform="scale(0.015625)"/>
      </defs>
      <use xlink:href="#ArialMT-50"/>
      <use xlink:href="#ArialMT-72" x="66.699219"/>
      <use xlink:href="#ArialMT-6f" x="100"/>
      <use xlink:href="#ArialMT-6d" x="155.615234"/>
      <use xlink:href="#ArialMT-6f" x="238.916016"/>
      <use xlink:href="#ArialMT-74" x="294.53125"/>
      <use xlink:href="#ArialMT-65" x="322.314453"/>
      <use xlink:href="#ArialMT-72" x="377.929688"/>
     </g>
    </g>
    <g id="line2d_35">
     <path d="M 56.720781 48.73875 
L 66.720781 48.73875 
L 76.720781 48.73875 
" style="fill: none; stroke-dasharray: 1.75,2.8875; stroke-dashoffset: 0; stroke: #9fc377; stroke-width: 1.75"/>
    </g>
    <g id="text_36">
     <!-- Non-promoter -->
     <g style="fill: #262626" transform="translate(84.720781 52.23875) scale(0.1 -0.1)">
      <defs>
       <path id="ArialMT-70" d="M 422 -1272 
L 422 3319 
L 934 3319 
L 934 2888 
Q 1116 3141 1344 3267 
Q 1572 3394 1897 3394 
Q 2322 3394 2647 3175 
Q 2972 2956 3137 2557 
Q 3303 2159 3303 1684 
Q 3303 1175 3120 767 
Q 2938 359 2589 142 
Q 2241 -75 1856 -75 
Q 1575 -75 1351 44 
Q 1128 163 984 344 
L 984 -1272 
L 422 -1272 
z
M 931 1641 
Q 931 1000 1190 694 
Q 1450 388 1819 388 
Q 2194 388 2461 705 
Q 2728 1022 2728 1688 
Q 2728 2322 2467 2637 
Q 2206 2953 1844 2953 
Q 1484 2953 1207 2617 
Q 931 2281 931 1641 
z
" transform="scale(0.015625)"/>
      </defs>
      <use xlink:href="#ArialMT-4e"/>
      <use xlink:href="#ArialMT-6f" x="72.216797"/>
      <use xlink:href="#ArialMT-6e" x="127.832031"/>
      <use xlink:href="#ArialMT-2d" x="183.447266"/>
      <use xlink:href="#ArialMT-70" x="216.748047"/>
      <use xlink:href="#ArialMT-72" x="272.363281"/>
      <use xlink:href="#ArialMT-6f" x="305.664062"/>
      <use xlink:href="#ArialMT-6d" x="361.279297"/>
      <use xlink:href="#ArialMT-6f" x="444.580078"/>
      <use xlink:href="#ArialMT-74" x="500.195312"/>
      <use xlink:href="#ArialMT-65" x="527.978516"/>
      <use xlink:href="#ArialMT-72" x="583.59375"/>
     </g>
    </g>
   </g>
  </g>
 </g>
 <defs>
  <clipPath id="pc9e2308a24">
   <rect x="47.720781" y="21.935625" width="446.4" height="304.92"/>
  </clipPath>
 </defs>
</svg>
