<?xml version="1.0" encoding="utf-8" standalone="no"?>
<!DOCTYPE svg PUBLIC "-//W3C//DTD SVG 1.1//EN"
  "http://www.w3.org/Graphics/SVG/1.1/DTD/svg11.dtd">
<svg xmlns:xlink="http://www.w3.org/1999/xlink" width="493.244687pt" height="375.733156pt" viewBox="0 0 493.244687 375.733156" xmlns="http://www.w3.org/2000/svg" version="1.1">
 <metadata>
  <rdf:RDF xmlns:dc="http://purl.org/dc/elements/1.1/" xmlns:cc="http://creativecommons.org/ns#" xmlns:rdf="http://www.w3.org/1999/02/22-rdf-syntax-ns#">
   <cc:Work>
    <dc:type rdf:resource="http://purl.org/dc/dcmitype/StillImage"/>
    <dc:date>2023-05-11T16:25:53.329710</dc:date>
    <dc:format>image/svg+xml</dc:format>
    <dc:creator>
     <cc:Agent>
      <dc:title>Matplotlib v3.7.1, https://matplotlib.org/</dc:title>
     </cc:Agent>
    </dc:creator>
   </cc:Work>
  </rdf:RDF>
 </metadata>
 <defs>
  <style type="text/css">*{stroke-linejoin: round; stroke-linecap: butt}</style>
 </defs>
 <g id="figure_1">
  <g id="patch_1">
   <path d="M 0 375.733156 
L 493.244687 375.733156 
L 493.244687 0 
L 0 0 
z
" style="fill: #ffffff"/>
  </g>
  <g id="axes_1">
   <g id="patch_2">
    <path d="M 39.644687 326.855625 
L 486.044687 326.855625 
L 486.044687 21.935625 
L 39.644687 21.935625 
z
" style="fill: #ffffff"/>
   </g>
   <g id="matplotlib.axis_1">
    <g id="xtick_1">
     <g id="line2d_1"/>
     <g id="text_1">
      <!-- -200 -->
      <g style="fill: #262626" transform="translate(54.688091 353.067937) rotate(-45) scale(0.1 -0.1)">
       <defs>
        <path id="ArialMT-2d" d="M 203 1375 
L 203 1941 
L 1931 1941 
L 1931 1375 
L 203 1375 
z
" transform="scale(0.015625)"/>
        <path id="ArialMT-32" d="M 3222 541 
L 3222 0 
L 194 0 
Q 188 203 259 391 
Q 375 700 629 1000 
Q 884 1300 1366 1694 
Q 2113 2306 2375 2664 
Q 2638 3022 2638 3341 
Q 2638 3675 2398 3904 
Q 2159 4134 1775 4134 
Q 1369 4134 1125 3890 
Q 881 3647 878 3216 
L 300 3275 
Q 359 3922 746 4261 
Q 1134 4600 1788 4600 
Q 2447 4600 2831 4234 
Q 3216 3869 3216 3328 
Q 3216 3053 3103 2787 
Q 2991 2522 2730 2228 
Q 2469 1934 1863 1422 
Q 1356 997 1212 845 
Q 1069 694 975 541 
L 3222 541 
z
" transform="scale(0.015625)"/>
        <path id="ArialMT-30" d="M 266 2259 
Q 266 3072 433 3567 
Q 600 4063 929 4331 
Q 1259 4600 1759 4600 
Q 2128 4600 2406 4451 
Q 2684 4303 2865 4023 
Q 3047 3744 3150 3342 
Q 3253 2941 3253 2259 
Q 3253 1453 3087 958 
Q 2922 463 2592 192 
Q 2263 -78 1759 -78 
Q 1097 -78 719 397 
Q 266 969 266 2259 
z
M 844 2259 
Q 844 1131 1108 757 
Q 1372 384 1759 384 
Q 2147 384 2411 759 
Q 2675 1134 2675 2259 
Q 2675 3391 2411 3762 
Q 2147 4134 1753 4134 
Q 1366 4134 1134 3806 
Q 844 3388 844 2259 
z
" transform="scale(0.015625)"/>
       </defs>
       <use xlink:href="#ArialMT-2d"/>
       <use xlink:href="#ArialMT-32" x="33.300781"/>
       <use xlink:href="#ArialMT-30" x="88.916016"/>
       <use xlink:href="#ArialMT-30" x="144.53125"/>
      </g>
     </g>
    </g>
    <g id="xtick_2">
     <g id="line2d_2"/>
     <g id="text_2">
      <!-- -190 -->
      <g style="fill: #262626" transform="translate(70.98601 353.067937) rotate(-45) scale(0.1 -0.1)">
       <defs>
        <path id="ArialMT-31" d="M 2384 0 
L 1822 0 
L 1822 3584 
Q 1619 3391 1289 3197 
Q 959 3003 697 2906 
L 697 3450 
Q 1169 3672 1522 3987 
Q 1875 4303 2022 4600 
L 2384 4600 
L 2384 0 
z
" transform="scale(0.015625)"/>
        <path id="ArialMT-39" d="M 350 1059 
L 891 1109 
Q 959 728 1153 556 
Q 1347 384 1650 384 
Q 1909 384 2104 503 
Q 2300 622 2425 820 
Q 2550 1019 2634 1356 
Q 2719 1694 2719 2044 
Q 2719 2081 2716 2156 
Q 2547 1888 2255 1720 
Q 1963 1553 1622 1553 
Q 1053 1553 659 1965 
Q 266 2378 266 3053 
Q 266 3750 677 4175 
Q 1088 4600 1706 4600 
Q 2153 4600 2523 4359 
Q 2894 4119 3086 3673 
Q 3278 3228 3278 2384 
Q 3278 1506 3087 986 
Q 2897 466 2520 194 
Q 2144 -78 1638 -78 
Q 1100 -78 759 220 
Q 419 519 350 1059 
z
M 2653 3081 
Q 2653 3566 2395 3850 
Q 2138 4134 1775 4134 
Q 1400 4134 1122 3828 
Q 844 3522 844 3034 
Q 844 2597 1108 2323 
Q 1372 2050 1759 2050 
Q 2150 2050 2401 2323 
Q 2653 2597 2653 3081 
z
" transform="scale(0.015625)"/>
       </defs>
       <use xlink:href="#ArialMT-2d"/>
       <use xlink:href="#ArialMT-31" x="33.300781"/>
       <use xlink:href="#ArialMT-39" x="88.916016"/>
       <use xlink:href="#ArialMT-30" x="144.53125"/>
      </g>
     </g>
    </g>
    <g id="xtick_3">
     <g id="line2d_3"/>
     <g id="text_3">
      <!-- -180 -->
      <g style="fill: #262626" transform="translate(87.283929 353.067937) rotate(-45) scale(0.1 -0.1)">
       <defs>
        <path id="ArialMT-38" d="M 1131 2484 
Q 781 2613 612 2850 
Q 444 3088 444 3419 
Q 444 3919 803 4259 
Q 1163 4600 1759 4600 
Q 2359 4600 2725 4251 
Q 3091 3903 3091 3403 
Q 3091 3084 2923 2848 
Q 2756 2613 2416 2484 
Q 2838 2347 3058 2040 
Q 3278 1734 3278 1309 
Q 3278 722 2862 322 
Q 2447 -78 1769 -78 
Q 1091 -78 675 323 
Q 259 725 259 1325 
Q 259 1772 486 2073 
Q 713 2375 1131 2484 
z
M 1019 3438 
Q 1019 3113 1228 2906 
Q 1438 2700 1772 2700 
Q 2097 2700 2305 2904 
Q 2513 3109 2513 3406 
Q 2513 3716 2298 3927 
Q 2084 4138 1766 4138 
Q 1444 4138 1231 3931 
Q 1019 3725 1019 3438 
z
M 838 1322 
Q 838 1081 952 856 
Q 1066 631 1291 507 
Q 1516 384 1775 384 
Q 2178 384 2440 643 
Q 2703 903 2703 1303 
Q 2703 1709 2433 1975 
Q 2163 2241 1756 2241 
Q 1359 2241 1098 1978 
Q 838 1716 838 1322 
z
" transform="scale(0.015625)"/>
       </defs>
       <use xlink:href="#ArialMT-2d"/>
       <use xlink:href="#ArialMT-31" x="33.300781"/>
       <use xlink:href="#ArialMT-38" x="88.916016"/>
       <use xlink:href="#ArialMT-30" x="144.53125"/>
      </g>
     </g>
    </g>
    <g id="xtick_4">
     <g id="line2d_4"/>
     <g id="text_4">
      <!-- -170 -->
      <g style="fill: #262626" transform="translate(103.581848 353.067937) rotate(-45) scale(0.1 -0.1)">
       <defs>
        <path id="ArialMT-37" d="M 303 3981 
L 303 4522 
L 3269 4522 
L 3269 4084 
Q 2831 3619 2401 2847 
Q 1972 2075 1738 1259 
Q 1569 684 1522 0 
L 944 0 
Q 953 541 1156 1306 
Q 1359 2072 1739 2783 
Q 2119 3494 2547 3981 
L 303 3981 
z
" transform="scale(0.015625)"/>
       </defs>
       <use xlink:href="#ArialMT-2d"/>
       <use xlink:href="#ArialMT-31" x="33.300781"/>
       <use xlink:href="#ArialMT-37" x="88.916016"/>
       <use xlink:href="#ArialMT-30" x="144.53125"/>
      </g>
     </g>
    </g>
    <g id="xtick_5">
     <g id="line2d_5"/>
     <g id="text_5">
      <!-- -160 -->
      <g style="fill: #262626" transform="translate(119.879767 353.067937) rotate(-45) scale(0.1 -0.1)">
       <defs>
        <path id="ArialMT-36" d="M 3184 3459 
L 2625 3416 
Q 2550 3747 2413 3897 
Q 2184 4138 1850 4138 
Q 1581 4138 1378 3988 
Q 1113 3794 959 3422 
Q 806 3050 800 2363 
Q 1003 2672 1297 2822 
Q 1591 2972 1913 2972 
Q 2475 2972 2870 2558 
Q 3266 2144 3266 1488 
Q 3266 1056 3080 686 
Q 2894 316 2569 119 
Q 2244 -78 1831 -78 
Q 1128 -78 684 439 
Q 241 956 241 2144 
Q 241 3472 731 4075 
Q 1159 4600 1884 4600 
Q 2425 4600 2770 4297 
Q 3116 3994 3184 3459 
z
M 888 1484 
Q 888 1194 1011 928 
Q 1134 663 1356 523 
Q 1578 384 1822 384 
Q 2178 384 2434 671 
Q 2691 959 2691 1453 
Q 2691 1928 2437 2201 
Q 2184 2475 1800 2475 
Q 1419 2475 1153 2201 
Q 888 1928 888 1484 
z
" transform="scale(0.015625)"/>
       </defs>
       <use xlink:href="#ArialMT-2d"/>
       <use xlink:href="#ArialMT-31" x="33.300781"/>
       <use xlink:href="#ArialMT-36" x="88.916016"/>
       <use xlink:href="#ArialMT-30" x="144.53125"/>
      </g>
     </g>
    </g>
    <g id="xtick_6">
     <g id="line2d_6"/>
     <g id="text_6">
      <!-- -150 -->
      <g style="fill: #262626" transform="translate(136.177686 353.067937) rotate(-45) scale(0.1 -0.1)">
       <defs>
        <path id="ArialMT-35" d="M 266 1200 
L 856 1250 
Q 922 819 1161 601 
Q 1400 384 1738 384 
Q 2144 384 2425 690 
Q 2706 997 2706 1503 
Q 2706 1984 2436 2262 
Q 2166 2541 1728 2541 
Q 1456 2541 1237 2417 
Q 1019 2294 894 2097 
L 366 2166 
L 809 4519 
L 3088 4519 
L 3088 3981 
L 1259 3981 
L 1013 2750 
Q 1425 3038 1878 3038 
Q 2478 3038 2890 2622 
Q 3303 2206 3303 1553 
Q 3303 931 2941 478 
Q 2500 -78 1738 -78 
Q 1113 -78 717 272 
Q 322 622 266 1200 
z
" transform="scale(0.015625)"/>
       </defs>
       <use xlink:href="#ArialMT-2d"/>
       <use xlink:href="#ArialMT-31" x="33.300781"/>
       <use xlink:href="#ArialMT-35" x="88.916016"/>
       <use xlink:href="#ArialMT-30" x="144.53125"/>
      </g>
     </g>
    </g>
    <g id="xtick_7">
     <g id="line2d_7"/>
     <g id="text_7">
      <!-- -140 -->
      <g style="fill: #262626" transform="translate(152.475605 353.067937) rotate(-45) scale(0.1 -0.1)">
       <defs>
        <path id="ArialMT-34" d="M 2069 0 
L 2069 1097 
L 81 1097 
L 81 1613 
L 2172 4581 
L 2631 4581 
L 2631 1613 
L 3250 1613 
L 3250 1097 
L 2631 1097 
L 2631 0 
L 2069 0 
z
M 2069 1613 
L 2069 3678 
L 634 1613 
L 2069 1613 
z
" transform="scale(0.015625)"/>
       </defs>
       <use xlink:href="#ArialMT-2d"/>
       <use xlink:href="#ArialMT-31" x="33.300781"/>
       <use xlink:href="#ArialMT-34" x="88.916016"/>
       <use xlink:href="#ArialMT-30" x="144.53125"/>
      </g>
     </g>
    </g>
    <g id="xtick_8">
     <g id="line2d_8"/>
     <g id="text_8">
      <!-- -130 -->
      <g style="fill: #262626" transform="translate(168.773524 353.067937) rotate(-45) scale(0.1 -0.1)">
       <defs>
        <path id="ArialMT-33" d="M 269 1209 
L 831 1284 
Q 928 806 1161 595 
Q 1394 384 1728 384 
Q 2125 384 2398 659 
Q 2672 934 2672 1341 
Q 2672 1728 2419 1979 
Q 2166 2231 1775 2231 
Q 1616 2231 1378 2169 
L 1441 2663 
Q 1497 2656 1531 2656 
Q 1891 2656 2178 2843 
Q 2466 3031 2466 3422 
Q 2466 3731 2256 3934 
Q 2047 4138 1716 4138 
Q 1388 4138 1169 3931 
Q 950 3725 888 3313 
L 325 3413 
Q 428 3978 793 4289 
Q 1159 4600 1703 4600 
Q 2078 4600 2393 4439 
Q 2709 4278 2876 4000 
Q 3044 3722 3044 3409 
Q 3044 3113 2884 2869 
Q 2725 2625 2413 2481 
Q 2819 2388 3044 2092 
Q 3269 1797 3269 1353 
Q 3269 753 2831 336 
Q 2394 -81 1725 -81 
Q 1122 -81 723 278 
Q 325 638 269 1209 
z
" transform="scale(0.015625)"/>
       </defs>
       <use xlink:href="#ArialMT-2d"/>
       <use xlink:href="#ArialMT-31" x="33.300781"/>
       <use xlink:href="#ArialMT-33" x="88.916016"/>
       <use xlink:href="#ArialMT-30" x="144.53125"/>
      </g>
     </g>
    </g>
    <g id="xtick_9">
     <g id="line2d_9"/>
     <g id="text_9">
      <!-- -120 -->
      <g style="fill: #262626" transform="translate(185.071442 353.067937) rotate(-45) scale(0.1 -0.1)">
       <use xlink:href="#ArialMT-2d"/>
       <use xlink:href="#ArialMT-31" x="33.300781"/>
       <use xlink:href="#ArialMT-32" x="88.916016"/>
       <use xlink:href="#ArialMT-30" x="144.53125"/>
      </g>
     </g>
    </g>
    <g id="xtick_10">
     <g id="line2d_10"/>
     <g id="text_10">
      <!-- -110 -->
      <g style="fill: #262626" transform="translate(201.630107 352.546446) rotate(-45) scale(0.1 -0.1)">
       <use xlink:href="#ArialMT-2d"/>
       <use xlink:href="#ArialMT-31" x="33.300781"/>
       <use xlink:href="#ArialMT-31" x="81.541016"/>
       <use xlink:href="#ArialMT-30" x="137.15625"/>
      </g>
     </g>
    </g>
    <g id="xtick_11">
     <g id="line2d_11"/>
     <g id="text_11">
      <!-- -100 -->
      <g style="fill: #262626" transform="translate(217.66728 353.067937) rotate(-45) scale(0.1 -0.1)">
       <use xlink:href="#ArialMT-2d"/>
       <use xlink:href="#ArialMT-31" x="33.300781"/>
       <use xlink:href="#ArialMT-30" x="88.916016"/>
       <use xlink:href="#ArialMT-30" x="144.53125"/>
      </g>
     </g>
    </g>
    <g id="xtick_12">
     <g id="line2d_12"/>
     <g id="text_12">
      <!-- -90 -->
      <g style="fill: #262626" transform="translate(235.931288 349.135761) rotate(-45) scale(0.1 -0.1)">
       <use xlink:href="#ArialMT-2d"/>
       <use xlink:href="#ArialMT-39" x="33.300781"/>
       <use xlink:href="#ArialMT-30" x="88.916016"/>
      </g>
     </g>
    </g>
    <g id="xtick_13">
     <g id="line2d_13"/>
     <g id="text_13">
      <!-- -80 -->
      <g style="fill: #262626" transform="translate(252.229207 349.135761) rotate(-45) scale(0.1 -0.1)">
       <use xlink:href="#ArialMT-2d"/>
       <use xlink:href="#ArialMT-38" x="33.300781"/>
       <use xlink:href="#ArialMT-30" x="88.916016"/>
      </g>
     </g>
    </g>
    <g id="xtick_14">
     <g id="line2d_14"/>
     <g id="text_14">
      <!-- -70 -->
      <g style="fill: #262626" transform="translate(268.527126 349.135761) rotate(-45) scale(0.1 -0.1)">
       <use xlink:href="#ArialMT-2d"/>
       <use xlink:href="#ArialMT-37" x="33.300781"/>
       <use xlink:href="#ArialMT-30" x="88.916016"/>
      </g>
     </g>
    </g>
    <g id="xtick_15">
     <g id="line2d_15"/>
     <g id="text_15">
      <!-- -60 -->
      <g style="fill: #262626" transform="translate(284.825044 349.135761) rotate(-45) scale(0.1 -0.1)">
       <use xlink:href="#ArialMT-2d"/>
       <use xlink:href="#ArialMT-36" x="33.300781"/>
       <use xlink:href="#ArialMT-30" x="88.916016"/>
      </g>
     </g>
    </g>
    <g id="xtick_16">
     <g id="line2d_16"/>
     <g id="text_16">
      <!-- -50 -->
      <g style="fill: #262626" transform="translate(301.122963 349.135761) rotate(-45) scale(0.1 -0.1)">
       <use xlink:href="#ArialMT-2d"/>
       <use xlink:href="#ArialMT-35" x="33.300781"/>
       <use xlink:href="#ArialMT-30" x="88.916016"/>
      </g>
     </g>
    </g>
    <g id="xtick_17">
     <g id="line2d_17"/>
     <g id="text_17">
      <!-- -40 -->
      <g style="fill: #262626" transform="translate(317.420882 349.135761) rotate(-45) scale(0.1 -0.1)">
       <use xlink:href="#ArialMT-2d"/>
       <use xlink:href="#ArialMT-34" x="33.300781"/>
       <use xlink:href="#ArialMT-30" x="88.916016"/>
      </g>
     </g>
    </g>
    <g id="xtick_18">
     <g id="line2d_18"/>
     <g id="text_18">
      <!-- -30 -->
      <g style="fill: #262626" transform="translate(333.718801 349.135761) rotate(-45) scale(0.1 -0.1)">
       <use xlink:href="#ArialMT-2d"/>
       <use xlink:href="#ArialMT-33" x="33.300781"/>
       <use xlink:href="#ArialMT-30" x="88.916016"/>
      </g>
     </g>
    </g>
    <g id="xtick_19">
     <g id="line2d_19"/>
     <g id="text_19">
      <!-- -20 -->
      <g style="fill: #262626" transform="translate(350.01672 349.135761) rotate(-45) scale(0.1 -0.1)">
       <use xlink:href="#ArialMT-2d"/>
       <use xlink:href="#ArialMT-32" x="33.300781"/>
       <use xlink:href="#ArialMT-30" x="88.916016"/>
      </g>
     </g>
    </g>
    <g id="xtick_20">
     <g id="line2d_20"/>
     <g id="text_20">
      <!-- -10 -->
      <g style="fill: #262626" transform="translate(366.314639 349.135761) rotate(-45) scale(0.1 -0.1)">
       <use xlink:href="#ArialMT-2d"/>
       <use xlink:href="#ArialMT-31" x="33.300781"/>
       <use xlink:href="#ArialMT-30" x="88.916016"/>
      </g>
     </g>
    </g>
    <g id="xtick_21">
     <g id="line2d_21"/>
     <g id="text_21">
      <!-- 0 -->
      <g style="fill: #262626" transform="translate(385.755869 342.849139) rotate(-45) scale(0.1 -0.1)">
       <use xlink:href="#ArialMT-30"/>
      </g>
     </g>
    </g>
    <g id="xtick_22">
     <g id="line2d_22"/>
     <g id="text_22">
      <!-- 10 -->
      <g style="fill: #262626" transform="translate(400.087699 346.781316) rotate(-45) scale(0.1 -0.1)">
       <use xlink:href="#ArialMT-31"/>
       <use xlink:href="#ArialMT-30" x="55.615234"/>
      </g>
     </g>
    </g>
    <g id="xtick_23">
     <g id="line2d_23"/>
     <g id="text_23">
      <!-- 20 -->
      <g style="fill: #262626" transform="translate(416.385618 346.781316) rotate(-45) scale(0.1 -0.1)">
       <use xlink:href="#ArialMT-32"/>
       <use xlink:href="#ArialMT-30" x="55.615234"/>
      </g>
     </g>
    </g>
    <g id="xtick_24">
     <g id="line2d_24"/>
     <g id="text_24">
      <!-- 30 -->
      <g style="fill: #262626" transform="translate(432.683537 346.781316) rotate(-45) scale(0.1 -0.1)">
       <use xlink:href="#ArialMT-33"/>
       <use xlink:href="#ArialMT-30" x="55.615234"/>
      </g>
     </g>
    </g>
    <g id="xtick_25">
     <g id="line2d_25"/>
     <g id="text_25">
      <!-- 40 -->
      <g style="fill: #262626" transform="translate(448.981456 346.781316) rotate(-45) scale(0.1 -0.1)">
       <use xlink:href="#ArialMT-34"/>
       <use xlink:href="#ArialMT-30" x="55.615234"/>
      </g>
     </g>
    </g>
    <g id="xtick_26">
     <g id="line2d_26"/>
     <g id="text_26">
      <!-- 50 -->
      <g style="fill: #262626" transform="translate(465.279375 346.781316) rotate(-45) scale(0.1 -0.1)">
       <use xlink:href="#ArialMT-35"/>
       <use xlink:href="#ArialMT-30" x="55.615234"/>
      </g>
     </g>
    </g>
    <g id="text_27">
     <!-- Position -->
     <g style="fill: #262626" transform="translate(243.278437 366.346906) scale(0.11 -0.11)">
      <defs>
       <path id="ArialMT-50" d="M 494 0 
L 494 4581 
L 2222 4581 
Q 2678 4581 2919 4538 
Q 3256 4481 3484 4323 
Q 3713 4166 3852 3881 
Q 3991 3597 3991 3256 
Q 3991 2672 3619 2267 
Q 3247 1863 2275 1863 
L 1100 1863 
L 1100 0 
L 494 0 
z
M 1100 2403 
L 2284 2403 
Q 2872 2403 3119 2622 
Q 3366 2841 3366 3238 
Q 3366 3525 3220 3729 
Q 3075 3934 2838 4000 
Q 2684 4041 2272 4041 
L 1100 4041 
L 1100 2403 
z
" transform="scale(0.015625)"/>
       <path id="ArialMT-6f" d="M 213 1659 
Q 213 2581 725 3025 
Q 1153 3394 1769 3394 
Q 2453 3394 2887 2945 
Q 3322 2497 3322 1706 
Q 3322 1066 3130 698 
Q 2938 331 2570 128 
Q 2203 -75 1769 -75 
Q 1072 -75 642 372 
Q 213 819 213 1659 
z
M 791 1659 
Q 791 1022 1069 705 
Q 1347 388 1769 388 
Q 2188 388 2466 706 
Q 2744 1025 2744 1678 
Q 2744 2294 2464 2611 
Q 2184 2928 1769 2928 
Q 1347 2928 1069 2612 
Q 791 2297 791 1659 
z
" transform="scale(0.015625)"/>
       <path id="ArialMT-73" d="M 197 991 
L 753 1078 
Q 800 744 1014 566 
Q 1228 388 1613 388 
Q 2000 388 2187 545 
Q 2375 703 2375 916 
Q 2375 1106 2209 1216 
Q 2094 1291 1634 1406 
Q 1016 1563 777 1677 
Q 538 1791 414 1992 
Q 291 2194 291 2438 
Q 291 2659 392 2848 
Q 494 3038 669 3163 
Q 800 3259 1026 3326 
Q 1253 3394 1513 3394 
Q 1903 3394 2198 3281 
Q 2494 3169 2634 2976 
Q 2775 2784 2828 2463 
L 2278 2388 
Q 2241 2644 2061 2787 
Q 1881 2931 1553 2931 
Q 1166 2931 1000 2803 
Q 834 2675 834 2503 
Q 834 2394 903 2306 
Q 972 2216 1119 2156 
Q 1203 2125 1616 2013 
Q 2213 1853 2448 1751 
Q 2684 1650 2818 1456 
Q 2953 1263 2953 975 
Q 2953 694 2789 445 
Q 2625 197 2315 61 
Q 2006 -75 1616 -75 
Q 969 -75 630 194 
Q 291 463 197 991 
z
" transform="scale(0.015625)"/>
       <path id="ArialMT-69" d="M 425 3934 
L 425 4581 
L 988 4581 
L 988 3934 
L 425 3934 
z
M 425 0 
L 425 3319 
L 988 3319 
L 988 0 
L 425 0 
z
" transform="scale(0.015625)"/>
       <path id="ArialMT-74" d="M 1650 503 
L 1731 6 
Q 1494 -44 1306 -44 
Q 1000 -44 831 53 
Q 663 150 594 308 
Q 525 466 525 972 
L 525 2881 
L 113 2881 
L 113 3319 
L 525 3319 
L 525 4141 
L 1084 4478 
L 1084 3319 
L 1650 3319 
L 1650 2881 
L 1084 2881 
L 1084 941 
Q 1084 700 1114 631 
Q 1144 563 1211 522 
Q 1278 481 1403 481 
Q 1497 481 1650 503 
z
" transform="scale(0.015625)"/>
       <path id="ArialMT-6e" d="M 422 0 
L 422 3319 
L 928 3319 
L 928 2847 
Q 1294 3394 1984 3394 
Q 2284 3394 2536 3286 
Q 2788 3178 2913 3003 
Q 3038 2828 3088 2588 
Q 3119 2431 3119 2041 
L 3119 0 
L 2556 0 
L 2556 2019 
Q 2556 2363 2490 2533 
Q 2425 2703 2258 2804 
Q 2091 2906 1866 2906 
Q 1506 2906 1245 2678 
Q 984 2450 984 1813 
L 984 0 
L 422 0 
z
" transform="scale(0.015625)"/>
      </defs>
      <use xlink:href="#ArialMT-50"/>
      <use xlink:href="#ArialMT-6f" x="66.699219"/>
      <use xlink:href="#ArialMT-73" x="122.314453"/>
      <use xlink:href="#ArialMT-69" x="172.314453"/>
      <use xlink:href="#ArialMT-74" x="194.53125"/>
      <use xlink:href="#ArialMT-69" x="222.314453"/>
      <use xlink:href="#ArialMT-6f" x="244.53125"/>
      <use xlink:href="#ArialMT-6e" x="300.146484"/>
     </g>
    </g>
   </g>
   <g id="matplotlib.axis_2">
    <g id="ytick_1">
     <g id="line2d_27"/>
     <g id="text_28">
      <!-- 65 -->
      <g style="fill: #262626" transform="translate(21.522812 320.323848) scale(0.1 -0.1)">
       <use xlink:href="#ArialMT-36"/>
       <use xlink:href="#ArialMT-35" x="55.615234"/>
      </g>
     </g>
    </g>
    <g id="ytick_2">
     <g id="line2d_28"/>
     <g id="text_29">
      <!-- 70 -->
      <g style="fill: #262626" transform="translate(21.522812 253.607073) scale(0.1 -0.1)">
       <use xlink:href="#ArialMT-37"/>
       <use xlink:href="#ArialMT-30" x="55.615234"/>
      </g>
     </g>
    </g>
    <g id="ytick_3">
     <g id="line2d_29"/>
     <g id="text_30">
      <!-- 75 -->
      <g style="fill: #262626" transform="translate(21.522812 186.890298) scale(0.1 -0.1)">
       <use xlink:href="#ArialMT-37"/>
       <use xlink:href="#ArialMT-35" x="55.615234"/>
      </g>
     </g>
    </g>
    <g id="ytick_4">
     <g id="line2d_30"/>
     <g id="text_31">
      <!-- 80 -->
      <g style="fill: #262626" transform="translate(21.522812 120.173524) scale(0.1 -0.1)">
       <use xlink:href="#ArialMT-38"/>
       <use xlink:href="#ArialMT-30" x="55.615234"/>
      </g>
     </g>
    </g>
    <g id="ytick_5">
     <g id="line2d_31"/>
     <g id="text_32">
      <!-- 85 -->
      <g style="fill: #262626" transform="translate(21.522812 53.456749) scale(0.1 -0.1)">
       <use xlink:href="#ArialMT-38"/>
       <use xlink:href="#ArialMT-35" x="55.615234"/>
      </g>
     </g>
    </g>
    <g id="text_33">
     <!-- Stability -->
     <g style="fill: #262626" transform="translate(15.207656 193.653359) rotate(-90) scale(0.11 -0.11)">
      <defs>
       <path id="ArialMT-53" d="M 288 1472 
L 859 1522 
Q 900 1178 1048 958 
Q 1197 738 1509 602 
Q 1822 466 2213 466 
Q 2559 466 2825 569 
Q 3091 672 3220 851 
Q 3350 1031 3350 1244 
Q 3350 1459 3225 1620 
Q 3100 1781 2813 1891 
Q 2628 1963 1997 2114 
Q 1366 2266 1113 2400 
Q 784 2572 623 2826 
Q 463 3081 463 3397 
Q 463 3744 659 4045 
Q 856 4347 1234 4503 
Q 1613 4659 2075 4659 
Q 2584 4659 2973 4495 
Q 3363 4331 3572 4012 
Q 3781 3694 3797 3291 
L 3216 3247 
Q 3169 3681 2898 3903 
Q 2628 4125 2100 4125 
Q 1550 4125 1298 3923 
Q 1047 3722 1047 3438 
Q 1047 3191 1225 3031 
Q 1400 2872 2139 2705 
Q 2878 2538 3153 2413 
Q 3553 2228 3743 1945 
Q 3934 1663 3934 1294 
Q 3934 928 3725 604 
Q 3516 281 3123 101 
Q 2731 -78 2241 -78 
Q 1619 -78 1198 103 
Q 778 284 539 648 
Q 300 1013 288 1472 
z
" transform="scale(0.015625)"/>
       <path id="ArialMT-61" d="M 2588 409 
Q 2275 144 1986 34 
Q 1697 -75 1366 -75 
Q 819 -75 525 192 
Q 231 459 231 875 
Q 231 1119 342 1320 
Q 453 1522 633 1644 
Q 813 1766 1038 1828 
Q 1203 1872 1538 1913 
Q 2219 1994 2541 2106 
Q 2544 2222 2544 2253 
Q 2544 2597 2384 2738 
Q 2169 2928 1744 2928 
Q 1347 2928 1158 2789 
Q 969 2650 878 2297 
L 328 2372 
Q 403 2725 575 2942 
Q 747 3159 1072 3276 
Q 1397 3394 1825 3394 
Q 2250 3394 2515 3294 
Q 2781 3194 2906 3042 
Q 3031 2891 3081 2659 
Q 3109 2516 3109 2141 
L 3109 1391 
Q 3109 606 3145 398 
Q 3181 191 3288 0 
L 2700 0 
Q 2613 175 2588 409 
z
M 2541 1666 
Q 2234 1541 1622 1453 
Q 1275 1403 1131 1340 
Q 988 1278 909 1158 
Q 831 1038 831 891 
Q 831 666 1001 516 
Q 1172 366 1500 366 
Q 1825 366 2078 508 
Q 2331 650 2450 897 
Q 2541 1088 2541 1459 
L 2541 1666 
z
" transform="scale(0.015625)"/>
       <path id="ArialMT-62" d="M 941 0 
L 419 0 
L 419 4581 
L 981 4581 
L 981 2947 
Q 1338 3394 1891 3394 
Q 2197 3394 2470 3270 
Q 2744 3147 2920 2923 
Q 3097 2700 3197 2384 
Q 3297 2069 3297 1709 
Q 3297 856 2875 390 
Q 2453 -75 1863 -75 
Q 1275 -75 941 416 
L 941 0 
z
M 934 1684 
Q 934 1088 1097 822 
Q 1363 388 1816 388 
Q 2184 388 2453 708 
Q 2722 1028 2722 1663 
Q 2722 2313 2464 2622 
Q 2206 2931 1841 2931 
Q 1472 2931 1203 2611 
Q 934 2291 934 1684 
z
" transform="scale(0.015625)"/>
       <path id="ArialMT-6c" d="M 409 0 
L 409 4581 
L 972 4581 
L 972 0 
L 409 0 
z
" transform="scale(0.015625)"/>
       <path id="ArialMT-79" d="M 397 -1278 
L 334 -750 
Q 519 -800 656 -800 
Q 844 -800 956 -737 
Q 1069 -675 1141 -563 
Q 1194 -478 1313 -144 
Q 1328 -97 1363 -6 
L 103 3319 
L 709 3319 
L 1400 1397 
Q 1534 1031 1641 628 
Q 1738 1016 1872 1384 
L 2581 3319 
L 3144 3319 
L 1881 -56 
Q 1678 -603 1566 -809 
Q 1416 -1088 1222 -1217 
Q 1028 -1347 759 -1347 
Q 597 -1347 397 -1278 
z
" transform="scale(0.015625)"/>
      </defs>
      <use xlink:href="#ArialMT-53"/>
      <use xlink:href="#ArialMT-74" x="66.699219"/>
      <use xlink:href="#ArialMT-61" x="94.482422"/>
      <use xlink:href="#ArialMT-62" x="150.097656"/>
      <use xlink:href="#ArialMT-69" x="205.712891"/>
      <use xlink:href="#ArialMT-6c" x="227.929688"/>
      <use xlink:href="#ArialMT-69" x="250.146484"/>
      <use xlink:href="#ArialMT-74" x="272.363281"/>
      <use xlink:href="#ArialMT-79" x="300.146484"/>
     </g>
    </g>
   </g>
   <g id="line2d_32">
    <path d="M 59.935597 180.014609 
L 61.565388 179.86572 
L 63.19518 177.507315 
L 64.824972 172.213962 
L 66.454764 172.933756 
L 68.084556 178.82132 
L 69.714348 179.565042 
L 71.34414 177.687721 
L 72.973932 171.300635 
L 74.603724 175.819577 
L 76.233516 173.636857 
L 77.863307 171.913169 
L 79.493099 177.189076 
L 81.122891 174.204517 
L 82.752683 175.04338 
L 84.382475 173.456403 
L 86.012267 165.966743 
L 87.642059 174.287103 
L 89.271851 171.029097 
L 90.901643 172.327499 
L 92.531434 169.646053 
L 94.161226 173.948803 
L 95.791018 173.699235 
L 97.42081 166.885487 
L 99.050602 173.951671 
L 100.680394 174.40282 
L 102.310186 169.089529 
L 103.939978 175.916905 
L 105.56977 166.153319 
L 107.199562 169.072484 
L 108.829353 170.768171 
L 110.459145 174.269313 
L 112.088937 167.830732 
L 113.718729 170.285449 
L 115.348521 171.297644 
L 116.978313 166.62856 
L 118.608105 168.899831 
L 120.237897 171.629864 
L 121.867689 168.549116 
L 123.49748 167.546845 
L 125.127272 171.475124 
L 126.757064 168.797152 
L 128.386856 169.946682 
L 130.016648 170.345114 
L 131.64644 169.991548 
L 133.276232 169.504457 
L 134.906024 166.811915 
L 136.535816 170.164078 
L 138.165608 169.932874 
L 139.795399 164.094052 
L 141.425191 169.28339 
L 143.054983 163.544453 
L 144.684775 169.171476 
L 146.314567 170.418366 
L 147.944359 167.035105 
L 149.574151 165.19493 
L 151.203943 166.085656 
L 152.833735 162.708975 
L 154.463526 165.85646 
L 156.093318 166.995525 
L 157.72311 170.359897 
L 159.352902 162.915825 
L 160.982694 162.479254 
L 162.612486 164.698522 
L 165.87207 159.88976 
L 167.501862 163.78236 
L 169.131654 165.816642 
L 170.761445 164.169516 
L 172.391237 162.714523 
L 174.021029 159.431368 
L 175.650821 166.491242 
L 177.280613 157.221728 
L 178.910405 163.882343 
L 180.540197 160.801973 
L 182.169989 161.564903 
L 183.799781 159.146489 
L 185.429572 156.938619 
L 187.059364 161.988517 
L 188.689156 159.539947 
L 190.318948 161.821453 
L 191.94874 162.832428 
L 193.578532 154.986849 
L 195.208324 160.003305 
L 196.838116 161.054433 
L 198.467908 158.258991 
L 200.0977 165.600016 
L 201.727491 156.358184 
L 203.357283 155.182718 
L 204.987075 164.961095 
L 206.616867 158.364358 
L 208.246659 160.19597 
L 209.876451 159.748181 
L 211.506243 154.839124 
L 213.136035 152.269764 
L 214.765827 156.470393 
L 216.395618 157.42648 
L 218.02541 156.022793 
L 219.655202 154.186584 
L 221.284994 154.052298 
L 222.914786 156.70095 
L 224.544578 153.111823 
L 226.17437 161.400199 
L 227.804162 150.111579 
L 229.433954 155.333098 
L 231.063746 150.339489 
L 232.693537 148.265988 
L 234.323329 153.994919 
L 235.953121 154.032918 
L 237.582913 150.641929 
L 239.212705 153.066449 
L 240.842497 153.125147 
L 242.472289 150.7579 
L 244.102081 154.204957 
L 245.731873 149.899551 
L 247.361664 147.742948 
L 248.991456 153.502962 
L 250.621248 145.348453 
L 252.25104 151.011861 
L 253.880832 153.044225 
L 255.510624 147.46655 
L 257.140416 149.096663 
L 258.770208 149.765568 
L 260.4 146.272958 
L 262.029792 144.81154 
L 263.659583 144.149026 
L 265.289375 147.968432 
L 266.919167 146.311874 
L 268.548959 149.333194 
L 270.178751 144.496324 
L 271.808543 145.214372 
L 273.438335 145.336415 
L 275.068127 149.09727 
L 276.697919 141.331844 
L 278.327711 144.983873 
L 279.957502 147.359823 
L 281.587294 143.533632 
L 283.217086 142.994752 
L 284.846878 138.977815 
L 286.47667 147.479498 
L 288.106462 146.169312 
L 289.736254 144.59838 
L 291.366046 148.663953 
L 292.995838 143.32634 
L 294.625629 143.642974 
L 296.255421 142.66023 
L 297.885213 139.067226 
L 299.515005 145.584353 
L 301.144797 146.915689 
L 302.774589 145.066016 
L 304.404381 147.540507 
L 306.034173 145.245102 
L 307.663965 144.081379 
L 309.293757 134.798689 
L 310.923548 133.683872 
L 312.55334 137.134288 
L 314.183132 136.946434 
L 315.812924 141.308628 
L 317.442716 136.935166 
L 319.072508 139.777424 
L 320.7023 139.342092 
L 322.332092 144.579721 
L 323.961884 135.984988 
L 325.591675 151.644471 
L 327.221467 140.115192 
L 328.851259 136.56875 
L 330.481051 136.994184 
L 332.110843 130.492488 
L 333.740635 132.822073 
L 335.370427 144.282271 
L 337.000219 144.839688 
L 338.630011 155.730268 
L 340.259803 171.874212 
L 341.889594 184.660273 
L 343.519386 174.169272 
L 345.149178 159.027969 
L 346.77897 135.183919 
L 348.408762 129.31127 
L 350.038554 131.139391 
L 351.668346 129.404607 
L 353.298138 125.998458 
L 354.92793 127.276685 
L 356.557721 127.638659 
L 359.817305 142.265223 
L 361.447097 136.956751 
L 363.076889 120.471877 
L 364.706681 123.875289 
L 366.336473 140.464276 
L 367.966265 141.086234 
L 369.596057 145.514805 
L 371.225849 140.15569 
L 372.85564 136.52427 
L 374.485432 141.644683 
L 376.115224 132.475726 
L 377.745016 134.168651 
L 379.374808 169.749232 
L 381.0046 105.714666 
L 382.634392 35.795625 
L 384.264184 312.995625 
L 385.893976 118.346651 
L 387.523767 114.448905 
L 389.153559 182.561917 
L 390.783351 146.320331 
L 392.413143 151.023776 
L 394.042935 155.11217 
L 395.672727 130.298472 
L 397.302519 115.685838 
L 398.932311 131.790644 
L 400.562103 136.720179 
L 402.191895 140.476019 
L 403.821686 140.33008 
L 405.451478 101.741774 
L 407.08127 113.4077 
L 408.711062 121.59316 
L 410.340854 122.72798 
L 411.970646 132.061707 
L 413.600438 128.067747 
L 415.23023 124.722927 
L 416.860022 135.275191 
L 418.489813 133.842823 
L 420.119605 135.5071 
L 421.749397 135.343543 
L 423.379189 129.267142 
L 425.008981 113.008334 
L 426.638773 123.295894 
L 428.268565 136.764135 
L 429.898357 112.649654 
L 431.528149 109.511404 
L 433.157941 114.630351 
L 434.787732 114.510455 
L 436.417524 115.565729 
L 438.047316 125.4494 
L 439.677108 126.579254 
L 441.3069 135.261957 
L 442.936692 142.642095 
L 444.566484 137.651961 
L 446.196276 140.339127 
L 447.826068 140.774755 
L 449.455859 134.684808 
L 451.085651 137.399237 
L 452.715443 130.459775 
L 454.345235 128.834906 
L 455.975027 124.165994 
L 457.604819 120.773383 
L 459.234611 124.914445 
L 460.864403 123.372875 
L 462.494195 132.400654 
L 464.123987 136.339308 
L 465.753778 135.74118 
L 465.753778 135.74118 
" clip-path="url(#pa95bc3ca5e)" style="fill: none; stroke: #0272a2; stroke-width: 1.75; stroke-linecap: round"/>
   </g>
   <g id="line2d_33">
    <path d="M 59.935597 214.262922 
L 61.565388 215.581846 
L 63.19518 214.840688 
L 64.824972 219.591991 
L 66.454764 215.431447 
L 68.084556 217.362567 
L 69.714348 218.993115 
L 71.34414 214.907394 
L 72.973932 213.961415 
L 76.233516 215.509759 
L 77.863307 216.534529 
L 79.493099 212.780483 
L 81.122891 216.026469 
L 82.752683 213.842598 
L 84.382475 218.069687 
L 86.012267 218.117938 
L 87.642059 213.498386 
L 89.271851 217.645873 
L 90.901643 217.541129 
L 92.531434 216.585119 
L 94.161226 212.839083 
L 95.791018 221.576927 
L 97.42081 216.06591 
L 99.050602 215.291665 
L 100.680394 214.382035 
L 102.310186 214.237087 
L 103.939978 215.408085 
L 105.56977 213.869062 
L 107.199562 216.39716 
L 108.829353 216.068974 
L 110.459145 215.067351 
L 112.088937 215.382593 
L 113.718729 213.184133 
L 115.348521 215.392807 
L 116.978313 215.871022 
L 118.608105 213.189111 
L 120.237897 215.718424 
L 121.867689 217.080772 
L 123.49748 214.996914 
L 125.127272 215.426845 
L 126.757064 214.764983 
L 128.386856 215.907555 
L 130.016648 212.959722 
L 131.64644 217.32805 
L 133.276232 215.265238 
L 134.906024 214.769655 
L 136.535816 211.846916 
L 138.165608 211.768206 
L 139.795399 214.341842 
L 141.425191 219.760393 
L 143.054983 215.180239 
L 144.684775 215.567181 
L 146.314567 213.094349 
L 147.944359 214.226261 
L 149.574151 214.547126 
L 151.203943 215.681085 
L 152.833735 216.116736 
L 154.463526 218.305531 
L 156.093318 212.124615 
L 157.72311 214.642651 
L 159.352902 214.222401 
L 160.982694 216.702415 
L 162.612486 216.375282 
L 164.242278 215.591662 
L 165.87207 218.393562 
L 167.501862 212.434971 
L 169.131654 214.855288 
L 170.761445 213.305896 
L 172.391237 215.406042 
L 174.021029 213.366732 
L 175.650821 218.378806 
L 177.280613 218.931849 
L 178.910405 214.069572 
L 180.540197 215.513484 
L 182.169989 215.245435 
L 183.799781 217.640524 
L 185.429572 214.142589 
L 188.689156 216.622361 
L 190.318948 213.68979 
L 191.94874 215.919322 
L 193.578532 217.470096 
L 195.208324 217.019221 
L 196.838116 218.418795 
L 198.467908 210.629543 
L 200.0977 215.324849 
L 201.727491 216.861861 
L 203.357283 211.325573 
L 204.987075 214.672652 
L 206.616867 215.911307 
L 208.246659 220.697976 
L 209.876451 218.231423 
L 211.506243 214.999221 
L 213.136035 212.218506 
L 214.765827 217.360369 
L 216.395618 215.681322 
L 218.02541 214.471131 
L 219.655202 214.982438 
L 221.284994 217.006513 
L 222.914786 213.519028 
L 224.544578 214.200458 
L 226.17437 221.176562 
L 227.804162 215.523424 
L 229.433954 213.055957 
L 231.063746 211.23802 
L 232.693537 214.39226 
L 234.323329 217.104747 
L 235.953121 212.199196 
L 237.582913 215.188082 
L 239.212705 215.773299 
L 240.842497 215.374347 
L 242.472289 216.447852 
L 244.102081 211.350026 
L 245.731873 215.903593 
L 247.361664 214.781126 
L 248.991456 218.477422 
L 250.621248 218.488114 
L 252.25104 214.288419 
L 253.880832 214.961919 
L 255.510624 214.678979 
L 257.140416 216.052331 
L 258.770208 215.5057 
L 260.4 213.630809 
L 262.029792 215.281618 
L 263.659583 218.976908 
L 265.289375 215.437038 
L 266.919167 213.425638 
L 268.548959 215.474199 
L 270.178751 216.983801 
L 271.808543 213.60528 
L 273.438335 217.043213 
L 275.068127 215.078796 
L 276.697919 216.714725 
L 278.327711 213.732252 
L 279.957502 218.296436 
L 281.587294 212.442868 
L 283.217086 214.791604 
L 284.846878 218.385735 
L 286.47667 213.771048 
L 288.106462 216.421894 
L 289.736254 215.250558 
L 291.366046 214.877759 
L 292.995838 215.481198 
L 294.625629 216.233941 
L 296.255421 218.010786 
L 297.885213 216.171465 
L 299.515005 218.834492 
L 301.144797 216.815727 
L 302.774589 215.026808 
L 304.404381 214.226621 
L 306.034173 215.039124 
L 307.663965 215.194033 
L 309.293757 216.356709 
L 310.923548 214.580234 
L 312.55334 218.23782 
L 314.183132 217.269607 
L 315.812924 218.253748 
L 317.442716 214.173257 
L 319.072508 217.640229 
L 320.7023 212.522647 
L 322.332092 217.577807 
L 323.961884 217.737312 
L 325.591675 215.876059 
L 327.221467 216.88525 
L 328.851259 214.37445 
L 330.481051 214.086919 
L 332.110843 214.798092 
L 333.740635 213.669046 
L 335.370427 215.469635 
L 337.000219 217.914804 
L 338.630011 213.713696 
L 340.259803 217.345564 
L 341.889594 216.231059 
L 343.519386 217.870595 
L 346.77897 217.012066 
L 348.408762 214.258009 
L 350.038554 216.756063 
L 351.668346 214.427744 
L 353.298138 215.298465 
L 354.92793 213.158201 
L 356.557721 214.028852 
L 358.187513 217.27437 
L 359.817305 218.498166 
L 361.447097 216.163283 
L 363.076889 218.084281 
L 364.706681 216.023023 
L 366.336473 216.993327 
L 367.966265 214.843629 
L 369.596057 217.58816 
L 371.225849 215.240435 
L 372.85564 213.862708 
L 374.485432 217.520261 
L 376.115224 213.572666 
L 377.745016 214.420702 
L 379.374808 212.836255 
L 381.0046 215.123413 
L 382.634392 215.461249 
L 384.264184 211.813399 
L 385.893976 215.277796 
L 387.523767 217.593606 
L 389.153559 217.869665 
L 390.783351 217.211077 
L 392.413143 215.085967 
L 394.042935 216.132056 
L 395.672727 219.413628 
L 397.302519 215.602945 
L 398.932311 214.351652 
L 400.562103 215.893347 
L 402.191895 215.552108 
L 403.821686 216.484616 
L 405.451478 215.511753 
L 407.08127 216.699953 
L 408.711062 213.215989 
L 410.340854 214.889563 
L 411.970646 215.934782 
L 413.600438 214.293047 
L 415.23023 215.313441 
L 416.860022 215.419535 
L 418.489813 212.904381 
L 420.119605 215.299341 
L 421.749397 215.729804 
L 423.379189 213.729753 
L 425.008981 214.728322 
L 426.638773 214.744873 
L 428.268565 213.852758 
L 429.898357 215.732788 
L 431.528149 214.222062 
L 433.157941 216.074123 
L 434.787732 217.546849 
L 436.417524 219.471825 
L 438.047316 217.003605 
L 439.677108 214.928881 
L 441.3069 215.776825 
L 442.936692 213.716142 
L 444.566484 212.555503 
L 446.196276 216.002644 
L 447.826068 215.092353 
L 449.455859 217.134948 
L 451.085651 214.760683 
L 452.715443 216.375653 
L 455.975027 213.282996 
L 457.604819 215.367526 
L 459.234611 215.312184 
L 460.864403 214.395732 
L 462.494195 215.483999 
L 464.123987 217.894124 
L 465.753778 218.207125 
L 465.753778 218.207125 
" clip-path="url(#pa95bc3ca5e)" style="fill: none; stroke-dasharray: 1.75,2.8875; stroke-dashoffset: 0; stroke: #9fc377; stroke-width: 1.75"/>
   </g>
   <g id="patch_3">
    <path d="M 39.644687 326.855625 
L 39.644687 21.935625 
" style="fill: none; stroke: #cccccc; stroke-width: 1.25; stroke-linejoin: miter; stroke-linecap: square"/>
   </g>
   <g id="patch_4">
    <path d="M 486.044687 326.855625 
L 486.044687 21.935625 
" style="fill: none; stroke: #cccccc; stroke-width: 1.25; stroke-linejoin: miter; stroke-linecap: square"/>
   </g>
   <g id="patch_5">
    <path d="M 39.644687 326.855625 
L 486.044688 326.855625 
" style="fill: none; stroke: #cccccc; stroke-width: 1.25; stroke-linejoin: miter; stroke-linecap: square"/>
   </g>
   <g id="patch_6">
    <path d="M 39.644687 21.935625 
L 486.044688 21.935625 
" style="fill: none; stroke: #cccccc; stroke-width: 1.25; stroke-linejoin: miter; stroke-linecap: square"/>
   </g>
   <g id="text_34">
    <!-- "Stability" for dataset Mouse_non_tata -->
    <g style="fill: #262626" transform="translate(161.197187 15.935625) scale(0.12 -0.12)">
     <defs>
      <path id="ArialMT-22" d="M 450 2959 
L 294 3831 
L 294 4581 
L 934 4581 
L 934 3831 
L 794 2959 
L 450 2959 
z
M 1484 2959 
L 1331 3831 
L 1331 4581 
L 1972 4581 
L 1972 3831 
L 1822 2959 
L 1484 2959 
z
" transform="scale(0.015625)"/>
      <path id="ArialMT-20" transform="scale(0.015625)"/>
      <path id="ArialMT-66" d="M 556 0 
L 556 2881 
L 59 2881 
L 59 3319 
L 556 3319 
L 556 3672 
Q 556 4006 616 4169 
Q 697 4388 901 4523 
Q 1106 4659 1475 4659 
Q 1713 4659 2000 4603 
L 1916 4113 
Q 1741 4144 1584 4144 
Q 1328 4144 1222 4034 
Q 1116 3925 1116 3625 
L 1116 3319 
L 1763 3319 
L 1763 2881 
L 1116 2881 
L 1116 0 
L 556 0 
z
" transform="scale(0.015625)"/>
      <path id="ArialMT-72" d="M 416 0 
L 416 3319 
L 922 3319 
L 922 2816 
Q 1116 3169 1280 3281 
Q 1444 3394 1641 3394 
Q 1925 3394 2219 3213 
L 2025 2691 
Q 1819 2813 1613 2813 
Q 1428 2813 1281 2702 
Q 1134 2591 1072 2394 
Q 978 2094 978 1738 
L 978 0 
L 416 0 
z
" transform="scale(0.015625)"/>
      <path id="ArialMT-64" d="M 2575 0 
L 2575 419 
Q 2259 -75 1647 -75 
Q 1250 -75 917 144 
Q 584 363 401 755 
Q 219 1147 219 1656 
Q 219 2153 384 2558 
Q 550 2963 881 3178 
Q 1213 3394 1622 3394 
Q 1922 3394 2156 3267 
Q 2391 3141 2538 2938 
L 2538 4581 
L 3097 4581 
L 3097 0 
L 2575 0 
z
M 797 1656 
Q 797 1019 1065 703 
Q 1334 388 1700 388 
Q 2069 388 2326 689 
Q 2584 991 2584 1609 
Q 2584 2291 2321 2609 
Q 2059 2928 1675 2928 
Q 1300 2928 1048 2622 
Q 797 2316 797 1656 
z
" transform="scale(0.015625)"/>
      <path id="ArialMT-65" d="M 2694 1069 
L 3275 997 
Q 3138 488 2766 206 
Q 2394 -75 1816 -75 
Q 1088 -75 661 373 
Q 234 822 234 1631 
Q 234 2469 665 2931 
Q 1097 3394 1784 3394 
Q 2450 3394 2872 2941 
Q 3294 2488 3294 1666 
Q 3294 1616 3291 1516 
L 816 1516 
Q 847 969 1125 678 
Q 1403 388 1819 388 
Q 2128 388 2347 550 
Q 2566 713 2694 1069 
z
M 847 1978 
L 2700 1978 
Q 2663 2397 2488 2606 
Q 2219 2931 1791 2931 
Q 1403 2931 1139 2672 
Q 875 2413 847 1978 
z
" transform="scale(0.015625)"/>
      <path id="ArialMT-4d" d="M 475 0 
L 475 4581 
L 1388 4581 
L 2472 1338 
Q 2622 884 2691 659 
Q 2769 909 2934 1394 
L 4031 4581 
L 4847 4581 
L 4847 0 
L 4263 0 
L 4263 3834 
L 2931 0 
L 2384 0 
L 1059 3900 
L 1059 0 
L 475 0 
z
" transform="scale(0.015625)"/>
      <path id="ArialMT-75" d="M 2597 0 
L 2597 488 
Q 2209 -75 1544 -75 
Q 1250 -75 995 37 
Q 741 150 617 320 
Q 494 491 444 738 
Q 409 903 409 1263 
L 409 3319 
L 972 3319 
L 972 1478 
Q 972 1038 1006 884 
Q 1059 663 1231 536 
Q 1403 409 1656 409 
Q 1909 409 2131 539 
Q 2353 669 2445 892 
Q 2538 1116 2538 1541 
L 2538 3319 
L 3100 3319 
L 3100 0 
L 2597 0 
z
" transform="scale(0.015625)"/>
      <path id="ArialMT-5f" d="M -97 -1272 
L -97 -866 
L 3631 -866 
L 3631 -1272 
L -97 -1272 
z
" transform="scale(0.015625)"/>
     </defs>
     <use xlink:href="#ArialMT-22"/>
     <use xlink:href="#ArialMT-53" x="35.498047"/>
     <use xlink:href="#ArialMT-74" x="102.197266"/>
     <use xlink:href="#ArialMT-61" x="129.980469"/>
     <use xlink:href="#ArialMT-62" x="185.595703"/>
     <use xlink:href="#ArialMT-69" x="241.210938"/>
     <use xlink:href="#ArialMT-6c" x="263.427734"/>
     <use xlink:href="#ArialMT-69" x="285.644531"/>
     <use xlink:href="#ArialMT-74" x="307.861328"/>
     <use xlink:href="#ArialMT-79" x="335.644531"/>
     <use xlink:href="#ArialMT-22" x="385.644531"/>
     <use xlink:href="#ArialMT-20" x="421.142578"/>
     <use xlink:href="#ArialMT-66" x="448.925781"/>
     <use xlink:href="#ArialMT-6f" x="476.708984"/>
     <use xlink:href="#ArialMT-72" x="532.324219"/>
     <use xlink:href="#ArialMT-20" x="565.625"/>
     <use xlink:href="#ArialMT-64" x="593.408203"/>
     <use xlink:href="#ArialMT-61" x="649.023438"/>
     <use xlink:href="#ArialMT-74" x="704.638672"/>
     <use xlink:href="#ArialMT-61" x="732.421875"/>
     <use xlink:href="#ArialMT-73" x="788.037109"/>
     <use xlink:href="#ArialMT-65" x="838.037109"/>
     <use xlink:href="#ArialMT-74" x="893.652344"/>
     <use xlink:href="#ArialMT-20" x="921.435547"/>
     <use xlink:href="#ArialMT-4d" x="949.21875"/>
     <use xlink:href="#ArialMT-6f" x="1032.519531"/>
     <use xlink:href="#ArialMT-75" x="1088.134766"/>
     <use xlink:href="#ArialMT-73" x="1143.75"/>
     <use xlink:href="#ArialMT-65" x="1193.75"/>
     <use xlink:href="#ArialMT-5f" x="1249.365234"/>
     <use xlink:href="#ArialMT-6e" x="1304.980469"/>
     <use xlink:href="#ArialMT-6f" x="1360.595703"/>
     <use xlink:href="#ArialMT-6e" x="1416.210938"/>
     <use xlink:href="#ArialMT-5f" x="1471.826172"/>
     <use xlink:href="#ArialMT-74" x="1527.441406"/>
     <use xlink:href="#ArialMT-61" x="1555.224609"/>
     <use xlink:href="#ArialMT-74" x="1610.839844"/>
     <use xlink:href="#ArialMT-61" x="1638.623047"/>
    </g>
   </g>
   <g id="legend_1">
    <g id="line2d_34">
     <path d="M 48.644687 34.593437 
L 58.644687 34.593437 
L 68.644688 34.593437 
" style="fill: none; stroke: #0272a2; stroke-width: 1.75; stroke-linecap: round"/>
    </g>
    <g id="text_35">
     <!-- Promoter -->
     <g style="fill: #262626" transform="translate(76.644688 38.093437) scale(0.1 -0.1)">
      <defs>
       <path id="ArialMT-6d" d="M 422 0 
L 422 3319 
L 925 3319 
L 925 2853 
Q 1081 3097 1340 3245 
Q 1600 3394 1931 3394 
Q 2300 3394 2536 3241 
Q 2772 3088 2869 2813 
Q 3263 3394 3894 3394 
Q 4388 3394 4653 3120 
Q 4919 2847 4919 2278 
L 4919 0 
L 4359 0 
L 4359 2091 
Q 4359 2428 4304 2576 
Q 4250 2725 4106 2815 
Q 3963 2906 3769 2906 
Q 3419 2906 3187 2673 
Q 2956 2441 2956 1928 
L 2956 0 
L 2394 0 
L 2394 2156 
Q 2394 2531 2256 2718 
Q 2119 2906 1806 2906 
Q 1569 2906 1367 2781 
Q 1166 2656 1075 2415 
Q 984 2175 984 1722 
L 984 0 
L 422 0 
z
" transform="scale(0.015625)"/>
      </defs>
      <use xlink:href="#ArialMT-50"/>
      <use xlink:href="#ArialMT-72" x="66.699219"/>
      <use xlink:href="#ArialMT-6f" x="100"/>
      <use xlink:href="#ArialMT-6d" x="155.615234"/>
      <use xlink:href="#ArialMT-6f" x="238.916016"/>
      <use xlink:href="#ArialMT-74" x="294.53125"/>
      <use xlink:href="#ArialMT-65" x="322.314453"/>
      <use xlink:href="#ArialMT-72" x="377.929688"/>
     </g>
    </g>
    <g id="line2d_35">
     <path d="M 48.644687 48.73875 
L 58.644687 48.73875 
L 68.644688 48.73875 
" style="fill: none; stroke-dasharray: 1.75,2.8875; stroke-dashoffset: 0; stroke: #9fc377; stroke-width: 1.75"/>
    </g>
    <g id="text_36">
     <!-- Non-promoter -->
     <g style="fill: #262626" transform="translate(76.644688 52.23875) scale(0.1 -0.1)">
      <defs>
       <path id="ArialMT-4e" d="M 488 0 
L 488 4581 
L 1109 4581 
L 3516 984 
L 3516 4581 
L 4097 4581 
L 4097 0 
L 3475 0 
L 1069 3600 
L 1069 0 
L 488 0 
z
" transform="scale(0.015625)"/>
       <path id="ArialMT-70" d="M 422 -1272 
L 422 3319 
L 934 3319 
L 934 2888 
Q 1116 3141 1344 3267 
Q 1572 3394 1897 3394 
Q 2322 3394 2647 3175 
Q 2972 2956 3137 2557 
Q 3303 2159 3303 1684 
Q 3303 1175 3120 767 
Q 2938 359 2589 142 
Q 2241 -75 1856 -75 
Q 1575 -75 1351 44 
Q 1128 163 984 344 
L 984 -1272 
L 422 -1272 
z
M 931 1641 
Q 931 1000 1190 694 
Q 1450 388 1819 388 
Q 2194 388 2461 705 
Q 2728 1022 2728 1688 
Q 2728 2322 2467 2637 
Q 2206 2953 1844 2953 
Q 1484 2953 1207 2617 
Q 931 2281 931 1641 
z
" transform="scale(0.015625)"/>
      </defs>
      <use xlink:href="#ArialMT-4e"/>
      <use xlink:href="#ArialMT-6f" x="72.216797"/>
      <use xlink:href="#ArialMT-6e" x="127.832031"/>
      <use xlink:href="#ArialMT-2d" x="183.447266"/>
      <use xlink:href="#ArialMT-70" x="216.748047"/>
      <use xlink:href="#ArialMT-72" x="272.363281"/>
      <use xlink:href="#ArialMT-6f" x="305.664062"/>
      <use xlink:href="#ArialMT-6d" x="361.279297"/>
      <use xlink:href="#ArialMT-6f" x="444.580078"/>
      <use xlink:href="#ArialMT-74" x="500.195312"/>
      <use xlink:href="#ArialMT-65" x="527.978516"/>
      <use xlink:href="#ArialMT-72" x="583.59375"/>
     </g>
    </g>
   </g>
  </g>
 </g>
 <defs>
  <clipPath id="pa95bc3ca5e">
   <rect x="39.644687" y="21.935625" width="446.4" height="304.92"/>
  </clipPath>
 </defs>
</svg>
