<?xml version="1.0" encoding="utf-8" standalone="no"?>
<!DOCTYPE svg PUBLIC "-//W3C//DTD SVG 1.1//EN"
  "http://www.w3.org/Graphics/SVG/1.1/DTD/svg11.dtd">
<svg xmlns:xlink="http://www.w3.org/1999/xlink" width="501.320781pt" height="375.733156pt" viewBox="0 0 501.320781 375.733156" xmlns="http://www.w3.org/2000/svg" version="1.1">
 <metadata>
  <rdf:RDF xmlns:dc="http://purl.org/dc/elements/1.1/" xmlns:cc="http://creativecommons.org/ns#" xmlns:rdf="http://www.w3.org/1999/02/22-rdf-syntax-ns#">
   <cc:Work>
    <dc:type rdf:resource="http://purl.org/dc/dcmitype/StillImage"/>
    <dc:date>2023-05-11T16:25:41.293508</dc:date>
    <dc:format>image/svg+xml</dc:format>
    <dc:creator>
     <cc:Agent>
      <dc:title>Matplotlib v3.7.1, https://matplotlib.org/</dc:title>
     </cc:Agent>
    </dc:creator>
   </cc:Work>
  </rdf:RDF>
 </metadata>
 <defs>
  <style type="text/css">*{stroke-linejoin: round; stroke-linecap: butt}</style>
 </defs>
 <g id="figure_1">
  <g id="patch_1">
   <path d="M 0 375.733156 
L 501.320781 375.733156 
L 501.320781 0 
L 0 0 
z
" style="fill: #ffffff"/>
  </g>
  <g id="axes_1">
   <g id="patch_2">
    <path d="M 47.720781 326.855625 
L 494.120781 326.855625 
L 494.120781 21.935625 
L 47.720781 21.935625 
z
" style="fill: #ffffff"/>
   </g>
   <g id="matplotlib.axis_1">
    <g id="xtick_1">
     <g id="line2d_1"/>
     <g id="text_1">
      <!-- -200 -->
      <g style="fill: #262626" transform="translate(62.764185 353.067937) rotate(-45) scale(0.1 -0.1)">
       <defs>
        <path id="ArialMT-2d" d="M 203 1375 
L 203 1941 
L 1931 1941 
L 1931 1375 
L 203 1375 
z
" transform="scale(0.015625)"/>
        <path id="ArialMT-32" d="M 3222 541 
L 3222 0 
L 194 0 
Q 188 203 259 391 
Q 375 700 629 1000 
Q 884 1300 1366 1694 
Q 2113 2306 2375 2664 
Q 2638 3022 2638 3341 
Q 2638 3675 2398 3904 
Q 2159 4134 1775 4134 
Q 1369 4134 1125 3890 
Q 881 3647 878 3216 
L 300 3275 
Q 359 3922 746 4261 
Q 1134 4600 1788 4600 
Q 2447 4600 2831 4234 
Q 3216 3869 3216 3328 
Q 3216 3053 3103 2787 
Q 2991 2522 2730 2228 
Q 2469 1934 1863 1422 
Q 1356 997 1212 845 
Q 1069 694 975 541 
L 3222 541 
z
" transform="scale(0.015625)"/>
        <path id="ArialMT-30" d="M 266 2259 
Q 266 3072 433 3567 
Q 600 4063 929 4331 
Q 1259 4600 1759 4600 
Q 2128 4600 2406 4451 
Q 2684 4303 2865 4023 
Q 3047 3744 3150 3342 
Q 3253 2941 3253 2259 
Q 3253 1453 3087 958 
Q 2922 463 2592 192 
Q 2263 -78 1759 -78 
Q 1097 -78 719 397 
Q 266 969 266 2259 
z
M 844 2259 
Q 844 1131 1108 757 
Q 1372 384 1759 384 
Q 2147 384 2411 759 
Q 2675 1134 2675 2259 
Q 2675 3391 2411 3762 
Q 2147 4134 1753 4134 
Q 1366 4134 1134 3806 
Q 844 3388 844 2259 
z
" transform="scale(0.015625)"/>
       </defs>
       <use xlink:href="#ArialMT-2d"/>
       <use xlink:href="#ArialMT-32" x="33.300781"/>
       <use xlink:href="#ArialMT-30" x="88.916016"/>
       <use xlink:href="#ArialMT-30" x="144.53125"/>
      </g>
     </g>
    </g>
    <g id="xtick_2">
     <g id="line2d_2"/>
     <g id="text_2">
      <!-- -190 -->
      <g style="fill: #262626" transform="translate(79.062104 353.067937) rotate(-45) scale(0.1 -0.1)">
       <defs>
        <path id="ArialMT-31" d="M 2384 0 
L 1822 0 
L 1822 3584 
Q 1619 3391 1289 3197 
Q 959 3003 697 2906 
L 697 3450 
Q 1169 3672 1522 3987 
Q 1875 4303 2022 4600 
L 2384 4600 
L 2384 0 
z
" transform="scale(0.015625)"/>
        <path id="ArialMT-39" d="M 350 1059 
L 891 1109 
Q 959 728 1153 556 
Q 1347 384 1650 384 
Q 1909 384 2104 503 
Q 2300 622 2425 820 
Q 2550 1019 2634 1356 
Q 2719 1694 2719 2044 
Q 2719 2081 2716 2156 
Q 2547 1888 2255 1720 
Q 1963 1553 1622 1553 
Q 1053 1553 659 1965 
Q 266 2378 266 3053 
Q 266 3750 677 4175 
Q 1088 4600 1706 4600 
Q 2153 4600 2523 4359 
Q 2894 4119 3086 3673 
Q 3278 3228 3278 2384 
Q 3278 1506 3087 986 
Q 2897 466 2520 194 
Q 2144 -78 1638 -78 
Q 1100 -78 759 220 
Q 419 519 350 1059 
z
M 2653 3081 
Q 2653 3566 2395 3850 
Q 2138 4134 1775 4134 
Q 1400 4134 1122 3828 
Q 844 3522 844 3034 
Q 844 2597 1108 2323 
Q 1372 2050 1759 2050 
Q 2150 2050 2401 2323 
Q 2653 2597 2653 3081 
z
" transform="scale(0.015625)"/>
       </defs>
       <use xlink:href="#ArialMT-2d"/>
       <use xlink:href="#ArialMT-31" x="33.300781"/>
       <use xlink:href="#ArialMT-39" x="88.916016"/>
       <use xlink:href="#ArialMT-30" x="144.53125"/>
      </g>
     </g>
    </g>
    <g id="xtick_3">
     <g id="line2d_3"/>
     <g id="text_3">
      <!-- -180 -->
      <g style="fill: #262626" transform="translate(95.360023 353.067937) rotate(-45) scale(0.1 -0.1)">
       <defs>
        <path id="ArialMT-38" d="M 1131 2484 
Q 781 2613 612 2850 
Q 444 3088 444 3419 
Q 444 3919 803 4259 
Q 1163 4600 1759 4600 
Q 2359 4600 2725 4251 
Q 3091 3903 3091 3403 
Q 3091 3084 2923 2848 
Q 2756 2613 2416 2484 
Q 2838 2347 3058 2040 
Q 3278 1734 3278 1309 
Q 3278 722 2862 322 
Q 2447 -78 1769 -78 
Q 1091 -78 675 323 
Q 259 725 259 1325 
Q 259 1772 486 2073 
Q 713 2375 1131 2484 
z
M 1019 3438 
Q 1019 3113 1228 2906 
Q 1438 2700 1772 2700 
Q 2097 2700 2305 2904 
Q 2513 3109 2513 3406 
Q 2513 3716 2298 3927 
Q 2084 4138 1766 4138 
Q 1444 4138 1231 3931 
Q 1019 3725 1019 3438 
z
M 838 1322 
Q 838 1081 952 856 
Q 1066 631 1291 507 
Q 1516 384 1775 384 
Q 2178 384 2440 643 
Q 2703 903 2703 1303 
Q 2703 1709 2433 1975 
Q 2163 2241 1756 2241 
Q 1359 2241 1098 1978 
Q 838 1716 838 1322 
z
" transform="scale(0.015625)"/>
       </defs>
       <use xlink:href="#ArialMT-2d"/>
       <use xlink:href="#ArialMT-31" x="33.300781"/>
       <use xlink:href="#ArialMT-38" x="88.916016"/>
       <use xlink:href="#ArialMT-30" x="144.53125"/>
      </g>
     </g>
    </g>
    <g id="xtick_4">
     <g id="line2d_4"/>
     <g id="text_4">
      <!-- -170 -->
      <g style="fill: #262626" transform="translate(111.657941 353.067937) rotate(-45) scale(0.1 -0.1)">
       <defs>
        <path id="ArialMT-37" d="M 303 3981 
L 303 4522 
L 3269 4522 
L 3269 4084 
Q 2831 3619 2401 2847 
Q 1972 2075 1738 1259 
Q 1569 684 1522 0 
L 944 0 
Q 953 541 1156 1306 
Q 1359 2072 1739 2783 
Q 2119 3494 2547 3981 
L 303 3981 
z
" transform="scale(0.015625)"/>
       </defs>
       <use xlink:href="#ArialMT-2d"/>
       <use xlink:href="#ArialMT-31" x="33.300781"/>
       <use xlink:href="#ArialMT-37" x="88.916016"/>
       <use xlink:href="#ArialMT-30" x="144.53125"/>
      </g>
     </g>
    </g>
    <g id="xtick_5">
     <g id="line2d_5"/>
     <g id="text_5">
      <!-- -160 -->
      <g style="fill: #262626" transform="translate(127.95586 353.067937) rotate(-45) scale(0.1 -0.1)">
       <defs>
        <path id="ArialMT-36" d="M 3184 3459 
L 2625 3416 
Q 2550 3747 2413 3897 
Q 2184 4138 1850 4138 
Q 1581 4138 1378 3988 
Q 1113 3794 959 3422 
Q 806 3050 800 2363 
Q 1003 2672 1297 2822 
Q 1591 2972 1913 2972 
Q 2475 2972 2870 2558 
Q 3266 2144 3266 1488 
Q 3266 1056 3080 686 
Q 2894 316 2569 119 
Q 2244 -78 1831 -78 
Q 1128 -78 684 439 
Q 241 956 241 2144 
Q 241 3472 731 4075 
Q 1159 4600 1884 4600 
Q 2425 4600 2770 4297 
Q 3116 3994 3184 3459 
z
M 888 1484 
Q 888 1194 1011 928 
Q 1134 663 1356 523 
Q 1578 384 1822 384 
Q 2178 384 2434 671 
Q 2691 959 2691 1453 
Q 2691 1928 2437 2201 
Q 2184 2475 1800 2475 
Q 1419 2475 1153 2201 
Q 888 1928 888 1484 
z
" transform="scale(0.015625)"/>
       </defs>
       <use xlink:href="#ArialMT-2d"/>
       <use xlink:href="#ArialMT-31" x="33.300781"/>
       <use xlink:href="#ArialMT-36" x="88.916016"/>
       <use xlink:href="#ArialMT-30" x="144.53125"/>
      </g>
     </g>
    </g>
    <g id="xtick_6">
     <g id="line2d_6"/>
     <g id="text_6">
      <!-- -150 -->
      <g style="fill: #262626" transform="translate(144.253779 353.067937) rotate(-45) scale(0.1 -0.1)">
       <defs>
        <path id="ArialMT-35" d="M 266 1200 
L 856 1250 
Q 922 819 1161 601 
Q 1400 384 1738 384 
Q 2144 384 2425 690 
Q 2706 997 2706 1503 
Q 2706 1984 2436 2262 
Q 2166 2541 1728 2541 
Q 1456 2541 1237 2417 
Q 1019 2294 894 2097 
L 366 2166 
L 809 4519 
L 3088 4519 
L 3088 3981 
L 1259 3981 
L 1013 2750 
Q 1425 3038 1878 3038 
Q 2478 3038 2890 2622 
Q 3303 2206 3303 1553 
Q 3303 931 2941 478 
Q 2500 -78 1738 -78 
Q 1113 -78 717 272 
Q 322 622 266 1200 
z
" transform="scale(0.015625)"/>
       </defs>
       <use xlink:href="#ArialMT-2d"/>
       <use xlink:href="#ArialMT-31" x="33.300781"/>
       <use xlink:href="#ArialMT-35" x="88.916016"/>
       <use xlink:href="#ArialMT-30" x="144.53125"/>
      </g>
     </g>
    </g>
    <g id="xtick_7">
     <g id="line2d_7"/>
     <g id="text_7">
      <!-- -140 -->
      <g style="fill: #262626" transform="translate(160.551698 353.067937) rotate(-45) scale(0.1 -0.1)">
       <defs>
        <path id="ArialMT-34" d="M 2069 0 
L 2069 1097 
L 81 1097 
L 81 1613 
L 2172 4581 
L 2631 4581 
L 2631 1613 
L 3250 1613 
L 3250 1097 
L 2631 1097 
L 2631 0 
L 2069 0 
z
M 2069 1613 
L 2069 3678 
L 634 1613 
L 2069 1613 
z
" transform="scale(0.015625)"/>
       </defs>
       <use xlink:href="#ArialMT-2d"/>
       <use xlink:href="#ArialMT-31" x="33.300781"/>
       <use xlink:href="#ArialMT-34" x="88.916016"/>
       <use xlink:href="#ArialMT-30" x="144.53125"/>
      </g>
     </g>
    </g>
    <g id="xtick_8">
     <g id="line2d_8"/>
     <g id="text_8">
      <!-- -130 -->
      <g style="fill: #262626" transform="translate(176.849617 353.067937) rotate(-45) scale(0.1 -0.1)">
       <defs>
        <path id="ArialMT-33" d="M 269 1209 
L 831 1284 
Q 928 806 1161 595 
Q 1394 384 1728 384 
Q 2125 384 2398 659 
Q 2672 934 2672 1341 
Q 2672 1728 2419 1979 
Q 2166 2231 1775 2231 
Q 1616 2231 1378 2169 
L 1441 2663 
Q 1497 2656 1531 2656 
Q 1891 2656 2178 2843 
Q 2466 3031 2466 3422 
Q 2466 3731 2256 3934 
Q 2047 4138 1716 4138 
Q 1388 4138 1169 3931 
Q 950 3725 888 3313 
L 325 3413 
Q 428 3978 793 4289 
Q 1159 4600 1703 4600 
Q 2078 4600 2393 4439 
Q 2709 4278 2876 4000 
Q 3044 3722 3044 3409 
Q 3044 3113 2884 2869 
Q 2725 2625 2413 2481 
Q 2819 2388 3044 2092 
Q 3269 1797 3269 1353 
Q 3269 753 2831 336 
Q 2394 -81 1725 -81 
Q 1122 -81 723 278 
Q 325 638 269 1209 
z
" transform="scale(0.015625)"/>
       </defs>
       <use xlink:href="#ArialMT-2d"/>
       <use xlink:href="#ArialMT-31" x="33.300781"/>
       <use xlink:href="#ArialMT-33" x="88.916016"/>
       <use xlink:href="#ArialMT-30" x="144.53125"/>
      </g>
     </g>
    </g>
    <g id="xtick_9">
     <g id="line2d_9"/>
     <g id="text_9">
      <!-- -120 -->
      <g style="fill: #262626" transform="translate(193.147536 353.067937) rotate(-45) scale(0.1 -0.1)">
       <use xlink:href="#ArialMT-2d"/>
       <use xlink:href="#ArialMT-31" x="33.300781"/>
       <use xlink:href="#ArialMT-32" x="88.916016"/>
       <use xlink:href="#ArialMT-30" x="144.53125"/>
      </g>
     </g>
    </g>
    <g id="xtick_10">
     <g id="line2d_10"/>
     <g id="text_10">
      <!-- -110 -->
      <g style="fill: #262626" transform="translate(209.706201 352.546446) rotate(-45) scale(0.1 -0.1)">
       <use xlink:href="#ArialMT-2d"/>
       <use xlink:href="#ArialMT-31" x="33.300781"/>
       <use xlink:href="#ArialMT-31" x="81.541016"/>
       <use xlink:href="#ArialMT-30" x="137.15625"/>
      </g>
     </g>
    </g>
    <g id="xtick_11">
     <g id="line2d_11"/>
     <g id="text_11">
      <!-- -100 -->
      <g style="fill: #262626" transform="translate(225.743374 353.067937) rotate(-45) scale(0.1 -0.1)">
       <use xlink:href="#ArialMT-2d"/>
       <use xlink:href="#ArialMT-31" x="33.300781"/>
       <use xlink:href="#ArialMT-30" x="88.916016"/>
       <use xlink:href="#ArialMT-30" x="144.53125"/>
      </g>
     </g>
    </g>
    <g id="xtick_12">
     <g id="line2d_12"/>
     <g id="text_12">
      <!-- -90 -->
      <g style="fill: #262626" transform="translate(244.007381 349.135761) rotate(-45) scale(0.1 -0.1)">
       <use xlink:href="#ArialMT-2d"/>
       <use xlink:href="#ArialMT-39" x="33.300781"/>
       <use xlink:href="#ArialMT-30" x="88.916016"/>
      </g>
     </g>
    </g>
    <g id="xtick_13">
     <g id="line2d_13"/>
     <g id="text_13">
      <!-- -80 -->
      <g style="fill: #262626" transform="translate(260.3053 349.135761) rotate(-45) scale(0.1 -0.1)">
       <use xlink:href="#ArialMT-2d"/>
       <use xlink:href="#ArialMT-38" x="33.300781"/>
       <use xlink:href="#ArialMT-30" x="88.916016"/>
      </g>
     </g>
    </g>
    <g id="xtick_14">
     <g id="line2d_14"/>
     <g id="text_14">
      <!-- -70 -->
      <g style="fill: #262626" transform="translate(276.603219 349.135761) rotate(-45) scale(0.1 -0.1)">
       <use xlink:href="#ArialMT-2d"/>
       <use xlink:href="#ArialMT-37" x="33.300781"/>
       <use xlink:href="#ArialMT-30" x="88.916016"/>
      </g>
     </g>
    </g>
    <g id="xtick_15">
     <g id="line2d_15"/>
     <g id="text_15">
      <!-- -60 -->
      <g style="fill: #262626" transform="translate(292.901138 349.135761) rotate(-45) scale(0.1 -0.1)">
       <use xlink:href="#ArialMT-2d"/>
       <use xlink:href="#ArialMT-36" x="33.300781"/>
       <use xlink:href="#ArialMT-30" x="88.916016"/>
      </g>
     </g>
    </g>
    <g id="xtick_16">
     <g id="line2d_16"/>
     <g id="text_16">
      <!-- -50 -->
      <g style="fill: #262626" transform="translate(309.199057 349.135761) rotate(-45) scale(0.1 -0.1)">
       <use xlink:href="#ArialMT-2d"/>
       <use xlink:href="#ArialMT-35" x="33.300781"/>
       <use xlink:href="#ArialMT-30" x="88.916016"/>
      </g>
     </g>
    </g>
    <g id="xtick_17">
     <g id="line2d_17"/>
     <g id="text_17">
      <!-- -40 -->
      <g style="fill: #262626" transform="translate(325.496976 349.135761) rotate(-45) scale(0.1 -0.1)">
       <use xlink:href="#ArialMT-2d"/>
       <use xlink:href="#ArialMT-34" x="33.300781"/>
       <use xlink:href="#ArialMT-30" x="88.916016"/>
      </g>
     </g>
    </g>
    <g id="xtick_18">
     <g id="line2d_18"/>
     <g id="text_18">
      <!-- -30 -->
      <g style="fill: #262626" transform="translate(341.794895 349.135761) rotate(-45) scale(0.1 -0.1)">
       <use xlink:href="#ArialMT-2d"/>
       <use xlink:href="#ArialMT-33" x="33.300781"/>
       <use xlink:href="#ArialMT-30" x="88.916016"/>
      </g>
     </g>
    </g>
    <g id="xtick_19">
     <g id="line2d_19"/>
     <g id="text_19">
      <!-- -20 -->
      <g style="fill: #262626" transform="translate(358.092814 349.135761) rotate(-45) scale(0.1 -0.1)">
       <use xlink:href="#ArialMT-2d"/>
       <use xlink:href="#ArialMT-32" x="33.300781"/>
       <use xlink:href="#ArialMT-30" x="88.916016"/>
      </g>
     </g>
    </g>
    <g id="xtick_20">
     <g id="line2d_20"/>
     <g id="text_20">
      <!-- -10 -->
      <g style="fill: #262626" transform="translate(374.390733 349.135761) rotate(-45) scale(0.1 -0.1)">
       <use xlink:href="#ArialMT-2d"/>
       <use xlink:href="#ArialMT-31" x="33.300781"/>
       <use xlink:href="#ArialMT-30" x="88.916016"/>
      </g>
     </g>
    </g>
    <g id="xtick_21">
     <g id="line2d_21"/>
     <g id="text_21">
      <!-- 0 -->
      <g style="fill: #262626" transform="translate(393.831963 342.849139) rotate(-45) scale(0.1 -0.1)">
       <use xlink:href="#ArialMT-30"/>
      </g>
     </g>
    </g>
    <g id="xtick_22">
     <g id="line2d_22"/>
     <g id="text_22">
      <!-- 10 -->
      <g style="fill: #262626" transform="translate(408.163793 346.781316) rotate(-45) scale(0.1 -0.1)">
       <use xlink:href="#ArialMT-31"/>
       <use xlink:href="#ArialMT-30" x="55.615234"/>
      </g>
     </g>
    </g>
    <g id="xtick_23">
     <g id="line2d_23"/>
     <g id="text_23">
      <!-- 20 -->
      <g style="fill: #262626" transform="translate(424.461712 346.781316) rotate(-45) scale(0.1 -0.1)">
       <use xlink:href="#ArialMT-32"/>
       <use xlink:href="#ArialMT-30" x="55.615234"/>
      </g>
     </g>
    </g>
    <g id="xtick_24">
     <g id="line2d_24"/>
     <g id="text_24">
      <!-- 30 -->
      <g style="fill: #262626" transform="translate(440.759631 346.781316) rotate(-45) scale(0.1 -0.1)">
       <use xlink:href="#ArialMT-33"/>
       <use xlink:href="#ArialMT-30" x="55.615234"/>
      </g>
     </g>
    </g>
    <g id="xtick_25">
     <g id="line2d_25"/>
     <g id="text_25">
      <!-- 40 -->
      <g style="fill: #262626" transform="translate(457.05755 346.781316) rotate(-45) scale(0.1 -0.1)">
       <use xlink:href="#ArialMT-34"/>
       <use xlink:href="#ArialMT-30" x="55.615234"/>
      </g>
     </g>
    </g>
    <g id="xtick_26">
     <g id="line2d_26"/>
     <g id="text_26">
      <!-- 50 -->
      <g style="fill: #262626" transform="translate(473.355469 346.781316) rotate(-45) scale(0.1 -0.1)">
       <use xlink:href="#ArialMT-35"/>
       <use xlink:href="#ArialMT-30" x="55.615234"/>
      </g>
     </g>
    </g>
    <g id="text_27">
     <!-- Position -->
     <g style="fill: #262626" transform="translate(251.354531 366.346906) scale(0.11 -0.11)">
      <defs>
       <path id="ArialMT-50" d="M 494 0 
L 494 4581 
L 2222 4581 
Q 2678 4581 2919 4538 
Q 3256 4481 3484 4323 
Q 3713 4166 3852 3881 
Q 3991 3597 3991 3256 
Q 3991 2672 3619 2267 
Q 3247 1863 2275 1863 
L 1100 1863 
L 1100 0 
L 494 0 
z
M 1100 2403 
L 2284 2403 
Q 2872 2403 3119 2622 
Q 3366 2841 3366 3238 
Q 3366 3525 3220 3729 
Q 3075 3934 2838 4000 
Q 2684 4041 2272 4041 
L 1100 4041 
L 1100 2403 
z
" transform="scale(0.015625)"/>
       <path id="ArialMT-6f" d="M 213 1659 
Q 213 2581 725 3025 
Q 1153 3394 1769 3394 
Q 2453 3394 2887 2945 
Q 3322 2497 3322 1706 
Q 3322 1066 3130 698 
Q 2938 331 2570 128 
Q 2203 -75 1769 -75 
Q 1072 -75 642 372 
Q 213 819 213 1659 
z
M 791 1659 
Q 791 1022 1069 705 
Q 1347 388 1769 388 
Q 2188 388 2466 706 
Q 2744 1025 2744 1678 
Q 2744 2294 2464 2611 
Q 2184 2928 1769 2928 
Q 1347 2928 1069 2612 
Q 791 2297 791 1659 
z
" transform="scale(0.015625)"/>
       <path id="ArialMT-73" d="M 197 991 
L 753 1078 
Q 800 744 1014 566 
Q 1228 388 1613 388 
Q 2000 388 2187 545 
Q 2375 703 2375 916 
Q 2375 1106 2209 1216 
Q 2094 1291 1634 1406 
Q 1016 1563 777 1677 
Q 538 1791 414 1992 
Q 291 2194 291 2438 
Q 291 2659 392 2848 
Q 494 3038 669 3163 
Q 800 3259 1026 3326 
Q 1253 3394 1513 3394 
Q 1903 3394 2198 3281 
Q 2494 3169 2634 2976 
Q 2775 2784 2828 2463 
L 2278 2388 
Q 2241 2644 2061 2787 
Q 1881 2931 1553 2931 
Q 1166 2931 1000 2803 
Q 834 2675 834 2503 
Q 834 2394 903 2306 
Q 972 2216 1119 2156 
Q 1203 2125 1616 2013 
Q 2213 1853 2448 1751 
Q 2684 1650 2818 1456 
Q 2953 1263 2953 975 
Q 2953 694 2789 445 
Q 2625 197 2315 61 
Q 2006 -75 1616 -75 
Q 969 -75 630 194 
Q 291 463 197 991 
z
" transform="scale(0.015625)"/>
       <path id="ArialMT-69" d="M 425 3934 
L 425 4581 
L 988 4581 
L 988 3934 
L 425 3934 
z
M 425 0 
L 425 3319 
L 988 3319 
L 988 0 
L 425 0 
z
" transform="scale(0.015625)"/>
       <path id="ArialMT-74" d="M 1650 503 
L 1731 6 
Q 1494 -44 1306 -44 
Q 1000 -44 831 53 
Q 663 150 594 308 
Q 525 466 525 972 
L 525 2881 
L 113 2881 
L 113 3319 
L 525 3319 
L 525 4141 
L 1084 4478 
L 1084 3319 
L 1650 3319 
L 1650 2881 
L 1084 2881 
L 1084 941 
Q 1084 700 1114 631 
Q 1144 563 1211 522 
Q 1278 481 1403 481 
Q 1497 481 1650 503 
z
" transform="scale(0.015625)"/>
       <path id="ArialMT-6e" d="M 422 0 
L 422 3319 
L 928 3319 
L 928 2847 
Q 1294 3394 1984 3394 
Q 2284 3394 2536 3286 
Q 2788 3178 2913 3003 
Q 3038 2828 3088 2588 
Q 3119 2431 3119 2041 
L 3119 0 
L 2556 0 
L 2556 2019 
Q 2556 2363 2490 2533 
Q 2425 2703 2258 2804 
Q 2091 2906 1866 2906 
Q 1506 2906 1245 2678 
Q 984 2450 984 1813 
L 984 0 
L 422 0 
z
" transform="scale(0.015625)"/>
      </defs>
      <use xlink:href="#ArialMT-50"/>
      <use xlink:href="#ArialMT-6f" x="66.699219"/>
      <use xlink:href="#ArialMT-73" x="122.314453"/>
      <use xlink:href="#ArialMT-69" x="172.314453"/>
      <use xlink:href="#ArialMT-74" x="194.53125"/>
      <use xlink:href="#ArialMT-69" x="222.314453"/>
      <use xlink:href="#ArialMT-6f" x="244.53125"/>
      <use xlink:href="#ArialMT-6e" x="300.146484"/>
     </g>
    </g>
   </g>
   <g id="matplotlib.axis_2">
    <g id="ytick_1">
     <g id="line2d_27"/>
     <g id="text_28">
      <!-- 3.25 -->
      <g style="fill: #262626" transform="translate(21.259844 294.0451) scale(0.1 -0.1)">
       <defs>
        <path id="ArialMT-2e" d="M 581 0 
L 581 641 
L 1222 641 
L 1222 0 
L 581 0 
z
" transform="scale(0.015625)"/>
       </defs>
       <use xlink:href="#ArialMT-33"/>
       <use xlink:href="#ArialMT-2e" x="55.615234"/>
       <use xlink:href="#ArialMT-32" x="83.398438"/>
       <use xlink:href="#ArialMT-35" x="139.013672"/>
      </g>
     </g>
    </g>
    <g id="ytick_2">
     <g id="line2d_28"/>
     <g id="text_29">
      <!-- 3.50 -->
      <g style="fill: #262626" transform="translate(21.259844 257.197264) scale(0.1 -0.1)">
       <use xlink:href="#ArialMT-33"/>
       <use xlink:href="#ArialMT-2e" x="55.615234"/>
       <use xlink:href="#ArialMT-35" x="83.398438"/>
       <use xlink:href="#ArialMT-30" x="139.013672"/>
      </g>
     </g>
    </g>
    <g id="ytick_3">
     <g id="line2d_29"/>
     <g id="text_30">
      <!-- 3.75 -->
      <g style="fill: #262626" transform="translate(21.259844 220.349429) scale(0.1 -0.1)">
       <use xlink:href="#ArialMT-33"/>
       <use xlink:href="#ArialMT-2e" x="55.615234"/>
       <use xlink:href="#ArialMT-37" x="83.398438"/>
       <use xlink:href="#ArialMT-35" x="139.013672"/>
      </g>
     </g>
    </g>
    <g id="ytick_4">
     <g id="line2d_30"/>
     <g id="text_31">
      <!-- 4.00 -->
      <g style="fill: #262626" transform="translate(21.259844 183.501593) scale(0.1 -0.1)">
       <use xlink:href="#ArialMT-34"/>
       <use xlink:href="#ArialMT-2e" x="55.615234"/>
       <use xlink:href="#ArialMT-30" x="83.398438"/>
       <use xlink:href="#ArialMT-30" x="139.013672"/>
      </g>
     </g>
    </g>
    <g id="ytick_5">
     <g id="line2d_31"/>
     <g id="text_32">
      <!-- 4.25 -->
      <g style="fill: #262626" transform="translate(21.259844 146.653758) scale(0.1 -0.1)">
       <use xlink:href="#ArialMT-34"/>
       <use xlink:href="#ArialMT-2e" x="55.615234"/>
       <use xlink:href="#ArialMT-32" x="83.398438"/>
       <use xlink:href="#ArialMT-35" x="139.013672"/>
      </g>
     </g>
    </g>
    <g id="ytick_6">
     <g id="line2d_32"/>
     <g id="text_33">
      <!-- 4.50 -->
      <g style="fill: #262626" transform="translate(21.259844 109.805923) scale(0.1 -0.1)">
       <use xlink:href="#ArialMT-34"/>
       <use xlink:href="#ArialMT-2e" x="55.615234"/>
       <use xlink:href="#ArialMT-35" x="83.398438"/>
       <use xlink:href="#ArialMT-30" x="139.013672"/>
      </g>
     </g>
    </g>
    <g id="ytick_7">
     <g id="line2d_33"/>
     <g id="text_34">
      <!-- 4.75 -->
      <g style="fill: #262626" transform="translate(21.259844 72.958087) scale(0.1 -0.1)">
       <use xlink:href="#ArialMT-34"/>
       <use xlink:href="#ArialMT-2e" x="55.615234"/>
       <use xlink:href="#ArialMT-37" x="83.398438"/>
       <use xlink:href="#ArialMT-35" x="139.013672"/>
      </g>
     </g>
    </g>
    <g id="ytick_8">
     <g id="line2d_34"/>
     <g id="text_35">
      <!-- 5.00 -->
      <g style="fill: #262626" transform="translate(21.259844 36.110252) scale(0.1 -0.1)">
       <use xlink:href="#ArialMT-35"/>
       <use xlink:href="#ArialMT-2e" x="55.615234"/>
       <use xlink:href="#ArialMT-30" x="83.398438"/>
       <use xlink:href="#ArialMT-30" x="139.013672"/>
      </g>
     </g>
    </g>
    <g id="text_36">
     <!-- Aida_BA_transition -->
     <g style="fill: #262626" transform="translate(15.073594 221.173125) rotate(-90) scale(0.11 -0.11)">
      <defs>
       <path id="ArialMT-41" d="M -9 0 
L 1750 4581 
L 2403 4581 
L 4278 0 
L 3588 0 
L 3053 1388 
L 1138 1388 
L 634 0 
L -9 0 
z
M 1313 1881 
L 2866 1881 
L 2388 3150 
Q 2169 3728 2063 4100 
Q 1975 3659 1816 3225 
L 1313 1881 
z
" transform="scale(0.015625)"/>
       <path id="ArialMT-64" d="M 2575 0 
L 2575 419 
Q 2259 -75 1647 -75 
Q 1250 -75 917 144 
Q 584 363 401 755 
Q 219 1147 219 1656 
Q 219 2153 384 2558 
Q 550 2963 881 3178 
Q 1213 3394 1622 3394 
Q 1922 3394 2156 3267 
Q 2391 3141 2538 2938 
L 2538 4581 
L 3097 4581 
L 3097 0 
L 2575 0 
z
M 797 1656 
Q 797 1019 1065 703 
Q 1334 388 1700 388 
Q 2069 388 2326 689 
Q 2584 991 2584 1609 
Q 2584 2291 2321 2609 
Q 2059 2928 1675 2928 
Q 1300 2928 1048 2622 
Q 797 2316 797 1656 
z
" transform="scale(0.015625)"/>
       <path id="ArialMT-61" d="M 2588 409 
Q 2275 144 1986 34 
Q 1697 -75 1366 -75 
Q 819 -75 525 192 
Q 231 459 231 875 
Q 231 1119 342 1320 
Q 453 1522 633 1644 
Q 813 1766 1038 1828 
Q 1203 1872 1538 1913 
Q 2219 1994 2541 2106 
Q 2544 2222 2544 2253 
Q 2544 2597 2384 2738 
Q 2169 2928 1744 2928 
Q 1347 2928 1158 2789 
Q 969 2650 878 2297 
L 328 2372 
Q 403 2725 575 2942 
Q 747 3159 1072 3276 
Q 1397 3394 1825 3394 
Q 2250 3394 2515 3294 
Q 2781 3194 2906 3042 
Q 3031 2891 3081 2659 
Q 3109 2516 3109 2141 
L 3109 1391 
Q 3109 606 3145 398 
Q 3181 191 3288 0 
L 2700 0 
Q 2613 175 2588 409 
z
M 2541 1666 
Q 2234 1541 1622 1453 
Q 1275 1403 1131 1340 
Q 988 1278 909 1158 
Q 831 1038 831 891 
Q 831 666 1001 516 
Q 1172 366 1500 366 
Q 1825 366 2078 508 
Q 2331 650 2450 897 
Q 2541 1088 2541 1459 
L 2541 1666 
z
" transform="scale(0.015625)"/>
       <path id="ArialMT-5f" d="M -97 -1272 
L -97 -866 
L 3631 -866 
L 3631 -1272 
L -97 -1272 
z
" transform="scale(0.015625)"/>
       <path id="ArialMT-42" d="M 469 0 
L 469 4581 
L 2188 4581 
Q 2713 4581 3030 4442 
Q 3347 4303 3526 4014 
Q 3706 3725 3706 3409 
Q 3706 3116 3547 2856 
Q 3388 2597 3066 2438 
Q 3481 2316 3704 2022 
Q 3928 1728 3928 1328 
Q 3928 1006 3792 729 
Q 3656 453 3456 303 
Q 3256 153 2954 76 
Q 2653 0 2216 0 
L 469 0 
z
M 1075 2656 
L 2066 2656 
Q 2469 2656 2644 2709 
Q 2875 2778 2992 2937 
Q 3109 3097 3109 3338 
Q 3109 3566 3000 3739 
Q 2891 3913 2687 3977 
Q 2484 4041 1991 4041 
L 1075 4041 
L 1075 2656 
z
M 1075 541 
L 2216 541 
Q 2509 541 2628 563 
Q 2838 600 2978 687 
Q 3119 775 3209 942 
Q 3300 1109 3300 1328 
Q 3300 1584 3169 1773 
Q 3038 1963 2805 2039 
Q 2572 2116 2134 2116 
L 1075 2116 
L 1075 541 
z
" transform="scale(0.015625)"/>
       <path id="ArialMT-72" d="M 416 0 
L 416 3319 
L 922 3319 
L 922 2816 
Q 1116 3169 1280 3281 
Q 1444 3394 1641 3394 
Q 1925 3394 2219 3213 
L 2025 2691 
Q 1819 2813 1613 2813 
Q 1428 2813 1281 2702 
Q 1134 2591 1072 2394 
Q 978 2094 978 1738 
L 978 0 
L 416 0 
z
" transform="scale(0.015625)"/>
      </defs>
      <use xlink:href="#ArialMT-41"/>
      <use xlink:href="#ArialMT-69" x="66.699219"/>
      <use xlink:href="#ArialMT-64" x="88.916016"/>
      <use xlink:href="#ArialMT-61" x="144.53125"/>
      <use xlink:href="#ArialMT-5f" x="200.146484"/>
      <use xlink:href="#ArialMT-42" x="255.761719"/>
      <use xlink:href="#ArialMT-41" x="322.460938"/>
      <use xlink:href="#ArialMT-5f" x="389.160156"/>
      <use xlink:href="#ArialMT-74" x="444.775391"/>
      <use xlink:href="#ArialMT-72" x="472.558594"/>
      <use xlink:href="#ArialMT-61" x="505.859375"/>
      <use xlink:href="#ArialMT-6e" x="561.474609"/>
      <use xlink:href="#ArialMT-73" x="617.089844"/>
      <use xlink:href="#ArialMT-69" x="667.089844"/>
      <use xlink:href="#ArialMT-74" x="689.306641"/>
      <use xlink:href="#ArialMT-69" x="717.089844"/>
      <use xlink:href="#ArialMT-6f" x="739.306641"/>
      <use xlink:href="#ArialMT-6e" x="794.921875"/>
     </g>
    </g>
   </g>
   <g id="line2d_35">
    <path d="M 68.01169 237.830295 
L 69.641482 246.212674 
L 71.271274 240.434332 
L 72.901066 243.3159 
L 74.530858 243.396371 
L 76.16065 245.792034 
L 77.790442 250.268357 
L 79.420234 242.851992 
L 81.050025 237.230248 
L 82.679817 239.566441 
L 84.309609 240.170923 
L 85.939401 238.972186 
L 89.198985 238.767162 
L 90.828777 240.239537 
L 92.458569 235.174119 
L 94.088361 233.941709 
L 95.718153 236.75593 
L 97.347944 234.70822 
L 98.977736 231.265347 
L 100.607528 236.116417 
L 102.23732 236.859031 
L 103.867112 237.430384 
L 105.496904 236.796845 
L 107.126696 236.957063 
L 108.756488 238.238534 
L 110.38628 233.19656 
L 112.016072 234.03612 
L 113.645863 230.010579 
L 116.905447 235.857353 
L 118.535239 233.122607 
L 121.794823 224.509767 
L 123.424615 229.922143 
L 125.054407 226.482891 
L 126.684199 235.091204 
L 128.31399 234.375655 
L 129.943782 233.240552 
L 131.573574 227.916252 
L 133.203366 234.356374 
L 134.833158 226.030751 
L 136.46295 231.996556 
L 138.092742 235.20046 
L 139.722534 230.261316 
L 141.352326 228.272623 
L 142.982118 228.116569 
L 144.611909 232.335095 
L 146.241701 232.438015 
L 147.871493 228.023335 
L 149.501285 224.57838 
L 151.131077 224.367472 
L 152.760869 230.535858 
L 154.390661 227.124124 
L 156.020453 228.802338 
L 157.650245 224.89429 
L 159.280036 221.293825 
L 160.909828 225.309408 
L 162.53962 227.835509 
L 164.169412 228.535761 
L 165.799204 227.35386 
L 167.428996 221.10455 
L 169.058788 222.433815 
L 170.68858 225.169919 
L 172.318372 219.646297 
L 173.948164 215.925713 
L 175.577955 221.01548 
L 177.207747 223.11542 
L 178.837539 225.033146 
L 180.467331 214.388437 
L 182.097123 216.08575 
L 183.726915 216.935809 
L 185.356707 214.408984 
L 186.986499 216.703539 
L 188.616291 214.262254 
L 191.875874 213.838718 
L 193.505666 209.988511 
L 195.135458 213.569153 
L 196.76525 215.468142 
L 198.395042 208.330121 
L 200.024834 210.840019 
L 201.654626 216.561606 
L 203.284418 213.621473 
L 204.91421 214.930552 
L 206.544001 210.137686 
L 208.173793 211.987613 
L 209.803585 214.197714 
L 211.433377 207.394793 
L 213.063169 209.281381 
L 214.692961 212.624683 
L 216.322753 210.882654 
L 217.952545 212.550005 
L 219.582337 204.84208 
L 221.212128 206.20375 
L 222.84192 202.029759 
L 224.471712 203.458775 
L 226.101504 208.965018 
L 229.361088 202.700864 
L 230.99088 207.031542 
L 232.620672 203.402382 
L 234.250464 205.993838 
L 235.880256 200.752271 
L 237.510047 205.635384 
L 239.139839 199.094424 
L 240.769631 202.003147 
L 242.399423 197.043274 
L 244.029215 197.198151 
L 245.659007 193.96501 
L 247.288799 196.526322 
L 248.918591 195.821002 
L 250.548383 199.36082 
L 252.178174 197.496953 
L 253.807966 194.730615 
L 255.437758 192.738664 
L 257.06755 194.211673 
L 258.697342 185.187879 
L 260.327134 188.572639 
L 261.956926 196.453364 
L 263.586718 187.360867 
L 265.21651 195.379905 
L 266.846302 191.485345 
L 268.476093 183.958004 
L 270.105885 182.334916 
L 271.735677 185.324562 
L 273.365469 183.740035 
L 274.995261 185.90542 
L 276.625053 187.559374 
L 278.254845 181.474899 
L 279.884637 177.064021 
L 281.514429 183.569589 
L 283.14422 180.811217 
L 284.774012 180.865619 
L 286.403804 177.271399 
L 288.033596 178.763416 
L 289.663388 176.917653 
L 291.29318 174.022689 
L 292.922972 175.830163 
L 294.552764 176.899639 
L 296.182556 181.008729 
L 297.812348 179.511371 
L 299.442139 179.957989 
L 301.071931 175.612013 
L 302.701723 176.382326 
L 304.331515 172.663643 
L 305.961307 174.542265 
L 307.591099 173.621691 
L 309.220891 182.709029 
L 310.850683 181.100333 
L 312.480475 178.676156 
L 314.110266 182.757999 
L 315.740058 178.740877 
L 317.36985 177.869817 
L 318.999642 169.770037 
L 320.629434 159.293964 
L 322.259226 159.172217 
L 323.889018 163.884793 
L 325.51881 169.796921 
L 327.148602 173.88148 
L 328.778394 175.388885 
L 330.408185 172.736149 
L 332.037977 167.835113 
L 333.667769 164.677373 
L 335.297561 164.879411 
L 336.927353 169.095221 
L 338.557145 181.174287 
L 340.186937 179.70852 
L 341.816729 180.770484 
L 343.446521 183.536278 
L 345.076312 201.583955 
L 346.706104 216.954275 
L 348.335896 230.45068 
L 349.965688 250.087773 
L 351.59548 229.928479 
L 353.225272 196.833904 
L 354.855064 175.059669 
L 356.484856 162.615451 
L 358.114648 152.169612 
L 359.74444 148.661475 
L 361.374231 147.975435 
L 363.004023 151.623332 
L 364.633815 155.893816 
L 366.263607 158.781177 
L 367.893399 164.510186 
L 369.523191 164.27882 
L 371.152983 149.778836 
L 372.782775 152.215052 
L 374.412567 173.29682 
L 376.042358 168.960168 
L 377.67215 176.105792 
L 379.301942 174.288723 
L 380.931734 173.849255 
L 382.561526 179.390891 
L 384.191318 196.626345 
L 385.82111 179.521781 
L 387.450902 186.319361 
L 389.080694 219.878386 
L 390.710486 216.722638 
L 392.340277 35.795625 
L 393.970069 312.995625 
L 395.599861 257.959175 
L 397.229653 269.746047 
L 398.859445 189.894029 
L 400.489237 185.413723 
L 402.119029 157.081691 
L 403.748821 160.928367 
L 405.378613 160.221779 
L 407.008404 162.542675 
L 408.638196 155.352244 
L 410.267988 157.961893 
L 411.89778 159.815622 
L 413.527572 141.437009 
L 415.157364 147.006344 
L 416.787156 147.974439 
L 418.416948 155.948127 
L 420.04674 148.647897 
L 421.676532 143.514591 
L 423.306323 160.565206 
L 424.936115 169.295901 
L 426.565907 161.239841 
L 428.195699 159.290253 
L 429.825491 161.005398 
L 431.455283 160.33891 
L 433.085075 160.983131 
L 434.714867 155.749982 
L 436.344659 153.104759 
L 437.97445 153.926486 
L 439.604242 160.299082 
L 441.234034 160.1032 
L 442.863826 145.674182 
L 444.493618 143.488793 
L 446.12341 155.452448 
L 447.753202 159.565701 
L 449.382994 171.243588 
L 451.012786 180.194514 
L 452.642578 180.428414 
L 454.272369 182.712921 
L 455.902161 183.591856 
L 457.531953 172.686001 
L 460.791537 174.108772 
L 462.421329 176.099999 
L 464.051121 161.772181 
L 465.680913 170.006471 
L 467.310705 169.566099 
L 468.940496 170.458793 
L 470.570288 172.105415 
L 472.20008 171.180135 
L 473.829872 173.125016 
L 473.829872 173.125016 
" clip-path="url(#p41290eb81f)" style="fill: none; stroke: #0272a2; stroke-width: 1.75; stroke-linecap: round"/>
   </g>
   <g id="line2d_36">
    <path d="M 68.01169 295.844653 
L 69.641482 298.023874 
L 71.271274 296.149269 
L 72.901066 297.678762 
L 74.530858 297.049875 
L 76.16065 302.447455 
L 77.790442 297.987059 
L 79.420234 295.712178 
L 81.050025 294.877067 
L 82.679817 298.285025 
L 84.309609 296.10616 
L 85.939401 298.002557 
L 87.569193 296.937767 
L 89.198985 299.869443 
L 90.828777 299.065269 
L 92.458569 297.636899 
L 94.088361 300.226194 
L 95.718153 298.771401 
L 97.347944 298.988907 
L 98.977736 301.726294 
L 100.607528 294.923502 
L 103.867112 303.884316 
L 105.496904 294.361477 
L 107.126696 297.074221 
L 108.756488 298.213294 
L 110.38628 296.604827 
L 112.016072 299.013134 
L 113.645863 298.312102 
L 115.275655 301.138735 
L 116.905447 297.209368 
L 118.535239 300.562875 
L 120.165031 298.101067 
L 121.794823 297.681434 
L 123.424615 299.413469 
L 125.054407 295.760513 
L 126.684199 294.22918 
L 128.31399 299.628066 
L 129.943782 299.503904 
L 131.573574 299.932029 
L 133.203366 297.458049 
L 134.833158 295.722451 
L 136.46295 297.546168 
L 138.092742 295.653511 
L 139.722534 301.841133 
L 141.352326 298.850375 
L 142.982118 300.423155 
L 144.611909 293.933827 
L 146.241701 293.019979 
L 147.871493 299.608649 
L 149.501285 298.732626 
L 151.131077 298.748005 
L 152.760869 296.953325 
L 154.390661 297.950422 
L 156.020453 297.425331 
L 157.650245 299.951386 
L 159.280036 297.422302 
L 160.909828 297.461315 
L 162.53962 299.500163 
L 164.169412 297.521347 
L 165.799204 299.82663 
L 167.428996 299.000605 
L 169.058788 297.78131 
L 170.68858 297.70002 
L 172.318372 300.177443 
L 173.948164 302.118494 
L 175.577955 297.840986 
L 177.207747 295.255373 
L 178.837539 301.244193 
L 180.467331 294.94375 
L 182.097123 296.099509 
L 183.726915 300.108563 
L 185.356707 300.213071 
L 186.986499 295.626375 
L 188.616291 297.412683 
L 190.246082 297.109195 
L 191.875874 301.714477 
L 193.505666 294.608792 
L 195.135458 293.763824 
L 196.76525 296.735818 
L 198.395042 295.91294 
L 200.024834 299.070554 
L 201.654626 302.619833 
L 203.284418 295.85552 
L 204.91421 297.876198 
L 206.544001 296.029204 
L 208.173793 300.839404 
L 209.803585 296.311553 
L 211.433377 294.763594 
L 213.063169 298.704421 
L 214.692961 296.650134 
L 216.322753 300.333077 
L 217.952545 299.886663 
L 219.582337 297.141854 
L 221.212128 298.987482 
L 222.84192 299.712563 
L 226.101504 296.42473 
L 227.731296 301.329462 
L 229.361088 299.414835 
L 230.99088 298.004814 
L 232.620672 296.982183 
L 234.250464 298.673781 
L 235.880256 299.408244 
L 237.510047 296.579294 
L 239.139839 296.346052 
L 240.769631 297.472478 
L 242.399423 302.050623 
L 244.029215 297.827032 
L 245.659007 298.286509 
L 247.288799 300.120736 
L 248.918591 296.230381 
L 250.548383 293.864531 
L 252.178174 293.526129 
L 255.437758 299.586382 
L 257.06755 300.110167 
L 258.697342 300.777471 
L 260.327134 300.119667 
L 261.956926 296.810992 
L 263.586718 296.976661 
L 265.21651 296.808855 
L 266.846302 302.592341 
L 268.476093 295.268318 
L 270.105885 299.155763 
L 274.995261 298.792005 
L 276.625053 296.070889 
L 278.254845 295.815439 
L 279.884637 298.574321 
L 281.514429 300.288245 
L 283.14422 297.031587 
L 284.774012 299.680617 
L 286.403804 297.455555 
L 288.033596 299.618922 
L 289.663388 297.127187 
L 291.29318 297.218869 
L 292.922972 295.839903 
L 294.552764 299.142224 
L 296.182556 298.676334 
L 297.812348 300.921763 
L 299.442139 297.116677 
L 301.071931 298.270655 
L 302.701723 301.533726 
L 304.331515 301.208565 
L 305.961307 296.75381 
L 307.591099 295.49865 
L 309.220891 299.240497 
L 310.850683 302.488783 
L 312.480475 296.097075 
L 314.110266 298.354617 
L 315.740058 298.853344 
L 317.36985 299.094721 
L 318.999642 296.310781 
L 320.629434 295.488971 
L 323.889018 298.633819 
L 325.51881 297.867588 
L 327.148602 294.814897 
L 328.778394 294.200321 
L 330.408185 301.060354 
L 332.037977 297.438572 
L 333.667769 300.473687 
L 335.297561 300.930789 
L 336.927353 296.836763 
L 338.557145 299.255401 
L 340.186937 301.033099 
L 341.816729 294.053298 
L 343.446521 297.261978 
L 345.076312 301.586277 
L 346.706104 293.906928 
L 348.335896 299.310387 
L 349.965688 300.701585 
L 351.59548 298.7255 
L 353.225272 300.367635 
L 354.855064 297.729709 
L 356.484856 296.254133 
L 358.114648 296.604946 
L 359.74444 297.807734 
L 361.374231 298.282828 
L 363.004023 293.775344 
L 364.633815 292.924141 
L 366.263607 301.514487 
L 367.893399 301.098654 
L 369.523191 297.809396 
L 371.152983 297.909094 
L 372.782775 300.191635 
L 374.412567 300.258912 
L 376.042358 297.084909 
L 377.67215 298.872999 
L 379.301942 297.815928 
L 380.931734 300.1012 
L 382.561526 298.917296 
L 384.191318 294.13251 
L 385.82111 293.741319 
L 387.450902 298.598191 
L 389.080694 298.130757 
L 390.710486 297.393444 
L 392.340277 298.603357 
L 393.970069 295.037867 
L 395.599861 300.113908 
L 397.229653 301.593759 
L 398.859445 299.420357 
L 400.489237 299.255698 
L 402.119029 301.534142 
L 403.748821 301.325305 
L 405.378613 297.069233 
L 407.008404 295.677857 
L 408.638196 301.13345 
L 410.267988 296.371764 
L 411.89778 300.804727 
L 413.527572 296.856239 
L 415.157364 303.109832 
L 416.787156 296.527575 
L 418.416948 300.250242 
L 420.04674 297.449083 
L 421.676532 295.292544 
L 423.306323 298.803287 
L 424.936115 297.881008 
L 426.565907 296.40561 
L 428.195699 297.780716 
L 429.825491 300.756392 
L 431.455283 294.198896 
L 433.085075 298.287103 
L 434.714867 294.783604 
L 436.344659 294.793877 
L 437.97445 300.013141 
L 439.604242 296.575197 
L 441.234034 294.770066 
L 442.863826 298.64617 
L 444.493618 300.311047 
L 446.12341 299.483893 
L 447.753202 300.658356 
L 449.382994 298.008079 
L 451.012786 294.089816 
L 452.642578 297.837126 
L 454.272369 302.145036 
L 455.902161 296.429243 
L 457.531953 300.016704 
L 459.161745 300.98328 
L 460.791537 297.197849 
L 462.421329 297.39861 
L 464.051121 295.017499 
L 465.680913 294.779388 
L 467.310705 293.110295 
L 468.940496 301.81364 
L 470.570288 300.004293 
L 472.20008 299.999543 
L 473.829872 298.427654 
L 473.829872 298.427654 
" clip-path="url(#p41290eb81f)" style="fill: none; stroke-dasharray: 1.75,2.8875; stroke-dashoffset: 0; stroke: #9fc377; stroke-width: 1.75"/>
   </g>
   <g id="patch_3">
    <path d="M 47.720781 326.855625 
L 47.720781 21.935625 
" style="fill: none; stroke: #cccccc; stroke-width: 1.25; stroke-linejoin: miter; stroke-linecap: square"/>
   </g>
   <g id="patch_4">
    <path d="M 494.120781 326.855625 
L 494.120781 21.935625 
" style="fill: none; stroke: #cccccc; stroke-width: 1.25; stroke-linejoin: miter; stroke-linecap: square"/>
   </g>
   <g id="patch_5">
    <path d="M 47.720781 326.855625 
L 494.120781 326.855625 
" style="fill: none; stroke: #cccccc; stroke-width: 1.25; stroke-linejoin: miter; stroke-linecap: square"/>
   </g>
   <g id="patch_6">
    <path d="M 47.720781 21.935625 
L 494.120781 21.935625 
" style="fill: none; stroke: #cccccc; stroke-width: 1.25; stroke-linejoin: miter; stroke-linecap: square"/>
   </g>
   <g id="text_37">
    <!-- "Aida_BA_transition" for dataset Mouse_non_tata -->
    <g style="fill: #262626" transform="translate(139.251719 15.935625) scale(0.12 -0.12)">
     <defs>
      <path id="ArialMT-22" d="M 450 2959 
L 294 3831 
L 294 4581 
L 934 4581 
L 934 3831 
L 794 2959 
L 450 2959 
z
M 1484 2959 
L 1331 3831 
L 1331 4581 
L 1972 4581 
L 1972 3831 
L 1822 2959 
L 1484 2959 
z
" transform="scale(0.015625)"/>
      <path id="ArialMT-20" transform="scale(0.015625)"/>
      <path id="ArialMT-66" d="M 556 0 
L 556 2881 
L 59 2881 
L 59 3319 
L 556 3319 
L 556 3672 
Q 556 4006 616 4169 
Q 697 4388 901 4523 
Q 1106 4659 1475 4659 
Q 1713 4659 2000 4603 
L 1916 4113 
Q 1741 4144 1584 4144 
Q 1328 4144 1222 4034 
Q 1116 3925 1116 3625 
L 1116 3319 
L 1763 3319 
L 1763 2881 
L 1116 2881 
L 1116 0 
L 556 0 
z
" transform="scale(0.015625)"/>
      <path id="ArialMT-65" d="M 2694 1069 
L 3275 997 
Q 3138 488 2766 206 
Q 2394 -75 1816 -75 
Q 1088 -75 661 373 
Q 234 822 234 1631 
Q 234 2469 665 2931 
Q 1097 3394 1784 3394 
Q 2450 3394 2872 2941 
Q 3294 2488 3294 1666 
Q 3294 1616 3291 1516 
L 816 1516 
Q 847 969 1125 678 
Q 1403 388 1819 388 
Q 2128 388 2347 550 
Q 2566 713 2694 1069 
z
M 847 1978 
L 2700 1978 
Q 2663 2397 2488 2606 
Q 2219 2931 1791 2931 
Q 1403 2931 1139 2672 
Q 875 2413 847 1978 
z
" transform="scale(0.015625)"/>
      <path id="ArialMT-4d" d="M 475 0 
L 475 4581 
L 1388 4581 
L 2472 1338 
Q 2622 884 2691 659 
Q 2769 909 2934 1394 
L 4031 4581 
L 4847 4581 
L 4847 0 
L 4263 0 
L 4263 3834 
L 2931 0 
L 2384 0 
L 1059 3900 
L 1059 0 
L 475 0 
z
" transform="scale(0.015625)"/>
      <path id="ArialMT-75" d="M 2597 0 
L 2597 488 
Q 2209 -75 1544 -75 
Q 1250 -75 995 37 
Q 741 150 617 320 
Q 494 491 444 738 
Q 409 903 409 1263 
L 409 3319 
L 972 3319 
L 972 1478 
Q 972 1038 1006 884 
Q 1059 663 1231 536 
Q 1403 409 1656 409 
Q 1909 409 2131 539 
Q 2353 669 2445 892 
Q 2538 1116 2538 1541 
L 2538 3319 
L 3100 3319 
L 3100 0 
L 2597 0 
z
" transform="scale(0.015625)"/>
     </defs>
     <use xlink:href="#ArialMT-22"/>
     <use xlink:href="#ArialMT-41" x="35.498047"/>
     <use xlink:href="#ArialMT-69" x="102.197266"/>
     <use xlink:href="#ArialMT-64" x="124.414062"/>
     <use xlink:href="#ArialMT-61" x="180.029297"/>
     <use xlink:href="#ArialMT-5f" x="235.644531"/>
     <use xlink:href="#ArialMT-42" x="291.259766"/>
     <use xlink:href="#ArialMT-41" x="357.958984"/>
     <use xlink:href="#ArialMT-5f" x="424.658203"/>
     <use xlink:href="#ArialMT-74" x="480.273438"/>
     <use xlink:href="#ArialMT-72" x="508.056641"/>
     <use xlink:href="#ArialMT-61" x="541.357422"/>
     <use xlink:href="#ArialMT-6e" x="596.972656"/>
     <use xlink:href="#ArialMT-73" x="652.587891"/>
     <use xlink:href="#ArialMT-69" x="702.587891"/>
     <use xlink:href="#ArialMT-74" x="724.804688"/>
     <use xlink:href="#ArialMT-69" x="752.587891"/>
     <use xlink:href="#ArialMT-6f" x="774.804688"/>
     <use xlink:href="#ArialMT-6e" x="830.419922"/>
     <use xlink:href="#ArialMT-22" x="886.035156"/>
     <use xlink:href="#ArialMT-20" x="921.533203"/>
     <use xlink:href="#ArialMT-66" x="949.316406"/>
     <use xlink:href="#ArialMT-6f" x="977.099609"/>
     <use xlink:href="#ArialMT-72" x="1032.714844"/>
     <use xlink:href="#ArialMT-20" x="1066.015625"/>
     <use xlink:href="#ArialMT-64" x="1093.798828"/>
     <use xlink:href="#ArialMT-61" x="1149.414062"/>
     <use xlink:href="#ArialMT-74" x="1205.029297"/>
     <use xlink:href="#ArialMT-61" x="1232.8125"/>
     <use xlink:href="#ArialMT-73" x="1288.427734"/>
     <use xlink:href="#ArialMT-65" x="1338.427734"/>
     <use xlink:href="#ArialMT-74" x="1394.042969"/>
     <use xlink:href="#ArialMT-20" x="1421.826172"/>
     <use xlink:href="#ArialMT-4d" x="1449.609375"/>
     <use xlink:href="#ArialMT-6f" x="1532.910156"/>
     <use xlink:href="#ArialMT-75" x="1588.525391"/>
     <use xlink:href="#ArialMT-73" x="1644.140625"/>
     <use xlink:href="#ArialMT-65" x="1694.140625"/>
     <use xlink:href="#ArialMT-5f" x="1749.755859"/>
     <use xlink:href="#ArialMT-6e" x="1805.371094"/>
     <use xlink:href="#ArialMT-6f" x="1860.986328"/>
     <use xlink:href="#ArialMT-6e" x="1916.601562"/>
     <use xlink:href="#ArialMT-5f" x="1972.216797"/>
     <use xlink:href="#ArialMT-74" x="2027.832031"/>
     <use xlink:href="#ArialMT-61" x="2055.615234"/>
     <use xlink:href="#ArialMT-74" x="2111.230469"/>
     <use xlink:href="#ArialMT-61" x="2139.013672"/>
    </g>
   </g>
   <g id="legend_1">
    <g id="line2d_37">
     <path d="M 56.720781 34.593437 
L 66.720781 34.593437 
L 76.720781 34.593437 
" style="fill: none; stroke: #0272a2; stroke-width: 1.75; stroke-linecap: round"/>
    </g>
    <g id="text_38">
     <!-- Promoter -->
     <g style="fill: #262626" transform="translate(84.720781 38.093437) scale(0.1 -0.1)">
      <defs>
       <path id="ArialMT-6d" d="M 422 0 
L 422 3319 
L 925 3319 
L 925 2853 
Q 1081 3097 1340 3245 
Q 1600 3394 1931 3394 
Q 2300 3394 2536 3241 
Q 2772 3088 2869 2813 
Q 3263 3394 3894 3394 
Q 4388 3394 4653 3120 
Q 4919 2847 4919 2278 
L 4919 0 
L 4359 0 
L 4359 2091 
Q 4359 2428 4304 2576 
Q 4250 2725 4106 2815 
Q 3963 2906 3769 2906 
Q 3419 2906 3187 2673 
Q 2956 2441 2956 1928 
L 2956 0 
L 2394 0 
L 2394 2156 
Q 2394 2531 2256 2718 
Q 2119 2906 1806 2906 
Q 1569 2906 1367 2781 
Q 1166 2656 1075 2415 
Q 984 2175 984 1722 
L 984 0 
L 422 0 
z
" transform="scale(0.015625)"/>
      </defs>
      <use xlink:href="#ArialMT-50"/>
      <use xlink:href="#ArialMT-72" x="66.699219"/>
      <use xlink:href="#ArialMT-6f" x="100"/>
      <use xlink:href="#ArialMT-6d" x="155.615234"/>
      <use xlink:href="#ArialMT-6f" x="238.916016"/>
      <use xlink:href="#ArialMT-74" x="294.53125"/>
      <use xlink:href="#ArialMT-65" x="322.314453"/>
      <use xlink:href="#ArialMT-72" x="377.929688"/>
     </g>
    </g>
    <g id="line2d_38">
     <path d="M 56.720781 48.73875 
L 66.720781 48.73875 
L 76.720781 48.73875 
" style="fill: none; stroke-dasharray: 1.75,2.8875; stroke-dashoffset: 0; stroke: #9fc377; stroke-width: 1.75"/>
    </g>
    <g id="text_39">
     <!-- Non-promoter -->
     <g style="fill: #262626" transform="translate(84.720781 52.23875) scale(0.1 -0.1)">
      <defs>
       <path id="ArialMT-4e" d="M 488 0 
L 488 4581 
L 1109 4581 
L 3516 984 
L 3516 4581 
L 4097 4581 
L 4097 0 
L 3475 0 
L 1069 3600 
L 1069 0 
L 488 0 
z
" transform="scale(0.015625)"/>
       <path id="ArialMT-70" d="M 422 -1272 
L 422 3319 
L 934 3319 
L 934 2888 
Q 1116 3141 1344 3267 
Q 1572 3394 1897 3394 
Q 2322 3394 2647 3175 
Q 2972 2956 3137 2557 
Q 3303 2159 3303 1684 
Q 3303 1175 3120 767 
Q 2938 359 2589 142 
Q 2241 -75 1856 -75 
Q 1575 -75 1351 44 
Q 1128 163 984 344 
L 984 -1272 
L 422 -1272 
z
M 931 1641 
Q 931 1000 1190 694 
Q 1450 388 1819 388 
Q 2194 388 2461 705 
Q 2728 1022 2728 1688 
Q 2728 2322 2467 2637 
Q 2206 2953 1844 2953 
Q 1484 2953 1207 2617 
Q 931 2281 931 1641 
z
" transform="scale(0.015625)"/>
      </defs>
      <use xlink:href="#ArialMT-4e"/>
      <use xlink:href="#ArialMT-6f" x="72.216797"/>
      <use xlink:href="#ArialMT-6e" x="127.832031"/>
      <use xlink:href="#ArialMT-2d" x="183.447266"/>
      <use xlink:href="#ArialMT-70" x="216.748047"/>
      <use xlink:href="#ArialMT-72" x="272.363281"/>
      <use xlink:href="#ArialMT-6f" x="305.664062"/>
      <use xlink:href="#ArialMT-6d" x="361.279297"/>
      <use xlink:href="#ArialMT-6f" x="444.580078"/>
      <use xlink:href="#ArialMT-74" x="500.195312"/>
      <use xlink:href="#ArialMT-65" x="527.978516"/>
      <use xlink:href="#ArialMT-72" x="583.59375"/>
     </g>
    </g>
   </g>
  </g>
 </g>
 <defs>
  <clipPath id="p41290eb81f">
   <rect x="47.720781" y="21.935625" width="446.4" height="304.92"/>
  </clipPath>
 </defs>
</svg>
