<?xml version="1.0" encoding="utf-8" standalone="no"?>
<!DOCTYPE svg PUBLIC "-//W3C//DTD SVG 1.1//EN"
  "http://www.w3.org/Graphics/SVG/1.1/DTD/svg11.dtd">
<svg xmlns:xlink="http://www.w3.org/1999/xlink" width="496.022812pt" height="375.733156pt" viewBox="0 0 496.022812 375.733156" xmlns="http://www.w3.org/2000/svg" version="1.1">
 <metadata>
  <rdf:RDF xmlns:dc="http://purl.org/dc/elements/1.1/" xmlns:cc="http://creativecommons.org/ns#" xmlns:rdf="http://www.w3.org/1999/02/22-rdf-syntax-ns#">
   <cc:Work>
    <dc:type rdf:resource="http://purl.org/dc/dcmitype/StillImage"/>
    <dc:date>2023-05-11T16:25:40.478468</dc:date>
    <dc:format>image/svg+xml</dc:format>
    <dc:creator>
     <cc:Agent>
      <dc:title>Matplotlib v3.7.1, https://matplotlib.org/</dc:title>
     </cc:Agent>
    </dc:creator>
   </cc:Work>
  </rdf:RDF>
 </metadata>
 <defs>
  <style type="text/css">*{stroke-linejoin: round; stroke-linecap: butt}</style>
 </defs>
 <g id="figure_1">
  <g id="patch_1">
   <path d="M 0 375.733156 
L 496.022812 375.733156 
L 496.022812 0 
L 0 0 
z
" style="fill: #ffffff"/>
  </g>
  <g id="axes_1">
   <g id="patch_2">
    <path d="M 42.422813 326.855625 
L 488.822812 326.855625 
L 488.822812 21.935625 
L 42.422813 21.935625 
z
" style="fill: #ffffff"/>
   </g>
   <g id="matplotlib.axis_1">
    <g id="xtick_1">
     <g id="line2d_1"/>
     <g id="text_1">
      <!-- -200 -->
      <g style="fill: #262626" transform="translate(57.466216 353.067937) rotate(-45) scale(0.1 -0.1)">
       <defs>
        <path id="ArialMT-2d" d="M 203 1375 
L 203 1941 
L 1931 1941 
L 1931 1375 
L 203 1375 
z
" transform="scale(0.015625)"/>
        <path id="ArialMT-32" d="M 3222 541 
L 3222 0 
L 194 0 
Q 188 203 259 391 
Q 375 700 629 1000 
Q 884 1300 1366 1694 
Q 2113 2306 2375 2664 
Q 2638 3022 2638 3341 
Q 2638 3675 2398 3904 
Q 2159 4134 1775 4134 
Q 1369 4134 1125 3890 
Q 881 3647 878 3216 
L 300 3275 
Q 359 3922 746 4261 
Q 1134 4600 1788 4600 
Q 2447 4600 2831 4234 
Q 3216 3869 3216 3328 
Q 3216 3053 3103 2787 
Q 2991 2522 2730 2228 
Q 2469 1934 1863 1422 
Q 1356 997 1212 845 
Q 1069 694 975 541 
L 3222 541 
z
" transform="scale(0.015625)"/>
        <path id="ArialMT-30" d="M 266 2259 
Q 266 3072 433 3567 
Q 600 4063 929 4331 
Q 1259 4600 1759 4600 
Q 2128 4600 2406 4451 
Q 2684 4303 2865 4023 
Q 3047 3744 3150 3342 
Q 3253 2941 3253 2259 
Q 3253 1453 3087 958 
Q 2922 463 2592 192 
Q 2263 -78 1759 -78 
Q 1097 -78 719 397 
Q 266 969 266 2259 
z
M 844 2259 
Q 844 1131 1108 757 
Q 1372 384 1759 384 
Q 2147 384 2411 759 
Q 2675 1134 2675 2259 
Q 2675 3391 2411 3762 
Q 2147 4134 1753 4134 
Q 1366 4134 1134 3806 
Q 844 3388 844 2259 
z
" transform="scale(0.015625)"/>
       </defs>
       <use xlink:href="#ArialMT-2d"/>
       <use xlink:href="#ArialMT-32" x="33.300781"/>
       <use xlink:href="#ArialMT-30" x="88.916016"/>
       <use xlink:href="#ArialMT-30" x="144.53125"/>
      </g>
     </g>
    </g>
    <g id="xtick_2">
     <g id="line2d_2"/>
     <g id="text_2">
      <!-- -190 -->
      <g style="fill: #262626" transform="translate(73.764135 353.067937) rotate(-45) scale(0.1 -0.1)">
       <defs>
        <path id="ArialMT-31" d="M 2384 0 
L 1822 0 
L 1822 3584 
Q 1619 3391 1289 3197 
Q 959 3003 697 2906 
L 697 3450 
Q 1169 3672 1522 3987 
Q 1875 4303 2022 4600 
L 2384 4600 
L 2384 0 
z
" transform="scale(0.015625)"/>
        <path id="ArialMT-39" d="M 350 1059 
L 891 1109 
Q 959 728 1153 556 
Q 1347 384 1650 384 
Q 1909 384 2104 503 
Q 2300 622 2425 820 
Q 2550 1019 2634 1356 
Q 2719 1694 2719 2044 
Q 2719 2081 2716 2156 
Q 2547 1888 2255 1720 
Q 1963 1553 1622 1553 
Q 1053 1553 659 1965 
Q 266 2378 266 3053 
Q 266 3750 677 4175 
Q 1088 4600 1706 4600 
Q 2153 4600 2523 4359 
Q 2894 4119 3086 3673 
Q 3278 3228 3278 2384 
Q 3278 1506 3087 986 
Q 2897 466 2520 194 
Q 2144 -78 1638 -78 
Q 1100 -78 759 220 
Q 419 519 350 1059 
z
M 2653 3081 
Q 2653 3566 2395 3850 
Q 2138 4134 1775 4134 
Q 1400 4134 1122 3828 
Q 844 3522 844 3034 
Q 844 2597 1108 2323 
Q 1372 2050 1759 2050 
Q 2150 2050 2401 2323 
Q 2653 2597 2653 3081 
z
" transform="scale(0.015625)"/>
       </defs>
       <use xlink:href="#ArialMT-2d"/>
       <use xlink:href="#ArialMT-31" x="33.300781"/>
       <use xlink:href="#ArialMT-39" x="88.916016"/>
       <use xlink:href="#ArialMT-30" x="144.53125"/>
      </g>
     </g>
    </g>
    <g id="xtick_3">
     <g id="line2d_3"/>
     <g id="text_3">
      <!-- -180 -->
      <g style="fill: #262626" transform="translate(90.062054 353.067937) rotate(-45) scale(0.1 -0.1)">
       <defs>
        <path id="ArialMT-38" d="M 1131 2484 
Q 781 2613 612 2850 
Q 444 3088 444 3419 
Q 444 3919 803 4259 
Q 1163 4600 1759 4600 
Q 2359 4600 2725 4251 
Q 3091 3903 3091 3403 
Q 3091 3084 2923 2848 
Q 2756 2613 2416 2484 
Q 2838 2347 3058 2040 
Q 3278 1734 3278 1309 
Q 3278 722 2862 322 
Q 2447 -78 1769 -78 
Q 1091 -78 675 323 
Q 259 725 259 1325 
Q 259 1772 486 2073 
Q 713 2375 1131 2484 
z
M 1019 3438 
Q 1019 3113 1228 2906 
Q 1438 2700 1772 2700 
Q 2097 2700 2305 2904 
Q 2513 3109 2513 3406 
Q 2513 3716 2298 3927 
Q 2084 4138 1766 4138 
Q 1444 4138 1231 3931 
Q 1019 3725 1019 3438 
z
M 838 1322 
Q 838 1081 952 856 
Q 1066 631 1291 507 
Q 1516 384 1775 384 
Q 2178 384 2440 643 
Q 2703 903 2703 1303 
Q 2703 1709 2433 1975 
Q 2163 2241 1756 2241 
Q 1359 2241 1098 1978 
Q 838 1716 838 1322 
z
" transform="scale(0.015625)"/>
       </defs>
       <use xlink:href="#ArialMT-2d"/>
       <use xlink:href="#ArialMT-31" x="33.300781"/>
       <use xlink:href="#ArialMT-38" x="88.916016"/>
       <use xlink:href="#ArialMT-30" x="144.53125"/>
      </g>
     </g>
    </g>
    <g id="xtick_4">
     <g id="line2d_4"/>
     <g id="text_4">
      <!-- -170 -->
      <g style="fill: #262626" transform="translate(106.359973 353.067937) rotate(-45) scale(0.1 -0.1)">
       <defs>
        <path id="ArialMT-37" d="M 303 3981 
L 303 4522 
L 3269 4522 
L 3269 4084 
Q 2831 3619 2401 2847 
Q 1972 2075 1738 1259 
Q 1569 684 1522 0 
L 944 0 
Q 953 541 1156 1306 
Q 1359 2072 1739 2783 
Q 2119 3494 2547 3981 
L 303 3981 
z
" transform="scale(0.015625)"/>
       </defs>
       <use xlink:href="#ArialMT-2d"/>
       <use xlink:href="#ArialMT-31" x="33.300781"/>
       <use xlink:href="#ArialMT-37" x="88.916016"/>
       <use xlink:href="#ArialMT-30" x="144.53125"/>
      </g>
     </g>
    </g>
    <g id="xtick_5">
     <g id="line2d_5"/>
     <g id="text_5">
      <!-- -160 -->
      <g style="fill: #262626" transform="translate(122.657892 353.067937) rotate(-45) scale(0.1 -0.1)">
       <defs>
        <path id="ArialMT-36" d="M 3184 3459 
L 2625 3416 
Q 2550 3747 2413 3897 
Q 2184 4138 1850 4138 
Q 1581 4138 1378 3988 
Q 1113 3794 959 3422 
Q 806 3050 800 2363 
Q 1003 2672 1297 2822 
Q 1591 2972 1913 2972 
Q 2475 2972 2870 2558 
Q 3266 2144 3266 1488 
Q 3266 1056 3080 686 
Q 2894 316 2569 119 
Q 2244 -78 1831 -78 
Q 1128 -78 684 439 
Q 241 956 241 2144 
Q 241 3472 731 4075 
Q 1159 4600 1884 4600 
Q 2425 4600 2770 4297 
Q 3116 3994 3184 3459 
z
M 888 1484 
Q 888 1194 1011 928 
Q 1134 663 1356 523 
Q 1578 384 1822 384 
Q 2178 384 2434 671 
Q 2691 959 2691 1453 
Q 2691 1928 2437 2201 
Q 2184 2475 1800 2475 
Q 1419 2475 1153 2201 
Q 888 1928 888 1484 
z
" transform="scale(0.015625)"/>
       </defs>
       <use xlink:href="#ArialMT-2d"/>
       <use xlink:href="#ArialMT-31" x="33.300781"/>
       <use xlink:href="#ArialMT-36" x="88.916016"/>
       <use xlink:href="#ArialMT-30" x="144.53125"/>
      </g>
     </g>
    </g>
    <g id="xtick_6">
     <g id="line2d_6"/>
     <g id="text_6">
      <!-- -150 -->
      <g style="fill: #262626" transform="translate(138.955811 353.067937) rotate(-45) scale(0.1 -0.1)">
       <defs>
        <path id="ArialMT-35" d="M 266 1200 
L 856 1250 
Q 922 819 1161 601 
Q 1400 384 1738 384 
Q 2144 384 2425 690 
Q 2706 997 2706 1503 
Q 2706 1984 2436 2262 
Q 2166 2541 1728 2541 
Q 1456 2541 1237 2417 
Q 1019 2294 894 2097 
L 366 2166 
L 809 4519 
L 3088 4519 
L 3088 3981 
L 1259 3981 
L 1013 2750 
Q 1425 3038 1878 3038 
Q 2478 3038 2890 2622 
Q 3303 2206 3303 1553 
Q 3303 931 2941 478 
Q 2500 -78 1738 -78 
Q 1113 -78 717 272 
Q 322 622 266 1200 
z
" transform="scale(0.015625)"/>
       </defs>
       <use xlink:href="#ArialMT-2d"/>
       <use xlink:href="#ArialMT-31" x="33.300781"/>
       <use xlink:href="#ArialMT-35" x="88.916016"/>
       <use xlink:href="#ArialMT-30" x="144.53125"/>
      </g>
     </g>
    </g>
    <g id="xtick_7">
     <g id="line2d_7"/>
     <g id="text_7">
      <!-- -140 -->
      <g style="fill: #262626" transform="translate(155.25373 353.067937) rotate(-45) scale(0.1 -0.1)">
       <defs>
        <path id="ArialMT-34" d="M 2069 0 
L 2069 1097 
L 81 1097 
L 81 1613 
L 2172 4581 
L 2631 4581 
L 2631 1613 
L 3250 1613 
L 3250 1097 
L 2631 1097 
L 2631 0 
L 2069 0 
z
M 2069 1613 
L 2069 3678 
L 634 1613 
L 2069 1613 
z
" transform="scale(0.015625)"/>
       </defs>
       <use xlink:href="#ArialMT-2d"/>
       <use xlink:href="#ArialMT-31" x="33.300781"/>
       <use xlink:href="#ArialMT-34" x="88.916016"/>
       <use xlink:href="#ArialMT-30" x="144.53125"/>
      </g>
     </g>
    </g>
    <g id="xtick_8">
     <g id="line2d_8"/>
     <g id="text_8">
      <!-- -130 -->
      <g style="fill: #262626" transform="translate(171.551649 353.067937) rotate(-45) scale(0.1 -0.1)">
       <defs>
        <path id="ArialMT-33" d="M 269 1209 
L 831 1284 
Q 928 806 1161 595 
Q 1394 384 1728 384 
Q 2125 384 2398 659 
Q 2672 934 2672 1341 
Q 2672 1728 2419 1979 
Q 2166 2231 1775 2231 
Q 1616 2231 1378 2169 
L 1441 2663 
Q 1497 2656 1531 2656 
Q 1891 2656 2178 2843 
Q 2466 3031 2466 3422 
Q 2466 3731 2256 3934 
Q 2047 4138 1716 4138 
Q 1388 4138 1169 3931 
Q 950 3725 888 3313 
L 325 3413 
Q 428 3978 793 4289 
Q 1159 4600 1703 4600 
Q 2078 4600 2393 4439 
Q 2709 4278 2876 4000 
Q 3044 3722 3044 3409 
Q 3044 3113 2884 2869 
Q 2725 2625 2413 2481 
Q 2819 2388 3044 2092 
Q 3269 1797 3269 1353 
Q 3269 753 2831 336 
Q 2394 -81 1725 -81 
Q 1122 -81 723 278 
Q 325 638 269 1209 
z
" transform="scale(0.015625)"/>
       </defs>
       <use xlink:href="#ArialMT-2d"/>
       <use xlink:href="#ArialMT-31" x="33.300781"/>
       <use xlink:href="#ArialMT-33" x="88.916016"/>
       <use xlink:href="#ArialMT-30" x="144.53125"/>
      </g>
     </g>
    </g>
    <g id="xtick_9">
     <g id="line2d_9"/>
     <g id="text_9">
      <!-- -120 -->
      <g style="fill: #262626" transform="translate(187.849567 353.067937) rotate(-45) scale(0.1 -0.1)">
       <use xlink:href="#ArialMT-2d"/>
       <use xlink:href="#ArialMT-31" x="33.300781"/>
       <use xlink:href="#ArialMT-32" x="88.916016"/>
       <use xlink:href="#ArialMT-30" x="144.53125"/>
      </g>
     </g>
    </g>
    <g id="xtick_10">
     <g id="line2d_10"/>
     <g id="text_10">
      <!-- -110 -->
      <g style="fill: #262626" transform="translate(204.408232 352.546446) rotate(-45) scale(0.1 -0.1)">
       <use xlink:href="#ArialMT-2d"/>
       <use xlink:href="#ArialMT-31" x="33.300781"/>
       <use xlink:href="#ArialMT-31" x="81.541016"/>
       <use xlink:href="#ArialMT-30" x="137.15625"/>
      </g>
     </g>
    </g>
    <g id="xtick_11">
     <g id="line2d_11"/>
     <g id="text_11">
      <!-- -100 -->
      <g style="fill: #262626" transform="translate(220.445405 353.067937) rotate(-45) scale(0.1 -0.1)">
       <use xlink:href="#ArialMT-2d"/>
       <use xlink:href="#ArialMT-31" x="33.300781"/>
       <use xlink:href="#ArialMT-30" x="88.916016"/>
       <use xlink:href="#ArialMT-30" x="144.53125"/>
      </g>
     </g>
    </g>
    <g id="xtick_12">
     <g id="line2d_12"/>
     <g id="text_12">
      <!-- -90 -->
      <g style="fill: #262626" transform="translate(238.709413 349.135761) rotate(-45) scale(0.1 -0.1)">
       <use xlink:href="#ArialMT-2d"/>
       <use xlink:href="#ArialMT-39" x="33.300781"/>
       <use xlink:href="#ArialMT-30" x="88.916016"/>
      </g>
     </g>
    </g>
    <g id="xtick_13">
     <g id="line2d_13"/>
     <g id="text_13">
      <!-- -80 -->
      <g style="fill: #262626" transform="translate(255.007332 349.135761) rotate(-45) scale(0.1 -0.1)">
       <use xlink:href="#ArialMT-2d"/>
       <use xlink:href="#ArialMT-38" x="33.300781"/>
       <use xlink:href="#ArialMT-30" x="88.916016"/>
      </g>
     </g>
    </g>
    <g id="xtick_14">
     <g id="line2d_14"/>
     <g id="text_14">
      <!-- -70 -->
      <g style="fill: #262626" transform="translate(271.305251 349.135761) rotate(-45) scale(0.1 -0.1)">
       <use xlink:href="#ArialMT-2d"/>
       <use xlink:href="#ArialMT-37" x="33.300781"/>
       <use xlink:href="#ArialMT-30" x="88.916016"/>
      </g>
     </g>
    </g>
    <g id="xtick_15">
     <g id="line2d_15"/>
     <g id="text_15">
      <!-- -60 -->
      <g style="fill: #262626" transform="translate(287.603169 349.135761) rotate(-45) scale(0.1 -0.1)">
       <use xlink:href="#ArialMT-2d"/>
       <use xlink:href="#ArialMT-36" x="33.300781"/>
       <use xlink:href="#ArialMT-30" x="88.916016"/>
      </g>
     </g>
    </g>
    <g id="xtick_16">
     <g id="line2d_16"/>
     <g id="text_16">
      <!-- -50 -->
      <g style="fill: #262626" transform="translate(303.901088 349.135761) rotate(-45) scale(0.1 -0.1)">
       <use xlink:href="#ArialMT-2d"/>
       <use xlink:href="#ArialMT-35" x="33.300781"/>
       <use xlink:href="#ArialMT-30" x="88.916016"/>
      </g>
     </g>
    </g>
    <g id="xtick_17">
     <g id="line2d_17"/>
     <g id="text_17">
      <!-- -40 -->
      <g style="fill: #262626" transform="translate(320.199007 349.135761) rotate(-45) scale(0.1 -0.1)">
       <use xlink:href="#ArialMT-2d"/>
       <use xlink:href="#ArialMT-34" x="33.300781"/>
       <use xlink:href="#ArialMT-30" x="88.916016"/>
      </g>
     </g>
    </g>
    <g id="xtick_18">
     <g id="line2d_18"/>
     <g id="text_18">
      <!-- -30 -->
      <g style="fill: #262626" transform="translate(336.496926 349.135761) rotate(-45) scale(0.1 -0.1)">
       <use xlink:href="#ArialMT-2d"/>
       <use xlink:href="#ArialMT-33" x="33.300781"/>
       <use xlink:href="#ArialMT-30" x="88.916016"/>
      </g>
     </g>
    </g>
    <g id="xtick_19">
     <g id="line2d_19"/>
     <g id="text_19">
      <!-- -20 -->
      <g style="fill: #262626" transform="translate(352.794845 349.135761) rotate(-45) scale(0.1 -0.1)">
       <use xlink:href="#ArialMT-2d"/>
       <use xlink:href="#ArialMT-32" x="33.300781"/>
       <use xlink:href="#ArialMT-30" x="88.916016"/>
      </g>
     </g>
    </g>
    <g id="xtick_20">
     <g id="line2d_20"/>
     <g id="text_20">
      <!-- -10 -->
      <g style="fill: #262626" transform="translate(369.092764 349.135761) rotate(-45) scale(0.1 -0.1)">
       <use xlink:href="#ArialMT-2d"/>
       <use xlink:href="#ArialMT-31" x="33.300781"/>
       <use xlink:href="#ArialMT-30" x="88.916016"/>
      </g>
     </g>
    </g>
    <g id="xtick_21">
     <g id="line2d_21"/>
     <g id="text_21">
      <!-- 0 -->
      <g style="fill: #262626" transform="translate(388.533994 342.849139) rotate(-45) scale(0.1 -0.1)">
       <use xlink:href="#ArialMT-30"/>
      </g>
     </g>
    </g>
    <g id="xtick_22">
     <g id="line2d_22"/>
     <g id="text_22">
      <!-- 10 -->
      <g style="fill: #262626" transform="translate(402.865824 346.781316) rotate(-45) scale(0.1 -0.1)">
       <use xlink:href="#ArialMT-31"/>
       <use xlink:href="#ArialMT-30" x="55.615234"/>
      </g>
     </g>
    </g>
    <g id="xtick_23">
     <g id="line2d_23"/>
     <g id="text_23">
      <!-- 20 -->
      <g style="fill: #262626" transform="translate(419.163743 346.781316) rotate(-45) scale(0.1 -0.1)">
       <use xlink:href="#ArialMT-32"/>
       <use xlink:href="#ArialMT-30" x="55.615234"/>
      </g>
     </g>
    </g>
    <g id="xtick_24">
     <g id="line2d_24"/>
     <g id="text_24">
      <!-- 30 -->
      <g style="fill: #262626" transform="translate(435.461662 346.781316) rotate(-45) scale(0.1 -0.1)">
       <use xlink:href="#ArialMT-33"/>
       <use xlink:href="#ArialMT-30" x="55.615234"/>
      </g>
     </g>
    </g>
    <g id="xtick_25">
     <g id="line2d_25"/>
     <g id="text_25">
      <!-- 40 -->
      <g style="fill: #262626" transform="translate(451.759581 346.781316) rotate(-45) scale(0.1 -0.1)">
       <use xlink:href="#ArialMT-34"/>
       <use xlink:href="#ArialMT-30" x="55.615234"/>
      </g>
     </g>
    </g>
    <g id="xtick_26">
     <g id="line2d_26"/>
     <g id="text_26">
      <!-- 50 -->
      <g style="fill: #262626" transform="translate(468.0575 346.781316) rotate(-45) scale(0.1 -0.1)">
       <use xlink:href="#ArialMT-35"/>
       <use xlink:href="#ArialMT-30" x="55.615234"/>
      </g>
     </g>
    </g>
    <g id="text_27">
     <!-- Position -->
     <g style="fill: #262626" transform="translate(246.056563 366.346906) scale(0.11 -0.11)">
      <defs>
       <path id="ArialMT-50" d="M 494 0 
L 494 4581 
L 2222 4581 
Q 2678 4581 2919 4538 
Q 3256 4481 3484 4323 
Q 3713 4166 3852 3881 
Q 3991 3597 3991 3256 
Q 3991 2672 3619 2267 
Q 3247 1863 2275 1863 
L 1100 1863 
L 1100 0 
L 494 0 
z
M 1100 2403 
L 2284 2403 
Q 2872 2403 3119 2622 
Q 3366 2841 3366 3238 
Q 3366 3525 3220 3729 
Q 3075 3934 2838 4000 
Q 2684 4041 2272 4041 
L 1100 4041 
L 1100 2403 
z
" transform="scale(0.015625)"/>
       <path id="ArialMT-6f" d="M 213 1659 
Q 213 2581 725 3025 
Q 1153 3394 1769 3394 
Q 2453 3394 2887 2945 
Q 3322 2497 3322 1706 
Q 3322 1066 3130 698 
Q 2938 331 2570 128 
Q 2203 -75 1769 -75 
Q 1072 -75 642 372 
Q 213 819 213 1659 
z
M 791 1659 
Q 791 1022 1069 705 
Q 1347 388 1769 388 
Q 2188 388 2466 706 
Q 2744 1025 2744 1678 
Q 2744 2294 2464 2611 
Q 2184 2928 1769 2928 
Q 1347 2928 1069 2612 
Q 791 2297 791 1659 
z
" transform="scale(0.015625)"/>
       <path id="ArialMT-73" d="M 197 991 
L 753 1078 
Q 800 744 1014 566 
Q 1228 388 1613 388 
Q 2000 388 2187 545 
Q 2375 703 2375 916 
Q 2375 1106 2209 1216 
Q 2094 1291 1634 1406 
Q 1016 1563 777 1677 
Q 538 1791 414 1992 
Q 291 2194 291 2438 
Q 291 2659 392 2848 
Q 494 3038 669 3163 
Q 800 3259 1026 3326 
Q 1253 3394 1513 3394 
Q 1903 3394 2198 3281 
Q 2494 3169 2634 2976 
Q 2775 2784 2828 2463 
L 2278 2388 
Q 2241 2644 2061 2787 
Q 1881 2931 1553 2931 
Q 1166 2931 1000 2803 
Q 834 2675 834 2503 
Q 834 2394 903 2306 
Q 972 2216 1119 2156 
Q 1203 2125 1616 2013 
Q 2213 1853 2448 1751 
Q 2684 1650 2818 1456 
Q 2953 1263 2953 975 
Q 2953 694 2789 445 
Q 2625 197 2315 61 
Q 2006 -75 1616 -75 
Q 969 -75 630 194 
Q 291 463 197 991 
z
" transform="scale(0.015625)"/>
       <path id="ArialMT-69" d="M 425 3934 
L 425 4581 
L 988 4581 
L 988 3934 
L 425 3934 
z
M 425 0 
L 425 3319 
L 988 3319 
L 988 0 
L 425 0 
z
" transform="scale(0.015625)"/>
       <path id="ArialMT-74" d="M 1650 503 
L 1731 6 
Q 1494 -44 1306 -44 
Q 1000 -44 831 53 
Q 663 150 594 308 
Q 525 466 525 972 
L 525 2881 
L 113 2881 
L 113 3319 
L 525 3319 
L 525 4141 
L 1084 4478 
L 1084 3319 
L 1650 3319 
L 1650 2881 
L 1084 2881 
L 1084 941 
Q 1084 700 1114 631 
Q 1144 563 1211 522 
Q 1278 481 1403 481 
Q 1497 481 1650 503 
z
" transform="scale(0.015625)"/>
       <path id="ArialMT-6e" d="M 422 0 
L 422 3319 
L 928 3319 
L 928 2847 
Q 1294 3394 1984 3394 
Q 2284 3394 2536 3286 
Q 2788 3178 2913 3003 
Q 3038 2828 3088 2588 
Q 3119 2431 3119 2041 
L 3119 0 
L 2556 0 
L 2556 2019 
Q 2556 2363 2490 2533 
Q 2425 2703 2258 2804 
Q 2091 2906 1866 2906 
Q 1506 2906 1245 2678 
Q 984 2450 984 1813 
L 984 0 
L 422 0 
z
" transform="scale(0.015625)"/>
      </defs>
      <use xlink:href="#ArialMT-50"/>
      <use xlink:href="#ArialMT-6f" x="66.699219"/>
      <use xlink:href="#ArialMT-73" x="122.314453"/>
      <use xlink:href="#ArialMT-69" x="172.314453"/>
      <use xlink:href="#ArialMT-74" x="194.53125"/>
      <use xlink:href="#ArialMT-69" x="222.314453"/>
      <use xlink:href="#ArialMT-6f" x="244.53125"/>
      <use xlink:href="#ArialMT-6e" x="300.146484"/>
     </g>
    </g>
   </g>
   <g id="matplotlib.axis_2">
    <g id="ytick_1">
     <g id="line2d_27"/>
     <g id="text_28">
      <!-- 2.0 -->
      <g style="fill: #262626" transform="translate(21.522813 276.829339) scale(0.1 -0.1)">
       <defs>
        <path id="ArialMT-2e" d="M 581 0 
L 581 641 
L 1222 641 
L 1222 0 
L 581 0 
z
" transform="scale(0.015625)"/>
       </defs>
       <use xlink:href="#ArialMT-32"/>
       <use xlink:href="#ArialMT-2e" x="55.615234"/>
       <use xlink:href="#ArialMT-30" x="83.398438"/>
      </g>
     </g>
    </g>
    <g id="ytick_2">
     <g id="line2d_28"/>
     <g id="text_29">
      <!-- 2.5 -->
      <g style="fill: #262626" transform="translate(21.522813 209.9369) scale(0.1 -0.1)">
       <use xlink:href="#ArialMT-32"/>
       <use xlink:href="#ArialMT-2e" x="55.615234"/>
       <use xlink:href="#ArialMT-35" x="83.398438"/>
      </g>
     </g>
    </g>
    <g id="ytick_3">
     <g id="line2d_29"/>
     <g id="text_30">
      <!-- 3.0 -->
      <g style="fill: #262626" transform="translate(21.522813 143.04446) scale(0.1 -0.1)">
       <use xlink:href="#ArialMT-33"/>
       <use xlink:href="#ArialMT-2e" x="55.615234"/>
       <use xlink:href="#ArialMT-30" x="83.398438"/>
      </g>
     </g>
    </g>
    <g id="ytick_4">
     <g id="line2d_30"/>
     <g id="text_31">
      <!-- 3.5 -->
      <g style="fill: #262626" transform="translate(21.522813 76.152021) scale(0.1 -0.1)">
       <use xlink:href="#ArialMT-33"/>
       <use xlink:href="#ArialMT-2e" x="55.615234"/>
       <use xlink:href="#ArialMT-35" x="83.398438"/>
      </g>
     </g>
    </g>
    <g id="text_32">
     <!-- Stabilising energy of Z-DNA -->
     <g style="fill: #262626" transform="translate(15.207656 242.253594) rotate(-90) scale(0.11 -0.11)">
      <defs>
       <path id="ArialMT-53" d="M 288 1472 
L 859 1522 
Q 900 1178 1048 958 
Q 1197 738 1509 602 
Q 1822 466 2213 466 
Q 2559 466 2825 569 
Q 3091 672 3220 851 
Q 3350 1031 3350 1244 
Q 3350 1459 3225 1620 
Q 3100 1781 2813 1891 
Q 2628 1963 1997 2114 
Q 1366 2266 1113 2400 
Q 784 2572 623 2826 
Q 463 3081 463 3397 
Q 463 3744 659 4045 
Q 856 4347 1234 4503 
Q 1613 4659 2075 4659 
Q 2584 4659 2973 4495 
Q 3363 4331 3572 4012 
Q 3781 3694 3797 3291 
L 3216 3247 
Q 3169 3681 2898 3903 
Q 2628 4125 2100 4125 
Q 1550 4125 1298 3923 
Q 1047 3722 1047 3438 
Q 1047 3191 1225 3031 
Q 1400 2872 2139 2705 
Q 2878 2538 3153 2413 
Q 3553 2228 3743 1945 
Q 3934 1663 3934 1294 
Q 3934 928 3725 604 
Q 3516 281 3123 101 
Q 2731 -78 2241 -78 
Q 1619 -78 1198 103 
Q 778 284 539 648 
Q 300 1013 288 1472 
z
" transform="scale(0.015625)"/>
       <path id="ArialMT-61" d="M 2588 409 
Q 2275 144 1986 34 
Q 1697 -75 1366 -75 
Q 819 -75 525 192 
Q 231 459 231 875 
Q 231 1119 342 1320 
Q 453 1522 633 1644 
Q 813 1766 1038 1828 
Q 1203 1872 1538 1913 
Q 2219 1994 2541 2106 
Q 2544 2222 2544 2253 
Q 2544 2597 2384 2738 
Q 2169 2928 1744 2928 
Q 1347 2928 1158 2789 
Q 969 2650 878 2297 
L 328 2372 
Q 403 2725 575 2942 
Q 747 3159 1072 3276 
Q 1397 3394 1825 3394 
Q 2250 3394 2515 3294 
Q 2781 3194 2906 3042 
Q 3031 2891 3081 2659 
Q 3109 2516 3109 2141 
L 3109 1391 
Q 3109 606 3145 398 
Q 3181 191 3288 0 
L 2700 0 
Q 2613 175 2588 409 
z
M 2541 1666 
Q 2234 1541 1622 1453 
Q 1275 1403 1131 1340 
Q 988 1278 909 1158 
Q 831 1038 831 891 
Q 831 666 1001 516 
Q 1172 366 1500 366 
Q 1825 366 2078 508 
Q 2331 650 2450 897 
Q 2541 1088 2541 1459 
L 2541 1666 
z
" transform="scale(0.015625)"/>
       <path id="ArialMT-62" d="M 941 0 
L 419 0 
L 419 4581 
L 981 4581 
L 981 2947 
Q 1338 3394 1891 3394 
Q 2197 3394 2470 3270 
Q 2744 3147 2920 2923 
Q 3097 2700 3197 2384 
Q 3297 2069 3297 1709 
Q 3297 856 2875 390 
Q 2453 -75 1863 -75 
Q 1275 -75 941 416 
L 941 0 
z
M 934 1684 
Q 934 1088 1097 822 
Q 1363 388 1816 388 
Q 2184 388 2453 708 
Q 2722 1028 2722 1663 
Q 2722 2313 2464 2622 
Q 2206 2931 1841 2931 
Q 1472 2931 1203 2611 
Q 934 2291 934 1684 
z
" transform="scale(0.015625)"/>
       <path id="ArialMT-6c" d="M 409 0 
L 409 4581 
L 972 4581 
L 972 0 
L 409 0 
z
" transform="scale(0.015625)"/>
       <path id="ArialMT-67" d="M 319 -275 
L 866 -356 
Q 900 -609 1056 -725 
Q 1266 -881 1628 -881 
Q 2019 -881 2231 -725 
Q 2444 -569 2519 -288 
Q 2563 -116 2559 434 
Q 2191 0 1641 0 
Q 956 0 581 494 
Q 206 988 206 1678 
Q 206 2153 378 2554 
Q 550 2956 876 3175 
Q 1203 3394 1644 3394 
Q 2231 3394 2613 2919 
L 2613 3319 
L 3131 3319 
L 3131 450 
Q 3131 -325 2973 -648 
Q 2816 -972 2473 -1159 
Q 2131 -1347 1631 -1347 
Q 1038 -1347 672 -1080 
Q 306 -813 319 -275 
z
M 784 1719 
Q 784 1066 1043 766 
Q 1303 466 1694 466 
Q 2081 466 2343 764 
Q 2606 1063 2606 1700 
Q 2606 2309 2336 2618 
Q 2066 2928 1684 2928 
Q 1309 2928 1046 2623 
Q 784 2319 784 1719 
z
" transform="scale(0.015625)"/>
       <path id="ArialMT-20" transform="scale(0.015625)"/>
       <path id="ArialMT-65" d="M 2694 1069 
L 3275 997 
Q 3138 488 2766 206 
Q 2394 -75 1816 -75 
Q 1088 -75 661 373 
Q 234 822 234 1631 
Q 234 2469 665 2931 
Q 1097 3394 1784 3394 
Q 2450 3394 2872 2941 
Q 3294 2488 3294 1666 
Q 3294 1616 3291 1516 
L 816 1516 
Q 847 969 1125 678 
Q 1403 388 1819 388 
Q 2128 388 2347 550 
Q 2566 713 2694 1069 
z
M 847 1978 
L 2700 1978 
Q 2663 2397 2488 2606 
Q 2219 2931 1791 2931 
Q 1403 2931 1139 2672 
Q 875 2413 847 1978 
z
" transform="scale(0.015625)"/>
       <path id="ArialMT-72" d="M 416 0 
L 416 3319 
L 922 3319 
L 922 2816 
Q 1116 3169 1280 3281 
Q 1444 3394 1641 3394 
Q 1925 3394 2219 3213 
L 2025 2691 
Q 1819 2813 1613 2813 
Q 1428 2813 1281 2702 
Q 1134 2591 1072 2394 
Q 978 2094 978 1738 
L 978 0 
L 416 0 
z
" transform="scale(0.015625)"/>
       <path id="ArialMT-79" d="M 397 -1278 
L 334 -750 
Q 519 -800 656 -800 
Q 844 -800 956 -737 
Q 1069 -675 1141 -563 
Q 1194 -478 1313 -144 
Q 1328 -97 1363 -6 
L 103 3319 
L 709 3319 
L 1400 1397 
Q 1534 1031 1641 628 
Q 1738 1016 1872 1384 
L 2581 3319 
L 3144 3319 
L 1881 -56 
Q 1678 -603 1566 -809 
Q 1416 -1088 1222 -1217 
Q 1028 -1347 759 -1347 
Q 597 -1347 397 -1278 
z
" transform="scale(0.015625)"/>
       <path id="ArialMT-66" d="M 556 0 
L 556 2881 
L 59 2881 
L 59 3319 
L 556 3319 
L 556 3672 
Q 556 4006 616 4169 
Q 697 4388 901 4523 
Q 1106 4659 1475 4659 
Q 1713 4659 2000 4603 
L 1916 4113 
Q 1741 4144 1584 4144 
Q 1328 4144 1222 4034 
Q 1116 3925 1116 3625 
L 1116 3319 
L 1763 3319 
L 1763 2881 
L 1116 2881 
L 1116 0 
L 556 0 
z
" transform="scale(0.015625)"/>
       <path id="ArialMT-5a" d="M 128 0 
L 128 563 
L 2475 3497 
Q 2725 3809 2950 4041 
L 394 4041 
L 394 4581 
L 3675 4581 
L 3675 4041 
L 1103 863 
L 825 541 
L 3750 541 
L 3750 0 
L 128 0 
z
" transform="scale(0.015625)"/>
       <path id="ArialMT-44" d="M 494 0 
L 494 4581 
L 2072 4581 
Q 2606 4581 2888 4516 
Q 3281 4425 3559 4188 
Q 3922 3881 4101 3404 
Q 4281 2928 4281 2316 
Q 4281 1794 4159 1391 
Q 4038 988 3847 723 
Q 3656 459 3429 307 
Q 3203 156 2883 78 
Q 2563 0 2147 0 
L 494 0 
z
M 1100 541 
L 2078 541 
Q 2531 541 2789 625 
Q 3047 709 3200 863 
Q 3416 1078 3536 1442 
Q 3656 1806 3656 2325 
Q 3656 3044 3420 3430 
Q 3184 3816 2847 3947 
Q 2603 4041 2063 4041 
L 1100 4041 
L 1100 541 
z
" transform="scale(0.015625)"/>
       <path id="ArialMT-4e" d="M 488 0 
L 488 4581 
L 1109 4581 
L 3516 984 
L 3516 4581 
L 4097 4581 
L 4097 0 
L 3475 0 
L 1069 3600 
L 1069 0 
L 488 0 
z
" transform="scale(0.015625)"/>
       <path id="ArialMT-41" d="M -9 0 
L 1750 4581 
L 2403 4581 
L 4278 0 
L 3588 0 
L 3053 1388 
L 1138 1388 
L 634 0 
L -9 0 
z
M 1313 1881 
L 2866 1881 
L 2388 3150 
Q 2169 3728 2063 4100 
Q 1975 3659 1816 3225 
L 1313 1881 
z
" transform="scale(0.015625)"/>
      </defs>
      <use xlink:href="#ArialMT-53"/>
      <use xlink:href="#ArialMT-74" x="66.699219"/>
      <use xlink:href="#ArialMT-61" x="94.482422"/>
      <use xlink:href="#ArialMT-62" x="150.097656"/>
      <use xlink:href="#ArialMT-69" x="205.712891"/>
      <use xlink:href="#ArialMT-6c" x="227.929688"/>
      <use xlink:href="#ArialMT-69" x="250.146484"/>
      <use xlink:href="#ArialMT-73" x="272.363281"/>
      <use xlink:href="#ArialMT-69" x="322.363281"/>
      <use xlink:href="#ArialMT-6e" x="344.580078"/>
      <use xlink:href="#ArialMT-67" x="400.195312"/>
      <use xlink:href="#ArialMT-20" x="455.810547"/>
      <use xlink:href="#ArialMT-65" x="483.59375"/>
      <use xlink:href="#ArialMT-6e" x="539.208984"/>
      <use xlink:href="#ArialMT-65" x="594.824219"/>
      <use xlink:href="#ArialMT-72" x="650.439453"/>
      <use xlink:href="#ArialMT-67" x="683.740234"/>
      <use xlink:href="#ArialMT-79" x="739.355469"/>
      <use xlink:href="#ArialMT-20" x="789.355469"/>
      <use xlink:href="#ArialMT-6f" x="817.138672"/>
      <use xlink:href="#ArialMT-66" x="872.753906"/>
      <use xlink:href="#ArialMT-20" x="900.537109"/>
      <use xlink:href="#ArialMT-5a" x="928.320312"/>
      <use xlink:href="#ArialMT-2d" x="989.404297"/>
      <use xlink:href="#ArialMT-44" x="1022.705078"/>
      <use xlink:href="#ArialMT-4e" x="1094.921875"/>
      <use xlink:href="#ArialMT-41" x="1167.138672"/>
     </g>
    </g>
   </g>
   <g id="line2d_31">
    <path d="M 62.713722 125.655714 
L 64.343513 125.032924 
L 65.973305 128.008843 
L 67.603097 126.141294 
L 69.232889 126.581683 
L 70.862681 127.371263 
L 72.492473 126.079672 
L 74.122265 127.24802 
L 75.752057 125.212038 
L 77.381849 127.914356 
L 79.011641 127.194614 
L 80.641432 127.404128 
L 82.271224 126.509381 
L 83.901016 128.563438 
L 85.530808 127.181468 
L 87.1606 128.845255 
L 88.790392 126.470764 
L 90.420184 129.214164 
L 92.049976 129.587181 
L 93.679768 128.792671 
L 95.309559 127.394269 
L 96.939351 127.844518 
L 98.569143 131.615768 
L 100.198935 126.034483 
L 101.828727 128.488671 
L 103.458519 129.005471 
L 105.088311 127.966118 
L 106.718103 130.942859 
L 108.347895 128.267654 
L 109.977687 129.376023 
L 111.607478 128.784455 
L 113.23727 131.939487 
L 114.867062 129.660305 
L 116.496854 132.222947 
L 118.126646 130.610101 
L 119.756438 132.294428 
L 121.38623 128.337492 
L 123.016022 130.957648 
L 124.645814 129.491051 
L 126.275605 130.79661 
L 127.905397 131.432546 
L 129.535189 128.428692 
L 131.164981 131.75873 
L 132.794773 130.443312 
L 134.424565 130.838512 
L 136.054357 128.596303 
L 137.684149 130.799075 
L 139.313941 130.688155 
L 140.943733 133.506322 
L 142.573524 129.849278 
L 144.203316 133.443879 
L 145.833108 131.133475 
L 147.4629 130.63968 
L 149.092692 133.800463 
L 150.722484 132.205693 
L 152.352276 132.098882 
L 153.982068 133.051965 
L 155.61186 133.270517 
L 157.241651 133.76842 
L 158.871443 131.188524 
L 160.501235 133.941783 
L 162.131027 132.337974 
L 163.760819 133.399511 
L 165.390611 133.475922 
L 168.650195 134.602368 
L 170.279987 133.729804 
L 171.909779 134.821741 
L 173.53957 133.529328 
L 175.169362 134.603189 
L 176.799154 133.747058 
L 178.428946 136.296554 
L 180.058738 134.682065 
L 181.68853 136.704901 
L 183.318322 134.419967 
L 184.948114 136.243149 
L 188.207697 134.528421 
L 189.837489 136.717225 
L 191.467281 134.765871 
L 193.097073 136.875798 
L 194.726865 137.268534 
L 196.356657 134.097069 
L 197.986449 137.151864 
L 199.616241 134.744508 
L 201.246033 135.31718 
L 202.875825 138.427023 
L 204.505616 135.967083 
L 206.135408 136.149484 
L 207.7652 138.914245 
L 209.394992 135.961332 
L 211.024784 138.155066 
L 212.654576 137.479691 
L 214.284368 136.363106 
L 215.91416 138.746634 
L 217.543952 140.390702 
L 219.173743 138.407304 
L 220.803535 139.795847 
L 222.433327 136.22836 
L 224.063119 136.88155 
L 225.692911 140.370161 
L 227.322703 136.358998 
L 228.952495 142.117753 
L 230.582287 138.12713 
L 232.212079 139.941274 
L 233.841871 137.954589 
L 235.471662 136.630133 
L 237.101454 143.005106 
L 238.731246 140.326615 
L 240.361038 138.837013 
L 241.99083 142.068456 
L 243.620622 140.901751 
L 245.250414 140.138464 
L 246.880206 139.232213 
L 248.509998 141.410336 
L 250.139789 140.487653 
L 251.769581 144.700936 
L 253.399373 140.150788 
L 255.029165 141.702834 
L 256.658957 141.46292 
L 258.288749 142.117753 
L 259.918541 141.210682 
L 261.548333 143.87767 
L 263.178125 142.656738 
L 264.807917 144.760915 
L 266.437708 142.656738 
L 268.0675 144.599055 
L 269.697292 142.410251 
L 271.327084 145.171726 
L 272.956876 141.808002 
L 274.586668 144.290125 
L 276.21646 142.781625 
L 277.846252 143.668978 
L 279.476044 142.378208 
L 281.105836 144.900591 
L 284.365419 144.269584 
L 285.995211 147.120616 
L 287.625003 141.590271 
L 289.254795 145.502019 
L 290.884587 142.766836 
L 292.514379 143.961475 
L 294.144171 146.582453 
L 295.773963 145.523381 
L 297.403754 147.685893 
L 299.033546 148.052337 
L 300.663338 145.132288 
L 302.29313 146.673653 
L 303.922922 146.637502 
L 305.552714 145.678668 
L 307.182506 145.7559 
L 308.812298 146.323642 
L 310.44209 149.49182 
L 312.071882 146.834691 
L 313.701673 147.39586 
L 315.331465 152.161273 
L 316.961257 148.988165 
L 318.591049 152.945102 
L 320.220841 148.500943 
L 321.850633 147.380249 
L 323.480425 147.297265 
L 325.110217 148.510802 
L 326.740009 150.198416 
L 328.3698 155.805993 
L 329.999592 148.998846 
L 331.629384 145.055056 
L 333.259176 144.109368 
L 334.888968 142.319051 
L 336.51876 144.771596 
L 338.148552 146.750886 
L 339.778344 139.560041 
L 341.408136 131.183594 
L 343.037928 127.644864 
L 344.667719 124.983627 
L 346.297511 129.253602 
L 347.927303 145.271964 
L 349.557095 146.497004 
L 351.186887 150.789163 
L 352.816679 153.857925 
L 354.446471 150.770266 
L 356.076263 149.796642 
L 357.706055 147.034346 
L 359.335846 145.433824 
L 360.965638 147.840358 
L 362.59543 151.08659 
L 364.225222 151.312537 
L 365.855014 148.477116 
L 367.484806 147.040097 
L 369.114598 150.402178 
L 370.74439 150.59526 
L 372.374182 149.224793 
L 374.003974 149.974934 
L 375.633765 143.447139 
L 377.263557 146.724594 
L 378.893349 135.594888 
L 380.523141 137.794373 
L 382.152933 155.496241 
L 383.782725 117.697474 
L 385.412517 82.865587 
L 387.042309 312.995625 
L 388.672101 35.795625 
L 390.301892 99.880578 
L 391.931684 106.602276 
L 393.561476 133.954107 
L 395.191268 137.106675 
L 396.82106 157.11073 
L 400.080644 136.874155 
L 401.710436 145.558711 
L 403.340228 147.185524 
L 404.97002 151.276385 
L 406.599811 151.938613 
L 408.229603 141.264087 
L 409.859395 141.05786 
L 411.489187 143.616394 
L 413.118979 147.880617 
L 414.748771 153.879287 
L 416.378563 155.95142 
L 418.008355 146.113306 
L 419.638147 147.843644 
L 421.267938 148.566673 
L 422.89773 153.273751 
L 424.527522 150.810525 
L 426.157314 146.498647 
L 427.787106 140.466291 
L 429.416898 142.236889 
L 431.04669 153.924476 
L 432.676482 146.555339 
L 434.306274 143.995984 
L 435.936066 138.053184 
L 437.565857 141.725839 
L 439.195649 144.838147 
L 440.825441 145.590754 
L 442.455233 143.97873 
L 444.085025 141.418552 
L 445.714817 143.308285 
L 447.344609 139.789274 
L 448.974401 143.074944 
L 450.604193 143.645972 
L 452.233984 141.48839 
L 453.863776 143.779897 
L 455.493568 141.615742 
L 457.12336 142.552392 
L 458.753152 143.087269 
L 460.382944 146.398409 
L 462.012736 149.078544 
L 463.642528 148.199407 
L 465.27232 150.307692 
L 466.902112 149.774458 
L 468.531903 146.303101 
L 468.531903 146.303101 
" clip-path="url(#pa776bee31f)" style="fill: none; stroke: #0272a2; stroke-width: 1.75; stroke-linecap: round"/>
   </g>
   <g id="line2d_32">
    <path d="M 62.713722 101.878374 
L 64.343513 103.450031 
L 65.973305 102.796252 
L 67.603097 103.052266 
L 69.232889 100.487274 
L 70.862681 103.485604 
L 72.492473 103.339002 
L 74.122265 100.933008 
L 75.752057 103.475902 
L 77.381849 102.514906 
L 79.011641 104.16741 
L 80.641432 102.796791 
L 82.271224 101.628828 
L 85.530808 102.316024 
L 87.1606 102.88141 
L 88.790392 103.932416 
L 90.420184 101.024635 
L 92.049976 103.070052 
L 93.679768 102.489574 
L 95.309559 102.186669 
L 96.939351 100.559497 
L 98.569143 104.085485 
L 100.198935 103.605796 
L 101.828727 102.000183 
L 103.458519 103.073825 
L 105.088311 102.804337 
L 106.718103 102.326264 
L 108.347895 103.605257 
L 109.977687 102.378545 
L 111.607478 102.693846 
L 113.23727 102.846377 
L 114.867062 102.403338 
L 116.496854 103.090534 
L 118.126646 102.587129 
L 119.756438 103.154133 
L 121.38623 101.705902 
L 123.016022 103.971222 
L 126.275605 102.114446 
L 127.905397 103.904389 
L 129.535189 101.833639 
L 131.164981 101.34317 
L 132.794773 103.514169 
L 134.424565 103.967449 
L 136.054357 102.193676 
L 137.684149 103.98254 
L 139.313941 101.957065 
L 140.943733 104.333415 
L 142.573524 102.985433 
L 144.203316 103.10832 
L 145.833108 101.823399 
L 147.4629 101.930116 
L 149.092692 103.894687 
L 150.722484 102.407111 
L 152.352276 103.187549 
L 153.982068 101.819087 
L 155.61186 103.763716 
L 157.241651 103.488838 
L 158.871443 102.289614 
L 160.501235 102.975731 
L 162.131027 103.039331 
L 163.760819 103.454343 
L 165.390611 101.367963 
L 167.020403 103.120177 
L 168.650195 103.588548 
L 170.279987 101.744169 
L 171.909779 103.205875 
L 173.53957 103.064663 
L 176.799154 102.160798 
L 178.428946 103.14497 
L 180.058738 103.182699 
L 181.68853 102.627552 
L 183.318322 102.874943 
L 184.948114 101.63314 
L 186.577906 104.255802 
L 188.207697 102.019047 
L 191.467281 103.607951 
L 193.097073 102.982199 
L 194.726865 99.744564 
L 196.356657 104.279517 
L 197.986449 102.031444 
L 199.616241 103.386432 
L 201.246033 100.713106 
L 202.875825 102.943393 
L 204.505616 103.739462 
L 206.135408 103.416076 
L 207.7652 101.666556 
L 209.394992 101.117339 
L 211.024784 104.000327 
L 212.654576 101.825554 
L 214.284368 102.989745 
L 215.91416 100.839765 
L 217.543952 104.320479 
L 219.173743 103.639212 
L 220.803535 103.084605 
L 222.433327 101.662244 
L 224.063119 102.687918 
L 225.692911 103.905467 
L 227.322703 99.658867 
L 228.952495 103.949663 
L 230.582287 103.065202 
L 232.212079 102.452924 
L 233.841871 102.532153 
L 235.471662 103.754553 
L 237.101454 102.329498 
L 238.731246 102.445917 
L 240.361038 101.834717 
L 241.99083 101.434796 
L 243.620622 101.898855 
L 245.250414 107.267067 
L 246.880206 101.605652 
L 248.509998 102.872787 
L 250.139789 102.93962 
L 251.769581 102.12846 
L 253.399373 102.55479 
L 255.029165 102.501432 
L 256.658957 103.510936 
L 259.918541 102.787628 
L 261.548333 102.859312 
L 263.178125 103.209108 
L 264.807917 101.883225 
L 268.0675 104.15124 
L 269.697292 101.089312 
L 271.327084 102.64965 
L 272.956876 102.501971 
L 274.586668 101.907479 
L 276.21646 102.559102 
L 277.846252 102.693307 
L 279.476044 102.587129 
L 281.105836 101.301669 
L 282.735627 104.365214 
L 284.365419 101.717759 
L 285.995211 103.241447 
L 287.625003 101.350177 
L 289.254795 103.335768 
L 290.884587 102.657196 
L 292.514379 103.059273 
L 294.144171 102.559641 
L 295.773963 103.649453 
L 297.403754 100.871565 
L 299.033546 102.304166 
L 300.663338 102.142473 
L 302.29313 103.918402 
L 303.922922 101.695122 
L 305.552714 103.665622 
L 307.182506 102.088036 
L 308.812298 103.612802 
L 310.44209 102.10205 
L 312.071882 102.962257 
L 313.701673 101.849808 
L 315.331465 101.493006 
L 316.961257 103.265701 
L 318.591049 101.179321 
L 320.220841 103.321216 
L 321.850633 103.011304 
L 323.480425 100.563809 
L 325.110217 104.375994 
L 326.740009 102.376389 
L 328.3698 103.264623 
L 329.999592 102.213079 
L 331.629384 102.206611 
L 333.259176 103.723832 
L 334.888968 103.80899 
L 336.51876 102.057315 
L 338.148552 103.61927 
L 339.778344 103.889836 
L 341.408136 100.920073 
L 343.037928 103.307202 
L 344.667719 102.748283 
L 346.297511 99.689588 
L 347.927303 103.284026 
L 349.557095 102.715944 
L 351.186887 101.418627 
L 352.816679 104.184118 
L 354.446471 101.921492 
L 356.076263 104.552778 
L 357.706055 103.237674 
L 359.335846 101.689193 
L 360.965638 105.024922 
L 362.59543 101.792138 
L 364.225222 100.751912 
L 365.855014 101.765728 
L 367.484806 103.340619 
L 369.114598 103.029629 
L 370.74439 101.32215 
L 372.374182 104.586734 
L 374.003974 104.118902 
L 375.633765 101.202497 
L 377.263557 103.23444 
L 378.893349 101.628289 
L 380.523141 105.494371 
L 382.152933 101.509175 
L 383.782725 102.973576 
L 385.412517 103.06089 
L 387.042309 102.662047 
L 388.672101 103.796054 
L 390.301892 101.670868 
L 391.931684 103.237135 
L 393.561476 103.332534 
L 395.191268 99.671263 
L 396.82106 103.554054 
L 398.450852 103.133113 
L 400.080644 101.636373 
L 401.710436 103.00807 
L 403.340228 103.448414 
L 404.97002 102.640488 
L 406.599811 102.010963 
L 408.229603 102.380701 
L 409.859395 102.205533 
L 411.489187 103.548664 
L 413.118979 101.467674 
L 414.748771 103.723293 
L 416.378563 103.965293 
L 418.008355 102.355369 
L 419.638147 103.469973 
L 421.267938 102.940698 
L 422.89773 102.545089 
L 424.527522 102.924529 
L 426.157314 101.751176 
L 427.787106 103.804139 
L 429.416898 104.042906 
L 431.04669 102.48095 
L 432.676482 104.109739 
L 434.306274 101.799145 
L 435.936066 103.215576 
L 437.565857 102.342433 
L 439.195649 101.282805 
L 440.825441 103.692032 
L 442.455233 103.192939 
L 444.085025 101.926343 
L 445.714817 103.056578 
L 447.344609 102.926146 
L 448.974401 102.561258 
L 450.604193 104.007333 
L 452.233984 103.422543 
L 453.863776 102.69708 
L 455.493568 103.494227 
L 457.12336 103.552437 
L 458.753152 102.338122 
L 460.382944 102.766608 
L 462.012736 104.025659 
L 463.642528 100.991218 
L 465.27232 103.019928 
L 466.902112 101.682187 
L 468.531903 103.203719 
L 468.531903 103.203719 
" clip-path="url(#pa776bee31f)" style="fill: none; stroke-dasharray: 1.75,2.8875; stroke-dashoffset: 0; stroke: #9fc377; stroke-width: 1.75"/>
   </g>
   <g id="patch_3">
    <path d="M 42.422813 326.855625 
L 42.422813 21.935625 
" style="fill: none; stroke: #cccccc; stroke-width: 1.25; stroke-linejoin: miter; stroke-linecap: square"/>
   </g>
   <g id="patch_4">
    <path d="M 488.822812 326.855625 
L 488.822812 21.935625 
" style="fill: none; stroke: #cccccc; stroke-width: 1.25; stroke-linejoin: miter; stroke-linecap: square"/>
   </g>
   <g id="patch_5">
    <path d="M 42.422813 326.855625 
L 488.822813 326.855625 
" style="fill: none; stroke: #cccccc; stroke-width: 1.25; stroke-linejoin: miter; stroke-linecap: square"/>
   </g>
   <g id="patch_6">
    <path d="M 42.422813 21.935625 
L 488.822813 21.935625 
" style="fill: none; stroke: #cccccc; stroke-width: 1.25; stroke-linejoin: miter; stroke-linecap: square"/>
   </g>
   <g id="text_33">
    <!-- "Stabilising energy of Z-DNA" for dataset Mouse_non_tata -->
    <g style="fill: #262626" transform="translate(110.956875 15.935625) scale(0.12 -0.12)">
     <defs>
      <path id="ArialMT-22" d="M 450 2959 
L 294 3831 
L 294 4581 
L 934 4581 
L 934 3831 
L 794 2959 
L 450 2959 
z
M 1484 2959 
L 1331 3831 
L 1331 4581 
L 1972 4581 
L 1972 3831 
L 1822 2959 
L 1484 2959 
z
" transform="scale(0.015625)"/>
      <path id="ArialMT-64" d="M 2575 0 
L 2575 419 
Q 2259 -75 1647 -75 
Q 1250 -75 917 144 
Q 584 363 401 755 
Q 219 1147 219 1656 
Q 219 2153 384 2558 
Q 550 2963 881 3178 
Q 1213 3394 1622 3394 
Q 1922 3394 2156 3267 
Q 2391 3141 2538 2938 
L 2538 4581 
L 3097 4581 
L 3097 0 
L 2575 0 
z
M 797 1656 
Q 797 1019 1065 703 
Q 1334 388 1700 388 
Q 2069 388 2326 689 
Q 2584 991 2584 1609 
Q 2584 2291 2321 2609 
Q 2059 2928 1675 2928 
Q 1300 2928 1048 2622 
Q 797 2316 797 1656 
z
" transform="scale(0.015625)"/>
      <path id="ArialMT-4d" d="M 475 0 
L 475 4581 
L 1388 4581 
L 2472 1338 
Q 2622 884 2691 659 
Q 2769 909 2934 1394 
L 4031 4581 
L 4847 4581 
L 4847 0 
L 4263 0 
L 4263 3834 
L 2931 0 
L 2384 0 
L 1059 3900 
L 1059 0 
L 475 0 
z
" transform="scale(0.015625)"/>
      <path id="ArialMT-75" d="M 2597 0 
L 2597 488 
Q 2209 -75 1544 -75 
Q 1250 -75 995 37 
Q 741 150 617 320 
Q 494 491 444 738 
Q 409 903 409 1263 
L 409 3319 
L 972 3319 
L 972 1478 
Q 972 1038 1006 884 
Q 1059 663 1231 536 
Q 1403 409 1656 409 
Q 1909 409 2131 539 
Q 2353 669 2445 892 
Q 2538 1116 2538 1541 
L 2538 3319 
L 3100 3319 
L 3100 0 
L 2597 0 
z
" transform="scale(0.015625)"/>
      <path id="ArialMT-5f" d="M -97 -1272 
L -97 -866 
L 3631 -866 
L 3631 -1272 
L -97 -1272 
z
" transform="scale(0.015625)"/>
     </defs>
     <use xlink:href="#ArialMT-22"/>
     <use xlink:href="#ArialMT-53" x="35.498047"/>
     <use xlink:href="#ArialMT-74" x="102.197266"/>
     <use xlink:href="#ArialMT-61" x="129.980469"/>
     <use xlink:href="#ArialMT-62" x="185.595703"/>
     <use xlink:href="#ArialMT-69" x="241.210938"/>
     <use xlink:href="#ArialMT-6c" x="263.427734"/>
     <use xlink:href="#ArialMT-69" x="285.644531"/>
     <use xlink:href="#ArialMT-73" x="307.861328"/>
     <use xlink:href="#ArialMT-69" x="357.861328"/>
     <use xlink:href="#ArialMT-6e" x="380.078125"/>
     <use xlink:href="#ArialMT-67" x="435.693359"/>
     <use xlink:href="#ArialMT-20" x="491.308594"/>
     <use xlink:href="#ArialMT-65" x="519.091797"/>
     <use xlink:href="#ArialMT-6e" x="574.707031"/>
     <use xlink:href="#ArialMT-65" x="630.322266"/>
     <use xlink:href="#ArialMT-72" x="685.9375"/>
     <use xlink:href="#ArialMT-67" x="719.238281"/>
     <use xlink:href="#ArialMT-79" x="774.853516"/>
     <use xlink:href="#ArialMT-20" x="824.853516"/>
     <use xlink:href="#ArialMT-6f" x="852.636719"/>
     <use xlink:href="#ArialMT-66" x="908.251953"/>
     <use xlink:href="#ArialMT-20" x="936.035156"/>
     <use xlink:href="#ArialMT-5a" x="963.818359"/>
     <use xlink:href="#ArialMT-2d" x="1024.902344"/>
     <use xlink:href="#ArialMT-44" x="1058.203125"/>
     <use xlink:href="#ArialMT-4e" x="1130.419922"/>
     <use xlink:href="#ArialMT-41" x="1202.636719"/>
     <use xlink:href="#ArialMT-22" x="1269.335938"/>
     <use xlink:href="#ArialMT-20" x="1304.833984"/>
     <use xlink:href="#ArialMT-66" x="1332.617188"/>
     <use xlink:href="#ArialMT-6f" x="1360.400391"/>
     <use xlink:href="#ArialMT-72" x="1416.015625"/>
     <use xlink:href="#ArialMT-20" x="1449.316406"/>
     <use xlink:href="#ArialMT-64" x="1477.099609"/>
     <use xlink:href="#ArialMT-61" x="1532.714844"/>
     <use xlink:href="#ArialMT-74" x="1588.330078"/>
     <use xlink:href="#ArialMT-61" x="1616.113281"/>
     <use xlink:href="#ArialMT-73" x="1671.728516"/>
     <use xlink:href="#ArialMT-65" x="1721.728516"/>
     <use xlink:href="#ArialMT-74" x="1777.34375"/>
     <use xlink:href="#ArialMT-20" x="1805.126953"/>
     <use xlink:href="#ArialMT-4d" x="1832.910156"/>
     <use xlink:href="#ArialMT-6f" x="1916.210938"/>
     <use xlink:href="#ArialMT-75" x="1971.826172"/>
     <use xlink:href="#ArialMT-73" x="2027.441406"/>
     <use xlink:href="#ArialMT-65" x="2077.441406"/>
     <use xlink:href="#ArialMT-5f" x="2133.056641"/>
     <use xlink:href="#ArialMT-6e" x="2188.671875"/>
     <use xlink:href="#ArialMT-6f" x="2244.287109"/>
     <use xlink:href="#ArialMT-6e" x="2299.902344"/>
     <use xlink:href="#ArialMT-5f" x="2355.517578"/>
     <use xlink:href="#ArialMT-74" x="2411.132812"/>
     <use xlink:href="#ArialMT-61" x="2438.916016"/>
     <use xlink:href="#ArialMT-74" x="2494.53125"/>
     <use xlink:href="#ArialMT-61" x="2522.314453"/>
    </g>
   </g>
   <g id="legend_1">
    <g id="line2d_33">
     <path d="M 51.422813 34.593437 
L 61.422813 34.593437 
L 71.422813 34.593437 
" style="fill: none; stroke: #0272a2; stroke-width: 1.75; stroke-linecap: round"/>
    </g>
    <g id="text_34">
     <!-- Promoter -->
     <g style="fill: #262626" transform="translate(79.422813 38.093437) scale(0.1 -0.1)">
      <defs>
       <path id="ArialMT-6d" d="M 422 0 
L 422 3319 
L 925 3319 
L 925 2853 
Q 1081 3097 1340 3245 
Q 1600 3394 1931 3394 
Q 2300 3394 2536 3241 
Q 2772 3088 2869 2813 
Q 3263 3394 3894 3394 
Q 4388 3394 4653 3120 
Q 4919 2847 4919 2278 
L 4919 0 
L 4359 0 
L 4359 2091 
Q 4359 2428 4304 2576 
Q 4250 2725 4106 2815 
Q 3963 2906 3769 2906 
Q 3419 2906 3187 2673 
Q 2956 2441 2956 1928 
L 2956 0 
L 2394 0 
L 2394 2156 
Q 2394 2531 2256 2718 
Q 2119 2906 1806 2906 
Q 1569 2906 1367 2781 
Q 1166 2656 1075 2415 
Q 984 2175 984 1722 
L 984 0 
L 422 0 
z
" transform="scale(0.015625)"/>
      </defs>
      <use xlink:href="#ArialMT-50"/>
      <use xlink:href="#ArialMT-72" x="66.699219"/>
      <use xlink:href="#ArialMT-6f" x="100"/>
      <use xlink:href="#ArialMT-6d" x="155.615234"/>
      <use xlink:href="#ArialMT-6f" x="238.916016"/>
      <use xlink:href="#ArialMT-74" x="294.53125"/>
      <use xlink:href="#ArialMT-65" x="322.314453"/>
      <use xlink:href="#ArialMT-72" x="377.929688"/>
     </g>
    </g>
    <g id="line2d_34">
     <path d="M 51.422813 48.73875 
L 61.422813 48.73875 
L 71.422813 48.73875 
" style="fill: none; stroke-dasharray: 1.75,2.8875; stroke-dashoffset: 0; stroke: #9fc377; stroke-width: 1.75"/>
    </g>
    <g id="text_35">
     <!-- Non-promoter -->
     <g style="fill: #262626" transform="translate(79.422813 52.23875) scale(0.1 -0.1)">
      <defs>
       <path id="ArialMT-70" d="M 422 -1272 
L 422 3319 
L 934 3319 
L 934 2888 
Q 1116 3141 1344 3267 
Q 1572 3394 1897 3394 
Q 2322 3394 2647 3175 
Q 2972 2956 3137 2557 
Q 3303 2159 3303 1684 
Q 3303 1175 3120 767 
Q 2938 359 2589 142 
Q 2241 -75 1856 -75 
Q 1575 -75 1351 44 
Q 1128 163 984 344 
L 984 -1272 
L 422 -1272 
z
M 931 1641 
Q 931 1000 1190 694 
Q 1450 388 1819 388 
Q 2194 388 2461 705 
Q 2728 1022 2728 1688 
Q 2728 2322 2467 2637 
Q 2206 2953 1844 2953 
Q 1484 2953 1207 2617 
Q 931 2281 931 1641 
z
" transform="scale(0.015625)"/>
      </defs>
      <use xlink:href="#ArialMT-4e"/>
      <use xlink:href="#ArialMT-6f" x="72.216797"/>
      <use xlink:href="#ArialMT-6e" x="127.832031"/>
      <use xlink:href="#ArialMT-2d" x="183.447266"/>
      <use xlink:href="#ArialMT-70" x="216.748047"/>
      <use xlink:href="#ArialMT-72" x="272.363281"/>
      <use xlink:href="#ArialMT-6f" x="305.664062"/>
      <use xlink:href="#ArialMT-6d" x="361.279297"/>
      <use xlink:href="#ArialMT-6f" x="444.580078"/>
      <use xlink:href="#ArialMT-74" x="500.195312"/>
      <use xlink:href="#ArialMT-65" x="527.978516"/>
      <use xlink:href="#ArialMT-72" x="583.59375"/>
     </g>
    </g>
   </g>
  </g>
 </g>
 <defs>
  <clipPath id="pa776bee31f">
   <rect x="42.422813" y="21.935625" width="446.4" height="304.92"/>
  </clipPath>
 </defs>
</svg>
