<?xml version="1.0" encoding="utf-8" standalone="no"?>
<!DOCTYPE svg PUBLIC "-//W3C//DTD SVG 1.1//EN"
  "http://www.w3.org/Graphics/SVG/1.1/DTD/svg11.dtd">
<svg xmlns:xlink="http://www.w3.org/1999/xlink" width="495.893906pt" height="375.733156pt" viewBox="0 0 495.893906 375.733156" xmlns="http://www.w3.org/2000/svg" version="1.1">
 <metadata>
  <rdf:RDF xmlns:dc="http://purl.org/dc/elements/1.1/" xmlns:cc="http://creativecommons.org/ns#" xmlns:rdf="http://www.w3.org/1999/02/22-rdf-syntax-ns#">
   <cc:Work>
    <dc:type rdf:resource="http://purl.org/dc/dcmitype/StillImage"/>
    <dc:date>2023-05-11T16:25:42.100477</dc:date>
    <dc:format>image/svg+xml</dc:format>
    <dc:creator>
     <cc:Agent>
      <dc:title>Matplotlib v3.7.1, https://matplotlib.org/</dc:title>
     </cc:Agent>
    </dc:creator>
   </cc:Work>
  </rdf:RDF>
 </metadata>
 <defs>
  <style type="text/css">*{stroke-linejoin: round; stroke-linecap: butt}</style>
 </defs>
 <g id="figure_1">
  <g id="patch_1">
   <path d="M 0 375.733156 
L 495.893906 375.733156 
L 495.893906 0 
L 0 0 
z
" style="fill: #ffffff"/>
  </g>
  <g id="axes_1">
   <g id="patch_2">
    <path d="M 42.293906 326.855625 
L 488.693906 326.855625 
L 488.693906 21.935625 
L 42.293906 21.935625 
z
" style="fill: #ffffff"/>
   </g>
   <g id="matplotlib.axis_1">
    <g id="xtick_1">
     <g id="line2d_1"/>
     <g id="text_1">
      <!-- -200 -->
      <g style="fill: #262626" transform="translate(57.33731 353.067937) rotate(-45) scale(0.1 -0.1)">
       <defs>
        <path id="ArialMT-2d" d="M 203 1375 
L 203 1941 
L 1931 1941 
L 1931 1375 
L 203 1375 
z
" transform="scale(0.015625)"/>
        <path id="ArialMT-32" d="M 3222 541 
L 3222 0 
L 194 0 
Q 188 203 259 391 
Q 375 700 629 1000 
Q 884 1300 1366 1694 
Q 2113 2306 2375 2664 
Q 2638 3022 2638 3341 
Q 2638 3675 2398 3904 
Q 2159 4134 1775 4134 
Q 1369 4134 1125 3890 
Q 881 3647 878 3216 
L 300 3275 
Q 359 3922 746 4261 
Q 1134 4600 1788 4600 
Q 2447 4600 2831 4234 
Q 3216 3869 3216 3328 
Q 3216 3053 3103 2787 
Q 2991 2522 2730 2228 
Q 2469 1934 1863 1422 
Q 1356 997 1212 845 
Q 1069 694 975 541 
L 3222 541 
z
" transform="scale(0.015625)"/>
        <path id="ArialMT-30" d="M 266 2259 
Q 266 3072 433 3567 
Q 600 4063 929 4331 
Q 1259 4600 1759 4600 
Q 2128 4600 2406 4451 
Q 2684 4303 2865 4023 
Q 3047 3744 3150 3342 
Q 3253 2941 3253 2259 
Q 3253 1453 3087 958 
Q 2922 463 2592 192 
Q 2263 -78 1759 -78 
Q 1097 -78 719 397 
Q 266 969 266 2259 
z
M 844 2259 
Q 844 1131 1108 757 
Q 1372 384 1759 384 
Q 2147 384 2411 759 
Q 2675 1134 2675 2259 
Q 2675 3391 2411 3762 
Q 2147 4134 1753 4134 
Q 1366 4134 1134 3806 
Q 844 3388 844 2259 
z
" transform="scale(0.015625)"/>
       </defs>
       <use xlink:href="#ArialMT-2d"/>
       <use xlink:href="#ArialMT-32" x="33.300781"/>
       <use xlink:href="#ArialMT-30" x="88.916016"/>
       <use xlink:href="#ArialMT-30" x="144.53125"/>
      </g>
     </g>
    </g>
    <g id="xtick_2">
     <g id="line2d_2"/>
     <g id="text_2">
      <!-- -190 -->
      <g style="fill: #262626" transform="translate(73.635229 353.067937) rotate(-45) scale(0.1 -0.1)">
       <defs>
        <path id="ArialMT-31" d="M 2384 0 
L 1822 0 
L 1822 3584 
Q 1619 3391 1289 3197 
Q 959 3003 697 2906 
L 697 3450 
Q 1169 3672 1522 3987 
Q 1875 4303 2022 4600 
L 2384 4600 
L 2384 0 
z
" transform="scale(0.015625)"/>
        <path id="ArialMT-39" d="M 350 1059 
L 891 1109 
Q 959 728 1153 556 
Q 1347 384 1650 384 
Q 1909 384 2104 503 
Q 2300 622 2425 820 
Q 2550 1019 2634 1356 
Q 2719 1694 2719 2044 
Q 2719 2081 2716 2156 
Q 2547 1888 2255 1720 
Q 1963 1553 1622 1553 
Q 1053 1553 659 1965 
Q 266 2378 266 3053 
Q 266 3750 677 4175 
Q 1088 4600 1706 4600 
Q 2153 4600 2523 4359 
Q 2894 4119 3086 3673 
Q 3278 3228 3278 2384 
Q 3278 1506 3087 986 
Q 2897 466 2520 194 
Q 2144 -78 1638 -78 
Q 1100 -78 759 220 
Q 419 519 350 1059 
z
M 2653 3081 
Q 2653 3566 2395 3850 
Q 2138 4134 1775 4134 
Q 1400 4134 1122 3828 
Q 844 3522 844 3034 
Q 844 2597 1108 2323 
Q 1372 2050 1759 2050 
Q 2150 2050 2401 2323 
Q 2653 2597 2653 3081 
z
" transform="scale(0.015625)"/>
       </defs>
       <use xlink:href="#ArialMT-2d"/>
       <use xlink:href="#ArialMT-31" x="33.300781"/>
       <use xlink:href="#ArialMT-39" x="88.916016"/>
       <use xlink:href="#ArialMT-30" x="144.53125"/>
      </g>
     </g>
    </g>
    <g id="xtick_3">
     <g id="line2d_3"/>
     <g id="text_3">
      <!-- -180 -->
      <g style="fill: #262626" transform="translate(89.933148 353.067937) rotate(-45) scale(0.1 -0.1)">
       <defs>
        <path id="ArialMT-38" d="M 1131 2484 
Q 781 2613 612 2850 
Q 444 3088 444 3419 
Q 444 3919 803 4259 
Q 1163 4600 1759 4600 
Q 2359 4600 2725 4251 
Q 3091 3903 3091 3403 
Q 3091 3084 2923 2848 
Q 2756 2613 2416 2484 
Q 2838 2347 3058 2040 
Q 3278 1734 3278 1309 
Q 3278 722 2862 322 
Q 2447 -78 1769 -78 
Q 1091 -78 675 323 
Q 259 725 259 1325 
Q 259 1772 486 2073 
Q 713 2375 1131 2484 
z
M 1019 3438 
Q 1019 3113 1228 2906 
Q 1438 2700 1772 2700 
Q 2097 2700 2305 2904 
Q 2513 3109 2513 3406 
Q 2513 3716 2298 3927 
Q 2084 4138 1766 4138 
Q 1444 4138 1231 3931 
Q 1019 3725 1019 3438 
z
M 838 1322 
Q 838 1081 952 856 
Q 1066 631 1291 507 
Q 1516 384 1775 384 
Q 2178 384 2440 643 
Q 2703 903 2703 1303 
Q 2703 1709 2433 1975 
Q 2163 2241 1756 2241 
Q 1359 2241 1098 1978 
Q 838 1716 838 1322 
z
" transform="scale(0.015625)"/>
       </defs>
       <use xlink:href="#ArialMT-2d"/>
       <use xlink:href="#ArialMT-31" x="33.300781"/>
       <use xlink:href="#ArialMT-38" x="88.916016"/>
       <use xlink:href="#ArialMT-30" x="144.53125"/>
      </g>
     </g>
    </g>
    <g id="xtick_4">
     <g id="line2d_4"/>
     <g id="text_4">
      <!-- -170 -->
      <g style="fill: #262626" transform="translate(106.231066 353.067937) rotate(-45) scale(0.1 -0.1)">
       <defs>
        <path id="ArialMT-37" d="M 303 3981 
L 303 4522 
L 3269 4522 
L 3269 4084 
Q 2831 3619 2401 2847 
Q 1972 2075 1738 1259 
Q 1569 684 1522 0 
L 944 0 
Q 953 541 1156 1306 
Q 1359 2072 1739 2783 
Q 2119 3494 2547 3981 
L 303 3981 
z
" transform="scale(0.015625)"/>
       </defs>
       <use xlink:href="#ArialMT-2d"/>
       <use xlink:href="#ArialMT-31" x="33.300781"/>
       <use xlink:href="#ArialMT-37" x="88.916016"/>
       <use xlink:href="#ArialMT-30" x="144.53125"/>
      </g>
     </g>
    </g>
    <g id="xtick_5">
     <g id="line2d_5"/>
     <g id="text_5">
      <!-- -160 -->
      <g style="fill: #262626" transform="translate(122.528985 353.067937) rotate(-45) scale(0.1 -0.1)">
       <defs>
        <path id="ArialMT-36" d="M 3184 3459 
L 2625 3416 
Q 2550 3747 2413 3897 
Q 2184 4138 1850 4138 
Q 1581 4138 1378 3988 
Q 1113 3794 959 3422 
Q 806 3050 800 2363 
Q 1003 2672 1297 2822 
Q 1591 2972 1913 2972 
Q 2475 2972 2870 2558 
Q 3266 2144 3266 1488 
Q 3266 1056 3080 686 
Q 2894 316 2569 119 
Q 2244 -78 1831 -78 
Q 1128 -78 684 439 
Q 241 956 241 2144 
Q 241 3472 731 4075 
Q 1159 4600 1884 4600 
Q 2425 4600 2770 4297 
Q 3116 3994 3184 3459 
z
M 888 1484 
Q 888 1194 1011 928 
Q 1134 663 1356 523 
Q 1578 384 1822 384 
Q 2178 384 2434 671 
Q 2691 959 2691 1453 
Q 2691 1928 2437 2201 
Q 2184 2475 1800 2475 
Q 1419 2475 1153 2201 
Q 888 1928 888 1484 
z
" transform="scale(0.015625)"/>
       </defs>
       <use xlink:href="#ArialMT-2d"/>
       <use xlink:href="#ArialMT-31" x="33.300781"/>
       <use xlink:href="#ArialMT-36" x="88.916016"/>
       <use xlink:href="#ArialMT-30" x="144.53125"/>
      </g>
     </g>
    </g>
    <g id="xtick_6">
     <g id="line2d_6"/>
     <g id="text_6">
      <!-- -150 -->
      <g style="fill: #262626" transform="translate(138.826904 353.067937) rotate(-45) scale(0.1 -0.1)">
       <defs>
        <path id="ArialMT-35" d="M 266 1200 
L 856 1250 
Q 922 819 1161 601 
Q 1400 384 1738 384 
Q 2144 384 2425 690 
Q 2706 997 2706 1503 
Q 2706 1984 2436 2262 
Q 2166 2541 1728 2541 
Q 1456 2541 1237 2417 
Q 1019 2294 894 2097 
L 366 2166 
L 809 4519 
L 3088 4519 
L 3088 3981 
L 1259 3981 
L 1013 2750 
Q 1425 3038 1878 3038 
Q 2478 3038 2890 2622 
Q 3303 2206 3303 1553 
Q 3303 931 2941 478 
Q 2500 -78 1738 -78 
Q 1113 -78 717 272 
Q 322 622 266 1200 
z
" transform="scale(0.015625)"/>
       </defs>
       <use xlink:href="#ArialMT-2d"/>
       <use xlink:href="#ArialMT-31" x="33.300781"/>
       <use xlink:href="#ArialMT-35" x="88.916016"/>
       <use xlink:href="#ArialMT-30" x="144.53125"/>
      </g>
     </g>
    </g>
    <g id="xtick_7">
     <g id="line2d_7"/>
     <g id="text_7">
      <!-- -140 -->
      <g style="fill: #262626" transform="translate(155.124823 353.067937) rotate(-45) scale(0.1 -0.1)">
       <defs>
        <path id="ArialMT-34" d="M 2069 0 
L 2069 1097 
L 81 1097 
L 81 1613 
L 2172 4581 
L 2631 4581 
L 2631 1613 
L 3250 1613 
L 3250 1097 
L 2631 1097 
L 2631 0 
L 2069 0 
z
M 2069 1613 
L 2069 3678 
L 634 1613 
L 2069 1613 
z
" transform="scale(0.015625)"/>
       </defs>
       <use xlink:href="#ArialMT-2d"/>
       <use xlink:href="#ArialMT-31" x="33.300781"/>
       <use xlink:href="#ArialMT-34" x="88.916016"/>
       <use xlink:href="#ArialMT-30" x="144.53125"/>
      </g>
     </g>
    </g>
    <g id="xtick_8">
     <g id="line2d_8"/>
     <g id="text_8">
      <!-- -130 -->
      <g style="fill: #262626" transform="translate(171.422742 353.067937) rotate(-45) scale(0.1 -0.1)">
       <defs>
        <path id="ArialMT-33" d="M 269 1209 
L 831 1284 
Q 928 806 1161 595 
Q 1394 384 1728 384 
Q 2125 384 2398 659 
Q 2672 934 2672 1341 
Q 2672 1728 2419 1979 
Q 2166 2231 1775 2231 
Q 1616 2231 1378 2169 
L 1441 2663 
Q 1497 2656 1531 2656 
Q 1891 2656 2178 2843 
Q 2466 3031 2466 3422 
Q 2466 3731 2256 3934 
Q 2047 4138 1716 4138 
Q 1388 4138 1169 3931 
Q 950 3725 888 3313 
L 325 3413 
Q 428 3978 793 4289 
Q 1159 4600 1703 4600 
Q 2078 4600 2393 4439 
Q 2709 4278 2876 4000 
Q 3044 3722 3044 3409 
Q 3044 3113 2884 2869 
Q 2725 2625 2413 2481 
Q 2819 2388 3044 2092 
Q 3269 1797 3269 1353 
Q 3269 753 2831 336 
Q 2394 -81 1725 -81 
Q 1122 -81 723 278 
Q 325 638 269 1209 
z
" transform="scale(0.015625)"/>
       </defs>
       <use xlink:href="#ArialMT-2d"/>
       <use xlink:href="#ArialMT-31" x="33.300781"/>
       <use xlink:href="#ArialMT-33" x="88.916016"/>
       <use xlink:href="#ArialMT-30" x="144.53125"/>
      </g>
     </g>
    </g>
    <g id="xtick_9">
     <g id="line2d_9"/>
     <g id="text_9">
      <!-- -120 -->
      <g style="fill: #262626" transform="translate(187.720661 353.067937) rotate(-45) scale(0.1 -0.1)">
       <use xlink:href="#ArialMT-2d"/>
       <use xlink:href="#ArialMT-31" x="33.300781"/>
       <use xlink:href="#ArialMT-32" x="88.916016"/>
       <use xlink:href="#ArialMT-30" x="144.53125"/>
      </g>
     </g>
    </g>
    <g id="xtick_10">
     <g id="line2d_10"/>
     <g id="text_10">
      <!-- -110 -->
      <g style="fill: #262626" transform="translate(204.279326 352.546446) rotate(-45) scale(0.1 -0.1)">
       <use xlink:href="#ArialMT-2d"/>
       <use xlink:href="#ArialMT-31" x="33.300781"/>
       <use xlink:href="#ArialMT-31" x="81.541016"/>
       <use xlink:href="#ArialMT-30" x="137.15625"/>
      </g>
     </g>
    </g>
    <g id="xtick_11">
     <g id="line2d_11"/>
     <g id="text_11">
      <!-- -100 -->
      <g style="fill: #262626" transform="translate(220.316499 353.067937) rotate(-45) scale(0.1 -0.1)">
       <use xlink:href="#ArialMT-2d"/>
       <use xlink:href="#ArialMT-31" x="33.300781"/>
       <use xlink:href="#ArialMT-30" x="88.916016"/>
       <use xlink:href="#ArialMT-30" x="144.53125"/>
      </g>
     </g>
    </g>
    <g id="xtick_12">
     <g id="line2d_12"/>
     <g id="text_12">
      <!-- -90 -->
      <g style="fill: #262626" transform="translate(238.580506 349.135761) rotate(-45) scale(0.1 -0.1)">
       <use xlink:href="#ArialMT-2d"/>
       <use xlink:href="#ArialMT-39" x="33.300781"/>
       <use xlink:href="#ArialMT-30" x="88.916016"/>
      </g>
     </g>
    </g>
    <g id="xtick_13">
     <g id="line2d_13"/>
     <g id="text_13">
      <!-- -80 -->
      <g style="fill: #262626" transform="translate(254.878425 349.135761) rotate(-45) scale(0.1 -0.1)">
       <use xlink:href="#ArialMT-2d"/>
       <use xlink:href="#ArialMT-38" x="33.300781"/>
       <use xlink:href="#ArialMT-30" x="88.916016"/>
      </g>
     </g>
    </g>
    <g id="xtick_14">
     <g id="line2d_14"/>
     <g id="text_14">
      <!-- -70 -->
      <g style="fill: #262626" transform="translate(271.176344 349.135761) rotate(-45) scale(0.1 -0.1)">
       <use xlink:href="#ArialMT-2d"/>
       <use xlink:href="#ArialMT-37" x="33.300781"/>
       <use xlink:href="#ArialMT-30" x="88.916016"/>
      </g>
     </g>
    </g>
    <g id="xtick_15">
     <g id="line2d_15"/>
     <g id="text_15">
      <!-- -60 -->
      <g style="fill: #262626" transform="translate(287.474263 349.135761) rotate(-45) scale(0.1 -0.1)">
       <use xlink:href="#ArialMT-2d"/>
       <use xlink:href="#ArialMT-36" x="33.300781"/>
       <use xlink:href="#ArialMT-30" x="88.916016"/>
      </g>
     </g>
    </g>
    <g id="xtick_16">
     <g id="line2d_16"/>
     <g id="text_16">
      <!-- -50 -->
      <g style="fill: #262626" transform="translate(303.772182 349.135761) rotate(-45) scale(0.1 -0.1)">
       <use xlink:href="#ArialMT-2d"/>
       <use xlink:href="#ArialMT-35" x="33.300781"/>
       <use xlink:href="#ArialMT-30" x="88.916016"/>
      </g>
     </g>
    </g>
    <g id="xtick_17">
     <g id="line2d_17"/>
     <g id="text_17">
      <!-- -40 -->
      <g style="fill: #262626" transform="translate(320.070101 349.135761) rotate(-45) scale(0.1 -0.1)">
       <use xlink:href="#ArialMT-2d"/>
       <use xlink:href="#ArialMT-34" x="33.300781"/>
       <use xlink:href="#ArialMT-30" x="88.916016"/>
      </g>
     </g>
    </g>
    <g id="xtick_18">
     <g id="line2d_18"/>
     <g id="text_18">
      <!-- -30 -->
      <g style="fill: #262626" transform="translate(336.36802 349.135761) rotate(-45) scale(0.1 -0.1)">
       <use xlink:href="#ArialMT-2d"/>
       <use xlink:href="#ArialMT-33" x="33.300781"/>
       <use xlink:href="#ArialMT-30" x="88.916016"/>
      </g>
     </g>
    </g>
    <g id="xtick_19">
     <g id="line2d_19"/>
     <g id="text_19">
      <!-- -20 -->
      <g style="fill: #262626" transform="translate(352.665939 349.135761) rotate(-45) scale(0.1 -0.1)">
       <use xlink:href="#ArialMT-2d"/>
       <use xlink:href="#ArialMT-32" x="33.300781"/>
       <use xlink:href="#ArialMT-30" x="88.916016"/>
      </g>
     </g>
    </g>
    <g id="xtick_20">
     <g id="line2d_20"/>
     <g id="text_20">
      <!-- -10 -->
      <g style="fill: #262626" transform="translate(368.963858 349.135761) rotate(-45) scale(0.1 -0.1)">
       <use xlink:href="#ArialMT-2d"/>
       <use xlink:href="#ArialMT-31" x="33.300781"/>
       <use xlink:href="#ArialMT-30" x="88.916016"/>
      </g>
     </g>
    </g>
    <g id="xtick_21">
     <g id="line2d_21"/>
     <g id="text_21">
      <!-- 0 -->
      <g style="fill: #262626" transform="translate(388.405088 342.849139) rotate(-45) scale(0.1 -0.1)">
       <use xlink:href="#ArialMT-30"/>
      </g>
     </g>
    </g>
    <g id="xtick_22">
     <g id="line2d_22"/>
     <g id="text_22">
      <!-- 10 -->
      <g style="fill: #262626" transform="translate(402.736918 346.781316) rotate(-45) scale(0.1 -0.1)">
       <use xlink:href="#ArialMT-31"/>
       <use xlink:href="#ArialMT-30" x="55.615234"/>
      </g>
     </g>
    </g>
    <g id="xtick_23">
     <g id="line2d_23"/>
     <g id="text_23">
      <!-- 20 -->
      <g style="fill: #262626" transform="translate(419.034837 346.781316) rotate(-45) scale(0.1 -0.1)">
       <use xlink:href="#ArialMT-32"/>
       <use xlink:href="#ArialMT-30" x="55.615234"/>
      </g>
     </g>
    </g>
    <g id="xtick_24">
     <g id="line2d_24"/>
     <g id="text_24">
      <!-- 30 -->
      <g style="fill: #262626" transform="translate(435.332756 346.781316) rotate(-45) scale(0.1 -0.1)">
       <use xlink:href="#ArialMT-33"/>
       <use xlink:href="#ArialMT-30" x="55.615234"/>
      </g>
     </g>
    </g>
    <g id="xtick_25">
     <g id="line2d_25"/>
     <g id="text_25">
      <!-- 40 -->
      <g style="fill: #262626" transform="translate(451.630675 346.781316) rotate(-45) scale(0.1 -0.1)">
       <use xlink:href="#ArialMT-34"/>
       <use xlink:href="#ArialMT-30" x="55.615234"/>
      </g>
     </g>
    </g>
    <g id="xtick_26">
     <g id="line2d_26"/>
     <g id="text_26">
      <!-- 50 -->
      <g style="fill: #262626" transform="translate(467.928594 346.781316) rotate(-45) scale(0.1 -0.1)">
       <use xlink:href="#ArialMT-35"/>
       <use xlink:href="#ArialMT-30" x="55.615234"/>
      </g>
     </g>
    </g>
    <g id="text_27">
     <!-- Position -->
     <g style="fill: #262626" transform="translate(245.927656 366.346906) scale(0.11 -0.11)">
      <defs>
       <path id="ArialMT-50" d="M 494 0 
L 494 4581 
L 2222 4581 
Q 2678 4581 2919 4538 
Q 3256 4481 3484 4323 
Q 3713 4166 3852 3881 
Q 3991 3597 3991 3256 
Q 3991 2672 3619 2267 
Q 3247 1863 2275 1863 
L 1100 1863 
L 1100 0 
L 494 0 
z
M 1100 2403 
L 2284 2403 
Q 2872 2403 3119 2622 
Q 3366 2841 3366 3238 
Q 3366 3525 3220 3729 
Q 3075 3934 2838 4000 
Q 2684 4041 2272 4041 
L 1100 4041 
L 1100 2403 
z
" transform="scale(0.015625)"/>
       <path id="ArialMT-6f" d="M 213 1659 
Q 213 2581 725 3025 
Q 1153 3394 1769 3394 
Q 2453 3394 2887 2945 
Q 3322 2497 3322 1706 
Q 3322 1066 3130 698 
Q 2938 331 2570 128 
Q 2203 -75 1769 -75 
Q 1072 -75 642 372 
Q 213 819 213 1659 
z
M 791 1659 
Q 791 1022 1069 705 
Q 1347 388 1769 388 
Q 2188 388 2466 706 
Q 2744 1025 2744 1678 
Q 2744 2294 2464 2611 
Q 2184 2928 1769 2928 
Q 1347 2928 1069 2612 
Q 791 2297 791 1659 
z
" transform="scale(0.015625)"/>
       <path id="ArialMT-73" d="M 197 991 
L 753 1078 
Q 800 744 1014 566 
Q 1228 388 1613 388 
Q 2000 388 2187 545 
Q 2375 703 2375 916 
Q 2375 1106 2209 1216 
Q 2094 1291 1634 1406 
Q 1016 1563 777 1677 
Q 538 1791 414 1992 
Q 291 2194 291 2438 
Q 291 2659 392 2848 
Q 494 3038 669 3163 
Q 800 3259 1026 3326 
Q 1253 3394 1513 3394 
Q 1903 3394 2198 3281 
Q 2494 3169 2634 2976 
Q 2775 2784 2828 2463 
L 2278 2388 
Q 2241 2644 2061 2787 
Q 1881 2931 1553 2931 
Q 1166 2931 1000 2803 
Q 834 2675 834 2503 
Q 834 2394 903 2306 
Q 972 2216 1119 2156 
Q 1203 2125 1616 2013 
Q 2213 1853 2448 1751 
Q 2684 1650 2818 1456 
Q 2953 1263 2953 975 
Q 2953 694 2789 445 
Q 2625 197 2315 61 
Q 2006 -75 1616 -75 
Q 969 -75 630 194 
Q 291 463 197 991 
z
" transform="scale(0.015625)"/>
       <path id="ArialMT-69" d="M 425 3934 
L 425 4581 
L 988 4581 
L 988 3934 
L 425 3934 
z
M 425 0 
L 425 3319 
L 988 3319 
L 988 0 
L 425 0 
z
" transform="scale(0.015625)"/>
       <path id="ArialMT-74" d="M 1650 503 
L 1731 6 
Q 1494 -44 1306 -44 
Q 1000 -44 831 53 
Q 663 150 594 308 
Q 525 466 525 972 
L 525 2881 
L 113 2881 
L 113 3319 
L 525 3319 
L 525 4141 
L 1084 4478 
L 1084 3319 
L 1650 3319 
L 1650 2881 
L 1084 2881 
L 1084 941 
Q 1084 700 1114 631 
Q 1144 563 1211 522 
Q 1278 481 1403 481 
Q 1497 481 1650 503 
z
" transform="scale(0.015625)"/>
       <path id="ArialMT-6e" d="M 422 0 
L 422 3319 
L 928 3319 
L 928 2847 
Q 1294 3394 1984 3394 
Q 2284 3394 2536 3286 
Q 2788 3178 2913 3003 
Q 3038 2828 3088 2588 
Q 3119 2431 3119 2041 
L 3119 0 
L 2556 0 
L 2556 2019 
Q 2556 2363 2490 2533 
Q 2425 2703 2258 2804 
Q 2091 2906 1866 2906 
Q 1506 2906 1245 2678 
Q 984 2450 984 1813 
L 984 0 
L 422 0 
z
" transform="scale(0.015625)"/>
      </defs>
      <use xlink:href="#ArialMT-50"/>
      <use xlink:href="#ArialMT-6f" x="66.699219"/>
      <use xlink:href="#ArialMT-73" x="122.314453"/>
      <use xlink:href="#ArialMT-69" x="172.314453"/>
      <use xlink:href="#ArialMT-74" x="194.53125"/>
      <use xlink:href="#ArialMT-69" x="222.314453"/>
      <use xlink:href="#ArialMT-6f" x="244.53125"/>
      <use xlink:href="#ArialMT-6e" x="300.146484"/>
     </g>
    </g>
   </g>
   <g id="matplotlib.axis_2">
    <g id="ytick_1">
     <g id="line2d_27"/>
     <g id="text_28">
      <!-- 1.9 -->
      <g style="fill: #262626" transform="translate(21.393906 278.878749) scale(0.1 -0.1)">
       <defs>
        <path id="ArialMT-2e" d="M 581 0 
L 581 641 
L 1222 641 
L 1222 0 
L 581 0 
z
" transform="scale(0.015625)"/>
       </defs>
       <use xlink:href="#ArialMT-31"/>
       <use xlink:href="#ArialMT-2e" x="55.615234"/>
       <use xlink:href="#ArialMT-39" x="83.398438"/>
      </g>
     </g>
    </g>
    <g id="ytick_2">
     <g id="line2d_28"/>
     <g id="text_29">
      <!-- 2.0 -->
      <g style="fill: #262626" transform="translate(21.393906 225.772639) scale(0.1 -0.1)">
       <use xlink:href="#ArialMT-32"/>
       <use xlink:href="#ArialMT-2e" x="55.615234"/>
       <use xlink:href="#ArialMT-30" x="83.398438"/>
      </g>
     </g>
    </g>
    <g id="ytick_3">
     <g id="line2d_29"/>
     <g id="text_30">
      <!-- 2.1 -->
      <g style="fill: #262626" transform="translate(21.393906 172.666529) scale(0.1 -0.1)">
       <use xlink:href="#ArialMT-32"/>
       <use xlink:href="#ArialMT-2e" x="55.615234"/>
       <use xlink:href="#ArialMT-31" x="83.398438"/>
      </g>
     </g>
    </g>
    <g id="ytick_4">
     <g id="line2d_30"/>
     <g id="text_31">
      <!-- 2.2 -->
      <g style="fill: #262626" transform="translate(21.393906 119.560419) scale(0.1 -0.1)">
       <use xlink:href="#ArialMT-32"/>
       <use xlink:href="#ArialMT-2e" x="55.615234"/>
       <use xlink:href="#ArialMT-32" x="83.398438"/>
      </g>
     </g>
    </g>
    <g id="ytick_5">
     <g id="line2d_31"/>
     <g id="text_32">
      <!-- 2.3 -->
      <g style="fill: #262626" transform="translate(21.393906 66.45431) scale(0.1 -0.1)">
       <use xlink:href="#ArialMT-32"/>
       <use xlink:href="#ArialMT-2e" x="55.615234"/>
       <use xlink:href="#ArialMT-33" x="83.398438"/>
      </g>
     </g>
    </g>
    <g id="text_33">
     <!-- Breslauer_dG -->
     <g style="fill: #262626" transform="translate(15.207656 208.328047) rotate(-90) scale(0.11 -0.11)">
      <defs>
       <path id="ArialMT-42" d="M 469 0 
L 469 4581 
L 2188 4581 
Q 2713 4581 3030 4442 
Q 3347 4303 3526 4014 
Q 3706 3725 3706 3409 
Q 3706 3116 3547 2856 
Q 3388 2597 3066 2438 
Q 3481 2316 3704 2022 
Q 3928 1728 3928 1328 
Q 3928 1006 3792 729 
Q 3656 453 3456 303 
Q 3256 153 2954 76 
Q 2653 0 2216 0 
L 469 0 
z
M 1075 2656 
L 2066 2656 
Q 2469 2656 2644 2709 
Q 2875 2778 2992 2937 
Q 3109 3097 3109 3338 
Q 3109 3566 3000 3739 
Q 2891 3913 2687 3977 
Q 2484 4041 1991 4041 
L 1075 4041 
L 1075 2656 
z
M 1075 541 
L 2216 541 
Q 2509 541 2628 563 
Q 2838 600 2978 687 
Q 3119 775 3209 942 
Q 3300 1109 3300 1328 
Q 3300 1584 3169 1773 
Q 3038 1963 2805 2039 
Q 2572 2116 2134 2116 
L 1075 2116 
L 1075 541 
z
" transform="scale(0.015625)"/>
       <path id="ArialMT-72" d="M 416 0 
L 416 3319 
L 922 3319 
L 922 2816 
Q 1116 3169 1280 3281 
Q 1444 3394 1641 3394 
Q 1925 3394 2219 3213 
L 2025 2691 
Q 1819 2813 1613 2813 
Q 1428 2813 1281 2702 
Q 1134 2591 1072 2394 
Q 978 2094 978 1738 
L 978 0 
L 416 0 
z
" transform="scale(0.015625)"/>
       <path id="ArialMT-65" d="M 2694 1069 
L 3275 997 
Q 3138 488 2766 206 
Q 2394 -75 1816 -75 
Q 1088 -75 661 373 
Q 234 822 234 1631 
Q 234 2469 665 2931 
Q 1097 3394 1784 3394 
Q 2450 3394 2872 2941 
Q 3294 2488 3294 1666 
Q 3294 1616 3291 1516 
L 816 1516 
Q 847 969 1125 678 
Q 1403 388 1819 388 
Q 2128 388 2347 550 
Q 2566 713 2694 1069 
z
M 847 1978 
L 2700 1978 
Q 2663 2397 2488 2606 
Q 2219 2931 1791 2931 
Q 1403 2931 1139 2672 
Q 875 2413 847 1978 
z
" transform="scale(0.015625)"/>
       <path id="ArialMT-6c" d="M 409 0 
L 409 4581 
L 972 4581 
L 972 0 
L 409 0 
z
" transform="scale(0.015625)"/>
       <path id="ArialMT-61" d="M 2588 409 
Q 2275 144 1986 34 
Q 1697 -75 1366 -75 
Q 819 -75 525 192 
Q 231 459 231 875 
Q 231 1119 342 1320 
Q 453 1522 633 1644 
Q 813 1766 1038 1828 
Q 1203 1872 1538 1913 
Q 2219 1994 2541 2106 
Q 2544 2222 2544 2253 
Q 2544 2597 2384 2738 
Q 2169 2928 1744 2928 
Q 1347 2928 1158 2789 
Q 969 2650 878 2297 
L 328 2372 
Q 403 2725 575 2942 
Q 747 3159 1072 3276 
Q 1397 3394 1825 3394 
Q 2250 3394 2515 3294 
Q 2781 3194 2906 3042 
Q 3031 2891 3081 2659 
Q 3109 2516 3109 2141 
L 3109 1391 
Q 3109 606 3145 398 
Q 3181 191 3288 0 
L 2700 0 
Q 2613 175 2588 409 
z
M 2541 1666 
Q 2234 1541 1622 1453 
Q 1275 1403 1131 1340 
Q 988 1278 909 1158 
Q 831 1038 831 891 
Q 831 666 1001 516 
Q 1172 366 1500 366 
Q 1825 366 2078 508 
Q 2331 650 2450 897 
Q 2541 1088 2541 1459 
L 2541 1666 
z
" transform="scale(0.015625)"/>
       <path id="ArialMT-75" d="M 2597 0 
L 2597 488 
Q 2209 -75 1544 -75 
Q 1250 -75 995 37 
Q 741 150 617 320 
Q 494 491 444 738 
Q 409 903 409 1263 
L 409 3319 
L 972 3319 
L 972 1478 
Q 972 1038 1006 884 
Q 1059 663 1231 536 
Q 1403 409 1656 409 
Q 1909 409 2131 539 
Q 2353 669 2445 892 
Q 2538 1116 2538 1541 
L 2538 3319 
L 3100 3319 
L 3100 0 
L 2597 0 
z
" transform="scale(0.015625)"/>
       <path id="ArialMT-5f" d="M -97 -1272 
L -97 -866 
L 3631 -866 
L 3631 -1272 
L -97 -1272 
z
" transform="scale(0.015625)"/>
       <path id="ArialMT-64" d="M 2575 0 
L 2575 419 
Q 2259 -75 1647 -75 
Q 1250 -75 917 144 
Q 584 363 401 755 
Q 219 1147 219 1656 
Q 219 2153 384 2558 
Q 550 2963 881 3178 
Q 1213 3394 1622 3394 
Q 1922 3394 2156 3267 
Q 2391 3141 2538 2938 
L 2538 4581 
L 3097 4581 
L 3097 0 
L 2575 0 
z
M 797 1656 
Q 797 1019 1065 703 
Q 1334 388 1700 388 
Q 2069 388 2326 689 
Q 2584 991 2584 1609 
Q 2584 2291 2321 2609 
Q 2059 2928 1675 2928 
Q 1300 2928 1048 2622 
Q 797 2316 797 1656 
z
" transform="scale(0.015625)"/>
       <path id="ArialMT-47" d="M 2638 1797 
L 2638 2334 
L 4578 2338 
L 4578 638 
Q 4131 281 3656 101 
Q 3181 -78 2681 -78 
Q 2006 -78 1454 211 
Q 903 500 622 1047 
Q 341 1594 341 2269 
Q 341 2938 620 3517 
Q 900 4097 1425 4378 
Q 1950 4659 2634 4659 
Q 3131 4659 3532 4498 
Q 3934 4338 4162 4050 
Q 4391 3763 4509 3300 
L 3963 3150 
Q 3859 3500 3706 3700 
Q 3553 3900 3268 4020 
Q 2984 4141 2638 4141 
Q 2222 4141 1919 4014 
Q 1616 3888 1430 3681 
Q 1244 3475 1141 3228 
Q 966 2803 966 2306 
Q 966 1694 1177 1281 
Q 1388 869 1791 669 
Q 2194 469 2647 469 
Q 3041 469 3416 620 
Q 3791 772 3984 944 
L 3984 1797 
L 2638 1797 
z
" transform="scale(0.015625)"/>
      </defs>
      <use xlink:href="#ArialMT-42"/>
      <use xlink:href="#ArialMT-72" x="66.699219"/>
      <use xlink:href="#ArialMT-65" x="100"/>
      <use xlink:href="#ArialMT-73" x="155.615234"/>
      <use xlink:href="#ArialMT-6c" x="205.615234"/>
      <use xlink:href="#ArialMT-61" x="227.832031"/>
      <use xlink:href="#ArialMT-75" x="283.447266"/>
      <use xlink:href="#ArialMT-65" x="339.0625"/>
      <use xlink:href="#ArialMT-72" x="394.677734"/>
      <use xlink:href="#ArialMT-5f" x="427.978516"/>
      <use xlink:href="#ArialMT-64" x="483.59375"/>
      <use xlink:href="#ArialMT-47" x="539.208984"/>
     </g>
    </g>
   </g>
   <g id="line2d_32">
    <path d="M 62.584815 165.411975 
L 64.214607 170.235652 
L 65.844399 164.710764 
L 67.474191 164.952111 
L 69.103983 163.73233 
L 70.733775 167.059004 
L 72.363567 167.531914 
L 73.993359 166.132754 
L 75.62315 165.242379 
L 77.252942 160.183878 
L 78.882734 159.319595 
L 80.512526 161.465626 
L 82.142318 162.8974 
L 85.401902 158.699921 
L 87.031694 157.992187 
L 88.661486 158.233534 
L 90.291278 156.155994 
L 91.921069 153.237 
L 93.550861 155.376508 
L 95.180653 158.598816 
L 96.810445 156.446262 
L 98.440237 156.860466 
L 100.070029 158.165044 
L 101.699821 158.791241 
L 103.329613 154.326323 
L 104.959405 153.243523 
L 106.589197 151.984605 
L 108.218988 153.19134 
L 109.84878 148.690546 
L 111.478572 148.602487 
L 113.108364 147.379445 
L 114.738156 142.709056 
L 116.367948 145.549774 
L 117.99774 149.835313 
L 119.627532 144.828995 
L 121.257324 150.546308 
L 122.887115 150.184288 
L 124.516907 145.931363 
L 126.146699 143.932097 
L 127.776491 146.701064 
L 129.406283 146.521685 
L 131.036075 145.171447 
L 132.665867 149.01669 
L 134.295659 149.026475 
L 135.925451 147.046777 
L 137.555243 144.091908 
L 139.185034 145.826997 
L 140.814826 139.196479 
L 142.444618 141.825204 
L 144.07441 138.749661 
L 145.704202 143.031939 
L 147.333994 142.963448 
L 148.963786 141.254451 
L 152.22337 133.440029 
L 153.853161 133.495473 
L 155.482953 133.684637 
L 157.112745 134.522828 
L 158.742537 138.681171 
L 160.372329 133.890108 
L 162.002121 129.604569 
L 163.631913 128.420665 
L 165.261705 129.229503 
L 166.891497 132.070222 
L 168.521289 129.611092 
L 170.15108 128.746809 
L 171.780872 129.376268 
L 173.410664 132.735557 
L 175.040456 125.922398 
L 176.670248 128.502201 
L 178.30004 122.282625 
L 179.929832 119.830018 
L 183.189416 123.03928 
L 184.819207 120.971524 
L 186.448999 120.788883 
L 188.078791 118.319969 
L 189.708583 116.643587 
L 191.338375 118.300401 
L 192.968167 119.249481 
L 194.597959 121.248747 
L 196.227751 121.79667 
L 197.857543 117.657896 
L 199.487335 115.56731 
L 201.117126 114.660628 
L 202.746918 111.784033 
L 204.37671 116.78709 
L 206.006502 114.699765 
L 207.636294 110.724064 
L 209.266086 109.448839 
L 210.895878 113.08535 
L 212.52567 108.806334 
L 214.155462 108.956361 
L 215.785253 105.362248 
L 217.415045 104.954568 
L 219.044837 104.788234 
L 220.674629 109.1814 
L 222.304421 107.234318 
L 223.934213 106.944049 
L 225.564005 103.588022 
L 227.193797 109.373826 
L 228.823589 106.973402 
L 230.453381 105.38834 
L 232.083172 104.595809 
L 233.712964 105.055672 
L 235.342756 100.457035 
L 236.972548 95.02999 
L 238.60234 95.783384 
L 240.232132 97.80548 
L 241.861924 98.118579 
L 245.121508 97.945722 
L 246.751299 92.99811 
L 248.381091 86.86007 
L 250.010883 94.886487 
L 251.640675 88.184217 
L 253.270467 85.832715 
L 254.900259 90.525935 
L 256.530051 87.796105 
L 258.159843 89.479011 
L 259.789635 88.432087 
L 261.419427 85.063014 
L 263.049218 81.990733 
L 264.67901 80.164324 
L 266.308802 76.749591 
L 267.938594 75.585255 
L 269.568386 82.597362 
L 271.198178 86.230611 
L 272.82797 80.816613 
L 274.457762 78.318346 
L 276.087554 83.572534 
L 277.717345 80.894887 
L 279.347137 80.969901 
L 280.976929 79.831656 
L 282.606721 72.97936 
L 284.236513 72.320548 
L 285.866305 72.663 
L 287.496097 72.878255 
L 289.125889 78.569477 
L 290.755681 78.112875 
L 292.385473 75.692882 
L 294.015264 71.899822 
L 295.645056 66.779353 
L 297.274848 62.849312 
L 298.90464 63.332006 
L 300.534432 60.419535 
L 302.164224 60.031423 
L 303.794016 65.797658 
L 305.423808 68.977567 
L 307.0536 69.010181 
L 308.683391 68.168729 
L 310.313183 54.346725 
L 311.942975 52.771447 
L 313.572767 49.712211 
L 315.202559 39.745235 
L 316.832351 39.673483 
L 318.462143 42.602261 
L 320.091935 46.3464 
L 321.721727 50.644984 
L 323.351519 56.280761 
L 324.98131 55.863296 
L 326.611102 53.554193 
L 328.240894 52.428995 
L 329.870686 60.667405 
L 331.500478 73.132648 
L 333.13027 72.486882 
L 334.760062 67.310969 
L 336.389854 66.743477 
L 338.019646 79.114138 
L 339.649437 98.666501 
L 341.279229 121.082413 
L 342.909021 149.538521 
L 344.538813 164.753163 
L 346.168605 145.820474 
L 347.798397 94.687538 
L 349.428189 62.402494 
L 351.057981 47.129147 
L 352.687773 39.803941 
L 354.317565 41.874959 
L 357.577148 54.356509 
L 359.20694 54.301064 
L 360.836732 58.792074 
L 362.466524 60.752203 
L 364.096316 55.455616 
L 365.726108 44.493899 
L 367.3559 35.795625 
L 368.985692 36.565326 
L 370.615483 54.53915 
L 372.245275 61.195759 
L 373.875067 58.867087 
L 375.504859 64.359361 
L 377.134651 64.418067 
L 378.764443 86.654599 
L 380.394235 80.167585 
L 382.024027 47.615102 
L 383.653819 74.440488 
L 385.283611 85.999049 
L 386.913402 165.261948 
L 388.543194 312.995625 
L 390.172986 280.73341 
L 391.802778 244.371559 
L 393.43257 126.845387 
L 395.062362 122.621815 
L 396.692154 87.466699 
L 398.321946 80.594834 
L 399.951738 83.976953 
L 401.581529 81.071005 
L 403.211321 81.687418 
L 404.841113 83.06701 
L 406.470905 75.278679 
L 408.100697 66.404287 
L 409.730489 68.370938 
L 411.360281 67.836061 
L 412.990073 69.238483 
L 414.619865 61.035948 
L 416.249657 57.957144 
L 417.879448 74.936227 
L 419.50924 81.755909 
L 421.139032 78.360744 
L 422.768824 65.866148 
L 424.398616 71.322546 
L 426.028408 82.747388 
L 427.6582 88.533192 
L 429.287992 93.389483 
L 430.917784 79.68163 
L 432.547575 69.61681 
L 434.177367 79.097831 
L 435.807159 98.131624 
L 437.436951 89.501841 
L 439.066743 79.534865 
L 440.696535 79.505512 
L 442.326327 90.415045 
L 443.956119 94.707107 
L 445.585911 96.275862 
L 447.215703 100.212426 
L 448.845494 95.7736 
L 450.475286 87.695 
L 452.105078 92.753502 
L 453.73487 95.153925 
L 455.364662 88.154864 
L 456.994454 84.247653 
L 458.624246 76.191884 
L 460.254038 76.736545 
L 461.88383 71.743272 
L 463.513621 67.470779 
L 465.143413 72.004188 
L 466.773205 74.10782 
L 468.402997 79.290256 
L 468.402997 79.290256 
" clip-path="url(#pb97c44c4a3)" style="fill: none; stroke: #0272a2; stroke-width: 1.75; stroke-linecap: round"/>
   </g>
   <g id="line2d_33">
    <path d="M 62.584815 280.710582 
L 64.214607 279.088858 
L 65.844399 277.028541 
L 67.474191 280.462402 
L 69.103983 279.150902 
L 72.363567 278.132511 
L 73.993359 276.181308 
L 75.62315 276.953659 
L 77.252942 275.907455 
L 78.882734 280.047344 
L 80.512526 277.060633 
L 82.142318 280.169294 
L 83.77211 277.755963 
L 85.401902 278.645986 
L 87.031694 276.938683 
L 88.661486 277.832984 
L 90.291278 278.350738 
L 91.921069 275.370446 
L 93.550861 283.322884 
L 95.180653 279.035371 
L 96.810445 278.34218 
L 98.440237 280.746953 
L 100.070029 276.66269 
L 101.699821 278.072606 
L 103.329613 275.888199 
L 104.959405 277.141933 
L 106.589197 274.82274 
L 108.218988 278.866352 
L 109.84878 279.771351 
L 111.478572 278.391388 
L 113.108364 278.930536 
L 114.738156 280.372544 
L 116.367948 276.634877 
L 117.99774 276.761106 
L 119.627532 275.96736 
L 121.257324 277.120538 
L 122.887115 279.831256 
L 124.516907 277.535597 
L 126.146699 279.191553 
L 127.776491 275.342633 
L 129.406283 277.520621 
L 131.036075 279.456848 
L 132.665867 276.634877 
L 134.295659 278.166743 
L 135.925451 280.462402 
L 137.555243 274.431215 
L 139.185034 274.394844 
L 140.814826 277.832984 
L 142.444618 277.593363 
L 144.07441 281.074293 
L 145.704202 280.969458 
L 147.333994 278.320785 
L 148.963786 278.149627 
L 150.593578 282.693877 
L 152.22337 279.225784 
L 153.853161 278.115395 
L 155.482953 280.314778 
L 157.112745 279.93823 
L 158.742537 278.979744 
L 160.372329 274.005459 
L 162.002121 278.838539 
L 163.631913 278.665241 
L 165.261705 280.252733 
L 166.891497 280.832532 
L 168.521289 280.67421 
L 170.15108 278.395667 
L 171.780872 272.332388 
L 173.410664 276.632737 
L 175.040456 277.582665 
L 176.670248 279.595914 
L 178.30004 279.185134 
L 179.929832 280.254873 
L 181.559624 278.498362 
L 183.189416 273.746582 
L 184.819207 275.873223 
L 186.448999 276.696922 
L 188.078791 275.342633 
L 189.708583 281.49577 
L 191.338375 275.862526 
L 192.968167 280.483797 
L 194.597959 277.830845 
L 196.227751 277.93354 
L 197.857543 280.727697 
L 199.487335 276.617761 
L 201.117126 275.72346 
L 202.746918 279.884743 
L 204.37671 276.346047 
L 206.006502 275.59937 
L 207.636294 279.056765 
L 209.266086 281.243311 
L 210.895878 279.090997 
L 212.52567 279.565961 
L 214.155462 276.842406 
L 215.785253 279.966043 
L 217.415045 278.862073 
L 219.044837 276.217679 
L 220.674629 275.438909 
L 222.304421 282.007105 
L 223.934213 277.27672 
L 225.564005 278.329343 
L 227.193797 283.327162 
L 228.823589 282.884291 
L 230.453381 279.084579 
L 232.083172 276.215539 
L 233.712964 275.717041 
L 235.342756 281.305356 
L 236.972548 281.309635 
L 238.60234 277.206117 
L 240.232132 281.626278 
L 241.861924 281.324612 
L 243.491716 280.543702 
L 245.121508 274.245081 
L 246.751299 273.444916 
L 248.381091 280.295523 
L 250.010883 280.712721 
L 253.270467 278.919839 
L 254.900259 278.616033 
L 256.530051 274.8206 
L 258.159843 278.211672 
L 259.789635 277.479971 
L 261.419427 278.327204 
L 263.049218 274.884784 
L 264.67901 279.379827 
L 266.308802 278.057629 
L 267.938594 278.213811 
L 269.568386 280.746953 
L 271.198178 283.853474 
L 272.82797 278.75082 
L 274.457762 279.709306 
L 276.087554 279.548845 
L 277.717345 279.844093 
L 279.347137 279.082439 
L 280.976929 279.550985 
L 282.606721 278.036235 
L 284.236513 277.180444 
L 285.866305 277.300254 
L 287.496097 279.3242 
L 289.125889 279.369129 
L 290.755681 275.717041 
L 292.385473 278.410643 
L 294.015264 277.362299 
L 295.645056 279.088858 
L 297.274848 281.474375 
L 298.90464 281.517165 
L 300.534432 277.144073 
L 302.164224 279.251458 
L 303.794016 281.57493 
L 305.423808 279.251458 
L 307.0536 278.684496 
L 308.683391 279.790606 
L 310.313183 277.099144 
L 311.942975 273.59254 
L 313.572767 278.350738 
L 315.202559 279.493219 
L 316.832351 279.929672 
L 318.462143 278.044793 
L 320.091935 279.046068 
L 321.721727 277.794474 
L 323.351519 276.913009 
L 324.98131 278.990442 
L 326.611102 278.044793 
L 328.240894 279.615169 
L 329.870686 278.365714 
L 331.500478 276.829569 
L 333.13027 277.221094 
L 334.760062 281.748228 
L 336.389854 277.922842 
L 338.019646 279.771351 
L 339.649437 277.995585 
L 341.279229 278.519757 
L 342.909021 276.08931 
L 344.538813 281.876597 
L 346.168605 280.669931 
L 347.798397 279.257876 
L 349.428189 279.645122 
L 351.057981 277.755963 
L 352.687773 275.616486 
L 355.947356 276.726874 
L 357.577148 276.027265 
L 359.20694 275.997313 
L 360.836732 278.209532 
L 362.466524 281.818831 
L 364.096316 282.15045 
L 365.726108 282.666064 
L 367.3559 279.728561 
L 368.985692 277.623316 
L 370.615483 280.438868 
L 372.245275 277.888611 
L 373.875067 275.92457 
L 375.504859 278.168882 
L 377.134651 279.332758 
L 378.764443 279.418337 
L 380.394235 276.405953 
L 382.024027 278.168882 
L 383.653819 277.899308 
L 385.283611 276.936543 
L 386.913402 277.954935 
L 388.543194 276.322513 
L 390.172986 280.588631 
L 391.802778 281.74181 
L 395.062362 277.27672 
L 396.692154 277.086307 
L 398.321946 279.681493 
L 399.951738 280.115807 
L 401.581529 276.41879 
L 403.211321 277.820147 
L 404.841113 280.605747 
L 406.470905 280.156457 
L 408.100697 278.999 
L 409.730489 279.287829 
L 411.360281 280.744813 
L 412.990073 277.424344 
L 414.619865 276.104287 
L 416.249657 277.126957 
L 417.879448 280.67635 
L 419.50924 277.011425 
L 421.139032 274.662279 
L 422.768824 279.728561 
L 424.398616 279.839814 
L 426.028408 278.314367 
L 427.6582 278.010561 
L 429.287992 278.909141 
L 430.917784 275.986615 
L 432.547575 278.800028 
L 434.177367 277.918563 
L 435.807159 278.126093 
L 437.436951 278.0127 
L 439.066743 279.095276 
L 440.696535 279.495358 
L 442.326327 278.785052 
L 443.956119 281.912968 
L 445.585911 276.812454 
L 447.215703 277.287418 
L 448.845494 275.156498 
L 450.475286 274.946829 
L 452.105078 278.620312 
L 453.73487 278.851376 
L 455.364662 276.598506 
L 456.994454 274.921155 
L 460.254038 277.950656 
L 461.88383 276.159913 
L 463.513621 280.88174 
L 465.143413 275.513791 
L 466.773205 277.937819 
L 468.402997 279.642982 
L 468.402997 279.642982 
" clip-path="url(#pb97c44c4a3)" style="fill: none; stroke-dasharray: 1.75,2.8875; stroke-dashoffset: 0; stroke: #9fc377; stroke-width: 1.75"/>
   </g>
   <g id="patch_3">
    <path d="M 42.293906 326.855625 
L 42.293906 21.935625 
" style="fill: none; stroke: #cccccc; stroke-width: 1.25; stroke-linejoin: miter; stroke-linecap: square"/>
   </g>
   <g id="patch_4">
    <path d="M 488.693906 326.855625 
L 488.693906 21.935625 
" style="fill: none; stroke: #cccccc; stroke-width: 1.25; stroke-linejoin: miter; stroke-linecap: square"/>
   </g>
   <g id="patch_5">
    <path d="M 42.293906 326.855625 
L 488.693906 326.855625 
" style="fill: none; stroke: #cccccc; stroke-width: 1.25; stroke-linejoin: miter; stroke-linecap: square"/>
   </g>
   <g id="patch_6">
    <path d="M 42.293906 21.935625 
L 488.693906 21.935625 
" style="fill: none; stroke: #cccccc; stroke-width: 1.25; stroke-linejoin: miter; stroke-linecap: square"/>
   </g>
   <g id="text_34">
    <!-- "Breslauer_dG" for dataset Mouse_non_tata -->
    <g style="fill: #262626" transform="translate(147.837656 15.935625) scale(0.12 -0.12)">
     <defs>
      <path id="ArialMT-22" d="M 450 2959 
L 294 3831 
L 294 4581 
L 934 4581 
L 934 3831 
L 794 2959 
L 450 2959 
z
M 1484 2959 
L 1331 3831 
L 1331 4581 
L 1972 4581 
L 1972 3831 
L 1822 2959 
L 1484 2959 
z
" transform="scale(0.015625)"/>
      <path id="ArialMT-20" transform="scale(0.015625)"/>
      <path id="ArialMT-66" d="M 556 0 
L 556 2881 
L 59 2881 
L 59 3319 
L 556 3319 
L 556 3672 
Q 556 4006 616 4169 
Q 697 4388 901 4523 
Q 1106 4659 1475 4659 
Q 1713 4659 2000 4603 
L 1916 4113 
Q 1741 4144 1584 4144 
Q 1328 4144 1222 4034 
Q 1116 3925 1116 3625 
L 1116 3319 
L 1763 3319 
L 1763 2881 
L 1116 2881 
L 1116 0 
L 556 0 
z
" transform="scale(0.015625)"/>
      <path id="ArialMT-4d" d="M 475 0 
L 475 4581 
L 1388 4581 
L 2472 1338 
Q 2622 884 2691 659 
Q 2769 909 2934 1394 
L 4031 4581 
L 4847 4581 
L 4847 0 
L 4263 0 
L 4263 3834 
L 2931 0 
L 2384 0 
L 1059 3900 
L 1059 0 
L 475 0 
z
" transform="scale(0.015625)"/>
     </defs>
     <use xlink:href="#ArialMT-22"/>
     <use xlink:href="#ArialMT-42" x="35.498047"/>
     <use xlink:href="#ArialMT-72" x="102.197266"/>
     <use xlink:href="#ArialMT-65" x="135.498047"/>
     <use xlink:href="#ArialMT-73" x="191.113281"/>
     <use xlink:href="#ArialMT-6c" x="241.113281"/>
     <use xlink:href="#ArialMT-61" x="263.330078"/>
     <use xlink:href="#ArialMT-75" x="318.945312"/>
     <use xlink:href="#ArialMT-65" x="374.560547"/>
     <use xlink:href="#ArialMT-72" x="430.175781"/>
     <use xlink:href="#ArialMT-5f" x="463.476562"/>
     <use xlink:href="#ArialMT-64" x="519.091797"/>
     <use xlink:href="#ArialMT-47" x="574.707031"/>
     <use xlink:href="#ArialMT-22" x="652.490234"/>
     <use xlink:href="#ArialMT-20" x="687.988281"/>
     <use xlink:href="#ArialMT-66" x="715.771484"/>
     <use xlink:href="#ArialMT-6f" x="743.554688"/>
     <use xlink:href="#ArialMT-72" x="799.169922"/>
     <use xlink:href="#ArialMT-20" x="832.470703"/>
     <use xlink:href="#ArialMT-64" x="860.253906"/>
     <use xlink:href="#ArialMT-61" x="915.869141"/>
     <use xlink:href="#ArialMT-74" x="971.484375"/>
     <use xlink:href="#ArialMT-61" x="999.267578"/>
     <use xlink:href="#ArialMT-73" x="1054.882812"/>
     <use xlink:href="#ArialMT-65" x="1104.882812"/>
     <use xlink:href="#ArialMT-74" x="1160.498047"/>
     <use xlink:href="#ArialMT-20" x="1188.28125"/>
     <use xlink:href="#ArialMT-4d" x="1216.064453"/>
     <use xlink:href="#ArialMT-6f" x="1299.365234"/>
     <use xlink:href="#ArialMT-75" x="1354.980469"/>
     <use xlink:href="#ArialMT-73" x="1410.595703"/>
     <use xlink:href="#ArialMT-65" x="1460.595703"/>
     <use xlink:href="#ArialMT-5f" x="1516.210938"/>
     <use xlink:href="#ArialMT-6e" x="1571.826172"/>
     <use xlink:href="#ArialMT-6f" x="1627.441406"/>
     <use xlink:href="#ArialMT-6e" x="1683.056641"/>
     <use xlink:href="#ArialMT-5f" x="1738.671875"/>
     <use xlink:href="#ArialMT-74" x="1794.287109"/>
     <use xlink:href="#ArialMT-61" x="1822.070312"/>
     <use xlink:href="#ArialMT-74" x="1877.685547"/>
     <use xlink:href="#ArialMT-61" x="1905.46875"/>
    </g>
   </g>
   <g id="legend_1">
    <g id="line2d_34">
     <path d="M 51.293906 34.593437 
L 61.293906 34.593437 
L 71.293906 34.593437 
" style="fill: none; stroke: #0272a2; stroke-width: 1.75; stroke-linecap: round"/>
    </g>
    <g id="text_35">
     <!-- Promoter -->
     <g style="fill: #262626" transform="translate(79.293906 38.093437) scale(0.1 -0.1)">
      <defs>
       <path id="ArialMT-6d" d="M 422 0 
L 422 3319 
L 925 3319 
L 925 2853 
Q 1081 3097 1340 3245 
Q 1600 3394 1931 3394 
Q 2300 3394 2536 3241 
Q 2772 3088 2869 2813 
Q 3263 3394 3894 3394 
Q 4388 3394 4653 3120 
Q 4919 2847 4919 2278 
L 4919 0 
L 4359 0 
L 4359 2091 
Q 4359 2428 4304 2576 
Q 4250 2725 4106 2815 
Q 3963 2906 3769 2906 
Q 3419 2906 3187 2673 
Q 2956 2441 2956 1928 
L 2956 0 
L 2394 0 
L 2394 2156 
Q 2394 2531 2256 2718 
Q 2119 2906 1806 2906 
Q 1569 2906 1367 2781 
Q 1166 2656 1075 2415 
Q 984 2175 984 1722 
L 984 0 
L 422 0 
z
" transform="scale(0.015625)"/>
      </defs>
      <use xlink:href="#ArialMT-50"/>
      <use xlink:href="#ArialMT-72" x="66.699219"/>
      <use xlink:href="#ArialMT-6f" x="100"/>
      <use xlink:href="#ArialMT-6d" x="155.615234"/>
      <use xlink:href="#ArialMT-6f" x="238.916016"/>
      <use xlink:href="#ArialMT-74" x="294.53125"/>
      <use xlink:href="#ArialMT-65" x="322.314453"/>
      <use xlink:href="#ArialMT-72" x="377.929688"/>
     </g>
    </g>
    <g id="line2d_35">
     <path d="M 51.293906 48.73875 
L 61.293906 48.73875 
L 71.293906 48.73875 
" style="fill: none; stroke-dasharray: 1.75,2.8875; stroke-dashoffset: 0; stroke: #9fc377; stroke-width: 1.75"/>
    </g>
    <g id="text_36">
     <!-- Non-promoter -->
     <g style="fill: #262626" transform="translate(79.293906 52.23875) scale(0.1 -0.1)">
      <defs>
       <path id="ArialMT-4e" d="M 488 0 
L 488 4581 
L 1109 4581 
L 3516 984 
L 3516 4581 
L 4097 4581 
L 4097 0 
L 3475 0 
L 1069 3600 
L 1069 0 
L 488 0 
z
" transform="scale(0.015625)"/>
       <path id="ArialMT-70" d="M 422 -1272 
L 422 3319 
L 934 3319 
L 934 2888 
Q 1116 3141 1344 3267 
Q 1572 3394 1897 3394 
Q 2322 3394 2647 3175 
Q 2972 2956 3137 2557 
Q 3303 2159 3303 1684 
Q 3303 1175 3120 767 
Q 2938 359 2589 142 
Q 2241 -75 1856 -75 
Q 1575 -75 1351 44 
Q 1128 163 984 344 
L 984 -1272 
L 422 -1272 
z
M 931 1641 
Q 931 1000 1190 694 
Q 1450 388 1819 388 
Q 2194 388 2461 705 
Q 2728 1022 2728 1688 
Q 2728 2322 2467 2637 
Q 2206 2953 1844 2953 
Q 1484 2953 1207 2617 
Q 931 2281 931 1641 
z
" transform="scale(0.015625)"/>
      </defs>
      <use xlink:href="#ArialMT-4e"/>
      <use xlink:href="#ArialMT-6f" x="72.216797"/>
      <use xlink:href="#ArialMT-6e" x="127.832031"/>
      <use xlink:href="#ArialMT-2d" x="183.447266"/>
      <use xlink:href="#ArialMT-70" x="216.748047"/>
      <use xlink:href="#ArialMT-72" x="272.363281"/>
      <use xlink:href="#ArialMT-6f" x="305.664062"/>
      <use xlink:href="#ArialMT-6d" x="361.279297"/>
      <use xlink:href="#ArialMT-6f" x="444.580078"/>
      <use xlink:href="#ArialMT-74" x="500.195312"/>
      <use xlink:href="#ArialMT-65" x="527.978516"/>
      <use xlink:href="#ArialMT-72" x="583.59375"/>
     </g>
    </g>
   </g>
  </g>
 </g>
 <defs>
  <clipPath id="pb97c44c4a3">
   <rect x="42.293906" y="21.935625" width="446.4" height="304.92"/>
  </clipPath>
 </defs>
</svg>
