<?xml version="1.0" encoding="utf-8" standalone="no"?>
<!DOCTYPE svg PUBLIC "-//W3C//DTD SVG 1.1//EN"
  "http://www.w3.org/Graphics/SVG/1.1/DTD/svg11.dtd">
<svg xmlns:xlink="http://www.w3.org/1999/xlink" width="501.320781pt" height="375.733156pt" viewBox="0 0 501.320781 375.733156" xmlns="http://www.w3.org/2000/svg" version="1.1">
 <metadata>
  <rdf:RDF xmlns:dc="http://purl.org/dc/elements/1.1/" xmlns:cc="http://creativecommons.org/ns#" xmlns:rdf="http://www.w3.org/1999/02/22-rdf-syntax-ns#">
   <cc:Work>
    <dc:type rdf:resource="http://purl.org/dc/dcmitype/StillImage"/>
    <dc:date>2023-05-11T16:25:44.626302</dc:date>
    <dc:format>image/svg+xml</dc:format>
    <dc:creator>
     <cc:Agent>
      <dc:title>Matplotlib v3.7.1, https://matplotlib.org/</dc:title>
     </cc:Agent>
    </dc:creator>
   </cc:Work>
  </rdf:RDF>
 </metadata>
 <defs>
  <style type="text/css">*{stroke-linejoin: round; stroke-linecap: butt}</style>
 </defs>
 <g id="figure_1">
  <g id="patch_1">
   <path d="M 0 375.733156 
L 501.320781 375.733156 
L 501.320781 0 
L 0 0 
z
" style="fill: #ffffff"/>
  </g>
  <g id="axes_1">
   <g id="patch_2">
    <path d="M 47.720781 326.855625 
L 494.120781 326.855625 
L 494.120781 21.935625 
L 47.720781 21.935625 
z
" style="fill: #ffffff"/>
   </g>
   <g id="matplotlib.axis_1">
    <g id="xtick_1">
     <g id="line2d_1"/>
     <g id="text_1">
      <!-- -200 -->
      <g style="fill: #262626" transform="translate(62.764185 353.067937) rotate(-45) scale(0.1 -0.1)">
       <defs>
        <path id="ArialMT-2d" d="M 203 1375 
L 203 1941 
L 1931 1941 
L 1931 1375 
L 203 1375 
z
" transform="scale(0.015625)"/>
        <path id="ArialMT-32" d="M 3222 541 
L 3222 0 
L 194 0 
Q 188 203 259 391 
Q 375 700 629 1000 
Q 884 1300 1366 1694 
Q 2113 2306 2375 2664 
Q 2638 3022 2638 3341 
Q 2638 3675 2398 3904 
Q 2159 4134 1775 4134 
Q 1369 4134 1125 3890 
Q 881 3647 878 3216 
L 300 3275 
Q 359 3922 746 4261 
Q 1134 4600 1788 4600 
Q 2447 4600 2831 4234 
Q 3216 3869 3216 3328 
Q 3216 3053 3103 2787 
Q 2991 2522 2730 2228 
Q 2469 1934 1863 1422 
Q 1356 997 1212 845 
Q 1069 694 975 541 
L 3222 541 
z
" transform="scale(0.015625)"/>
        <path id="ArialMT-30" d="M 266 2259 
Q 266 3072 433 3567 
Q 600 4063 929 4331 
Q 1259 4600 1759 4600 
Q 2128 4600 2406 4451 
Q 2684 4303 2865 4023 
Q 3047 3744 3150 3342 
Q 3253 2941 3253 2259 
Q 3253 1453 3087 958 
Q 2922 463 2592 192 
Q 2263 -78 1759 -78 
Q 1097 -78 719 397 
Q 266 969 266 2259 
z
M 844 2259 
Q 844 1131 1108 757 
Q 1372 384 1759 384 
Q 2147 384 2411 759 
Q 2675 1134 2675 2259 
Q 2675 3391 2411 3762 
Q 2147 4134 1753 4134 
Q 1366 4134 1134 3806 
Q 844 3388 844 2259 
z
" transform="scale(0.015625)"/>
       </defs>
       <use xlink:href="#ArialMT-2d"/>
       <use xlink:href="#ArialMT-32" x="33.300781"/>
       <use xlink:href="#ArialMT-30" x="88.916016"/>
       <use xlink:href="#ArialMT-30" x="144.53125"/>
      </g>
     </g>
    </g>
    <g id="xtick_2">
     <g id="line2d_2"/>
     <g id="text_2">
      <!-- -190 -->
      <g style="fill: #262626" transform="translate(79.062104 353.067937) rotate(-45) scale(0.1 -0.1)">
       <defs>
        <path id="ArialMT-31" d="M 2384 0 
L 1822 0 
L 1822 3584 
Q 1619 3391 1289 3197 
Q 959 3003 697 2906 
L 697 3450 
Q 1169 3672 1522 3987 
Q 1875 4303 2022 4600 
L 2384 4600 
L 2384 0 
z
" transform="scale(0.015625)"/>
        <path id="ArialMT-39" d="M 350 1059 
L 891 1109 
Q 959 728 1153 556 
Q 1347 384 1650 384 
Q 1909 384 2104 503 
Q 2300 622 2425 820 
Q 2550 1019 2634 1356 
Q 2719 1694 2719 2044 
Q 2719 2081 2716 2156 
Q 2547 1888 2255 1720 
Q 1963 1553 1622 1553 
Q 1053 1553 659 1965 
Q 266 2378 266 3053 
Q 266 3750 677 4175 
Q 1088 4600 1706 4600 
Q 2153 4600 2523 4359 
Q 2894 4119 3086 3673 
Q 3278 3228 3278 2384 
Q 3278 1506 3087 986 
Q 2897 466 2520 194 
Q 2144 -78 1638 -78 
Q 1100 -78 759 220 
Q 419 519 350 1059 
z
M 2653 3081 
Q 2653 3566 2395 3850 
Q 2138 4134 1775 4134 
Q 1400 4134 1122 3828 
Q 844 3522 844 3034 
Q 844 2597 1108 2323 
Q 1372 2050 1759 2050 
Q 2150 2050 2401 2323 
Q 2653 2597 2653 3081 
z
" transform="scale(0.015625)"/>
       </defs>
       <use xlink:href="#ArialMT-2d"/>
       <use xlink:href="#ArialMT-31" x="33.300781"/>
       <use xlink:href="#ArialMT-39" x="88.916016"/>
       <use xlink:href="#ArialMT-30" x="144.53125"/>
      </g>
     </g>
    </g>
    <g id="xtick_3">
     <g id="line2d_3"/>
     <g id="text_3">
      <!-- -180 -->
      <g style="fill: #262626" transform="translate(95.360023 353.067937) rotate(-45) scale(0.1 -0.1)">
       <defs>
        <path id="ArialMT-38" d="M 1131 2484 
Q 781 2613 612 2850 
Q 444 3088 444 3419 
Q 444 3919 803 4259 
Q 1163 4600 1759 4600 
Q 2359 4600 2725 4251 
Q 3091 3903 3091 3403 
Q 3091 3084 2923 2848 
Q 2756 2613 2416 2484 
Q 2838 2347 3058 2040 
Q 3278 1734 3278 1309 
Q 3278 722 2862 322 
Q 2447 -78 1769 -78 
Q 1091 -78 675 323 
Q 259 725 259 1325 
Q 259 1772 486 2073 
Q 713 2375 1131 2484 
z
M 1019 3438 
Q 1019 3113 1228 2906 
Q 1438 2700 1772 2700 
Q 2097 2700 2305 2904 
Q 2513 3109 2513 3406 
Q 2513 3716 2298 3927 
Q 2084 4138 1766 4138 
Q 1444 4138 1231 3931 
Q 1019 3725 1019 3438 
z
M 838 1322 
Q 838 1081 952 856 
Q 1066 631 1291 507 
Q 1516 384 1775 384 
Q 2178 384 2440 643 
Q 2703 903 2703 1303 
Q 2703 1709 2433 1975 
Q 2163 2241 1756 2241 
Q 1359 2241 1098 1978 
Q 838 1716 838 1322 
z
" transform="scale(0.015625)"/>
       </defs>
       <use xlink:href="#ArialMT-2d"/>
       <use xlink:href="#ArialMT-31" x="33.300781"/>
       <use xlink:href="#ArialMT-38" x="88.916016"/>
       <use xlink:href="#ArialMT-30" x="144.53125"/>
      </g>
     </g>
    </g>
    <g id="xtick_4">
     <g id="line2d_4"/>
     <g id="text_4">
      <!-- -170 -->
      <g style="fill: #262626" transform="translate(111.657941 353.067937) rotate(-45) scale(0.1 -0.1)">
       <defs>
        <path id="ArialMT-37" d="M 303 3981 
L 303 4522 
L 3269 4522 
L 3269 4084 
Q 2831 3619 2401 2847 
Q 1972 2075 1738 1259 
Q 1569 684 1522 0 
L 944 0 
Q 953 541 1156 1306 
Q 1359 2072 1739 2783 
Q 2119 3494 2547 3981 
L 303 3981 
z
" transform="scale(0.015625)"/>
       </defs>
       <use xlink:href="#ArialMT-2d"/>
       <use xlink:href="#ArialMT-31" x="33.300781"/>
       <use xlink:href="#ArialMT-37" x="88.916016"/>
       <use xlink:href="#ArialMT-30" x="144.53125"/>
      </g>
     </g>
    </g>
    <g id="xtick_5">
     <g id="line2d_5"/>
     <g id="text_5">
      <!-- -160 -->
      <g style="fill: #262626" transform="translate(127.95586 353.067937) rotate(-45) scale(0.1 -0.1)">
       <defs>
        <path id="ArialMT-36" d="M 3184 3459 
L 2625 3416 
Q 2550 3747 2413 3897 
Q 2184 4138 1850 4138 
Q 1581 4138 1378 3988 
Q 1113 3794 959 3422 
Q 806 3050 800 2363 
Q 1003 2672 1297 2822 
Q 1591 2972 1913 2972 
Q 2475 2972 2870 2558 
Q 3266 2144 3266 1488 
Q 3266 1056 3080 686 
Q 2894 316 2569 119 
Q 2244 -78 1831 -78 
Q 1128 -78 684 439 
Q 241 956 241 2144 
Q 241 3472 731 4075 
Q 1159 4600 1884 4600 
Q 2425 4600 2770 4297 
Q 3116 3994 3184 3459 
z
M 888 1484 
Q 888 1194 1011 928 
Q 1134 663 1356 523 
Q 1578 384 1822 384 
Q 2178 384 2434 671 
Q 2691 959 2691 1453 
Q 2691 1928 2437 2201 
Q 2184 2475 1800 2475 
Q 1419 2475 1153 2201 
Q 888 1928 888 1484 
z
" transform="scale(0.015625)"/>
       </defs>
       <use xlink:href="#ArialMT-2d"/>
       <use xlink:href="#ArialMT-31" x="33.300781"/>
       <use xlink:href="#ArialMT-36" x="88.916016"/>
       <use xlink:href="#ArialMT-30" x="144.53125"/>
      </g>
     </g>
    </g>
    <g id="xtick_6">
     <g id="line2d_6"/>
     <g id="text_6">
      <!-- -150 -->
      <g style="fill: #262626" transform="translate(144.253779 353.067937) rotate(-45) scale(0.1 -0.1)">
       <defs>
        <path id="ArialMT-35" d="M 266 1200 
L 856 1250 
Q 922 819 1161 601 
Q 1400 384 1738 384 
Q 2144 384 2425 690 
Q 2706 997 2706 1503 
Q 2706 1984 2436 2262 
Q 2166 2541 1728 2541 
Q 1456 2541 1237 2417 
Q 1019 2294 894 2097 
L 366 2166 
L 809 4519 
L 3088 4519 
L 3088 3981 
L 1259 3981 
L 1013 2750 
Q 1425 3038 1878 3038 
Q 2478 3038 2890 2622 
Q 3303 2206 3303 1553 
Q 3303 931 2941 478 
Q 2500 -78 1738 -78 
Q 1113 -78 717 272 
Q 322 622 266 1200 
z
" transform="scale(0.015625)"/>
       </defs>
       <use xlink:href="#ArialMT-2d"/>
       <use xlink:href="#ArialMT-31" x="33.300781"/>
       <use xlink:href="#ArialMT-35" x="88.916016"/>
       <use xlink:href="#ArialMT-30" x="144.53125"/>
      </g>
     </g>
    </g>
    <g id="xtick_7">
     <g id="line2d_7"/>
     <g id="text_7">
      <!-- -140 -->
      <g style="fill: #262626" transform="translate(160.551698 353.067937) rotate(-45) scale(0.1 -0.1)">
       <defs>
        <path id="ArialMT-34" d="M 2069 0 
L 2069 1097 
L 81 1097 
L 81 1613 
L 2172 4581 
L 2631 4581 
L 2631 1613 
L 3250 1613 
L 3250 1097 
L 2631 1097 
L 2631 0 
L 2069 0 
z
M 2069 1613 
L 2069 3678 
L 634 1613 
L 2069 1613 
z
" transform="scale(0.015625)"/>
       </defs>
       <use xlink:href="#ArialMT-2d"/>
       <use xlink:href="#ArialMT-31" x="33.300781"/>
       <use xlink:href="#ArialMT-34" x="88.916016"/>
       <use xlink:href="#ArialMT-30" x="144.53125"/>
      </g>
     </g>
    </g>
    <g id="xtick_8">
     <g id="line2d_8"/>
     <g id="text_8">
      <!-- -130 -->
      <g style="fill: #262626" transform="translate(176.849617 353.067937) rotate(-45) scale(0.1 -0.1)">
       <defs>
        <path id="ArialMT-33" d="M 269 1209 
L 831 1284 
Q 928 806 1161 595 
Q 1394 384 1728 384 
Q 2125 384 2398 659 
Q 2672 934 2672 1341 
Q 2672 1728 2419 1979 
Q 2166 2231 1775 2231 
Q 1616 2231 1378 2169 
L 1441 2663 
Q 1497 2656 1531 2656 
Q 1891 2656 2178 2843 
Q 2466 3031 2466 3422 
Q 2466 3731 2256 3934 
Q 2047 4138 1716 4138 
Q 1388 4138 1169 3931 
Q 950 3725 888 3313 
L 325 3413 
Q 428 3978 793 4289 
Q 1159 4600 1703 4600 
Q 2078 4600 2393 4439 
Q 2709 4278 2876 4000 
Q 3044 3722 3044 3409 
Q 3044 3113 2884 2869 
Q 2725 2625 2413 2481 
Q 2819 2388 3044 2092 
Q 3269 1797 3269 1353 
Q 3269 753 2831 336 
Q 2394 -81 1725 -81 
Q 1122 -81 723 278 
Q 325 638 269 1209 
z
" transform="scale(0.015625)"/>
       </defs>
       <use xlink:href="#ArialMT-2d"/>
       <use xlink:href="#ArialMT-31" x="33.300781"/>
       <use xlink:href="#ArialMT-33" x="88.916016"/>
       <use xlink:href="#ArialMT-30" x="144.53125"/>
      </g>
     </g>
    </g>
    <g id="xtick_9">
     <g id="line2d_9"/>
     <g id="text_9">
      <!-- -120 -->
      <g style="fill: #262626" transform="translate(193.147536 353.067937) rotate(-45) scale(0.1 -0.1)">
       <use xlink:href="#ArialMT-2d"/>
       <use xlink:href="#ArialMT-31" x="33.300781"/>
       <use xlink:href="#ArialMT-32" x="88.916016"/>
       <use xlink:href="#ArialMT-30" x="144.53125"/>
      </g>
     </g>
    </g>
    <g id="xtick_10">
     <g id="line2d_10"/>
     <g id="text_10">
      <!-- -110 -->
      <g style="fill: #262626" transform="translate(209.706201 352.546446) rotate(-45) scale(0.1 -0.1)">
       <use xlink:href="#ArialMT-2d"/>
       <use xlink:href="#ArialMT-31" x="33.300781"/>
       <use xlink:href="#ArialMT-31" x="81.541016"/>
       <use xlink:href="#ArialMT-30" x="137.15625"/>
      </g>
     </g>
    </g>
    <g id="xtick_11">
     <g id="line2d_11"/>
     <g id="text_11">
      <!-- -100 -->
      <g style="fill: #262626" transform="translate(225.743374 353.067937) rotate(-45) scale(0.1 -0.1)">
       <use xlink:href="#ArialMT-2d"/>
       <use xlink:href="#ArialMT-31" x="33.300781"/>
       <use xlink:href="#ArialMT-30" x="88.916016"/>
       <use xlink:href="#ArialMT-30" x="144.53125"/>
      </g>
     </g>
    </g>
    <g id="xtick_12">
     <g id="line2d_12"/>
     <g id="text_12">
      <!-- -90 -->
      <g style="fill: #262626" transform="translate(244.007381 349.135761) rotate(-45) scale(0.1 -0.1)">
       <use xlink:href="#ArialMT-2d"/>
       <use xlink:href="#ArialMT-39" x="33.300781"/>
       <use xlink:href="#ArialMT-30" x="88.916016"/>
      </g>
     </g>
    </g>
    <g id="xtick_13">
     <g id="line2d_13"/>
     <g id="text_13">
      <!-- -80 -->
      <g style="fill: #262626" transform="translate(260.3053 349.135761) rotate(-45) scale(0.1 -0.1)">
       <use xlink:href="#ArialMT-2d"/>
       <use xlink:href="#ArialMT-38" x="33.300781"/>
       <use xlink:href="#ArialMT-30" x="88.916016"/>
      </g>
     </g>
    </g>
    <g id="xtick_14">
     <g id="line2d_14"/>
     <g id="text_14">
      <!-- -70 -->
      <g style="fill: #262626" transform="translate(276.603219 349.135761) rotate(-45) scale(0.1 -0.1)">
       <use xlink:href="#ArialMT-2d"/>
       <use xlink:href="#ArialMT-37" x="33.300781"/>
       <use xlink:href="#ArialMT-30" x="88.916016"/>
      </g>
     </g>
    </g>
    <g id="xtick_15">
     <g id="line2d_15"/>
     <g id="text_15">
      <!-- -60 -->
      <g style="fill: #262626" transform="translate(292.901138 349.135761) rotate(-45) scale(0.1 -0.1)">
       <use xlink:href="#ArialMT-2d"/>
       <use xlink:href="#ArialMT-36" x="33.300781"/>
       <use xlink:href="#ArialMT-30" x="88.916016"/>
      </g>
     </g>
    </g>
    <g id="xtick_16">
     <g id="line2d_16"/>
     <g id="text_16">
      <!-- -50 -->
      <g style="fill: #262626" transform="translate(309.199057 349.135761) rotate(-45) scale(0.1 -0.1)">
       <use xlink:href="#ArialMT-2d"/>
       <use xlink:href="#ArialMT-35" x="33.300781"/>
       <use xlink:href="#ArialMT-30" x="88.916016"/>
      </g>
     </g>
    </g>
    <g id="xtick_17">
     <g id="line2d_17"/>
     <g id="text_17">
      <!-- -40 -->
      <g style="fill: #262626" transform="translate(325.496976 349.135761) rotate(-45) scale(0.1 -0.1)">
       <use xlink:href="#ArialMT-2d"/>
       <use xlink:href="#ArialMT-34" x="33.300781"/>
       <use xlink:href="#ArialMT-30" x="88.916016"/>
      </g>
     </g>
    </g>
    <g id="xtick_18">
     <g id="line2d_18"/>
     <g id="text_18">
      <!-- -30 -->
      <g style="fill: #262626" transform="translate(341.794895 349.135761) rotate(-45) scale(0.1 -0.1)">
       <use xlink:href="#ArialMT-2d"/>
       <use xlink:href="#ArialMT-33" x="33.300781"/>
       <use xlink:href="#ArialMT-30" x="88.916016"/>
      </g>
     </g>
    </g>
    <g id="xtick_19">
     <g id="line2d_19"/>
     <g id="text_19">
      <!-- -20 -->
      <g style="fill: #262626" transform="translate(358.092814 349.135761) rotate(-45) scale(0.1 -0.1)">
       <use xlink:href="#ArialMT-2d"/>
       <use xlink:href="#ArialMT-32" x="33.300781"/>
       <use xlink:href="#ArialMT-30" x="88.916016"/>
      </g>
     </g>
    </g>
    <g id="xtick_20">
     <g id="line2d_20"/>
     <g id="text_20">
      <!-- -10 -->
      <g style="fill: #262626" transform="translate(374.390733 349.135761) rotate(-45) scale(0.1 -0.1)">
       <use xlink:href="#ArialMT-2d"/>
       <use xlink:href="#ArialMT-31" x="33.300781"/>
       <use xlink:href="#ArialMT-30" x="88.916016"/>
      </g>
     </g>
    </g>
    <g id="xtick_21">
     <g id="line2d_21"/>
     <g id="text_21">
      <!-- 0 -->
      <g style="fill: #262626" transform="translate(393.831963 342.849139) rotate(-45) scale(0.1 -0.1)">
       <use xlink:href="#ArialMT-30"/>
      </g>
     </g>
    </g>
    <g id="xtick_22">
     <g id="line2d_22"/>
     <g id="text_22">
      <!-- 10 -->
      <g style="fill: #262626" transform="translate(408.163793 346.781316) rotate(-45) scale(0.1 -0.1)">
       <use xlink:href="#ArialMT-31"/>
       <use xlink:href="#ArialMT-30" x="55.615234"/>
      </g>
     </g>
    </g>
    <g id="xtick_23">
     <g id="line2d_23"/>
     <g id="text_23">
      <!-- 20 -->
      <g style="fill: #262626" transform="translate(424.461712 346.781316) rotate(-45) scale(0.1 -0.1)">
       <use xlink:href="#ArialMT-32"/>
       <use xlink:href="#ArialMT-30" x="55.615234"/>
      </g>
     </g>
    </g>
    <g id="xtick_24">
     <g id="line2d_24"/>
     <g id="text_24">
      <!-- 30 -->
      <g style="fill: #262626" transform="translate(440.759631 346.781316) rotate(-45) scale(0.1 -0.1)">
       <use xlink:href="#ArialMT-33"/>
       <use xlink:href="#ArialMT-30" x="55.615234"/>
      </g>
     </g>
    </g>
    <g id="xtick_25">
     <g id="line2d_25"/>
     <g id="text_25">
      <!-- 40 -->
      <g style="fill: #262626" transform="translate(457.05755 346.781316) rotate(-45) scale(0.1 -0.1)">
       <use xlink:href="#ArialMT-34"/>
       <use xlink:href="#ArialMT-30" x="55.615234"/>
      </g>
     </g>
    </g>
    <g id="xtick_26">
     <g id="line2d_26"/>
     <g id="text_26">
      <!-- 50 -->
      <g style="fill: #262626" transform="translate(473.355469 346.781316) rotate(-45) scale(0.1 -0.1)">
       <use xlink:href="#ArialMT-35"/>
       <use xlink:href="#ArialMT-30" x="55.615234"/>
      </g>
     </g>
    </g>
    <g id="text_27">
     <!-- Position -->
     <g style="fill: #262626" transform="translate(251.354531 366.346906) scale(0.11 -0.11)">
      <defs>
       <path id="ArialMT-50" d="M 494 0 
L 494 4581 
L 2222 4581 
Q 2678 4581 2919 4538 
Q 3256 4481 3484 4323 
Q 3713 4166 3852 3881 
Q 3991 3597 3991 3256 
Q 3991 2672 3619 2267 
Q 3247 1863 2275 1863 
L 1100 1863 
L 1100 0 
L 494 0 
z
M 1100 2403 
L 2284 2403 
Q 2872 2403 3119 2622 
Q 3366 2841 3366 3238 
Q 3366 3525 3220 3729 
Q 3075 3934 2838 4000 
Q 2684 4041 2272 4041 
L 1100 4041 
L 1100 2403 
z
" transform="scale(0.015625)"/>
       <path id="ArialMT-6f" d="M 213 1659 
Q 213 2581 725 3025 
Q 1153 3394 1769 3394 
Q 2453 3394 2887 2945 
Q 3322 2497 3322 1706 
Q 3322 1066 3130 698 
Q 2938 331 2570 128 
Q 2203 -75 1769 -75 
Q 1072 -75 642 372 
Q 213 819 213 1659 
z
M 791 1659 
Q 791 1022 1069 705 
Q 1347 388 1769 388 
Q 2188 388 2466 706 
Q 2744 1025 2744 1678 
Q 2744 2294 2464 2611 
Q 2184 2928 1769 2928 
Q 1347 2928 1069 2612 
Q 791 2297 791 1659 
z
" transform="scale(0.015625)"/>
       <path id="ArialMT-73" d="M 197 991 
L 753 1078 
Q 800 744 1014 566 
Q 1228 388 1613 388 
Q 2000 388 2187 545 
Q 2375 703 2375 916 
Q 2375 1106 2209 1216 
Q 2094 1291 1634 1406 
Q 1016 1563 777 1677 
Q 538 1791 414 1992 
Q 291 2194 291 2438 
Q 291 2659 392 2848 
Q 494 3038 669 3163 
Q 800 3259 1026 3326 
Q 1253 3394 1513 3394 
Q 1903 3394 2198 3281 
Q 2494 3169 2634 2976 
Q 2775 2784 2828 2463 
L 2278 2388 
Q 2241 2644 2061 2787 
Q 1881 2931 1553 2931 
Q 1166 2931 1000 2803 
Q 834 2675 834 2503 
Q 834 2394 903 2306 
Q 972 2216 1119 2156 
Q 1203 2125 1616 2013 
Q 2213 1853 2448 1751 
Q 2684 1650 2818 1456 
Q 2953 1263 2953 975 
Q 2953 694 2789 445 
Q 2625 197 2315 61 
Q 2006 -75 1616 -75 
Q 969 -75 630 194 
Q 291 463 197 991 
z
" transform="scale(0.015625)"/>
       <path id="ArialMT-69" d="M 425 3934 
L 425 4581 
L 988 4581 
L 988 3934 
L 425 3934 
z
M 425 0 
L 425 3319 
L 988 3319 
L 988 0 
L 425 0 
z
" transform="scale(0.015625)"/>
       <path id="ArialMT-74" d="M 1650 503 
L 1731 6 
Q 1494 -44 1306 -44 
Q 1000 -44 831 53 
Q 663 150 594 308 
Q 525 466 525 972 
L 525 2881 
L 113 2881 
L 113 3319 
L 525 3319 
L 525 4141 
L 1084 4478 
L 1084 3319 
L 1650 3319 
L 1650 2881 
L 1084 2881 
L 1084 941 
Q 1084 700 1114 631 
Q 1144 563 1211 522 
Q 1278 481 1403 481 
Q 1497 481 1650 503 
z
" transform="scale(0.015625)"/>
       <path id="ArialMT-6e" d="M 422 0 
L 422 3319 
L 928 3319 
L 928 2847 
Q 1294 3394 1984 3394 
Q 2284 3394 2536 3286 
Q 2788 3178 2913 3003 
Q 3038 2828 3088 2588 
Q 3119 2431 3119 2041 
L 3119 0 
L 2556 0 
L 2556 2019 
Q 2556 2363 2490 2533 
Q 2425 2703 2258 2804 
Q 2091 2906 1866 2906 
Q 1506 2906 1245 2678 
Q 984 2450 984 1813 
L 984 0 
L 422 0 
z
" transform="scale(0.015625)"/>
      </defs>
      <use xlink:href="#ArialMT-50"/>
      <use xlink:href="#ArialMT-6f" x="66.699219"/>
      <use xlink:href="#ArialMT-73" x="122.314453"/>
      <use xlink:href="#ArialMT-69" x="172.314453"/>
      <use xlink:href="#ArialMT-74" x="194.53125"/>
      <use xlink:href="#ArialMT-69" x="222.314453"/>
      <use xlink:href="#ArialMT-6f" x="244.53125"/>
      <use xlink:href="#ArialMT-6e" x="300.146484"/>
     </g>
    </g>
   </g>
   <g id="matplotlib.axis_2">
    <g id="ytick_1">
     <g id="line2d_27"/>
     <g id="text_28">
      <!-- 19.0 -->
      <g style="fill: #262626" transform="translate(21.259844 307.940027) scale(0.1 -0.1)">
       <defs>
        <path id="ArialMT-2e" d="M 581 0 
L 581 641 
L 1222 641 
L 1222 0 
L 581 0 
z
" transform="scale(0.015625)"/>
       </defs>
       <use xlink:href="#ArialMT-31"/>
       <use xlink:href="#ArialMT-39" x="55.615234"/>
       <use xlink:href="#ArialMT-2e" x="111.230469"/>
       <use xlink:href="#ArialMT-30" x="139.013672"/>
      </g>
     </g>
    </g>
    <g id="ytick_2">
     <g id="line2d_28"/>
     <g id="text_29">
      <!-- 19.5 -->
      <g style="fill: #262626" transform="translate(21.259844 272.600749) scale(0.1 -0.1)">
       <use xlink:href="#ArialMT-31"/>
       <use xlink:href="#ArialMT-39" x="55.615234"/>
       <use xlink:href="#ArialMT-2e" x="111.230469"/>
       <use xlink:href="#ArialMT-35" x="139.013672"/>
      </g>
     </g>
    </g>
    <g id="ytick_3">
     <g id="line2d_29"/>
     <g id="text_30">
      <!-- 20.0 -->
      <g style="fill: #262626" transform="translate(21.259844 237.26147) scale(0.1 -0.1)">
       <use xlink:href="#ArialMT-32"/>
       <use xlink:href="#ArialMT-30" x="55.615234"/>
       <use xlink:href="#ArialMT-2e" x="111.230469"/>
       <use xlink:href="#ArialMT-30" x="139.013672"/>
      </g>
     </g>
    </g>
    <g id="ytick_4">
     <g id="line2d_30"/>
     <g id="text_31">
      <!-- 20.5 -->
      <g style="fill: #262626" transform="translate(21.259844 201.922191) scale(0.1 -0.1)">
       <use xlink:href="#ArialMT-32"/>
       <use xlink:href="#ArialMT-30" x="55.615234"/>
       <use xlink:href="#ArialMT-2e" x="111.230469"/>
       <use xlink:href="#ArialMT-35" x="139.013672"/>
      </g>
     </g>
    </g>
    <g id="ytick_5">
     <g id="line2d_31"/>
     <g id="text_32">
      <!-- 21.0 -->
      <g style="fill: #262626" transform="translate(21.259844 166.582913) scale(0.1 -0.1)">
       <use xlink:href="#ArialMT-32"/>
       <use xlink:href="#ArialMT-31" x="55.615234"/>
       <use xlink:href="#ArialMT-2e" x="111.230469"/>
       <use xlink:href="#ArialMT-30" x="139.013672"/>
      </g>
     </g>
    </g>
    <g id="ytick_6">
     <g id="line2d_32"/>
     <g id="text_33">
      <!-- 21.5 -->
      <g style="fill: #262626" transform="translate(21.259844 131.243634) scale(0.1 -0.1)">
       <use xlink:href="#ArialMT-32"/>
       <use xlink:href="#ArialMT-31" x="55.615234"/>
       <use xlink:href="#ArialMT-2e" x="111.230469"/>
       <use xlink:href="#ArialMT-35" x="139.013672"/>
      </g>
     </g>
    </g>
    <g id="ytick_7">
     <g id="line2d_33"/>
     <g id="text_34">
      <!-- 22.0 -->
      <g style="fill: #262626" transform="translate(21.259844 95.904355) scale(0.1 -0.1)">
       <use xlink:href="#ArialMT-32"/>
       <use xlink:href="#ArialMT-32" x="55.615234"/>
       <use xlink:href="#ArialMT-2e" x="111.230469"/>
       <use xlink:href="#ArialMT-30" x="139.013672"/>
      </g>
     </g>
    </g>
    <g id="ytick_8">
     <g id="line2d_34"/>
     <g id="text_35">
      <!-- 22.5 -->
      <g style="fill: #262626" transform="translate(21.259844 60.565077) scale(0.1 -0.1)">
       <use xlink:href="#ArialMT-32"/>
       <use xlink:href="#ArialMT-32" x="55.615234"/>
       <use xlink:href="#ArialMT-2e" x="111.230469"/>
       <use xlink:href="#ArialMT-35" x="139.013672"/>
      </g>
     </g>
    </g>
    <g id="text_36">
     <!-- Electron_interaction -->
     <g style="fill: #262626" transform="translate(15.073594 223.003594) rotate(-90) scale(0.11 -0.11)">
      <defs>
       <path id="ArialMT-45" d="M 506 0 
L 506 4581 
L 3819 4581 
L 3819 4041 
L 1113 4041 
L 1113 2638 
L 3647 2638 
L 3647 2100 
L 1113 2100 
L 1113 541 
L 3925 541 
L 3925 0 
L 506 0 
z
" transform="scale(0.015625)"/>
       <path id="ArialMT-6c" d="M 409 0 
L 409 4581 
L 972 4581 
L 972 0 
L 409 0 
z
" transform="scale(0.015625)"/>
       <path id="ArialMT-65" d="M 2694 1069 
L 3275 997 
Q 3138 488 2766 206 
Q 2394 -75 1816 -75 
Q 1088 -75 661 373 
Q 234 822 234 1631 
Q 234 2469 665 2931 
Q 1097 3394 1784 3394 
Q 2450 3394 2872 2941 
Q 3294 2488 3294 1666 
Q 3294 1616 3291 1516 
L 816 1516 
Q 847 969 1125 678 
Q 1403 388 1819 388 
Q 2128 388 2347 550 
Q 2566 713 2694 1069 
z
M 847 1978 
L 2700 1978 
Q 2663 2397 2488 2606 
Q 2219 2931 1791 2931 
Q 1403 2931 1139 2672 
Q 875 2413 847 1978 
z
" transform="scale(0.015625)"/>
       <path id="ArialMT-63" d="M 2588 1216 
L 3141 1144 
Q 3050 572 2676 248 
Q 2303 -75 1759 -75 
Q 1078 -75 664 370 
Q 250 816 250 1647 
Q 250 2184 428 2587 
Q 606 2991 970 3192 
Q 1334 3394 1763 3394 
Q 2303 3394 2647 3120 
Q 2991 2847 3088 2344 
L 2541 2259 
Q 2463 2594 2264 2762 
Q 2066 2931 1784 2931 
Q 1359 2931 1093 2626 
Q 828 2322 828 1663 
Q 828 994 1084 691 
Q 1341 388 1753 388 
Q 2084 388 2306 591 
Q 2528 794 2588 1216 
z
" transform="scale(0.015625)"/>
       <path id="ArialMT-72" d="M 416 0 
L 416 3319 
L 922 3319 
L 922 2816 
Q 1116 3169 1280 3281 
Q 1444 3394 1641 3394 
Q 1925 3394 2219 3213 
L 2025 2691 
Q 1819 2813 1613 2813 
Q 1428 2813 1281 2702 
Q 1134 2591 1072 2394 
Q 978 2094 978 1738 
L 978 0 
L 416 0 
z
" transform="scale(0.015625)"/>
       <path id="ArialMT-5f" d="M -97 -1272 
L -97 -866 
L 3631 -866 
L 3631 -1272 
L -97 -1272 
z
" transform="scale(0.015625)"/>
       <path id="ArialMT-61" d="M 2588 409 
Q 2275 144 1986 34 
Q 1697 -75 1366 -75 
Q 819 -75 525 192 
Q 231 459 231 875 
Q 231 1119 342 1320 
Q 453 1522 633 1644 
Q 813 1766 1038 1828 
Q 1203 1872 1538 1913 
Q 2219 1994 2541 2106 
Q 2544 2222 2544 2253 
Q 2544 2597 2384 2738 
Q 2169 2928 1744 2928 
Q 1347 2928 1158 2789 
Q 969 2650 878 2297 
L 328 2372 
Q 403 2725 575 2942 
Q 747 3159 1072 3276 
Q 1397 3394 1825 3394 
Q 2250 3394 2515 3294 
Q 2781 3194 2906 3042 
Q 3031 2891 3081 2659 
Q 3109 2516 3109 2141 
L 3109 1391 
Q 3109 606 3145 398 
Q 3181 191 3288 0 
L 2700 0 
Q 2613 175 2588 409 
z
M 2541 1666 
Q 2234 1541 1622 1453 
Q 1275 1403 1131 1340 
Q 988 1278 909 1158 
Q 831 1038 831 891 
Q 831 666 1001 516 
Q 1172 366 1500 366 
Q 1825 366 2078 508 
Q 2331 650 2450 897 
Q 2541 1088 2541 1459 
L 2541 1666 
z
" transform="scale(0.015625)"/>
      </defs>
      <use xlink:href="#ArialMT-45"/>
      <use xlink:href="#ArialMT-6c" x="66.699219"/>
      <use xlink:href="#ArialMT-65" x="88.916016"/>
      <use xlink:href="#ArialMT-63" x="144.53125"/>
      <use xlink:href="#ArialMT-74" x="194.53125"/>
      <use xlink:href="#ArialMT-72" x="222.314453"/>
      <use xlink:href="#ArialMT-6f" x="255.615234"/>
      <use xlink:href="#ArialMT-6e" x="311.230469"/>
      <use xlink:href="#ArialMT-5f" x="366.845703"/>
      <use xlink:href="#ArialMT-69" x="422.460938"/>
      <use xlink:href="#ArialMT-6e" x="444.677734"/>
      <use xlink:href="#ArialMT-74" x="500.292969"/>
      <use xlink:href="#ArialMT-65" x="528.076172"/>
      <use xlink:href="#ArialMT-72" x="583.691406"/>
      <use xlink:href="#ArialMT-61" x="616.992188"/>
      <use xlink:href="#ArialMT-63" x="672.607422"/>
      <use xlink:href="#ArialMT-74" x="722.607422"/>
      <use xlink:href="#ArialMT-69" x="750.390625"/>
      <use xlink:href="#ArialMT-6f" x="772.607422"/>
      <use xlink:href="#ArialMT-6e" x="828.222656"/>
     </g>
    </g>
   </g>
   <g id="line2d_35">
    <path d="M 68.01169 182.260799 
L 69.641482 181.713879 
L 71.271274 175.880066 
L 72.901066 171.431783 
L 74.530858 168.62426 
L 76.16065 175.041455 
L 77.790442 177.958362 
L 79.420234 177.010367 
L 81.050025 173.947615 
L 82.679817 169.134719 
L 84.309609 169.098258 
L 85.939401 172.562084 
L 87.569193 174.385151 
L 89.198985 169.317026 
L 90.828777 168.87949 
L 92.458569 165.853199 
L 94.088361 164.577052 
L 95.718153 164.613514 
L 97.347944 160.42046 
L 98.977736 162.352911 
L 100.607528 167.348114 
L 102.23732 167.603343 
L 103.867112 163.847826 
L 105.496904 164.868743 
L 107.126696 167.931495 
L 108.756488 163.811364 
L 110.38628 162.097682 
L 112.016072 162.972754 
L 113.645863 158.050474 
L 116.905447 156.118023 
L 118.535239 157.029557 
L 120.165031 150.612362 
L 121.794823 150.904053 
L 123.424615 156.081562 
L 125.054407 152.800042 
L 126.684199 156.008639 
L 128.31399 158.816162 
L 131.573574 149.810213 
L 133.203366 153.820959 
L 134.833158 153.346962 
L 136.46295 154.185573 
L 138.092742 154.878338 
L 139.722534 157.795245 
L 141.352326 156.373253 
L 142.982118 149.956058 
L 144.611909 151.997893 
L 146.241701 147.075613 
L 147.871493 145.90885 
L 149.501285 146.747461 
L 151.131077 146.492231 
L 152.760869 150.648823 
L 154.390661 147.877762 
L 156.020453 142.809637 
L 157.650245 141.679335 
L 159.280036 138.981197 
L 160.909828 135.262141 
L 164.169412 145.763005 
L 165.799204 142.955482 
L 167.428996 138.142586 
L 169.058788 132.892154 
L 170.68858 132.600464 
L 172.318372 135.918445 
L 173.948164 132.564002 
L 175.577955 131.579546 
L 177.207747 137.595666 
L 178.837539 134.350608 
L 180.467331 130.704474 
L 182.097123 134.751682 
L 183.726915 128.808485 
L 185.356707 123.339285 
L 186.986499 127.386493 
L 188.616291 127.969874 
L 190.246082 127.204186 
L 191.875874 125.12589 
L 193.505666 123.995589 
L 195.135458 124.980045 
L 196.76525 123.48513 
L 198.395042 123.959128 
L 200.024834 126.146808 
L 201.654626 124.177896 
L 203.284418 121.516218 
L 204.91421 120.422378 
L 206.544001 122.427752 
L 208.173793 123.047594 
L 209.803585 120.167149 
L 211.433377 120.531762 
L 213.063169 118.380544 
L 214.692961 115.573021 
L 216.322753 114.44272 
L 217.952545 114.44272 
L 219.582337 112.109195 
L 221.212128 106.931685 
L 222.84192 107.33276 
L 224.471712 110.103821 
L 226.101504 111.124739 
L 227.731296 111.817504 
L 229.361088 111.635197 
L 230.99088 107.916141 
L 232.620672 109.702747 
L 234.250464 109.374595 
L 235.880256 107.770296 
L 237.510047 108.718291 
L 239.139839 106.603533 
L 240.769631 103.322013 
L 242.399423 99.384189 
L 244.029215 101.061411 
L 245.659007 99.858187 
L 247.288799 99.238344 
L 248.918591 100.040493 
L 250.548383 97.451739 
L 252.178174 96.066208 
L 253.807966 93.258685 
L 255.437758 95.081752 
L 257.06755 92.602381 
L 258.697342 90.669931 
L 260.327134 94.826523 
L 261.956926 92.456536 
L 263.586718 91.545003 
L 266.846302 86.148726 
L 268.476093 85.820574 
L 270.105885 81.663982 
L 271.735677 79.075227 
L 273.365469 79.111688 
L 274.995261 82.940128 
L 276.625053 87.242566 
L 278.254845 83.122435 
L 279.884637 81.299368 
L 281.514429 85.273654 
L 283.14422 84.872579 
L 284.774012 81.809827 
L 288.033596 77.179238 
L 289.663388 75.356171 
L 291.29318 74.626944 
L 292.922972 76.814624 
L 294.552764 82.72136 
L 296.182556 81.736904 
L 297.812348 74.444638 
L 299.442139 74.080024 
L 301.071931 71.23604 
L 302.701723 67.079449 
L 304.331515 64.162542 
L 305.961307 62.157169 
L 307.591099 65.037614 
L 309.220891 69.996355 
L 310.850683 72.001728 
L 312.480475 71.637115 
L 314.110266 67.990982 
L 315.740058 54.609673 
L 317.36985 49.140473 
L 318.999642 48.265401 
L 320.629434 42.577433 
L 322.259226 42.176358 
L 323.889018 43.160814 
L 325.51881 46.150644 
L 327.148602 49.942622 
L 328.778394 54.828441 
L 330.408185 55.265977 
L 332.037977 51.364614 
L 333.667769 55.120131 
L 335.297561 64.454233 
L 336.927353 71.199579 
L 338.557145 67.188833 
L 340.186937 58.255806 
L 341.816729 62.74055 
L 343.446521 79.950299 
L 345.076312 102.993861 
L 346.706104 131.506624 
L 348.335896 166.473042 
L 349.965688 188.933223 
L 351.59548 158.633855 
L 353.225272 94.279603 
L 354.855064 58.438113 
L 356.484856 41.811745 
L 358.114648 35.795625 
L 359.74444 41.301286 
L 361.374231 45.093265 
L 363.004023 51.619843 
L 364.633815 54.463827 
L 366.263607 61.282097 
L 367.893399 62.412398 
L 369.523191 56.396278 
L 371.152983 47.937249 
L 372.782775 35.905009 
L 374.412567 37.108233 
L 376.042358 56.979659 
L 377.67215 64.016697 
L 379.301942 64.527155 
L 380.931734 69.777587 
L 382.561526 69.522358 
L 384.191318 88.628096 
L 385.82111 82.940128 
L 387.450902 62.266553 
L 389.080694 79.184611 
L 390.710486 61.282097 
L 392.340277 184.667247 
L 393.970069 203.772985 
L 395.599861 225.431017 
L 397.229653 241.875078 
L 398.859445 125.12589 
L 400.489237 127.277109 
L 402.119029 91.071006 
L 403.748821 77.79908 
L 405.378613 73.67895 
L 407.008404 75.429094 
L 408.638196 79.075227 
L 410.267988 83.924584 
L 411.89778 71.564192 
L 413.527572 51.80215 
L 415.157364 56.72443 
L 416.787156 58.182883 
L 418.416948 60.662254 
L 420.04674 53.333526 
L 421.676532 49.322779 
L 423.306323 66.313761 
L 424.936115 74.371715 
L 426.565907 68.464979 
L 428.195699 59.313185 
L 429.825491 64.016697 
L 431.455283 71.163118 
L 433.085075 74.007102 
L 434.714867 82.283824 
L 436.344659 75.028019 
L 437.97445 52.750145 
L 439.604242 58.766265 
L 441.234034 77.179238 
L 442.863826 71.855883 
L 444.493618 64.563617 
L 446.12341 69.668203 
L 447.753202 82.940128 
L 449.382994 93.295147 
L 451.012786 95.446365 
L 452.642578 95.665133 
L 454.272369 92.347152 
L 455.902161 85.528883 
L 457.531953 87.424872 
L 459.161745 90.123011 
L 460.791537 81.117062 
L 462.421329 74.918635 
L 464.051121 66.751297 
L 465.680913 59.604875 
L 467.310705 54.937825 
L 468.940496 52.89599 
L 470.570288 60.516409 
L 472.20008 62.995779 
L 473.829872 72.949723 
L 473.829872 72.949723 
" clip-path="url(#p59fad1046f)" style="fill: none; stroke: #0272a2; stroke-width: 1.75; stroke-linecap: round"/>
   </g>
   <g id="line2d_36">
    <path d="M 68.01169 308.044538 
L 69.641482 305.533117 
L 71.271274 304.982997 
L 72.901066 308.355476 
L 74.530858 308.451149 
L 76.16065 307.7336 
L 77.790442 310.723387 
L 79.420234 306.776869 
L 81.050025 304.074102 
L 82.679817 305.987565 
L 84.309609 307.18348 
L 85.939401 306.609441 
L 87.569193 308.068457 
L 89.198985 306.609441 
L 90.828777 305.963647 
L 92.458569 309.575309 
L 94.088361 307.111725 
L 95.718153 305.533117 
L 97.347944 307.398744 
L 98.977736 311.488773 
L 100.607528 308.881679 
L 102.23732 306.705114 
L 103.867112 309.264371 
L 105.496904 306.89646 
L 108.756488 304.121938 
L 110.38628 305.22218 
L 112.016072 307.207398 
L 113.645863 306.226748 
L 115.275655 307.685764 
L 116.905447 307.135643 
L 120.165031 307.398744 
L 121.794823 302.878187 
L 123.424615 305.126506 
L 125.054407 305.652709 
L 126.684199 305.413526 
L 128.31399 305.461363 
L 129.943782 305.030833 
L 131.573574 306.489849 
L 133.203366 305.987565 
L 134.833158 308.068457 
L 136.46295 307.661846 
L 138.092742 303.667491 
L 141.352326 308.953433 
L 142.982118 303.428308 
L 144.611909 302.017128 
L 146.241701 301.610517 
L 147.871493 307.566172 
L 149.501285 311.632282 
L 152.760869 305.557036 
L 154.390661 304.672059 
L 156.020453 307.590091 
L 157.650245 306.011483 
L 159.280036 306.298503 
L 160.909828 309.503554 
L 162.53962 307.901028 
L 164.169412 302.662922 
L 165.799204 302.949942 
L 167.428996 305.365689 
L 169.058788 307.494417 
L 170.68858 309.00127 
L 172.318372 309.168698 
L 173.948164 308.738169 
L 175.577955 303.95451 
L 177.207747 302.304148 
L 180.467331 305.533117 
L 183.726915 308.594659 
L 185.356707 308.092375 
L 186.986499 305.126506 
L 188.616291 303.834919 
L 190.246082 306.489849 
L 191.875874 305.91581 
L 193.505666 304.528549 
L 195.135458 308.259803 
L 196.76525 306.298503 
L 198.395042 306.489849 
L 200.024834 310.245021 
L 201.654626 307.637927 
L 203.284418 309.479636 
L 204.91421 310.484204 
L 206.544001 305.604872 
L 208.173793 307.924947 
L 209.803585 306.250666 
L 211.433377 302.447658 
L 213.063169 308.379394 
L 214.692961 309.718819 
L 216.322753 309.479636 
L 217.952545 308.188048 
L 219.582337 306.394176 
L 221.212128 307.757519 
L 222.84192 306.442013 
L 224.471712 304.050183 
L 226.101504 304.959078 
L 227.731296 307.614009 
L 229.361088 305.485281 
L 230.99088 304.600304 
L 232.620672 311.417018 
L 234.250464 312.062812 
L 235.880256 307.446581 
L 239.139839 301.777945 
L 240.769631 307.087807 
L 242.399423 308.140211 
L 244.029215 304.839487 
L 247.288799 312.206321 
L 248.918591 309.670982 
L 250.548383 302.710759 
L 252.178174 301.467008 
L 253.807966 306.346339 
L 255.437758 308.786005 
L 257.06755 309.766655 
L 258.697342 307.7336 
L 260.327134 305.246098 
L 261.956926 305.270016 
L 263.586718 303.667491 
L 266.846302 304.839487 
L 268.476093 302.97386 
L 270.105885 307.470499 
L 271.735677 308.618577 
L 273.365469 304.887323 
L 274.995261 307.924947 
L 276.625053 310.532041 
L 278.254845 307.757519 
L 279.884637 308.068457 
L 281.514429 309.575309 
L 283.14422 307.637927 
L 284.774012 309.216535 
L 289.663388 305.126506 
L 291.29318 307.016052 
L 292.922972 310.005838 
L 294.552764 305.126506 
L 296.182556 305.91581 
L 297.812348 306.370258 
L 299.442139 304.193693 
L 301.071931 306.418094 
L 302.701723 309.551391 
L 304.331515 309.240453 
L 305.961307 307.231316 
L 307.591099 309.814492 
L 309.220891 309.264371 
L 310.850683 305.437444 
L 312.480475 307.303071 
L 314.110266 307.398744 
L 315.740058 305.150425 
L 317.36985 304.121938 
L 318.999642 307.374826 
L 320.629434 309.336126 
L 322.259226 310.747305 
L 323.889018 309.073025 
L 325.51881 306.370258 
L 327.148602 309.096943 
L 328.778394 306.489849 
L 330.408185 308.929515 
L 332.037977 307.972783 
L 333.667769 304.959078 
L 335.297561 308.211966 
L 336.927353 304.743814 
L 338.557145 304.695977 
L 340.186937 307.326989 
L 341.816729 306.250666 
L 343.446521 306.585522 
L 345.076312 305.485281 
L 348.335896 306.442013 
L 349.965688 311.153916 
L 351.59548 312.995625 
L 353.225272 309.647064 
L 356.484856 304.528549 
L 358.114648 304.289366 
L 359.74444 304.815569 
L 361.374231 303.452226 
L 366.263607 307.518336 
L 367.893399 311.536609 
L 369.523191 310.81906 
L 371.152983 310.245021 
L 372.782775 306.154993 
L 374.412567 305.485281 
L 376.042358 308.833842 
L 377.67215 306.107156 
L 379.301942 303.811 
L 380.931734 307.972783 
L 382.561526 309.503554 
L 384.191318 305.054752 
L 385.82111 302.83035 
L 387.450902 304.815569 
L 389.080694 307.350908 
L 390.710486 305.317853 
L 392.340277 302.949942 
L 395.599861 310.26894 
L 397.229653 309.360044 
L 398.859445 308.594659 
L 402.119029 307.709682 
L 403.748821 311.225671 
L 405.378613 307.829274 
L 407.008404 302.97386 
L 408.638196 306.298503 
L 410.267988 307.398744 
L 411.89778 307.279153 
L 413.527572 307.016052 
L 415.157364 308.283721 
L 416.787156 307.374826 
L 418.416948 305.461363 
L 420.04674 302.806432 
L 421.676532 302.97386 
L 423.306323 306.418094 
L 424.936115 304.313284 
L 426.565907 304.002347 
L 428.195699 306.75295 
L 429.825491 305.939728 
L 431.455283 304.887323 
L 433.085075 306.633359 
L 434.714867 304.719895 
L 436.344659 304.24153 
L 437.97445 306.561604 
L 439.604242 306.05932 
L 441.234034 304.504631 
L 442.863826 308.786005 
L 444.493618 311.775792 
L 446.12341 306.513767 
L 447.753202 306.89646 
L 449.382994 308.522904 
L 451.012786 303.189125 
L 452.642578 303.476144 
L 454.272369 302.926023 
L 455.902161 302.949942 
L 457.531953 307.829274 
L 459.161745 307.972783 
L 462.421329 301.754027 
L 464.051121 305.054752 
L 465.680913 304.815569 
L 467.310705 305.867974 
L 468.940496 308.953433 
L 470.570288 306.944297 
L 472.20008 309.049107 
L 473.829872 307.542254 
L 473.829872 307.542254 
" clip-path="url(#p59fad1046f)" style="fill: none; stroke-dasharray: 1.75,2.8875; stroke-dashoffset: 0; stroke: #9fc377; stroke-width: 1.75"/>
   </g>
   <g id="patch_3">
    <path d="M 47.720781 326.855625 
L 47.720781 21.935625 
" style="fill: none; stroke: #cccccc; stroke-width: 1.25; stroke-linejoin: miter; stroke-linecap: square"/>
   </g>
   <g id="patch_4">
    <path d="M 494.120781 326.855625 
L 494.120781 21.935625 
" style="fill: none; stroke: #cccccc; stroke-width: 1.25; stroke-linejoin: miter; stroke-linecap: square"/>
   </g>
   <g id="patch_5">
    <path d="M 47.720781 326.855625 
L 494.120781 326.855625 
" style="fill: none; stroke: #cccccc; stroke-width: 1.25; stroke-linejoin: miter; stroke-linecap: square"/>
   </g>
   <g id="patch_6">
    <path d="M 47.720781 21.935625 
L 494.120781 21.935625 
" style="fill: none; stroke: #cccccc; stroke-width: 1.25; stroke-linejoin: miter; stroke-linecap: square"/>
   </g>
   <g id="text_37">
    <!-- "Electron_interaction" for dataset Mouse_non_tata -->
    <g style="fill: #262626" transform="translate(137.254844 15.935625) scale(0.12 -0.12)">
     <defs>
      <path id="ArialMT-22" d="M 450 2959 
L 294 3831 
L 294 4581 
L 934 4581 
L 934 3831 
L 794 2959 
L 450 2959 
z
M 1484 2959 
L 1331 3831 
L 1331 4581 
L 1972 4581 
L 1972 3831 
L 1822 2959 
L 1484 2959 
z
" transform="scale(0.015625)"/>
      <path id="ArialMT-20" transform="scale(0.015625)"/>
      <path id="ArialMT-66" d="M 556 0 
L 556 2881 
L 59 2881 
L 59 3319 
L 556 3319 
L 556 3672 
Q 556 4006 616 4169 
Q 697 4388 901 4523 
Q 1106 4659 1475 4659 
Q 1713 4659 2000 4603 
L 1916 4113 
Q 1741 4144 1584 4144 
Q 1328 4144 1222 4034 
Q 1116 3925 1116 3625 
L 1116 3319 
L 1763 3319 
L 1763 2881 
L 1116 2881 
L 1116 0 
L 556 0 
z
" transform="scale(0.015625)"/>
      <path id="ArialMT-64" d="M 2575 0 
L 2575 419 
Q 2259 -75 1647 -75 
Q 1250 -75 917 144 
Q 584 363 401 755 
Q 219 1147 219 1656 
Q 219 2153 384 2558 
Q 550 2963 881 3178 
Q 1213 3394 1622 3394 
Q 1922 3394 2156 3267 
Q 2391 3141 2538 2938 
L 2538 4581 
L 3097 4581 
L 3097 0 
L 2575 0 
z
M 797 1656 
Q 797 1019 1065 703 
Q 1334 388 1700 388 
Q 2069 388 2326 689 
Q 2584 991 2584 1609 
Q 2584 2291 2321 2609 
Q 2059 2928 1675 2928 
Q 1300 2928 1048 2622 
Q 797 2316 797 1656 
z
" transform="scale(0.015625)"/>
      <path id="ArialMT-4d" d="M 475 0 
L 475 4581 
L 1388 4581 
L 2472 1338 
Q 2622 884 2691 659 
Q 2769 909 2934 1394 
L 4031 4581 
L 4847 4581 
L 4847 0 
L 4263 0 
L 4263 3834 
L 2931 0 
L 2384 0 
L 1059 3900 
L 1059 0 
L 475 0 
z
" transform="scale(0.015625)"/>
      <path id="ArialMT-75" d="M 2597 0 
L 2597 488 
Q 2209 -75 1544 -75 
Q 1250 -75 995 37 
Q 741 150 617 320 
Q 494 491 444 738 
Q 409 903 409 1263 
L 409 3319 
L 972 3319 
L 972 1478 
Q 972 1038 1006 884 
Q 1059 663 1231 536 
Q 1403 409 1656 409 
Q 1909 409 2131 539 
Q 2353 669 2445 892 
Q 2538 1116 2538 1541 
L 2538 3319 
L 3100 3319 
L 3100 0 
L 2597 0 
z
" transform="scale(0.015625)"/>
     </defs>
     <use xlink:href="#ArialMT-22"/>
     <use xlink:href="#ArialMT-45" x="35.498047"/>
     <use xlink:href="#ArialMT-6c" x="102.197266"/>
     <use xlink:href="#ArialMT-65" x="124.414062"/>
     <use xlink:href="#ArialMT-63" x="180.029297"/>
     <use xlink:href="#ArialMT-74" x="230.029297"/>
     <use xlink:href="#ArialMT-72" x="257.8125"/>
     <use xlink:href="#ArialMT-6f" x="291.113281"/>
     <use xlink:href="#ArialMT-6e" x="346.728516"/>
     <use xlink:href="#ArialMT-5f" x="402.34375"/>
     <use xlink:href="#ArialMT-69" x="457.958984"/>
     <use xlink:href="#ArialMT-6e" x="480.175781"/>
     <use xlink:href="#ArialMT-74" x="535.791016"/>
     <use xlink:href="#ArialMT-65" x="563.574219"/>
     <use xlink:href="#ArialMT-72" x="619.189453"/>
     <use xlink:href="#ArialMT-61" x="652.490234"/>
     <use xlink:href="#ArialMT-63" x="708.105469"/>
     <use xlink:href="#ArialMT-74" x="758.105469"/>
     <use xlink:href="#ArialMT-69" x="785.888672"/>
     <use xlink:href="#ArialMT-6f" x="808.105469"/>
     <use xlink:href="#ArialMT-6e" x="863.720703"/>
     <use xlink:href="#ArialMT-22" x="919.335938"/>
     <use xlink:href="#ArialMT-20" x="954.833984"/>
     <use xlink:href="#ArialMT-66" x="982.617188"/>
     <use xlink:href="#ArialMT-6f" x="1010.400391"/>
     <use xlink:href="#ArialMT-72" x="1066.015625"/>
     <use xlink:href="#ArialMT-20" x="1099.316406"/>
     <use xlink:href="#ArialMT-64" x="1127.099609"/>
     <use xlink:href="#ArialMT-61" x="1182.714844"/>
     <use xlink:href="#ArialMT-74" x="1238.330078"/>
     <use xlink:href="#ArialMT-61" x="1266.113281"/>
     <use xlink:href="#ArialMT-73" x="1321.728516"/>
     <use xlink:href="#ArialMT-65" x="1371.728516"/>
     <use xlink:href="#ArialMT-74" x="1427.34375"/>
     <use xlink:href="#ArialMT-20" x="1455.126953"/>
     <use xlink:href="#ArialMT-4d" x="1482.910156"/>
     <use xlink:href="#ArialMT-6f" x="1566.210938"/>
     <use xlink:href="#ArialMT-75" x="1621.826172"/>
     <use xlink:href="#ArialMT-73" x="1677.441406"/>
     <use xlink:href="#ArialMT-65" x="1727.441406"/>
     <use xlink:href="#ArialMT-5f" x="1783.056641"/>
     <use xlink:href="#ArialMT-6e" x="1838.671875"/>
     <use xlink:href="#ArialMT-6f" x="1894.287109"/>
     <use xlink:href="#ArialMT-6e" x="1949.902344"/>
     <use xlink:href="#ArialMT-5f" x="2005.517578"/>
     <use xlink:href="#ArialMT-74" x="2061.132812"/>
     <use xlink:href="#ArialMT-61" x="2088.916016"/>
     <use xlink:href="#ArialMT-74" x="2144.53125"/>
     <use xlink:href="#ArialMT-61" x="2172.314453"/>
    </g>
   </g>
   <g id="legend_1">
    <g id="line2d_37">
     <path d="M 56.720781 34.593437 
L 66.720781 34.593437 
L 76.720781 34.593437 
" style="fill: none; stroke: #0272a2; stroke-width: 1.75; stroke-linecap: round"/>
    </g>
    <g id="text_38">
     <!-- Promoter -->
     <g style="fill: #262626" transform="translate(84.720781 38.093437) scale(0.1 -0.1)">
      <defs>
       <path id="ArialMT-6d" d="M 422 0 
L 422 3319 
L 925 3319 
L 925 2853 
Q 1081 3097 1340 3245 
Q 1600 3394 1931 3394 
Q 2300 3394 2536 3241 
Q 2772 3088 2869 2813 
Q 3263 3394 3894 3394 
Q 4388 3394 4653 3120 
Q 4919 2847 4919 2278 
L 4919 0 
L 4359 0 
L 4359 2091 
Q 4359 2428 4304 2576 
Q 4250 2725 4106 2815 
Q 3963 2906 3769 2906 
Q 3419 2906 3187 2673 
Q 2956 2441 2956 1928 
L 2956 0 
L 2394 0 
L 2394 2156 
Q 2394 2531 2256 2718 
Q 2119 2906 1806 2906 
Q 1569 2906 1367 2781 
Q 1166 2656 1075 2415 
Q 984 2175 984 1722 
L 984 0 
L 422 0 
z
" transform="scale(0.015625)"/>
      </defs>
      <use xlink:href="#ArialMT-50"/>
      <use xlink:href="#ArialMT-72" x="66.699219"/>
      <use xlink:href="#ArialMT-6f" x="100"/>
      <use xlink:href="#ArialMT-6d" x="155.615234"/>
      <use xlink:href="#ArialMT-6f" x="238.916016"/>
      <use xlink:href="#ArialMT-74" x="294.53125"/>
      <use xlink:href="#ArialMT-65" x="322.314453"/>
      <use xlink:href="#ArialMT-72" x="377.929688"/>
     </g>
    </g>
    <g id="line2d_38">
     <path d="M 56.720781 48.73875 
L 66.720781 48.73875 
L 76.720781 48.73875 
" style="fill: none; stroke-dasharray: 1.75,2.8875; stroke-dashoffset: 0; stroke: #9fc377; stroke-width: 1.75"/>
    </g>
    <g id="text_39">
     <!-- Non-promoter -->
     <g style="fill: #262626" transform="translate(84.720781 52.23875) scale(0.1 -0.1)">
      <defs>
       <path id="ArialMT-4e" d="M 488 0 
L 488 4581 
L 1109 4581 
L 3516 984 
L 3516 4581 
L 4097 4581 
L 4097 0 
L 3475 0 
L 1069 3600 
L 1069 0 
L 488 0 
z
" transform="scale(0.015625)"/>
       <path id="ArialMT-70" d="M 422 -1272 
L 422 3319 
L 934 3319 
L 934 2888 
Q 1116 3141 1344 3267 
Q 1572 3394 1897 3394 
Q 2322 3394 2647 3175 
Q 2972 2956 3137 2557 
Q 3303 2159 3303 1684 
Q 3303 1175 3120 767 
Q 2938 359 2589 142 
Q 2241 -75 1856 -75 
Q 1575 -75 1351 44 
Q 1128 163 984 344 
L 984 -1272 
L 422 -1272 
z
M 931 1641 
Q 931 1000 1190 694 
Q 1450 388 1819 388 
Q 2194 388 2461 705 
Q 2728 1022 2728 1688 
Q 2728 2322 2467 2637 
Q 2206 2953 1844 2953 
Q 1484 2953 1207 2617 
Q 931 2281 931 1641 
z
" transform="scale(0.015625)"/>
      </defs>
      <use xlink:href="#ArialMT-4e"/>
      <use xlink:href="#ArialMT-6f" x="72.216797"/>
      <use xlink:href="#ArialMT-6e" x="127.832031"/>
      <use xlink:href="#ArialMT-2d" x="183.447266"/>
      <use xlink:href="#ArialMT-70" x="216.748047"/>
      <use xlink:href="#ArialMT-72" x="272.363281"/>
      <use xlink:href="#ArialMT-6f" x="305.664062"/>
      <use xlink:href="#ArialMT-6d" x="361.279297"/>
      <use xlink:href="#ArialMT-6f" x="444.580078"/>
      <use xlink:href="#ArialMT-74" x="500.195312"/>
      <use xlink:href="#ArialMT-65" x="527.978516"/>
      <use xlink:href="#ArialMT-72" x="583.59375"/>
     </g>
    </g>
   </g>
  </g>
 </g>
 <defs>
  <clipPath id="p59fad1046f">
   <rect x="47.720781" y="21.935625" width="446.4" height="304.92"/>
  </clipPath>
 </defs>
</svg>
