<?xml version="1.0" encoding="utf-8" standalone="no"?>
<!DOCTYPE svg PUBLIC "-//W3C//DTD SVG 1.1//EN"
  "http://www.w3.org/Graphics/SVG/1.1/DTD/svg11.dtd">
<svg xmlns:xlink="http://www.w3.org/1999/xlink" width="501.320781pt" height="375.733156pt" viewBox="0 0 501.320781 375.733156" xmlns="http://www.w3.org/2000/svg" version="1.1">
 <metadata>
  <rdf:RDF xmlns:dc="http://purl.org/dc/elements/1.1/" xmlns:cc="http://creativecommons.org/ns#" xmlns:rdf="http://www.w3.org/1999/02/22-rdf-syntax-ns#">
   <cc:Work>
    <dc:type rdf:resource="http://purl.org/dc/dcmitype/StillImage"/>
    <dc:date>2023-05-11T16:25:39.659016</dc:date>
    <dc:format>image/svg+xml</dc:format>
    <dc:creator>
     <cc:Agent>
      <dc:title>Matplotlib v3.7.1, https://matplotlib.org/</dc:title>
     </cc:Agent>
    </dc:creator>
   </cc:Work>
  </rdf:RDF>
 </metadata>
 <defs>
  <style type="text/css">*{stroke-linejoin: round; stroke-linecap: butt}</style>
 </defs>
 <g id="figure_1">
  <g id="patch_1">
   <path d="M 0 375.733156 
L 501.320781 375.733156 
L 501.320781 0 
L 0 0 
z
" style="fill: #ffffff"/>
  </g>
  <g id="axes_1">
   <g id="patch_2">
    <path d="M 47.720781 326.855625 
L 494.120781 326.855625 
L 494.120781 21.935625 
L 47.720781 21.935625 
z
" style="fill: #ffffff"/>
   </g>
   <g id="matplotlib.axis_1">
    <g id="xtick_1">
     <g id="line2d_1"/>
     <g id="text_1">
      <!-- -200 -->
      <g style="fill: #262626" transform="translate(62.764185 353.067937) rotate(-45) scale(0.1 -0.1)">
       <defs>
        <path id="ArialMT-2d" d="M 203 1375 
L 203 1941 
L 1931 1941 
L 1931 1375 
L 203 1375 
z
" transform="scale(0.015625)"/>
        <path id="ArialMT-32" d="M 3222 541 
L 3222 0 
L 194 0 
Q 188 203 259 391 
Q 375 700 629 1000 
Q 884 1300 1366 1694 
Q 2113 2306 2375 2664 
Q 2638 3022 2638 3341 
Q 2638 3675 2398 3904 
Q 2159 4134 1775 4134 
Q 1369 4134 1125 3890 
Q 881 3647 878 3216 
L 300 3275 
Q 359 3922 746 4261 
Q 1134 4600 1788 4600 
Q 2447 4600 2831 4234 
Q 3216 3869 3216 3328 
Q 3216 3053 3103 2787 
Q 2991 2522 2730 2228 
Q 2469 1934 1863 1422 
Q 1356 997 1212 845 
Q 1069 694 975 541 
L 3222 541 
z
" transform="scale(0.015625)"/>
        <path id="ArialMT-30" d="M 266 2259 
Q 266 3072 433 3567 
Q 600 4063 929 4331 
Q 1259 4600 1759 4600 
Q 2128 4600 2406 4451 
Q 2684 4303 2865 4023 
Q 3047 3744 3150 3342 
Q 3253 2941 3253 2259 
Q 3253 1453 3087 958 
Q 2922 463 2592 192 
Q 2263 -78 1759 -78 
Q 1097 -78 719 397 
Q 266 969 266 2259 
z
M 844 2259 
Q 844 1131 1108 757 
Q 1372 384 1759 384 
Q 2147 384 2411 759 
Q 2675 1134 2675 2259 
Q 2675 3391 2411 3762 
Q 2147 4134 1753 4134 
Q 1366 4134 1134 3806 
Q 844 3388 844 2259 
z
" transform="scale(0.015625)"/>
       </defs>
       <use xlink:href="#ArialMT-2d"/>
       <use xlink:href="#ArialMT-32" x="33.300781"/>
       <use xlink:href="#ArialMT-30" x="88.916016"/>
       <use xlink:href="#ArialMT-30" x="144.53125"/>
      </g>
     </g>
    </g>
    <g id="xtick_2">
     <g id="line2d_2"/>
     <g id="text_2">
      <!-- -190 -->
      <g style="fill: #262626" transform="translate(79.062104 353.067937) rotate(-45) scale(0.1 -0.1)">
       <defs>
        <path id="ArialMT-31" d="M 2384 0 
L 1822 0 
L 1822 3584 
Q 1619 3391 1289 3197 
Q 959 3003 697 2906 
L 697 3450 
Q 1169 3672 1522 3987 
Q 1875 4303 2022 4600 
L 2384 4600 
L 2384 0 
z
" transform="scale(0.015625)"/>
        <path id="ArialMT-39" d="M 350 1059 
L 891 1109 
Q 959 728 1153 556 
Q 1347 384 1650 384 
Q 1909 384 2104 503 
Q 2300 622 2425 820 
Q 2550 1019 2634 1356 
Q 2719 1694 2719 2044 
Q 2719 2081 2716 2156 
Q 2547 1888 2255 1720 
Q 1963 1553 1622 1553 
Q 1053 1553 659 1965 
Q 266 2378 266 3053 
Q 266 3750 677 4175 
Q 1088 4600 1706 4600 
Q 2153 4600 2523 4359 
Q 2894 4119 3086 3673 
Q 3278 3228 3278 2384 
Q 3278 1506 3087 986 
Q 2897 466 2520 194 
Q 2144 -78 1638 -78 
Q 1100 -78 759 220 
Q 419 519 350 1059 
z
M 2653 3081 
Q 2653 3566 2395 3850 
Q 2138 4134 1775 4134 
Q 1400 4134 1122 3828 
Q 844 3522 844 3034 
Q 844 2597 1108 2323 
Q 1372 2050 1759 2050 
Q 2150 2050 2401 2323 
Q 2653 2597 2653 3081 
z
" transform="scale(0.015625)"/>
       </defs>
       <use xlink:href="#ArialMT-2d"/>
       <use xlink:href="#ArialMT-31" x="33.300781"/>
       <use xlink:href="#ArialMT-39" x="88.916016"/>
       <use xlink:href="#ArialMT-30" x="144.53125"/>
      </g>
     </g>
    </g>
    <g id="xtick_3">
     <g id="line2d_3"/>
     <g id="text_3">
      <!-- -180 -->
      <g style="fill: #262626" transform="translate(95.360023 353.067937) rotate(-45) scale(0.1 -0.1)">
       <defs>
        <path id="ArialMT-38" d="M 1131 2484 
Q 781 2613 612 2850 
Q 444 3088 444 3419 
Q 444 3919 803 4259 
Q 1163 4600 1759 4600 
Q 2359 4600 2725 4251 
Q 3091 3903 3091 3403 
Q 3091 3084 2923 2848 
Q 2756 2613 2416 2484 
Q 2838 2347 3058 2040 
Q 3278 1734 3278 1309 
Q 3278 722 2862 322 
Q 2447 -78 1769 -78 
Q 1091 -78 675 323 
Q 259 725 259 1325 
Q 259 1772 486 2073 
Q 713 2375 1131 2484 
z
M 1019 3438 
Q 1019 3113 1228 2906 
Q 1438 2700 1772 2700 
Q 2097 2700 2305 2904 
Q 2513 3109 2513 3406 
Q 2513 3716 2298 3927 
Q 2084 4138 1766 4138 
Q 1444 4138 1231 3931 
Q 1019 3725 1019 3438 
z
M 838 1322 
Q 838 1081 952 856 
Q 1066 631 1291 507 
Q 1516 384 1775 384 
Q 2178 384 2440 643 
Q 2703 903 2703 1303 
Q 2703 1709 2433 1975 
Q 2163 2241 1756 2241 
Q 1359 2241 1098 1978 
Q 838 1716 838 1322 
z
" transform="scale(0.015625)"/>
       </defs>
       <use xlink:href="#ArialMT-2d"/>
       <use xlink:href="#ArialMT-31" x="33.300781"/>
       <use xlink:href="#ArialMT-38" x="88.916016"/>
       <use xlink:href="#ArialMT-30" x="144.53125"/>
      </g>
     </g>
    </g>
    <g id="xtick_4">
     <g id="line2d_4"/>
     <g id="text_4">
      <!-- -170 -->
      <g style="fill: #262626" transform="translate(111.657941 353.067937) rotate(-45) scale(0.1 -0.1)">
       <defs>
        <path id="ArialMT-37" d="M 303 3981 
L 303 4522 
L 3269 4522 
L 3269 4084 
Q 2831 3619 2401 2847 
Q 1972 2075 1738 1259 
Q 1569 684 1522 0 
L 944 0 
Q 953 541 1156 1306 
Q 1359 2072 1739 2783 
Q 2119 3494 2547 3981 
L 303 3981 
z
" transform="scale(0.015625)"/>
       </defs>
       <use xlink:href="#ArialMT-2d"/>
       <use xlink:href="#ArialMT-31" x="33.300781"/>
       <use xlink:href="#ArialMT-37" x="88.916016"/>
       <use xlink:href="#ArialMT-30" x="144.53125"/>
      </g>
     </g>
    </g>
    <g id="xtick_5">
     <g id="line2d_5"/>
     <g id="text_5">
      <!-- -160 -->
      <g style="fill: #262626" transform="translate(127.95586 353.067937) rotate(-45) scale(0.1 -0.1)">
       <defs>
        <path id="ArialMT-36" d="M 3184 3459 
L 2625 3416 
Q 2550 3747 2413 3897 
Q 2184 4138 1850 4138 
Q 1581 4138 1378 3988 
Q 1113 3794 959 3422 
Q 806 3050 800 2363 
Q 1003 2672 1297 2822 
Q 1591 2972 1913 2972 
Q 2475 2972 2870 2558 
Q 3266 2144 3266 1488 
Q 3266 1056 3080 686 
Q 2894 316 2569 119 
Q 2244 -78 1831 -78 
Q 1128 -78 684 439 
Q 241 956 241 2144 
Q 241 3472 731 4075 
Q 1159 4600 1884 4600 
Q 2425 4600 2770 4297 
Q 3116 3994 3184 3459 
z
M 888 1484 
Q 888 1194 1011 928 
Q 1134 663 1356 523 
Q 1578 384 1822 384 
Q 2178 384 2434 671 
Q 2691 959 2691 1453 
Q 2691 1928 2437 2201 
Q 2184 2475 1800 2475 
Q 1419 2475 1153 2201 
Q 888 1928 888 1484 
z
" transform="scale(0.015625)"/>
       </defs>
       <use xlink:href="#ArialMT-2d"/>
       <use xlink:href="#ArialMT-31" x="33.300781"/>
       <use xlink:href="#ArialMT-36" x="88.916016"/>
       <use xlink:href="#ArialMT-30" x="144.53125"/>
      </g>
     </g>
    </g>
    <g id="xtick_6">
     <g id="line2d_6"/>
     <g id="text_6">
      <!-- -150 -->
      <g style="fill: #262626" transform="translate(144.253779 353.067937) rotate(-45) scale(0.1 -0.1)">
       <defs>
        <path id="ArialMT-35" d="M 266 1200 
L 856 1250 
Q 922 819 1161 601 
Q 1400 384 1738 384 
Q 2144 384 2425 690 
Q 2706 997 2706 1503 
Q 2706 1984 2436 2262 
Q 2166 2541 1728 2541 
Q 1456 2541 1237 2417 
Q 1019 2294 894 2097 
L 366 2166 
L 809 4519 
L 3088 4519 
L 3088 3981 
L 1259 3981 
L 1013 2750 
Q 1425 3038 1878 3038 
Q 2478 3038 2890 2622 
Q 3303 2206 3303 1553 
Q 3303 931 2941 478 
Q 2500 -78 1738 -78 
Q 1113 -78 717 272 
Q 322 622 266 1200 
z
" transform="scale(0.015625)"/>
       </defs>
       <use xlink:href="#ArialMT-2d"/>
       <use xlink:href="#ArialMT-31" x="33.300781"/>
       <use xlink:href="#ArialMT-35" x="88.916016"/>
       <use xlink:href="#ArialMT-30" x="144.53125"/>
      </g>
     </g>
    </g>
    <g id="xtick_7">
     <g id="line2d_7"/>
     <g id="text_7">
      <!-- -140 -->
      <g style="fill: #262626" transform="translate(160.551698 353.067937) rotate(-45) scale(0.1 -0.1)">
       <defs>
        <path id="ArialMT-34" d="M 2069 0 
L 2069 1097 
L 81 1097 
L 81 1613 
L 2172 4581 
L 2631 4581 
L 2631 1613 
L 3250 1613 
L 3250 1097 
L 2631 1097 
L 2631 0 
L 2069 0 
z
M 2069 1613 
L 2069 3678 
L 634 1613 
L 2069 1613 
z
" transform="scale(0.015625)"/>
       </defs>
       <use xlink:href="#ArialMT-2d"/>
       <use xlink:href="#ArialMT-31" x="33.300781"/>
       <use xlink:href="#ArialMT-34" x="88.916016"/>
       <use xlink:href="#ArialMT-30" x="144.53125"/>
      </g>
     </g>
    </g>
    <g id="xtick_8">
     <g id="line2d_8"/>
     <g id="text_8">
      <!-- -130 -->
      <g style="fill: #262626" transform="translate(176.849617 353.067937) rotate(-45) scale(0.1 -0.1)">
       <defs>
        <path id="ArialMT-33" d="M 269 1209 
L 831 1284 
Q 928 806 1161 595 
Q 1394 384 1728 384 
Q 2125 384 2398 659 
Q 2672 934 2672 1341 
Q 2672 1728 2419 1979 
Q 2166 2231 1775 2231 
Q 1616 2231 1378 2169 
L 1441 2663 
Q 1497 2656 1531 2656 
Q 1891 2656 2178 2843 
Q 2466 3031 2466 3422 
Q 2466 3731 2256 3934 
Q 2047 4138 1716 4138 
Q 1388 4138 1169 3931 
Q 950 3725 888 3313 
L 325 3413 
Q 428 3978 793 4289 
Q 1159 4600 1703 4600 
Q 2078 4600 2393 4439 
Q 2709 4278 2876 4000 
Q 3044 3722 3044 3409 
Q 3044 3113 2884 2869 
Q 2725 2625 2413 2481 
Q 2819 2388 3044 2092 
Q 3269 1797 3269 1353 
Q 3269 753 2831 336 
Q 2394 -81 1725 -81 
Q 1122 -81 723 278 
Q 325 638 269 1209 
z
" transform="scale(0.015625)"/>
       </defs>
       <use xlink:href="#ArialMT-2d"/>
       <use xlink:href="#ArialMT-31" x="33.300781"/>
       <use xlink:href="#ArialMT-33" x="88.916016"/>
       <use xlink:href="#ArialMT-30" x="144.53125"/>
      </g>
     </g>
    </g>
    <g id="xtick_9">
     <g id="line2d_9"/>
     <g id="text_9">
      <!-- -120 -->
      <g style="fill: #262626" transform="translate(193.147536 353.067937) rotate(-45) scale(0.1 -0.1)">
       <use xlink:href="#ArialMT-2d"/>
       <use xlink:href="#ArialMT-31" x="33.300781"/>
       <use xlink:href="#ArialMT-32" x="88.916016"/>
       <use xlink:href="#ArialMT-30" x="144.53125"/>
      </g>
     </g>
    </g>
    <g id="xtick_10">
     <g id="line2d_10"/>
     <g id="text_10">
      <!-- -110 -->
      <g style="fill: #262626" transform="translate(209.706201 352.546446) rotate(-45) scale(0.1 -0.1)">
       <use xlink:href="#ArialMT-2d"/>
       <use xlink:href="#ArialMT-31" x="33.300781"/>
       <use xlink:href="#ArialMT-31" x="81.541016"/>
       <use xlink:href="#ArialMT-30" x="137.15625"/>
      </g>
     </g>
    </g>
    <g id="xtick_11">
     <g id="line2d_11"/>
     <g id="text_11">
      <!-- -100 -->
      <g style="fill: #262626" transform="translate(225.743374 353.067937) rotate(-45) scale(0.1 -0.1)">
       <use xlink:href="#ArialMT-2d"/>
       <use xlink:href="#ArialMT-31" x="33.300781"/>
       <use xlink:href="#ArialMT-30" x="88.916016"/>
       <use xlink:href="#ArialMT-30" x="144.53125"/>
      </g>
     </g>
    </g>
    <g id="xtick_12">
     <g id="line2d_12"/>
     <g id="text_12">
      <!-- -90 -->
      <g style="fill: #262626" transform="translate(244.007381 349.135761) rotate(-45) scale(0.1 -0.1)">
       <use xlink:href="#ArialMT-2d"/>
       <use xlink:href="#ArialMT-39" x="33.300781"/>
       <use xlink:href="#ArialMT-30" x="88.916016"/>
      </g>
     </g>
    </g>
    <g id="xtick_13">
     <g id="line2d_13"/>
     <g id="text_13">
      <!-- -80 -->
      <g style="fill: #262626" transform="translate(260.3053 349.135761) rotate(-45) scale(0.1 -0.1)">
       <use xlink:href="#ArialMT-2d"/>
       <use xlink:href="#ArialMT-38" x="33.300781"/>
       <use xlink:href="#ArialMT-30" x="88.916016"/>
      </g>
     </g>
    </g>
    <g id="xtick_14">
     <g id="line2d_14"/>
     <g id="text_14">
      <!-- -70 -->
      <g style="fill: #262626" transform="translate(276.603219 349.135761) rotate(-45) scale(0.1 -0.1)">
       <use xlink:href="#ArialMT-2d"/>
       <use xlink:href="#ArialMT-37" x="33.300781"/>
       <use xlink:href="#ArialMT-30" x="88.916016"/>
      </g>
     </g>
    </g>
    <g id="xtick_15">
     <g id="line2d_15"/>
     <g id="text_15">
      <!-- -60 -->
      <g style="fill: #262626" transform="translate(292.901138 349.135761) rotate(-45) scale(0.1 -0.1)">
       <use xlink:href="#ArialMT-2d"/>
       <use xlink:href="#ArialMT-36" x="33.300781"/>
       <use xlink:href="#ArialMT-30" x="88.916016"/>
      </g>
     </g>
    </g>
    <g id="xtick_16">
     <g id="line2d_16"/>
     <g id="text_16">
      <!-- -50 -->
      <g style="fill: #262626" transform="translate(309.199057 349.135761) rotate(-45) scale(0.1 -0.1)">
       <use xlink:href="#ArialMT-2d"/>
       <use xlink:href="#ArialMT-35" x="33.300781"/>
       <use xlink:href="#ArialMT-30" x="88.916016"/>
      </g>
     </g>
    </g>
    <g id="xtick_17">
     <g id="line2d_17"/>
     <g id="text_17">
      <!-- -40 -->
      <g style="fill: #262626" transform="translate(325.496976 349.135761) rotate(-45) scale(0.1 -0.1)">
       <use xlink:href="#ArialMT-2d"/>
       <use xlink:href="#ArialMT-34" x="33.300781"/>
       <use xlink:href="#ArialMT-30" x="88.916016"/>
      </g>
     </g>
    </g>
    <g id="xtick_18">
     <g id="line2d_18"/>
     <g id="text_18">
      <!-- -30 -->
      <g style="fill: #262626" transform="translate(341.794895 349.135761) rotate(-45) scale(0.1 -0.1)">
       <use xlink:href="#ArialMT-2d"/>
       <use xlink:href="#ArialMT-33" x="33.300781"/>
       <use xlink:href="#ArialMT-30" x="88.916016"/>
      </g>
     </g>
    </g>
    <g id="xtick_19">
     <g id="line2d_19"/>
     <g id="text_19">
      <!-- -20 -->
      <g style="fill: #262626" transform="translate(358.092814 349.135761) rotate(-45) scale(0.1 -0.1)">
       <use xlink:href="#ArialMT-2d"/>
       <use xlink:href="#ArialMT-32" x="33.300781"/>
       <use xlink:href="#ArialMT-30" x="88.916016"/>
      </g>
     </g>
    </g>
    <g id="xtick_20">
     <g id="line2d_20"/>
     <g id="text_20">
      <!-- -10 -->
      <g style="fill: #262626" transform="translate(374.390733 349.135761) rotate(-45) scale(0.1 -0.1)">
       <use xlink:href="#ArialMT-2d"/>
       <use xlink:href="#ArialMT-31" x="33.300781"/>
       <use xlink:href="#ArialMT-30" x="88.916016"/>
      </g>
     </g>
    </g>
    <g id="xtick_21">
     <g id="line2d_21"/>
     <g id="text_21">
      <!-- 0 -->
      <g style="fill: #262626" transform="translate(393.831963 342.849139) rotate(-45) scale(0.1 -0.1)">
       <use xlink:href="#ArialMT-30"/>
      </g>
     </g>
    </g>
    <g id="xtick_22">
     <g id="line2d_22"/>
     <g id="text_22">
      <!-- 10 -->
      <g style="fill: #262626" transform="translate(408.163793 346.781316) rotate(-45) scale(0.1 -0.1)">
       <use xlink:href="#ArialMT-31"/>
       <use xlink:href="#ArialMT-30" x="55.615234"/>
      </g>
     </g>
    </g>
    <g id="xtick_23">
     <g id="line2d_23"/>
     <g id="text_23">
      <!-- 20 -->
      <g style="fill: #262626" transform="translate(424.461712 346.781316) rotate(-45) scale(0.1 -0.1)">
       <use xlink:href="#ArialMT-32"/>
       <use xlink:href="#ArialMT-30" x="55.615234"/>
      </g>
     </g>
    </g>
    <g id="xtick_24">
     <g id="line2d_24"/>
     <g id="text_24">
      <!-- 30 -->
      <g style="fill: #262626" transform="translate(440.759631 346.781316) rotate(-45) scale(0.1 -0.1)">
       <use xlink:href="#ArialMT-33"/>
       <use xlink:href="#ArialMT-30" x="55.615234"/>
      </g>
     </g>
    </g>
    <g id="xtick_25">
     <g id="line2d_25"/>
     <g id="text_25">
      <!-- 40 -->
      <g style="fill: #262626" transform="translate(457.05755 346.781316) rotate(-45) scale(0.1 -0.1)">
       <use xlink:href="#ArialMT-34"/>
       <use xlink:href="#ArialMT-30" x="55.615234"/>
      </g>
     </g>
    </g>
    <g id="xtick_26">
     <g id="line2d_26"/>
     <g id="text_26">
      <!-- 50 -->
      <g style="fill: #262626" transform="translate(473.355469 346.781316) rotate(-45) scale(0.1 -0.1)">
       <use xlink:href="#ArialMT-35"/>
       <use xlink:href="#ArialMT-30" x="55.615234"/>
      </g>
     </g>
    </g>
    <g id="text_27">
     <!-- Position -->
     <g style="fill: #262626" transform="translate(251.354531 366.346906) scale(0.11 -0.11)">
      <defs>
       <path id="ArialMT-50" d="M 494 0 
L 494 4581 
L 2222 4581 
Q 2678 4581 2919 4538 
Q 3256 4481 3484 4323 
Q 3713 4166 3852 3881 
Q 3991 3597 3991 3256 
Q 3991 2672 3619 2267 
Q 3247 1863 2275 1863 
L 1100 1863 
L 1100 0 
L 494 0 
z
M 1100 2403 
L 2284 2403 
Q 2872 2403 3119 2622 
Q 3366 2841 3366 3238 
Q 3366 3525 3220 3729 
Q 3075 3934 2838 4000 
Q 2684 4041 2272 4041 
L 1100 4041 
L 1100 2403 
z
" transform="scale(0.015625)"/>
       <path id="ArialMT-6f" d="M 213 1659 
Q 213 2581 725 3025 
Q 1153 3394 1769 3394 
Q 2453 3394 2887 2945 
Q 3322 2497 3322 1706 
Q 3322 1066 3130 698 
Q 2938 331 2570 128 
Q 2203 -75 1769 -75 
Q 1072 -75 642 372 
Q 213 819 213 1659 
z
M 791 1659 
Q 791 1022 1069 705 
Q 1347 388 1769 388 
Q 2188 388 2466 706 
Q 2744 1025 2744 1678 
Q 2744 2294 2464 2611 
Q 2184 2928 1769 2928 
Q 1347 2928 1069 2612 
Q 791 2297 791 1659 
z
" transform="scale(0.015625)"/>
       <path id="ArialMT-73" d="M 197 991 
L 753 1078 
Q 800 744 1014 566 
Q 1228 388 1613 388 
Q 2000 388 2187 545 
Q 2375 703 2375 916 
Q 2375 1106 2209 1216 
Q 2094 1291 1634 1406 
Q 1016 1563 777 1677 
Q 538 1791 414 1992 
Q 291 2194 291 2438 
Q 291 2659 392 2848 
Q 494 3038 669 3163 
Q 800 3259 1026 3326 
Q 1253 3394 1513 3394 
Q 1903 3394 2198 3281 
Q 2494 3169 2634 2976 
Q 2775 2784 2828 2463 
L 2278 2388 
Q 2241 2644 2061 2787 
Q 1881 2931 1553 2931 
Q 1166 2931 1000 2803 
Q 834 2675 834 2503 
Q 834 2394 903 2306 
Q 972 2216 1119 2156 
Q 1203 2125 1616 2013 
Q 2213 1853 2448 1751 
Q 2684 1650 2818 1456 
Q 2953 1263 2953 975 
Q 2953 694 2789 445 
Q 2625 197 2315 61 
Q 2006 -75 1616 -75 
Q 969 -75 630 194 
Q 291 463 197 991 
z
" transform="scale(0.015625)"/>
       <path id="ArialMT-69" d="M 425 3934 
L 425 4581 
L 988 4581 
L 988 3934 
L 425 3934 
z
M 425 0 
L 425 3319 
L 988 3319 
L 988 0 
L 425 0 
z
" transform="scale(0.015625)"/>
       <path id="ArialMT-74" d="M 1650 503 
L 1731 6 
Q 1494 -44 1306 -44 
Q 1000 -44 831 53 
Q 663 150 594 308 
Q 525 466 525 972 
L 525 2881 
L 113 2881 
L 113 3319 
L 525 3319 
L 525 4141 
L 1084 4478 
L 1084 3319 
L 1650 3319 
L 1650 2881 
L 1084 2881 
L 1084 941 
Q 1084 700 1114 631 
Q 1144 563 1211 522 
Q 1278 481 1403 481 
Q 1497 481 1650 503 
z
" transform="scale(0.015625)"/>
       <path id="ArialMT-6e" d="M 422 0 
L 422 3319 
L 928 3319 
L 928 2847 
Q 1294 3394 1984 3394 
Q 2284 3394 2536 3286 
Q 2788 3178 2913 3003 
Q 3038 2828 3088 2588 
Q 3119 2431 3119 2041 
L 3119 0 
L 2556 0 
L 2556 2019 
Q 2556 2363 2490 2533 
Q 2425 2703 2258 2804 
Q 2091 2906 1866 2906 
Q 1506 2906 1245 2678 
Q 984 2450 984 1813 
L 984 0 
L 422 0 
z
" transform="scale(0.015625)"/>
      </defs>
      <use xlink:href="#ArialMT-50"/>
      <use xlink:href="#ArialMT-6f" x="66.699219"/>
      <use xlink:href="#ArialMT-73" x="122.314453"/>
      <use xlink:href="#ArialMT-69" x="172.314453"/>
      <use xlink:href="#ArialMT-74" x="194.53125"/>
      <use xlink:href="#ArialMT-69" x="222.314453"/>
      <use xlink:href="#ArialMT-6f" x="244.53125"/>
      <use xlink:href="#ArialMT-6e" x="300.146484"/>
     </g>
    </g>
   </g>
   <g id="matplotlib.axis_2">
    <g id="ytick_1">
     <g id="line2d_27"/>
     <g id="text_28">
      <!-- 32.5 -->
      <g style="fill: #262626" transform="translate(21.259844 315.364049) scale(0.1 -0.1)">
       <defs>
        <path id="ArialMT-2e" d="M 581 0 
L 581 641 
L 1222 641 
L 1222 0 
L 581 0 
z
" transform="scale(0.015625)"/>
       </defs>
       <use xlink:href="#ArialMT-33"/>
       <use xlink:href="#ArialMT-32" x="55.615234"/>
       <use xlink:href="#ArialMT-2e" x="111.230469"/>
       <use xlink:href="#ArialMT-35" x="139.013672"/>
      </g>
     </g>
    </g>
    <g id="ytick_2">
     <g id="line2d_28"/>
     <g id="text_29">
      <!-- 33.0 -->
      <g style="fill: #262626" transform="translate(21.259844 281.263216) scale(0.1 -0.1)">
       <use xlink:href="#ArialMT-33"/>
       <use xlink:href="#ArialMT-33" x="55.615234"/>
       <use xlink:href="#ArialMT-2e" x="111.230469"/>
       <use xlink:href="#ArialMT-30" x="139.013672"/>
      </g>
     </g>
    </g>
    <g id="ytick_3">
     <g id="line2d_29"/>
     <g id="text_30">
      <!-- 33.5 -->
      <g style="fill: #262626" transform="translate(21.259844 247.162384) scale(0.1 -0.1)">
       <use xlink:href="#ArialMT-33"/>
       <use xlink:href="#ArialMT-33" x="55.615234"/>
       <use xlink:href="#ArialMT-2e" x="111.230469"/>
       <use xlink:href="#ArialMT-35" x="139.013672"/>
      </g>
     </g>
    </g>
    <g id="ytick_4">
     <g id="line2d_30"/>
     <g id="text_31">
      <!-- 34.0 -->
      <g style="fill: #262626" transform="translate(21.259844 213.061551) scale(0.1 -0.1)">
       <use xlink:href="#ArialMT-33"/>
       <use xlink:href="#ArialMT-34" x="55.615234"/>
       <use xlink:href="#ArialMT-2e" x="111.230469"/>
       <use xlink:href="#ArialMT-30" x="139.013672"/>
      </g>
     </g>
    </g>
    <g id="ytick_5">
     <g id="line2d_31"/>
     <g id="text_32">
      <!-- 34.5 -->
      <g style="fill: #262626" transform="translate(21.259844 178.960718) scale(0.1 -0.1)">
       <use xlink:href="#ArialMT-33"/>
       <use xlink:href="#ArialMT-34" x="55.615234"/>
       <use xlink:href="#ArialMT-2e" x="111.230469"/>
       <use xlink:href="#ArialMT-35" x="139.013672"/>
      </g>
     </g>
    </g>
    <g id="ytick_6">
     <g id="line2d_32"/>
     <g id="text_33">
      <!-- 35.0 -->
      <g style="fill: #262626" transform="translate(21.259844 144.859885) scale(0.1 -0.1)">
       <use xlink:href="#ArialMT-33"/>
       <use xlink:href="#ArialMT-35" x="55.615234"/>
       <use xlink:href="#ArialMT-2e" x="111.230469"/>
       <use xlink:href="#ArialMT-30" x="139.013672"/>
      </g>
     </g>
    </g>
    <g id="ytick_7">
     <g id="line2d_33"/>
     <g id="text_34">
      <!-- 35.5 -->
      <g style="fill: #262626" transform="translate(21.259844 110.759053) scale(0.1 -0.1)">
       <use xlink:href="#ArialMT-33"/>
       <use xlink:href="#ArialMT-35" x="55.615234"/>
       <use xlink:href="#ArialMT-2e" x="111.230469"/>
       <use xlink:href="#ArialMT-35" x="139.013672"/>
      </g>
     </g>
    </g>
    <g id="ytick_8">
     <g id="line2d_34"/>
     <g id="text_35">
      <!-- 36.0 -->
      <g style="fill: #262626" transform="translate(21.259844 76.65822) scale(0.1 -0.1)">
       <use xlink:href="#ArialMT-33"/>
       <use xlink:href="#ArialMT-36" x="55.615234"/>
       <use xlink:href="#ArialMT-2e" x="111.230469"/>
       <use xlink:href="#ArialMT-30" x="139.013672"/>
      </g>
     </g>
    </g>
    <g id="ytick_9">
     <g id="line2d_35"/>
     <g id="text_36">
      <!-- 36.5 -->
      <g style="fill: #262626" transform="translate(21.259844 42.557387) scale(0.1 -0.1)">
       <use xlink:href="#ArialMT-33"/>
       <use xlink:href="#ArialMT-36" x="55.615234"/>
       <use xlink:href="#ArialMT-2e" x="111.230469"/>
       <use xlink:href="#ArialMT-35" x="139.013672"/>
      </g>
     </g>
    </g>
    <g id="text_37">
     <!-- Protein DNA twist -->
     <g style="fill: #262626" transform="translate(15.073594 217.187344) rotate(-90) scale(0.11 -0.11)">
      <defs>
       <path id="ArialMT-72" d="M 416 0 
L 416 3319 
L 922 3319 
L 922 2816 
Q 1116 3169 1280 3281 
Q 1444 3394 1641 3394 
Q 1925 3394 2219 3213 
L 2025 2691 
Q 1819 2813 1613 2813 
Q 1428 2813 1281 2702 
Q 1134 2591 1072 2394 
Q 978 2094 978 1738 
L 978 0 
L 416 0 
z
" transform="scale(0.015625)"/>
       <path id="ArialMT-65" d="M 2694 1069 
L 3275 997 
Q 3138 488 2766 206 
Q 2394 -75 1816 -75 
Q 1088 -75 661 373 
Q 234 822 234 1631 
Q 234 2469 665 2931 
Q 1097 3394 1784 3394 
Q 2450 3394 2872 2941 
Q 3294 2488 3294 1666 
Q 3294 1616 3291 1516 
L 816 1516 
Q 847 969 1125 678 
Q 1403 388 1819 388 
Q 2128 388 2347 550 
Q 2566 713 2694 1069 
z
M 847 1978 
L 2700 1978 
Q 2663 2397 2488 2606 
Q 2219 2931 1791 2931 
Q 1403 2931 1139 2672 
Q 875 2413 847 1978 
z
" transform="scale(0.015625)"/>
       <path id="ArialMT-20" transform="scale(0.015625)"/>
       <path id="ArialMT-44" d="M 494 0 
L 494 4581 
L 2072 4581 
Q 2606 4581 2888 4516 
Q 3281 4425 3559 4188 
Q 3922 3881 4101 3404 
Q 4281 2928 4281 2316 
Q 4281 1794 4159 1391 
Q 4038 988 3847 723 
Q 3656 459 3429 307 
Q 3203 156 2883 78 
Q 2563 0 2147 0 
L 494 0 
z
M 1100 541 
L 2078 541 
Q 2531 541 2789 625 
Q 3047 709 3200 863 
Q 3416 1078 3536 1442 
Q 3656 1806 3656 2325 
Q 3656 3044 3420 3430 
Q 3184 3816 2847 3947 
Q 2603 4041 2063 4041 
L 1100 4041 
L 1100 541 
z
" transform="scale(0.015625)"/>
       <path id="ArialMT-4e" d="M 488 0 
L 488 4581 
L 1109 4581 
L 3516 984 
L 3516 4581 
L 4097 4581 
L 4097 0 
L 3475 0 
L 1069 3600 
L 1069 0 
L 488 0 
z
" transform="scale(0.015625)"/>
       <path id="ArialMT-41" d="M -9 0 
L 1750 4581 
L 2403 4581 
L 4278 0 
L 3588 0 
L 3053 1388 
L 1138 1388 
L 634 0 
L -9 0 
z
M 1313 1881 
L 2866 1881 
L 2388 3150 
Q 2169 3728 2063 4100 
Q 1975 3659 1816 3225 
L 1313 1881 
z
" transform="scale(0.015625)"/>
       <path id="ArialMT-77" d="M 1034 0 
L 19 3319 
L 600 3319 
L 1128 1403 
L 1325 691 
Q 1338 744 1497 1375 
L 2025 3319 
L 2603 3319 
L 3100 1394 
L 3266 759 
L 3456 1400 
L 4025 3319 
L 4572 3319 
L 3534 0 
L 2950 0 
L 2422 1988 
L 2294 2553 
L 1622 0 
L 1034 0 
z
" transform="scale(0.015625)"/>
      </defs>
      <use xlink:href="#ArialMT-50"/>
      <use xlink:href="#ArialMT-72" x="66.699219"/>
      <use xlink:href="#ArialMT-6f" x="100"/>
      <use xlink:href="#ArialMT-74" x="155.615234"/>
      <use xlink:href="#ArialMT-65" x="183.398438"/>
      <use xlink:href="#ArialMT-69" x="239.013672"/>
      <use xlink:href="#ArialMT-6e" x="261.230469"/>
      <use xlink:href="#ArialMT-20" x="316.845703"/>
      <use xlink:href="#ArialMT-44" x="344.628906"/>
      <use xlink:href="#ArialMT-4e" x="416.845703"/>
      <use xlink:href="#ArialMT-41" x="489.0625"/>
      <use xlink:href="#ArialMT-20" x="550.261719"/>
      <use xlink:href="#ArialMT-74" x="578.044922"/>
      <use xlink:href="#ArialMT-77" x="605.828125"/>
      <use xlink:href="#ArialMT-69" x="678.044922"/>
      <use xlink:href="#ArialMT-73" x="700.261719"/>
      <use xlink:href="#ArialMT-74" x="750.261719"/>
     </g>
    </g>
   </g>
   <g id="line2d_36">
    <path d="M 68.01169 200.830001 
L 69.641482 201.109794 
L 71.271274 202.442581 
L 72.901066 201.906869 
L 74.530858 203.060806 
L 76.16065 201.779119 
L 77.790442 202.305616 
L 79.420234 201.162569 
L 81.050025 202.286349 
L 82.679817 202.615567 
L 84.309609 202.252841 
L 85.939401 200.115858 
L 87.569193 203.201959 
L 89.198985 200.529684 
L 90.828777 203.118608 
L 92.458569 201.046547 
L 94.088361 203.49013 
L 95.718153 201.813465 
L 97.347944 202.017865 
L 98.977736 202.696405 
L 100.607528 201.895141 
L 102.23732 202.426246 
L 103.867112 200.164864 
L 105.496904 203.909819 
L 107.126696 202.51211 
L 108.756488 201.637547 
L 110.38628 202.860595 
L 112.016072 200.166539 
L 113.645863 202.755882 
L 115.275655 202.738709 
L 116.905447 203.696624 
L 118.535239 200.848011 
L 120.165031 203.74521 
L 121.794823 201.612416 
L 123.424615 203.093477 
L 125.054407 199.30161 
L 126.684199 205.256009 
L 128.31399 202.311061 
L 129.943782 202.217657 
L 131.573574 202.966146 
L 133.203366 201.872523 
L 134.833158 204.728675 
L 136.46295 201.112307 
L 138.092742 203.661859 
L 139.722534 201.119846 
L 141.352326 203.697461 
L 142.982118 202.82248 
L 144.611909 204.049297 
L 146.241701 200.533872 
L 147.871493 204.98208 
L 149.501285 201.49807 
L 151.131077 202.953161 
L 152.760869 203.323008 
L 154.390661 201.015971 
L 156.020453 203.579345 
L 157.650245 203.47547 
L 160.909828 204.582496 
L 162.53962 201.76069 
L 164.169412 204.120921 
L 165.799204 201.318382 
L 167.428996 204.667522 
L 169.058788 203.387511 
L 170.68858 205.080092 
L 172.318372 202.360905 
L 173.948164 202.982481 
L 175.577955 204.570349 
L 177.207747 202.317763 
L 178.837539 204.252859 
L 180.467331 204.202178 
L 182.097123 202.181636 
L 183.726915 203.078817 
L 185.356707 204.648674 
L 186.986499 203.308348 
L 188.616291 203.849505 
L 190.246082 202.548132 
L 191.875874 203.724268 
L 193.505666 204.620611 
L 195.135458 201.526133 
L 196.76525 204.300189 
L 198.395042 203.022272 
L 200.024834 203.99694 
L 201.654626 203.604476 
L 203.284418 201.843204 
L 204.91421 206.81372 
L 206.544001 203.20908 
L 208.173793 201.947917 
L 209.803585 204.65035 
L 211.433377 202.1364 
L 213.063169 203.346045 
L 214.692961 205.459572 
L 216.322753 203.801755 
L 217.952545 204.242807 
L 219.582337 205.932455 
L 221.212128 204.843021 
L 222.84192 201.920272 
L 224.471712 205.217475 
L 226.101504 202.462267 
L 227.731296 205.451195 
L 229.361088 205.327633 
L 230.99088 202.365512 
L 232.620672 205.905649 
L 234.250464 201.787915 
L 235.880256 204.055999 
L 237.510047 203.371176 
L 239.139839 204.67925 
L 240.769631 206.479476 
L 242.399423 202.202998 
L 244.029215 202.759233 
L 245.659007 205.367424 
L 247.288799 203.396726 
L 248.918591 203.231698 
L 250.548383 205.351508 
L 252.178174 206.639896 
L 253.807966 203.472957 
L 255.437758 204.643229 
L 257.06755 202.277134 
L 258.697342 205.343131 
L 260.327134 203.564266 
L 261.956926 205.250564 
L 263.586718 203.010963 
L 265.21651 205.671092 
L 266.846302 203.915264 
L 268.476093 204.953598 
L 270.105885 203.489711 
L 271.735677 206.154028 
L 273.365469 204.000291 
L 274.995261 206.293925 
L 276.625053 201.426446 
L 278.254845 205.2669 
L 279.884637 203.820185 
L 281.514429 204.20888 
L 283.14422 206.212667 
L 284.774012 203.371176 
L 286.403804 203.750237 
L 288.033596 205.212449 
L 289.663388 206.943564 
L 291.29318 201.893885 
L 292.922972 206.211411 
L 294.552764 201.607809 
L 296.182556 205.467949 
L 297.812348 205.421456 
L 299.442139 204.313174 
L 301.071931 205.183548 
L 302.701723 204.35464 
L 304.331515 204.801974 
L 305.961307 206.505864 
L 307.591099 205.088469 
L 309.220891 205.886801 
L 310.850683 204.306472 
L 312.480475 205.722611 
L 314.110266 205.851198 
L 315.740058 206.840526 
L 317.36985 208.512165 
L 318.999642 208.502531 
L 320.629434 203.710865 
L 322.259226 206.714033 
L 323.889018 203.825211 
L 325.51881 208.329964 
L 327.148602 206.086174 
L 328.778394 205.344806 
L 330.408185 206.418324 
L 332.037977 202.794416 
L 333.667769 200.025386 
L 335.297561 201.445713 
L 336.927353 203.403846 
L 338.557145 207.232153 
L 340.186937 212.266335 
L 343.446521 201.394613 
L 345.076312 202.951067 
L 346.706104 204.769722 
L 348.335896 200.393557 
L 349.965688 198.718987 
L 353.225272 202.22394 
L 354.855064 207.960118 
L 356.484856 203.441124 
L 358.114648 202.809914 
L 359.74444 204.454327 
L 361.374231 204.076104 
L 363.004023 204.083224 
L 364.633815 205.107317 
L 366.263607 202.280904 
L 367.893399 202.022053 
L 369.523191 202.601745 
L 371.152983 200.463505 
L 372.782775 206.022927 
L 374.412567 209.631337 
L 376.042358 202.473576 
L 377.67215 204.633177 
L 379.301942 200.841729 
L 380.931734 203.429396 
L 382.561526 203.838196 
L 384.191318 207.314667 
L 385.82111 198.974068 
L 387.450902 212.348011 
L 389.080694 229.468166 
L 390.710486 226.826886 
L 392.340277 35.795625 
L 393.970069 312.995625 
L 395.599861 196.260745 
L 397.229653 198.584117 
L 398.859445 202.006137 
L 402.119029 188.041613 
L 405.378613 207.322206 
L 407.008404 200.934714 
L 408.638196 198.963596 
L 410.267988 194.434969 
L 411.89778 199.904757 
L 413.527572 202.430853 
L 415.157364 207.548805 
L 416.787156 207.735613 
L 418.416948 201.230423 
L 420.04674 200.219733 
L 421.676532 198.088615 
L 423.306323 200.435861 
L 424.936115 199.986433 
L 426.565907 201.4432 
L 428.195699 199.052393 
L 429.825491 202.537241 
L 431.455283 202.877768 
L 433.085075 202.349177 
L 434.714867 200.497432 
L 436.344659 196.699702 
L 437.97445 205.955492 
L 439.604242 207.213305 
L 441.234034 209.219187 
L 442.863826 205.735595 
L 444.493618 204.084481 
L 446.12341 203.496412 
L 447.753202 200.817016 
L 449.382994 201.233774 
L 451.012786 199.918579 
L 452.642578 203.257248 
L 454.272369 199.426009 
L 455.902161 202.117133 
L 457.531953 203.2162 
L 459.161745 200.411149 
L 460.791537 203.550863 
L 462.421329 205.826905 
L 464.051121 204.231079 
L 465.680913 204.587941 
L 468.940496 202.912952 
L 470.570288 200.617643 
L 472.20008 201.286131 
L 473.829872 201.555452 
L 473.829872 201.555452 
" clip-path="url(#pc34260ffcd)" style="fill: none; stroke: #0272a2; stroke-width: 1.75; stroke-linecap: round"/>
   </g>
   <g id="line2d_37">
    <path d="M 68.01169 198.255005 
L 69.641482 198.939989 
L 71.271274 197.772247 
L 72.901066 198.160212 
L 74.530858 200.033821 
L 76.16065 197.812087 
L 77.790442 196.439921 
L 79.420234 200.30721 
L 81.050025 197.597497 
L 82.679817 199.169416 
L 84.309609 196.456682 
L 85.939401 199.022143 
L 87.569193 198.260501 
L 89.198985 199.474953 
L 90.828777 198.802058 
L 92.458569 197.005383 
L 94.088361 197.787359 
L 95.718153 199.818407 
L 97.347944 197.907155 
L 98.977736 197.720591 
L 100.607528 197.815659 
L 102.23732 200.351722 
L 103.867112 197.992607 
L 105.496904 196.374527 
L 107.126696 199.525234 
L 110.38628 198.143451 
L 112.016072 198.668524 
L 113.645863 197.801372 
L 115.275655 198.628133 
L 116.905447 197.661242 
L 118.535239 198.480311 
L 121.794823 198.606427 
L 123.424615 198.961696 
L 125.054407 197.695863 
L 126.684199 199.953315 
L 128.31399 197.447202 
L 129.943782 199.003734 
L 131.573574 199.471656 
L 133.203366 196.879542 
L 134.833158 198.575379 
L 136.46295 200.062946 
L 138.092742 197.285092 
L 139.722534 197.81456 
L 141.352326 198.933395 
L 142.982118 197.510947 
L 144.611909 200.54488 
L 146.241701 197.812087 
L 147.871493 197.360652 
L 149.501285 197.349661 
L 151.131077 199.621127 
L 152.760869 199.205685 
L 154.390661 197.674706 
L 156.020453 198.52235 
L 157.650245 197.324933 
L 159.280036 200.326993 
L 160.909828 195.781039 
L 162.53962 197.828573 
L 164.169412 199.320261 
L 165.799204 199.140566 
L 167.428996 198.167081 
L 169.058788 198.200602 
L 170.68858 198.89905 
L 172.318372 196.764691 
L 173.948164 197.939028 
L 175.577955 198.774857 
L 177.207747 199.434563 
L 178.837539 198.70754 
L 180.467331 198.792442 
L 182.097123 197.632118 
L 183.726915 198.378923 
L 185.356707 198.137407 
L 186.986499 198.543781 
L 188.616291 198.325894 
L 190.246082 199.723888 
L 191.875874 196.663029 
L 193.505666 199.81401 
L 195.135458 198.653412 
L 196.76525 197.858522 
L 198.395042 198.793541 
L 200.024834 200.050307 
L 201.654626 196.494874 
L 203.284418 199.052917 
L 204.91421 196.5512 
L 206.544001 199.06638 
L 208.173793 198.381121 
L 209.803585 197.12518 
L 211.433377 198.705617 
L 213.063169 198.886685 
L 214.692961 199.235909 
L 216.322753 197.121883 
L 217.952545 199.784611 
L 219.582337 197.756036 
L 221.212128 199.334549 
L 222.84192 197.424122 
L 224.471712 197.970351 
L 226.101504 198.125317 
L 227.731296 199.908529 
L 229.361088 198.68391 
L 230.99088 196.853989 
L 232.620672 201.263385 
L 234.250464 196.359965 
L 235.880256 197.767026 
L 237.510047 198.918558 
L 239.139839 199.832145 
L 240.769631 196.645993 
L 242.399423 199.77994 
L 244.029215 197.901385 
L 245.659007 198.775132 
L 247.288799 198.691604 
L 248.918591 198.730345 
L 250.548383 194.383595 
L 252.178174 200.155816 
L 253.807966 199.290862 
L 255.437758 196.705067 
L 257.06755 199.764553 
L 258.697342 198.855362 
L 260.327134 199.058412 
L 261.956926 197.21173 
L 265.21651 200.354744 
L 266.846302 198.132186 
L 268.476093 198.421237 
L 270.105885 199.57634 
L 271.735677 197.639811 
L 273.365469 197.568098 
L 274.995261 199.424946 
L 276.625053 197.667837 
L 279.884637 199.168867 
L 281.514429 197.803844 
L 283.14422 198.215439 
L 284.774012 197.621677 
L 286.403804 198.903995 
L 288.033596 197.499407 
L 289.663388 199.220522 
L 291.29318 198.189062 
L 292.922972 198.918008 
L 294.552764 197.689543 
L 296.182556 198.647367 
L 297.812348 197.624149 
L 299.442139 199.880228 
L 301.071931 197.688994 
L 302.701723 199.452148 
L 304.331515 198.312431 
L 305.961307 198.089048 
L 307.591099 197.676354 
L 309.220891 198.971587 
L 310.850683 196.864979 
L 312.480475 198.818819 
L 314.110266 197.447202 
L 315.740058 200.090147 
L 317.36985 198.391837 
L 318.999642 199.006207 
L 320.629434 198.751777 
L 322.259226 196.678965 
L 323.889018 200.053878 
L 325.51881 197.36285 
L 327.148602 197.600795 
L 328.778394 200.762217 
L 330.408185 195.319712 
L 332.037977 199.241954 
L 333.667769 198.297868 
L 335.297561 198.752326 
L 336.927353 199.038629 
L 338.557145 198.068716 
L 340.186937 196.663853 
L 341.816729 199.789282 
L 343.446521 197.394448 
L 345.076312 197.972824 
L 346.706104 199.845608 
L 348.335896 198.908941 
L 349.965688 197.003185 
L 351.59548 200.433051 
L 353.225272 196.633629 
L 354.855064 198.102512 
L 356.484856 200.630881 
L 358.114648 197.661242 
L 359.74444 198.759195 
L 361.374231 197.598322 
L 363.004023 198.068716 
L 364.633815 199.204861 
L 366.263607 195.480449 
L 367.893399 199.024067 
L 371.152983 199.526334 
L 372.782775 197.422199 
L 374.412567 198.476739 
L 376.042358 199.235085 
L 377.67215 197.394173 
L 379.301942 198.170103 
L 380.931734 199.141391 
L 382.561526 196.83503 
L 384.191318 199.559855 
L 385.82111 196.268469 
L 387.450902 199.765103 
L 389.080694 198.99137 
L 390.710486 197.868139 
L 392.340277 199.873084 
L 393.970069 197.338121 
L 395.599861 198.538286 
L 397.229653 197.262561 
L 398.859445 197.613434 
L 400.489237 200.911139 
L 402.119029 197.239481 
L 403.748821 196.966092 
L 405.378613 198.297319 
L 407.008404 199.934082 
L 408.638196 197.532379 
L 410.267988 198.522624 
L 411.89778 199.955513 
L 413.527572 198.830908 
L 415.157364 198.833931 
L 416.787156 196.062397 
L 418.416948 200.586369 
L 420.04674 198.368757 
L 421.676532 198.643245 
L 423.306323 198.565213 
L 424.936115 198.157739 
L 426.565907 198.603954 
L 428.195699 198.489928 
L 429.825491 198.593238 
L 431.455283 199.987935 
L 433.085075 196.568785 
L 434.714867 198.109381 
L 436.344659 199.267507 
L 437.97445 197.406262 
L 439.604242 199.253769 
L 441.234034 199.079294 
L 442.863826 198.4935 
L 444.493618 198.760569 
L 446.12341 197.100176 
L 447.753202 198.019259 
L 449.382994 198.266545 
L 451.012786 199.024342 
L 452.642578 198.323971 
L 454.272369 200.084377 
L 455.902161 198.374802 
L 457.531953 197.364498 
L 459.161745 198.648741 
L 460.791537 198.322597 
L 462.421329 199.521663 
L 464.051121 198.123669 
L 465.680913 198.598734 
L 467.310705 197.289488 
L 468.940496 199.765377 
L 470.570288 196.9856 
L 472.20008 199.155953 
L 473.829872 199.112815 
L 473.829872 199.112815 
" clip-path="url(#pc34260ffcd)" style="fill: none; stroke-dasharray: 1.75,2.8875; stroke-dashoffset: 0; stroke: #9fc377; stroke-width: 1.75"/>
   </g>
   <g id="patch_3">
    <path d="M 47.720781 326.855625 
L 47.720781 21.935625 
" style="fill: none; stroke: #cccccc; stroke-width: 1.25; stroke-linejoin: miter; stroke-linecap: square"/>
   </g>
   <g id="patch_4">
    <path d="M 494.120781 326.855625 
L 494.120781 21.935625 
" style="fill: none; stroke: #cccccc; stroke-width: 1.25; stroke-linejoin: miter; stroke-linecap: square"/>
   </g>
   <g id="patch_5">
    <path d="M 47.720781 326.855625 
L 494.120781 326.855625 
" style="fill: none; stroke: #cccccc; stroke-width: 1.25; stroke-linejoin: miter; stroke-linecap: square"/>
   </g>
   <g id="patch_6">
    <path d="M 47.720781 21.935625 
L 494.120781 21.935625 
" style="fill: none; stroke: #cccccc; stroke-width: 1.25; stroke-linejoin: miter; stroke-linecap: square"/>
   </g>
   <g id="text_38">
    <!-- "Protein DNA twist" for dataset Mouse_non_tata -->
    <g style="fill: #262626" transform="translate(143.599844 15.935625) scale(0.12 -0.12)">
     <defs>
      <path id="ArialMT-22" d="M 450 2959 
L 294 3831 
L 294 4581 
L 934 4581 
L 934 3831 
L 794 2959 
L 450 2959 
z
M 1484 2959 
L 1331 3831 
L 1331 4581 
L 1972 4581 
L 1972 3831 
L 1822 2959 
L 1484 2959 
z
" transform="scale(0.015625)"/>
      <path id="ArialMT-66" d="M 556 0 
L 556 2881 
L 59 2881 
L 59 3319 
L 556 3319 
L 556 3672 
Q 556 4006 616 4169 
Q 697 4388 901 4523 
Q 1106 4659 1475 4659 
Q 1713 4659 2000 4603 
L 1916 4113 
Q 1741 4144 1584 4144 
Q 1328 4144 1222 4034 
Q 1116 3925 1116 3625 
L 1116 3319 
L 1763 3319 
L 1763 2881 
L 1116 2881 
L 1116 0 
L 556 0 
z
" transform="scale(0.015625)"/>
      <path id="ArialMT-64" d="M 2575 0 
L 2575 419 
Q 2259 -75 1647 -75 
Q 1250 -75 917 144 
Q 584 363 401 755 
Q 219 1147 219 1656 
Q 219 2153 384 2558 
Q 550 2963 881 3178 
Q 1213 3394 1622 3394 
Q 1922 3394 2156 3267 
Q 2391 3141 2538 2938 
L 2538 4581 
L 3097 4581 
L 3097 0 
L 2575 0 
z
M 797 1656 
Q 797 1019 1065 703 
Q 1334 388 1700 388 
Q 2069 388 2326 689 
Q 2584 991 2584 1609 
Q 2584 2291 2321 2609 
Q 2059 2928 1675 2928 
Q 1300 2928 1048 2622 
Q 797 2316 797 1656 
z
" transform="scale(0.015625)"/>
      <path id="ArialMT-61" d="M 2588 409 
Q 2275 144 1986 34 
Q 1697 -75 1366 -75 
Q 819 -75 525 192 
Q 231 459 231 875 
Q 231 1119 342 1320 
Q 453 1522 633 1644 
Q 813 1766 1038 1828 
Q 1203 1872 1538 1913 
Q 2219 1994 2541 2106 
Q 2544 2222 2544 2253 
Q 2544 2597 2384 2738 
Q 2169 2928 1744 2928 
Q 1347 2928 1158 2789 
Q 969 2650 878 2297 
L 328 2372 
Q 403 2725 575 2942 
Q 747 3159 1072 3276 
Q 1397 3394 1825 3394 
Q 2250 3394 2515 3294 
Q 2781 3194 2906 3042 
Q 3031 2891 3081 2659 
Q 3109 2516 3109 2141 
L 3109 1391 
Q 3109 606 3145 398 
Q 3181 191 3288 0 
L 2700 0 
Q 2613 175 2588 409 
z
M 2541 1666 
Q 2234 1541 1622 1453 
Q 1275 1403 1131 1340 
Q 988 1278 909 1158 
Q 831 1038 831 891 
Q 831 666 1001 516 
Q 1172 366 1500 366 
Q 1825 366 2078 508 
Q 2331 650 2450 897 
Q 2541 1088 2541 1459 
L 2541 1666 
z
" transform="scale(0.015625)"/>
      <path id="ArialMT-4d" d="M 475 0 
L 475 4581 
L 1388 4581 
L 2472 1338 
Q 2622 884 2691 659 
Q 2769 909 2934 1394 
L 4031 4581 
L 4847 4581 
L 4847 0 
L 4263 0 
L 4263 3834 
L 2931 0 
L 2384 0 
L 1059 3900 
L 1059 0 
L 475 0 
z
" transform="scale(0.015625)"/>
      <path id="ArialMT-75" d="M 2597 0 
L 2597 488 
Q 2209 -75 1544 -75 
Q 1250 -75 995 37 
Q 741 150 617 320 
Q 494 491 444 738 
Q 409 903 409 1263 
L 409 3319 
L 972 3319 
L 972 1478 
Q 972 1038 1006 884 
Q 1059 663 1231 536 
Q 1403 409 1656 409 
Q 1909 409 2131 539 
Q 2353 669 2445 892 
Q 2538 1116 2538 1541 
L 2538 3319 
L 3100 3319 
L 3100 0 
L 2597 0 
z
" transform="scale(0.015625)"/>
      <path id="ArialMT-5f" d="M -97 -1272 
L -97 -866 
L 3631 -866 
L 3631 -1272 
L -97 -1272 
z
" transform="scale(0.015625)"/>
     </defs>
     <use xlink:href="#ArialMT-22"/>
     <use xlink:href="#ArialMT-50" x="35.498047"/>
     <use xlink:href="#ArialMT-72" x="102.197266"/>
     <use xlink:href="#ArialMT-6f" x="135.498047"/>
     <use xlink:href="#ArialMT-74" x="191.113281"/>
     <use xlink:href="#ArialMT-65" x="218.896484"/>
     <use xlink:href="#ArialMT-69" x="274.511719"/>
     <use xlink:href="#ArialMT-6e" x="296.728516"/>
     <use xlink:href="#ArialMT-20" x="352.34375"/>
     <use xlink:href="#ArialMT-44" x="380.126953"/>
     <use xlink:href="#ArialMT-4e" x="452.34375"/>
     <use xlink:href="#ArialMT-41" x="524.560547"/>
     <use xlink:href="#ArialMT-20" x="585.759766"/>
     <use xlink:href="#ArialMT-74" x="613.542969"/>
     <use xlink:href="#ArialMT-77" x="641.326172"/>
     <use xlink:href="#ArialMT-69" x="713.542969"/>
     <use xlink:href="#ArialMT-73" x="735.759766"/>
     <use xlink:href="#ArialMT-74" x="785.759766"/>
     <use xlink:href="#ArialMT-22" x="813.542969"/>
     <use xlink:href="#ArialMT-20" x="849.041016"/>
     <use xlink:href="#ArialMT-66" x="876.824219"/>
     <use xlink:href="#ArialMT-6f" x="904.607422"/>
     <use xlink:href="#ArialMT-72" x="960.222656"/>
     <use xlink:href="#ArialMT-20" x="993.523438"/>
     <use xlink:href="#ArialMT-64" x="1021.306641"/>
     <use xlink:href="#ArialMT-61" x="1076.921875"/>
     <use xlink:href="#ArialMT-74" x="1132.537109"/>
     <use xlink:href="#ArialMT-61" x="1160.320312"/>
     <use xlink:href="#ArialMT-73" x="1215.935547"/>
     <use xlink:href="#ArialMT-65" x="1265.935547"/>
     <use xlink:href="#ArialMT-74" x="1321.550781"/>
     <use xlink:href="#ArialMT-20" x="1349.333984"/>
     <use xlink:href="#ArialMT-4d" x="1377.117188"/>
     <use xlink:href="#ArialMT-6f" x="1460.417969"/>
     <use xlink:href="#ArialMT-75" x="1516.033203"/>
     <use xlink:href="#ArialMT-73" x="1571.648438"/>
     <use xlink:href="#ArialMT-65" x="1621.648438"/>
     <use xlink:href="#ArialMT-5f" x="1677.263672"/>
     <use xlink:href="#ArialMT-6e" x="1732.878906"/>
     <use xlink:href="#ArialMT-6f" x="1788.494141"/>
     <use xlink:href="#ArialMT-6e" x="1844.109375"/>
     <use xlink:href="#ArialMT-5f" x="1899.724609"/>
     <use xlink:href="#ArialMT-74" x="1955.339844"/>
     <use xlink:href="#ArialMT-61" x="1983.123047"/>
     <use xlink:href="#ArialMT-74" x="2038.738281"/>
     <use xlink:href="#ArialMT-61" x="2066.521484"/>
    </g>
   </g>
   <g id="legend_1">
    <g id="line2d_38">
     <path d="M 56.720781 34.593437 
L 66.720781 34.593437 
L 76.720781 34.593437 
" style="fill: none; stroke: #0272a2; stroke-width: 1.75; stroke-linecap: round"/>
    </g>
    <g id="text_39">
     <!-- Promoter -->
     <g style="fill: #262626" transform="translate(84.720781 38.093437) scale(0.1 -0.1)">
      <defs>
       <path id="ArialMT-6d" d="M 422 0 
L 422 3319 
L 925 3319 
L 925 2853 
Q 1081 3097 1340 3245 
Q 1600 3394 1931 3394 
Q 2300 3394 2536 3241 
Q 2772 3088 2869 2813 
Q 3263 3394 3894 3394 
Q 4388 3394 4653 3120 
Q 4919 2847 4919 2278 
L 4919 0 
L 4359 0 
L 4359 2091 
Q 4359 2428 4304 2576 
Q 4250 2725 4106 2815 
Q 3963 2906 3769 2906 
Q 3419 2906 3187 2673 
Q 2956 2441 2956 1928 
L 2956 0 
L 2394 0 
L 2394 2156 
Q 2394 2531 2256 2718 
Q 2119 2906 1806 2906 
Q 1569 2906 1367 2781 
Q 1166 2656 1075 2415 
Q 984 2175 984 1722 
L 984 0 
L 422 0 
z
" transform="scale(0.015625)"/>
      </defs>
      <use xlink:href="#ArialMT-50"/>
      <use xlink:href="#ArialMT-72" x="66.699219"/>
      <use xlink:href="#ArialMT-6f" x="100"/>
      <use xlink:href="#ArialMT-6d" x="155.615234"/>
      <use xlink:href="#ArialMT-6f" x="238.916016"/>
      <use xlink:href="#ArialMT-74" x="294.53125"/>
      <use xlink:href="#ArialMT-65" x="322.314453"/>
      <use xlink:href="#ArialMT-72" x="377.929688"/>
     </g>
    </g>
    <g id="line2d_39">
     <path d="M 56.720781 48.73875 
L 66.720781 48.73875 
L 76.720781 48.73875 
" style="fill: none; stroke-dasharray: 1.75,2.8875; stroke-dashoffset: 0; stroke: #9fc377; stroke-width: 1.75"/>
    </g>
    <g id="text_40">
     <!-- Non-promoter -->
     <g style="fill: #262626" transform="translate(84.720781 52.23875) scale(0.1 -0.1)">
      <defs>
       <path id="ArialMT-70" d="M 422 -1272 
L 422 3319 
L 934 3319 
L 934 2888 
Q 1116 3141 1344 3267 
Q 1572 3394 1897 3394 
Q 2322 3394 2647 3175 
Q 2972 2956 3137 2557 
Q 3303 2159 3303 1684 
Q 3303 1175 3120 767 
Q 2938 359 2589 142 
Q 2241 -75 1856 -75 
Q 1575 -75 1351 44 
Q 1128 163 984 344 
L 984 -1272 
L 422 -1272 
z
M 931 1641 
Q 931 1000 1190 694 
Q 1450 388 1819 388 
Q 2194 388 2461 705 
Q 2728 1022 2728 1688 
Q 2728 2322 2467 2637 
Q 2206 2953 1844 2953 
Q 1484 2953 1207 2617 
Q 931 2281 931 1641 
z
" transform="scale(0.015625)"/>
      </defs>
      <use xlink:href="#ArialMT-4e"/>
      <use xlink:href="#ArialMT-6f" x="72.216797"/>
      <use xlink:href="#ArialMT-6e" x="127.832031"/>
      <use xlink:href="#ArialMT-2d" x="183.447266"/>
      <use xlink:href="#ArialMT-70" x="216.748047"/>
      <use xlink:href="#ArialMT-72" x="272.363281"/>
      <use xlink:href="#ArialMT-6f" x="305.664062"/>
      <use xlink:href="#ArialMT-6d" x="361.279297"/>
      <use xlink:href="#ArialMT-6f" x="444.580078"/>
      <use xlink:href="#ArialMT-74" x="500.195312"/>
      <use xlink:href="#ArialMT-65" x="527.978516"/>
      <use xlink:href="#ArialMT-72" x="583.59375"/>
     </g>
    </g>
   </g>
  </g>
 </g>
 <defs>
  <clipPath id="pc34260ffcd">
   <rect x="47.720781" y="21.935625" width="446.4" height="304.92"/>
  </clipPath>
 </defs>
</svg>
