<?xml version="1.0" encoding="utf-8" standalone="no"?>
<!DOCTYPE svg PUBLIC "-//W3C//DTD SVG 1.1//EN"
  "http://www.w3.org/Graphics/SVG/1.1/DTD/svg11.dtd">
<svg xmlns:xlink="http://www.w3.org/1999/xlink" width="492.981719pt" height="375.733156pt" viewBox="0 0 492.981719 375.733156" xmlns="http://www.w3.org/2000/svg" version="1.1">
 <metadata>
  <rdf:RDF xmlns:dc="http://purl.org/dc/elements/1.1/" xmlns:cc="http://creativecommons.org/ns#" xmlns:rdf="http://www.w3.org/1999/02/22-rdf-syntax-ns#">
   <cc:Work>
    <dc:type rdf:resource="http://purl.org/dc/dcmitype/StillImage"/>
    <dc:date>2023-05-11T16:25:48.288354</dc:date>
    <dc:format>image/svg+xml</dc:format>
    <dc:creator>
     <cc:Agent>
      <dc:title>Matplotlib v3.7.1, https://matplotlib.org/</dc:title>
     </cc:Agent>
    </dc:creator>
   </cc:Work>
  </rdf:RDF>
 </metadata>
 <defs>
  <style type="text/css">*{stroke-linejoin: round; stroke-linecap: butt}</style>
 </defs>
 <g id="figure_1">
  <g id="patch_1">
   <path d="M 0 375.733156 
L 492.981719 375.733156 
L 492.981719 0 
L 0 0 
z
" style="fill: #ffffff"/>
  </g>
  <g id="axes_1">
   <g id="patch_2">
    <path d="M 39.381719 326.855625 
L 485.781719 326.855625 
L 485.781719 21.935625 
L 39.381719 21.935625 
z
" style="fill: #ffffff"/>
   </g>
   <g id="matplotlib.axis_1">
    <g id="xtick_1">
     <g id="line2d_1"/>
     <g id="text_1">
      <!-- -200 -->
      <g style="fill: #262626" transform="translate(54.425122 353.067937) rotate(-45) scale(0.1 -0.1)">
       <defs>
        <path id="ArialMT-2d" d="M 203 1375 
L 203 1941 
L 1931 1941 
L 1931 1375 
L 203 1375 
z
" transform="scale(0.015625)"/>
        <path id="ArialMT-32" d="M 3222 541 
L 3222 0 
L 194 0 
Q 188 203 259 391 
Q 375 700 629 1000 
Q 884 1300 1366 1694 
Q 2113 2306 2375 2664 
Q 2638 3022 2638 3341 
Q 2638 3675 2398 3904 
Q 2159 4134 1775 4134 
Q 1369 4134 1125 3890 
Q 881 3647 878 3216 
L 300 3275 
Q 359 3922 746 4261 
Q 1134 4600 1788 4600 
Q 2447 4600 2831 4234 
Q 3216 3869 3216 3328 
Q 3216 3053 3103 2787 
Q 2991 2522 2730 2228 
Q 2469 1934 1863 1422 
Q 1356 997 1212 845 
Q 1069 694 975 541 
L 3222 541 
z
" transform="scale(0.015625)"/>
        <path id="ArialMT-30" d="M 266 2259 
Q 266 3072 433 3567 
Q 600 4063 929 4331 
Q 1259 4600 1759 4600 
Q 2128 4600 2406 4451 
Q 2684 4303 2865 4023 
Q 3047 3744 3150 3342 
Q 3253 2941 3253 2259 
Q 3253 1453 3087 958 
Q 2922 463 2592 192 
Q 2263 -78 1759 -78 
Q 1097 -78 719 397 
Q 266 969 266 2259 
z
M 844 2259 
Q 844 1131 1108 757 
Q 1372 384 1759 384 
Q 2147 384 2411 759 
Q 2675 1134 2675 2259 
Q 2675 3391 2411 3762 
Q 2147 4134 1753 4134 
Q 1366 4134 1134 3806 
Q 844 3388 844 2259 
z
" transform="scale(0.015625)"/>
       </defs>
       <use xlink:href="#ArialMT-2d"/>
       <use xlink:href="#ArialMT-32" x="33.300781"/>
       <use xlink:href="#ArialMT-30" x="88.916016"/>
       <use xlink:href="#ArialMT-30" x="144.53125"/>
      </g>
     </g>
    </g>
    <g id="xtick_2">
     <g id="line2d_2"/>
     <g id="text_2">
      <!-- -190 -->
      <g style="fill: #262626" transform="translate(70.723041 353.067937) rotate(-45) scale(0.1 -0.1)">
       <defs>
        <path id="ArialMT-31" d="M 2384 0 
L 1822 0 
L 1822 3584 
Q 1619 3391 1289 3197 
Q 959 3003 697 2906 
L 697 3450 
Q 1169 3672 1522 3987 
Q 1875 4303 2022 4600 
L 2384 4600 
L 2384 0 
z
" transform="scale(0.015625)"/>
        <path id="ArialMT-39" d="M 350 1059 
L 891 1109 
Q 959 728 1153 556 
Q 1347 384 1650 384 
Q 1909 384 2104 503 
Q 2300 622 2425 820 
Q 2550 1019 2634 1356 
Q 2719 1694 2719 2044 
Q 2719 2081 2716 2156 
Q 2547 1888 2255 1720 
Q 1963 1553 1622 1553 
Q 1053 1553 659 1965 
Q 266 2378 266 3053 
Q 266 3750 677 4175 
Q 1088 4600 1706 4600 
Q 2153 4600 2523 4359 
Q 2894 4119 3086 3673 
Q 3278 3228 3278 2384 
Q 3278 1506 3087 986 
Q 2897 466 2520 194 
Q 2144 -78 1638 -78 
Q 1100 -78 759 220 
Q 419 519 350 1059 
z
M 2653 3081 
Q 2653 3566 2395 3850 
Q 2138 4134 1775 4134 
Q 1400 4134 1122 3828 
Q 844 3522 844 3034 
Q 844 2597 1108 2323 
Q 1372 2050 1759 2050 
Q 2150 2050 2401 2323 
Q 2653 2597 2653 3081 
z
" transform="scale(0.015625)"/>
       </defs>
       <use xlink:href="#ArialMT-2d"/>
       <use xlink:href="#ArialMT-31" x="33.300781"/>
       <use xlink:href="#ArialMT-39" x="88.916016"/>
       <use xlink:href="#ArialMT-30" x="144.53125"/>
      </g>
     </g>
    </g>
    <g id="xtick_3">
     <g id="line2d_3"/>
     <g id="text_3">
      <!-- -180 -->
      <g style="fill: #262626" transform="translate(87.02096 353.067937) rotate(-45) scale(0.1 -0.1)">
       <defs>
        <path id="ArialMT-38" d="M 1131 2484 
Q 781 2613 612 2850 
Q 444 3088 444 3419 
Q 444 3919 803 4259 
Q 1163 4600 1759 4600 
Q 2359 4600 2725 4251 
Q 3091 3903 3091 3403 
Q 3091 3084 2923 2848 
Q 2756 2613 2416 2484 
Q 2838 2347 3058 2040 
Q 3278 1734 3278 1309 
Q 3278 722 2862 322 
Q 2447 -78 1769 -78 
Q 1091 -78 675 323 
Q 259 725 259 1325 
Q 259 1772 486 2073 
Q 713 2375 1131 2484 
z
M 1019 3438 
Q 1019 3113 1228 2906 
Q 1438 2700 1772 2700 
Q 2097 2700 2305 2904 
Q 2513 3109 2513 3406 
Q 2513 3716 2298 3927 
Q 2084 4138 1766 4138 
Q 1444 4138 1231 3931 
Q 1019 3725 1019 3438 
z
M 838 1322 
Q 838 1081 952 856 
Q 1066 631 1291 507 
Q 1516 384 1775 384 
Q 2178 384 2440 643 
Q 2703 903 2703 1303 
Q 2703 1709 2433 1975 
Q 2163 2241 1756 2241 
Q 1359 2241 1098 1978 
Q 838 1716 838 1322 
z
" transform="scale(0.015625)"/>
       </defs>
       <use xlink:href="#ArialMT-2d"/>
       <use xlink:href="#ArialMT-31" x="33.300781"/>
       <use xlink:href="#ArialMT-38" x="88.916016"/>
       <use xlink:href="#ArialMT-30" x="144.53125"/>
      </g>
     </g>
    </g>
    <g id="xtick_4">
     <g id="line2d_4"/>
     <g id="text_4">
      <!-- -170 -->
      <g style="fill: #262626" transform="translate(103.318879 353.067937) rotate(-45) scale(0.1 -0.1)">
       <defs>
        <path id="ArialMT-37" d="M 303 3981 
L 303 4522 
L 3269 4522 
L 3269 4084 
Q 2831 3619 2401 2847 
Q 1972 2075 1738 1259 
Q 1569 684 1522 0 
L 944 0 
Q 953 541 1156 1306 
Q 1359 2072 1739 2783 
Q 2119 3494 2547 3981 
L 303 3981 
z
" transform="scale(0.015625)"/>
       </defs>
       <use xlink:href="#ArialMT-2d"/>
       <use xlink:href="#ArialMT-31" x="33.300781"/>
       <use xlink:href="#ArialMT-37" x="88.916016"/>
       <use xlink:href="#ArialMT-30" x="144.53125"/>
      </g>
     </g>
    </g>
    <g id="xtick_5">
     <g id="line2d_5"/>
     <g id="text_5">
      <!-- -160 -->
      <g style="fill: #262626" transform="translate(119.616798 353.067937) rotate(-45) scale(0.1 -0.1)">
       <defs>
        <path id="ArialMT-36" d="M 3184 3459 
L 2625 3416 
Q 2550 3747 2413 3897 
Q 2184 4138 1850 4138 
Q 1581 4138 1378 3988 
Q 1113 3794 959 3422 
Q 806 3050 800 2363 
Q 1003 2672 1297 2822 
Q 1591 2972 1913 2972 
Q 2475 2972 2870 2558 
Q 3266 2144 3266 1488 
Q 3266 1056 3080 686 
Q 2894 316 2569 119 
Q 2244 -78 1831 -78 
Q 1128 -78 684 439 
Q 241 956 241 2144 
Q 241 3472 731 4075 
Q 1159 4600 1884 4600 
Q 2425 4600 2770 4297 
Q 3116 3994 3184 3459 
z
M 888 1484 
Q 888 1194 1011 928 
Q 1134 663 1356 523 
Q 1578 384 1822 384 
Q 2178 384 2434 671 
Q 2691 959 2691 1453 
Q 2691 1928 2437 2201 
Q 2184 2475 1800 2475 
Q 1419 2475 1153 2201 
Q 888 1928 888 1484 
z
" transform="scale(0.015625)"/>
       </defs>
       <use xlink:href="#ArialMT-2d"/>
       <use xlink:href="#ArialMT-31" x="33.300781"/>
       <use xlink:href="#ArialMT-36" x="88.916016"/>
       <use xlink:href="#ArialMT-30" x="144.53125"/>
      </g>
     </g>
    </g>
    <g id="xtick_6">
     <g id="line2d_6"/>
     <g id="text_6">
      <!-- -150 -->
      <g style="fill: #262626" transform="translate(135.914717 353.067937) rotate(-45) scale(0.1 -0.1)">
       <defs>
        <path id="ArialMT-35" d="M 266 1200 
L 856 1250 
Q 922 819 1161 601 
Q 1400 384 1738 384 
Q 2144 384 2425 690 
Q 2706 997 2706 1503 
Q 2706 1984 2436 2262 
Q 2166 2541 1728 2541 
Q 1456 2541 1237 2417 
Q 1019 2294 894 2097 
L 366 2166 
L 809 4519 
L 3088 4519 
L 3088 3981 
L 1259 3981 
L 1013 2750 
Q 1425 3038 1878 3038 
Q 2478 3038 2890 2622 
Q 3303 2206 3303 1553 
Q 3303 931 2941 478 
Q 2500 -78 1738 -78 
Q 1113 -78 717 272 
Q 322 622 266 1200 
z
" transform="scale(0.015625)"/>
       </defs>
       <use xlink:href="#ArialMT-2d"/>
       <use xlink:href="#ArialMT-31" x="33.300781"/>
       <use xlink:href="#ArialMT-35" x="88.916016"/>
       <use xlink:href="#ArialMT-30" x="144.53125"/>
      </g>
     </g>
    </g>
    <g id="xtick_7">
     <g id="line2d_7"/>
     <g id="text_7">
      <!-- -140 -->
      <g style="fill: #262626" transform="translate(152.212636 353.067937) rotate(-45) scale(0.1 -0.1)">
       <defs>
        <path id="ArialMT-34" d="M 2069 0 
L 2069 1097 
L 81 1097 
L 81 1613 
L 2172 4581 
L 2631 4581 
L 2631 1613 
L 3250 1613 
L 3250 1097 
L 2631 1097 
L 2631 0 
L 2069 0 
z
M 2069 1613 
L 2069 3678 
L 634 1613 
L 2069 1613 
z
" transform="scale(0.015625)"/>
       </defs>
       <use xlink:href="#ArialMT-2d"/>
       <use xlink:href="#ArialMT-31" x="33.300781"/>
       <use xlink:href="#ArialMT-34" x="88.916016"/>
       <use xlink:href="#ArialMT-30" x="144.53125"/>
      </g>
     </g>
    </g>
    <g id="xtick_8">
     <g id="line2d_8"/>
     <g id="text_8">
      <!-- -130 -->
      <g style="fill: #262626" transform="translate(168.510555 353.067937) rotate(-45) scale(0.1 -0.1)">
       <defs>
        <path id="ArialMT-33" d="M 269 1209 
L 831 1284 
Q 928 806 1161 595 
Q 1394 384 1728 384 
Q 2125 384 2398 659 
Q 2672 934 2672 1341 
Q 2672 1728 2419 1979 
Q 2166 2231 1775 2231 
Q 1616 2231 1378 2169 
L 1441 2663 
Q 1497 2656 1531 2656 
Q 1891 2656 2178 2843 
Q 2466 3031 2466 3422 
Q 2466 3731 2256 3934 
Q 2047 4138 1716 4138 
Q 1388 4138 1169 3931 
Q 950 3725 888 3313 
L 325 3413 
Q 428 3978 793 4289 
Q 1159 4600 1703 4600 
Q 2078 4600 2393 4439 
Q 2709 4278 2876 4000 
Q 3044 3722 3044 3409 
Q 3044 3113 2884 2869 
Q 2725 2625 2413 2481 
Q 2819 2388 3044 2092 
Q 3269 1797 3269 1353 
Q 3269 753 2831 336 
Q 2394 -81 1725 -81 
Q 1122 -81 723 278 
Q 325 638 269 1209 
z
" transform="scale(0.015625)"/>
       </defs>
       <use xlink:href="#ArialMT-2d"/>
       <use xlink:href="#ArialMT-31" x="33.300781"/>
       <use xlink:href="#ArialMT-33" x="88.916016"/>
       <use xlink:href="#ArialMT-30" x="144.53125"/>
      </g>
     </g>
    </g>
    <g id="xtick_9">
     <g id="line2d_9"/>
     <g id="text_9">
      <!-- -120 -->
      <g style="fill: #262626" transform="translate(184.808474 353.067937) rotate(-45) scale(0.1 -0.1)">
       <use xlink:href="#ArialMT-2d"/>
       <use xlink:href="#ArialMT-31" x="33.300781"/>
       <use xlink:href="#ArialMT-32" x="88.916016"/>
       <use xlink:href="#ArialMT-30" x="144.53125"/>
      </g>
     </g>
    </g>
    <g id="xtick_10">
     <g id="line2d_10"/>
     <g id="text_10">
      <!-- -110 -->
      <g style="fill: #262626" transform="translate(201.367138 352.546446) rotate(-45) scale(0.1 -0.1)">
       <use xlink:href="#ArialMT-2d"/>
       <use xlink:href="#ArialMT-31" x="33.300781"/>
       <use xlink:href="#ArialMT-31" x="81.541016"/>
       <use xlink:href="#ArialMT-30" x="137.15625"/>
      </g>
     </g>
    </g>
    <g id="xtick_11">
     <g id="line2d_11"/>
     <g id="text_11">
      <!-- -100 -->
      <g style="fill: #262626" transform="translate(217.404312 353.067937) rotate(-45) scale(0.1 -0.1)">
       <use xlink:href="#ArialMT-2d"/>
       <use xlink:href="#ArialMT-31" x="33.300781"/>
       <use xlink:href="#ArialMT-30" x="88.916016"/>
       <use xlink:href="#ArialMT-30" x="144.53125"/>
      </g>
     </g>
    </g>
    <g id="xtick_12">
     <g id="line2d_12"/>
     <g id="text_12">
      <!-- -90 -->
      <g style="fill: #262626" transform="translate(235.668319 349.135761) rotate(-45) scale(0.1 -0.1)">
       <use xlink:href="#ArialMT-2d"/>
       <use xlink:href="#ArialMT-39" x="33.300781"/>
       <use xlink:href="#ArialMT-30" x="88.916016"/>
      </g>
     </g>
    </g>
    <g id="xtick_13">
     <g id="line2d_13"/>
     <g id="text_13">
      <!-- -80 -->
      <g style="fill: #262626" transform="translate(251.966238 349.135761) rotate(-45) scale(0.1 -0.1)">
       <use xlink:href="#ArialMT-2d"/>
       <use xlink:href="#ArialMT-38" x="33.300781"/>
       <use xlink:href="#ArialMT-30" x="88.916016"/>
      </g>
     </g>
    </g>
    <g id="xtick_14">
     <g id="line2d_14"/>
     <g id="text_14">
      <!-- -70 -->
      <g style="fill: #262626" transform="translate(268.264157 349.135761) rotate(-45) scale(0.1 -0.1)">
       <use xlink:href="#ArialMT-2d"/>
       <use xlink:href="#ArialMT-37" x="33.300781"/>
       <use xlink:href="#ArialMT-30" x="88.916016"/>
      </g>
     </g>
    </g>
    <g id="xtick_15">
     <g id="line2d_15"/>
     <g id="text_15">
      <!-- -60 -->
      <g style="fill: #262626" transform="translate(284.562076 349.135761) rotate(-45) scale(0.1 -0.1)">
       <use xlink:href="#ArialMT-2d"/>
       <use xlink:href="#ArialMT-36" x="33.300781"/>
       <use xlink:href="#ArialMT-30" x="88.916016"/>
      </g>
     </g>
    </g>
    <g id="xtick_16">
     <g id="line2d_16"/>
     <g id="text_16">
      <!-- -50 -->
      <g style="fill: #262626" transform="translate(300.859995 349.135761) rotate(-45) scale(0.1 -0.1)">
       <use xlink:href="#ArialMT-2d"/>
       <use xlink:href="#ArialMT-35" x="33.300781"/>
       <use xlink:href="#ArialMT-30" x="88.916016"/>
      </g>
     </g>
    </g>
    <g id="xtick_17">
     <g id="line2d_17"/>
     <g id="text_17">
      <!-- -40 -->
      <g style="fill: #262626" transform="translate(317.157914 349.135761) rotate(-45) scale(0.1 -0.1)">
       <use xlink:href="#ArialMT-2d"/>
       <use xlink:href="#ArialMT-34" x="33.300781"/>
       <use xlink:href="#ArialMT-30" x="88.916016"/>
      </g>
     </g>
    </g>
    <g id="xtick_18">
     <g id="line2d_18"/>
     <g id="text_18">
      <!-- -30 -->
      <g style="fill: #262626" transform="translate(333.455833 349.135761) rotate(-45) scale(0.1 -0.1)">
       <use xlink:href="#ArialMT-2d"/>
       <use xlink:href="#ArialMT-33" x="33.300781"/>
       <use xlink:href="#ArialMT-30" x="88.916016"/>
      </g>
     </g>
    </g>
    <g id="xtick_19">
     <g id="line2d_19"/>
     <g id="text_19">
      <!-- -20 -->
      <g style="fill: #262626" transform="translate(349.753752 349.135761) rotate(-45) scale(0.1 -0.1)">
       <use xlink:href="#ArialMT-2d"/>
       <use xlink:href="#ArialMT-32" x="33.300781"/>
       <use xlink:href="#ArialMT-30" x="88.916016"/>
      </g>
     </g>
    </g>
    <g id="xtick_20">
     <g id="line2d_20"/>
     <g id="text_20">
      <!-- -10 -->
      <g style="fill: #262626" transform="translate(366.05167 349.135761) rotate(-45) scale(0.1 -0.1)">
       <use xlink:href="#ArialMT-2d"/>
       <use xlink:href="#ArialMT-31" x="33.300781"/>
       <use xlink:href="#ArialMT-30" x="88.916016"/>
      </g>
     </g>
    </g>
    <g id="xtick_21">
     <g id="line2d_21"/>
     <g id="text_21">
      <!-- 0 -->
      <g style="fill: #262626" transform="translate(385.4929 342.849139) rotate(-45) scale(0.1 -0.1)">
       <use xlink:href="#ArialMT-30"/>
      </g>
     </g>
    </g>
    <g id="xtick_22">
     <g id="line2d_22"/>
     <g id="text_22">
      <!-- 10 -->
      <g style="fill: #262626" transform="translate(399.824731 346.781316) rotate(-45) scale(0.1 -0.1)">
       <use xlink:href="#ArialMT-31"/>
       <use xlink:href="#ArialMT-30" x="55.615234"/>
      </g>
     </g>
    </g>
    <g id="xtick_23">
     <g id="line2d_23"/>
     <g id="text_23">
      <!-- 20 -->
      <g style="fill: #262626" transform="translate(416.12265 346.781316) rotate(-45) scale(0.1 -0.1)">
       <use xlink:href="#ArialMT-32"/>
       <use xlink:href="#ArialMT-30" x="55.615234"/>
      </g>
     </g>
    </g>
    <g id="xtick_24">
     <g id="line2d_24"/>
     <g id="text_24">
      <!-- 30 -->
      <g style="fill: #262626" transform="translate(432.420569 346.781316) rotate(-45) scale(0.1 -0.1)">
       <use xlink:href="#ArialMT-33"/>
       <use xlink:href="#ArialMT-30" x="55.615234"/>
      </g>
     </g>
    </g>
    <g id="xtick_25">
     <g id="line2d_25"/>
     <g id="text_25">
      <!-- 40 -->
      <g style="fill: #262626" transform="translate(448.718488 346.781316) rotate(-45) scale(0.1 -0.1)">
       <use xlink:href="#ArialMT-34"/>
       <use xlink:href="#ArialMT-30" x="55.615234"/>
      </g>
     </g>
    </g>
    <g id="xtick_26">
     <g id="line2d_26"/>
     <g id="text_26">
      <!-- 50 -->
      <g style="fill: #262626" transform="translate(465.016406 346.781316) rotate(-45) scale(0.1 -0.1)">
       <use xlink:href="#ArialMT-35"/>
       <use xlink:href="#ArialMT-30" x="55.615234"/>
      </g>
     </g>
    </g>
    <g id="text_27">
     <!-- Position -->
     <g style="fill: #262626" transform="translate(243.015469 366.346906) scale(0.11 -0.11)">
      <defs>
       <path id="ArialMT-50" d="M 494 0 
L 494 4581 
L 2222 4581 
Q 2678 4581 2919 4538 
Q 3256 4481 3484 4323 
Q 3713 4166 3852 3881 
Q 3991 3597 3991 3256 
Q 3991 2672 3619 2267 
Q 3247 1863 2275 1863 
L 1100 1863 
L 1100 0 
L 494 0 
z
M 1100 2403 
L 2284 2403 
Q 2872 2403 3119 2622 
Q 3366 2841 3366 3238 
Q 3366 3525 3220 3729 
Q 3075 3934 2838 4000 
Q 2684 4041 2272 4041 
L 1100 4041 
L 1100 2403 
z
" transform="scale(0.015625)"/>
       <path id="ArialMT-6f" d="M 213 1659 
Q 213 2581 725 3025 
Q 1153 3394 1769 3394 
Q 2453 3394 2887 2945 
Q 3322 2497 3322 1706 
Q 3322 1066 3130 698 
Q 2938 331 2570 128 
Q 2203 -75 1769 -75 
Q 1072 -75 642 372 
Q 213 819 213 1659 
z
M 791 1659 
Q 791 1022 1069 705 
Q 1347 388 1769 388 
Q 2188 388 2466 706 
Q 2744 1025 2744 1678 
Q 2744 2294 2464 2611 
Q 2184 2928 1769 2928 
Q 1347 2928 1069 2612 
Q 791 2297 791 1659 
z
" transform="scale(0.015625)"/>
       <path id="ArialMT-73" d="M 197 991 
L 753 1078 
Q 800 744 1014 566 
Q 1228 388 1613 388 
Q 2000 388 2187 545 
Q 2375 703 2375 916 
Q 2375 1106 2209 1216 
Q 2094 1291 1634 1406 
Q 1016 1563 777 1677 
Q 538 1791 414 1992 
Q 291 2194 291 2438 
Q 291 2659 392 2848 
Q 494 3038 669 3163 
Q 800 3259 1026 3326 
Q 1253 3394 1513 3394 
Q 1903 3394 2198 3281 
Q 2494 3169 2634 2976 
Q 2775 2784 2828 2463 
L 2278 2388 
Q 2241 2644 2061 2787 
Q 1881 2931 1553 2931 
Q 1166 2931 1000 2803 
Q 834 2675 834 2503 
Q 834 2394 903 2306 
Q 972 2216 1119 2156 
Q 1203 2125 1616 2013 
Q 2213 1853 2448 1751 
Q 2684 1650 2818 1456 
Q 2953 1263 2953 975 
Q 2953 694 2789 445 
Q 2625 197 2315 61 
Q 2006 -75 1616 -75 
Q 969 -75 630 194 
Q 291 463 197 991 
z
" transform="scale(0.015625)"/>
       <path id="ArialMT-69" d="M 425 3934 
L 425 4581 
L 988 4581 
L 988 3934 
L 425 3934 
z
M 425 0 
L 425 3319 
L 988 3319 
L 988 0 
L 425 0 
z
" transform="scale(0.015625)"/>
       <path id="ArialMT-74" d="M 1650 503 
L 1731 6 
Q 1494 -44 1306 -44 
Q 1000 -44 831 53 
Q 663 150 594 308 
Q 525 466 525 972 
L 525 2881 
L 113 2881 
L 113 3319 
L 525 3319 
L 525 4141 
L 1084 4478 
L 1084 3319 
L 1650 3319 
L 1650 2881 
L 1084 2881 
L 1084 941 
Q 1084 700 1114 631 
Q 1144 563 1211 522 
Q 1278 481 1403 481 
Q 1497 481 1650 503 
z
" transform="scale(0.015625)"/>
       <path id="ArialMT-6e" d="M 422 0 
L 422 3319 
L 928 3319 
L 928 2847 
Q 1294 3394 1984 3394 
Q 2284 3394 2536 3286 
Q 2788 3178 2913 3003 
Q 3038 2828 3088 2588 
Q 3119 2431 3119 2041 
L 3119 0 
L 2556 0 
L 2556 2019 
Q 2556 2363 2490 2533 
Q 2425 2703 2258 2804 
Q 2091 2906 1866 2906 
Q 1506 2906 1245 2678 
Q 984 2450 984 1813 
L 984 0 
L 422 0 
z
" transform="scale(0.015625)"/>
      </defs>
      <use xlink:href="#ArialMT-50"/>
      <use xlink:href="#ArialMT-6f" x="66.699219"/>
      <use xlink:href="#ArialMT-73" x="122.314453"/>
      <use xlink:href="#ArialMT-69" x="172.314453"/>
      <use xlink:href="#ArialMT-74" x="194.53125"/>
      <use xlink:href="#ArialMT-69" x="222.314453"/>
      <use xlink:href="#ArialMT-6f" x="244.53125"/>
      <use xlink:href="#ArialMT-6e" x="300.146484"/>
     </g>
    </g>
   </g>
   <g id="matplotlib.axis_2">
    <g id="ytick_1">
     <g id="line2d_27"/>
     <g id="text_28">
      <!-- 10 -->
      <g style="fill: #262626" transform="translate(21.259844 306.14819) scale(0.1 -0.1)">
       <use xlink:href="#ArialMT-31"/>
       <use xlink:href="#ArialMT-30" x="55.615234"/>
      </g>
     </g>
    </g>
    <g id="ytick_2">
     <g id="line2d_28"/>
     <g id="text_29">
      <!-- 11 -->
      <g style="fill: #262626" transform="translate(21.997344 271.432097) scale(0.1 -0.1)">
       <use xlink:href="#ArialMT-31"/>
       <use xlink:href="#ArialMT-31" x="48.240234"/>
      </g>
     </g>
    </g>
    <g id="ytick_3">
     <g id="line2d_29"/>
     <g id="text_30">
      <!-- 12 -->
      <g style="fill: #262626" transform="translate(21.259844 236.716003) scale(0.1 -0.1)">
       <use xlink:href="#ArialMT-31"/>
       <use xlink:href="#ArialMT-32" x="55.615234"/>
      </g>
     </g>
    </g>
    <g id="ytick_4">
     <g id="line2d_30"/>
     <g id="text_31">
      <!-- 13 -->
      <g style="fill: #262626" transform="translate(21.259844 201.99991) scale(0.1 -0.1)">
       <use xlink:href="#ArialMT-31"/>
       <use xlink:href="#ArialMT-33" x="55.615234"/>
      </g>
     </g>
    </g>
    <g id="ytick_5">
     <g id="line2d_31"/>
     <g id="text_32">
      <!-- 14 -->
      <g style="fill: #262626" transform="translate(21.259844 167.283817) scale(0.1 -0.1)">
       <use xlink:href="#ArialMT-31"/>
       <use xlink:href="#ArialMT-34" x="55.615234"/>
      </g>
     </g>
    </g>
    <g id="ytick_6">
     <g id="line2d_32"/>
     <g id="text_33">
      <!-- 15 -->
      <g style="fill: #262626" transform="translate(21.259844 132.567723) scale(0.1 -0.1)">
       <use xlink:href="#ArialMT-31"/>
       <use xlink:href="#ArialMT-35" x="55.615234"/>
      </g>
     </g>
    </g>
    <g id="ytick_7">
     <g id="line2d_33"/>
     <g id="text_34">
      <!-- 16 -->
      <g style="fill: #262626" transform="translate(21.259844 97.85163) scale(0.1 -0.1)">
       <use xlink:href="#ArialMT-31"/>
       <use xlink:href="#ArialMT-36" x="55.615234"/>
      </g>
     </g>
    </g>
    <g id="ytick_8">
     <g id="line2d_34"/>
     <g id="text_35">
      <!-- 17 -->
      <g style="fill: #262626" transform="translate(21.259844 63.135536) scale(0.1 -0.1)">
       <use xlink:href="#ArialMT-31"/>
       <use xlink:href="#ArialMT-37" x="55.615234"/>
      </g>
     </g>
    </g>
    <g id="ytick_9">
     <g id="line2d_35"/>
     <g id="text_36">
      <!-- 18 -->
      <g style="fill: #262626" transform="translate(21.259844 28.419443) scale(0.1 -0.1)">
       <use xlink:href="#ArialMT-31"/>
       <use xlink:href="#ArialMT-38" x="55.615234"/>
      </g>
     </g>
    </g>
    <g id="text_37">
     <!-- Lisser_BZ_transition -->
     <g style="fill: #262626" transform="translate(15.073594 224.526406) rotate(-90) scale(0.11 -0.11)">
      <defs>
       <path id="ArialMT-4c" d="M 469 0 
L 469 4581 
L 1075 4581 
L 1075 541 
L 3331 541 
L 3331 0 
L 469 0 
z
" transform="scale(0.015625)"/>
       <path id="ArialMT-65" d="M 2694 1069 
L 3275 997 
Q 3138 488 2766 206 
Q 2394 -75 1816 -75 
Q 1088 -75 661 373 
Q 234 822 234 1631 
Q 234 2469 665 2931 
Q 1097 3394 1784 3394 
Q 2450 3394 2872 2941 
Q 3294 2488 3294 1666 
Q 3294 1616 3291 1516 
L 816 1516 
Q 847 969 1125 678 
Q 1403 388 1819 388 
Q 2128 388 2347 550 
Q 2566 713 2694 1069 
z
M 847 1978 
L 2700 1978 
Q 2663 2397 2488 2606 
Q 2219 2931 1791 2931 
Q 1403 2931 1139 2672 
Q 875 2413 847 1978 
z
" transform="scale(0.015625)"/>
       <path id="ArialMT-72" d="M 416 0 
L 416 3319 
L 922 3319 
L 922 2816 
Q 1116 3169 1280 3281 
Q 1444 3394 1641 3394 
Q 1925 3394 2219 3213 
L 2025 2691 
Q 1819 2813 1613 2813 
Q 1428 2813 1281 2702 
Q 1134 2591 1072 2394 
Q 978 2094 978 1738 
L 978 0 
L 416 0 
z
" transform="scale(0.015625)"/>
       <path id="ArialMT-5f" d="M -97 -1272 
L -97 -866 
L 3631 -866 
L 3631 -1272 
L -97 -1272 
z
" transform="scale(0.015625)"/>
       <path id="ArialMT-42" d="M 469 0 
L 469 4581 
L 2188 4581 
Q 2713 4581 3030 4442 
Q 3347 4303 3526 4014 
Q 3706 3725 3706 3409 
Q 3706 3116 3547 2856 
Q 3388 2597 3066 2438 
Q 3481 2316 3704 2022 
Q 3928 1728 3928 1328 
Q 3928 1006 3792 729 
Q 3656 453 3456 303 
Q 3256 153 2954 76 
Q 2653 0 2216 0 
L 469 0 
z
M 1075 2656 
L 2066 2656 
Q 2469 2656 2644 2709 
Q 2875 2778 2992 2937 
Q 3109 3097 3109 3338 
Q 3109 3566 3000 3739 
Q 2891 3913 2687 3977 
Q 2484 4041 1991 4041 
L 1075 4041 
L 1075 2656 
z
M 1075 541 
L 2216 541 
Q 2509 541 2628 563 
Q 2838 600 2978 687 
Q 3119 775 3209 942 
Q 3300 1109 3300 1328 
Q 3300 1584 3169 1773 
Q 3038 1963 2805 2039 
Q 2572 2116 2134 2116 
L 1075 2116 
L 1075 541 
z
" transform="scale(0.015625)"/>
       <path id="ArialMT-5a" d="M 128 0 
L 128 563 
L 2475 3497 
Q 2725 3809 2950 4041 
L 394 4041 
L 394 4581 
L 3675 4581 
L 3675 4041 
L 1103 863 
L 825 541 
L 3750 541 
L 3750 0 
L 128 0 
z
" transform="scale(0.015625)"/>
       <path id="ArialMT-61" d="M 2588 409 
Q 2275 144 1986 34 
Q 1697 -75 1366 -75 
Q 819 -75 525 192 
Q 231 459 231 875 
Q 231 1119 342 1320 
Q 453 1522 633 1644 
Q 813 1766 1038 1828 
Q 1203 1872 1538 1913 
Q 2219 1994 2541 2106 
Q 2544 2222 2544 2253 
Q 2544 2597 2384 2738 
Q 2169 2928 1744 2928 
Q 1347 2928 1158 2789 
Q 969 2650 878 2297 
L 328 2372 
Q 403 2725 575 2942 
Q 747 3159 1072 3276 
Q 1397 3394 1825 3394 
Q 2250 3394 2515 3294 
Q 2781 3194 2906 3042 
Q 3031 2891 3081 2659 
Q 3109 2516 3109 2141 
L 3109 1391 
Q 3109 606 3145 398 
Q 3181 191 3288 0 
L 2700 0 
Q 2613 175 2588 409 
z
M 2541 1666 
Q 2234 1541 1622 1453 
Q 1275 1403 1131 1340 
Q 988 1278 909 1158 
Q 831 1038 831 891 
Q 831 666 1001 516 
Q 1172 366 1500 366 
Q 1825 366 2078 508 
Q 2331 650 2450 897 
Q 2541 1088 2541 1459 
L 2541 1666 
z
" transform="scale(0.015625)"/>
      </defs>
      <use xlink:href="#ArialMT-4c"/>
      <use xlink:href="#ArialMT-69" x="55.615234"/>
      <use xlink:href="#ArialMT-73" x="77.832031"/>
      <use xlink:href="#ArialMT-73" x="127.832031"/>
      <use xlink:href="#ArialMT-65" x="177.832031"/>
      <use xlink:href="#ArialMT-72" x="233.447266"/>
      <use xlink:href="#ArialMT-5f" x="266.748047"/>
      <use xlink:href="#ArialMT-42" x="322.363281"/>
      <use xlink:href="#ArialMT-5a" x="389.0625"/>
      <use xlink:href="#ArialMT-5f" x="450.146484"/>
      <use xlink:href="#ArialMT-74" x="505.761719"/>
      <use xlink:href="#ArialMT-72" x="533.544922"/>
      <use xlink:href="#ArialMT-61" x="566.845703"/>
      <use xlink:href="#ArialMT-6e" x="622.460938"/>
      <use xlink:href="#ArialMT-73" x="678.076172"/>
      <use xlink:href="#ArialMT-69" x="728.076172"/>
      <use xlink:href="#ArialMT-74" x="750.292969"/>
      <use xlink:href="#ArialMT-69" x="778.076172"/>
      <use xlink:href="#ArialMT-6f" x="800.292969"/>
      <use xlink:href="#ArialMT-6e" x="855.908203"/>
     </g>
    </g>
   </g>
   <g id="line2d_36">
    <path d="M 59.672628 216.148747 
L 61.30242 216.711394 
L 62.932212 215.460096 
L 64.562004 219.593919 
L 66.191795 219.78495 
L 67.821587 216.477935 
L 69.451379 216.146189 
L 71.081171 216.051952 
L 72.710963 219.626753 
L 74.340755 218.05245 
L 75.970547 219.177104 
L 77.600339 218.040724 
L 79.230131 217.729445 
L 80.859922 218.075903 
L 82.489714 219.05238 
L 84.119506 218.841094 
L 85.749298 222.473246 
L 87.37909 218.802077 
L 89.008882 219.978753 
L 90.638674 220.019262 
L 92.268466 219.664703 
L 93.898258 218.71573 
L 95.52805 216.731435 
L 97.157841 221.648571 
L 98.787633 217.858861 
L 102.047217 221.596549 
L 103.677009 217.597259 
L 105.306801 222.696898 
L 106.936593 221.582691 
L 108.566385 222.319952 
L 110.196177 218.663281 
L 111.825968 223.354634 
L 113.45576 221.138586 
L 115.085552 220.611544 
L 116.715344 220.73435 
L 118.345136 223.362736 
L 119.974928 219.12828 
L 121.60472 222.371121 
L 123.234512 222.703294 
L 124.864304 220.811743 
L 126.494096 223.700878 
L 128.123887 219.855734 
L 129.753679 221.342623 
L 131.383471 219.78559 
L 133.013263 222.487744 
L 134.643055 222.604154 
L 136.272847 221.938316 
L 137.902639 220.935828 
L 139.532431 224.918489 
L 141.162223 221.553482 
L 142.792014 223.769956 
L 144.421806 222.730584 
L 146.051598 220.363587 
L 147.68139 223.846497 
L 149.311182 224.617231 
L 150.940974 223.950114 
L 152.570766 225.346817 
L 154.200558 222.776636 
L 155.83035 223.245899 
L 157.460142 221.542822 
L 159.089933 224.545594 
L 160.719725 226.314552 
L 162.349517 226.202833 
L 163.979309 225.201411 
L 165.609101 225.596906 
L 167.238893 226.411987 
L 168.868685 222.783672 
L 170.498477 225.171776 
L 172.128269 225.867249 
L 173.75806 225.565565 
L 175.387852 224.709335 
L 177.017644 228.492863 
L 178.647436 224.854528 
L 180.277228 227.111084 
L 181.90702 225.719072 
L 183.536812 227.179949 
L 185.166604 228.011234 
L 186.796396 226.132262 
L 188.426188 228.56386 
L 190.055979 226.165309 
L 191.685771 224.514893 
L 193.315563 229.205819 
L 194.945355 226.591292 
L 196.575147 229.057002 
L 198.204939 228.860001 
L 199.834731 224.463297 
L 201.464523 228.39351 
L 203.094315 228.718646 
L 204.724106 225.429753 
L 206.353898 229.394292 
L 207.98369 228.329548 
L 209.613482 228.881322 
L 211.243274 230.846641 
L 212.873066 230.351793 
L 214.502858 228.951039 
L 216.13265 228.935049 
L 217.762442 227.903139 
L 219.392234 231.226358 
L 221.022025 230.447096 
L 222.651817 228.051743 
L 224.281609 232.10071 
L 225.911401 225.948054 
L 227.541193 231.722911 
L 229.170985 228.075835 
L 230.800777 231.952533 
L 232.430569 233.67885 
L 234.060361 228.550002 
L 235.690152 231.261537 
L 237.319944 233.063115 
L 238.949736 229.457187 
L 240.579528 231.232328 
L 242.20932 232.436507 
L 243.839112 233.411491 
L 245.468904 232.434162 
L 247.098696 233.442193 
L 248.728488 229.558033 
L 250.35828 235.070649 
L 251.988071 232.133543 
L 255.247655 233.091471 
L 256.877447 234.34554 
L 258.507239 232.90641 
L 260.137031 234.099929 
L 261.766823 233.950472 
L 263.396615 237.067736 
L 265.026407 234.863414 
L 266.656198 236.184429 
L 268.28599 231.739968 
L 269.915782 236.64218 
L 271.545574 234.976413 
L 273.175366 234.575588 
L 274.805158 233.370769 
L 276.43495 237.164317 
L 278.064742 234.948056 
L 279.694534 235.420304 
L 281.324326 236.265021 
L 282.954117 234.4999 
L 284.583909 238.952464 
L 286.213701 233.551993 
L 287.843493 235.53778 
L 289.473285 237.768326 
L 291.103077 234.45662 
L 292.732869 236.954951 
L 294.362661 236.147758 
L 295.992453 237.061766 
L 297.622244 241.435017 
L 300.881828 235.523495 
L 302.51162 236.840247 
L 304.141412 236.774153 
L 305.771204 237.520582 
L 307.400996 239.174623 
L 309.030788 243.949552 
L 310.66058 243.939744 
L 312.290372 241.26488 
L 313.920163 244.8303 
L 315.549955 240.376883 
L 317.179747 242.740042 
L 318.809539 243.422084 
L 320.439331 241.414763 
L 322.069123 239.068874 
L 323.698915 239.717442 
L 325.328707 231.510347 
L 326.958499 236.508287 
L 328.58829 237.707776 
L 330.218082 239.55498 
L 331.847874 244.811964 
L 333.477666 241.04528 
L 335.107458 231.897526 
L 336.73725 230.556043 
L 338.367042 227.942795 
L 339.996834 218.761782 
L 341.626626 213.079241 
L 344.886209 228.387113 
L 346.516001 240.558107 
L 348.145793 243.21357 
L 349.775585 242.314273 
L 351.405377 243.226575 
L 353.035169 242.764987 
L 354.664961 243.968314 
L 356.294753 244.025452 
L 359.554336 234.151737 
L 361.184128 237.051106 
L 362.81392 243.815659 
L 364.443712 249.374114 
L 367.703296 236.717441 
L 369.333088 235.387045 
L 370.96288 235.164033 
L 372.592672 240.503314 
L 374.222464 235.844795 
L 375.852255 240.808622 
L 377.482047 242.241997 
L 379.111839 223.958216 
L 380.741631 260.909759 
L 382.371423 312.995625 
L 384.001215 35.795625 
L 385.631007 285.263686 
L 387.260799 238.119687 
L 388.890591 216.249166 
L 390.520382 230.298492 
L 392.150174 226.910246 
L 393.779966 218.052024 
L 395.409758 233.564146 
L 397.03955 244.844797 
L 398.669342 235.520937 
L 400.299134 232.184712 
L 401.928926 226.868458 
L 403.558718 229.235028 
L 405.18851 250.010317 
L 406.818301 247.454847 
L 408.448093 243.463658 
L 410.077885 237.990272 
L 411.707677 234.598188 
L 413.337469 234.748071 
L 414.967261 239.328983 
L 416.597053 233.256492 
L 418.226845 234.958503 
L 419.856637 233.635569 
L 421.486428 233.761786 
L 423.11622 236.449869 
L 424.746012 242.89227 
L 426.375804 237.717157 
L 428.005596 227.26715 
L 429.635388 243.888788 
L 431.26518 244.445039 
L 432.894972 244.533945 
L 434.524764 242.953673 
L 436.154556 241.764845 
L 437.784347 239.011735 
L 439.414139 235.94628 
L 441.043931 233.873292 
L 442.673723 230.714241 
L 444.303515 234.476022 
L 445.933307 232.794904 
L 447.563099 233.864551 
L 449.192891 236.116204 
L 450.822683 232.441837 
L 452.452475 238.391523 
L 454.082266 238.245691 
L 455.712058 242.022822 
L 457.34185 240.545102 
L 458.971642 239.314059 
L 460.601434 241.690436 
L 462.231226 236.119189 
L 463.861018 235.826672 
L 465.49081 236.07335 
L 465.49081 236.07335 
" clip-path="url(#pf4bac03d04)" style="fill: none; stroke: #0272a2; stroke-width: 1.75; stroke-linecap: round"/>
   </g>
   <g id="line2d_37">
    <path d="M 59.672628 192.674009 
L 61.30242 191.806456 
L 62.932212 193.070653 
L 64.562004 190.667575 
L 66.191795 193.297925 
L 67.821587 191.019044 
L 69.451379 190.074708 
L 71.081171 194.204359 
L 72.710963 192.727296 
L 74.340755 192.658764 
L 75.970547 190.85219 
L 77.600339 191.677925 
L 79.230131 193.056387 
L 80.859922 192.755128 
L 82.489714 192.896806 
L 84.119506 191.071911 
L 85.749298 190.43219 
L 87.37909 194.614569 
L 89.008882 192.00254 
L 90.638674 190.539044 
L 92.268466 192.13275 
L 93.898258 194.402261 
L 95.52805 188.806176 
L 97.157841 191.859883 
L 98.787633 193.36366 
L 100.417425 192.709953 
L 102.047217 192.740163 
L 105.306801 191.586876 
L 106.936593 192.255128 
L 108.566385 192.040582 
L 110.196177 191.427296 
L 111.825968 192.220722 
L 113.45576 192.738485 
L 116.715344 192.296946 
L 118.345136 193.639884 
L 119.974928 191.506736 
L 121.60472 192.356806 
L 123.234512 192.765058 
L 124.864304 191.341002 
L 126.494096 192.854848 
L 129.753679 192.646876 
L 131.383471 190.809114 
L 133.013263 191.727016 
L 134.643055 192.0631 
L 136.272847 194.865618 
L 139.532431 191.509673 
L 141.162223 189.779463 
L 142.792014 192.307575 
L 144.421806 193.686877 
L 146.051598 192.190652 
L 147.68139 192.599464 
L 149.311182 192.343799 
L 150.940974 193.217366 
L 152.570766 190.597645 
L 154.200558 190.770512 
L 155.83035 194.454149 
L 159.089933 192.515687 
L 160.719725 191.184918 
L 162.349517 193.004499 
L 163.979309 190.988274 
L 165.609101 190.156386 
L 167.238893 194.276527 
L 168.868685 193.402681 
L 170.498477 193.144219 
L 172.128269 193.00352 
L 173.75806 193.048974 
L 175.387852 190.594009 
L 177.017644 190.941701 
L 178.647436 193.01289 
L 181.90702 193.560723 
L 183.536812 190.690652 
L 185.166604 194.020723 
L 186.796396 191.605617 
L 188.426188 191.134009 
L 190.055979 191.786736 
L 191.685771 194.259045 
L 193.315563 189.520162 
L 194.945355 191.707575 
L 196.575147 190.30254 
L 198.204939 195.056108 
L 199.834731 191.018204 
L 201.464523 191.345897 
L 203.094315 193.324499 
L 204.724106 192.532331 
L 206.353898 193.135688 
L 207.98369 189.61219 
L 209.613482 192.094568 
L 211.243274 192.048415 
L 212.873066 193.354429 
L 214.502858 190.724079 
L 216.13265 192.316387 
L 219.392234 192.328974 
L 221.022025 192.54282 
L 222.651817 191.930512 
L 224.281609 193.1031 
L 225.911401 188.483938 
L 227.541193 191.32254 
L 229.170985 193.264359 
L 230.800777 194.161562 
L 232.430569 191.440303 
L 234.060361 191.630093 
L 235.690152 193.60296 
L 237.319944 192.844359 
L 238.949736 191.332191 
L 240.579528 191.891072 
L 242.20932 189.494148 
L 243.839112 195.308415 
L 245.468904 191.800582 
L 247.098696 191.798345 
L 248.728488 191.195687 
L 251.988071 192.558624 
L 253.617863 192.149114 
L 255.247655 193.069114 
L 256.877447 192.277366 
L 258.507239 192.997226 
L 260.137031 193.576107 
L 261.766823 191.757785 
L 263.396615 190.734708 
L 265.026407 191.297365 
L 266.656198 193.61303 
L 268.28599 191.356247 
L 269.915782 192.417785 
L 271.545574 192.478764 
L 273.175366 191.445757 
L 274.805158 191.716247 
L 276.43495 191.264219 
L 278.064742 193.532331 
L 279.694534 190.327155 
L 281.324326 193.966037 
L 282.954117 191.568974 
L 284.583909 192.150792 
L 287.843493 192.197226 
L 289.473285 192.34268 
L 291.103077 193.110233 
L 292.732869 191.488834 
L 294.362661 192.667855 
L 295.992453 191.578065 
L 297.622244 192.548974 
L 299.252036 189.256386 
L 300.881828 192.067296 
L 302.51162 191.736387 
L 304.141412 192.909674 
L 305.771204 191.187156 
L 307.400996 193.134848 
L 309.030788 192.749953 
L 310.66058 193.112191 
L 312.290372 192.68352 
L 313.920163 190.105337 
L 315.549955 192.4631 
L 317.179747 191.870932 
L 318.809539 190.887855 
L 320.439331 194.651632 
L 322.069123 189.87191 
L 323.698915 192.168694 
L 325.328707 192.875128 
L 326.958499 192.242401 
L 328.58829 193.089813 
L 330.218082 191.681561 
L 331.847874 191.245617 
L 333.477666 193.240583 
L 335.107458 191.735967 
L 336.73725 191.224358 
L 338.367042 194.549954 
L 339.996834 190.990232 
L 341.626626 190.716666 
L 343.256418 192.380443 
L 344.886209 190.639603 
L 346.516001 191.86254 
L 348.145793 194.519884 
L 349.775585 191.565617 
L 351.405377 193.960163 
L 353.035169 191.58296 
L 354.664961 193.141282 
L 356.294753 194.005898 
L 357.924545 189.694428 
L 359.554336 191.025897 
L 361.184128 192.838205 
L 362.81392 191.598205 
L 364.443712 191.488275 
L 366.073504 192.324778 
L 367.703296 192.99289 
L 369.333088 190.527995 
L 370.96288 191.860163 
L 372.592672 193.645478 
L 374.222464 190.689533 
L 375.852255 194.23373 
L 377.482047 191.383659 
L 379.111839 194.006597 
L 380.741631 191.942401 
L 384.001215 193.504219 
L 385.631007 191.459463 
L 387.260799 191.701002 
L 388.890591 190.2824 
L 390.520382 190.593589 
L 392.150174 194.998625 
L 393.779966 191.331491 
L 395.409758 189.723239 
L 397.03955 193.156387 
L 398.669342 193.375128 
L 400.299134 191.816107 
L 401.928926 191.921561 
L 403.558718 192.299044 
L 406.818301 191.454988 
L 408.448093 191.475407 
L 410.077885 193.308695 
L 411.707677 192.708135 
L 413.337469 192.401142 
L 414.967261 192.666736 
L 416.597053 191.838624 
L 418.226845 193.070373 
L 419.856637 192.374289 
L 421.486428 192.293869 
L 423.11622 193.849394 
L 424.746012 191.70282 
L 426.375804 191.871352 
L 428.005596 193.089953 
L 429.635388 190.903379 
L 431.26518 193.296807 
L 432.894972 192.769953 
L 434.524764 191.68324 
L 436.154556 191.464358 
L 437.784347 191.432051 
L 439.414139 191.777086 
L 441.043931 192.36352 
L 442.673723 193.218904 
L 445.933307 193.610653 
L 447.563099 192.185338 
L 449.192891 191.174708 
L 450.822683 191.450233 
L 452.452475 192.045478 
L 454.082266 193.081702 
L 455.712058 193.360023 
L 457.34185 193.186317 
L 458.971642 190.805337 
L 460.601434 193.271072 
L 462.231226 191.369813 
L 463.861018 191.951491 
L 465.49081 190.778484 
L 465.49081 190.778484 
" clip-path="url(#pf4bac03d04)" style="fill: none; stroke-dasharray: 1.75,2.8875; stroke-dashoffset: 0; stroke: #9fc377; stroke-width: 1.75"/>
   </g>
   <g id="patch_3">
    <path d="M 39.381719 326.855625 
L 39.381719 21.935625 
" style="fill: none; stroke: #cccccc; stroke-width: 1.25; stroke-linejoin: miter; stroke-linecap: square"/>
   </g>
   <g id="patch_4">
    <path d="M 485.781719 326.855625 
L 485.781719 21.935625 
" style="fill: none; stroke: #cccccc; stroke-width: 1.25; stroke-linejoin: miter; stroke-linecap: square"/>
   </g>
   <g id="patch_5">
    <path d="M 39.381719 326.855625 
L 485.781719 326.855625 
" style="fill: none; stroke: #cccccc; stroke-width: 1.25; stroke-linejoin: miter; stroke-linecap: square"/>
   </g>
   <g id="patch_6">
    <path d="M 39.381719 21.935625 
L 485.781719 21.935625 
" style="fill: none; stroke: #cccccc; stroke-width: 1.25; stroke-linejoin: miter; stroke-linecap: square"/>
   </g>
   <g id="text_38">
    <!-- "Lisser_BZ_transition" for dataset Mouse_non_tata -->
    <g style="fill: #262626" transform="translate(127.254531 15.935625) scale(0.12 -0.12)">
     <defs>
      <path id="ArialMT-22" d="M 450 2959 
L 294 3831 
L 294 4581 
L 934 4581 
L 934 3831 
L 794 2959 
L 450 2959 
z
M 1484 2959 
L 1331 3831 
L 1331 4581 
L 1972 4581 
L 1972 3831 
L 1822 2959 
L 1484 2959 
z
" transform="scale(0.015625)"/>
      <path id="ArialMT-20" transform="scale(0.015625)"/>
      <path id="ArialMT-66" d="M 556 0 
L 556 2881 
L 59 2881 
L 59 3319 
L 556 3319 
L 556 3672 
Q 556 4006 616 4169 
Q 697 4388 901 4523 
Q 1106 4659 1475 4659 
Q 1713 4659 2000 4603 
L 1916 4113 
Q 1741 4144 1584 4144 
Q 1328 4144 1222 4034 
Q 1116 3925 1116 3625 
L 1116 3319 
L 1763 3319 
L 1763 2881 
L 1116 2881 
L 1116 0 
L 556 0 
z
" transform="scale(0.015625)"/>
      <path id="ArialMT-64" d="M 2575 0 
L 2575 419 
Q 2259 -75 1647 -75 
Q 1250 -75 917 144 
Q 584 363 401 755 
Q 219 1147 219 1656 
Q 219 2153 384 2558 
Q 550 2963 881 3178 
Q 1213 3394 1622 3394 
Q 1922 3394 2156 3267 
Q 2391 3141 2538 2938 
L 2538 4581 
L 3097 4581 
L 3097 0 
L 2575 0 
z
M 797 1656 
Q 797 1019 1065 703 
Q 1334 388 1700 388 
Q 2069 388 2326 689 
Q 2584 991 2584 1609 
Q 2584 2291 2321 2609 
Q 2059 2928 1675 2928 
Q 1300 2928 1048 2622 
Q 797 2316 797 1656 
z
" transform="scale(0.015625)"/>
      <path id="ArialMT-4d" d="M 475 0 
L 475 4581 
L 1388 4581 
L 2472 1338 
Q 2622 884 2691 659 
Q 2769 909 2934 1394 
L 4031 4581 
L 4847 4581 
L 4847 0 
L 4263 0 
L 4263 3834 
L 2931 0 
L 2384 0 
L 1059 3900 
L 1059 0 
L 475 0 
z
" transform="scale(0.015625)"/>
      <path id="ArialMT-75" d="M 2597 0 
L 2597 488 
Q 2209 -75 1544 -75 
Q 1250 -75 995 37 
Q 741 150 617 320 
Q 494 491 444 738 
Q 409 903 409 1263 
L 409 3319 
L 972 3319 
L 972 1478 
Q 972 1038 1006 884 
Q 1059 663 1231 536 
Q 1403 409 1656 409 
Q 1909 409 2131 539 
Q 2353 669 2445 892 
Q 2538 1116 2538 1541 
L 2538 3319 
L 3100 3319 
L 3100 0 
L 2597 0 
z
" transform="scale(0.015625)"/>
     </defs>
     <use xlink:href="#ArialMT-22"/>
     <use xlink:href="#ArialMT-4c" x="35.498047"/>
     <use xlink:href="#ArialMT-69" x="91.113281"/>
     <use xlink:href="#ArialMT-73" x="113.330078"/>
     <use xlink:href="#ArialMT-73" x="163.330078"/>
     <use xlink:href="#ArialMT-65" x="213.330078"/>
     <use xlink:href="#ArialMT-72" x="268.945312"/>
     <use xlink:href="#ArialMT-5f" x="302.246094"/>
     <use xlink:href="#ArialMT-42" x="357.861328"/>
     <use xlink:href="#ArialMT-5a" x="424.560547"/>
     <use xlink:href="#ArialMT-5f" x="485.644531"/>
     <use xlink:href="#ArialMT-74" x="541.259766"/>
     <use xlink:href="#ArialMT-72" x="569.042969"/>
     <use xlink:href="#ArialMT-61" x="602.34375"/>
     <use xlink:href="#ArialMT-6e" x="657.958984"/>
     <use xlink:href="#ArialMT-73" x="713.574219"/>
     <use xlink:href="#ArialMT-69" x="763.574219"/>
     <use xlink:href="#ArialMT-74" x="785.791016"/>
     <use xlink:href="#ArialMT-69" x="813.574219"/>
     <use xlink:href="#ArialMT-6f" x="835.791016"/>
     <use xlink:href="#ArialMT-6e" x="891.40625"/>
     <use xlink:href="#ArialMT-22" x="947.021484"/>
     <use xlink:href="#ArialMT-20" x="982.519531"/>
     <use xlink:href="#ArialMT-66" x="1010.302734"/>
     <use xlink:href="#ArialMT-6f" x="1038.085938"/>
     <use xlink:href="#ArialMT-72" x="1093.701172"/>
     <use xlink:href="#ArialMT-20" x="1127.001953"/>
     <use xlink:href="#ArialMT-64" x="1154.785156"/>
     <use xlink:href="#ArialMT-61" x="1210.400391"/>
     <use xlink:href="#ArialMT-74" x="1266.015625"/>
     <use xlink:href="#ArialMT-61" x="1293.798828"/>
     <use xlink:href="#ArialMT-73" x="1349.414062"/>
     <use xlink:href="#ArialMT-65" x="1399.414062"/>
     <use xlink:href="#ArialMT-74" x="1455.029297"/>
     <use xlink:href="#ArialMT-20" x="1482.8125"/>
     <use xlink:href="#ArialMT-4d" x="1510.595703"/>
     <use xlink:href="#ArialMT-6f" x="1593.896484"/>
     <use xlink:href="#ArialMT-75" x="1649.511719"/>
     <use xlink:href="#ArialMT-73" x="1705.126953"/>
     <use xlink:href="#ArialMT-65" x="1755.126953"/>
     <use xlink:href="#ArialMT-5f" x="1810.742188"/>
     <use xlink:href="#ArialMT-6e" x="1866.357422"/>
     <use xlink:href="#ArialMT-6f" x="1921.972656"/>
     <use xlink:href="#ArialMT-6e" x="1977.587891"/>
     <use xlink:href="#ArialMT-5f" x="2033.203125"/>
     <use xlink:href="#ArialMT-74" x="2088.818359"/>
     <use xlink:href="#ArialMT-61" x="2116.601562"/>
     <use xlink:href="#ArialMT-74" x="2172.216797"/>
     <use xlink:href="#ArialMT-61" x="2200"/>
    </g>
   </g>
   <g id="legend_1">
    <g id="line2d_38">
     <path d="M 48.381719 34.593437 
L 58.381719 34.593437 
L 68.381719 34.593437 
" style="fill: none; stroke: #0272a2; stroke-width: 1.75; stroke-linecap: round"/>
    </g>
    <g id="text_39">
     <!-- Promoter -->
     <g style="fill: #262626" transform="translate(76.381719 38.093437) scale(0.1 -0.1)">
      <defs>
       <path id="ArialMT-6d" d="M 422 0 
L 422 3319 
L 925 3319 
L 925 2853 
Q 1081 3097 1340 3245 
Q 1600 3394 1931 3394 
Q 2300 3394 2536 3241 
Q 2772 3088 2869 2813 
Q 3263 3394 3894 3394 
Q 4388 3394 4653 3120 
Q 4919 2847 4919 2278 
L 4919 0 
L 4359 0 
L 4359 2091 
Q 4359 2428 4304 2576 
Q 4250 2725 4106 2815 
Q 3963 2906 3769 2906 
Q 3419 2906 3187 2673 
Q 2956 2441 2956 1928 
L 2956 0 
L 2394 0 
L 2394 2156 
Q 2394 2531 2256 2718 
Q 2119 2906 1806 2906 
Q 1569 2906 1367 2781 
Q 1166 2656 1075 2415 
Q 984 2175 984 1722 
L 984 0 
L 422 0 
z
" transform="scale(0.015625)"/>
      </defs>
      <use xlink:href="#ArialMT-50"/>
      <use xlink:href="#ArialMT-72" x="66.699219"/>
      <use xlink:href="#ArialMT-6f" x="100"/>
      <use xlink:href="#ArialMT-6d" x="155.615234"/>
      <use xlink:href="#ArialMT-6f" x="238.916016"/>
      <use xlink:href="#ArialMT-74" x="294.53125"/>
      <use xlink:href="#ArialMT-65" x="322.314453"/>
      <use xlink:href="#ArialMT-72" x="377.929688"/>
     </g>
    </g>
    <g id="line2d_39">
     <path d="M 48.381719 48.73875 
L 58.381719 48.73875 
L 68.381719 48.73875 
" style="fill: none; stroke-dasharray: 1.75,2.8875; stroke-dashoffset: 0; stroke: #9fc377; stroke-width: 1.75"/>
    </g>
    <g id="text_40">
     <!-- Non-promoter -->
     <g style="fill: #262626" transform="translate(76.381719 52.23875) scale(0.1 -0.1)">
      <defs>
       <path id="ArialMT-4e" d="M 488 0 
L 488 4581 
L 1109 4581 
L 3516 984 
L 3516 4581 
L 4097 4581 
L 4097 0 
L 3475 0 
L 1069 3600 
L 1069 0 
L 488 0 
z
" transform="scale(0.015625)"/>
       <path id="ArialMT-70" d="M 422 -1272 
L 422 3319 
L 934 3319 
L 934 2888 
Q 1116 3141 1344 3267 
Q 1572 3394 1897 3394 
Q 2322 3394 2647 3175 
Q 2972 2956 3137 2557 
Q 3303 2159 3303 1684 
Q 3303 1175 3120 767 
Q 2938 359 2589 142 
Q 2241 -75 1856 -75 
Q 1575 -75 1351 44 
Q 1128 163 984 344 
L 984 -1272 
L 422 -1272 
z
M 931 1641 
Q 931 1000 1190 694 
Q 1450 388 1819 388 
Q 2194 388 2461 705 
Q 2728 1022 2728 1688 
Q 2728 2322 2467 2637 
Q 2206 2953 1844 2953 
Q 1484 2953 1207 2617 
Q 931 2281 931 1641 
z
" transform="scale(0.015625)"/>
      </defs>
      <use xlink:href="#ArialMT-4e"/>
      <use xlink:href="#ArialMT-6f" x="72.216797"/>
      <use xlink:href="#ArialMT-6e" x="127.832031"/>
      <use xlink:href="#ArialMT-2d" x="183.447266"/>
      <use xlink:href="#ArialMT-70" x="216.748047"/>
      <use xlink:href="#ArialMT-72" x="272.363281"/>
      <use xlink:href="#ArialMT-6f" x="305.664062"/>
      <use xlink:href="#ArialMT-6d" x="361.279297"/>
      <use xlink:href="#ArialMT-6f" x="444.580078"/>
      <use xlink:href="#ArialMT-74" x="500.195312"/>
      <use xlink:href="#ArialMT-65" x="527.978516"/>
      <use xlink:href="#ArialMT-72" x="583.59375"/>
     </g>
    </g>
   </g>
  </g>
 </g>
 <defs>
  <clipPath id="pf4bac03d04">
   <rect x="39.381719" y="21.935625" width="446.4" height="304.92"/>
  </clipPath>
 </defs>
</svg>
