<?xml version="1.0" encoding="utf-8" standalone="no"?>
<!DOCTYPE svg PUBLIC "-//W3C//DTD SVG 1.1//EN"
  "http://www.w3.org/Graphics/SVG/1.1/DTD/svg11.dtd">
<svg xmlns:xlink="http://www.w3.org/1999/xlink" width="501.58375pt" height="375.733156pt" viewBox="0 0 501.58375 375.733156" xmlns="http://www.w3.org/2000/svg" version="1.1">
 <metadata>
  <rdf:RDF xmlns:dc="http://purl.org/dc/elements/1.1/" xmlns:cc="http://creativecommons.org/ns#" xmlns:rdf="http://www.w3.org/1999/02/22-rdf-syntax-ns#">
   <cc:Work>
    <dc:type rdf:resource="http://purl.org/dc/dcmitype/StillImage"/>
    <dc:date>2023-05-11T16:25:54.969392</dc:date>
    <dc:format>image/svg+xml</dc:format>
    <dc:creator>
     <cc:Agent>
      <dc:title>Matplotlib v3.7.1, https://matplotlib.org/</dc:title>
     </cc:Agent>
    </dc:creator>
   </cc:Work>
  </rdf:RDF>
 </metadata>
 <defs>
  <style type="text/css">*{stroke-linejoin: round; stroke-linecap: butt}</style>
 </defs>
 <g id="figure_1">
  <g id="patch_1">
   <path d="M 0 375.733156 
L 501.58375 375.733156 
L 501.58375 0 
L 0 0 
z
" style="fill: #ffffff"/>
  </g>
  <g id="axes_1">
   <g id="patch_2">
    <path d="M 47.98375 326.855625 
L 494.38375 326.855625 
L 494.38375 21.935625 
L 47.98375 21.935625 
z
" style="fill: #ffffff"/>
   </g>
   <g id="matplotlib.axis_1">
    <g id="xtick_1">
     <g id="line2d_1"/>
     <g id="text_1">
      <!-- -200 -->
      <g style="fill: #262626" transform="translate(63.027153 353.067937) rotate(-45) scale(0.1 -0.1)">
       <defs>
        <path id="ArialMT-2d" d="M 203 1375 
L 203 1941 
L 1931 1941 
L 1931 1375 
L 203 1375 
z
" transform="scale(0.015625)"/>
        <path id="ArialMT-32" d="M 3222 541 
L 3222 0 
L 194 0 
Q 188 203 259 391 
Q 375 700 629 1000 
Q 884 1300 1366 1694 
Q 2113 2306 2375 2664 
Q 2638 3022 2638 3341 
Q 2638 3675 2398 3904 
Q 2159 4134 1775 4134 
Q 1369 4134 1125 3890 
Q 881 3647 878 3216 
L 300 3275 
Q 359 3922 746 4261 
Q 1134 4600 1788 4600 
Q 2447 4600 2831 4234 
Q 3216 3869 3216 3328 
Q 3216 3053 3103 2787 
Q 2991 2522 2730 2228 
Q 2469 1934 1863 1422 
Q 1356 997 1212 845 
Q 1069 694 975 541 
L 3222 541 
z
" transform="scale(0.015625)"/>
        <path id="ArialMT-30" d="M 266 2259 
Q 266 3072 433 3567 
Q 600 4063 929 4331 
Q 1259 4600 1759 4600 
Q 2128 4600 2406 4451 
Q 2684 4303 2865 4023 
Q 3047 3744 3150 3342 
Q 3253 2941 3253 2259 
Q 3253 1453 3087 958 
Q 2922 463 2592 192 
Q 2263 -78 1759 -78 
Q 1097 -78 719 397 
Q 266 969 266 2259 
z
M 844 2259 
Q 844 1131 1108 757 
Q 1372 384 1759 384 
Q 2147 384 2411 759 
Q 2675 1134 2675 2259 
Q 2675 3391 2411 3762 
Q 2147 4134 1753 4134 
Q 1366 4134 1134 3806 
Q 844 3388 844 2259 
z
" transform="scale(0.015625)"/>
       </defs>
       <use xlink:href="#ArialMT-2d"/>
       <use xlink:href="#ArialMT-32" x="33.300781"/>
       <use xlink:href="#ArialMT-30" x="88.916016"/>
       <use xlink:href="#ArialMT-30" x="144.53125"/>
      </g>
     </g>
    </g>
    <g id="xtick_2">
     <g id="line2d_2"/>
     <g id="text_2">
      <!-- -190 -->
      <g style="fill: #262626" transform="translate(79.325072 353.067937) rotate(-45) scale(0.1 -0.1)">
       <defs>
        <path id="ArialMT-31" d="M 2384 0 
L 1822 0 
L 1822 3584 
Q 1619 3391 1289 3197 
Q 959 3003 697 2906 
L 697 3450 
Q 1169 3672 1522 3987 
Q 1875 4303 2022 4600 
L 2384 4600 
L 2384 0 
z
" transform="scale(0.015625)"/>
        <path id="ArialMT-39" d="M 350 1059 
L 891 1109 
Q 959 728 1153 556 
Q 1347 384 1650 384 
Q 1909 384 2104 503 
Q 2300 622 2425 820 
Q 2550 1019 2634 1356 
Q 2719 1694 2719 2044 
Q 2719 2081 2716 2156 
Q 2547 1888 2255 1720 
Q 1963 1553 1622 1553 
Q 1053 1553 659 1965 
Q 266 2378 266 3053 
Q 266 3750 677 4175 
Q 1088 4600 1706 4600 
Q 2153 4600 2523 4359 
Q 2894 4119 3086 3673 
Q 3278 3228 3278 2384 
Q 3278 1506 3087 986 
Q 2897 466 2520 194 
Q 2144 -78 1638 -78 
Q 1100 -78 759 220 
Q 419 519 350 1059 
z
M 2653 3081 
Q 2653 3566 2395 3850 
Q 2138 4134 1775 4134 
Q 1400 4134 1122 3828 
Q 844 3522 844 3034 
Q 844 2597 1108 2323 
Q 1372 2050 1759 2050 
Q 2150 2050 2401 2323 
Q 2653 2597 2653 3081 
z
" transform="scale(0.015625)"/>
       </defs>
       <use xlink:href="#ArialMT-2d"/>
       <use xlink:href="#ArialMT-31" x="33.300781"/>
       <use xlink:href="#ArialMT-39" x="88.916016"/>
       <use xlink:href="#ArialMT-30" x="144.53125"/>
      </g>
     </g>
    </g>
    <g id="xtick_3">
     <g id="line2d_3"/>
     <g id="text_3">
      <!-- -180 -->
      <g style="fill: #262626" transform="translate(95.622991 353.067937) rotate(-45) scale(0.1 -0.1)">
       <defs>
        <path id="ArialMT-38" d="M 1131 2484 
Q 781 2613 612 2850 
Q 444 3088 444 3419 
Q 444 3919 803 4259 
Q 1163 4600 1759 4600 
Q 2359 4600 2725 4251 
Q 3091 3903 3091 3403 
Q 3091 3084 2923 2848 
Q 2756 2613 2416 2484 
Q 2838 2347 3058 2040 
Q 3278 1734 3278 1309 
Q 3278 722 2862 322 
Q 2447 -78 1769 -78 
Q 1091 -78 675 323 
Q 259 725 259 1325 
Q 259 1772 486 2073 
Q 713 2375 1131 2484 
z
M 1019 3438 
Q 1019 3113 1228 2906 
Q 1438 2700 1772 2700 
Q 2097 2700 2305 2904 
Q 2513 3109 2513 3406 
Q 2513 3716 2298 3927 
Q 2084 4138 1766 4138 
Q 1444 4138 1231 3931 
Q 1019 3725 1019 3438 
z
M 838 1322 
Q 838 1081 952 856 
Q 1066 631 1291 507 
Q 1516 384 1775 384 
Q 2178 384 2440 643 
Q 2703 903 2703 1303 
Q 2703 1709 2433 1975 
Q 2163 2241 1756 2241 
Q 1359 2241 1098 1978 
Q 838 1716 838 1322 
z
" transform="scale(0.015625)"/>
       </defs>
       <use xlink:href="#ArialMT-2d"/>
       <use xlink:href="#ArialMT-31" x="33.300781"/>
       <use xlink:href="#ArialMT-38" x="88.916016"/>
       <use xlink:href="#ArialMT-30" x="144.53125"/>
      </g>
     </g>
    </g>
    <g id="xtick_4">
     <g id="line2d_4"/>
     <g id="text_4">
      <!-- -170 -->
      <g style="fill: #262626" transform="translate(111.92091 353.067937) rotate(-45) scale(0.1 -0.1)">
       <defs>
        <path id="ArialMT-37" d="M 303 3981 
L 303 4522 
L 3269 4522 
L 3269 4084 
Q 2831 3619 2401 2847 
Q 1972 2075 1738 1259 
Q 1569 684 1522 0 
L 944 0 
Q 953 541 1156 1306 
Q 1359 2072 1739 2783 
Q 2119 3494 2547 3981 
L 303 3981 
z
" transform="scale(0.015625)"/>
       </defs>
       <use xlink:href="#ArialMT-2d"/>
       <use xlink:href="#ArialMT-31" x="33.300781"/>
       <use xlink:href="#ArialMT-37" x="88.916016"/>
       <use xlink:href="#ArialMT-30" x="144.53125"/>
      </g>
     </g>
    </g>
    <g id="xtick_5">
     <g id="line2d_5"/>
     <g id="text_5">
      <!-- -160 -->
      <g style="fill: #262626" transform="translate(128.218829 353.067937) rotate(-45) scale(0.1 -0.1)">
       <defs>
        <path id="ArialMT-36" d="M 3184 3459 
L 2625 3416 
Q 2550 3747 2413 3897 
Q 2184 4138 1850 4138 
Q 1581 4138 1378 3988 
Q 1113 3794 959 3422 
Q 806 3050 800 2363 
Q 1003 2672 1297 2822 
Q 1591 2972 1913 2972 
Q 2475 2972 2870 2558 
Q 3266 2144 3266 1488 
Q 3266 1056 3080 686 
Q 2894 316 2569 119 
Q 2244 -78 1831 -78 
Q 1128 -78 684 439 
Q 241 956 241 2144 
Q 241 3472 731 4075 
Q 1159 4600 1884 4600 
Q 2425 4600 2770 4297 
Q 3116 3994 3184 3459 
z
M 888 1484 
Q 888 1194 1011 928 
Q 1134 663 1356 523 
Q 1578 384 1822 384 
Q 2178 384 2434 671 
Q 2691 959 2691 1453 
Q 2691 1928 2437 2201 
Q 2184 2475 1800 2475 
Q 1419 2475 1153 2201 
Q 888 1928 888 1484 
z
" transform="scale(0.015625)"/>
       </defs>
       <use xlink:href="#ArialMT-2d"/>
       <use xlink:href="#ArialMT-31" x="33.300781"/>
       <use xlink:href="#ArialMT-36" x="88.916016"/>
       <use xlink:href="#ArialMT-30" x="144.53125"/>
      </g>
     </g>
    </g>
    <g id="xtick_6">
     <g id="line2d_6"/>
     <g id="text_6">
      <!-- -150 -->
      <g style="fill: #262626" transform="translate(144.516748 353.067937) rotate(-45) scale(0.1 -0.1)">
       <defs>
        <path id="ArialMT-35" d="M 266 1200 
L 856 1250 
Q 922 819 1161 601 
Q 1400 384 1738 384 
Q 2144 384 2425 690 
Q 2706 997 2706 1503 
Q 2706 1984 2436 2262 
Q 2166 2541 1728 2541 
Q 1456 2541 1237 2417 
Q 1019 2294 894 2097 
L 366 2166 
L 809 4519 
L 3088 4519 
L 3088 3981 
L 1259 3981 
L 1013 2750 
Q 1425 3038 1878 3038 
Q 2478 3038 2890 2622 
Q 3303 2206 3303 1553 
Q 3303 931 2941 478 
Q 2500 -78 1738 -78 
Q 1113 -78 717 272 
Q 322 622 266 1200 
z
" transform="scale(0.015625)"/>
       </defs>
       <use xlink:href="#ArialMT-2d"/>
       <use xlink:href="#ArialMT-31" x="33.300781"/>
       <use xlink:href="#ArialMT-35" x="88.916016"/>
       <use xlink:href="#ArialMT-30" x="144.53125"/>
      </g>
     </g>
    </g>
    <g id="xtick_7">
     <g id="line2d_7"/>
     <g id="text_7">
      <!-- -140 -->
      <g style="fill: #262626" transform="translate(160.814667 353.067937) rotate(-45) scale(0.1 -0.1)">
       <defs>
        <path id="ArialMT-34" d="M 2069 0 
L 2069 1097 
L 81 1097 
L 81 1613 
L 2172 4581 
L 2631 4581 
L 2631 1613 
L 3250 1613 
L 3250 1097 
L 2631 1097 
L 2631 0 
L 2069 0 
z
M 2069 1613 
L 2069 3678 
L 634 1613 
L 2069 1613 
z
" transform="scale(0.015625)"/>
       </defs>
       <use xlink:href="#ArialMT-2d"/>
       <use xlink:href="#ArialMT-31" x="33.300781"/>
       <use xlink:href="#ArialMT-34" x="88.916016"/>
       <use xlink:href="#ArialMT-30" x="144.53125"/>
      </g>
     </g>
    </g>
    <g id="xtick_8">
     <g id="line2d_8"/>
     <g id="text_8">
      <!-- -130 -->
      <g style="fill: #262626" transform="translate(177.112586 353.067937) rotate(-45) scale(0.1 -0.1)">
       <defs>
        <path id="ArialMT-33" d="M 269 1209 
L 831 1284 
Q 928 806 1161 595 
Q 1394 384 1728 384 
Q 2125 384 2398 659 
Q 2672 934 2672 1341 
Q 2672 1728 2419 1979 
Q 2166 2231 1775 2231 
Q 1616 2231 1378 2169 
L 1441 2663 
Q 1497 2656 1531 2656 
Q 1891 2656 2178 2843 
Q 2466 3031 2466 3422 
Q 2466 3731 2256 3934 
Q 2047 4138 1716 4138 
Q 1388 4138 1169 3931 
Q 950 3725 888 3313 
L 325 3413 
Q 428 3978 793 4289 
Q 1159 4600 1703 4600 
Q 2078 4600 2393 4439 
Q 2709 4278 2876 4000 
Q 3044 3722 3044 3409 
Q 3044 3113 2884 2869 
Q 2725 2625 2413 2481 
Q 2819 2388 3044 2092 
Q 3269 1797 3269 1353 
Q 3269 753 2831 336 
Q 2394 -81 1725 -81 
Q 1122 -81 723 278 
Q 325 638 269 1209 
z
" transform="scale(0.015625)"/>
       </defs>
       <use xlink:href="#ArialMT-2d"/>
       <use xlink:href="#ArialMT-31" x="33.300781"/>
       <use xlink:href="#ArialMT-33" x="88.916016"/>
       <use xlink:href="#ArialMT-30" x="144.53125"/>
      </g>
     </g>
    </g>
    <g id="xtick_9">
     <g id="line2d_9"/>
     <g id="text_9">
      <!-- -120 -->
      <g style="fill: #262626" transform="translate(193.410505 353.067937) rotate(-45) scale(0.1 -0.1)">
       <use xlink:href="#ArialMT-2d"/>
       <use xlink:href="#ArialMT-31" x="33.300781"/>
       <use xlink:href="#ArialMT-32" x="88.916016"/>
       <use xlink:href="#ArialMT-30" x="144.53125"/>
      </g>
     </g>
    </g>
    <g id="xtick_10">
     <g id="line2d_10"/>
     <g id="text_10">
      <!-- -110 -->
      <g style="fill: #262626" transform="translate(209.96917 352.546446) rotate(-45) scale(0.1 -0.1)">
       <use xlink:href="#ArialMT-2d"/>
       <use xlink:href="#ArialMT-31" x="33.300781"/>
       <use xlink:href="#ArialMT-31" x="81.541016"/>
       <use xlink:href="#ArialMT-30" x="137.15625"/>
      </g>
     </g>
    </g>
    <g id="xtick_11">
     <g id="line2d_11"/>
     <g id="text_11">
      <!-- -100 -->
      <g style="fill: #262626" transform="translate(226.006343 353.067937) rotate(-45) scale(0.1 -0.1)">
       <use xlink:href="#ArialMT-2d"/>
       <use xlink:href="#ArialMT-31" x="33.300781"/>
       <use xlink:href="#ArialMT-30" x="88.916016"/>
       <use xlink:href="#ArialMT-30" x="144.53125"/>
      </g>
     </g>
    </g>
    <g id="xtick_12">
     <g id="line2d_12"/>
     <g id="text_12">
      <!-- -90 -->
      <g style="fill: #262626" transform="translate(244.27035 349.135761) rotate(-45) scale(0.1 -0.1)">
       <use xlink:href="#ArialMT-2d"/>
       <use xlink:href="#ArialMT-39" x="33.300781"/>
       <use xlink:href="#ArialMT-30" x="88.916016"/>
      </g>
     </g>
    </g>
    <g id="xtick_13">
     <g id="line2d_13"/>
     <g id="text_13">
      <!-- -80 -->
      <g style="fill: #262626" transform="translate(260.568269 349.135761) rotate(-45) scale(0.1 -0.1)">
       <use xlink:href="#ArialMT-2d"/>
       <use xlink:href="#ArialMT-38" x="33.300781"/>
       <use xlink:href="#ArialMT-30" x="88.916016"/>
      </g>
     </g>
    </g>
    <g id="xtick_14">
     <g id="line2d_14"/>
     <g id="text_14">
      <!-- -70 -->
      <g style="fill: #262626" transform="translate(276.866188 349.135761) rotate(-45) scale(0.1 -0.1)">
       <use xlink:href="#ArialMT-2d"/>
       <use xlink:href="#ArialMT-37" x="33.300781"/>
       <use xlink:href="#ArialMT-30" x="88.916016"/>
      </g>
     </g>
    </g>
    <g id="xtick_15">
     <g id="line2d_15"/>
     <g id="text_15">
      <!-- -60 -->
      <g style="fill: #262626" transform="translate(293.164107 349.135761) rotate(-45) scale(0.1 -0.1)">
       <use xlink:href="#ArialMT-2d"/>
       <use xlink:href="#ArialMT-36" x="33.300781"/>
       <use xlink:href="#ArialMT-30" x="88.916016"/>
      </g>
     </g>
    </g>
    <g id="xtick_16">
     <g id="line2d_16"/>
     <g id="text_16">
      <!-- -50 -->
      <g style="fill: #262626" transform="translate(309.462026 349.135761) rotate(-45) scale(0.1 -0.1)">
       <use xlink:href="#ArialMT-2d"/>
       <use xlink:href="#ArialMT-35" x="33.300781"/>
       <use xlink:href="#ArialMT-30" x="88.916016"/>
      </g>
     </g>
    </g>
    <g id="xtick_17">
     <g id="line2d_17"/>
     <g id="text_17">
      <!-- -40 -->
      <g style="fill: #262626" transform="translate(325.759945 349.135761) rotate(-45) scale(0.1 -0.1)">
       <use xlink:href="#ArialMT-2d"/>
       <use xlink:href="#ArialMT-34" x="33.300781"/>
       <use xlink:href="#ArialMT-30" x="88.916016"/>
      </g>
     </g>
    </g>
    <g id="xtick_18">
     <g id="line2d_18"/>
     <g id="text_18">
      <!-- -30 -->
      <g style="fill: #262626" transform="translate(342.057864 349.135761) rotate(-45) scale(0.1 -0.1)">
       <use xlink:href="#ArialMT-2d"/>
       <use xlink:href="#ArialMT-33" x="33.300781"/>
       <use xlink:href="#ArialMT-30" x="88.916016"/>
      </g>
     </g>
    </g>
    <g id="xtick_19">
     <g id="line2d_19"/>
     <g id="text_19">
      <!-- -20 -->
      <g style="fill: #262626" transform="translate(358.355783 349.135761) rotate(-45) scale(0.1 -0.1)">
       <use xlink:href="#ArialMT-2d"/>
       <use xlink:href="#ArialMT-32" x="33.300781"/>
       <use xlink:href="#ArialMT-30" x="88.916016"/>
      </g>
     </g>
    </g>
    <g id="xtick_20">
     <g id="line2d_20"/>
     <g id="text_20">
      <!-- -10 -->
      <g style="fill: #262626" transform="translate(374.653702 349.135761) rotate(-45) scale(0.1 -0.1)">
       <use xlink:href="#ArialMT-2d"/>
       <use xlink:href="#ArialMT-31" x="33.300781"/>
       <use xlink:href="#ArialMT-30" x="88.916016"/>
      </g>
     </g>
    </g>
    <g id="xtick_21">
     <g id="line2d_21"/>
     <g id="text_21">
      <!-- 0 -->
      <g style="fill: #262626" transform="translate(394.094931 342.849139) rotate(-45) scale(0.1 -0.1)">
       <use xlink:href="#ArialMT-30"/>
      </g>
     </g>
    </g>
    <g id="xtick_22">
     <g id="line2d_22"/>
     <g id="text_22">
      <!-- 10 -->
      <g style="fill: #262626" transform="translate(408.426762 346.781316) rotate(-45) scale(0.1 -0.1)">
       <use xlink:href="#ArialMT-31"/>
       <use xlink:href="#ArialMT-30" x="55.615234"/>
      </g>
     </g>
    </g>
    <g id="xtick_23">
     <g id="line2d_23"/>
     <g id="text_23">
      <!-- 20 -->
      <g style="fill: #262626" transform="translate(424.724681 346.781316) rotate(-45) scale(0.1 -0.1)">
       <use xlink:href="#ArialMT-32"/>
       <use xlink:href="#ArialMT-30" x="55.615234"/>
      </g>
     </g>
    </g>
    <g id="xtick_24">
     <g id="line2d_24"/>
     <g id="text_24">
      <!-- 30 -->
      <g style="fill: #262626" transform="translate(441.0226 346.781316) rotate(-45) scale(0.1 -0.1)">
       <use xlink:href="#ArialMT-33"/>
       <use xlink:href="#ArialMT-30" x="55.615234"/>
      </g>
     </g>
    </g>
    <g id="xtick_25">
     <g id="line2d_25"/>
     <g id="text_25">
      <!-- 40 -->
      <g style="fill: #262626" transform="translate(457.320519 346.781316) rotate(-45) scale(0.1 -0.1)">
       <use xlink:href="#ArialMT-34"/>
       <use xlink:href="#ArialMT-30" x="55.615234"/>
      </g>
     </g>
    </g>
    <g id="xtick_26">
     <g id="line2d_26"/>
     <g id="text_26">
      <!-- 50 -->
      <g style="fill: #262626" transform="translate(473.618438 346.781316) rotate(-45) scale(0.1 -0.1)">
       <use xlink:href="#ArialMT-35"/>
       <use xlink:href="#ArialMT-30" x="55.615234"/>
      </g>
     </g>
    </g>
    <g id="text_27">
     <!-- Position -->
     <g style="fill: #262626" transform="translate(251.6175 366.346906) scale(0.11 -0.11)">
      <defs>
       <path id="ArialMT-50" d="M 494 0 
L 494 4581 
L 2222 4581 
Q 2678 4581 2919 4538 
Q 3256 4481 3484 4323 
Q 3713 4166 3852 3881 
Q 3991 3597 3991 3256 
Q 3991 2672 3619 2267 
Q 3247 1863 2275 1863 
L 1100 1863 
L 1100 0 
L 494 0 
z
M 1100 2403 
L 2284 2403 
Q 2872 2403 3119 2622 
Q 3366 2841 3366 3238 
Q 3366 3525 3220 3729 
Q 3075 3934 2838 4000 
Q 2684 4041 2272 4041 
L 1100 4041 
L 1100 2403 
z
" transform="scale(0.015625)"/>
       <path id="ArialMT-6f" d="M 213 1659 
Q 213 2581 725 3025 
Q 1153 3394 1769 3394 
Q 2453 3394 2887 2945 
Q 3322 2497 3322 1706 
Q 3322 1066 3130 698 
Q 2938 331 2570 128 
Q 2203 -75 1769 -75 
Q 1072 -75 642 372 
Q 213 819 213 1659 
z
M 791 1659 
Q 791 1022 1069 705 
Q 1347 388 1769 388 
Q 2188 388 2466 706 
Q 2744 1025 2744 1678 
Q 2744 2294 2464 2611 
Q 2184 2928 1769 2928 
Q 1347 2928 1069 2612 
Q 791 2297 791 1659 
z
" transform="scale(0.015625)"/>
       <path id="ArialMT-73" d="M 197 991 
L 753 1078 
Q 800 744 1014 566 
Q 1228 388 1613 388 
Q 2000 388 2187 545 
Q 2375 703 2375 916 
Q 2375 1106 2209 1216 
Q 2094 1291 1634 1406 
Q 1016 1563 777 1677 
Q 538 1791 414 1992 
Q 291 2194 291 2438 
Q 291 2659 392 2848 
Q 494 3038 669 3163 
Q 800 3259 1026 3326 
Q 1253 3394 1513 3394 
Q 1903 3394 2198 3281 
Q 2494 3169 2634 2976 
Q 2775 2784 2828 2463 
L 2278 2388 
Q 2241 2644 2061 2787 
Q 1881 2931 1553 2931 
Q 1166 2931 1000 2803 
Q 834 2675 834 2503 
Q 834 2394 903 2306 
Q 972 2216 1119 2156 
Q 1203 2125 1616 2013 
Q 2213 1853 2448 1751 
Q 2684 1650 2818 1456 
Q 2953 1263 2953 975 
Q 2953 694 2789 445 
Q 2625 197 2315 61 
Q 2006 -75 1616 -75 
Q 969 -75 630 194 
Q 291 463 197 991 
z
" transform="scale(0.015625)"/>
       <path id="ArialMT-69" d="M 425 3934 
L 425 4581 
L 988 4581 
L 988 3934 
L 425 3934 
z
M 425 0 
L 425 3319 
L 988 3319 
L 988 0 
L 425 0 
z
" transform="scale(0.015625)"/>
       <path id="ArialMT-74" d="M 1650 503 
L 1731 6 
Q 1494 -44 1306 -44 
Q 1000 -44 831 53 
Q 663 150 594 308 
Q 525 466 525 972 
L 525 2881 
L 113 2881 
L 113 3319 
L 525 3319 
L 525 4141 
L 1084 4478 
L 1084 3319 
L 1650 3319 
L 1650 2881 
L 1084 2881 
L 1084 941 
Q 1084 700 1114 631 
Q 1144 563 1211 522 
Q 1278 481 1403 481 
Q 1497 481 1650 503 
z
" transform="scale(0.015625)"/>
       <path id="ArialMT-6e" d="M 422 0 
L 422 3319 
L 928 3319 
L 928 2847 
Q 1294 3394 1984 3394 
Q 2284 3394 2536 3286 
Q 2788 3178 2913 3003 
Q 3038 2828 3088 2588 
Q 3119 2431 3119 2041 
L 3119 0 
L 2556 0 
L 2556 2019 
Q 2556 2363 2490 2533 
Q 2425 2703 2258 2804 
Q 2091 2906 1866 2906 
Q 1506 2906 1245 2678 
Q 984 2450 984 1813 
L 984 0 
L 422 0 
z
" transform="scale(0.015625)"/>
      </defs>
      <use xlink:href="#ArialMT-50"/>
      <use xlink:href="#ArialMT-6f" x="66.699219"/>
      <use xlink:href="#ArialMT-73" x="122.314453"/>
      <use xlink:href="#ArialMT-69" x="172.314453"/>
      <use xlink:href="#ArialMT-74" x="194.53125"/>
      <use xlink:href="#ArialMT-69" x="222.314453"/>
      <use xlink:href="#ArialMT-6f" x="244.53125"/>
      <use xlink:href="#ArialMT-6e" x="300.146484"/>
     </g>
    </g>
   </g>
   <g id="matplotlib.axis_2">
    <g id="ytick_1">
     <g id="line2d_27"/>
     <g id="text_28">
      <!-- 1.55 -->
      <g style="fill: #262626" transform="translate(21.522813 300.075646) scale(0.1 -0.1)">
       <defs>
        <path id="ArialMT-2e" d="M 581 0 
L 581 641 
L 1222 641 
L 1222 0 
L 581 0 
z
" transform="scale(0.015625)"/>
       </defs>
       <use xlink:href="#ArialMT-31"/>
       <use xlink:href="#ArialMT-2e" x="55.615234"/>
       <use xlink:href="#ArialMT-35" x="83.398438"/>
       <use xlink:href="#ArialMT-35" x="139.013672"/>
      </g>
     </g>
    </g>
    <g id="ytick_2">
     <g id="line2d_28"/>
     <g id="text_29">
      <!-- 1.60 -->
      <g style="fill: #262626" transform="translate(21.522813 256.25633) scale(0.1 -0.1)">
       <use xlink:href="#ArialMT-31"/>
       <use xlink:href="#ArialMT-2e" x="55.615234"/>
       <use xlink:href="#ArialMT-36" x="83.398438"/>
       <use xlink:href="#ArialMT-30" x="139.013672"/>
      </g>
     </g>
    </g>
    <g id="ytick_3">
     <g id="line2d_29"/>
     <g id="text_30">
      <!-- 1.65 -->
      <g style="fill: #262626" transform="translate(21.522813 212.437014) scale(0.1 -0.1)">
       <use xlink:href="#ArialMT-31"/>
       <use xlink:href="#ArialMT-2e" x="55.615234"/>
       <use xlink:href="#ArialMT-36" x="83.398438"/>
       <use xlink:href="#ArialMT-35" x="139.013672"/>
      </g>
     </g>
    </g>
    <g id="ytick_4">
     <g id="line2d_30"/>
     <g id="text_31">
      <!-- 1.70 -->
      <g style="fill: #262626" transform="translate(21.522813 168.617698) scale(0.1 -0.1)">
       <use xlink:href="#ArialMT-31"/>
       <use xlink:href="#ArialMT-2e" x="55.615234"/>
       <use xlink:href="#ArialMT-37" x="83.398438"/>
       <use xlink:href="#ArialMT-30" x="139.013672"/>
      </g>
     </g>
    </g>
    <g id="ytick_5">
     <g id="line2d_31"/>
     <g id="text_32">
      <!-- 1.75 -->
      <g style="fill: #262626" transform="translate(21.522813 124.798381) scale(0.1 -0.1)">
       <use xlink:href="#ArialMT-31"/>
       <use xlink:href="#ArialMT-2e" x="55.615234"/>
       <use xlink:href="#ArialMT-37" x="83.398438"/>
       <use xlink:href="#ArialMT-35" x="139.013672"/>
      </g>
     </g>
    </g>
    <g id="ytick_6">
     <g id="line2d_32"/>
     <g id="text_33">
      <!-- 1.80 -->
      <g style="fill: #262626" transform="translate(21.522813 80.979065) scale(0.1 -0.1)">
       <use xlink:href="#ArialMT-31"/>
       <use xlink:href="#ArialMT-2e" x="55.615234"/>
       <use xlink:href="#ArialMT-38" x="83.398438"/>
       <use xlink:href="#ArialMT-30" x="139.013672"/>
      </g>
     </g>
    </g>
    <g id="ytick_7">
     <g id="line2d_33"/>
     <g id="text_34">
      <!-- 1.85 -->
      <g style="fill: #262626" transform="translate(21.522813 37.159749) scale(0.1 -0.1)">
       <use xlink:href="#ArialMT-31"/>
       <use xlink:href="#ArialMT-2e" x="55.615234"/>
       <use xlink:href="#ArialMT-38" x="83.398438"/>
       <use xlink:href="#ArialMT-35" x="139.013672"/>
      </g>
     </g>
    </g>
    <g id="text_35">
     <!-- Sugimoto_dG -->
     <g style="fill: #262626" transform="translate(15.207656 208.024687) rotate(-90) scale(0.11 -0.11)">
      <defs>
       <path id="ArialMT-53" d="M 288 1472 
L 859 1522 
Q 900 1178 1048 958 
Q 1197 738 1509 602 
Q 1822 466 2213 466 
Q 2559 466 2825 569 
Q 3091 672 3220 851 
Q 3350 1031 3350 1244 
Q 3350 1459 3225 1620 
Q 3100 1781 2813 1891 
Q 2628 1963 1997 2114 
Q 1366 2266 1113 2400 
Q 784 2572 623 2826 
Q 463 3081 463 3397 
Q 463 3744 659 4045 
Q 856 4347 1234 4503 
Q 1613 4659 2075 4659 
Q 2584 4659 2973 4495 
Q 3363 4331 3572 4012 
Q 3781 3694 3797 3291 
L 3216 3247 
Q 3169 3681 2898 3903 
Q 2628 4125 2100 4125 
Q 1550 4125 1298 3923 
Q 1047 3722 1047 3438 
Q 1047 3191 1225 3031 
Q 1400 2872 2139 2705 
Q 2878 2538 3153 2413 
Q 3553 2228 3743 1945 
Q 3934 1663 3934 1294 
Q 3934 928 3725 604 
Q 3516 281 3123 101 
Q 2731 -78 2241 -78 
Q 1619 -78 1198 103 
Q 778 284 539 648 
Q 300 1013 288 1472 
z
" transform="scale(0.015625)"/>
       <path id="ArialMT-75" d="M 2597 0 
L 2597 488 
Q 2209 -75 1544 -75 
Q 1250 -75 995 37 
Q 741 150 617 320 
Q 494 491 444 738 
Q 409 903 409 1263 
L 409 3319 
L 972 3319 
L 972 1478 
Q 972 1038 1006 884 
Q 1059 663 1231 536 
Q 1403 409 1656 409 
Q 1909 409 2131 539 
Q 2353 669 2445 892 
Q 2538 1116 2538 1541 
L 2538 3319 
L 3100 3319 
L 3100 0 
L 2597 0 
z
" transform="scale(0.015625)"/>
       <path id="ArialMT-67" d="M 319 -275 
L 866 -356 
Q 900 -609 1056 -725 
Q 1266 -881 1628 -881 
Q 2019 -881 2231 -725 
Q 2444 -569 2519 -288 
Q 2563 -116 2559 434 
Q 2191 0 1641 0 
Q 956 0 581 494 
Q 206 988 206 1678 
Q 206 2153 378 2554 
Q 550 2956 876 3175 
Q 1203 3394 1644 3394 
Q 2231 3394 2613 2919 
L 2613 3319 
L 3131 3319 
L 3131 450 
Q 3131 -325 2973 -648 
Q 2816 -972 2473 -1159 
Q 2131 -1347 1631 -1347 
Q 1038 -1347 672 -1080 
Q 306 -813 319 -275 
z
M 784 1719 
Q 784 1066 1043 766 
Q 1303 466 1694 466 
Q 2081 466 2343 764 
Q 2606 1063 2606 1700 
Q 2606 2309 2336 2618 
Q 2066 2928 1684 2928 
Q 1309 2928 1046 2623 
Q 784 2319 784 1719 
z
" transform="scale(0.015625)"/>
       <path id="ArialMT-6d" d="M 422 0 
L 422 3319 
L 925 3319 
L 925 2853 
Q 1081 3097 1340 3245 
Q 1600 3394 1931 3394 
Q 2300 3394 2536 3241 
Q 2772 3088 2869 2813 
Q 3263 3394 3894 3394 
Q 4388 3394 4653 3120 
Q 4919 2847 4919 2278 
L 4919 0 
L 4359 0 
L 4359 2091 
Q 4359 2428 4304 2576 
Q 4250 2725 4106 2815 
Q 3963 2906 3769 2906 
Q 3419 2906 3187 2673 
Q 2956 2441 2956 1928 
L 2956 0 
L 2394 0 
L 2394 2156 
Q 2394 2531 2256 2718 
Q 2119 2906 1806 2906 
Q 1569 2906 1367 2781 
Q 1166 2656 1075 2415 
Q 984 2175 984 1722 
L 984 0 
L 422 0 
z
" transform="scale(0.015625)"/>
       <path id="ArialMT-5f" d="M -97 -1272 
L -97 -866 
L 3631 -866 
L 3631 -1272 
L -97 -1272 
z
" transform="scale(0.015625)"/>
       <path id="ArialMT-64" d="M 2575 0 
L 2575 419 
Q 2259 -75 1647 -75 
Q 1250 -75 917 144 
Q 584 363 401 755 
Q 219 1147 219 1656 
Q 219 2153 384 2558 
Q 550 2963 881 3178 
Q 1213 3394 1622 3394 
Q 1922 3394 2156 3267 
Q 2391 3141 2538 2938 
L 2538 4581 
L 3097 4581 
L 3097 0 
L 2575 0 
z
M 797 1656 
Q 797 1019 1065 703 
Q 1334 388 1700 388 
Q 2069 388 2326 689 
Q 2584 991 2584 1609 
Q 2584 2291 2321 2609 
Q 2059 2928 1675 2928 
Q 1300 2928 1048 2622 
Q 797 2316 797 1656 
z
" transform="scale(0.015625)"/>
       <path id="ArialMT-47" d="M 2638 1797 
L 2638 2334 
L 4578 2338 
L 4578 638 
Q 4131 281 3656 101 
Q 3181 -78 2681 -78 
Q 2006 -78 1454 211 
Q 903 500 622 1047 
Q 341 1594 341 2269 
Q 341 2938 620 3517 
Q 900 4097 1425 4378 
Q 1950 4659 2634 4659 
Q 3131 4659 3532 4498 
Q 3934 4338 4162 4050 
Q 4391 3763 4509 3300 
L 3963 3150 
Q 3859 3500 3706 3700 
Q 3553 3900 3268 4020 
Q 2984 4141 2638 4141 
Q 2222 4141 1919 4014 
Q 1616 3888 1430 3681 
Q 1244 3475 1141 3228 
Q 966 2803 966 2306 
Q 966 1694 1177 1281 
Q 1388 869 1791 669 
Q 2194 469 2647 469 
Q 3041 469 3416 620 
Q 3791 772 3984 944 
L 3984 1797 
L 2638 1797 
z
" transform="scale(0.015625)"/>
      </defs>
      <use xlink:href="#ArialMT-53"/>
      <use xlink:href="#ArialMT-75" x="66.699219"/>
      <use xlink:href="#ArialMT-67" x="122.314453"/>
      <use xlink:href="#ArialMT-69" x="177.929688"/>
      <use xlink:href="#ArialMT-6d" x="200.146484"/>
      <use xlink:href="#ArialMT-6f" x="283.447266"/>
      <use xlink:href="#ArialMT-74" x="339.0625"/>
      <use xlink:href="#ArialMT-6f" x="366.845703"/>
      <use xlink:href="#ArialMT-5f" x="422.460938"/>
      <use xlink:href="#ArialMT-64" x="478.076172"/>
      <use xlink:href="#ArialMT-47" x="533.691406"/>
     </g>
    </g>
   </g>
   <g id="line2d_34">
    <path d="M 68.274659 182.611728 
L 69.904451 184.398624 
L 71.534243 176.815081 
L 73.164035 177.547063 
L 74.793827 174.285439 
L 76.423619 179.059465 
L 78.05341 182.084271 
L 79.683202 178.951821 
L 81.312994 177.439418 
L 82.942786 172.670774 
L 84.572578 172.939885 
L 87.832162 176.093864 
L 89.461954 172.315548 
L 91.091746 172.433957 
L 92.721538 168.53185 
L 94.351329 168.48341 
L 95.981121 168.079744 
L 97.610913 163.655562 
L 99.240705 165.340195 
L 100.870497 170.259541 
L 102.500289 171.266016 
L 104.130081 167.084034 
L 105.759873 169.909697 
L 107.389665 170.641679 
L 109.019456 166.831069 
L 110.649248 164.45213 
L 112.27904 164.285281 
L 113.908832 163.257278 
L 115.538624 159.882628 
L 117.168416 160.571552 
L 118.798208 159.457433 
L 120.428 154.785669 
L 122.057792 155.173188 
L 123.687584 158.860007 
L 125.317375 154.042923 
L 126.947167 160.829898 
L 128.576959 162.595265 
L 130.206751 157.950412 
L 131.836543 154.150567 
L 133.466335 157.266871 
L 135.096127 156.438009 
L 136.725919 157.428337 
L 138.355711 159.823423 
L 139.985502 159.801895 
L 141.615294 158.784656 
L 143.245086 154.678024 
L 144.874878 156.497214 
L 146.50467 151.432548 
L 148.134462 152.374436 
L 149.764254 148.079427 
L 151.394046 150.108523 
L 153.023838 153.617728 
L 154.65363 150.856651 
L 156.283421 148.456182 
L 157.913213 145.12459 
L 161.172797 141.959847 
L 162.802589 144.726306 
L 164.432381 150.156963 
L 166.062173 146.330207 
L 167.691965 141.28707 
L 169.321757 138.913512 
L 170.951548 138.698223 
L 172.58134 140.00072 
L 174.211132 136.696039 
L 175.840924 137.395727 
L 177.470716 140.226773 
L 179.100508 141.631532 
L 180.7303 134.747677 
L 182.360092 137.314994 
L 183.989884 133.127629 
L 185.619676 128.61195 
L 188.879259 131.830515 
L 190.509051 130.092059 
L 192.138843 129.4139 
L 193.768635 126.79276 
L 195.398427 126.997285 
L 197.028219 128.229812 
L 198.658011 127.061871 
L 200.287803 127.820764 
L 201.917594 130.501108 
L 203.547386 125.850873 
L 205.177178 125.468735 
L 206.80697 125.344944 
L 208.436762 123.353524 
L 210.066554 124.677549 
L 211.696346 123.461168 
L 213.326138 119.96811 
L 214.95593 120.96382 
L 216.585722 120.102665 
L 218.215513 119.591355 
L 219.845305 117.303913 
L 221.475097 112.476064 
L 223.104889 110.866782 
L 224.734681 113.272632 
L 226.364473 116.647282 
L 227.994265 115.866861 
L 229.624057 114.666627 
L 231.253849 111.948607 
L 232.88364 115.328639 
L 234.513432 113.132695 
L 237.773016 111.211243 
L 239.402808 109.510463 
L 241.0326 108.547046 
L 242.662392 100.269197 
L 244.292184 104.284331 
L 245.921976 103.030274 
L 247.551768 102.82575 
L 249.181559 103.713816 
L 250.811351 103.697669 
L 252.441143 101.345641 
L 254.070935 95.339087 
L 255.700727 98.153986 
L 257.330519 94.499461 
L 258.960311 92.534952 
L 260.590103 96.071068 
L 262.219895 96.054922 
L 263.849686 93.778244 
L 265.479478 95.037683 
L 267.10927 89.720053 
L 268.739062 87.464904 
L 270.368854 84.348601 
L 271.998646 84.300161 
L 273.628438 82.314123 
L 275.25823 86.512252 
L 276.888022 89.510146 
L 278.517814 85.118258 
L 280.147605 82.308741 
L 281.777397 88.848134 
L 283.407189 85.26896 
L 285.036981 84.768414 
L 286.666773 82.970753 
L 288.296565 79.181673 
L 289.926357 78.126758 
L 291.556149 74.434558 
L 293.185941 78.923326 
L 296.445524 84.090254 
L 298.075316 79.262406 
L 301.3349 73.363497 
L 302.964692 68.390329 
L 304.594484 66.88869 
L 306.224276 67.012481 
L 307.854068 67.825196 
L 309.48386 73.869425 
L 311.113651 74.762873 
L 312.743443 75.796258 
L 314.373235 73.234323 
L 316.003027 60.839079 
L 317.632819 58.013415 
L 319.262611 53.97137 
L 320.892403 44.240323 
L 324.151987 44.730104 
L 325.781778 50.440636 
L 329.041362 59.87028 
L 330.671154 57.889624 
L 332.300946 53.659202 
L 333.930738 50.833538 
L 335.56053 61.549531 
L 337.190322 70.284869 
L 338.820114 72.292436 
L 340.449906 66.608815 
L 342.079697 68.842435 
L 343.709489 81.404528 
L 345.339281 106.205782 
L 348.598865 162.304625 
L 350.228657 181.820543 
L 351.858449 155.555326 
L 353.488241 96.587761 
L 355.118033 63.121138 
L 356.747824 45.112242 
L 358.377616 35.795625 
L 360.007408 38.077685 
L 361.6372 42.087436 
L 363.266992 50.817391 
L 364.896784 51.872306 
L 366.526576 57.265287 
L 368.156368 56.54407 
L 369.78616 53.029482 
L 373.045743 35.908652 
L 374.675535 41.064815 
L 376.305327 55.521449 
L 377.935119 62.32457 
L 379.564911 62.71209 
L 381.194703 69.278394 
L 382.824495 68.282684 
L 384.454287 92.696419 
L 386.084079 85.177462 
L 387.71387 51.936892 
L 389.343662 94.241115 
L 390.973454 106.324191 
L 392.603246 93.094703 
L 394.233038 263.95855 
L 395.86283 243.936704 
L 397.492622 243.608389 
L 399.122414 118.940106 
L 400.752206 119.198453 
L 402.381998 75.414121 
L 404.011789 72.147116 
L 405.641581 74.859753 
L 407.271373 72.733777 
L 408.901165 72.25476 
L 410.530957 74.300002 
L 412.160749 66.474259 
L 413.790541 54.730263 
L 415.420333 59.106005 
L 417.050125 57.206082 
L 418.679916 59.251325 
L 420.309708 49.202726 
L 421.9395 44.880807 
L 423.569292 67.012481 
L 425.199084 74.558349 
L 426.828876 67.975898 
L 428.458668 58.072619 
L 430.08846 62.868174 
L 431.718252 71.409752 
L 433.348044 78.47122 
L 434.977835 79.816774 
L 436.607627 66.366615 
L 438.237419 56.651714 
L 439.867211 66.587286 
L 441.497003 82.421767 
L 443.126795 72.15788 
L 444.756587 63.261076 
L 446.386379 68.826288 
L 449.645962 90.979491 
L 451.275754 92.38425 
L 452.905546 96.345561 
L 454.535338 92.185108 
L 456.16513 86.377696 
L 457.794922 87.324966 
L 459.424714 88.535965 
L 462.684298 78.083701 
L 464.31409 68.858581 
L 465.943881 65.252496 
L 467.573673 60.661466 
L 469.203465 59.036036 
L 470.833257 64.784243 
L 472.463049 65.876833 
L 474.092841 74.709051 
L 474.092841 74.709051 
" clip-path="url(#p4da7b6fb0d)" style="fill: none; stroke: #0272a2; stroke-width: 1.75; stroke-linecap: round"/>
   </g>
   <g id="line2d_35">
    <path d="M 68.274659 308.712906 
L 69.904451 306.629802 
L 71.534243 305.718886 
L 73.164035 310.291121 
L 74.793827 309.125996 
L 76.423619 308.260978 
L 78.05341 309.433165 
L 79.683202 306.315571 
L 81.312994 304.486677 
L 82.942786 306.149629 
L 84.572578 307.106444 
L 86.20237 307.007585 
L 87.832162 308.508126 
L 89.461954 307.39243 
L 91.091746 307.198242 
L 92.721538 308.490473 
L 94.351329 307.523065 
L 95.981121 307.918502 
L 97.610913 307.13469 
L 99.240705 311.202038 
L 100.870497 308.568148 
L 102.500289 308.027953 
L 104.130081 309.842724 
L 105.759873 305.475269 
L 107.389665 307.434798 
L 109.019456 303.822909 
L 110.649248 306.209651 
L 112.27904 305.715355 
L 113.908832 306.742784 
L 115.538624 309.175425 
L 117.168416 307.424206 
L 118.798208 308.377491 
L 120.428 307.713722 
L 122.057792 304.582006 
L 123.687584 305.969564 
L 125.317375 305.708294 
L 126.947167 305.856582 
L 128.576959 307.064076 
L 130.206751 306.658048 
L 131.836543 307.343 
L 133.466335 305.651803 
L 135.096127 307.787866 
L 136.725919 308.317469 
L 138.355711 304.080649 
L 139.985502 306.947564 
L 141.615294 309.133057 
L 143.245086 304.557291 
L 144.874878 302.788418 
L 146.50467 302.894339 
L 148.134462 307.639578 
L 149.764254 310.990197 
L 151.394046 309.186017 
L 153.023838 306.841643 
L 154.65363 305.153976 
L 156.283421 308.772927 
L 157.913213 306.767499 
L 159.543005 307.131159 
L 161.172797 308.730559 
L 162.802589 308.377491 
L 164.432381 305.27755 
L 166.062173 303.868807 
L 167.691965 306.650986 
L 169.321757 307.357123 
L 170.951548 309.959237 
L 172.58134 308.811765 
L 174.211132 309.203671 
L 175.840924 305.733009 
L 177.470716 302.64366 
L 179.100508 304.75854 
L 180.7303 305.365817 
L 182.360092 307.607802 
L 183.989884 309.214263 
L 185.619676 309.182487 
L 187.249467 306.650986 
L 188.879259 304.529045 
L 190.509051 307.035831 
L 192.138843 306.403838 
L 193.768635 305.383471 
L 195.398427 309.260162 
L 197.028219 306.474452 
L 198.658011 307.173527 
L 200.287803 310.280529 
L 201.917594 307.646639 
L 203.547386 309.97336 
L 205.177178 308.42692 
L 206.80697 305.358756 
L 208.436762 307.893787 
L 210.066554 306.075485 
L 211.696346 303.10618 
L 213.326138 308.543433 
L 214.95593 310.022789 
L 216.585722 309.390797 
L 218.215513 309.320183 
L 219.845305 306.838113 
L 221.475097 309.023606 
L 223.104889 306.506228 
L 224.734681 304.532576 
L 226.364473 305.909543 
L 227.994265 309.71562 
L 229.624057 306.626271 
L 231.253849 305.849521 
L 232.88364 312.776723 
L 234.513432 312.063524 
L 236.143224 308.038545 
L 237.773016 305.298734 
L 239.402808 303.875869 
L 241.0326 307.897318 
L 242.662392 309.426104 
L 244.292184 305.351695 
L 245.921976 309.447288 
L 247.551768 311.074933 
L 249.181559 309.362551 
L 250.811351 301.436166 
L 252.441143 303.5228 
L 254.070935 307.604271 
L 255.700727 308.921216 
L 257.330519 310.464125 
L 258.960311 307.593679 
L 260.590103 307.233549 
L 262.219895 304.973911 
L 263.849686 306.177875 
L 265.479478 306.312041 
L 267.10927 306.788683 
L 268.739062 303.000259 
L 270.368854 308.621108 
L 271.998646 308.875317 
L 273.628438 306.064893 
L 275.25823 309.648537 
L 276.888022 310.167547 
L 278.517814 307.381838 
L 280.147605 308.783519 
L 281.777397 309.323714 
L 283.407189 307.837296 
L 285.036981 309.436696 
L 286.666773 307.731376 
L 288.296565 306.375593 
L 289.926357 305.884828 
L 291.556149 306.149629 
L 293.185941 310.393511 
L 294.815732 306.142568 
L 296.445524 306.809867 
L 298.075316 307.29004 
L 299.705108 305.891889 
L 301.3349 306.806336 
L 302.964692 310.856031 
L 304.594484 310.368796 
L 306.224276 307.632516 
L 307.854068 309.027136 
L 309.48386 310.100464 
L 311.113651 306.954625 
L 314.373235 307.593679 
L 316.003027 306.590965 
L 317.632819 305.012749 
L 319.262611 307.272387 
L 320.892403 309.930991 
L 322.522195 310.07575 
L 324.151987 309.359021 
L 325.781778 307.388899 
L 327.41157 308.356307 
L 329.041362 306.67217 
L 330.671154 308.398675 
L 332.300946 307.879664 
L 333.930738 306.626271 
L 335.56053 308.321 
L 337.190322 305.729478 
L 338.820114 305.044525 
L 340.449906 307.890256 
L 342.079697 306.573311 
L 343.709489 307.13469 
L 346.969073 307.473636 
L 348.598865 306.252019 
L 350.228657 311.258529 
L 351.858449 312.995625 
L 353.488241 310.07928 
L 355.118033 308.730559 
L 356.747824 306.1002 
L 358.377616 304.472554 
L 360.007408 305.093955 
L 361.6372 303.635782 
L 363.266992 304.437248 
L 364.896784 305.785969 
L 366.526576 307.321816 
L 368.156368 311.929359 
L 371.415952 311.495084 
L 373.045743 307.516004 
L 374.675535 306.146099 
L 376.305327 308.9424 
L 379.564911 304.310143 
L 381.194703 308.056198 
L 382.824495 308.441043 
L 384.454287 306.97934 
L 386.084079 302.527148 
L 387.71387 307.011116 
L 389.343662 306.753376 
L 390.973454 305.771846 
L 392.603246 305.196345 
L 394.233038 306.294387 
L 395.86283 310.481778 
L 397.492622 310.358204 
L 399.122414 308.448104 
L 400.752206 308.854133 
L 402.381998 307.417145 
L 404.011789 310.48884 
L 405.641581 308.99536 
L 407.271373 305.009218 
L 408.901165 307.106444 
L 410.530957 307.463044 
L 412.160749 309.133057 
L 413.790541 308.162119 
L 415.420333 309.080097 
L 417.050125 307.60074 
L 418.679916 307.325347 
L 420.309708 304.218345 
L 421.9395 304.317204 
L 423.569292 308.172711 
L 425.199084 305.443492 
L 426.828876 303.798194 
L 428.458668 307.681946 
L 430.08846 307.809051 
L 431.718252 306.329694 
L 433.348044 306.601557 
L 434.977835 304.723233 
L 436.607627 305.228121 
L 438.237419 307.417145 
L 439.867211 306.884011 
L 441.497003 305.334041 
L 444.756587 311.756355 
L 446.386379 307.08526 
L 448.016171 307.039361 
L 449.645962 309.546147 
L 451.275754 304.359573 
L 452.905546 305.475269 
L 454.535338 304.550229 
L 456.16513 303.921768 
L 457.794922 307.840827 
L 459.424714 308.102097 
L 461.054506 305.567066 
L 462.684298 303.300367 
L 464.31409 305.913073 
L 465.943881 306.086077 
L 467.573673 306.068423 
L 469.203465 309.479064 
L 470.833257 306.587434 
L 472.463049 309.542616 
L 474.092841 308.571678 
L 474.092841 308.571678 
" clip-path="url(#p4da7b6fb0d)" style="fill: none; stroke-dasharray: 1.75,2.8875; stroke-dashoffset: 0; stroke: #9fc377; stroke-width: 1.75"/>
   </g>
   <g id="patch_3">
    <path d="M 47.98375 326.855625 
L 47.98375 21.935625 
" style="fill: none; stroke: #cccccc; stroke-width: 1.25; stroke-linejoin: miter; stroke-linecap: square"/>
   </g>
   <g id="patch_4">
    <path d="M 494.38375 326.855625 
L 494.38375 21.935625 
" style="fill: none; stroke: #cccccc; stroke-width: 1.25; stroke-linejoin: miter; stroke-linecap: square"/>
   </g>
   <g id="patch_5">
    <path d="M 47.98375 326.855625 
L 494.38375 326.855625 
" style="fill: none; stroke: #cccccc; stroke-width: 1.25; stroke-linejoin: miter; stroke-linecap: square"/>
   </g>
   <g id="patch_6">
    <path d="M 47.98375 21.935625 
L 494.38375 21.935625 
" style="fill: none; stroke: #cccccc; stroke-width: 1.25; stroke-linejoin: miter; stroke-linecap: square"/>
   </g>
   <g id="text_36">
    <!-- "Sugimoto_dG" for dataset Mouse_non_tata -->
    <g style="fill: #262626" transform="translate(153.858437 15.935625) scale(0.12 -0.12)">
     <defs>
      <path id="ArialMT-22" d="M 450 2959 
L 294 3831 
L 294 4581 
L 934 4581 
L 934 3831 
L 794 2959 
L 450 2959 
z
M 1484 2959 
L 1331 3831 
L 1331 4581 
L 1972 4581 
L 1972 3831 
L 1822 2959 
L 1484 2959 
z
" transform="scale(0.015625)"/>
      <path id="ArialMT-20" transform="scale(0.015625)"/>
      <path id="ArialMT-66" d="M 556 0 
L 556 2881 
L 59 2881 
L 59 3319 
L 556 3319 
L 556 3672 
Q 556 4006 616 4169 
Q 697 4388 901 4523 
Q 1106 4659 1475 4659 
Q 1713 4659 2000 4603 
L 1916 4113 
Q 1741 4144 1584 4144 
Q 1328 4144 1222 4034 
Q 1116 3925 1116 3625 
L 1116 3319 
L 1763 3319 
L 1763 2881 
L 1116 2881 
L 1116 0 
L 556 0 
z
" transform="scale(0.015625)"/>
      <path id="ArialMT-72" d="M 416 0 
L 416 3319 
L 922 3319 
L 922 2816 
Q 1116 3169 1280 3281 
Q 1444 3394 1641 3394 
Q 1925 3394 2219 3213 
L 2025 2691 
Q 1819 2813 1613 2813 
Q 1428 2813 1281 2702 
Q 1134 2591 1072 2394 
Q 978 2094 978 1738 
L 978 0 
L 416 0 
z
" transform="scale(0.015625)"/>
      <path id="ArialMT-61" d="M 2588 409 
Q 2275 144 1986 34 
Q 1697 -75 1366 -75 
Q 819 -75 525 192 
Q 231 459 231 875 
Q 231 1119 342 1320 
Q 453 1522 633 1644 
Q 813 1766 1038 1828 
Q 1203 1872 1538 1913 
Q 2219 1994 2541 2106 
Q 2544 2222 2544 2253 
Q 2544 2597 2384 2738 
Q 2169 2928 1744 2928 
Q 1347 2928 1158 2789 
Q 969 2650 878 2297 
L 328 2372 
Q 403 2725 575 2942 
Q 747 3159 1072 3276 
Q 1397 3394 1825 3394 
Q 2250 3394 2515 3294 
Q 2781 3194 2906 3042 
Q 3031 2891 3081 2659 
Q 3109 2516 3109 2141 
L 3109 1391 
Q 3109 606 3145 398 
Q 3181 191 3288 0 
L 2700 0 
Q 2613 175 2588 409 
z
M 2541 1666 
Q 2234 1541 1622 1453 
Q 1275 1403 1131 1340 
Q 988 1278 909 1158 
Q 831 1038 831 891 
Q 831 666 1001 516 
Q 1172 366 1500 366 
Q 1825 366 2078 508 
Q 2331 650 2450 897 
Q 2541 1088 2541 1459 
L 2541 1666 
z
" transform="scale(0.015625)"/>
      <path id="ArialMT-65" d="M 2694 1069 
L 3275 997 
Q 3138 488 2766 206 
Q 2394 -75 1816 -75 
Q 1088 -75 661 373 
Q 234 822 234 1631 
Q 234 2469 665 2931 
Q 1097 3394 1784 3394 
Q 2450 3394 2872 2941 
Q 3294 2488 3294 1666 
Q 3294 1616 3291 1516 
L 816 1516 
Q 847 969 1125 678 
Q 1403 388 1819 388 
Q 2128 388 2347 550 
Q 2566 713 2694 1069 
z
M 847 1978 
L 2700 1978 
Q 2663 2397 2488 2606 
Q 2219 2931 1791 2931 
Q 1403 2931 1139 2672 
Q 875 2413 847 1978 
z
" transform="scale(0.015625)"/>
      <path id="ArialMT-4d" d="M 475 0 
L 475 4581 
L 1388 4581 
L 2472 1338 
Q 2622 884 2691 659 
Q 2769 909 2934 1394 
L 4031 4581 
L 4847 4581 
L 4847 0 
L 4263 0 
L 4263 3834 
L 2931 0 
L 2384 0 
L 1059 3900 
L 1059 0 
L 475 0 
z
" transform="scale(0.015625)"/>
     </defs>
     <use xlink:href="#ArialMT-22"/>
     <use xlink:href="#ArialMT-53" x="35.498047"/>
     <use xlink:href="#ArialMT-75" x="102.197266"/>
     <use xlink:href="#ArialMT-67" x="157.8125"/>
     <use xlink:href="#ArialMT-69" x="213.427734"/>
     <use xlink:href="#ArialMT-6d" x="235.644531"/>
     <use xlink:href="#ArialMT-6f" x="318.945312"/>
     <use xlink:href="#ArialMT-74" x="374.560547"/>
     <use xlink:href="#ArialMT-6f" x="402.34375"/>
     <use xlink:href="#ArialMT-5f" x="457.958984"/>
     <use xlink:href="#ArialMT-64" x="513.574219"/>
     <use xlink:href="#ArialMT-47" x="569.189453"/>
     <use xlink:href="#ArialMT-22" x="646.972656"/>
     <use xlink:href="#ArialMT-20" x="682.470703"/>
     <use xlink:href="#ArialMT-66" x="710.253906"/>
     <use xlink:href="#ArialMT-6f" x="738.037109"/>
     <use xlink:href="#ArialMT-72" x="793.652344"/>
     <use xlink:href="#ArialMT-20" x="826.953125"/>
     <use xlink:href="#ArialMT-64" x="854.736328"/>
     <use xlink:href="#ArialMT-61" x="910.351562"/>
     <use xlink:href="#ArialMT-74" x="965.966797"/>
     <use xlink:href="#ArialMT-61" x="993.75"/>
     <use xlink:href="#ArialMT-73" x="1049.365234"/>
     <use xlink:href="#ArialMT-65" x="1099.365234"/>
     <use xlink:href="#ArialMT-74" x="1154.980469"/>
     <use xlink:href="#ArialMT-20" x="1182.763672"/>
     <use xlink:href="#ArialMT-4d" x="1210.546875"/>
     <use xlink:href="#ArialMT-6f" x="1293.847656"/>
     <use xlink:href="#ArialMT-75" x="1349.462891"/>
     <use xlink:href="#ArialMT-73" x="1405.078125"/>
     <use xlink:href="#ArialMT-65" x="1455.078125"/>
     <use xlink:href="#ArialMT-5f" x="1510.693359"/>
     <use xlink:href="#ArialMT-6e" x="1566.308594"/>
     <use xlink:href="#ArialMT-6f" x="1621.923828"/>
     <use xlink:href="#ArialMT-6e" x="1677.539062"/>
     <use xlink:href="#ArialMT-5f" x="1733.154297"/>
     <use xlink:href="#ArialMT-74" x="1788.769531"/>
     <use xlink:href="#ArialMT-61" x="1816.552734"/>
     <use xlink:href="#ArialMT-74" x="1872.167969"/>
     <use xlink:href="#ArialMT-61" x="1899.951172"/>
    </g>
   </g>
   <g id="legend_1">
    <g id="line2d_36">
     <path d="M 56.98375 34.593437 
L 66.98375 34.593437 
L 76.98375 34.593437 
" style="fill: none; stroke: #0272a2; stroke-width: 1.75; stroke-linecap: round"/>
    </g>
    <g id="text_37">
     <!-- Promoter -->
     <g style="fill: #262626" transform="translate(84.98375 38.093437) scale(0.1 -0.1)">
      <use xlink:href="#ArialMT-50"/>
      <use xlink:href="#ArialMT-72" x="66.699219"/>
      <use xlink:href="#ArialMT-6f" x="100"/>
      <use xlink:href="#ArialMT-6d" x="155.615234"/>
      <use xlink:href="#ArialMT-6f" x="238.916016"/>
      <use xlink:href="#ArialMT-74" x="294.53125"/>
      <use xlink:href="#ArialMT-65" x="322.314453"/>
      <use xlink:href="#ArialMT-72" x="377.929688"/>
     </g>
    </g>
    <g id="line2d_37">
     <path d="M 56.98375 48.73875 
L 66.98375 48.73875 
L 76.98375 48.73875 
" style="fill: none; stroke-dasharray: 1.75,2.8875; stroke-dashoffset: 0; stroke: #9fc377; stroke-width: 1.75"/>
    </g>
    <g id="text_38">
     <!-- Non-promoter -->
     <g style="fill: #262626" transform="translate(84.98375 52.23875) scale(0.1 -0.1)">
      <defs>
       <path id="ArialMT-4e" d="M 488 0 
L 488 4581 
L 1109 4581 
L 3516 984 
L 3516 4581 
L 4097 4581 
L 4097 0 
L 3475 0 
L 1069 3600 
L 1069 0 
L 488 0 
z
" transform="scale(0.015625)"/>
       <path id="ArialMT-70" d="M 422 -1272 
L 422 3319 
L 934 3319 
L 934 2888 
Q 1116 3141 1344 3267 
Q 1572 3394 1897 3394 
Q 2322 3394 2647 3175 
Q 2972 2956 3137 2557 
Q 3303 2159 3303 1684 
Q 3303 1175 3120 767 
Q 2938 359 2589 142 
Q 2241 -75 1856 -75 
Q 1575 -75 1351 44 
Q 1128 163 984 344 
L 984 -1272 
L 422 -1272 
z
M 931 1641 
Q 931 1000 1190 694 
Q 1450 388 1819 388 
Q 2194 388 2461 705 
Q 2728 1022 2728 1688 
Q 2728 2322 2467 2637 
Q 2206 2953 1844 2953 
Q 1484 2953 1207 2617 
Q 931 2281 931 1641 
z
" transform="scale(0.015625)"/>
      </defs>
      <use xlink:href="#ArialMT-4e"/>
      <use xlink:href="#ArialMT-6f" x="72.216797"/>
      <use xlink:href="#ArialMT-6e" x="127.832031"/>
      <use xlink:href="#ArialMT-2d" x="183.447266"/>
      <use xlink:href="#ArialMT-70" x="216.748047"/>
      <use xlink:href="#ArialMT-72" x="272.363281"/>
      <use xlink:href="#ArialMT-6f" x="305.664062"/>
      <use xlink:href="#ArialMT-6d" x="361.279297"/>
      <use xlink:href="#ArialMT-6f" x="444.580078"/>
      <use xlink:href="#ArialMT-74" x="500.195312"/>
      <use xlink:href="#ArialMT-65" x="527.978516"/>
      <use xlink:href="#ArialMT-72" x="583.59375"/>
     </g>
    </g>
   </g>
  </g>
 </g>
 <defs>
  <clipPath id="p4da7b6fb0d">
   <rect x="47.98375" y="21.935625" width="446.4" height="304.92"/>
  </clipPath>
 </defs>
</svg>
