<?xml version="1.0" encoding="utf-8" standalone="no"?>
<!DOCTYPE svg PUBLIC "-//W3C//DTD SVG 1.1//EN"
  "http://www.w3.org/Graphics/SVG/1.1/DTD/svg11.dtd">
<svg xmlns:xlink="http://www.w3.org/1999/xlink" width="501.729375pt" height="375.733156pt" viewBox="0 0 501.729375 375.733156" xmlns="http://www.w3.org/2000/svg" version="1.1">
 <metadata>
  <rdf:RDF xmlns:dc="http://purl.org/dc/elements/1.1/" xmlns:cc="http://creativecommons.org/ns#" xmlns:rdf="http://www.w3.org/1999/02/22-rdf-syntax-ns#">
   <cc:Work>
    <dc:type rdf:resource="http://purl.org/dc/dcmitype/StillImage"/>
    <dc:date>2023-05-11T16:25:31.866809</dc:date>
    <dc:format>image/svg+xml</dc:format>
    <dc:creator>
     <cc:Agent>
      <dc:title>Matplotlib v3.7.1, https://matplotlib.org/</dc:title>
     </cc:Agent>
    </dc:creator>
   </cc:Work>
  </rdf:RDF>
 </metadata>
 <defs>
  <style type="text/css">*{stroke-linejoin: round; stroke-linecap: butt}</style>
 </defs>
 <g id="figure_1">
  <g id="patch_1">
   <path d="M 0 375.733156 
L 501.729375 375.733156 
L 501.729375 0 
L 0 0 
z
" style="fill: #ffffff"/>
  </g>
  <g id="axes_1">
   <g id="patch_2">
    <path d="M 48.129375 326.855625 
L 494.529375 326.855625 
L 494.529375 21.935625 
L 48.129375 21.935625 
z
" style="fill: #ffffff"/>
   </g>
   <g id="matplotlib.axis_1">
    <g id="xtick_1">
     <g id="line2d_1"/>
     <g id="text_1">
      <!-- -200 -->
      <g style="fill: #262626" transform="translate(63.172778 353.067937) rotate(-45) scale(0.1 -0.1)">
       <defs>
        <path id="ArialMT-2d" d="M 203 1375 
L 203 1941 
L 1931 1941 
L 1931 1375 
L 203 1375 
z
" transform="scale(0.015625)"/>
        <path id="ArialMT-32" d="M 3222 541 
L 3222 0 
L 194 0 
Q 188 203 259 391 
Q 375 700 629 1000 
Q 884 1300 1366 1694 
Q 2113 2306 2375 2664 
Q 2638 3022 2638 3341 
Q 2638 3675 2398 3904 
Q 2159 4134 1775 4134 
Q 1369 4134 1125 3890 
Q 881 3647 878 3216 
L 300 3275 
Q 359 3922 746 4261 
Q 1134 4600 1788 4600 
Q 2447 4600 2831 4234 
Q 3216 3869 3216 3328 
Q 3216 3053 3103 2787 
Q 2991 2522 2730 2228 
Q 2469 1934 1863 1422 
Q 1356 997 1212 845 
Q 1069 694 975 541 
L 3222 541 
z
" transform="scale(0.015625)"/>
        <path id="ArialMT-30" d="M 266 2259 
Q 266 3072 433 3567 
Q 600 4063 929 4331 
Q 1259 4600 1759 4600 
Q 2128 4600 2406 4451 
Q 2684 4303 2865 4023 
Q 3047 3744 3150 3342 
Q 3253 2941 3253 2259 
Q 3253 1453 3087 958 
Q 2922 463 2592 192 
Q 2263 -78 1759 -78 
Q 1097 -78 719 397 
Q 266 969 266 2259 
z
M 844 2259 
Q 844 1131 1108 757 
Q 1372 384 1759 384 
Q 2147 384 2411 759 
Q 2675 1134 2675 2259 
Q 2675 3391 2411 3762 
Q 2147 4134 1753 4134 
Q 1366 4134 1134 3806 
Q 844 3388 844 2259 
z
" transform="scale(0.015625)"/>
       </defs>
       <use xlink:href="#ArialMT-2d"/>
       <use xlink:href="#ArialMT-32" x="33.300781"/>
       <use xlink:href="#ArialMT-30" x="88.916016"/>
       <use xlink:href="#ArialMT-30" x="144.53125"/>
      </g>
     </g>
    </g>
    <g id="xtick_2">
     <g id="line2d_2"/>
     <g id="text_2">
      <!-- -190 -->
      <g style="fill: #262626" transform="translate(79.470697 353.067937) rotate(-45) scale(0.1 -0.1)">
       <defs>
        <path id="ArialMT-31" d="M 2384 0 
L 1822 0 
L 1822 3584 
Q 1619 3391 1289 3197 
Q 959 3003 697 2906 
L 697 3450 
Q 1169 3672 1522 3987 
Q 1875 4303 2022 4600 
L 2384 4600 
L 2384 0 
z
" transform="scale(0.015625)"/>
        <path id="ArialMT-39" d="M 350 1059 
L 891 1109 
Q 959 728 1153 556 
Q 1347 384 1650 384 
Q 1909 384 2104 503 
Q 2300 622 2425 820 
Q 2550 1019 2634 1356 
Q 2719 1694 2719 2044 
Q 2719 2081 2716 2156 
Q 2547 1888 2255 1720 
Q 1963 1553 1622 1553 
Q 1053 1553 659 1965 
Q 266 2378 266 3053 
Q 266 3750 677 4175 
Q 1088 4600 1706 4600 
Q 2153 4600 2523 4359 
Q 2894 4119 3086 3673 
Q 3278 3228 3278 2384 
Q 3278 1506 3087 986 
Q 2897 466 2520 194 
Q 2144 -78 1638 -78 
Q 1100 -78 759 220 
Q 419 519 350 1059 
z
M 2653 3081 
Q 2653 3566 2395 3850 
Q 2138 4134 1775 4134 
Q 1400 4134 1122 3828 
Q 844 3522 844 3034 
Q 844 2597 1108 2323 
Q 1372 2050 1759 2050 
Q 2150 2050 2401 2323 
Q 2653 2597 2653 3081 
z
" transform="scale(0.015625)"/>
       </defs>
       <use xlink:href="#ArialMT-2d"/>
       <use xlink:href="#ArialMT-31" x="33.300781"/>
       <use xlink:href="#ArialMT-39" x="88.916016"/>
       <use xlink:href="#ArialMT-30" x="144.53125"/>
      </g>
     </g>
    </g>
    <g id="xtick_3">
     <g id="line2d_3"/>
     <g id="text_3">
      <!-- -180 -->
      <g style="fill: #262626" transform="translate(95.768616 353.067937) rotate(-45) scale(0.1 -0.1)">
       <defs>
        <path id="ArialMT-38" d="M 1131 2484 
Q 781 2613 612 2850 
Q 444 3088 444 3419 
Q 444 3919 803 4259 
Q 1163 4600 1759 4600 
Q 2359 4600 2725 4251 
Q 3091 3903 3091 3403 
Q 3091 3084 2923 2848 
Q 2756 2613 2416 2484 
Q 2838 2347 3058 2040 
Q 3278 1734 3278 1309 
Q 3278 722 2862 322 
Q 2447 -78 1769 -78 
Q 1091 -78 675 323 
Q 259 725 259 1325 
Q 259 1772 486 2073 
Q 713 2375 1131 2484 
z
M 1019 3438 
Q 1019 3113 1228 2906 
Q 1438 2700 1772 2700 
Q 2097 2700 2305 2904 
Q 2513 3109 2513 3406 
Q 2513 3716 2298 3927 
Q 2084 4138 1766 4138 
Q 1444 4138 1231 3931 
Q 1019 3725 1019 3438 
z
M 838 1322 
Q 838 1081 952 856 
Q 1066 631 1291 507 
Q 1516 384 1775 384 
Q 2178 384 2440 643 
Q 2703 903 2703 1303 
Q 2703 1709 2433 1975 
Q 2163 2241 1756 2241 
Q 1359 2241 1098 1978 
Q 838 1716 838 1322 
z
" transform="scale(0.015625)"/>
       </defs>
       <use xlink:href="#ArialMT-2d"/>
       <use xlink:href="#ArialMT-31" x="33.300781"/>
       <use xlink:href="#ArialMT-38" x="88.916016"/>
       <use xlink:href="#ArialMT-30" x="144.53125"/>
      </g>
     </g>
    </g>
    <g id="xtick_4">
     <g id="line2d_4"/>
     <g id="text_4">
      <!-- -170 -->
      <g style="fill: #262626" transform="translate(112.066535 353.067937) rotate(-45) scale(0.1 -0.1)">
       <defs>
        <path id="ArialMT-37" d="M 303 3981 
L 303 4522 
L 3269 4522 
L 3269 4084 
Q 2831 3619 2401 2847 
Q 1972 2075 1738 1259 
Q 1569 684 1522 0 
L 944 0 
Q 953 541 1156 1306 
Q 1359 2072 1739 2783 
Q 2119 3494 2547 3981 
L 303 3981 
z
" transform="scale(0.015625)"/>
       </defs>
       <use xlink:href="#ArialMT-2d"/>
       <use xlink:href="#ArialMT-31" x="33.300781"/>
       <use xlink:href="#ArialMT-37" x="88.916016"/>
       <use xlink:href="#ArialMT-30" x="144.53125"/>
      </g>
     </g>
    </g>
    <g id="xtick_5">
     <g id="line2d_5"/>
     <g id="text_5">
      <!-- -160 -->
      <g style="fill: #262626" transform="translate(128.364454 353.067937) rotate(-45) scale(0.1 -0.1)">
       <defs>
        <path id="ArialMT-36" d="M 3184 3459 
L 2625 3416 
Q 2550 3747 2413 3897 
Q 2184 4138 1850 4138 
Q 1581 4138 1378 3988 
Q 1113 3794 959 3422 
Q 806 3050 800 2363 
Q 1003 2672 1297 2822 
Q 1591 2972 1913 2972 
Q 2475 2972 2870 2558 
Q 3266 2144 3266 1488 
Q 3266 1056 3080 686 
Q 2894 316 2569 119 
Q 2244 -78 1831 -78 
Q 1128 -78 684 439 
Q 241 956 241 2144 
Q 241 3472 731 4075 
Q 1159 4600 1884 4600 
Q 2425 4600 2770 4297 
Q 3116 3994 3184 3459 
z
M 888 1484 
Q 888 1194 1011 928 
Q 1134 663 1356 523 
Q 1578 384 1822 384 
Q 2178 384 2434 671 
Q 2691 959 2691 1453 
Q 2691 1928 2437 2201 
Q 2184 2475 1800 2475 
Q 1419 2475 1153 2201 
Q 888 1928 888 1484 
z
" transform="scale(0.015625)"/>
       </defs>
       <use xlink:href="#ArialMT-2d"/>
       <use xlink:href="#ArialMT-31" x="33.300781"/>
       <use xlink:href="#ArialMT-36" x="88.916016"/>
       <use xlink:href="#ArialMT-30" x="144.53125"/>
      </g>
     </g>
    </g>
    <g id="xtick_6">
     <g id="line2d_6"/>
     <g id="text_6">
      <!-- -150 -->
      <g style="fill: #262626" transform="translate(144.662373 353.067937) rotate(-45) scale(0.1 -0.1)">
       <defs>
        <path id="ArialMT-35" d="M 266 1200 
L 856 1250 
Q 922 819 1161 601 
Q 1400 384 1738 384 
Q 2144 384 2425 690 
Q 2706 997 2706 1503 
Q 2706 1984 2436 2262 
Q 2166 2541 1728 2541 
Q 1456 2541 1237 2417 
Q 1019 2294 894 2097 
L 366 2166 
L 809 4519 
L 3088 4519 
L 3088 3981 
L 1259 3981 
L 1013 2750 
Q 1425 3038 1878 3038 
Q 2478 3038 2890 2622 
Q 3303 2206 3303 1553 
Q 3303 931 2941 478 
Q 2500 -78 1738 -78 
Q 1113 -78 717 272 
Q 322 622 266 1200 
z
" transform="scale(0.015625)"/>
       </defs>
       <use xlink:href="#ArialMT-2d"/>
       <use xlink:href="#ArialMT-31" x="33.300781"/>
       <use xlink:href="#ArialMT-35" x="88.916016"/>
       <use xlink:href="#ArialMT-30" x="144.53125"/>
      </g>
     </g>
    </g>
    <g id="xtick_7">
     <g id="line2d_7"/>
     <g id="text_7">
      <!-- -140 -->
      <g style="fill: #262626" transform="translate(160.960292 353.067937) rotate(-45) scale(0.1 -0.1)">
       <defs>
        <path id="ArialMT-34" d="M 2069 0 
L 2069 1097 
L 81 1097 
L 81 1613 
L 2172 4581 
L 2631 4581 
L 2631 1613 
L 3250 1613 
L 3250 1097 
L 2631 1097 
L 2631 0 
L 2069 0 
z
M 2069 1613 
L 2069 3678 
L 634 1613 
L 2069 1613 
z
" transform="scale(0.015625)"/>
       </defs>
       <use xlink:href="#ArialMT-2d"/>
       <use xlink:href="#ArialMT-31" x="33.300781"/>
       <use xlink:href="#ArialMT-34" x="88.916016"/>
       <use xlink:href="#ArialMT-30" x="144.53125"/>
      </g>
     </g>
    </g>
    <g id="xtick_8">
     <g id="line2d_8"/>
     <g id="text_8">
      <!-- -130 -->
      <g style="fill: #262626" transform="translate(177.258211 353.067937) rotate(-45) scale(0.1 -0.1)">
       <defs>
        <path id="ArialMT-33" d="M 269 1209 
L 831 1284 
Q 928 806 1161 595 
Q 1394 384 1728 384 
Q 2125 384 2398 659 
Q 2672 934 2672 1341 
Q 2672 1728 2419 1979 
Q 2166 2231 1775 2231 
Q 1616 2231 1378 2169 
L 1441 2663 
Q 1497 2656 1531 2656 
Q 1891 2656 2178 2843 
Q 2466 3031 2466 3422 
Q 2466 3731 2256 3934 
Q 2047 4138 1716 4138 
Q 1388 4138 1169 3931 
Q 950 3725 888 3313 
L 325 3413 
Q 428 3978 793 4289 
Q 1159 4600 1703 4600 
Q 2078 4600 2393 4439 
Q 2709 4278 2876 4000 
Q 3044 3722 3044 3409 
Q 3044 3113 2884 2869 
Q 2725 2625 2413 2481 
Q 2819 2388 3044 2092 
Q 3269 1797 3269 1353 
Q 3269 753 2831 336 
Q 2394 -81 1725 -81 
Q 1122 -81 723 278 
Q 325 638 269 1209 
z
" transform="scale(0.015625)"/>
       </defs>
       <use xlink:href="#ArialMT-2d"/>
       <use xlink:href="#ArialMT-31" x="33.300781"/>
       <use xlink:href="#ArialMT-33" x="88.916016"/>
       <use xlink:href="#ArialMT-30" x="144.53125"/>
      </g>
     </g>
    </g>
    <g id="xtick_9">
     <g id="line2d_9"/>
     <g id="text_9">
      <!-- -120 -->
      <g style="fill: #262626" transform="translate(193.55613 353.067937) rotate(-45) scale(0.1 -0.1)">
       <use xlink:href="#ArialMT-2d"/>
       <use xlink:href="#ArialMT-31" x="33.300781"/>
       <use xlink:href="#ArialMT-32" x="88.916016"/>
       <use xlink:href="#ArialMT-30" x="144.53125"/>
      </g>
     </g>
    </g>
    <g id="xtick_10">
     <g id="line2d_10"/>
     <g id="text_10">
      <!-- -110 -->
      <g style="fill: #262626" transform="translate(210.114795 352.546446) rotate(-45) scale(0.1 -0.1)">
       <use xlink:href="#ArialMT-2d"/>
       <use xlink:href="#ArialMT-31" x="33.300781"/>
       <use xlink:href="#ArialMT-31" x="81.541016"/>
       <use xlink:href="#ArialMT-30" x="137.15625"/>
      </g>
     </g>
    </g>
    <g id="xtick_11">
     <g id="line2d_11"/>
     <g id="text_11">
      <!-- -100 -->
      <g style="fill: #262626" transform="translate(226.151968 353.067937) rotate(-45) scale(0.1 -0.1)">
       <use xlink:href="#ArialMT-2d"/>
       <use xlink:href="#ArialMT-31" x="33.300781"/>
       <use xlink:href="#ArialMT-30" x="88.916016"/>
       <use xlink:href="#ArialMT-30" x="144.53125"/>
      </g>
     </g>
    </g>
    <g id="xtick_12">
     <g id="line2d_12"/>
     <g id="text_12">
      <!-- -90 -->
      <g style="fill: #262626" transform="translate(244.415975 349.135761) rotate(-45) scale(0.1 -0.1)">
       <use xlink:href="#ArialMT-2d"/>
       <use xlink:href="#ArialMT-39" x="33.300781"/>
       <use xlink:href="#ArialMT-30" x="88.916016"/>
      </g>
     </g>
    </g>
    <g id="xtick_13">
     <g id="line2d_13"/>
     <g id="text_13">
      <!-- -80 -->
      <g style="fill: #262626" transform="translate(260.713894 349.135761) rotate(-45) scale(0.1 -0.1)">
       <use xlink:href="#ArialMT-2d"/>
       <use xlink:href="#ArialMT-38" x="33.300781"/>
       <use xlink:href="#ArialMT-30" x="88.916016"/>
      </g>
     </g>
    </g>
    <g id="xtick_14">
     <g id="line2d_14"/>
     <g id="text_14">
      <!-- -70 -->
      <g style="fill: #262626" transform="translate(277.011813 349.135761) rotate(-45) scale(0.1 -0.1)">
       <use xlink:href="#ArialMT-2d"/>
       <use xlink:href="#ArialMT-37" x="33.300781"/>
       <use xlink:href="#ArialMT-30" x="88.916016"/>
      </g>
     </g>
    </g>
    <g id="xtick_15">
     <g id="line2d_15"/>
     <g id="text_15">
      <!-- -60 -->
      <g style="fill: #262626" transform="translate(293.309732 349.135761) rotate(-45) scale(0.1 -0.1)">
       <use xlink:href="#ArialMT-2d"/>
       <use xlink:href="#ArialMT-36" x="33.300781"/>
       <use xlink:href="#ArialMT-30" x="88.916016"/>
      </g>
     </g>
    </g>
    <g id="xtick_16">
     <g id="line2d_16"/>
     <g id="text_16">
      <!-- -50 -->
      <g style="fill: #262626" transform="translate(309.607651 349.135761) rotate(-45) scale(0.1 -0.1)">
       <use xlink:href="#ArialMT-2d"/>
       <use xlink:href="#ArialMT-35" x="33.300781"/>
       <use xlink:href="#ArialMT-30" x="88.916016"/>
      </g>
     </g>
    </g>
    <g id="xtick_17">
     <g id="line2d_17"/>
     <g id="text_17">
      <!-- -40 -->
      <g style="fill: #262626" transform="translate(325.90557 349.135761) rotate(-45) scale(0.1 -0.1)">
       <use xlink:href="#ArialMT-2d"/>
       <use xlink:href="#ArialMT-34" x="33.300781"/>
       <use xlink:href="#ArialMT-30" x="88.916016"/>
      </g>
     </g>
    </g>
    <g id="xtick_18">
     <g id="line2d_18"/>
     <g id="text_18">
      <!-- -30 -->
      <g style="fill: #262626" transform="translate(342.203489 349.135761) rotate(-45) scale(0.1 -0.1)">
       <use xlink:href="#ArialMT-2d"/>
       <use xlink:href="#ArialMT-33" x="33.300781"/>
       <use xlink:href="#ArialMT-30" x="88.916016"/>
      </g>
     </g>
    </g>
    <g id="xtick_19">
     <g id="line2d_19"/>
     <g id="text_19">
      <!-- -20 -->
      <g style="fill: #262626" transform="translate(358.501408 349.135761) rotate(-45) scale(0.1 -0.1)">
       <use xlink:href="#ArialMT-2d"/>
       <use xlink:href="#ArialMT-32" x="33.300781"/>
       <use xlink:href="#ArialMT-30" x="88.916016"/>
      </g>
     </g>
    </g>
    <g id="xtick_20">
     <g id="line2d_20"/>
     <g id="text_20">
      <!-- -10 -->
      <g style="fill: #262626" transform="translate(374.799327 349.135761) rotate(-45) scale(0.1 -0.1)">
       <use xlink:href="#ArialMT-2d"/>
       <use xlink:href="#ArialMT-31" x="33.300781"/>
       <use xlink:href="#ArialMT-30" x="88.916016"/>
      </g>
     </g>
    </g>
    <g id="xtick_21">
     <g id="line2d_21"/>
     <g id="text_21">
      <!-- 0 -->
      <g style="fill: #262626" transform="translate(394.240556 342.849139) rotate(-45) scale(0.1 -0.1)">
       <use xlink:href="#ArialMT-30"/>
      </g>
     </g>
    </g>
    <g id="xtick_22">
     <g id="line2d_22"/>
     <g id="text_22">
      <!-- 10 -->
      <g style="fill: #262626" transform="translate(408.572387 346.781316) rotate(-45) scale(0.1 -0.1)">
       <use xlink:href="#ArialMT-31"/>
       <use xlink:href="#ArialMT-30" x="55.615234"/>
      </g>
     </g>
    </g>
    <g id="xtick_23">
     <g id="line2d_23"/>
     <g id="text_23">
      <!-- 20 -->
      <g style="fill: #262626" transform="translate(424.870306 346.781316) rotate(-45) scale(0.1 -0.1)">
       <use xlink:href="#ArialMT-32"/>
       <use xlink:href="#ArialMT-30" x="55.615234"/>
      </g>
     </g>
    </g>
    <g id="xtick_24">
     <g id="line2d_24"/>
     <g id="text_24">
      <!-- 30 -->
      <g style="fill: #262626" transform="translate(441.168225 346.781316) rotate(-45) scale(0.1 -0.1)">
       <use xlink:href="#ArialMT-33"/>
       <use xlink:href="#ArialMT-30" x="55.615234"/>
      </g>
     </g>
    </g>
    <g id="xtick_25">
     <g id="line2d_25"/>
     <g id="text_25">
      <!-- 40 -->
      <g style="fill: #262626" transform="translate(457.466144 346.781316) rotate(-45) scale(0.1 -0.1)">
       <use xlink:href="#ArialMT-34"/>
       <use xlink:href="#ArialMT-30" x="55.615234"/>
      </g>
     </g>
    </g>
    <g id="xtick_26">
     <g id="line2d_26"/>
     <g id="text_26">
      <!-- 50 -->
      <g style="fill: #262626" transform="translate(473.764063 346.781316) rotate(-45) scale(0.1 -0.1)">
       <use xlink:href="#ArialMT-35"/>
       <use xlink:href="#ArialMT-30" x="55.615234"/>
      </g>
     </g>
    </g>
    <g id="text_27">
     <!-- Position -->
     <g style="fill: #262626" transform="translate(251.763125 366.346906) scale(0.11 -0.11)">
      <defs>
       <path id="ArialMT-50" d="M 494 0 
L 494 4581 
L 2222 4581 
Q 2678 4581 2919 4538 
Q 3256 4481 3484 4323 
Q 3713 4166 3852 3881 
Q 3991 3597 3991 3256 
Q 3991 2672 3619 2267 
Q 3247 1863 2275 1863 
L 1100 1863 
L 1100 0 
L 494 0 
z
M 1100 2403 
L 2284 2403 
Q 2872 2403 3119 2622 
Q 3366 2841 3366 3238 
Q 3366 3525 3220 3729 
Q 3075 3934 2838 4000 
Q 2684 4041 2272 4041 
L 1100 4041 
L 1100 2403 
z
" transform="scale(0.015625)"/>
       <path id="ArialMT-6f" d="M 213 1659 
Q 213 2581 725 3025 
Q 1153 3394 1769 3394 
Q 2453 3394 2887 2945 
Q 3322 2497 3322 1706 
Q 3322 1066 3130 698 
Q 2938 331 2570 128 
Q 2203 -75 1769 -75 
Q 1072 -75 642 372 
Q 213 819 213 1659 
z
M 791 1659 
Q 791 1022 1069 705 
Q 1347 388 1769 388 
Q 2188 388 2466 706 
Q 2744 1025 2744 1678 
Q 2744 2294 2464 2611 
Q 2184 2928 1769 2928 
Q 1347 2928 1069 2612 
Q 791 2297 791 1659 
z
" transform="scale(0.015625)"/>
       <path id="ArialMT-73" d="M 197 991 
L 753 1078 
Q 800 744 1014 566 
Q 1228 388 1613 388 
Q 2000 388 2187 545 
Q 2375 703 2375 916 
Q 2375 1106 2209 1216 
Q 2094 1291 1634 1406 
Q 1016 1563 777 1677 
Q 538 1791 414 1992 
Q 291 2194 291 2438 
Q 291 2659 392 2848 
Q 494 3038 669 3163 
Q 800 3259 1026 3326 
Q 1253 3394 1513 3394 
Q 1903 3394 2198 3281 
Q 2494 3169 2634 2976 
Q 2775 2784 2828 2463 
L 2278 2388 
Q 2241 2644 2061 2787 
Q 1881 2931 1553 2931 
Q 1166 2931 1000 2803 
Q 834 2675 834 2503 
Q 834 2394 903 2306 
Q 972 2216 1119 2156 
Q 1203 2125 1616 2013 
Q 2213 1853 2448 1751 
Q 2684 1650 2818 1456 
Q 2953 1263 2953 975 
Q 2953 694 2789 445 
Q 2625 197 2315 61 
Q 2006 -75 1616 -75 
Q 969 -75 630 194 
Q 291 463 197 991 
z
" transform="scale(0.015625)"/>
       <path id="ArialMT-69" d="M 425 3934 
L 425 4581 
L 988 4581 
L 988 3934 
L 425 3934 
z
M 425 0 
L 425 3319 
L 988 3319 
L 988 0 
L 425 0 
z
" transform="scale(0.015625)"/>
       <path id="ArialMT-74" d="M 1650 503 
L 1731 6 
Q 1494 -44 1306 -44 
Q 1000 -44 831 53 
Q 663 150 594 308 
Q 525 466 525 972 
L 525 2881 
L 113 2881 
L 113 3319 
L 525 3319 
L 525 4141 
L 1084 4478 
L 1084 3319 
L 1650 3319 
L 1650 2881 
L 1084 2881 
L 1084 941 
Q 1084 700 1114 631 
Q 1144 563 1211 522 
Q 1278 481 1403 481 
Q 1497 481 1650 503 
z
" transform="scale(0.015625)"/>
       <path id="ArialMT-6e" d="M 422 0 
L 422 3319 
L 928 3319 
L 928 2847 
Q 1294 3394 1984 3394 
Q 2284 3394 2536 3286 
Q 2788 3178 2913 3003 
Q 3038 2828 3088 2588 
Q 3119 2431 3119 2041 
L 3119 0 
L 2556 0 
L 2556 2019 
Q 2556 2363 2490 2533 
Q 2425 2703 2258 2804 
Q 2091 2906 1866 2906 
Q 1506 2906 1245 2678 
Q 984 2450 984 1813 
L 984 0 
L 422 0 
z
" transform="scale(0.015625)"/>
      </defs>
      <use xlink:href="#ArialMT-50"/>
      <use xlink:href="#ArialMT-6f" x="66.699219"/>
      <use xlink:href="#ArialMT-73" x="122.314453"/>
      <use xlink:href="#ArialMT-69" x="172.314453"/>
      <use xlink:href="#ArialMT-74" x="194.53125"/>
      <use xlink:href="#ArialMT-69" x="222.314453"/>
      <use xlink:href="#ArialMT-6f" x="244.53125"/>
      <use xlink:href="#ArialMT-6e" x="300.146484"/>
     </g>
    </g>
   </g>
   <g id="matplotlib.axis_2">
    <g id="ytick_1">
     <g id="line2d_27"/>
     <g id="text_28">
      <!-- −9.5 -->
      <g style="fill: #262626" transform="translate(21.38875 318.845543) scale(0.1 -0.1)">
       <defs>
        <path id="ArialMT-2212" d="M 3381 1997 
L 356 1997 
L 356 2522 
L 3381 2522 
L 3381 1997 
z
" transform="scale(0.015625)"/>
        <path id="ArialMT-2e" d="M 581 0 
L 581 641 
L 1222 641 
L 1222 0 
L 581 0 
z
" transform="scale(0.015625)"/>
       </defs>
       <use xlink:href="#ArialMT-2212"/>
       <use xlink:href="#ArialMT-39" x="58.398438"/>
       <use xlink:href="#ArialMT-2e" x="114.013672"/>
       <use xlink:href="#ArialMT-35" x="141.796875"/>
      </g>
     </g>
    </g>
    <g id="ytick_2">
     <g id="line2d_28"/>
     <g id="text_29">
      <!-- −9.0 -->
      <g style="fill: #262626" transform="translate(21.38875 259.016899) scale(0.1 -0.1)">
       <use xlink:href="#ArialMT-2212"/>
       <use xlink:href="#ArialMT-39" x="58.398438"/>
       <use xlink:href="#ArialMT-2e" x="114.013672"/>
       <use xlink:href="#ArialMT-30" x="141.796875"/>
      </g>
     </g>
    </g>
    <g id="ytick_3">
     <g id="line2d_29"/>
     <g id="text_30">
      <!-- −8.5 -->
      <g style="fill: #262626" transform="translate(21.38875 199.188255) scale(0.1 -0.1)">
       <use xlink:href="#ArialMT-2212"/>
       <use xlink:href="#ArialMT-38" x="58.398438"/>
       <use xlink:href="#ArialMT-2e" x="114.013672"/>
       <use xlink:href="#ArialMT-35" x="141.796875"/>
      </g>
     </g>
    </g>
    <g id="ytick_4">
     <g id="line2d_30"/>
     <g id="text_31">
      <!-- −8.0 -->
      <g style="fill: #262626" transform="translate(21.38875 139.359611) scale(0.1 -0.1)">
       <use xlink:href="#ArialMT-2212"/>
       <use xlink:href="#ArialMT-38" x="58.398438"/>
       <use xlink:href="#ArialMT-2e" x="114.013672"/>
       <use xlink:href="#ArialMT-30" x="141.796875"/>
      </g>
     </g>
    </g>
    <g id="ytick_5">
     <g id="line2d_31"/>
     <g id="text_32">
      <!-- −7.5 -->
      <g style="fill: #262626" transform="translate(21.38875 79.530967) scale(0.1 -0.1)">
       <use xlink:href="#ArialMT-2212"/>
       <use xlink:href="#ArialMT-37" x="58.398438"/>
       <use xlink:href="#ArialMT-2e" x="114.013672"/>
       <use xlink:href="#ArialMT-35" x="141.796875"/>
      </g>
     </g>
    </g>
    <g id="text_33">
     <!-- Base stacking -->
     <g style="fill: #262626" transform="translate(15.073594 208.634844) rotate(-90) scale(0.11 -0.11)">
      <defs>
       <path id="ArialMT-42" d="M 469 0 
L 469 4581 
L 2188 4581 
Q 2713 4581 3030 4442 
Q 3347 4303 3526 4014 
Q 3706 3725 3706 3409 
Q 3706 3116 3547 2856 
Q 3388 2597 3066 2438 
Q 3481 2316 3704 2022 
Q 3928 1728 3928 1328 
Q 3928 1006 3792 729 
Q 3656 453 3456 303 
Q 3256 153 2954 76 
Q 2653 0 2216 0 
L 469 0 
z
M 1075 2656 
L 2066 2656 
Q 2469 2656 2644 2709 
Q 2875 2778 2992 2937 
Q 3109 3097 3109 3338 
Q 3109 3566 3000 3739 
Q 2891 3913 2687 3977 
Q 2484 4041 1991 4041 
L 1075 4041 
L 1075 2656 
z
M 1075 541 
L 2216 541 
Q 2509 541 2628 563 
Q 2838 600 2978 687 
Q 3119 775 3209 942 
Q 3300 1109 3300 1328 
Q 3300 1584 3169 1773 
Q 3038 1963 2805 2039 
Q 2572 2116 2134 2116 
L 1075 2116 
L 1075 541 
z
" transform="scale(0.015625)"/>
       <path id="ArialMT-61" d="M 2588 409 
Q 2275 144 1986 34 
Q 1697 -75 1366 -75 
Q 819 -75 525 192 
Q 231 459 231 875 
Q 231 1119 342 1320 
Q 453 1522 633 1644 
Q 813 1766 1038 1828 
Q 1203 1872 1538 1913 
Q 2219 1994 2541 2106 
Q 2544 2222 2544 2253 
Q 2544 2597 2384 2738 
Q 2169 2928 1744 2928 
Q 1347 2928 1158 2789 
Q 969 2650 878 2297 
L 328 2372 
Q 403 2725 575 2942 
Q 747 3159 1072 3276 
Q 1397 3394 1825 3394 
Q 2250 3394 2515 3294 
Q 2781 3194 2906 3042 
Q 3031 2891 3081 2659 
Q 3109 2516 3109 2141 
L 3109 1391 
Q 3109 606 3145 398 
Q 3181 191 3288 0 
L 2700 0 
Q 2613 175 2588 409 
z
M 2541 1666 
Q 2234 1541 1622 1453 
Q 1275 1403 1131 1340 
Q 988 1278 909 1158 
Q 831 1038 831 891 
Q 831 666 1001 516 
Q 1172 366 1500 366 
Q 1825 366 2078 508 
Q 2331 650 2450 897 
Q 2541 1088 2541 1459 
L 2541 1666 
z
" transform="scale(0.015625)"/>
       <path id="ArialMT-65" d="M 2694 1069 
L 3275 997 
Q 3138 488 2766 206 
Q 2394 -75 1816 -75 
Q 1088 -75 661 373 
Q 234 822 234 1631 
Q 234 2469 665 2931 
Q 1097 3394 1784 3394 
Q 2450 3394 2872 2941 
Q 3294 2488 3294 1666 
Q 3294 1616 3291 1516 
L 816 1516 
Q 847 969 1125 678 
Q 1403 388 1819 388 
Q 2128 388 2347 550 
Q 2566 713 2694 1069 
z
M 847 1978 
L 2700 1978 
Q 2663 2397 2488 2606 
Q 2219 2931 1791 2931 
Q 1403 2931 1139 2672 
Q 875 2413 847 1978 
z
" transform="scale(0.015625)"/>
       <path id="ArialMT-20" transform="scale(0.015625)"/>
       <path id="ArialMT-63" d="M 2588 1216 
L 3141 1144 
Q 3050 572 2676 248 
Q 2303 -75 1759 -75 
Q 1078 -75 664 370 
Q 250 816 250 1647 
Q 250 2184 428 2587 
Q 606 2991 970 3192 
Q 1334 3394 1763 3394 
Q 2303 3394 2647 3120 
Q 2991 2847 3088 2344 
L 2541 2259 
Q 2463 2594 2264 2762 
Q 2066 2931 1784 2931 
Q 1359 2931 1093 2626 
Q 828 2322 828 1663 
Q 828 994 1084 691 
Q 1341 388 1753 388 
Q 2084 388 2306 591 
Q 2528 794 2588 1216 
z
" transform="scale(0.015625)"/>
       <path id="ArialMT-6b" d="M 425 0 
L 425 4581 
L 988 4581 
L 988 1969 
L 2319 3319 
L 3047 3319 
L 1778 2088 
L 3175 0 
L 2481 0 
L 1384 1697 
L 988 1316 
L 988 0 
L 425 0 
z
" transform="scale(0.015625)"/>
       <path id="ArialMT-67" d="M 319 -275 
L 866 -356 
Q 900 -609 1056 -725 
Q 1266 -881 1628 -881 
Q 2019 -881 2231 -725 
Q 2444 -569 2519 -288 
Q 2563 -116 2559 434 
Q 2191 0 1641 0 
Q 956 0 581 494 
Q 206 988 206 1678 
Q 206 2153 378 2554 
Q 550 2956 876 3175 
Q 1203 3394 1644 3394 
Q 2231 3394 2613 2919 
L 2613 3319 
L 3131 3319 
L 3131 450 
Q 3131 -325 2973 -648 
Q 2816 -972 2473 -1159 
Q 2131 -1347 1631 -1347 
Q 1038 -1347 672 -1080 
Q 306 -813 319 -275 
z
M 784 1719 
Q 784 1066 1043 766 
Q 1303 466 1694 466 
Q 2081 466 2343 764 
Q 2606 1063 2606 1700 
Q 2606 2309 2336 2618 
Q 2066 2928 1684 2928 
Q 1309 2928 1046 2623 
Q 784 2319 784 1719 
z
" transform="scale(0.015625)"/>
      </defs>
      <use xlink:href="#ArialMT-42"/>
      <use xlink:href="#ArialMT-61" x="66.699219"/>
      <use xlink:href="#ArialMT-73" x="122.314453"/>
      <use xlink:href="#ArialMT-65" x="172.314453"/>
      <use xlink:href="#ArialMT-20" x="227.929688"/>
      <use xlink:href="#ArialMT-73" x="255.712891"/>
      <use xlink:href="#ArialMT-74" x="305.712891"/>
      <use xlink:href="#ArialMT-61" x="333.496094"/>
      <use xlink:href="#ArialMT-63" x="389.111328"/>
      <use xlink:href="#ArialMT-6b" x="439.111328"/>
      <use xlink:href="#ArialMT-69" x="489.111328"/>
      <use xlink:href="#ArialMT-6e" x="511.328125"/>
      <use xlink:href="#ArialMT-67" x="566.943359"/>
     </g>
    </g>
   </g>
   <g id="line2d_32">
    <path d="M 68.420284 161.567685 
L 70.050076 162.343918 
L 71.679868 161.990744 
L 73.30966 168.039893 
L 74.939452 168.903206 
L 76.569244 162.846415 
L 78.199035 161.08275 
L 79.828827 162.882497 
L 81.458619 169.098385 
L 83.088411 166.401595 
L 84.718203 167.823182 
L 86.347995 167.993155 
L 87.977787 164.741399 
L 89.607579 167.885204 
L 91.237371 167.074286 
L 94.496954 173.842422 
L 96.126746 168.930323 
L 97.756538 171.931565 
L 99.38633 171.881962 
L 101.016122 170.837652 
L 102.645914 167.357428 
L 104.275706 167.010868 
L 105.905498 172.854844 
L 107.53529 167.164601 
L 109.165081 169.567814 
L 110.794873 173.299581 
L 112.424665 168.870358 
L 114.054457 176.397311 
L 115.684249 174.393053 
L 117.314041 174.239467 
L 118.943833 170.779745 
L 120.573625 177.672367 
L 123.833209 173.639086 
L 125.463 177.457641 
L 127.092792 174.287086 
L 128.722584 169.496018 
L 130.352376 176.336905 
L 131.982168 177.681846 
L 133.61196 173.475727 
L 135.241752 178.263782 
L 136.871544 173.142174 
L 138.501336 172.327875 
L 140.131127 172.942439 
L 141.760919 176.020401 
L 143.390711 177.332935 
L 145.020503 174.019671 
L 146.650295 175.426634 
L 148.280087 179.849757 
L 149.909879 177.594618 
L 151.539671 181.406559 
L 153.169463 176.637316 
L 154.799255 175.53407 
L 156.429046 178.959695 
L 158.058838 180.796257 
L 159.68863 181.062938 
L 161.318422 182.724604 
L 162.948214 180.055224 
L 164.578006 178.040017 
L 166.207798 177.548175 
L 167.83759 182.515316 
L 169.467382 185.265236 
L 171.097173 183.373265 
L 172.726965 184.537284 
L 174.356757 186.408091 
L 175.986549 185.092471 
L 177.616341 180.373713 
L 179.246133 182.949471 
L 180.875925 185.770453 
L 182.505717 186.846582 
L 184.135509 184.061756 
L 185.765301 190.877437 
L 187.395092 185.070719 
L 189.024884 188.749282 
L 190.654676 187.243994 
L 193.91426 191.662047 
L 195.544052 188.714964 
L 197.173844 190.268165 
L 198.803636 188.987891 
L 200.433428 185.846952 
L 202.063219 192.201288 
L 203.693011 190.638755 
L 205.322803 190.058656 
L 206.952595 192.111268 
L 208.582387 186.286251 
L 210.212179 191.056008 
L 211.841971 194.21385 
L 213.471763 188.319609 
L 215.101555 192.348848 
L 216.731347 192.345908 
L 218.361138 191.744646 
L 219.99093 196.096708 
L 221.620722 196.961786 
L 223.250514 197.30232 
L 224.880306 194.693125 
L 226.510098 193.492731 
L 228.13989 197.207229 
L 229.769682 196.920928 
L 231.399474 194.765509 
L 233.029265 198.905271 
L 234.659057 191.748394 
L 236.288849 199.476183 
L 237.918641 195.221269 
L 239.548433 201.472137 
L 241.178225 202.570974 
L 242.808017 199.488309 
L 244.437809 201.159895 
L 246.067601 204.134462 
L 247.697393 199.8273 
L 249.327184 201.712731 
L 250.956976 201.953324 
L 252.586768 202.755644 
L 254.21656 205.000789 
L 255.846352 206.357047 
L 257.476144 201.114995 
L 259.105936 209.846384 
L 260.735728 205.282461 
L 262.36552 203.085964 
L 263.995311 207.889451 
L 265.625103 206.152388 
L 267.254895 206.490718 
L 268.884687 209.2959 
L 270.514479 210.457273 
L 272.144271 211.843587 
L 273.774063 210.916928 
L 275.403855 210.657229 
L 277.033647 207.06435 
L 278.663439 213.703298 
L 280.29323 212.260253 
L 283.552814 207.556486 
L 285.182606 215.63745 
L 286.812398 212.493644 
L 288.44219 212.104609 
L 290.071982 212.955136 
L 291.701774 215.230484 
L 293.331566 218.138326 
L 294.961357 212.029066 
L 296.591149 211.893484 
L 298.220941 215.500766 
L 299.850733 211.559416 
L 301.480525 215.319108 
L 303.110317 215.303823 
L 304.740109 217.274865 
L 306.369901 221.264201 
L 307.999693 217.290371 
L 309.629485 211.072425 
L 311.259276 214.383264 
L 312.889068 212.566028 
L 314.51886 214.068744 
L 316.148652 216.725484 
L 317.778444 224.882432 
L 321.038028 228.639405 
L 322.66782 231.927316 
L 324.297612 226.557325 
L 325.927403 226.474507 
L 327.557195 227.454369 
L 330.816779 222.056968 
L 332.446571 227.527782 
L 334.076363 217.203878 
L 335.706155 221.771916 
L 337.335947 222.962095 
L 338.965739 220.224227 
L 340.595531 225.50574 
L 342.225322 222.004499 
L 343.855114 210.528114 
L 345.484906 201.01138 
L 347.114698 189.613478 
L 348.74449 173.353079 
L 350.374282 159.492586 
L 352.004074 177.580583 
L 355.263658 222.102603 
L 356.893449 234.314216 
L 358.523241 235.751823 
L 360.153033 237.47 
L 361.782825 238.042676 
L 363.412617 236.783199 
L 365.042409 236.021884 
L 366.672201 228.11905 
L 368.301993 221.061379 
L 369.931785 223.729436 
L 371.561577 240.065232 
L 373.191368 245.22226 
L 374.82116 227.275357 
L 376.450952 222.512434 
L 378.080744 216.359376 
L 379.710536 217.936533 
L 381.340328 224.024483 
L 382.97012 216.821456 
L 384.599912 216.894134 
L 386.229704 229.009333 
L 387.859495 194.029473 
L 389.489287 227.096419 
L 391.119079 312.995625 
L 392.748871 35.795625 
L 394.378663 212.01525 
L 396.008455 199.828843 
L 397.638247 159.014927 
L 399.268039 205.401949 
L 400.897831 204.759755 
L 402.527623 207.47962 
L 404.157414 225.205697 
L 405.787206 238.078023 
L 407.416998 225.543292 
L 409.04679 223.506921 
L 410.676582 216.162287 
L 412.306374 217.189842 
L 413.936166 254.845769 
L 415.565958 244.275319 
L 417.19575 238.282314 
L 418.825541 233.475667 
L 420.455333 229.829144 
L 422.085125 232.032989 
L 423.714917 231.389913 
L 425.344709 220.627665 
L 426.974501 224.540575 
L 428.604293 223.699087 
L 430.234085 221.194977 
L 431.863877 225.159915 
L 433.493669 235.437817 
L 435.12346 230.527996 
L 436.753252 217.63311 
L 438.383044 237.871968 
L 440.012836 235.416653 
L 441.642628 232.713543 
L 443.27242 236.712065 
L 444.902212 237.928185 
L 446.532004 228.869637 
L 448.161796 224.63302 
L 449.791587 216.399867 
L 451.421379 210.828377 
L 453.051171 213.768112 
L 454.680963 213.451535 
L 456.310755 213.443157 
L 457.940547 218.697628 
L 459.570339 215.530307 
L 461.200131 222.449898 
L 462.829923 222.4704 
L 464.459715 232.241249 
L 466.089506 230.415782 
L 467.719298 229.137567 
L 469.34909 232.133298 
L 470.978882 224.039841 
L 472.608674 222.894782 
L 474.238466 221.017214 
L 474.238466 221.017214 
" clip-path="url(#p0e2f388a49)" style="fill: none; stroke: #0272a2; stroke-width: 1.75; stroke-linecap: round"/>
   </g>
   <g id="line2d_33">
    <path d="M 68.420284 103.249802 
L 70.050076 101.012651 
L 71.679868 104.00553 
L 73.30966 99.191134 
L 74.939452 102.785432 
L 76.569244 99.345297 
L 78.199035 99.010843 
L 79.828827 103.488229 
L 81.458619 104.157379 
L 83.088411 101.440866 
L 84.718203 101.741239 
L 86.347995 100.719028 
L 87.977787 103.501438 
L 89.607579 101.749 
L 91.237371 102.520925 
L 92.867163 100.12479 
L 94.496954 98.97276 
L 96.126746 103.852282 
L 97.756538 100.155739 
L 99.38633 99.222613 
L 101.016122 102.155908 
L 102.645914 103.528723 
L 104.275706 96.261695 
L 105.905498 103.073078 
L 107.53529 102.598682 
L 109.165081 103.353397 
L 110.794873 103.068836 
L 112.424665 101.588377 
L 114.054457 101.600718 
L 115.684249 100.592824 
L 117.314041 102.337163 
L 118.943833 100.391033 
L 120.573625 102.539725 
L 122.203417 104.112113 
L 123.833209 102.25743 
L 125.463 102.60008 
L 127.092792 103.8948 
L 128.722584 101.469308 
L 130.352376 101.155245 
L 131.982168 102.039346 
L 133.61196 101.392757 
L 135.241752 102.464717 
L 136.871544 102.000781 
L 138.501336 104.735033 
L 140.131127 99.70612 
L 143.390711 101.91965 
L 145.020503 105.46902 
L 146.650295 105.272098 
L 148.280087 101.262022 
L 149.909879 97.960431 
L 151.539671 101.100338 
L 153.169463 103.595633 
L 154.799255 102.690514 
L 156.429046 102.606684 
L 158.058838 102.801822 
L 162.948214 99.88993 
L 164.578006 105.37926 
L 166.207798 102.715919 
L 167.83759 102.673401 
L 169.467382 100.2347 
L 171.097173 101.78448 
L 172.726965 101.148352 
L 174.356757 98.551872 
L 175.986549 105.81972 
L 177.616341 103.062328 
L 179.246133 102.997828 
L 180.875925 103.532724 
L 182.505717 104.261938 
L 184.135509 98.635028 
L 185.765301 99.380584 
L 187.395092 103.375909 
L 189.024884 103.154788 
L 190.654676 102.091601 
L 192.284468 100.302093 
L 193.91426 103.493388 
L 195.544052 101.118946 
L 197.173844 100.542641 
L 198.803636 102.049662 
L 200.433428 101.902103 
L 202.063219 99.089323 
L 203.693011 100.503112 
L 205.322803 99.067919 
L 206.952595 106.416994 
L 208.582387 100.529481 
L 210.212179 101.48054 
L 211.841971 104.556719 
L 213.471763 101.923024 
L 215.101555 102.157161 
L 216.731347 97.492687 
L 218.361138 100.048336 
L 219.99093 102.043588 
L 221.620722 103.395336 
L 223.250514 100.140457 
L 224.880306 102.743348 
L 226.510098 102.355144 
L 228.13989 101.329076 
L 229.769682 101.968386 
L 231.399474 103.203717 
L 233.029265 100.996117 
L 234.659057 97.115859 
L 236.288849 101.044323 
L 237.918641 103.621375 
L 239.548433 104.775285 
L 242.808017 99.599874 
L 244.437809 104.718257 
L 247.697393 99.708097 
L 249.327184 101.330378 
L 250.956976 101.798363 
L 252.586768 106.1266 
L 254.21656 101.436624 
L 255.846352 101.802316 
L 257.476144 98.211296 
L 259.105936 100.635631 
L 260.735728 102.109919 
L 262.36552 102.601622 
L 263.995311 102.921132 
L 265.625103 101.284437 
L 267.254895 102.41275 
L 268.884687 104.677861 
L 270.514479 101.127237 
L 272.144271 99.758231 
L 275.403855 102.809439 
L 277.033647 101.34214 
L 278.663439 102.085238 
L 280.29323 101.473598 
L 281.923022 100.190495 
L 283.552814 101.869033 
L 285.182606 100.293946 
L 286.812398 103.755243 
L 288.44219 99.648658 
L 290.071982 104.37127 
L 291.701774 101.207934 
L 293.331566 100.817609 
L 294.961357 103.19181 
L 296.591149 101.208175 
L 299.850733 102.484722 
L 301.480525 101.33597 
L 303.110317 101.184217 
L 304.740109 100.085888 
L 306.369901 102.540738 
L 307.999693 97.924951 
L 309.629485 101.093397 
L 311.259276 102.223975 
L 312.889068 102.786203 
L 314.51886 101.222637 
L 316.148652 101.971182 
L 317.778444 102.051638 
L 319.408236 102.870805 
L 321.038028 101.551644 
L 322.66782 99.358843 
L 324.297612 100.202884 
L 325.927403 102.101773 
L 327.557195 100.319543 
L 329.186987 104.323112 
L 330.816779 99.502401 
L 332.446571 100.504366 
L 334.076363 102.300816 
L 335.706155 100.558019 
L 337.335947 103.757268 
L 338.965739 102.089384 
L 340.595531 101.618313 
L 342.225322 102.883098 
L 343.855114 102.001166 
L 345.484906 99.838446 
L 347.114698 104.840894 
L 348.74449 99.706409 
L 350.374282 99.391238 
L 352.004074 99.476273 
L 353.633866 99.230325 
L 355.263658 101.429393 
L 356.893449 104.121562 
L 358.523241 101.815717 
L 360.153033 104.585208 
L 361.782825 102.33403 
L 363.412617 103.792748 
L 365.042409 104.197149 
L 366.672201 99.198558 
L 368.301993 98.516055 
L 369.931785 101.33327 
L 371.561577 99.62846 
L 373.191368 101.841363 
L 374.82116 101.825696 
L 376.450952 102.595355 
L 378.080744 99.660131 
L 379.710536 101.838181 
L 381.340328 102.694515 
L 382.97012 100.376571 
L 384.599912 104.818815 
L 386.229704 103.488567 
L 387.859495 104.000757 
L 389.489287 100.615818 
L 391.119079 102.789289 
L 392.748871 103.575965 
L 394.378663 101.196413 
L 397.638247 99.317675 
L 399.268039 99.845677 
L 400.897831 103.001058 
L 402.527623 99.89692 
L 404.157414 97.945584 
L 405.787206 103.255105 
L 407.416998 102.800231 
L 409.04679 100.92858 
L 410.676582 102.296574 
L 412.306374 100.288499 
L 413.936166 101.729043 
L 415.565958 99.930954 
L 417.19575 103.224494 
L 418.825541 101.922446 
L 420.455333 103.044974 
L 425.344709 102.43507 
L 426.974501 103.77925 
L 428.604293 102.350468 
L 430.234085 101.484541 
L 431.863877 104.176517 
L 433.493669 102.026185 
L 436.753252 103.605274 
L 438.383044 99.997574 
L 440.012836 103.413365 
L 441.642628 102.787601 
L 443.27242 100.265215 
L 444.902212 98.739057 
L 446.532004 101.639572 
L 448.161796 101.151292 
L 449.791587 102.424127 
L 451.421379 104.247042 
L 453.051171 104.134867 
L 454.680963 102.261094 
L 456.310755 102.318797 
L 457.940547 100.37903 
L 459.570339 100.316313 
L 461.200131 101.986319 
L 462.829923 102.85456 
L 464.459715 104.297514 
L 466.089506 103.666207 
L 467.719298 101.35853 
L 469.34909 101.82801 
L 470.978882 101.597874 
L 472.608674 99.955201 
L 474.238466 99.203282 
L 474.238466 99.203282 
" clip-path="url(#p0e2f388a49)" style="fill: none; stroke-dasharray: 1.75,2.8875; stroke-dashoffset: 0; stroke: #9fc377; stroke-width: 1.75"/>
   </g>
   <g id="patch_3">
    <path d="M 48.129375 326.855625 
L 48.129375 21.935625 
" style="fill: none; stroke: #cccccc; stroke-width: 1.25; stroke-linejoin: miter; stroke-linecap: square"/>
   </g>
   <g id="patch_4">
    <path d="M 494.529375 326.855625 
L 494.529375 21.935625 
" style="fill: none; stroke: #cccccc; stroke-width: 1.25; stroke-linejoin: miter; stroke-linecap: square"/>
   </g>
   <g id="patch_5">
    <path d="M 48.129375 326.855625 
L 494.529375 326.855625 
" style="fill: none; stroke: #cccccc; stroke-width: 1.25; stroke-linejoin: miter; stroke-linecap: square"/>
   </g>
   <g id="patch_6">
    <path d="M 48.129375 21.935625 
L 494.529375 21.935625 
" style="fill: none; stroke: #cccccc; stroke-width: 1.25; stroke-linejoin: miter; stroke-linecap: square"/>
   </g>
   <g id="text_34">
    <!-- "Base stacking" for dataset Mouse_non_tata -->
    <g style="fill: #262626" transform="translate(153.338438 15.935625) scale(0.12 -0.12)">
     <defs>
      <path id="ArialMT-22" d="M 450 2959 
L 294 3831 
L 294 4581 
L 934 4581 
L 934 3831 
L 794 2959 
L 450 2959 
z
M 1484 2959 
L 1331 3831 
L 1331 4581 
L 1972 4581 
L 1972 3831 
L 1822 2959 
L 1484 2959 
z
" transform="scale(0.015625)"/>
      <path id="ArialMT-66" d="M 556 0 
L 556 2881 
L 59 2881 
L 59 3319 
L 556 3319 
L 556 3672 
Q 556 4006 616 4169 
Q 697 4388 901 4523 
Q 1106 4659 1475 4659 
Q 1713 4659 2000 4603 
L 1916 4113 
Q 1741 4144 1584 4144 
Q 1328 4144 1222 4034 
Q 1116 3925 1116 3625 
L 1116 3319 
L 1763 3319 
L 1763 2881 
L 1116 2881 
L 1116 0 
L 556 0 
z
" transform="scale(0.015625)"/>
      <path id="ArialMT-72" d="M 416 0 
L 416 3319 
L 922 3319 
L 922 2816 
Q 1116 3169 1280 3281 
Q 1444 3394 1641 3394 
Q 1925 3394 2219 3213 
L 2025 2691 
Q 1819 2813 1613 2813 
Q 1428 2813 1281 2702 
Q 1134 2591 1072 2394 
Q 978 2094 978 1738 
L 978 0 
L 416 0 
z
" transform="scale(0.015625)"/>
      <path id="ArialMT-64" d="M 2575 0 
L 2575 419 
Q 2259 -75 1647 -75 
Q 1250 -75 917 144 
Q 584 363 401 755 
Q 219 1147 219 1656 
Q 219 2153 384 2558 
Q 550 2963 881 3178 
Q 1213 3394 1622 3394 
Q 1922 3394 2156 3267 
Q 2391 3141 2538 2938 
L 2538 4581 
L 3097 4581 
L 3097 0 
L 2575 0 
z
M 797 1656 
Q 797 1019 1065 703 
Q 1334 388 1700 388 
Q 2069 388 2326 689 
Q 2584 991 2584 1609 
Q 2584 2291 2321 2609 
Q 2059 2928 1675 2928 
Q 1300 2928 1048 2622 
Q 797 2316 797 1656 
z
" transform="scale(0.015625)"/>
      <path id="ArialMT-4d" d="M 475 0 
L 475 4581 
L 1388 4581 
L 2472 1338 
Q 2622 884 2691 659 
Q 2769 909 2934 1394 
L 4031 4581 
L 4847 4581 
L 4847 0 
L 4263 0 
L 4263 3834 
L 2931 0 
L 2384 0 
L 1059 3900 
L 1059 0 
L 475 0 
z
" transform="scale(0.015625)"/>
      <path id="ArialMT-75" d="M 2597 0 
L 2597 488 
Q 2209 -75 1544 -75 
Q 1250 -75 995 37 
Q 741 150 617 320 
Q 494 491 444 738 
Q 409 903 409 1263 
L 409 3319 
L 972 3319 
L 972 1478 
Q 972 1038 1006 884 
Q 1059 663 1231 536 
Q 1403 409 1656 409 
Q 1909 409 2131 539 
Q 2353 669 2445 892 
Q 2538 1116 2538 1541 
L 2538 3319 
L 3100 3319 
L 3100 0 
L 2597 0 
z
" transform="scale(0.015625)"/>
      <path id="ArialMT-5f" d="M -97 -1272 
L -97 -866 
L 3631 -866 
L 3631 -1272 
L -97 -1272 
z
" transform="scale(0.015625)"/>
     </defs>
     <use xlink:href="#ArialMT-22"/>
     <use xlink:href="#ArialMT-42" x="35.498047"/>
     <use xlink:href="#ArialMT-61" x="102.197266"/>
     <use xlink:href="#ArialMT-73" x="157.8125"/>
     <use xlink:href="#ArialMT-65" x="207.8125"/>
     <use xlink:href="#ArialMT-20" x="263.427734"/>
     <use xlink:href="#ArialMT-73" x="291.210938"/>
     <use xlink:href="#ArialMT-74" x="341.210938"/>
     <use xlink:href="#ArialMT-61" x="368.994141"/>
     <use xlink:href="#ArialMT-63" x="424.609375"/>
     <use xlink:href="#ArialMT-6b" x="474.609375"/>
     <use xlink:href="#ArialMT-69" x="524.609375"/>
     <use xlink:href="#ArialMT-6e" x="546.826172"/>
     <use xlink:href="#ArialMT-67" x="602.441406"/>
     <use xlink:href="#ArialMT-22" x="658.056641"/>
     <use xlink:href="#ArialMT-20" x="693.554688"/>
     <use xlink:href="#ArialMT-66" x="721.337891"/>
     <use xlink:href="#ArialMT-6f" x="749.121094"/>
     <use xlink:href="#ArialMT-72" x="804.736328"/>
     <use xlink:href="#ArialMT-20" x="838.037109"/>
     <use xlink:href="#ArialMT-64" x="865.820312"/>
     <use xlink:href="#ArialMT-61" x="921.435547"/>
     <use xlink:href="#ArialMT-74" x="977.050781"/>
     <use xlink:href="#ArialMT-61" x="1004.833984"/>
     <use xlink:href="#ArialMT-73" x="1060.449219"/>
     <use xlink:href="#ArialMT-65" x="1110.449219"/>
     <use xlink:href="#ArialMT-74" x="1166.064453"/>
     <use xlink:href="#ArialMT-20" x="1193.847656"/>
     <use xlink:href="#ArialMT-4d" x="1221.630859"/>
     <use xlink:href="#ArialMT-6f" x="1304.931641"/>
     <use xlink:href="#ArialMT-75" x="1360.546875"/>
     <use xlink:href="#ArialMT-73" x="1416.162109"/>
     <use xlink:href="#ArialMT-65" x="1466.162109"/>
     <use xlink:href="#ArialMT-5f" x="1521.777344"/>
     <use xlink:href="#ArialMT-6e" x="1577.392578"/>
     <use xlink:href="#ArialMT-6f" x="1633.007812"/>
     <use xlink:href="#ArialMT-6e" x="1688.623047"/>
     <use xlink:href="#ArialMT-5f" x="1744.238281"/>
     <use xlink:href="#ArialMT-74" x="1799.853516"/>
     <use xlink:href="#ArialMT-61" x="1827.636719"/>
     <use xlink:href="#ArialMT-74" x="1883.251953"/>
     <use xlink:href="#ArialMT-61" x="1911.035156"/>
    </g>
   </g>
   <g id="legend_1">
    <g id="line2d_34">
     <path d="M 57.129375 34.593437 
L 67.129375 34.593437 
L 77.129375 34.593437 
" style="fill: none; stroke: #0272a2; stroke-width: 1.75; stroke-linecap: round"/>
    </g>
    <g id="text_35">
     <!-- Promoter -->
     <g style="fill: #262626" transform="translate(85.129375 38.093437) scale(0.1 -0.1)">
      <defs>
       <path id="ArialMT-6d" d="M 422 0 
L 422 3319 
L 925 3319 
L 925 2853 
Q 1081 3097 1340 3245 
Q 1600 3394 1931 3394 
Q 2300 3394 2536 3241 
Q 2772 3088 2869 2813 
Q 3263 3394 3894 3394 
Q 4388 3394 4653 3120 
Q 4919 2847 4919 2278 
L 4919 0 
L 4359 0 
L 4359 2091 
Q 4359 2428 4304 2576 
Q 4250 2725 4106 2815 
Q 3963 2906 3769 2906 
Q 3419 2906 3187 2673 
Q 2956 2441 2956 1928 
L 2956 0 
L 2394 0 
L 2394 2156 
Q 2394 2531 2256 2718 
Q 2119 2906 1806 2906 
Q 1569 2906 1367 2781 
Q 1166 2656 1075 2415 
Q 984 2175 984 1722 
L 984 0 
L 422 0 
z
" transform="scale(0.015625)"/>
      </defs>
      <use xlink:href="#ArialMT-50"/>
      <use xlink:href="#ArialMT-72" x="66.699219"/>
      <use xlink:href="#ArialMT-6f" x="100"/>
      <use xlink:href="#ArialMT-6d" x="155.615234"/>
      <use xlink:href="#ArialMT-6f" x="238.916016"/>
      <use xlink:href="#ArialMT-74" x="294.53125"/>
      <use xlink:href="#ArialMT-65" x="322.314453"/>
      <use xlink:href="#ArialMT-72" x="377.929688"/>
     </g>
    </g>
    <g id="line2d_35">
     <path d="M 57.129375 48.73875 
L 67.129375 48.73875 
L 77.129375 48.73875 
" style="fill: none; stroke-dasharray: 1.75,2.8875; stroke-dashoffset: 0; stroke: #9fc377; stroke-width: 1.75"/>
    </g>
    <g id="text_36">
     <!-- Non-promoter -->
     <g style="fill: #262626" transform="translate(85.129375 52.23875) scale(0.1 -0.1)">
      <defs>
       <path id="ArialMT-4e" d="M 488 0 
L 488 4581 
L 1109 4581 
L 3516 984 
L 3516 4581 
L 4097 4581 
L 4097 0 
L 3475 0 
L 1069 3600 
L 1069 0 
L 488 0 
z
" transform="scale(0.015625)"/>
       <path id="ArialMT-70" d="M 422 -1272 
L 422 3319 
L 934 3319 
L 934 2888 
Q 1116 3141 1344 3267 
Q 1572 3394 1897 3394 
Q 2322 3394 2647 3175 
Q 2972 2956 3137 2557 
Q 3303 2159 3303 1684 
Q 3303 1175 3120 767 
Q 2938 359 2589 142 
Q 2241 -75 1856 -75 
Q 1575 -75 1351 44 
Q 1128 163 984 344 
L 984 -1272 
L 422 -1272 
z
M 931 1641 
Q 931 1000 1190 694 
Q 1450 388 1819 388 
Q 2194 388 2461 705 
Q 2728 1022 2728 1688 
Q 2728 2322 2467 2637 
Q 2206 2953 1844 2953 
Q 1484 2953 1207 2617 
Q 931 2281 931 1641 
z
" transform="scale(0.015625)"/>
      </defs>
      <use xlink:href="#ArialMT-4e"/>
      <use xlink:href="#ArialMT-6f" x="72.216797"/>
      <use xlink:href="#ArialMT-6e" x="127.832031"/>
      <use xlink:href="#ArialMT-2d" x="183.447266"/>
      <use xlink:href="#ArialMT-70" x="216.748047"/>
      <use xlink:href="#ArialMT-72" x="272.363281"/>
      <use xlink:href="#ArialMT-6f" x="305.664062"/>
      <use xlink:href="#ArialMT-6d" x="361.279297"/>
      <use xlink:href="#ArialMT-6f" x="444.580078"/>
      <use xlink:href="#ArialMT-74" x="500.195312"/>
      <use xlink:href="#ArialMT-65" x="527.978516"/>
      <use xlink:href="#ArialMT-72" x="583.59375"/>
     </g>
    </g>
   </g>
  </g>
 </g>
 <defs>
  <clipPath id="p0e2f388a49">
   <rect x="48.129375" y="21.935625" width="446.4" height="304.92"/>
  </clipPath>
 </defs>
</svg>
