<?xml version="1.0" encoding="utf-8" standalone="no"?>
<!DOCTYPE svg PUBLIC "-//W3C//DTD SVG 1.1//EN"
  "http://www.w3.org/Graphics/SVG/1.1/DTD/svg11.dtd">
<svg xmlns:xlink="http://www.w3.org/1999/xlink" width="506.881719pt" height="375.733156pt" viewBox="0 0 506.881719 375.733156" xmlns="http://www.w3.org/2000/svg" version="1.1">
 <metadata>
  <rdf:RDF xmlns:dc="http://purl.org/dc/elements/1.1/" xmlns:cc="http://creativecommons.org/ns#" xmlns:rdf="http://www.w3.org/1999/02/22-rdf-syntax-ns#">
   <cc:Work>
    <dc:type rdf:resource="http://purl.org/dc/dcmitype/StillImage"/>
    <dc:date>2023-05-11T16:25:58.466564</dc:date>
    <dc:format>image/svg+xml</dc:format>
    <dc:creator>
     <cc:Agent>
      <dc:title>Matplotlib v3.7.1, https://matplotlib.org/</dc:title>
     </cc:Agent>
    </dc:creator>
   </cc:Work>
  </rdf:RDF>
 </metadata>
 <defs>
  <style type="text/css">*{stroke-linejoin: round; stroke-linecap: butt}</style>
 </defs>
 <g id="figure_1">
  <g id="patch_1">
   <path d="M 0 375.733156 
L 506.881719 375.733156 
L 506.881719 0 
L 0 0 
z
" style="fill: #ffffff"/>
  </g>
  <g id="axes_1">
   <g id="patch_2">
    <path d="M 53.281719 326.855625 
L 499.681719 326.855625 
L 499.681719 21.935625 
L 53.281719 21.935625 
z
" style="fill: #ffffff"/>
   </g>
   <g id="matplotlib.axis_1">
    <g id="xtick_1">
     <g id="line2d_1"/>
     <g id="text_1">
      <!-- -200 -->
      <g style="fill: #262626" transform="translate(68.325122 353.067937) rotate(-45) scale(0.1 -0.1)">
       <defs>
        <path id="ArialMT-2d" d="M 203 1375 
L 203 1941 
L 1931 1941 
L 1931 1375 
L 203 1375 
z
" transform="scale(0.015625)"/>
        <path id="ArialMT-32" d="M 3222 541 
L 3222 0 
L 194 0 
Q 188 203 259 391 
Q 375 700 629 1000 
Q 884 1300 1366 1694 
Q 2113 2306 2375 2664 
Q 2638 3022 2638 3341 
Q 2638 3675 2398 3904 
Q 2159 4134 1775 4134 
Q 1369 4134 1125 3890 
Q 881 3647 878 3216 
L 300 3275 
Q 359 3922 746 4261 
Q 1134 4600 1788 4600 
Q 2447 4600 2831 4234 
Q 3216 3869 3216 3328 
Q 3216 3053 3103 2787 
Q 2991 2522 2730 2228 
Q 2469 1934 1863 1422 
Q 1356 997 1212 845 
Q 1069 694 975 541 
L 3222 541 
z
" transform="scale(0.015625)"/>
        <path id="ArialMT-30" d="M 266 2259 
Q 266 3072 433 3567 
Q 600 4063 929 4331 
Q 1259 4600 1759 4600 
Q 2128 4600 2406 4451 
Q 2684 4303 2865 4023 
Q 3047 3744 3150 3342 
Q 3253 2941 3253 2259 
Q 3253 1453 3087 958 
Q 2922 463 2592 192 
Q 2263 -78 1759 -78 
Q 1097 -78 719 397 
Q 266 969 266 2259 
z
M 844 2259 
Q 844 1131 1108 757 
Q 1372 384 1759 384 
Q 2147 384 2411 759 
Q 2675 1134 2675 2259 
Q 2675 3391 2411 3762 
Q 2147 4134 1753 4134 
Q 1366 4134 1134 3806 
Q 844 3388 844 2259 
z
" transform="scale(0.015625)"/>
       </defs>
       <use xlink:href="#ArialMT-2d"/>
       <use xlink:href="#ArialMT-32" x="33.300781"/>
       <use xlink:href="#ArialMT-30" x="88.916016"/>
       <use xlink:href="#ArialMT-30" x="144.53125"/>
      </g>
     </g>
    </g>
    <g id="xtick_2">
     <g id="line2d_2"/>
     <g id="text_2">
      <!-- -190 -->
      <g style="fill: #262626" transform="translate(84.623041 353.067937) rotate(-45) scale(0.1 -0.1)">
       <defs>
        <path id="ArialMT-31" d="M 2384 0 
L 1822 0 
L 1822 3584 
Q 1619 3391 1289 3197 
Q 959 3003 697 2906 
L 697 3450 
Q 1169 3672 1522 3987 
Q 1875 4303 2022 4600 
L 2384 4600 
L 2384 0 
z
" transform="scale(0.015625)"/>
        <path id="ArialMT-39" d="M 350 1059 
L 891 1109 
Q 959 728 1153 556 
Q 1347 384 1650 384 
Q 1909 384 2104 503 
Q 2300 622 2425 820 
Q 2550 1019 2634 1356 
Q 2719 1694 2719 2044 
Q 2719 2081 2716 2156 
Q 2547 1888 2255 1720 
Q 1963 1553 1622 1553 
Q 1053 1553 659 1965 
Q 266 2378 266 3053 
Q 266 3750 677 4175 
Q 1088 4600 1706 4600 
Q 2153 4600 2523 4359 
Q 2894 4119 3086 3673 
Q 3278 3228 3278 2384 
Q 3278 1506 3087 986 
Q 2897 466 2520 194 
Q 2144 -78 1638 -78 
Q 1100 -78 759 220 
Q 419 519 350 1059 
z
M 2653 3081 
Q 2653 3566 2395 3850 
Q 2138 4134 1775 4134 
Q 1400 4134 1122 3828 
Q 844 3522 844 3034 
Q 844 2597 1108 2323 
Q 1372 2050 1759 2050 
Q 2150 2050 2401 2323 
Q 2653 2597 2653 3081 
z
" transform="scale(0.015625)"/>
       </defs>
       <use xlink:href="#ArialMT-2d"/>
       <use xlink:href="#ArialMT-31" x="33.300781"/>
       <use xlink:href="#ArialMT-39" x="88.916016"/>
       <use xlink:href="#ArialMT-30" x="144.53125"/>
      </g>
     </g>
    </g>
    <g id="xtick_3">
     <g id="line2d_3"/>
     <g id="text_3">
      <!-- -180 -->
      <g style="fill: #262626" transform="translate(100.92096 353.067937) rotate(-45) scale(0.1 -0.1)">
       <defs>
        <path id="ArialMT-38" d="M 1131 2484 
Q 781 2613 612 2850 
Q 444 3088 444 3419 
Q 444 3919 803 4259 
Q 1163 4600 1759 4600 
Q 2359 4600 2725 4251 
Q 3091 3903 3091 3403 
Q 3091 3084 2923 2848 
Q 2756 2613 2416 2484 
Q 2838 2347 3058 2040 
Q 3278 1734 3278 1309 
Q 3278 722 2862 322 
Q 2447 -78 1769 -78 
Q 1091 -78 675 323 
Q 259 725 259 1325 
Q 259 1772 486 2073 
Q 713 2375 1131 2484 
z
M 1019 3438 
Q 1019 3113 1228 2906 
Q 1438 2700 1772 2700 
Q 2097 2700 2305 2904 
Q 2513 3109 2513 3406 
Q 2513 3716 2298 3927 
Q 2084 4138 1766 4138 
Q 1444 4138 1231 3931 
Q 1019 3725 1019 3438 
z
M 838 1322 
Q 838 1081 952 856 
Q 1066 631 1291 507 
Q 1516 384 1775 384 
Q 2178 384 2440 643 
Q 2703 903 2703 1303 
Q 2703 1709 2433 1975 
Q 2163 2241 1756 2241 
Q 1359 2241 1098 1978 
Q 838 1716 838 1322 
z
" transform="scale(0.015625)"/>
       </defs>
       <use xlink:href="#ArialMT-2d"/>
       <use xlink:href="#ArialMT-31" x="33.300781"/>
       <use xlink:href="#ArialMT-38" x="88.916016"/>
       <use xlink:href="#ArialMT-30" x="144.53125"/>
      </g>
     </g>
    </g>
    <g id="xtick_4">
     <g id="line2d_4"/>
     <g id="text_4">
      <!-- -170 -->
      <g style="fill: #262626" transform="translate(117.218879 353.067937) rotate(-45) scale(0.1 -0.1)">
       <defs>
        <path id="ArialMT-37" d="M 303 3981 
L 303 4522 
L 3269 4522 
L 3269 4084 
Q 2831 3619 2401 2847 
Q 1972 2075 1738 1259 
Q 1569 684 1522 0 
L 944 0 
Q 953 541 1156 1306 
Q 1359 2072 1739 2783 
Q 2119 3494 2547 3981 
L 303 3981 
z
" transform="scale(0.015625)"/>
       </defs>
       <use xlink:href="#ArialMT-2d"/>
       <use xlink:href="#ArialMT-31" x="33.300781"/>
       <use xlink:href="#ArialMT-37" x="88.916016"/>
       <use xlink:href="#ArialMT-30" x="144.53125"/>
      </g>
     </g>
    </g>
    <g id="xtick_5">
     <g id="line2d_5"/>
     <g id="text_5">
      <!-- -160 -->
      <g style="fill: #262626" transform="translate(133.516798 353.067937) rotate(-45) scale(0.1 -0.1)">
       <defs>
        <path id="ArialMT-36" d="M 3184 3459 
L 2625 3416 
Q 2550 3747 2413 3897 
Q 2184 4138 1850 4138 
Q 1581 4138 1378 3988 
Q 1113 3794 959 3422 
Q 806 3050 800 2363 
Q 1003 2672 1297 2822 
Q 1591 2972 1913 2972 
Q 2475 2972 2870 2558 
Q 3266 2144 3266 1488 
Q 3266 1056 3080 686 
Q 2894 316 2569 119 
Q 2244 -78 1831 -78 
Q 1128 -78 684 439 
Q 241 956 241 2144 
Q 241 3472 731 4075 
Q 1159 4600 1884 4600 
Q 2425 4600 2770 4297 
Q 3116 3994 3184 3459 
z
M 888 1484 
Q 888 1194 1011 928 
Q 1134 663 1356 523 
Q 1578 384 1822 384 
Q 2178 384 2434 671 
Q 2691 959 2691 1453 
Q 2691 1928 2437 2201 
Q 2184 2475 1800 2475 
Q 1419 2475 1153 2201 
Q 888 1928 888 1484 
z
" transform="scale(0.015625)"/>
       </defs>
       <use xlink:href="#ArialMT-2d"/>
       <use xlink:href="#ArialMT-31" x="33.300781"/>
       <use xlink:href="#ArialMT-36" x="88.916016"/>
       <use xlink:href="#ArialMT-30" x="144.53125"/>
      </g>
     </g>
    </g>
    <g id="xtick_6">
     <g id="line2d_6"/>
     <g id="text_6">
      <!-- -150 -->
      <g style="fill: #262626" transform="translate(149.814717 353.067937) rotate(-45) scale(0.1 -0.1)">
       <defs>
        <path id="ArialMT-35" d="M 266 1200 
L 856 1250 
Q 922 819 1161 601 
Q 1400 384 1738 384 
Q 2144 384 2425 690 
Q 2706 997 2706 1503 
Q 2706 1984 2436 2262 
Q 2166 2541 1728 2541 
Q 1456 2541 1237 2417 
Q 1019 2294 894 2097 
L 366 2166 
L 809 4519 
L 3088 4519 
L 3088 3981 
L 1259 3981 
L 1013 2750 
Q 1425 3038 1878 3038 
Q 2478 3038 2890 2622 
Q 3303 2206 3303 1553 
Q 3303 931 2941 478 
Q 2500 -78 1738 -78 
Q 1113 -78 717 272 
Q 322 622 266 1200 
z
" transform="scale(0.015625)"/>
       </defs>
       <use xlink:href="#ArialMT-2d"/>
       <use xlink:href="#ArialMT-31" x="33.300781"/>
       <use xlink:href="#ArialMT-35" x="88.916016"/>
       <use xlink:href="#ArialMT-30" x="144.53125"/>
      </g>
     </g>
    </g>
    <g id="xtick_7">
     <g id="line2d_7"/>
     <g id="text_7">
      <!-- -140 -->
      <g style="fill: #262626" transform="translate(166.112636 353.067937) rotate(-45) scale(0.1 -0.1)">
       <defs>
        <path id="ArialMT-34" d="M 2069 0 
L 2069 1097 
L 81 1097 
L 81 1613 
L 2172 4581 
L 2631 4581 
L 2631 1613 
L 3250 1613 
L 3250 1097 
L 2631 1097 
L 2631 0 
L 2069 0 
z
M 2069 1613 
L 2069 3678 
L 634 1613 
L 2069 1613 
z
" transform="scale(0.015625)"/>
       </defs>
       <use xlink:href="#ArialMT-2d"/>
       <use xlink:href="#ArialMT-31" x="33.300781"/>
       <use xlink:href="#ArialMT-34" x="88.916016"/>
       <use xlink:href="#ArialMT-30" x="144.53125"/>
      </g>
     </g>
    </g>
    <g id="xtick_8">
     <g id="line2d_8"/>
     <g id="text_8">
      <!-- -130 -->
      <g style="fill: #262626" transform="translate(182.410555 353.067937) rotate(-45) scale(0.1 -0.1)">
       <defs>
        <path id="ArialMT-33" d="M 269 1209 
L 831 1284 
Q 928 806 1161 595 
Q 1394 384 1728 384 
Q 2125 384 2398 659 
Q 2672 934 2672 1341 
Q 2672 1728 2419 1979 
Q 2166 2231 1775 2231 
Q 1616 2231 1378 2169 
L 1441 2663 
Q 1497 2656 1531 2656 
Q 1891 2656 2178 2843 
Q 2466 3031 2466 3422 
Q 2466 3731 2256 3934 
Q 2047 4138 1716 4138 
Q 1388 4138 1169 3931 
Q 950 3725 888 3313 
L 325 3413 
Q 428 3978 793 4289 
Q 1159 4600 1703 4600 
Q 2078 4600 2393 4439 
Q 2709 4278 2876 4000 
Q 3044 3722 3044 3409 
Q 3044 3113 2884 2869 
Q 2725 2625 2413 2481 
Q 2819 2388 3044 2092 
Q 3269 1797 3269 1353 
Q 3269 753 2831 336 
Q 2394 -81 1725 -81 
Q 1122 -81 723 278 
Q 325 638 269 1209 
z
" transform="scale(0.015625)"/>
       </defs>
       <use xlink:href="#ArialMT-2d"/>
       <use xlink:href="#ArialMT-31" x="33.300781"/>
       <use xlink:href="#ArialMT-33" x="88.916016"/>
       <use xlink:href="#ArialMT-30" x="144.53125"/>
      </g>
     </g>
    </g>
    <g id="xtick_9">
     <g id="line2d_9"/>
     <g id="text_9">
      <!-- -120 -->
      <g style="fill: #262626" transform="translate(198.708474 353.067937) rotate(-45) scale(0.1 -0.1)">
       <use xlink:href="#ArialMT-2d"/>
       <use xlink:href="#ArialMT-31" x="33.300781"/>
       <use xlink:href="#ArialMT-32" x="88.916016"/>
       <use xlink:href="#ArialMT-30" x="144.53125"/>
      </g>
     </g>
    </g>
    <g id="xtick_10">
     <g id="line2d_10"/>
     <g id="text_10">
      <!-- -110 -->
      <g style="fill: #262626" transform="translate(215.267138 352.546446) rotate(-45) scale(0.1 -0.1)">
       <use xlink:href="#ArialMT-2d"/>
       <use xlink:href="#ArialMT-31" x="33.300781"/>
       <use xlink:href="#ArialMT-31" x="81.541016"/>
       <use xlink:href="#ArialMT-30" x="137.15625"/>
      </g>
     </g>
    </g>
    <g id="xtick_11">
     <g id="line2d_11"/>
     <g id="text_11">
      <!-- -100 -->
      <g style="fill: #262626" transform="translate(231.304312 353.067937) rotate(-45) scale(0.1 -0.1)">
       <use xlink:href="#ArialMT-2d"/>
       <use xlink:href="#ArialMT-31" x="33.300781"/>
       <use xlink:href="#ArialMT-30" x="88.916016"/>
       <use xlink:href="#ArialMT-30" x="144.53125"/>
      </g>
     </g>
    </g>
    <g id="xtick_12">
     <g id="line2d_12"/>
     <g id="text_12">
      <!-- -90 -->
      <g style="fill: #262626" transform="translate(249.568319 349.135761) rotate(-45) scale(0.1 -0.1)">
       <use xlink:href="#ArialMT-2d"/>
       <use xlink:href="#ArialMT-39" x="33.300781"/>
       <use xlink:href="#ArialMT-30" x="88.916016"/>
      </g>
     </g>
    </g>
    <g id="xtick_13">
     <g id="line2d_13"/>
     <g id="text_13">
      <!-- -80 -->
      <g style="fill: #262626" transform="translate(265.866238 349.135761) rotate(-45) scale(0.1 -0.1)">
       <use xlink:href="#ArialMT-2d"/>
       <use xlink:href="#ArialMT-38" x="33.300781"/>
       <use xlink:href="#ArialMT-30" x="88.916016"/>
      </g>
     </g>
    </g>
    <g id="xtick_14">
     <g id="line2d_14"/>
     <g id="text_14">
      <!-- -70 -->
      <g style="fill: #262626" transform="translate(282.164157 349.135761) rotate(-45) scale(0.1 -0.1)">
       <use xlink:href="#ArialMT-2d"/>
       <use xlink:href="#ArialMT-37" x="33.300781"/>
       <use xlink:href="#ArialMT-30" x="88.916016"/>
      </g>
     </g>
    </g>
    <g id="xtick_15">
     <g id="line2d_15"/>
     <g id="text_15">
      <!-- -60 -->
      <g style="fill: #262626" transform="translate(298.462076 349.135761) rotate(-45) scale(0.1 -0.1)">
       <use xlink:href="#ArialMT-2d"/>
       <use xlink:href="#ArialMT-36" x="33.300781"/>
       <use xlink:href="#ArialMT-30" x="88.916016"/>
      </g>
     </g>
    </g>
    <g id="xtick_16">
     <g id="line2d_16"/>
     <g id="text_16">
      <!-- -50 -->
      <g style="fill: #262626" transform="translate(314.759995 349.135761) rotate(-45) scale(0.1 -0.1)">
       <use xlink:href="#ArialMT-2d"/>
       <use xlink:href="#ArialMT-35" x="33.300781"/>
       <use xlink:href="#ArialMT-30" x="88.916016"/>
      </g>
     </g>
    </g>
    <g id="xtick_17">
     <g id="line2d_17"/>
     <g id="text_17">
      <!-- -40 -->
      <g style="fill: #262626" transform="translate(331.057914 349.135761) rotate(-45) scale(0.1 -0.1)">
       <use xlink:href="#ArialMT-2d"/>
       <use xlink:href="#ArialMT-34" x="33.300781"/>
       <use xlink:href="#ArialMT-30" x="88.916016"/>
      </g>
     </g>
    </g>
    <g id="xtick_18">
     <g id="line2d_18"/>
     <g id="text_18">
      <!-- -30 -->
      <g style="fill: #262626" transform="translate(347.355833 349.135761) rotate(-45) scale(0.1 -0.1)">
       <use xlink:href="#ArialMT-2d"/>
       <use xlink:href="#ArialMT-33" x="33.300781"/>
       <use xlink:href="#ArialMT-30" x="88.916016"/>
      </g>
     </g>
    </g>
    <g id="xtick_19">
     <g id="line2d_19"/>
     <g id="text_19">
      <!-- -20 -->
      <g style="fill: #262626" transform="translate(363.653752 349.135761) rotate(-45) scale(0.1 -0.1)">
       <use xlink:href="#ArialMT-2d"/>
       <use xlink:href="#ArialMT-32" x="33.300781"/>
       <use xlink:href="#ArialMT-30" x="88.916016"/>
      </g>
     </g>
    </g>
    <g id="xtick_20">
     <g id="line2d_20"/>
     <g id="text_20">
      <!-- -10 -->
      <g style="fill: #262626" transform="translate(379.95167 349.135761) rotate(-45) scale(0.1 -0.1)">
       <use xlink:href="#ArialMT-2d"/>
       <use xlink:href="#ArialMT-31" x="33.300781"/>
       <use xlink:href="#ArialMT-30" x="88.916016"/>
      </g>
     </g>
    </g>
    <g id="xtick_21">
     <g id="line2d_21"/>
     <g id="text_21">
      <!-- 0 -->
      <g style="fill: #262626" transform="translate(399.3929 342.849139) rotate(-45) scale(0.1 -0.1)">
       <use xlink:href="#ArialMT-30"/>
      </g>
     </g>
    </g>
    <g id="xtick_22">
     <g id="line2d_22"/>
     <g id="text_22">
      <!-- 10 -->
      <g style="fill: #262626" transform="translate(413.724731 346.781316) rotate(-45) scale(0.1 -0.1)">
       <use xlink:href="#ArialMT-31"/>
       <use xlink:href="#ArialMT-30" x="55.615234"/>
      </g>
     </g>
    </g>
    <g id="xtick_23">
     <g id="line2d_23"/>
     <g id="text_23">
      <!-- 20 -->
      <g style="fill: #262626" transform="translate(430.02265 346.781316) rotate(-45) scale(0.1 -0.1)">
       <use xlink:href="#ArialMT-32"/>
       <use xlink:href="#ArialMT-30" x="55.615234"/>
      </g>
     </g>
    </g>
    <g id="xtick_24">
     <g id="line2d_24"/>
     <g id="text_24">
      <!-- 30 -->
      <g style="fill: #262626" transform="translate(446.320569 346.781316) rotate(-45) scale(0.1 -0.1)">
       <use xlink:href="#ArialMT-33"/>
       <use xlink:href="#ArialMT-30" x="55.615234"/>
      </g>
     </g>
    </g>
    <g id="xtick_25">
     <g id="line2d_25"/>
     <g id="text_25">
      <!-- 40 -->
      <g style="fill: #262626" transform="translate(462.618488 346.781316) rotate(-45) scale(0.1 -0.1)">
       <use xlink:href="#ArialMT-34"/>
       <use xlink:href="#ArialMT-30" x="55.615234"/>
      </g>
     </g>
    </g>
    <g id="xtick_26">
     <g id="line2d_26"/>
     <g id="text_26">
      <!-- 50 -->
      <g style="fill: #262626" transform="translate(478.916406 346.781316) rotate(-45) scale(0.1 -0.1)">
       <use xlink:href="#ArialMT-35"/>
       <use xlink:href="#ArialMT-30" x="55.615234"/>
      </g>
     </g>
    </g>
    <g id="text_27">
     <!-- Position -->
     <g style="fill: #262626" transform="translate(256.915469 366.346906) scale(0.11 -0.11)">
      <defs>
       <path id="ArialMT-50" d="M 494 0 
L 494 4581 
L 2222 4581 
Q 2678 4581 2919 4538 
Q 3256 4481 3484 4323 
Q 3713 4166 3852 3881 
Q 3991 3597 3991 3256 
Q 3991 2672 3619 2267 
Q 3247 1863 2275 1863 
L 1100 1863 
L 1100 0 
L 494 0 
z
M 1100 2403 
L 2284 2403 
Q 2872 2403 3119 2622 
Q 3366 2841 3366 3238 
Q 3366 3525 3220 3729 
Q 3075 3934 2838 4000 
Q 2684 4041 2272 4041 
L 1100 4041 
L 1100 2403 
z
" transform="scale(0.015625)"/>
       <path id="ArialMT-6f" d="M 213 1659 
Q 213 2581 725 3025 
Q 1153 3394 1769 3394 
Q 2453 3394 2887 2945 
Q 3322 2497 3322 1706 
Q 3322 1066 3130 698 
Q 2938 331 2570 128 
Q 2203 -75 1769 -75 
Q 1072 -75 642 372 
Q 213 819 213 1659 
z
M 791 1659 
Q 791 1022 1069 705 
Q 1347 388 1769 388 
Q 2188 388 2466 706 
Q 2744 1025 2744 1678 
Q 2744 2294 2464 2611 
Q 2184 2928 1769 2928 
Q 1347 2928 1069 2612 
Q 791 2297 791 1659 
z
" transform="scale(0.015625)"/>
       <path id="ArialMT-73" d="M 197 991 
L 753 1078 
Q 800 744 1014 566 
Q 1228 388 1613 388 
Q 2000 388 2187 545 
Q 2375 703 2375 916 
Q 2375 1106 2209 1216 
Q 2094 1291 1634 1406 
Q 1016 1563 777 1677 
Q 538 1791 414 1992 
Q 291 2194 291 2438 
Q 291 2659 392 2848 
Q 494 3038 669 3163 
Q 800 3259 1026 3326 
Q 1253 3394 1513 3394 
Q 1903 3394 2198 3281 
Q 2494 3169 2634 2976 
Q 2775 2784 2828 2463 
L 2278 2388 
Q 2241 2644 2061 2787 
Q 1881 2931 1553 2931 
Q 1166 2931 1000 2803 
Q 834 2675 834 2503 
Q 834 2394 903 2306 
Q 972 2216 1119 2156 
Q 1203 2125 1616 2013 
Q 2213 1853 2448 1751 
Q 2684 1650 2818 1456 
Q 2953 1263 2953 975 
Q 2953 694 2789 445 
Q 2625 197 2315 61 
Q 2006 -75 1616 -75 
Q 969 -75 630 194 
Q 291 463 197 991 
z
" transform="scale(0.015625)"/>
       <path id="ArialMT-69" d="M 425 3934 
L 425 4581 
L 988 4581 
L 988 3934 
L 425 3934 
z
M 425 0 
L 425 3319 
L 988 3319 
L 988 0 
L 425 0 
z
" transform="scale(0.015625)"/>
       <path id="ArialMT-74" d="M 1650 503 
L 1731 6 
Q 1494 -44 1306 -44 
Q 1000 -44 831 53 
Q 663 150 594 308 
Q 525 466 525 972 
L 525 2881 
L 113 2881 
L 113 3319 
L 525 3319 
L 525 4141 
L 1084 4478 
L 1084 3319 
L 1650 3319 
L 1650 2881 
L 1084 2881 
L 1084 941 
Q 1084 700 1114 631 
Q 1144 563 1211 522 
Q 1278 481 1403 481 
Q 1497 481 1650 503 
z
" transform="scale(0.015625)"/>
       <path id="ArialMT-6e" d="M 422 0 
L 422 3319 
L 928 3319 
L 928 2847 
Q 1294 3394 1984 3394 
Q 2284 3394 2536 3286 
Q 2788 3178 2913 3003 
Q 3038 2828 3088 2588 
Q 3119 2431 3119 2041 
L 3119 0 
L 2556 0 
L 2556 2019 
Q 2556 2363 2490 2533 
Q 2425 2703 2258 2804 
Q 2091 2906 1866 2906 
Q 1506 2906 1245 2678 
Q 984 2450 984 1813 
L 984 0 
L 422 0 
z
" transform="scale(0.015625)"/>
      </defs>
      <use xlink:href="#ArialMT-50"/>
      <use xlink:href="#ArialMT-6f" x="66.699219"/>
      <use xlink:href="#ArialMT-73" x="122.314453"/>
      <use xlink:href="#ArialMT-69" x="172.314453"/>
      <use xlink:href="#ArialMT-74" x="194.53125"/>
      <use xlink:href="#ArialMT-69" x="222.314453"/>
      <use xlink:href="#ArialMT-6f" x="244.53125"/>
      <use xlink:href="#ArialMT-6e" x="300.146484"/>
     </g>
    </g>
   </g>
   <g id="matplotlib.axis_2">
    <g id="ytick_1">
     <g id="line2d_27"/>
     <g id="text_28">
      <!-- 0.022 -->
      <g style="fill: #262626" transform="translate(21.259844 283.914617) scale(0.1 -0.1)">
       <defs>
        <path id="ArialMT-2e" d="M 581 0 
L 581 641 
L 1222 641 
L 1222 0 
L 581 0 
z
" transform="scale(0.015625)"/>
       </defs>
       <use xlink:href="#ArialMT-30"/>
       <use xlink:href="#ArialMT-2e" x="55.615234"/>
       <use xlink:href="#ArialMT-30" x="83.398438"/>
       <use xlink:href="#ArialMT-32" x="139.013672"/>
       <use xlink:href="#ArialMT-32" x="194.628906"/>
      </g>
     </g>
    </g>
    <g id="ytick_2">
     <g id="line2d_28"/>
     <g id="text_29">
      <!-- 0.024 -->
      <g style="fill: #262626" transform="translate(21.259844 234.732949) scale(0.1 -0.1)">
       <use xlink:href="#ArialMT-30"/>
       <use xlink:href="#ArialMT-2e" x="55.615234"/>
       <use xlink:href="#ArialMT-30" x="83.398438"/>
       <use xlink:href="#ArialMT-32" x="139.013672"/>
       <use xlink:href="#ArialMT-34" x="194.628906"/>
      </g>
     </g>
    </g>
    <g id="ytick_3">
     <g id="line2d_29"/>
     <g id="text_30">
      <!-- 0.026 -->
      <g style="fill: #262626" transform="translate(21.259844 185.551281) scale(0.1 -0.1)">
       <use xlink:href="#ArialMT-30"/>
       <use xlink:href="#ArialMT-2e" x="55.615234"/>
       <use xlink:href="#ArialMT-30" x="83.398438"/>
       <use xlink:href="#ArialMT-32" x="139.013672"/>
       <use xlink:href="#ArialMT-36" x="194.628906"/>
      </g>
     </g>
    </g>
    <g id="ytick_4">
     <g id="line2d_30"/>
     <g id="text_31">
      <!-- 0.028 -->
      <g style="fill: #262626" transform="translate(21.259844 136.369613) scale(0.1 -0.1)">
       <use xlink:href="#ArialMT-30"/>
       <use xlink:href="#ArialMT-2e" x="55.615234"/>
       <use xlink:href="#ArialMT-30" x="83.398438"/>
       <use xlink:href="#ArialMT-32" x="139.013672"/>
       <use xlink:href="#ArialMT-38" x="194.628906"/>
      </g>
     </g>
    </g>
    <g id="ytick_5">
     <g id="line2d_31"/>
     <g id="text_32">
      <!-- 0.030 -->
      <g style="fill: #262626" transform="translate(21.259844 87.187944) scale(0.1 -0.1)">
       <use xlink:href="#ArialMT-30"/>
       <use xlink:href="#ArialMT-2e" x="55.615234"/>
       <use xlink:href="#ArialMT-30" x="83.398438"/>
       <use xlink:href="#ArialMT-33" x="139.013672"/>
       <use xlink:href="#ArialMT-30" x="194.628906"/>
      </g>
     </g>
    </g>
    <g id="ytick_6">
     <g id="line2d_32"/>
     <g id="text_33">
      <!-- 0.032 -->
      <g style="fill: #262626" transform="translate(21.259844 38.006276) scale(0.1 -0.1)">
       <use xlink:href="#ArialMT-30"/>
       <use xlink:href="#ArialMT-2e" x="55.615234"/>
       <use xlink:href="#ArialMT-30" x="83.398438"/>
       <use xlink:href="#ArialMT-33" x="139.013672"/>
       <use xlink:href="#ArialMT-32" x="194.628906"/>
      </g>
     </g>
    </g>
    <g id="text_34">
     <!-- Twist -->
     <g style="fill: #262626" transform="translate(15.073594 186.924453) rotate(-90) scale(0.11 -0.11)">
      <defs>
       <path id="ArialMT-54" d="M 1659 0 
L 1659 4041 
L 150 4041 
L 150 4581 
L 3781 4581 
L 3781 4041 
L 2266 4041 
L 2266 0 
L 1659 0 
z
" transform="scale(0.015625)"/>
       <path id="ArialMT-77" d="M 1034 0 
L 19 3319 
L 600 3319 
L 1128 1403 
L 1325 691 
Q 1338 744 1497 1375 
L 2025 3319 
L 2603 3319 
L 3100 1394 
L 3266 759 
L 3456 1400 
L 4025 3319 
L 4572 3319 
L 3534 0 
L 2950 0 
L 2422 1988 
L 2294 2553 
L 1622 0 
L 1034 0 
z
" transform="scale(0.015625)"/>
      </defs>
      <use xlink:href="#ArialMT-54"/>
      <use xlink:href="#ArialMT-77" x="55.583984"/>
      <use xlink:href="#ArialMT-69" x="127.800781"/>
      <use xlink:href="#ArialMT-73" x="150.017578"/>
      <use xlink:href="#ArialMT-74" x="200.017578"/>
     </g>
    </g>
   </g>
   <g id="line2d_33">
    <path d="M 73.572628 125.275876 
L 75.20242 123.191779 
L 76.832212 125.124854 
L 78.462004 122.376262 
L 80.091795 122.617897 
L 81.721587 124.097908 
L 83.351379 123.433413 
L 84.981171 124.913424 
L 86.610963 123.3428 
L 88.240755 124.656687 
L 89.870547 123.795865 
L 91.500339 124.7473 
L 93.130131 124.505666 
L 94.759922 125.215467 
L 96.389714 123.735456 
L 98.019506 125.849757 
L 99.649298 122.28565 
L 101.27909 125.441999 
L 102.908882 125.51751 
L 104.538674 125.910166 
L 106.168466 124.732198 
L 107.798258 125.562817 
L 109.42805 126.619967 
L 111.057841 123.221983 
L 112.687633 125.608123 
L 114.317425 124.550972 
L 115.947217 123.916682 
L 117.577009 127.616709 
L 119.206801 124.339542 
L 120.836593 125.019139 
L 122.466385 124.097908 
L 124.096177 127.918752 
L 125.725968 125.502408 
L 127.35576 127.933854 
L 128.985552 125.910166 
L 130.615344 127.858344 
L 132.245136 122.330956 
L 133.874928 126.212209 
L 135.50472 125.079548 
L 137.134512 126.106494 
L 138.764304 125.774247 
L 140.394096 124.88322 
L 142.023887 127.34487 
L 143.653679 124.415053 
L 145.283471 127.390177 
L 146.913263 125.426897 
L 148.543055 126.091392 
L 150.172847 125.441999 
L 151.802639 127.586505 
L 153.432431 124.701994 
L 155.062223 127.948957 
L 156.692014 126.272618 
L 158.321806 125.230569 
L 159.951598 128.553043 
L 161.58139 125.759144 
L 163.211182 126.408537 
L 164.840974 128.235897 
L 166.470766 126.28772 
L 168.100558 127.933854 
L 169.73035 126.468946 
L 171.360142 129.066516 
L 172.989933 128.205693 
L 176.249517 126.242413 
L 177.879309 127.677118 
L 179.509101 128.447328 
L 181.138893 126.997521 
L 182.768685 129.187333 
L 184.398477 126.816295 
L 186.028269 128.991005 
L 187.65806 128.522838 
L 189.287852 130.07836 
L 190.917644 127.994263 
L 192.547436 129.791419 
L 194.177228 128.658758 
L 195.80702 130.093462 
L 197.436812 128.930596 
L 199.066604 129.821623 
L 200.696396 130.440812 
L 202.326188 127.933854 
L 203.955979 131.256328 
L 205.585771 131.603677 
L 207.215563 126.967317 
L 208.845355 130.576731 
L 210.475147 127.948957 
L 212.104939 128.991005 
L 213.734731 132.796747 
L 215.364523 128.734268 
L 216.994315 129.957543 
L 218.624106 132.721237 
L 220.253898 129.398763 
L 221.88369 130.28979 
L 223.513482 129.791419 
L 225.143274 129.715908 
L 226.773066 130.531425 
L 228.402858 133.008177 
L 231.662442 131.588575 
L 233.292234 129.293048 
L 234.922025 130.878774 
L 236.551817 132.902462 
L 238.181609 129.172231 
L 239.811401 134.21635 
L 241.441193 129.972645 
L 243.070985 132.842054 
L 244.700777 130.410607 
L 246.330569 129.504478 
L 247.960361 135.681258 
L 249.590152 133.400833 
L 251.219944 132.026538 
L 252.849736 135.031866 
L 254.479528 133.02328 
L 256.10932 131.815107 
L 257.739112 131.981231 
L 259.368904 134.473086 
L 260.998696 132.524909 
L 262.628488 136.134323 
L 264.25828 133.717979 
L 265.888071 134.971457 
L 267.517863 133.44614 
L 269.147655 135.182887 
L 270.777447 132.645726 
L 272.407239 135.137581 
L 274.037031 135.666156 
L 275.666823 136.632694 
L 277.296615 133.627366 
L 278.926407 136.119221 
L 280.556198 133.113893 
L 282.18599 136.904533 
L 283.815782 134.231452 
L 285.445574 136.859226 
L 287.075366 135.575543 
L 288.705158 136.647796 
L 290.33495 134.186145 
L 291.964742 136.859226 
L 293.594534 136.738409 
L 295.224326 136.330651 
L 296.854117 138.973527 
L 298.483909 134.880844 
L 300.113701 137.855968 
L 301.743493 135.922893 
L 303.373285 134.880844 
L 305.003077 138.263726 
L 306.632869 137.100861 
L 308.262661 138.21842 
L 309.892453 138.490259 
L 311.522244 134.533495 
L 313.152036 137.372699 
L 314.781828 137.342495 
L 316.41162 136.194732 
L 318.041412 136.406162 
L 319.671204 135.515135 
L 321.300996 136.617592 
L 322.930788 133.884102 
L 324.56058 135.06207 
L 326.190372 141.284157 
L 327.820163 138.067398 
L 329.449955 140.60456 
L 331.079747 137.02535 
L 332.709539 135.454726 
L 334.339331 136.013506 
L 335.969123 138.731893 
L 337.598915 139.607818 
L 339.228707 147.717673 
L 340.858499 141.5862 
L 342.48829 138.309033 
L 345.747874 130.138769 
L 347.377666 133.295118 
L 349.007458 138.867812 
L 350.63725 132.872258 
L 352.267042 127.90365 
L 353.896834 128.356715 
L 355.526626 126.000779 
L 357.156418 127.69222 
L 358.786209 136.134323 
L 360.416001 135.213092 
L 363.675585 142.884985 
L 365.305377 141.873141 
L 366.935169 141.782528 
L 368.564961 138.731893 
L 370.194753 137.65964 
L 373.454336 143.579684 
L 375.084128 141.420076 
L 376.71392 141.299259 
L 378.343712 137.372699 
L 379.973504 138.173113 
L 381.603296 141.601302 
L 383.233088 139.426592 
L 384.86288 140.695173 
L 386.492672 135.515135 
L 388.122464 138.233522 
L 389.752255 127.737526 
L 391.382047 132.736339 
L 393.011839 148.925846 
L 394.641631 106.156551 
L 396.271423 67.570553 
L 397.901215 312.995625 
L 399.531007 35.795625 
L 401.160799 91.084603 
L 402.790591 109.599842 
L 404.420382 131.845312 
L 406.050174 135.666156 
L 407.679966 155.298954 
L 409.309758 142.658453 
L 410.93955 133.370629 
L 412.569342 140.695173 
L 414.199134 144.802958 
L 415.828926 148.034819 
L 417.458718 147.294813 
L 419.08851 136.874328 
L 420.718301 136.089016 
L 422.348093 138.898017 
L 423.977885 142.733963 
L 425.607677 147.687469 
L 427.237469 149.288297 
L 428.867261 139.230264 
L 430.497053 141.510689 
L 432.126845 142.175184 
L 433.756637 145.603372 
L 435.386428 143.957238 
L 437.01622 140.272313 
L 438.646012 134.518393 
L 440.275804 138.248624 
L 441.905596 148.518088 
L 443.535388 136.481672 
L 445.16518 133.44614 
L 446.794972 129.836726 
L 448.424764 135.379215 
L 450.054556 138.626178 
L 451.684347 138.173113 
L 453.314139 138.460054 
L 454.943931 137.463312 
L 456.573723 138.354339 
L 458.203515 134.397575 
L 459.833307 136.46657 
L 461.463099 136.360855 
L 463.092891 135.651054 
L 464.722683 138.580872 
L 466.352475 134.322065 
L 467.982266 135.651054 
L 469.612058 136.60249 
L 471.24185 136.768613 
L 472.871642 139.079243 
L 474.501434 137.433108 
L 476.131226 140.81599 
L 477.761018 140.513947 
L 479.39081 138.324135 
L 479.39081 138.324135 
" clip-path="url(#pb0467c06a1)" style="fill: none; stroke: #0272a2; stroke-width: 1.75; stroke-linecap: round"/>
   </g>
   <g id="line2d_34">
    <path d="M 73.572628 113.933969 
L 75.20242 114.320337 
L 76.832212 113.894342 
L 78.462004 115.469534 
L 80.091795 113.527787 
L 81.721587 113.844807 
L 83.351379 115.727113 
L 84.981171 112.646076 
L 86.610963 114.795867 
L 88.240755 113.775459 
L 89.870547 115.192142 
L 91.500339 114.736426 
L 93.130131 113.270209 
L 96.389714 113.359371 
L 98.019506 115.083166 
L 99.649298 115.301117 
L 101.27909 112.130919 
L 102.908882 113.874528 
L 104.538674 113.973597 
L 106.168466 114.637357 
L 107.798258 111.843619 
L 109.42805 115.637951 
L 111.057841 115.10298 
L 112.687633 113.339557 
L 114.317425 113.745738 
L 115.947217 114.320337 
L 117.577009 114.142013 
L 119.206801 114.201455 
L 120.836593 113.260302 
L 122.466385 114.419406 
L 124.096177 114.340151 
L 125.725968 113.666484 
L 127.35576 114.429313 
L 128.985552 114.082572 
L 130.615344 114.805774 
L 132.245136 113.884435 
L 133.874928 114.112293 
L 135.50472 113.933969 
L 137.134512 112.873934 
L 138.764304 115.370465 
L 140.394096 113.765552 
L 142.023887 113.696204 
L 143.653679 114.657171 
L 145.283471 114.31043 
L 146.913263 113.636763 
L 148.543055 114.300523 
L 150.172847 112.913561 
L 151.802639 114.211361 
L 153.432431 114.459033 
L 155.062223 115.340745 
L 156.692014 113.151326 
L 158.321806 113.002723 
L 159.951598 113.933969 
L 161.58139 113.418812 
L 163.211182 113.458439 
L 164.840974 112.844213 
L 166.470766 115.231769 
L 168.100558 114.667077 
L 169.73035 112.497473 
L 171.360142 113.359371 
L 172.989933 113.547601 
L 174.619725 114.647264 
L 176.249517 113.052258 
L 177.879309 114.478847 
L 179.509101 114.518474 
L 181.138893 112.794679 
L 182.768685 114.369871 
L 184.398477 112.745145 
L 186.028269 113.924062 
L 187.65806 113.765552 
L 189.287852 114.914749 
L 192.547436 114.241082 
L 194.177228 113.96369 
L 195.80702 112.933375 
L 197.436812 115.003911 
L 199.066604 113.379184 
L 200.696396 114.766146 
L 202.326188 115.499255 
L 203.955979 114.617543 
L 205.585771 111.655389 
L 207.215563 115.756833 
L 208.845355 114.46894 
L 210.475147 115.479441 
L 212.104939 112.319149 
L 213.734731 114.568009 
L 215.364523 115.429906 
L 216.994315 113.884435 
L 220.253898 112.8244 
L 221.88369 115.370465 
L 223.513482 113.67639 
L 225.143274 114.597729 
L 226.773066 112.923468 
L 228.402858 114.78596 
L 230.03265 114.320337 
L 231.662442 114.657171 
L 233.292234 113.042351 
L 236.551817 114.647264 
L 238.181609 112.636169 
L 239.811401 116.608824 
L 241.441193 114.676984 
L 243.070985 113.785366 
L 244.700777 113.379184 
L 246.330569 114.459033 
L 247.960361 113.250395 
L 249.590152 113.131513 
L 251.219944 112.844213 
L 254.479528 114.15192 
L 256.10932 117.490536 
L 257.739112 113.230581 
L 259.368904 114.379778 
L 260.998696 113.498067 
L 262.628488 113.973597 
L 264.25828 113.567415 
L 265.888071 113.369277 
L 267.517863 114.667077 
L 269.147655 113.51788 
L 270.777447 114.568009 
L 272.407239 112.774865 
L 274.037031 113.824993 
L 275.666823 114.379778 
L 277.296615 115.192142 
L 278.926407 114.766146 
L 280.556198 112.358777 
L 282.18599 113.933969 
L 283.815782 114.072665 
L 285.445574 113.527787 
L 287.075366 113.716018 
L 288.705158 114.538288 
L 290.33495 114.290616 
L 291.964742 112.725331 
L 293.594534 115.251583 
L 295.224326 112.834306 
L 296.854117 114.647264 
L 298.483909 114.558102 
L 300.113701 113.983503 
L 301.743493 114.46894 
L 303.373285 113.290022 
L 306.632869 114.379778 
L 308.262661 112.685703 
L 309.892453 113.656577 
L 311.522244 114.488754 
L 313.152036 116.777241 
L 314.781828 113.607042 
L 316.41162 113.824993 
L 318.041412 113.48816 
L 319.671204 114.389685 
L 321.300996 113.230581 
L 322.930788 114.201455 
L 324.56058 113.369277 
L 326.190372 113.864621 
L 327.820163 115.677578 
L 329.449955 113.597135 
L 331.079747 114.597729 
L 332.709539 115.796461 
L 334.339331 112.69561 
L 335.969123 115.429906 
L 337.598915 113.725925 
L 339.228707 112.428125 
L 340.858499 113.022537 
L 342.48829 114.092479 
L 344.118082 114.449126 
L 345.747874 113.933969 
L 347.377666 113.67639 
L 350.63725 114.409499 
L 352.267042 112.943282 
L 353.896834 115.093073 
L 357.156418 113.210767 
L 358.786209 114.696798 
L 360.416001 114.716612 
L 362.045793 112.091291 
L 363.675585 115.429906 
L 365.305377 112.963096 
L 366.935169 114.805774 
L 368.564961 113.854714 
L 370.194753 113.636763 
L 371.824545 115.44972 
L 373.454336 113.706111 
L 375.084128 112.705517 
L 376.71392 113.795273 
L 378.343712 114.508568 
L 379.973504 113.537694 
L 381.603296 112.864027 
L 383.233088 115.360558 
L 384.86288 114.538288 
L 386.492672 112.041757 
L 388.122464 114.934563 
L 389.752255 113.072071 
L 391.382047 115.76674 
L 393.011839 112.675796 
L 394.641631 113.537694 
L 396.271423 114.013224 
L 397.901215 112.903654 
L 399.531007 115.390279 
L 401.160799 113.8349 
L 402.790591 114.756239 
L 404.420382 114.934563 
L 406.050174 111.189766 
L 407.679966 113.64667 
L 409.309758 115.499255 
L 410.93955 113.260302 
L 412.569342 113.478253 
L 414.199134 113.844807 
L 415.828926 114.330244 
L 417.458718 113.17114 
L 419.08851 114.825587 
L 420.718301 113.686297 
L 422.348093 114.815681 
L 423.977885 113.01263 
L 425.607677 114.003317 
L 427.237469 114.587822 
L 428.867261 113.577322 
L 430.497053 114.97419 
L 432.126845 113.914155 
L 433.756637 113.894342 
L 435.386428 113.379184 
L 437.01622 113.577322 
L 440.275804 114.716612 
L 441.905596 114.300523 
L 443.535388 114.587822 
L 445.16518 113.468346 
L 446.794972 114.013224 
L 448.424764 114.260896 
L 450.054556 113.716018 
L 451.684347 114.330244 
L 453.314139 113.815087 
L 454.943931 113.51788 
L 456.573723 114.280709 
L 458.203515 113.48816 
L 459.833307 112.210174 
L 461.463099 114.815681 
L 463.092891 114.161827 
L 464.722683 113.795273 
L 466.352475 114.528381 
L 467.982266 114.023131 
L 469.612058 114.132106 
L 471.24185 113.99341 
L 472.871642 117.143795 
L 474.501434 111.744551 
L 476.131226 114.97419 
L 477.761018 113.933969 
L 479.39081 115.043539 
L 479.39081 115.043539 
" clip-path="url(#pb0467c06a1)" style="fill: none; stroke-dasharray: 1.75,2.8875; stroke-dashoffset: 0; stroke: #9fc377; stroke-width: 1.75"/>
   </g>
   <g id="patch_3">
    <path d="M 53.281719 326.855625 
L 53.281719 21.935625 
" style="fill: none; stroke: #cccccc; stroke-width: 1.25; stroke-linejoin: miter; stroke-linecap: square"/>
   </g>
   <g id="patch_4">
    <path d="M 499.681719 326.855625 
L 499.681719 21.935625 
" style="fill: none; stroke: #cccccc; stroke-width: 1.25; stroke-linejoin: miter; stroke-linecap: square"/>
   </g>
   <g id="patch_5">
    <path d="M 53.281719 326.855625 
L 499.681719 326.855625 
" style="fill: none; stroke: #cccccc; stroke-width: 1.25; stroke-linejoin: miter; stroke-linecap: square"/>
   </g>
   <g id="patch_6">
    <path d="M 53.281719 21.935625 
L 499.681719 21.935625 
" style="fill: none; stroke: #cccccc; stroke-width: 1.25; stroke-linejoin: miter; stroke-linecap: square"/>
   </g>
   <g id="text_35">
    <!-- "Twist" for dataset Mouse_non_tata -->
    <g style="fill: #262626" transform="translate(182.174844 15.935625) scale(0.12 -0.12)">
     <defs>
      <path id="ArialMT-22" d="M 450 2959 
L 294 3831 
L 294 4581 
L 934 4581 
L 934 3831 
L 794 2959 
L 450 2959 
z
M 1484 2959 
L 1331 3831 
L 1331 4581 
L 1972 4581 
L 1972 3831 
L 1822 2959 
L 1484 2959 
z
" transform="scale(0.015625)"/>
      <path id="ArialMT-20" transform="scale(0.015625)"/>
      <path id="ArialMT-66" d="M 556 0 
L 556 2881 
L 59 2881 
L 59 3319 
L 556 3319 
L 556 3672 
Q 556 4006 616 4169 
Q 697 4388 901 4523 
Q 1106 4659 1475 4659 
Q 1713 4659 2000 4603 
L 1916 4113 
Q 1741 4144 1584 4144 
Q 1328 4144 1222 4034 
Q 1116 3925 1116 3625 
L 1116 3319 
L 1763 3319 
L 1763 2881 
L 1116 2881 
L 1116 0 
L 556 0 
z
" transform="scale(0.015625)"/>
      <path id="ArialMT-72" d="M 416 0 
L 416 3319 
L 922 3319 
L 922 2816 
Q 1116 3169 1280 3281 
Q 1444 3394 1641 3394 
Q 1925 3394 2219 3213 
L 2025 2691 
Q 1819 2813 1613 2813 
Q 1428 2813 1281 2702 
Q 1134 2591 1072 2394 
Q 978 2094 978 1738 
L 978 0 
L 416 0 
z
" transform="scale(0.015625)"/>
      <path id="ArialMT-64" d="M 2575 0 
L 2575 419 
Q 2259 -75 1647 -75 
Q 1250 -75 917 144 
Q 584 363 401 755 
Q 219 1147 219 1656 
Q 219 2153 384 2558 
Q 550 2963 881 3178 
Q 1213 3394 1622 3394 
Q 1922 3394 2156 3267 
Q 2391 3141 2538 2938 
L 2538 4581 
L 3097 4581 
L 3097 0 
L 2575 0 
z
M 797 1656 
Q 797 1019 1065 703 
Q 1334 388 1700 388 
Q 2069 388 2326 689 
Q 2584 991 2584 1609 
Q 2584 2291 2321 2609 
Q 2059 2928 1675 2928 
Q 1300 2928 1048 2622 
Q 797 2316 797 1656 
z
" transform="scale(0.015625)"/>
      <path id="ArialMT-61" d="M 2588 409 
Q 2275 144 1986 34 
Q 1697 -75 1366 -75 
Q 819 -75 525 192 
Q 231 459 231 875 
Q 231 1119 342 1320 
Q 453 1522 633 1644 
Q 813 1766 1038 1828 
Q 1203 1872 1538 1913 
Q 2219 1994 2541 2106 
Q 2544 2222 2544 2253 
Q 2544 2597 2384 2738 
Q 2169 2928 1744 2928 
Q 1347 2928 1158 2789 
Q 969 2650 878 2297 
L 328 2372 
Q 403 2725 575 2942 
Q 747 3159 1072 3276 
Q 1397 3394 1825 3394 
Q 2250 3394 2515 3294 
Q 2781 3194 2906 3042 
Q 3031 2891 3081 2659 
Q 3109 2516 3109 2141 
L 3109 1391 
Q 3109 606 3145 398 
Q 3181 191 3288 0 
L 2700 0 
Q 2613 175 2588 409 
z
M 2541 1666 
Q 2234 1541 1622 1453 
Q 1275 1403 1131 1340 
Q 988 1278 909 1158 
Q 831 1038 831 891 
Q 831 666 1001 516 
Q 1172 366 1500 366 
Q 1825 366 2078 508 
Q 2331 650 2450 897 
Q 2541 1088 2541 1459 
L 2541 1666 
z
" transform="scale(0.015625)"/>
      <path id="ArialMT-65" d="M 2694 1069 
L 3275 997 
Q 3138 488 2766 206 
Q 2394 -75 1816 -75 
Q 1088 -75 661 373 
Q 234 822 234 1631 
Q 234 2469 665 2931 
Q 1097 3394 1784 3394 
Q 2450 3394 2872 2941 
Q 3294 2488 3294 1666 
Q 3294 1616 3291 1516 
L 816 1516 
Q 847 969 1125 678 
Q 1403 388 1819 388 
Q 2128 388 2347 550 
Q 2566 713 2694 1069 
z
M 847 1978 
L 2700 1978 
Q 2663 2397 2488 2606 
Q 2219 2931 1791 2931 
Q 1403 2931 1139 2672 
Q 875 2413 847 1978 
z
" transform="scale(0.015625)"/>
      <path id="ArialMT-4d" d="M 475 0 
L 475 4581 
L 1388 4581 
L 2472 1338 
Q 2622 884 2691 659 
Q 2769 909 2934 1394 
L 4031 4581 
L 4847 4581 
L 4847 0 
L 4263 0 
L 4263 3834 
L 2931 0 
L 2384 0 
L 1059 3900 
L 1059 0 
L 475 0 
z
" transform="scale(0.015625)"/>
      <path id="ArialMT-75" d="M 2597 0 
L 2597 488 
Q 2209 -75 1544 -75 
Q 1250 -75 995 37 
Q 741 150 617 320 
Q 494 491 444 738 
Q 409 903 409 1263 
L 409 3319 
L 972 3319 
L 972 1478 
Q 972 1038 1006 884 
Q 1059 663 1231 536 
Q 1403 409 1656 409 
Q 1909 409 2131 539 
Q 2353 669 2445 892 
Q 2538 1116 2538 1541 
L 2538 3319 
L 3100 3319 
L 3100 0 
L 2597 0 
z
" transform="scale(0.015625)"/>
      <path id="ArialMT-5f" d="M -97 -1272 
L -97 -866 
L 3631 -866 
L 3631 -1272 
L -97 -1272 
z
" transform="scale(0.015625)"/>
     </defs>
     <use xlink:href="#ArialMT-22"/>
     <use xlink:href="#ArialMT-54" x="35.498047"/>
     <use xlink:href="#ArialMT-77" x="91.082031"/>
     <use xlink:href="#ArialMT-69" x="163.298828"/>
     <use xlink:href="#ArialMT-73" x="185.515625"/>
     <use xlink:href="#ArialMT-74" x="235.515625"/>
     <use xlink:href="#ArialMT-22" x="263.298828"/>
     <use xlink:href="#ArialMT-20" x="298.796875"/>
     <use xlink:href="#ArialMT-66" x="326.580078"/>
     <use xlink:href="#ArialMT-6f" x="354.363281"/>
     <use xlink:href="#ArialMT-72" x="409.978516"/>
     <use xlink:href="#ArialMT-20" x="443.279297"/>
     <use xlink:href="#ArialMT-64" x="471.0625"/>
     <use xlink:href="#ArialMT-61" x="526.677734"/>
     <use xlink:href="#ArialMT-74" x="582.292969"/>
     <use xlink:href="#ArialMT-61" x="610.076172"/>
     <use xlink:href="#ArialMT-73" x="665.691406"/>
     <use xlink:href="#ArialMT-65" x="715.691406"/>
     <use xlink:href="#ArialMT-74" x="771.306641"/>
     <use xlink:href="#ArialMT-20" x="799.089844"/>
     <use xlink:href="#ArialMT-4d" x="826.873047"/>
     <use xlink:href="#ArialMT-6f" x="910.173828"/>
     <use xlink:href="#ArialMT-75" x="965.789062"/>
     <use xlink:href="#ArialMT-73" x="1021.404297"/>
     <use xlink:href="#ArialMT-65" x="1071.404297"/>
     <use xlink:href="#ArialMT-5f" x="1127.019531"/>
     <use xlink:href="#ArialMT-6e" x="1182.634766"/>
     <use xlink:href="#ArialMT-6f" x="1238.25"/>
     <use xlink:href="#ArialMT-6e" x="1293.865234"/>
     <use xlink:href="#ArialMT-5f" x="1349.480469"/>
     <use xlink:href="#ArialMT-74" x="1405.095703"/>
     <use xlink:href="#ArialMT-61" x="1432.878906"/>
     <use xlink:href="#ArialMT-74" x="1488.494141"/>
     <use xlink:href="#ArialMT-61" x="1516.277344"/>
    </g>
   </g>
   <g id="legend_1">
    <g id="line2d_35">
     <path d="M 62.281719 34.593437 
L 72.281719 34.593437 
L 82.281719 34.593437 
" style="fill: none; stroke: #0272a2; stroke-width: 1.75; stroke-linecap: round"/>
    </g>
    <g id="text_36">
     <!-- Promoter -->
     <g style="fill: #262626" transform="translate(90.281719 38.093437) scale(0.1 -0.1)">
      <defs>
       <path id="ArialMT-6d" d="M 422 0 
L 422 3319 
L 925 3319 
L 925 2853 
Q 1081 3097 1340 3245 
Q 1600 3394 1931 3394 
Q 2300 3394 2536 3241 
Q 2772 3088 2869 2813 
Q 3263 3394 3894 3394 
Q 4388 3394 4653 3120 
Q 4919 2847 4919 2278 
L 4919 0 
L 4359 0 
L 4359 2091 
Q 4359 2428 4304 2576 
Q 4250 2725 4106 2815 
Q 3963 2906 3769 2906 
Q 3419 2906 3187 2673 
Q 2956 2441 2956 1928 
L 2956 0 
L 2394 0 
L 2394 2156 
Q 2394 2531 2256 2718 
Q 2119 2906 1806 2906 
Q 1569 2906 1367 2781 
Q 1166 2656 1075 2415 
Q 984 2175 984 1722 
L 984 0 
L 422 0 
z
" transform="scale(0.015625)"/>
      </defs>
      <use xlink:href="#ArialMT-50"/>
      <use xlink:href="#ArialMT-72" x="66.699219"/>
      <use xlink:href="#ArialMT-6f" x="100"/>
      <use xlink:href="#ArialMT-6d" x="155.615234"/>
      <use xlink:href="#ArialMT-6f" x="238.916016"/>
      <use xlink:href="#ArialMT-74" x="294.53125"/>
      <use xlink:href="#ArialMT-65" x="322.314453"/>
      <use xlink:href="#ArialMT-72" x="377.929688"/>
     </g>
    </g>
    <g id="line2d_36">
     <path d="M 62.281719 48.73875 
L 72.281719 48.73875 
L 82.281719 48.73875 
" style="fill: none; stroke-dasharray: 1.75,2.8875; stroke-dashoffset: 0; stroke: #9fc377; stroke-width: 1.75"/>
    </g>
    <g id="text_37">
     <!-- Non-promoter -->
     <g style="fill: #262626" transform="translate(90.281719 52.23875) scale(0.1 -0.1)">
      <defs>
       <path id="ArialMT-4e" d="M 488 0 
L 488 4581 
L 1109 4581 
L 3516 984 
L 3516 4581 
L 4097 4581 
L 4097 0 
L 3475 0 
L 1069 3600 
L 1069 0 
L 488 0 
z
" transform="scale(0.015625)"/>
       <path id="ArialMT-70" d="M 422 -1272 
L 422 3319 
L 934 3319 
L 934 2888 
Q 1116 3141 1344 3267 
Q 1572 3394 1897 3394 
Q 2322 3394 2647 3175 
Q 2972 2956 3137 2557 
Q 3303 2159 3303 1684 
Q 3303 1175 3120 767 
Q 2938 359 2589 142 
Q 2241 -75 1856 -75 
Q 1575 -75 1351 44 
Q 1128 163 984 344 
L 984 -1272 
L 422 -1272 
z
M 931 1641 
Q 931 1000 1190 694 
Q 1450 388 1819 388 
Q 2194 388 2461 705 
Q 2728 1022 2728 1688 
Q 2728 2322 2467 2637 
Q 2206 2953 1844 2953 
Q 1484 2953 1207 2617 
Q 931 2281 931 1641 
z
" transform="scale(0.015625)"/>
      </defs>
      <use xlink:href="#ArialMT-4e"/>
      <use xlink:href="#ArialMT-6f" x="72.216797"/>
      <use xlink:href="#ArialMT-6e" x="127.832031"/>
      <use xlink:href="#ArialMT-2d" x="183.447266"/>
      <use xlink:href="#ArialMT-70" x="216.748047"/>
      <use xlink:href="#ArialMT-72" x="272.363281"/>
      <use xlink:href="#ArialMT-6f" x="305.664062"/>
      <use xlink:href="#ArialMT-6d" x="361.279297"/>
      <use xlink:href="#ArialMT-6f" x="444.580078"/>
      <use xlink:href="#ArialMT-74" x="500.195312"/>
      <use xlink:href="#ArialMT-65" x="527.978516"/>
      <use xlink:href="#ArialMT-72" x="583.59375"/>
     </g>
    </g>
   </g>
  </g>
 </g>
 <defs>
  <clipPath id="pb0467c06a1">
   <rect x="53.281719" y="21.935625" width="446.4" height="304.92"/>
  </clipPath>
 </defs>
</svg>
