<?xml version="1.0" encoding="utf-8" standalone="no"?>
<!DOCTYPE svg PUBLIC "-//W3C//DTD SVG 1.1//EN"
  "http://www.w3.org/Graphics/SVG/1.1/DTD/svg11.dtd">
<svg xmlns:xlink="http://www.w3.org/1999/xlink" width="501.58375pt" height="375.733156pt" viewBox="0 0 501.58375 375.733156" xmlns="http://www.w3.org/2000/svg" version="1.1">
 <metadata>
  <rdf:RDF xmlns:dc="http://purl.org/dc/elements/1.1/" xmlns:cc="http://creativecommons.org/ns#" xmlns:rdf="http://www.w3.org/1999/02/22-rdf-syntax-ns#">
   <cc:Work>
    <dc:type rdf:resource="http://purl.org/dc/dcmitype/StillImage"/>
    <dc:date>2023-05-11T16:25:45.525243</dc:date>
    <dc:format>image/svg+xml</dc:format>
    <dc:creator>
     <cc:Agent>
      <dc:title>Matplotlib v3.7.1, https://matplotlib.org/</dc:title>
     </cc:Agent>
    </dc:creator>
   </cc:Work>
  </rdf:RDF>
 </metadata>
 <defs>
  <style type="text/css">*{stroke-linejoin: round; stroke-linecap: butt}</style>
 </defs>
 <g id="figure_1">
  <g id="patch_1">
   <path d="M 0 375.733156 
L 501.58375 375.733156 
L 501.58375 0 
L 0 0 
z
" style="fill: #ffffff"/>
  </g>
  <g id="axes_1">
   <g id="patch_2">
    <path d="M 47.98375 326.855625 
L 494.38375 326.855625 
L 494.38375 21.935625 
L 47.98375 21.935625 
z
" style="fill: #ffffff"/>
   </g>
   <g id="matplotlib.axis_1">
    <g id="xtick_1">
     <g id="line2d_1"/>
     <g id="text_1">
      <!-- -200 -->
      <g style="fill: #262626" transform="translate(63.027153 353.067937) rotate(-45) scale(0.1 -0.1)">
       <defs>
        <path id="ArialMT-2d" d="M 203 1375 
L 203 1941 
L 1931 1941 
L 1931 1375 
L 203 1375 
z
" transform="scale(0.015625)"/>
        <path id="ArialMT-32" d="M 3222 541 
L 3222 0 
L 194 0 
Q 188 203 259 391 
Q 375 700 629 1000 
Q 884 1300 1366 1694 
Q 2113 2306 2375 2664 
Q 2638 3022 2638 3341 
Q 2638 3675 2398 3904 
Q 2159 4134 1775 4134 
Q 1369 4134 1125 3890 
Q 881 3647 878 3216 
L 300 3275 
Q 359 3922 746 4261 
Q 1134 4600 1788 4600 
Q 2447 4600 2831 4234 
Q 3216 3869 3216 3328 
Q 3216 3053 3103 2787 
Q 2991 2522 2730 2228 
Q 2469 1934 1863 1422 
Q 1356 997 1212 845 
Q 1069 694 975 541 
L 3222 541 
z
" transform="scale(0.015625)"/>
        <path id="ArialMT-30" d="M 266 2259 
Q 266 3072 433 3567 
Q 600 4063 929 4331 
Q 1259 4600 1759 4600 
Q 2128 4600 2406 4451 
Q 2684 4303 2865 4023 
Q 3047 3744 3150 3342 
Q 3253 2941 3253 2259 
Q 3253 1453 3087 958 
Q 2922 463 2592 192 
Q 2263 -78 1759 -78 
Q 1097 -78 719 397 
Q 266 969 266 2259 
z
M 844 2259 
Q 844 1131 1108 757 
Q 1372 384 1759 384 
Q 2147 384 2411 759 
Q 2675 1134 2675 2259 
Q 2675 3391 2411 3762 
Q 2147 4134 1753 4134 
Q 1366 4134 1134 3806 
Q 844 3388 844 2259 
z
" transform="scale(0.015625)"/>
       </defs>
       <use xlink:href="#ArialMT-2d"/>
       <use xlink:href="#ArialMT-32" x="33.300781"/>
       <use xlink:href="#ArialMT-30" x="88.916016"/>
       <use xlink:href="#ArialMT-30" x="144.53125"/>
      </g>
     </g>
    </g>
    <g id="xtick_2">
     <g id="line2d_2"/>
     <g id="text_2">
      <!-- -190 -->
      <g style="fill: #262626" transform="translate(79.325072 353.067937) rotate(-45) scale(0.1 -0.1)">
       <defs>
        <path id="ArialMT-31" d="M 2384 0 
L 1822 0 
L 1822 3584 
Q 1619 3391 1289 3197 
Q 959 3003 697 2906 
L 697 3450 
Q 1169 3672 1522 3987 
Q 1875 4303 2022 4600 
L 2384 4600 
L 2384 0 
z
" transform="scale(0.015625)"/>
        <path id="ArialMT-39" d="M 350 1059 
L 891 1109 
Q 959 728 1153 556 
Q 1347 384 1650 384 
Q 1909 384 2104 503 
Q 2300 622 2425 820 
Q 2550 1019 2634 1356 
Q 2719 1694 2719 2044 
Q 2719 2081 2716 2156 
Q 2547 1888 2255 1720 
Q 1963 1553 1622 1553 
Q 1053 1553 659 1965 
Q 266 2378 266 3053 
Q 266 3750 677 4175 
Q 1088 4600 1706 4600 
Q 2153 4600 2523 4359 
Q 2894 4119 3086 3673 
Q 3278 3228 3278 2384 
Q 3278 1506 3087 986 
Q 2897 466 2520 194 
Q 2144 -78 1638 -78 
Q 1100 -78 759 220 
Q 419 519 350 1059 
z
M 2653 3081 
Q 2653 3566 2395 3850 
Q 2138 4134 1775 4134 
Q 1400 4134 1122 3828 
Q 844 3522 844 3034 
Q 844 2597 1108 2323 
Q 1372 2050 1759 2050 
Q 2150 2050 2401 2323 
Q 2653 2597 2653 3081 
z
" transform="scale(0.015625)"/>
       </defs>
       <use xlink:href="#ArialMT-2d"/>
       <use xlink:href="#ArialMT-31" x="33.300781"/>
       <use xlink:href="#ArialMT-39" x="88.916016"/>
       <use xlink:href="#ArialMT-30" x="144.53125"/>
      </g>
     </g>
    </g>
    <g id="xtick_3">
     <g id="line2d_3"/>
     <g id="text_3">
      <!-- -180 -->
      <g style="fill: #262626" transform="translate(95.622991 353.067937) rotate(-45) scale(0.1 -0.1)">
       <defs>
        <path id="ArialMT-38" d="M 1131 2484 
Q 781 2613 612 2850 
Q 444 3088 444 3419 
Q 444 3919 803 4259 
Q 1163 4600 1759 4600 
Q 2359 4600 2725 4251 
Q 3091 3903 3091 3403 
Q 3091 3084 2923 2848 
Q 2756 2613 2416 2484 
Q 2838 2347 3058 2040 
Q 3278 1734 3278 1309 
Q 3278 722 2862 322 
Q 2447 -78 1769 -78 
Q 1091 -78 675 323 
Q 259 725 259 1325 
Q 259 1772 486 2073 
Q 713 2375 1131 2484 
z
M 1019 3438 
Q 1019 3113 1228 2906 
Q 1438 2700 1772 2700 
Q 2097 2700 2305 2904 
Q 2513 3109 2513 3406 
Q 2513 3716 2298 3927 
Q 2084 4138 1766 4138 
Q 1444 4138 1231 3931 
Q 1019 3725 1019 3438 
z
M 838 1322 
Q 838 1081 952 856 
Q 1066 631 1291 507 
Q 1516 384 1775 384 
Q 2178 384 2440 643 
Q 2703 903 2703 1303 
Q 2703 1709 2433 1975 
Q 2163 2241 1756 2241 
Q 1359 2241 1098 1978 
Q 838 1716 838 1322 
z
" transform="scale(0.015625)"/>
       </defs>
       <use xlink:href="#ArialMT-2d"/>
       <use xlink:href="#ArialMT-31" x="33.300781"/>
       <use xlink:href="#ArialMT-38" x="88.916016"/>
       <use xlink:href="#ArialMT-30" x="144.53125"/>
      </g>
     </g>
    </g>
    <g id="xtick_4">
     <g id="line2d_4"/>
     <g id="text_4">
      <!-- -170 -->
      <g style="fill: #262626" transform="translate(111.92091 353.067937) rotate(-45) scale(0.1 -0.1)">
       <defs>
        <path id="ArialMT-37" d="M 303 3981 
L 303 4522 
L 3269 4522 
L 3269 4084 
Q 2831 3619 2401 2847 
Q 1972 2075 1738 1259 
Q 1569 684 1522 0 
L 944 0 
Q 953 541 1156 1306 
Q 1359 2072 1739 2783 
Q 2119 3494 2547 3981 
L 303 3981 
z
" transform="scale(0.015625)"/>
       </defs>
       <use xlink:href="#ArialMT-2d"/>
       <use xlink:href="#ArialMT-31" x="33.300781"/>
       <use xlink:href="#ArialMT-37" x="88.916016"/>
       <use xlink:href="#ArialMT-30" x="144.53125"/>
      </g>
     </g>
    </g>
    <g id="xtick_5">
     <g id="line2d_5"/>
     <g id="text_5">
      <!-- -160 -->
      <g style="fill: #262626" transform="translate(128.218829 353.067937) rotate(-45) scale(0.1 -0.1)">
       <defs>
        <path id="ArialMT-36" d="M 3184 3459 
L 2625 3416 
Q 2550 3747 2413 3897 
Q 2184 4138 1850 4138 
Q 1581 4138 1378 3988 
Q 1113 3794 959 3422 
Q 806 3050 800 2363 
Q 1003 2672 1297 2822 
Q 1591 2972 1913 2972 
Q 2475 2972 2870 2558 
Q 3266 2144 3266 1488 
Q 3266 1056 3080 686 
Q 2894 316 2569 119 
Q 2244 -78 1831 -78 
Q 1128 -78 684 439 
Q 241 956 241 2144 
Q 241 3472 731 4075 
Q 1159 4600 1884 4600 
Q 2425 4600 2770 4297 
Q 3116 3994 3184 3459 
z
M 888 1484 
Q 888 1194 1011 928 
Q 1134 663 1356 523 
Q 1578 384 1822 384 
Q 2178 384 2434 671 
Q 2691 959 2691 1453 
Q 2691 1928 2437 2201 
Q 2184 2475 1800 2475 
Q 1419 2475 1153 2201 
Q 888 1928 888 1484 
z
" transform="scale(0.015625)"/>
       </defs>
       <use xlink:href="#ArialMT-2d"/>
       <use xlink:href="#ArialMT-31" x="33.300781"/>
       <use xlink:href="#ArialMT-36" x="88.916016"/>
       <use xlink:href="#ArialMT-30" x="144.53125"/>
      </g>
     </g>
    </g>
    <g id="xtick_6">
     <g id="line2d_6"/>
     <g id="text_6">
      <!-- -150 -->
      <g style="fill: #262626" transform="translate(144.516748 353.067937) rotate(-45) scale(0.1 -0.1)">
       <defs>
        <path id="ArialMT-35" d="M 266 1200 
L 856 1250 
Q 922 819 1161 601 
Q 1400 384 1738 384 
Q 2144 384 2425 690 
Q 2706 997 2706 1503 
Q 2706 1984 2436 2262 
Q 2166 2541 1728 2541 
Q 1456 2541 1237 2417 
Q 1019 2294 894 2097 
L 366 2166 
L 809 4519 
L 3088 4519 
L 3088 3981 
L 1259 3981 
L 1013 2750 
Q 1425 3038 1878 3038 
Q 2478 3038 2890 2622 
Q 3303 2206 3303 1553 
Q 3303 931 2941 478 
Q 2500 -78 1738 -78 
Q 1113 -78 717 272 
Q 322 622 266 1200 
z
" transform="scale(0.015625)"/>
       </defs>
       <use xlink:href="#ArialMT-2d"/>
       <use xlink:href="#ArialMT-31" x="33.300781"/>
       <use xlink:href="#ArialMT-35" x="88.916016"/>
       <use xlink:href="#ArialMT-30" x="144.53125"/>
      </g>
     </g>
    </g>
    <g id="xtick_7">
     <g id="line2d_7"/>
     <g id="text_7">
      <!-- -140 -->
      <g style="fill: #262626" transform="translate(160.814667 353.067937) rotate(-45) scale(0.1 -0.1)">
       <defs>
        <path id="ArialMT-34" d="M 2069 0 
L 2069 1097 
L 81 1097 
L 81 1613 
L 2172 4581 
L 2631 4581 
L 2631 1613 
L 3250 1613 
L 3250 1097 
L 2631 1097 
L 2631 0 
L 2069 0 
z
M 2069 1613 
L 2069 3678 
L 634 1613 
L 2069 1613 
z
" transform="scale(0.015625)"/>
       </defs>
       <use xlink:href="#ArialMT-2d"/>
       <use xlink:href="#ArialMT-31" x="33.300781"/>
       <use xlink:href="#ArialMT-34" x="88.916016"/>
       <use xlink:href="#ArialMT-30" x="144.53125"/>
      </g>
     </g>
    </g>
    <g id="xtick_8">
     <g id="line2d_8"/>
     <g id="text_8">
      <!-- -130 -->
      <g style="fill: #262626" transform="translate(177.112586 353.067937) rotate(-45) scale(0.1 -0.1)">
       <defs>
        <path id="ArialMT-33" d="M 269 1209 
L 831 1284 
Q 928 806 1161 595 
Q 1394 384 1728 384 
Q 2125 384 2398 659 
Q 2672 934 2672 1341 
Q 2672 1728 2419 1979 
Q 2166 2231 1775 2231 
Q 1616 2231 1378 2169 
L 1441 2663 
Q 1497 2656 1531 2656 
Q 1891 2656 2178 2843 
Q 2466 3031 2466 3422 
Q 2466 3731 2256 3934 
Q 2047 4138 1716 4138 
Q 1388 4138 1169 3931 
Q 950 3725 888 3313 
L 325 3413 
Q 428 3978 793 4289 
Q 1159 4600 1703 4600 
Q 2078 4600 2393 4439 
Q 2709 4278 2876 4000 
Q 3044 3722 3044 3409 
Q 3044 3113 2884 2869 
Q 2725 2625 2413 2481 
Q 2819 2388 3044 2092 
Q 3269 1797 3269 1353 
Q 3269 753 2831 336 
Q 2394 -81 1725 -81 
Q 1122 -81 723 278 
Q 325 638 269 1209 
z
" transform="scale(0.015625)"/>
       </defs>
       <use xlink:href="#ArialMT-2d"/>
       <use xlink:href="#ArialMT-31" x="33.300781"/>
       <use xlink:href="#ArialMT-33" x="88.916016"/>
       <use xlink:href="#ArialMT-30" x="144.53125"/>
      </g>
     </g>
    </g>
    <g id="xtick_9">
     <g id="line2d_9"/>
     <g id="text_9">
      <!-- -120 -->
      <g style="fill: #262626" transform="translate(193.410505 353.067937) rotate(-45) scale(0.1 -0.1)">
       <use xlink:href="#ArialMT-2d"/>
       <use xlink:href="#ArialMT-31" x="33.300781"/>
       <use xlink:href="#ArialMT-32" x="88.916016"/>
       <use xlink:href="#ArialMT-30" x="144.53125"/>
      </g>
     </g>
    </g>
    <g id="xtick_10">
     <g id="line2d_10"/>
     <g id="text_10">
      <!-- -110 -->
      <g style="fill: #262626" transform="translate(209.96917 352.546446) rotate(-45) scale(0.1 -0.1)">
       <use xlink:href="#ArialMT-2d"/>
       <use xlink:href="#ArialMT-31" x="33.300781"/>
       <use xlink:href="#ArialMT-31" x="81.541016"/>
       <use xlink:href="#ArialMT-30" x="137.15625"/>
      </g>
     </g>
    </g>
    <g id="xtick_11">
     <g id="line2d_11"/>
     <g id="text_11">
      <!-- -100 -->
      <g style="fill: #262626" transform="translate(226.006343 353.067937) rotate(-45) scale(0.1 -0.1)">
       <use xlink:href="#ArialMT-2d"/>
       <use xlink:href="#ArialMT-31" x="33.300781"/>
       <use xlink:href="#ArialMT-30" x="88.916016"/>
       <use xlink:href="#ArialMT-30" x="144.53125"/>
      </g>
     </g>
    </g>
    <g id="xtick_12">
     <g id="line2d_12"/>
     <g id="text_12">
      <!-- -90 -->
      <g style="fill: #262626" transform="translate(244.27035 349.135761) rotate(-45) scale(0.1 -0.1)">
       <use xlink:href="#ArialMT-2d"/>
       <use xlink:href="#ArialMT-39" x="33.300781"/>
       <use xlink:href="#ArialMT-30" x="88.916016"/>
      </g>
     </g>
    </g>
    <g id="xtick_13">
     <g id="line2d_13"/>
     <g id="text_13">
      <!-- -80 -->
      <g style="fill: #262626" transform="translate(260.568269 349.135761) rotate(-45) scale(0.1 -0.1)">
       <use xlink:href="#ArialMT-2d"/>
       <use xlink:href="#ArialMT-38" x="33.300781"/>
       <use xlink:href="#ArialMT-30" x="88.916016"/>
      </g>
     </g>
    </g>
    <g id="xtick_14">
     <g id="line2d_14"/>
     <g id="text_14">
      <!-- -70 -->
      <g style="fill: #262626" transform="translate(276.866188 349.135761) rotate(-45) scale(0.1 -0.1)">
       <use xlink:href="#ArialMT-2d"/>
       <use xlink:href="#ArialMT-37" x="33.300781"/>
       <use xlink:href="#ArialMT-30" x="88.916016"/>
      </g>
     </g>
    </g>
    <g id="xtick_15">
     <g id="line2d_15"/>
     <g id="text_15">
      <!-- -60 -->
      <g style="fill: #262626" transform="translate(293.164107 349.135761) rotate(-45) scale(0.1 -0.1)">
       <use xlink:href="#ArialMT-2d"/>
       <use xlink:href="#ArialMT-36" x="33.300781"/>
       <use xlink:href="#ArialMT-30" x="88.916016"/>
      </g>
     </g>
    </g>
    <g id="xtick_16">
     <g id="line2d_16"/>
     <g id="text_16">
      <!-- -50 -->
      <g style="fill: #262626" transform="translate(309.462026 349.135761) rotate(-45) scale(0.1 -0.1)">
       <use xlink:href="#ArialMT-2d"/>
       <use xlink:href="#ArialMT-35" x="33.300781"/>
       <use xlink:href="#ArialMT-30" x="88.916016"/>
      </g>
     </g>
    </g>
    <g id="xtick_17">
     <g id="line2d_17"/>
     <g id="text_17">
      <!-- -40 -->
      <g style="fill: #262626" transform="translate(325.759945 349.135761) rotate(-45) scale(0.1 -0.1)">
       <use xlink:href="#ArialMT-2d"/>
       <use xlink:href="#ArialMT-34" x="33.300781"/>
       <use xlink:href="#ArialMT-30" x="88.916016"/>
      </g>
     </g>
    </g>
    <g id="xtick_18">
     <g id="line2d_18"/>
     <g id="text_18">
      <!-- -30 -->
      <g style="fill: #262626" transform="translate(342.057864 349.135761) rotate(-45) scale(0.1 -0.1)">
       <use xlink:href="#ArialMT-2d"/>
       <use xlink:href="#ArialMT-33" x="33.300781"/>
       <use xlink:href="#ArialMT-30" x="88.916016"/>
      </g>
     </g>
    </g>
    <g id="xtick_19">
     <g id="line2d_19"/>
     <g id="text_19">
      <!-- -20 -->
      <g style="fill: #262626" transform="translate(358.355783 349.135761) rotate(-45) scale(0.1 -0.1)">
       <use xlink:href="#ArialMT-2d"/>
       <use xlink:href="#ArialMT-32" x="33.300781"/>
       <use xlink:href="#ArialMT-30" x="88.916016"/>
      </g>
     </g>
    </g>
    <g id="xtick_20">
     <g id="line2d_20"/>
     <g id="text_20">
      <!-- -10 -->
      <g style="fill: #262626" transform="translate(374.653702 349.135761) rotate(-45) scale(0.1 -0.1)">
       <use xlink:href="#ArialMT-2d"/>
       <use xlink:href="#ArialMT-31" x="33.300781"/>
       <use xlink:href="#ArialMT-30" x="88.916016"/>
      </g>
     </g>
    </g>
    <g id="xtick_21">
     <g id="line2d_21"/>
     <g id="text_21">
      <!-- 0 -->
      <g style="fill: #262626" transform="translate(394.094931 342.849139) rotate(-45) scale(0.1 -0.1)">
       <use xlink:href="#ArialMT-30"/>
      </g>
     </g>
    </g>
    <g id="xtick_22">
     <g id="line2d_22"/>
     <g id="text_22">
      <!-- 10 -->
      <g style="fill: #262626" transform="translate(408.426762 346.781316) rotate(-45) scale(0.1 -0.1)">
       <use xlink:href="#ArialMT-31"/>
       <use xlink:href="#ArialMT-30" x="55.615234"/>
      </g>
     </g>
    </g>
    <g id="xtick_23">
     <g id="line2d_23"/>
     <g id="text_23">
      <!-- 20 -->
      <g style="fill: #262626" transform="translate(424.724681 346.781316) rotate(-45) scale(0.1 -0.1)">
       <use xlink:href="#ArialMT-32"/>
       <use xlink:href="#ArialMT-30" x="55.615234"/>
      </g>
     </g>
    </g>
    <g id="xtick_24">
     <g id="line2d_24"/>
     <g id="text_24">
      <!-- 30 -->
      <g style="fill: #262626" transform="translate(441.0226 346.781316) rotate(-45) scale(0.1 -0.1)">
       <use xlink:href="#ArialMT-33"/>
       <use xlink:href="#ArialMT-30" x="55.615234"/>
      </g>
     </g>
    </g>
    <g id="xtick_25">
     <g id="line2d_25"/>
     <g id="text_25">
      <!-- 40 -->
      <g style="fill: #262626" transform="translate(457.320519 346.781316) rotate(-45) scale(0.1 -0.1)">
       <use xlink:href="#ArialMT-34"/>
       <use xlink:href="#ArialMT-30" x="55.615234"/>
      </g>
     </g>
    </g>
    <g id="xtick_26">
     <g id="line2d_26"/>
     <g id="text_26">
      <!-- 50 -->
      <g style="fill: #262626" transform="translate(473.618438 346.781316) rotate(-45) scale(0.1 -0.1)">
       <use xlink:href="#ArialMT-35"/>
       <use xlink:href="#ArialMT-30" x="55.615234"/>
      </g>
     </g>
    </g>
    <g id="text_27">
     <!-- Position -->
     <g style="fill: #262626" transform="translate(251.6175 366.346906) scale(0.11 -0.11)">
      <defs>
       <path id="ArialMT-50" d="M 494 0 
L 494 4581 
L 2222 4581 
Q 2678 4581 2919 4538 
Q 3256 4481 3484 4323 
Q 3713 4166 3852 3881 
Q 3991 3597 3991 3256 
Q 3991 2672 3619 2267 
Q 3247 1863 2275 1863 
L 1100 1863 
L 1100 0 
L 494 0 
z
M 1100 2403 
L 2284 2403 
Q 2872 2403 3119 2622 
Q 3366 2841 3366 3238 
Q 3366 3525 3220 3729 
Q 3075 3934 2838 4000 
Q 2684 4041 2272 4041 
L 1100 4041 
L 1100 2403 
z
" transform="scale(0.015625)"/>
       <path id="ArialMT-6f" d="M 213 1659 
Q 213 2581 725 3025 
Q 1153 3394 1769 3394 
Q 2453 3394 2887 2945 
Q 3322 2497 3322 1706 
Q 3322 1066 3130 698 
Q 2938 331 2570 128 
Q 2203 -75 1769 -75 
Q 1072 -75 642 372 
Q 213 819 213 1659 
z
M 791 1659 
Q 791 1022 1069 705 
Q 1347 388 1769 388 
Q 2188 388 2466 706 
Q 2744 1025 2744 1678 
Q 2744 2294 2464 2611 
Q 2184 2928 1769 2928 
Q 1347 2928 1069 2612 
Q 791 2297 791 1659 
z
" transform="scale(0.015625)"/>
       <path id="ArialMT-73" d="M 197 991 
L 753 1078 
Q 800 744 1014 566 
Q 1228 388 1613 388 
Q 2000 388 2187 545 
Q 2375 703 2375 916 
Q 2375 1106 2209 1216 
Q 2094 1291 1634 1406 
Q 1016 1563 777 1677 
Q 538 1791 414 1992 
Q 291 2194 291 2438 
Q 291 2659 392 2848 
Q 494 3038 669 3163 
Q 800 3259 1026 3326 
Q 1253 3394 1513 3394 
Q 1903 3394 2198 3281 
Q 2494 3169 2634 2976 
Q 2775 2784 2828 2463 
L 2278 2388 
Q 2241 2644 2061 2787 
Q 1881 2931 1553 2931 
Q 1166 2931 1000 2803 
Q 834 2675 834 2503 
Q 834 2394 903 2306 
Q 972 2216 1119 2156 
Q 1203 2125 1616 2013 
Q 2213 1853 2448 1751 
Q 2684 1650 2818 1456 
Q 2953 1263 2953 975 
Q 2953 694 2789 445 
Q 2625 197 2315 61 
Q 2006 -75 1616 -75 
Q 969 -75 630 194 
Q 291 463 197 991 
z
" transform="scale(0.015625)"/>
       <path id="ArialMT-69" d="M 425 3934 
L 425 4581 
L 988 4581 
L 988 3934 
L 425 3934 
z
M 425 0 
L 425 3319 
L 988 3319 
L 988 0 
L 425 0 
z
" transform="scale(0.015625)"/>
       <path id="ArialMT-74" d="M 1650 503 
L 1731 6 
Q 1494 -44 1306 -44 
Q 1000 -44 831 53 
Q 663 150 594 308 
Q 525 466 525 972 
L 525 2881 
L 113 2881 
L 113 3319 
L 525 3319 
L 525 4141 
L 1084 4478 
L 1084 3319 
L 1650 3319 
L 1650 2881 
L 1084 2881 
L 1084 941 
Q 1084 700 1114 631 
Q 1144 563 1211 522 
Q 1278 481 1403 481 
Q 1497 481 1650 503 
z
" transform="scale(0.015625)"/>
       <path id="ArialMT-6e" d="M 422 0 
L 422 3319 
L 928 3319 
L 928 2847 
Q 1294 3394 1984 3394 
Q 2284 3394 2536 3286 
Q 2788 3178 2913 3003 
Q 3038 2828 3088 2588 
Q 3119 2431 3119 2041 
L 3119 0 
L 2556 0 
L 2556 2019 
Q 2556 2363 2490 2533 
Q 2425 2703 2258 2804 
Q 2091 2906 1866 2906 
Q 1506 2906 1245 2678 
Q 984 2450 984 1813 
L 984 0 
L 422 0 
z
" transform="scale(0.015625)"/>
      </defs>
      <use xlink:href="#ArialMT-50"/>
      <use xlink:href="#ArialMT-6f" x="66.699219"/>
      <use xlink:href="#ArialMT-73" x="122.314453"/>
      <use xlink:href="#ArialMT-69" x="172.314453"/>
      <use xlink:href="#ArialMT-74" x="194.53125"/>
      <use xlink:href="#ArialMT-69" x="222.314453"/>
      <use xlink:href="#ArialMT-6f" x="244.53125"/>
      <use xlink:href="#ArialMT-6e" x="300.146484"/>
     </g>
    </g>
   </g>
   <g id="matplotlib.axis_2">
    <g id="ytick_1">
     <g id="line2d_27"/>
     <g id="text_28">
      <!-- 2.25 -->
      <g style="fill: #262626" transform="translate(21.522813 327.132313) scale(0.1 -0.1)">
       <defs>
        <path id="ArialMT-2e" d="M 581 0 
L 581 641 
L 1222 641 
L 1222 0 
L 581 0 
z
" transform="scale(0.015625)"/>
       </defs>
       <use xlink:href="#ArialMT-32"/>
       <use xlink:href="#ArialMT-2e" x="55.615234"/>
       <use xlink:href="#ArialMT-32" x="83.398438"/>
       <use xlink:href="#ArialMT-35" x="139.013672"/>
      </g>
     </g>
    </g>
    <g id="ytick_2">
     <g id="line2d_28"/>
     <g id="text_29">
      <!-- 2.50 -->
      <g style="fill: #262626" transform="translate(21.522813 290.87765) scale(0.1 -0.1)">
       <use xlink:href="#ArialMT-32"/>
       <use xlink:href="#ArialMT-2e" x="55.615234"/>
       <use xlink:href="#ArialMT-35" x="83.398438"/>
       <use xlink:href="#ArialMT-30" x="139.013672"/>
      </g>
     </g>
    </g>
    <g id="ytick_3">
     <g id="line2d_29"/>
     <g id="text_30">
      <!-- 2.75 -->
      <g style="fill: #262626" transform="translate(21.522813 254.622986) scale(0.1 -0.1)">
       <use xlink:href="#ArialMT-32"/>
       <use xlink:href="#ArialMT-2e" x="55.615234"/>
       <use xlink:href="#ArialMT-37" x="83.398438"/>
       <use xlink:href="#ArialMT-35" x="139.013672"/>
      </g>
     </g>
    </g>
    <g id="ytick_4">
     <g id="line2d_30"/>
     <g id="text_31">
      <!-- 3.00 -->
      <g style="fill: #262626" transform="translate(21.522813 218.368323) scale(0.1 -0.1)">
       <use xlink:href="#ArialMT-33"/>
       <use xlink:href="#ArialMT-2e" x="55.615234"/>
       <use xlink:href="#ArialMT-30" x="83.398438"/>
       <use xlink:href="#ArialMT-30" x="139.013672"/>
      </g>
     </g>
    </g>
    <g id="ytick_5">
     <g id="line2d_31"/>
     <g id="text_32">
      <!-- 3.25 -->
      <g style="fill: #262626" transform="translate(21.522813 182.113659) scale(0.1 -0.1)">
       <use xlink:href="#ArialMT-33"/>
       <use xlink:href="#ArialMT-2e" x="55.615234"/>
       <use xlink:href="#ArialMT-32" x="83.398438"/>
       <use xlink:href="#ArialMT-35" x="139.013672"/>
      </g>
     </g>
    </g>
    <g id="ytick_6">
     <g id="line2d_32"/>
     <g id="text_33">
      <!-- 3.50 -->
      <g style="fill: #262626" transform="translate(21.522813 145.858996) scale(0.1 -0.1)">
       <use xlink:href="#ArialMT-33"/>
       <use xlink:href="#ArialMT-2e" x="55.615234"/>
       <use xlink:href="#ArialMT-35" x="83.398438"/>
       <use xlink:href="#ArialMT-30" x="139.013672"/>
      </g>
     </g>
    </g>
    <g id="ytick_7">
     <g id="line2d_33"/>
     <g id="text_34">
      <!-- 3.75 -->
      <g style="fill: #262626" transform="translate(21.522813 109.604332) scale(0.1 -0.1)">
       <use xlink:href="#ArialMT-33"/>
       <use xlink:href="#ArialMT-2e" x="55.615234"/>
       <use xlink:href="#ArialMT-37" x="83.398438"/>
       <use xlink:href="#ArialMT-35" x="139.013672"/>
      </g>
     </g>
    </g>
    <g id="ytick_8">
     <g id="line2d_34"/>
     <g id="text_35">
      <!-- 4.00 -->
      <g style="fill: #262626" transform="translate(21.522813 73.349669) scale(0.1 -0.1)">
       <use xlink:href="#ArialMT-34"/>
       <use xlink:href="#ArialMT-2e" x="55.615234"/>
       <use xlink:href="#ArialMT-30" x="83.398438"/>
       <use xlink:href="#ArialMT-30" x="139.013672"/>
      </g>
     </g>
    </g>
    <g id="ytick_9">
     <g id="line2d_35"/>
     <g id="text_36">
      <!-- 4.25 -->
      <g style="fill: #262626" transform="translate(21.522813 37.095005) scale(0.1 -0.1)">
       <use xlink:href="#ArialMT-34"/>
       <use xlink:href="#ArialMT-2e" x="55.615234"/>
       <use xlink:href="#ArialMT-32" x="83.398438"/>
       <use xlink:href="#ArialMT-35" x="139.013672"/>
      </g>
     </g>
    </g>
    <g id="text_37">
     <!-- Hartman_trans_free_energy -->
     <g style="fill: #262626" transform="translate(15.207656 243.177422) rotate(-90) scale(0.11 -0.11)">
      <defs>
       <path id="ArialMT-48" d="M 513 0 
L 513 4581 
L 1119 4581 
L 1119 2700 
L 3500 2700 
L 3500 4581 
L 4106 4581 
L 4106 0 
L 3500 0 
L 3500 2159 
L 1119 2159 
L 1119 0 
L 513 0 
z
" transform="scale(0.015625)"/>
       <path id="ArialMT-61" d="M 2588 409 
Q 2275 144 1986 34 
Q 1697 -75 1366 -75 
Q 819 -75 525 192 
Q 231 459 231 875 
Q 231 1119 342 1320 
Q 453 1522 633 1644 
Q 813 1766 1038 1828 
Q 1203 1872 1538 1913 
Q 2219 1994 2541 2106 
Q 2544 2222 2544 2253 
Q 2544 2597 2384 2738 
Q 2169 2928 1744 2928 
Q 1347 2928 1158 2789 
Q 969 2650 878 2297 
L 328 2372 
Q 403 2725 575 2942 
Q 747 3159 1072 3276 
Q 1397 3394 1825 3394 
Q 2250 3394 2515 3294 
Q 2781 3194 2906 3042 
Q 3031 2891 3081 2659 
Q 3109 2516 3109 2141 
L 3109 1391 
Q 3109 606 3145 398 
Q 3181 191 3288 0 
L 2700 0 
Q 2613 175 2588 409 
z
M 2541 1666 
Q 2234 1541 1622 1453 
Q 1275 1403 1131 1340 
Q 988 1278 909 1158 
Q 831 1038 831 891 
Q 831 666 1001 516 
Q 1172 366 1500 366 
Q 1825 366 2078 508 
Q 2331 650 2450 897 
Q 2541 1088 2541 1459 
L 2541 1666 
z
" transform="scale(0.015625)"/>
       <path id="ArialMT-72" d="M 416 0 
L 416 3319 
L 922 3319 
L 922 2816 
Q 1116 3169 1280 3281 
Q 1444 3394 1641 3394 
Q 1925 3394 2219 3213 
L 2025 2691 
Q 1819 2813 1613 2813 
Q 1428 2813 1281 2702 
Q 1134 2591 1072 2394 
Q 978 2094 978 1738 
L 978 0 
L 416 0 
z
" transform="scale(0.015625)"/>
       <path id="ArialMT-6d" d="M 422 0 
L 422 3319 
L 925 3319 
L 925 2853 
Q 1081 3097 1340 3245 
Q 1600 3394 1931 3394 
Q 2300 3394 2536 3241 
Q 2772 3088 2869 2813 
Q 3263 3394 3894 3394 
Q 4388 3394 4653 3120 
Q 4919 2847 4919 2278 
L 4919 0 
L 4359 0 
L 4359 2091 
Q 4359 2428 4304 2576 
Q 4250 2725 4106 2815 
Q 3963 2906 3769 2906 
Q 3419 2906 3187 2673 
Q 2956 2441 2956 1928 
L 2956 0 
L 2394 0 
L 2394 2156 
Q 2394 2531 2256 2718 
Q 2119 2906 1806 2906 
Q 1569 2906 1367 2781 
Q 1166 2656 1075 2415 
Q 984 2175 984 1722 
L 984 0 
L 422 0 
z
" transform="scale(0.015625)"/>
       <path id="ArialMT-5f" d="M -97 -1272 
L -97 -866 
L 3631 -866 
L 3631 -1272 
L -97 -1272 
z
" transform="scale(0.015625)"/>
       <path id="ArialMT-66" d="M 556 0 
L 556 2881 
L 59 2881 
L 59 3319 
L 556 3319 
L 556 3672 
Q 556 4006 616 4169 
Q 697 4388 901 4523 
Q 1106 4659 1475 4659 
Q 1713 4659 2000 4603 
L 1916 4113 
Q 1741 4144 1584 4144 
Q 1328 4144 1222 4034 
Q 1116 3925 1116 3625 
L 1116 3319 
L 1763 3319 
L 1763 2881 
L 1116 2881 
L 1116 0 
L 556 0 
z
" transform="scale(0.015625)"/>
       <path id="ArialMT-65" d="M 2694 1069 
L 3275 997 
Q 3138 488 2766 206 
Q 2394 -75 1816 -75 
Q 1088 -75 661 373 
Q 234 822 234 1631 
Q 234 2469 665 2931 
Q 1097 3394 1784 3394 
Q 2450 3394 2872 2941 
Q 3294 2488 3294 1666 
Q 3294 1616 3291 1516 
L 816 1516 
Q 847 969 1125 678 
Q 1403 388 1819 388 
Q 2128 388 2347 550 
Q 2566 713 2694 1069 
z
M 847 1978 
L 2700 1978 
Q 2663 2397 2488 2606 
Q 2219 2931 1791 2931 
Q 1403 2931 1139 2672 
Q 875 2413 847 1978 
z
" transform="scale(0.015625)"/>
       <path id="ArialMT-67" d="M 319 -275 
L 866 -356 
Q 900 -609 1056 -725 
Q 1266 -881 1628 -881 
Q 2019 -881 2231 -725 
Q 2444 -569 2519 -288 
Q 2563 -116 2559 434 
Q 2191 0 1641 0 
Q 956 0 581 494 
Q 206 988 206 1678 
Q 206 2153 378 2554 
Q 550 2956 876 3175 
Q 1203 3394 1644 3394 
Q 2231 3394 2613 2919 
L 2613 3319 
L 3131 3319 
L 3131 450 
Q 3131 -325 2973 -648 
Q 2816 -972 2473 -1159 
Q 2131 -1347 1631 -1347 
Q 1038 -1347 672 -1080 
Q 306 -813 319 -275 
z
M 784 1719 
Q 784 1066 1043 766 
Q 1303 466 1694 466 
Q 2081 466 2343 764 
Q 2606 1063 2606 1700 
Q 2606 2309 2336 2618 
Q 2066 2928 1684 2928 
Q 1309 2928 1046 2623 
Q 784 2319 784 1719 
z
" transform="scale(0.015625)"/>
       <path id="ArialMT-79" d="M 397 -1278 
L 334 -750 
Q 519 -800 656 -800 
Q 844 -800 956 -737 
Q 1069 -675 1141 -563 
Q 1194 -478 1313 -144 
Q 1328 -97 1363 -6 
L 103 3319 
L 709 3319 
L 1400 1397 
Q 1534 1031 1641 628 
Q 1738 1016 1872 1384 
L 2581 3319 
L 3144 3319 
L 1881 -56 
Q 1678 -603 1566 -809 
Q 1416 -1088 1222 -1217 
Q 1028 -1347 759 -1347 
Q 597 -1347 397 -1278 
z
" transform="scale(0.015625)"/>
      </defs>
      <use xlink:href="#ArialMT-48"/>
      <use xlink:href="#ArialMT-61" x="72.216797"/>
      <use xlink:href="#ArialMT-72" x="127.832031"/>
      <use xlink:href="#ArialMT-74" x="161.132812"/>
      <use xlink:href="#ArialMT-6d" x="188.916016"/>
      <use xlink:href="#ArialMT-61" x="272.216797"/>
      <use xlink:href="#ArialMT-6e" x="327.832031"/>
      <use xlink:href="#ArialMT-5f" x="383.447266"/>
      <use xlink:href="#ArialMT-74" x="439.0625"/>
      <use xlink:href="#ArialMT-72" x="466.845703"/>
      <use xlink:href="#ArialMT-61" x="500.146484"/>
      <use xlink:href="#ArialMT-6e" x="555.761719"/>
      <use xlink:href="#ArialMT-73" x="611.376953"/>
      <use xlink:href="#ArialMT-5f" x="661.376953"/>
      <use xlink:href="#ArialMT-66" x="716.992188"/>
      <use xlink:href="#ArialMT-72" x="744.775391"/>
      <use xlink:href="#ArialMT-65" x="778.076172"/>
      <use xlink:href="#ArialMT-65" x="833.691406"/>
      <use xlink:href="#ArialMT-5f" x="889.306641"/>
      <use xlink:href="#ArialMT-65" x="944.921875"/>
      <use xlink:href="#ArialMT-6e" x="1000.537109"/>
      <use xlink:href="#ArialMT-65" x="1056.152344"/>
      <use xlink:href="#ArialMT-72" x="1111.767578"/>
      <use xlink:href="#ArialMT-67" x="1145.068359"/>
      <use xlink:href="#ArialMT-79" x="1200.683594"/>
     </g>
    </g>
   </g>
   <g id="line2d_36">
    <path d="M 68.274659 216.152946 
L 69.904451 216.733626 
L 71.534243 215.435111 
L 73.164035 219.59695 
L 74.793827 219.78487 
L 76.423619 216.485145 
L 78.05341 216.157399 
L 79.683202 216.05676 
L 81.312994 219.62634 
L 82.942786 218.040157 
L 84.572578 219.169455 
L 86.20237 218.041938 
L 87.832162 217.719536 
L 89.461954 218.077563 
L 91.091746 219.037644 
L 92.721538 218.839038 
L 94.351329 222.453149 
L 95.981121 218.788273 
L 97.610913 219.967445 
L 99.240705 220.007523 
L 100.870497 219.658402 
L 102.500289 218.708117 
L 104.130081 216.713142 
L 105.759873 221.637346 
L 107.389665 217.842441 
L 110.649248 221.577675 
L 112.27904 217.589506 
L 113.908832 222.677583 
L 115.538624 221.562535 
L 117.168416 222.302635 
L 118.798208 218.650227 
L 120.428 223.327731 
L 122.057792 221.116337 
L 123.687584 220.575735 
L 125.317375 220.720905 
L 126.947167 223.328622 
L 128.576959 219.098206 
L 130.206751 222.358744 
L 131.836543 222.674911 
L 133.466335 220.793044 
L 135.096127 223.670618 
L 136.725919 219.835635 
L 138.355711 221.310491 
L 139.985502 219.777745 
L 141.615294 222.462055 
L 143.245086 222.577835 
L 144.874878 221.910765 
L 146.50467 220.91773 
L 148.134462 224.884524 
L 149.764254 221.518004 
L 151.394046 223.741867 
L 153.023838 222.700739 
L 154.65363 220.337941 
L 156.283421 223.806882 
L 157.913213 224.579044 
L 159.543005 223.909302 
L 161.172797 225.304004 
L 162.802589 222.752395 
L 164.432381 223.215514 
L 166.062173 221.520676 
L 167.691965 224.497998 
L 169.321757 226.281007 
L 170.951548 226.160774 
L 172.58134 225.165068 
L 174.211132 225.546251 
L 175.840924 226.369178 
L 177.470716 222.743489 
L 179.100508 225.130334 
L 180.7303 225.813435 
L 182.360092 225.523985 
L 183.989884 224.653855 
L 185.619676 228.435402 
L 187.249467 224.796354 
L 188.879259 227.062966 
L 190.509051 225.669155 
L 192.138843 227.123528 
L 193.768635 227.961595 
L 195.398427 226.088634 
L 197.028219 228.513776 
L 198.658011 226.1109 
L 200.287803 224.454358 
L 201.917594 229.15858 
L 203.547386 226.548191 
L 205.177178 228.991145 
L 206.80697 228.805007 
L 208.436762 224.411608 
L 210.066554 228.338325 
L 211.696346 228.666071 
L 213.326138 225.367237 
L 214.95593 229.334031 
L 216.585722 228.27331 
L 218.215513 228.821928 
L 219.845305 230.775044 
L 221.475097 230.27452 
L 223.104889 228.89674 
L 224.734681 228.862006 
L 226.364473 227.839581 
L 227.994265 231.156227 
L 229.624057 230.380503 
L 231.253849 227.995439 
L 232.88364 232.034372 
L 234.513432 225.885574 
L 236.143224 231.644284 
L 237.773016 228.01236 
L 239.402808 231.874953 
L 241.0326 233.600962 
L 242.662392 228.478151 
L 244.292184 231.199867 
L 245.921976 232.986439 
L 247.551768 229.387468 
L 249.181559 231.155337 
L 250.811351 232.358556 
L 252.441143 233.331106 
L 254.070935 232.3639 
L 255.700727 233.362278 
L 257.330519 229.471186 
L 258.960311 234.97607 
L 260.590103 232.051294 
L 263.849686 233.019391 
L 265.479478 234.26536 
L 267.10927 232.826128 
L 268.739062 234.007082 
L 270.368854 233.856568 
L 271.998646 236.962139 
L 273.628438 234.766776 
L 275.25823 236.081322 
L 276.888022 231.66744 
L 278.517814 236.547113 
L 280.147605 234.881665 
L 281.777397 234.490685 
L 283.407189 233.26431 
L 285.036981 237.080591 
L 286.666773 234.848712 
L 288.296565 235.312722 
L 289.926357 236.139212 
L 291.556149 234.406968 
L 293.185941 238.852022 
L 294.815732 233.462026 
L 296.445524 235.44097 
L 298.075316 237.672849 
L 299.705108 234.363328 
L 301.3349 236.841015 
L 302.964692 236.03501 
L 304.594484 236.946999 
L 306.224276 241.31635 
L 309.48386 235.414252 
L 311.113651 236.747501 
L 312.743443 236.667346 
L 314.373235 237.418133 
L 316.003027 239.047957 
L 317.632819 243.828772 
L 319.262611 243.7976 
L 320.892403 241.132884 
L 322.522195 244.692667 
L 324.151987 240.248504 
L 325.781778 242.605068 
L 327.41157 243.310435 
L 329.041362 241.307444 
L 330.671154 238.956223 
L 332.300946 239.606371 
L 333.930738 231.424302 
L 335.56053 236.419755 
L 337.190322 237.628318 
L 338.820114 239.457639 
L 340.449906 244.675746 
L 342.079697 240.935167 
L 343.709489 231.819735 
L 345.339281 230.496282 
L 346.969073 227.907268 
L 348.598865 218.786491 
L 350.228657 213.12664 
L 353.488241 228.315169 
L 355.118033 240.429299 
L 356.747824 243.10025 
L 358.377616 242.195386 
L 360.007408 243.094906 
L 361.6372 242.63713 
L 363.266992 243.845693 
L 364.896784 243.907146 
L 368.156368 234.053394 
L 369.78616 236.937202 
L 371.415952 243.712101 
L 373.045743 249.250829 
L 376.305327 236.616581 
L 377.935119 235.277988 
L 379.564911 235.072256 
L 381.194703 240.417721 
L 382.824495 235.748232 
L 384.454287 240.746357 
L 386.084079 242.224776 
L 387.71387 223.827366 
L 389.343662 260.7727 
L 390.973454 312.995625 
L 392.603246 35.795625 
L 394.233038 285.05885 
L 395.86283 238.325669 
L 397.492622 216.388959 
L 399.122414 230.280754 
L 400.752206 226.892859 
L 402.381998 218.011657 
L 404.011789 233.493198 
L 405.641581 244.751448 
L 407.271373 235.436517 
L 408.901165 232.104731 
L 410.530957 226.796672 
L 412.160749 229.138096 
L 413.790541 249.925914 
L 415.420333 247.331556 
L 417.050125 243.336262 
L 418.679916 237.898174 
L 420.309708 234.487123 
L 421.9395 234.644762 
L 423.569292 239.249235 
L 425.199084 233.177921 
L 426.828876 234.866525 
L 428.458668 233.545744 
L 430.08846 233.660633 
L 431.718252 236.360084 
L 433.348044 242.815253 
L 434.977835 237.637224 
L 436.607627 227.157371 
L 438.237419 243.747726 
L 439.867211 244.306141 
L 441.497003 244.402327 
L 443.126795 242.819706 
L 444.756587 241.632518 
L 446.386379 238.890318 
L 448.016171 235.851543 
L 449.645962 233.804913 
L 451.275754 230.664608 
L 452.905546 234.411421 
L 454.535338 232.748645 
L 456.16513 233.799569 
L 457.794922 236.038572 
L 459.424714 232.376368 
L 461.054506 238.308747 
L 462.684298 238.167139 
L 464.31409 241.93978 
L 465.943881 240.458689 
L 467.573673 239.231423 
L 469.203465 241.617378 
L 470.833257 236.047479 
L 472.463049 235.755357 
L 474.092841 235.996714 
L 474.092841 235.996714 
" clip-path="url(#pfd65655091)" style="fill: none; stroke: #0272a2; stroke-width: 1.75; stroke-linecap: round"/>
   </g>
   <g id="line2d_37">
    <path d="M 68.274659 192.775466 
L 69.904451 191.899114 
L 71.534243 193.168655 
L 73.164035 190.771542 
L 74.793827 193.400012 
L 76.423619 191.114487 
L 78.05341 190.178544 
L 79.683202 194.290385 
L 81.312994 192.828631 
L 82.942786 192.752096 
L 84.572578 190.949733 
L 86.20237 191.771167 
L 87.832162 193.157555 
L 89.461954 192.850248 
L 91.091746 192.997475 
L 92.721538 191.174079 
L 94.351329 190.533174 
L 95.981121 194.715124 
L 97.610913 192.093664 
L 99.240705 190.645931 
L 100.870497 192.23388 
L 102.500289 194.496036 
L 104.130081 188.911924 
L 105.759873 191.95929 
L 107.389665 193.457267 
L 109.019456 192.799419 
L 110.649248 192.8409 
L 113.908832 191.677105 
L 115.538624 192.357154 
L 117.168416 192.143324 
L 118.798208 191.526957 
L 120.428 192.315089 
L 122.057792 192.835057 
L 125.317375 192.395129 
L 126.947167 193.730104 
L 128.576959 191.604076 
L 130.206751 192.454721 
L 131.836543 192.857258 
L 133.466335 191.441074 
L 135.096127 192.94723 
L 138.355711 192.746838 
L 139.985502 190.904163 
L 141.615294 191.816153 
L 143.245086 192.160267 
L 144.874878 194.947065 
L 148.134462 191.611086 
L 149.764254 189.880584 
L 151.394046 192.397466 
L 153.023838 193.781517 
L 154.65363 192.282956 
L 156.283421 192.700684 
L 157.913213 192.446542 
L 159.543005 193.300692 
L 161.172797 190.704355 
L 162.802589 190.86794 
L 164.432381 194.552706 
L 167.691965 192.61188 
L 169.321757 191.27632 
L 170.951548 193.104389 
L 172.58134 191.096376 
L 174.211132 190.25391 
L 175.840924 194.381526 
L 177.470716 193.4894 
L 179.100508 193.235842 
L 180.7303 193.095042 
L 182.360092 193.151712 
L 183.989884 190.693254 
L 185.619676 191.045548 
L 187.249467 193.114321 
L 190.509051 193.647143 
L 192.138843 190.796664 
L 193.768635 194.105767 
L 195.398427 191.692295 
L 197.028219 191.227244 
L 198.658011 191.881003 
L 200.287803 194.355235 
L 201.917594 189.628195 
L 203.547386 191.800963 
L 205.177178 190.401137 
L 206.80697 195.152131 
L 208.436762 191.12033 
L 210.066554 191.445748 
L 211.696346 193.407607 
L 213.326138 192.628238 
L 214.95593 193.23 
L 216.585722 189.712325 
L 218.215513 192.193568 
L 219.845305 192.145077 
L 221.475097 193.457851 
L 223.104889 190.821202 
L 224.734681 192.412656 
L 227.994265 192.426093 
L 229.624057 192.64226 
L 231.253849 192.032904 
L 232.88364 193.193777 
L 234.513432 188.591179 
L 236.143224 191.424716 
L 237.773016 193.356779 
L 239.402808 194.251242 
L 241.0326 191.542731 
L 242.662392 191.723259 
L 244.292184 193.704398 
L 245.921976 192.941388 
L 247.551768 191.428221 
L 249.181559 191.984996 
L 250.811351 189.585546 
L 252.441143 195.398094 
L 254.070935 191.89035 
L 255.700727 191.900867 
L 257.330519 191.284499 
L 260.590103 192.655113 
L 262.219895 192.244396 
L 263.849686 193.159308 
L 265.479478 192.364749 
L 267.10927 193.104389 
L 268.739062 193.665839 
L 270.368854 191.856465 
L 271.998646 190.835807 
L 273.628438 191.394335 
L 275.25823 193.709656 
L 276.888022 191.449254 
L 278.517814 192.513144 
L 280.147605 192.574489 
L 281.777397 191.542731 
L 283.407189 191.814984 
L 285.036981 191.36454 
L 286.666773 193.631369 
L 288.296565 190.424506 
L 289.926357 194.060781 
L 291.556149 191.661915 
L 293.185941 192.25316 
L 296.445524 192.296393 
L 298.075316 192.443036 
L 299.705108 193.201957 
L 301.3349 191.58538 
L 302.964692 192.774297 
L 304.594484 191.684116 
L 306.224276 192.652192 
L 307.854068 189.350099 
L 309.48386 192.169615 
L 311.113651 191.84478 
L 312.743443 193.000396 
L 314.373235 191.278073 
L 316.003027 193.224158 
L 317.632819 192.850248 
L 319.262611 193.204294 
L 320.892403 192.781308 
L 322.522195 190.206587 
L 324.151987 192.558715 
L 325.781778 191.975064 
L 327.41157 190.984203 
L 329.041362 194.735572 
L 330.671154 189.985746 
L 332.300946 192.256081 
L 333.930738 192.968263 
L 335.56053 192.337874 
L 337.190322 193.187935 
L 338.820114 191.775841 
L 340.449906 191.352855 
L 342.079697 193.322893 
L 343.709489 191.827253 
L 345.339281 191.324227 
L 346.969073 194.643847 
L 348.598865 191.083523 
L 350.228657 190.821202 
L 351.858449 192.47809 
L 353.488241 190.744667 
L 355.118033 191.968638 
L 356.747824 194.600614 
L 358.377616 191.661915 
L 360.007408 194.060197 
L 361.6372 191.677689 
L 363.266992 193.224742 
L 364.896784 194.094667 
L 366.526576 189.801128 
L 368.156368 191.120914 
L 369.78616 192.934377 
L 371.415952 191.690542 
L 373.045743 191.597065 
L 374.675535 192.422004 
L 376.305327 193.083357 
L 377.935119 190.621978 
L 379.564911 191.94819 
L 381.194703 193.740036 
L 382.824495 190.794327 
L 384.454287 194.326608 
L 386.084079 191.474376 
L 387.71387 194.101093 
L 389.343662 192.023556 
L 392.603246 193.591057 
L 394.233038 191.552079 
L 395.86283 191.806805 
L 397.492622 190.390621 
L 399.122414 190.694423 
L 400.752206 195.090202 
L 402.381998 191.424716 
L 404.011789 189.83443 
L 405.641581 193.258043 
L 407.271373 193.452593 
L 408.901165 191.918394 
L 410.530957 192.019466 
L 412.160749 192.394545 
L 415.420333 191.55909 
L 417.050125 191.581875 
L 418.679916 193.403517 
L 420.309708 192.799419 
L 421.9395 192.488022 
L 423.569292 192.770207 
L 425.199084 191.938258 
L 426.828876 193.157555 
L 428.458668 192.472832 
L 430.08846 192.392792 
L 431.718252 193.939845 
L 433.348044 191.79921 
L 434.977835 191.95929 
L 436.607627 193.178003 
L 438.237419 190.999393 
L 439.867211 193.390664 
L 441.497003 192.856674 
L 443.126795 191.781099 
L 444.756587 191.562011 
L 446.386379 191.535136 
L 448.016171 191.876329 
L 449.645962 192.46699 
L 451.275754 193.306535 
L 454.535338 193.69914 
L 456.16513 192.273608 
L 457.794922 191.271646 
L 459.424714 191.542731 
L 461.054506 192.135729 
L 462.684298 193.169824 
L 464.31409 193.45902 
L 465.943881 193.278491 
L 467.573673 190.9065 
L 469.203465 193.366126 
L 470.833257 191.477297 
L 472.463049 192.050431 
L 474.092841 190.870277 
L 474.092841 190.870277 
" clip-path="url(#pfd65655091)" style="fill: none; stroke-dasharray: 1.75,2.8875; stroke-dashoffset: 0; stroke: #9fc377; stroke-width: 1.75"/>
   </g>
   <g id="patch_3">
    <path d="M 47.98375 326.855625 
L 47.98375 21.935625 
" style="fill: none; stroke: #cccccc; stroke-width: 1.25; stroke-linejoin: miter; stroke-linecap: square"/>
   </g>
   <g id="patch_4">
    <path d="M 494.38375 326.855625 
L 494.38375 21.935625 
" style="fill: none; stroke: #cccccc; stroke-width: 1.25; stroke-linejoin: miter; stroke-linecap: square"/>
   </g>
   <g id="patch_5">
    <path d="M 47.98375 326.855625 
L 494.38375 326.855625 
" style="fill: none; stroke: #cccccc; stroke-width: 1.25; stroke-linejoin: miter; stroke-linecap: square"/>
   </g>
   <g id="patch_6">
    <path d="M 47.98375 21.935625 
L 494.38375 21.935625 
" style="fill: none; stroke: #cccccc; stroke-width: 1.25; stroke-linejoin: miter; stroke-linecap: square"/>
   </g>
   <g id="text_38">
    <!-- "Hartman_trans_free_energy" for dataset Mouse_non_tata -->
    <g style="fill: #262626" transform="translate(115.51 15.935625) scale(0.12 -0.12)">
     <defs>
      <path id="ArialMT-22" d="M 450 2959 
L 294 3831 
L 294 4581 
L 934 4581 
L 934 3831 
L 794 2959 
L 450 2959 
z
M 1484 2959 
L 1331 3831 
L 1331 4581 
L 1972 4581 
L 1972 3831 
L 1822 2959 
L 1484 2959 
z
" transform="scale(0.015625)"/>
      <path id="ArialMT-20" transform="scale(0.015625)"/>
      <path id="ArialMT-64" d="M 2575 0 
L 2575 419 
Q 2259 -75 1647 -75 
Q 1250 -75 917 144 
Q 584 363 401 755 
Q 219 1147 219 1656 
Q 219 2153 384 2558 
Q 550 2963 881 3178 
Q 1213 3394 1622 3394 
Q 1922 3394 2156 3267 
Q 2391 3141 2538 2938 
L 2538 4581 
L 3097 4581 
L 3097 0 
L 2575 0 
z
M 797 1656 
Q 797 1019 1065 703 
Q 1334 388 1700 388 
Q 2069 388 2326 689 
Q 2584 991 2584 1609 
Q 2584 2291 2321 2609 
Q 2059 2928 1675 2928 
Q 1300 2928 1048 2622 
Q 797 2316 797 1656 
z
" transform="scale(0.015625)"/>
      <path id="ArialMT-4d" d="M 475 0 
L 475 4581 
L 1388 4581 
L 2472 1338 
Q 2622 884 2691 659 
Q 2769 909 2934 1394 
L 4031 4581 
L 4847 4581 
L 4847 0 
L 4263 0 
L 4263 3834 
L 2931 0 
L 2384 0 
L 1059 3900 
L 1059 0 
L 475 0 
z
" transform="scale(0.015625)"/>
      <path id="ArialMT-75" d="M 2597 0 
L 2597 488 
Q 2209 -75 1544 -75 
Q 1250 -75 995 37 
Q 741 150 617 320 
Q 494 491 444 738 
Q 409 903 409 1263 
L 409 3319 
L 972 3319 
L 972 1478 
Q 972 1038 1006 884 
Q 1059 663 1231 536 
Q 1403 409 1656 409 
Q 1909 409 2131 539 
Q 2353 669 2445 892 
Q 2538 1116 2538 1541 
L 2538 3319 
L 3100 3319 
L 3100 0 
L 2597 0 
z
" transform="scale(0.015625)"/>
     </defs>
     <use xlink:href="#ArialMT-22"/>
     <use xlink:href="#ArialMT-48" x="35.498047"/>
     <use xlink:href="#ArialMT-61" x="107.714844"/>
     <use xlink:href="#ArialMT-72" x="163.330078"/>
     <use xlink:href="#ArialMT-74" x="196.630859"/>
     <use xlink:href="#ArialMT-6d" x="224.414062"/>
     <use xlink:href="#ArialMT-61" x="307.714844"/>
     <use xlink:href="#ArialMT-6e" x="363.330078"/>
     <use xlink:href="#ArialMT-5f" x="418.945312"/>
     <use xlink:href="#ArialMT-74" x="474.560547"/>
     <use xlink:href="#ArialMT-72" x="502.34375"/>
     <use xlink:href="#ArialMT-61" x="535.644531"/>
     <use xlink:href="#ArialMT-6e" x="591.259766"/>
     <use xlink:href="#ArialMT-73" x="646.875"/>
     <use xlink:href="#ArialMT-5f" x="696.875"/>
     <use xlink:href="#ArialMT-66" x="752.490234"/>
     <use xlink:href="#ArialMT-72" x="780.273438"/>
     <use xlink:href="#ArialMT-65" x="813.574219"/>
     <use xlink:href="#ArialMT-65" x="869.189453"/>
     <use xlink:href="#ArialMT-5f" x="924.804688"/>
     <use xlink:href="#ArialMT-65" x="980.419922"/>
     <use xlink:href="#ArialMT-6e" x="1036.035156"/>
     <use xlink:href="#ArialMT-65" x="1091.650391"/>
     <use xlink:href="#ArialMT-72" x="1147.265625"/>
     <use xlink:href="#ArialMT-67" x="1180.566406"/>
     <use xlink:href="#ArialMT-79" x="1236.181641"/>
     <use xlink:href="#ArialMT-22" x="1286.181641"/>
     <use xlink:href="#ArialMT-20" x="1321.679688"/>
     <use xlink:href="#ArialMT-66" x="1349.462891"/>
     <use xlink:href="#ArialMT-6f" x="1377.246094"/>
     <use xlink:href="#ArialMT-72" x="1432.861328"/>
     <use xlink:href="#ArialMT-20" x="1466.162109"/>
     <use xlink:href="#ArialMT-64" x="1493.945312"/>
     <use xlink:href="#ArialMT-61" x="1549.560547"/>
     <use xlink:href="#ArialMT-74" x="1605.175781"/>
     <use xlink:href="#ArialMT-61" x="1632.958984"/>
     <use xlink:href="#ArialMT-73" x="1688.574219"/>
     <use xlink:href="#ArialMT-65" x="1738.574219"/>
     <use xlink:href="#ArialMT-74" x="1794.189453"/>
     <use xlink:href="#ArialMT-20" x="1821.972656"/>
     <use xlink:href="#ArialMT-4d" x="1849.755859"/>
     <use xlink:href="#ArialMT-6f" x="1933.056641"/>
     <use xlink:href="#ArialMT-75" x="1988.671875"/>
     <use xlink:href="#ArialMT-73" x="2044.287109"/>
     <use xlink:href="#ArialMT-65" x="2094.287109"/>
     <use xlink:href="#ArialMT-5f" x="2149.902344"/>
     <use xlink:href="#ArialMT-6e" x="2205.517578"/>
     <use xlink:href="#ArialMT-6f" x="2261.132812"/>
     <use xlink:href="#ArialMT-6e" x="2316.748047"/>
     <use xlink:href="#ArialMT-5f" x="2372.363281"/>
     <use xlink:href="#ArialMT-74" x="2427.978516"/>
     <use xlink:href="#ArialMT-61" x="2455.761719"/>
     <use xlink:href="#ArialMT-74" x="2511.376953"/>
     <use xlink:href="#ArialMT-61" x="2539.160156"/>
    </g>
   </g>
   <g id="legend_1">
    <g id="line2d_38">
     <path d="M 56.98375 34.593437 
L 66.98375 34.593437 
L 76.98375 34.593437 
" style="fill: none; stroke: #0272a2; stroke-width: 1.75; stroke-linecap: round"/>
    </g>
    <g id="text_39">
     <!-- Promoter -->
     <g style="fill: #262626" transform="translate(84.98375 38.093437) scale(0.1 -0.1)">
      <use xlink:href="#ArialMT-50"/>
      <use xlink:href="#ArialMT-72" x="66.699219"/>
      <use xlink:href="#ArialMT-6f" x="100"/>
      <use xlink:href="#ArialMT-6d" x="155.615234"/>
      <use xlink:href="#ArialMT-6f" x="238.916016"/>
      <use xlink:href="#ArialMT-74" x="294.53125"/>
      <use xlink:href="#ArialMT-65" x="322.314453"/>
      <use xlink:href="#ArialMT-72" x="377.929688"/>
     </g>
    </g>
    <g id="line2d_39">
     <path d="M 56.98375 48.73875 
L 66.98375 48.73875 
L 76.98375 48.73875 
" style="fill: none; stroke-dasharray: 1.75,2.8875; stroke-dashoffset: 0; stroke: #9fc377; stroke-width: 1.75"/>
    </g>
    <g id="text_40">
     <!-- Non-promoter -->
     <g style="fill: #262626" transform="translate(84.98375 52.23875) scale(0.1 -0.1)">
      <defs>
       <path id="ArialMT-4e" d="M 488 0 
L 488 4581 
L 1109 4581 
L 3516 984 
L 3516 4581 
L 4097 4581 
L 4097 0 
L 3475 0 
L 1069 3600 
L 1069 0 
L 488 0 
z
" transform="scale(0.015625)"/>
       <path id="ArialMT-70" d="M 422 -1272 
L 422 3319 
L 934 3319 
L 934 2888 
Q 1116 3141 1344 3267 
Q 1572 3394 1897 3394 
Q 2322 3394 2647 3175 
Q 2972 2956 3137 2557 
Q 3303 2159 3303 1684 
Q 3303 1175 3120 767 
Q 2938 359 2589 142 
Q 2241 -75 1856 -75 
Q 1575 -75 1351 44 
Q 1128 163 984 344 
L 984 -1272 
L 422 -1272 
z
M 931 1641 
Q 931 1000 1190 694 
Q 1450 388 1819 388 
Q 2194 388 2461 705 
Q 2728 1022 2728 1688 
Q 2728 2322 2467 2637 
Q 2206 2953 1844 2953 
Q 1484 2953 1207 2617 
Q 931 2281 931 1641 
z
" transform="scale(0.015625)"/>
      </defs>
      <use xlink:href="#ArialMT-4e"/>
      <use xlink:href="#ArialMT-6f" x="72.216797"/>
      <use xlink:href="#ArialMT-6e" x="127.832031"/>
      <use xlink:href="#ArialMT-2d" x="183.447266"/>
      <use xlink:href="#ArialMT-70" x="216.748047"/>
      <use xlink:href="#ArialMT-72" x="272.363281"/>
      <use xlink:href="#ArialMT-6f" x="305.664062"/>
      <use xlink:href="#ArialMT-6d" x="361.279297"/>
      <use xlink:href="#ArialMT-6f" x="444.580078"/>
      <use xlink:href="#ArialMT-74" x="500.195312"/>
      <use xlink:href="#ArialMT-65" x="527.978516"/>
      <use xlink:href="#ArialMT-72" x="583.59375"/>
     </g>
    </g>
   </g>
  </g>
 </g>
 <defs>
  <clipPath id="pfd65655091">
   <rect x="47.98375" y="21.935625" width="446.4" height="304.92"/>
  </clipPath>
 </defs>
</svg>
