<?xml version="1.0" encoding="utf-8" standalone="no"?>
<!DOCTYPE svg PUBLIC "-//W3C//DTD SVG 1.1//EN"
  "http://www.w3.org/Graphics/SVG/1.1/DTD/svg11.dtd">
<svg xmlns:xlink="http://www.w3.org/1999/xlink" width="501.454844pt" height="375.733156pt" viewBox="0 0 501.454844 375.733156" xmlns="http://www.w3.org/2000/svg" version="1.1">
 <metadata>
  <rdf:RDF xmlns:dc="http://purl.org/dc/elements/1.1/" xmlns:cc="http://creativecommons.org/ns#" xmlns:rdf="http://www.w3.org/1999/02/22-rdf-syntax-ns#">
   <cc:Work>
    <dc:type rdf:resource="http://purl.org/dc/dcmitype/StillImage"/>
    <dc:date>2023-05-11T16:25:51.595205</dc:date>
    <dc:format>image/svg+xml</dc:format>
    <dc:creator>
     <cc:Agent>
      <dc:title>Matplotlib v3.7.1, https://matplotlib.org/</dc:title>
     </cc:Agent>
    </dc:creator>
   </cc:Work>
  </rdf:RDF>
 </metadata>
 <defs>
  <style type="text/css">*{stroke-linejoin: round; stroke-linecap: butt}</style>
 </defs>
 <g id="figure_1">
  <g id="patch_1">
   <path d="M 0 375.733156 
L 501.454844 375.733156 
L 501.454844 0 
L 0 0 
z
" style="fill: #ffffff"/>
  </g>
  <g id="axes_1">
   <g id="patch_2">
    <path d="M 47.854844 326.855625 
L 494.254844 326.855625 
L 494.254844 21.935625 
L 47.854844 21.935625 
z
" style="fill: #ffffff"/>
   </g>
   <g id="matplotlib.axis_1">
    <g id="xtick_1">
     <g id="line2d_1"/>
     <g id="text_1">
      <!-- -200 -->
      <g style="fill: #262626" transform="translate(62.898247 353.067937) rotate(-45) scale(0.1 -0.1)">
       <defs>
        <path id="ArialMT-2d" d="M 203 1375 
L 203 1941 
L 1931 1941 
L 1931 1375 
L 203 1375 
z
" transform="scale(0.015625)"/>
        <path id="ArialMT-32" d="M 3222 541 
L 3222 0 
L 194 0 
Q 188 203 259 391 
Q 375 700 629 1000 
Q 884 1300 1366 1694 
Q 2113 2306 2375 2664 
Q 2638 3022 2638 3341 
Q 2638 3675 2398 3904 
Q 2159 4134 1775 4134 
Q 1369 4134 1125 3890 
Q 881 3647 878 3216 
L 300 3275 
Q 359 3922 746 4261 
Q 1134 4600 1788 4600 
Q 2447 4600 2831 4234 
Q 3216 3869 3216 3328 
Q 3216 3053 3103 2787 
Q 2991 2522 2730 2228 
Q 2469 1934 1863 1422 
Q 1356 997 1212 845 
Q 1069 694 975 541 
L 3222 541 
z
" transform="scale(0.015625)"/>
        <path id="ArialMT-30" d="M 266 2259 
Q 266 3072 433 3567 
Q 600 4063 929 4331 
Q 1259 4600 1759 4600 
Q 2128 4600 2406 4451 
Q 2684 4303 2865 4023 
Q 3047 3744 3150 3342 
Q 3253 2941 3253 2259 
Q 3253 1453 3087 958 
Q 2922 463 2592 192 
Q 2263 -78 1759 -78 
Q 1097 -78 719 397 
Q 266 969 266 2259 
z
M 844 2259 
Q 844 1131 1108 757 
Q 1372 384 1759 384 
Q 2147 384 2411 759 
Q 2675 1134 2675 2259 
Q 2675 3391 2411 3762 
Q 2147 4134 1753 4134 
Q 1366 4134 1134 3806 
Q 844 3388 844 2259 
z
" transform="scale(0.015625)"/>
       </defs>
       <use xlink:href="#ArialMT-2d"/>
       <use xlink:href="#ArialMT-32" x="33.300781"/>
       <use xlink:href="#ArialMT-30" x="88.916016"/>
       <use xlink:href="#ArialMT-30" x="144.53125"/>
      </g>
     </g>
    </g>
    <g id="xtick_2">
     <g id="line2d_2"/>
     <g id="text_2">
      <!-- -190 -->
      <g style="fill: #262626" transform="translate(79.196166 353.067937) rotate(-45) scale(0.1 -0.1)">
       <defs>
        <path id="ArialMT-31" d="M 2384 0 
L 1822 0 
L 1822 3584 
Q 1619 3391 1289 3197 
Q 959 3003 697 2906 
L 697 3450 
Q 1169 3672 1522 3987 
Q 1875 4303 2022 4600 
L 2384 4600 
L 2384 0 
z
" transform="scale(0.015625)"/>
        <path id="ArialMT-39" d="M 350 1059 
L 891 1109 
Q 959 728 1153 556 
Q 1347 384 1650 384 
Q 1909 384 2104 503 
Q 2300 622 2425 820 
Q 2550 1019 2634 1356 
Q 2719 1694 2719 2044 
Q 2719 2081 2716 2156 
Q 2547 1888 2255 1720 
Q 1963 1553 1622 1553 
Q 1053 1553 659 1965 
Q 266 2378 266 3053 
Q 266 3750 677 4175 
Q 1088 4600 1706 4600 
Q 2153 4600 2523 4359 
Q 2894 4119 3086 3673 
Q 3278 3228 3278 2384 
Q 3278 1506 3087 986 
Q 2897 466 2520 194 
Q 2144 -78 1638 -78 
Q 1100 -78 759 220 
Q 419 519 350 1059 
z
M 2653 3081 
Q 2653 3566 2395 3850 
Q 2138 4134 1775 4134 
Q 1400 4134 1122 3828 
Q 844 3522 844 3034 
Q 844 2597 1108 2323 
Q 1372 2050 1759 2050 
Q 2150 2050 2401 2323 
Q 2653 2597 2653 3081 
z
" transform="scale(0.015625)"/>
       </defs>
       <use xlink:href="#ArialMT-2d"/>
       <use xlink:href="#ArialMT-31" x="33.300781"/>
       <use xlink:href="#ArialMT-39" x="88.916016"/>
       <use xlink:href="#ArialMT-30" x="144.53125"/>
      </g>
     </g>
    </g>
    <g id="xtick_3">
     <g id="line2d_3"/>
     <g id="text_3">
      <!-- -180 -->
      <g style="fill: #262626" transform="translate(95.494085 353.067937) rotate(-45) scale(0.1 -0.1)">
       <defs>
        <path id="ArialMT-38" d="M 1131 2484 
Q 781 2613 612 2850 
Q 444 3088 444 3419 
Q 444 3919 803 4259 
Q 1163 4600 1759 4600 
Q 2359 4600 2725 4251 
Q 3091 3903 3091 3403 
Q 3091 3084 2923 2848 
Q 2756 2613 2416 2484 
Q 2838 2347 3058 2040 
Q 3278 1734 3278 1309 
Q 3278 722 2862 322 
Q 2447 -78 1769 -78 
Q 1091 -78 675 323 
Q 259 725 259 1325 
Q 259 1772 486 2073 
Q 713 2375 1131 2484 
z
M 1019 3438 
Q 1019 3113 1228 2906 
Q 1438 2700 1772 2700 
Q 2097 2700 2305 2904 
Q 2513 3109 2513 3406 
Q 2513 3716 2298 3927 
Q 2084 4138 1766 4138 
Q 1444 4138 1231 3931 
Q 1019 3725 1019 3438 
z
M 838 1322 
Q 838 1081 952 856 
Q 1066 631 1291 507 
Q 1516 384 1775 384 
Q 2178 384 2440 643 
Q 2703 903 2703 1303 
Q 2703 1709 2433 1975 
Q 2163 2241 1756 2241 
Q 1359 2241 1098 1978 
Q 838 1716 838 1322 
z
" transform="scale(0.015625)"/>
       </defs>
       <use xlink:href="#ArialMT-2d"/>
       <use xlink:href="#ArialMT-31" x="33.300781"/>
       <use xlink:href="#ArialMT-38" x="88.916016"/>
       <use xlink:href="#ArialMT-30" x="144.53125"/>
      </g>
     </g>
    </g>
    <g id="xtick_4">
     <g id="line2d_4"/>
     <g id="text_4">
      <!-- -170 -->
      <g style="fill: #262626" transform="translate(111.792004 353.067937) rotate(-45) scale(0.1 -0.1)">
       <defs>
        <path id="ArialMT-37" d="M 303 3981 
L 303 4522 
L 3269 4522 
L 3269 4084 
Q 2831 3619 2401 2847 
Q 1972 2075 1738 1259 
Q 1569 684 1522 0 
L 944 0 
Q 953 541 1156 1306 
Q 1359 2072 1739 2783 
Q 2119 3494 2547 3981 
L 303 3981 
z
" transform="scale(0.015625)"/>
       </defs>
       <use xlink:href="#ArialMT-2d"/>
       <use xlink:href="#ArialMT-31" x="33.300781"/>
       <use xlink:href="#ArialMT-37" x="88.916016"/>
       <use xlink:href="#ArialMT-30" x="144.53125"/>
      </g>
     </g>
    </g>
    <g id="xtick_5">
     <g id="line2d_5"/>
     <g id="text_5">
      <!-- -160 -->
      <g style="fill: #262626" transform="translate(128.089923 353.067937) rotate(-45) scale(0.1 -0.1)">
       <defs>
        <path id="ArialMT-36" d="M 3184 3459 
L 2625 3416 
Q 2550 3747 2413 3897 
Q 2184 4138 1850 4138 
Q 1581 4138 1378 3988 
Q 1113 3794 959 3422 
Q 806 3050 800 2363 
Q 1003 2672 1297 2822 
Q 1591 2972 1913 2972 
Q 2475 2972 2870 2558 
Q 3266 2144 3266 1488 
Q 3266 1056 3080 686 
Q 2894 316 2569 119 
Q 2244 -78 1831 -78 
Q 1128 -78 684 439 
Q 241 956 241 2144 
Q 241 3472 731 4075 
Q 1159 4600 1884 4600 
Q 2425 4600 2770 4297 
Q 3116 3994 3184 3459 
z
M 888 1484 
Q 888 1194 1011 928 
Q 1134 663 1356 523 
Q 1578 384 1822 384 
Q 2178 384 2434 671 
Q 2691 959 2691 1453 
Q 2691 1928 2437 2201 
Q 2184 2475 1800 2475 
Q 1419 2475 1153 2201 
Q 888 1928 888 1484 
z
" transform="scale(0.015625)"/>
       </defs>
       <use xlink:href="#ArialMT-2d"/>
       <use xlink:href="#ArialMT-31" x="33.300781"/>
       <use xlink:href="#ArialMT-36" x="88.916016"/>
       <use xlink:href="#ArialMT-30" x="144.53125"/>
      </g>
     </g>
    </g>
    <g id="xtick_6">
     <g id="line2d_6"/>
     <g id="text_6">
      <!-- -150 -->
      <g style="fill: #262626" transform="translate(144.387842 353.067937) rotate(-45) scale(0.1 -0.1)">
       <defs>
        <path id="ArialMT-35" d="M 266 1200 
L 856 1250 
Q 922 819 1161 601 
Q 1400 384 1738 384 
Q 2144 384 2425 690 
Q 2706 997 2706 1503 
Q 2706 1984 2436 2262 
Q 2166 2541 1728 2541 
Q 1456 2541 1237 2417 
Q 1019 2294 894 2097 
L 366 2166 
L 809 4519 
L 3088 4519 
L 3088 3981 
L 1259 3981 
L 1013 2750 
Q 1425 3038 1878 3038 
Q 2478 3038 2890 2622 
Q 3303 2206 3303 1553 
Q 3303 931 2941 478 
Q 2500 -78 1738 -78 
Q 1113 -78 717 272 
Q 322 622 266 1200 
z
" transform="scale(0.015625)"/>
       </defs>
       <use xlink:href="#ArialMT-2d"/>
       <use xlink:href="#ArialMT-31" x="33.300781"/>
       <use xlink:href="#ArialMT-35" x="88.916016"/>
       <use xlink:href="#ArialMT-30" x="144.53125"/>
      </g>
     </g>
    </g>
    <g id="xtick_7">
     <g id="line2d_7"/>
     <g id="text_7">
      <!-- -140 -->
      <g style="fill: #262626" transform="translate(160.685761 353.067937) rotate(-45) scale(0.1 -0.1)">
       <defs>
        <path id="ArialMT-34" d="M 2069 0 
L 2069 1097 
L 81 1097 
L 81 1613 
L 2172 4581 
L 2631 4581 
L 2631 1613 
L 3250 1613 
L 3250 1097 
L 2631 1097 
L 2631 0 
L 2069 0 
z
M 2069 1613 
L 2069 3678 
L 634 1613 
L 2069 1613 
z
" transform="scale(0.015625)"/>
       </defs>
       <use xlink:href="#ArialMT-2d"/>
       <use xlink:href="#ArialMT-31" x="33.300781"/>
       <use xlink:href="#ArialMT-34" x="88.916016"/>
       <use xlink:href="#ArialMT-30" x="144.53125"/>
      </g>
     </g>
    </g>
    <g id="xtick_8">
     <g id="line2d_8"/>
     <g id="text_8">
      <!-- -130 -->
      <g style="fill: #262626" transform="translate(176.98368 353.067937) rotate(-45) scale(0.1 -0.1)">
       <defs>
        <path id="ArialMT-33" d="M 269 1209 
L 831 1284 
Q 928 806 1161 595 
Q 1394 384 1728 384 
Q 2125 384 2398 659 
Q 2672 934 2672 1341 
Q 2672 1728 2419 1979 
Q 2166 2231 1775 2231 
Q 1616 2231 1378 2169 
L 1441 2663 
Q 1497 2656 1531 2656 
Q 1891 2656 2178 2843 
Q 2466 3031 2466 3422 
Q 2466 3731 2256 3934 
Q 2047 4138 1716 4138 
Q 1388 4138 1169 3931 
Q 950 3725 888 3313 
L 325 3413 
Q 428 3978 793 4289 
Q 1159 4600 1703 4600 
Q 2078 4600 2393 4439 
Q 2709 4278 2876 4000 
Q 3044 3722 3044 3409 
Q 3044 3113 2884 2869 
Q 2725 2625 2413 2481 
Q 2819 2388 3044 2092 
Q 3269 1797 3269 1353 
Q 3269 753 2831 336 
Q 2394 -81 1725 -81 
Q 1122 -81 723 278 
Q 325 638 269 1209 
z
" transform="scale(0.015625)"/>
       </defs>
       <use xlink:href="#ArialMT-2d"/>
       <use xlink:href="#ArialMT-31" x="33.300781"/>
       <use xlink:href="#ArialMT-33" x="88.916016"/>
       <use xlink:href="#ArialMT-30" x="144.53125"/>
      </g>
     </g>
    </g>
    <g id="xtick_9">
     <g id="line2d_9"/>
     <g id="text_9">
      <!-- -120 -->
      <g style="fill: #262626" transform="translate(193.281599 353.067937) rotate(-45) scale(0.1 -0.1)">
       <use xlink:href="#ArialMT-2d"/>
       <use xlink:href="#ArialMT-31" x="33.300781"/>
       <use xlink:href="#ArialMT-32" x="88.916016"/>
       <use xlink:href="#ArialMT-30" x="144.53125"/>
      </g>
     </g>
    </g>
    <g id="xtick_10">
     <g id="line2d_10"/>
     <g id="text_10">
      <!-- -110 -->
      <g style="fill: #262626" transform="translate(209.840263 352.546446) rotate(-45) scale(0.1 -0.1)">
       <use xlink:href="#ArialMT-2d"/>
       <use xlink:href="#ArialMT-31" x="33.300781"/>
       <use xlink:href="#ArialMT-31" x="81.541016"/>
       <use xlink:href="#ArialMT-30" x="137.15625"/>
      </g>
     </g>
    </g>
    <g id="xtick_11">
     <g id="line2d_11"/>
     <g id="text_11">
      <!-- -100 -->
      <g style="fill: #262626" transform="translate(225.877437 353.067937) rotate(-45) scale(0.1 -0.1)">
       <use xlink:href="#ArialMT-2d"/>
       <use xlink:href="#ArialMT-31" x="33.300781"/>
       <use xlink:href="#ArialMT-30" x="88.916016"/>
       <use xlink:href="#ArialMT-30" x="144.53125"/>
      </g>
     </g>
    </g>
    <g id="xtick_12">
     <g id="line2d_12"/>
     <g id="text_12">
      <!-- -90 -->
      <g style="fill: #262626" transform="translate(244.141444 349.135761) rotate(-45) scale(0.1 -0.1)">
       <use xlink:href="#ArialMT-2d"/>
       <use xlink:href="#ArialMT-39" x="33.300781"/>
       <use xlink:href="#ArialMT-30" x="88.916016"/>
      </g>
     </g>
    </g>
    <g id="xtick_13">
     <g id="line2d_13"/>
     <g id="text_13">
      <!-- -80 -->
      <g style="fill: #262626" transform="translate(260.439363 349.135761) rotate(-45) scale(0.1 -0.1)">
       <use xlink:href="#ArialMT-2d"/>
       <use xlink:href="#ArialMT-38" x="33.300781"/>
       <use xlink:href="#ArialMT-30" x="88.916016"/>
      </g>
     </g>
    </g>
    <g id="xtick_14">
     <g id="line2d_14"/>
     <g id="text_14">
      <!-- -70 -->
      <g style="fill: #262626" transform="translate(276.737282 349.135761) rotate(-45) scale(0.1 -0.1)">
       <use xlink:href="#ArialMT-2d"/>
       <use xlink:href="#ArialMT-37" x="33.300781"/>
       <use xlink:href="#ArialMT-30" x="88.916016"/>
      </g>
     </g>
    </g>
    <g id="xtick_15">
     <g id="line2d_15"/>
     <g id="text_15">
      <!-- -60 -->
      <g style="fill: #262626" transform="translate(293.035201 349.135761) rotate(-45) scale(0.1 -0.1)">
       <use xlink:href="#ArialMT-2d"/>
       <use xlink:href="#ArialMT-36" x="33.300781"/>
       <use xlink:href="#ArialMT-30" x="88.916016"/>
      </g>
     </g>
    </g>
    <g id="xtick_16">
     <g id="line2d_16"/>
     <g id="text_16">
      <!-- -50 -->
      <g style="fill: #262626" transform="translate(309.33312 349.135761) rotate(-45) scale(0.1 -0.1)">
       <use xlink:href="#ArialMT-2d"/>
       <use xlink:href="#ArialMT-35" x="33.300781"/>
       <use xlink:href="#ArialMT-30" x="88.916016"/>
      </g>
     </g>
    </g>
    <g id="xtick_17">
     <g id="line2d_17"/>
     <g id="text_17">
      <!-- -40 -->
      <g style="fill: #262626" transform="translate(325.631039 349.135761) rotate(-45) scale(0.1 -0.1)">
       <use xlink:href="#ArialMT-2d"/>
       <use xlink:href="#ArialMT-34" x="33.300781"/>
       <use xlink:href="#ArialMT-30" x="88.916016"/>
      </g>
     </g>
    </g>
    <g id="xtick_18">
     <g id="line2d_18"/>
     <g id="text_18">
      <!-- -30 -->
      <g style="fill: #262626" transform="translate(341.928958 349.135761) rotate(-45) scale(0.1 -0.1)">
       <use xlink:href="#ArialMT-2d"/>
       <use xlink:href="#ArialMT-33" x="33.300781"/>
       <use xlink:href="#ArialMT-30" x="88.916016"/>
      </g>
     </g>
    </g>
    <g id="xtick_19">
     <g id="line2d_19"/>
     <g id="text_19">
      <!-- -20 -->
      <g style="fill: #262626" transform="translate(358.226877 349.135761) rotate(-45) scale(0.1 -0.1)">
       <use xlink:href="#ArialMT-2d"/>
       <use xlink:href="#ArialMT-32" x="33.300781"/>
       <use xlink:href="#ArialMT-30" x="88.916016"/>
      </g>
     </g>
    </g>
    <g id="xtick_20">
     <g id="line2d_20"/>
     <g id="text_20">
      <!-- -10 -->
      <g style="fill: #262626" transform="translate(374.524795 349.135761) rotate(-45) scale(0.1 -0.1)">
       <use xlink:href="#ArialMT-2d"/>
       <use xlink:href="#ArialMT-31" x="33.300781"/>
       <use xlink:href="#ArialMT-30" x="88.916016"/>
      </g>
     </g>
    </g>
    <g id="xtick_21">
     <g id="line2d_21"/>
     <g id="text_21">
      <!-- 0 -->
      <g style="fill: #262626" transform="translate(393.966025 342.849139) rotate(-45) scale(0.1 -0.1)">
       <use xlink:href="#ArialMT-30"/>
      </g>
     </g>
    </g>
    <g id="xtick_22">
     <g id="line2d_22"/>
     <g id="text_22">
      <!-- 10 -->
      <g style="fill: #262626" transform="translate(408.297856 346.781316) rotate(-45) scale(0.1 -0.1)">
       <use xlink:href="#ArialMT-31"/>
       <use xlink:href="#ArialMT-30" x="55.615234"/>
      </g>
     </g>
    </g>
    <g id="xtick_23">
     <g id="line2d_23"/>
     <g id="text_23">
      <!-- 20 -->
      <g style="fill: #262626" transform="translate(424.595775 346.781316) rotate(-45) scale(0.1 -0.1)">
       <use xlink:href="#ArialMT-32"/>
       <use xlink:href="#ArialMT-30" x="55.615234"/>
      </g>
     </g>
    </g>
    <g id="xtick_24">
     <g id="line2d_24"/>
     <g id="text_24">
      <!-- 30 -->
      <g style="fill: #262626" transform="translate(440.893694 346.781316) rotate(-45) scale(0.1 -0.1)">
       <use xlink:href="#ArialMT-33"/>
       <use xlink:href="#ArialMT-30" x="55.615234"/>
      </g>
     </g>
    </g>
    <g id="xtick_25">
     <g id="line2d_25"/>
     <g id="text_25">
      <!-- 40 -->
      <g style="fill: #262626" transform="translate(457.191613 346.781316) rotate(-45) scale(0.1 -0.1)">
       <use xlink:href="#ArialMT-34"/>
       <use xlink:href="#ArialMT-30" x="55.615234"/>
      </g>
     </g>
    </g>
    <g id="xtick_26">
     <g id="line2d_26"/>
     <g id="text_26">
      <!-- 50 -->
      <g style="fill: #262626" transform="translate(473.489531 346.781316) rotate(-45) scale(0.1 -0.1)">
       <use xlink:href="#ArialMT-35"/>
       <use xlink:href="#ArialMT-30" x="55.615234"/>
      </g>
     </g>
    </g>
    <g id="text_27">
     <!-- Position -->
     <g style="fill: #262626" transform="translate(251.488594 366.346906) scale(0.11 -0.11)">
      <defs>
       <path id="ArialMT-50" d="M 494 0 
L 494 4581 
L 2222 4581 
Q 2678 4581 2919 4538 
Q 3256 4481 3484 4323 
Q 3713 4166 3852 3881 
Q 3991 3597 3991 3256 
Q 3991 2672 3619 2267 
Q 3247 1863 2275 1863 
L 1100 1863 
L 1100 0 
L 494 0 
z
M 1100 2403 
L 2284 2403 
Q 2872 2403 3119 2622 
Q 3366 2841 3366 3238 
Q 3366 3525 3220 3729 
Q 3075 3934 2838 4000 
Q 2684 4041 2272 4041 
L 1100 4041 
L 1100 2403 
z
" transform="scale(0.015625)"/>
       <path id="ArialMT-6f" d="M 213 1659 
Q 213 2581 725 3025 
Q 1153 3394 1769 3394 
Q 2453 3394 2887 2945 
Q 3322 2497 3322 1706 
Q 3322 1066 3130 698 
Q 2938 331 2570 128 
Q 2203 -75 1769 -75 
Q 1072 -75 642 372 
Q 213 819 213 1659 
z
M 791 1659 
Q 791 1022 1069 705 
Q 1347 388 1769 388 
Q 2188 388 2466 706 
Q 2744 1025 2744 1678 
Q 2744 2294 2464 2611 
Q 2184 2928 1769 2928 
Q 1347 2928 1069 2612 
Q 791 2297 791 1659 
z
" transform="scale(0.015625)"/>
       <path id="ArialMT-73" d="M 197 991 
L 753 1078 
Q 800 744 1014 566 
Q 1228 388 1613 388 
Q 2000 388 2187 545 
Q 2375 703 2375 916 
Q 2375 1106 2209 1216 
Q 2094 1291 1634 1406 
Q 1016 1563 777 1677 
Q 538 1791 414 1992 
Q 291 2194 291 2438 
Q 291 2659 392 2848 
Q 494 3038 669 3163 
Q 800 3259 1026 3326 
Q 1253 3394 1513 3394 
Q 1903 3394 2198 3281 
Q 2494 3169 2634 2976 
Q 2775 2784 2828 2463 
L 2278 2388 
Q 2241 2644 2061 2787 
Q 1881 2931 1553 2931 
Q 1166 2931 1000 2803 
Q 834 2675 834 2503 
Q 834 2394 903 2306 
Q 972 2216 1119 2156 
Q 1203 2125 1616 2013 
Q 2213 1853 2448 1751 
Q 2684 1650 2818 1456 
Q 2953 1263 2953 975 
Q 2953 694 2789 445 
Q 2625 197 2315 61 
Q 2006 -75 1616 -75 
Q 969 -75 630 194 
Q 291 463 197 991 
z
" transform="scale(0.015625)"/>
       <path id="ArialMT-69" d="M 425 3934 
L 425 4581 
L 988 4581 
L 988 3934 
L 425 3934 
z
M 425 0 
L 425 3319 
L 988 3319 
L 988 0 
L 425 0 
z
" transform="scale(0.015625)"/>
       <path id="ArialMT-74" d="M 1650 503 
L 1731 6 
Q 1494 -44 1306 -44 
Q 1000 -44 831 53 
Q 663 150 594 308 
Q 525 466 525 972 
L 525 2881 
L 113 2881 
L 113 3319 
L 525 3319 
L 525 4141 
L 1084 4478 
L 1084 3319 
L 1650 3319 
L 1650 2881 
L 1084 2881 
L 1084 941 
Q 1084 700 1114 631 
Q 1144 563 1211 522 
Q 1278 481 1403 481 
Q 1497 481 1650 503 
z
" transform="scale(0.015625)"/>
       <path id="ArialMT-6e" d="M 422 0 
L 422 3319 
L 928 3319 
L 928 2847 
Q 1294 3394 1984 3394 
Q 2284 3394 2536 3286 
Q 2788 3178 2913 3003 
Q 3038 2828 3088 2588 
Q 3119 2431 3119 2041 
L 3119 0 
L 2556 0 
L 2556 2019 
Q 2556 2363 2490 2533 
Q 2425 2703 2258 2804 
Q 2091 2906 1866 2906 
Q 1506 2906 1245 2678 
Q 984 2450 984 1813 
L 984 0 
L 422 0 
z
" transform="scale(0.015625)"/>
      </defs>
      <use xlink:href="#ArialMT-50"/>
      <use xlink:href="#ArialMT-6f" x="66.699219"/>
      <use xlink:href="#ArialMT-73" x="122.314453"/>
      <use xlink:href="#ArialMT-69" x="172.314453"/>
      <use xlink:href="#ArialMT-74" x="194.53125"/>
      <use xlink:href="#ArialMT-69" x="222.314453"/>
      <use xlink:href="#ArialMT-6f" x="244.53125"/>
      <use xlink:href="#ArialMT-6e" x="300.146484"/>
     </g>
    </g>
   </g>
   <g id="matplotlib.axis_2">
    <g id="ytick_1">
     <g id="line2d_27"/>
     <g id="text_28">
      <!-- 19.8 -->
      <g style="fill: #262626" transform="translate(21.393906 303.935089) scale(0.1 -0.1)">
       <defs>
        <path id="ArialMT-2e" d="M 581 0 
L 581 641 
L 1222 641 
L 1222 0 
L 581 0 
z
" transform="scale(0.015625)"/>
       </defs>
       <use xlink:href="#ArialMT-31"/>
       <use xlink:href="#ArialMT-39" x="55.615234"/>
       <use xlink:href="#ArialMT-2e" x="111.230469"/>
       <use xlink:href="#ArialMT-38" x="139.013672"/>
      </g>
     </g>
    </g>
    <g id="ytick_2">
     <g id="line2d_28"/>
     <g id="text_29">
      <!-- 20.0 -->
      <g style="fill: #262626" transform="translate(21.393906 255.297956) scale(0.1 -0.1)">
       <use xlink:href="#ArialMT-32"/>
       <use xlink:href="#ArialMT-30" x="55.615234"/>
       <use xlink:href="#ArialMT-2e" x="111.230469"/>
       <use xlink:href="#ArialMT-30" x="139.013672"/>
      </g>
     </g>
    </g>
    <g id="ytick_3">
     <g id="line2d_29"/>
     <g id="text_30">
      <!-- 20.2 -->
      <g style="fill: #262626" transform="translate(21.393906 206.660822) scale(0.1 -0.1)">
       <use xlink:href="#ArialMT-32"/>
       <use xlink:href="#ArialMT-30" x="55.615234"/>
       <use xlink:href="#ArialMT-2e" x="111.230469"/>
       <use xlink:href="#ArialMT-32" x="139.013672"/>
      </g>
     </g>
    </g>
    <g id="ytick_4">
     <g id="line2d_30"/>
     <g id="text_31">
      <!-- 20.4 -->
      <g style="fill: #262626" transform="translate(21.393906 158.023688) scale(0.1 -0.1)">
       <use xlink:href="#ArialMT-32"/>
       <use xlink:href="#ArialMT-30" x="55.615234"/>
       <use xlink:href="#ArialMT-2e" x="111.230469"/>
       <use xlink:href="#ArialMT-34" x="139.013672"/>
      </g>
     </g>
    </g>
    <g id="ytick_5">
     <g id="line2d_31"/>
     <g id="text_32">
      <!-- 20.6 -->
      <g style="fill: #262626" transform="translate(21.393906 109.386555) scale(0.1 -0.1)">
       <use xlink:href="#ArialMT-32"/>
       <use xlink:href="#ArialMT-30" x="55.615234"/>
       <use xlink:href="#ArialMT-2e" x="111.230469"/>
       <use xlink:href="#ArialMT-36" x="139.013672"/>
      </g>
     </g>
    </g>
    <g id="ytick_6">
     <g id="line2d_32"/>
     <g id="text_33">
      <!-- 20.8 -->
      <g style="fill: #262626" transform="translate(21.393906 60.749421) scale(0.1 -0.1)">
       <use xlink:href="#ArialMT-32"/>
       <use xlink:href="#ArialMT-30" x="55.615234"/>
       <use xlink:href="#ArialMT-2e" x="111.230469"/>
       <use xlink:href="#ArialMT-38" x="139.013672"/>
      </g>
     </g>
    </g>
    <g id="text_34">
     <!-- SantaLucia_dS -->
     <g style="fill: #262626" transform="translate(15.207656 211.701094) rotate(-90) scale(0.11 -0.11)">
      <defs>
       <path id="ArialMT-53" d="M 288 1472 
L 859 1522 
Q 900 1178 1048 958 
Q 1197 738 1509 602 
Q 1822 466 2213 466 
Q 2559 466 2825 569 
Q 3091 672 3220 851 
Q 3350 1031 3350 1244 
Q 3350 1459 3225 1620 
Q 3100 1781 2813 1891 
Q 2628 1963 1997 2114 
Q 1366 2266 1113 2400 
Q 784 2572 623 2826 
Q 463 3081 463 3397 
Q 463 3744 659 4045 
Q 856 4347 1234 4503 
Q 1613 4659 2075 4659 
Q 2584 4659 2973 4495 
Q 3363 4331 3572 4012 
Q 3781 3694 3797 3291 
L 3216 3247 
Q 3169 3681 2898 3903 
Q 2628 4125 2100 4125 
Q 1550 4125 1298 3923 
Q 1047 3722 1047 3438 
Q 1047 3191 1225 3031 
Q 1400 2872 2139 2705 
Q 2878 2538 3153 2413 
Q 3553 2228 3743 1945 
Q 3934 1663 3934 1294 
Q 3934 928 3725 604 
Q 3516 281 3123 101 
Q 2731 -78 2241 -78 
Q 1619 -78 1198 103 
Q 778 284 539 648 
Q 300 1013 288 1472 
z
" transform="scale(0.015625)"/>
       <path id="ArialMT-61" d="M 2588 409 
Q 2275 144 1986 34 
Q 1697 -75 1366 -75 
Q 819 -75 525 192 
Q 231 459 231 875 
Q 231 1119 342 1320 
Q 453 1522 633 1644 
Q 813 1766 1038 1828 
Q 1203 1872 1538 1913 
Q 2219 1994 2541 2106 
Q 2544 2222 2544 2253 
Q 2544 2597 2384 2738 
Q 2169 2928 1744 2928 
Q 1347 2928 1158 2789 
Q 969 2650 878 2297 
L 328 2372 
Q 403 2725 575 2942 
Q 747 3159 1072 3276 
Q 1397 3394 1825 3394 
Q 2250 3394 2515 3294 
Q 2781 3194 2906 3042 
Q 3031 2891 3081 2659 
Q 3109 2516 3109 2141 
L 3109 1391 
Q 3109 606 3145 398 
Q 3181 191 3288 0 
L 2700 0 
Q 2613 175 2588 409 
z
M 2541 1666 
Q 2234 1541 1622 1453 
Q 1275 1403 1131 1340 
Q 988 1278 909 1158 
Q 831 1038 831 891 
Q 831 666 1001 516 
Q 1172 366 1500 366 
Q 1825 366 2078 508 
Q 2331 650 2450 897 
Q 2541 1088 2541 1459 
L 2541 1666 
z
" transform="scale(0.015625)"/>
       <path id="ArialMT-4c" d="M 469 0 
L 469 4581 
L 1075 4581 
L 1075 541 
L 3331 541 
L 3331 0 
L 469 0 
z
" transform="scale(0.015625)"/>
       <path id="ArialMT-75" d="M 2597 0 
L 2597 488 
Q 2209 -75 1544 -75 
Q 1250 -75 995 37 
Q 741 150 617 320 
Q 494 491 444 738 
Q 409 903 409 1263 
L 409 3319 
L 972 3319 
L 972 1478 
Q 972 1038 1006 884 
Q 1059 663 1231 536 
Q 1403 409 1656 409 
Q 1909 409 2131 539 
Q 2353 669 2445 892 
Q 2538 1116 2538 1541 
L 2538 3319 
L 3100 3319 
L 3100 0 
L 2597 0 
z
" transform="scale(0.015625)"/>
       <path id="ArialMT-63" d="M 2588 1216 
L 3141 1144 
Q 3050 572 2676 248 
Q 2303 -75 1759 -75 
Q 1078 -75 664 370 
Q 250 816 250 1647 
Q 250 2184 428 2587 
Q 606 2991 970 3192 
Q 1334 3394 1763 3394 
Q 2303 3394 2647 3120 
Q 2991 2847 3088 2344 
L 2541 2259 
Q 2463 2594 2264 2762 
Q 2066 2931 1784 2931 
Q 1359 2931 1093 2626 
Q 828 2322 828 1663 
Q 828 994 1084 691 
Q 1341 388 1753 388 
Q 2084 388 2306 591 
Q 2528 794 2588 1216 
z
" transform="scale(0.015625)"/>
       <path id="ArialMT-5f" d="M -97 -1272 
L -97 -866 
L 3631 -866 
L 3631 -1272 
L -97 -1272 
z
" transform="scale(0.015625)"/>
       <path id="ArialMT-64" d="M 2575 0 
L 2575 419 
Q 2259 -75 1647 -75 
Q 1250 -75 917 144 
Q 584 363 401 755 
Q 219 1147 219 1656 
Q 219 2153 384 2558 
Q 550 2963 881 3178 
Q 1213 3394 1622 3394 
Q 1922 3394 2156 3267 
Q 2391 3141 2538 2938 
L 2538 4581 
L 3097 4581 
L 3097 0 
L 2575 0 
z
M 797 1656 
Q 797 1019 1065 703 
Q 1334 388 1700 388 
Q 2069 388 2326 689 
Q 2584 991 2584 1609 
Q 2584 2291 2321 2609 
Q 2059 2928 1675 2928 
Q 1300 2928 1048 2622 
Q 797 2316 797 1656 
z
" transform="scale(0.015625)"/>
      </defs>
      <use xlink:href="#ArialMT-53"/>
      <use xlink:href="#ArialMT-61" x="66.699219"/>
      <use xlink:href="#ArialMT-6e" x="122.314453"/>
      <use xlink:href="#ArialMT-74" x="177.929688"/>
      <use xlink:href="#ArialMT-61" x="205.712891"/>
      <use xlink:href="#ArialMT-4c" x="261.328125"/>
      <use xlink:href="#ArialMT-75" x="316.943359"/>
      <use xlink:href="#ArialMT-63" x="372.558594"/>
      <use xlink:href="#ArialMT-69" x="422.558594"/>
      <use xlink:href="#ArialMT-61" x="444.775391"/>
      <use xlink:href="#ArialMT-5f" x="500.390625"/>
      <use xlink:href="#ArialMT-64" x="556.005859"/>
      <use xlink:href="#ArialMT-53" x="611.621094"/>
     </g>
    </g>
   </g>
   <g id="line2d_33">
    <path d="M 68.145753 215.836357 
L 69.775545 223.550254 
L 71.405337 221.28313 
L 73.035129 228.764043 
L 74.66492 230.601041 
L 76.294712 235.91788 
L 77.924504 236.591446 
L 81.184088 214.749093 
L 82.81388 226.823994 
L 84.443672 223.834018 
L 86.073464 212.304243 
L 87.703256 223.5398 
L 89.333047 224.742063 
L 90.962839 224.751024 
L 92.592631 220.086841 
L 94.222423 212.791122 
L 95.852215 226.66419 
L 97.482007 221.801373 
L 99.111799 220.969496 
L 100.741591 216.214211 
L 102.371383 229.47644 
L 104.001175 228.793913 
L 105.630966 220.823134 
L 107.260758 224.22382 
L 108.89055 223.989342 
L 110.520342 211.945804 
L 112.150134 220.17197 
L 113.779926 218.439517 
L 115.409718 216.144016 
L 117.03951 225.233422 
L 118.669302 227.847037 
L 120.299093 218.43653 
L 121.928885 226.671657 
L 123.558677 218.388738 
L 125.188469 204.998069 
L 126.818261 225.403681 
L 128.448053 231.564345 
L 130.077845 215.494346 
L 131.707637 220.189892 
L 133.337429 225.941339 
L 134.967221 208.704922 
L 136.597012 222.773637 
L 138.226804 232.311092 
L 139.856596 219.746325 
L 141.486388 211.424575 
L 143.11618 221.008327 
L 144.745972 233.010047 
L 146.375764 229.452544 
L 148.005556 226.290816 
L 149.635348 211.953272 
L 151.265139 210.985487 
L 152.894931 216.598039 
L 154.524723 223.744409 
L 156.154515 227.25412 
L 157.784307 216.845959 
L 159.414099 225.499264 
L 161.043891 231.138699 
L 162.673683 222.745261 
L 164.303475 225.05271 
L 165.933267 225.294656 
L 167.563058 214.623639 
L 169.19285 224.800309 
L 170.822642 232.116937 
L 172.452434 216.607 
L 174.082226 214.574354 
L 175.712018 225.720302 
L 177.34181 219.743338 
L 178.971602 232.448493 
L 180.601394 218.835293 
L 182.231185 201.997639 
L 183.860977 227.331782 
L 185.490769 214.463835 
L 187.120561 218.24835 
L 188.750353 211.44399 
L 190.380145 214.62812 
L 192.009937 212.915082 
L 193.639729 205.43865 
L 195.269521 206.603575 
L 196.899313 215.473438 
L 198.529104 214.813313 
L 200.158896 218.62471 
L 201.788688 213.064431 
L 203.41848 214.283123 
L 205.048272 222.61234 
L 206.678064 203.359706 
L 208.307856 212.526773 
L 209.937648 218.315557 
L 211.56744 198.231046 
L 213.197231 215.542138 
L 214.827023 219.856843 
L 216.456815 225.421603 
L 218.086607 223.229153 
L 219.716399 213.572219 
L 221.346191 217.57329 
L 222.975983 210.689775 
L 224.605775 213.152547 
L 226.235567 222.742274 
L 227.865359 204.342425 
L 229.49515 205.198197 
L 231.124942 217.086411 
L 232.754734 210.94815 
L 234.384526 226.51036 
L 236.014318 203.329836 
L 237.64411 210.686788 
L 239.273902 194.570492 
L 240.903694 202.863866 
L 242.533486 202.736919 
L 244.163277 204.682942 
L 245.793069 196.765929 
L 247.422861 214.787924 
L 249.052653 204.130349 
L 250.682445 219.011525 
L 252.312237 213.920204 
L 253.942029 197.563455 
L 255.571821 195.989312 
L 257.201613 207.305518 
L 258.831405 182.290982 
L 260.461196 192.805182 
L 262.090988 209.710043 
L 263.72078 194.733283 
L 265.350572 215.225518 
L 266.980364 210.270104 
L 268.610156 192.16746 
L 271.86974 204.833785 
L 273.499532 199.236168 
L 275.129323 199.404933 
L 276.759115 203.770417 
L 278.388907 183.779996 
L 280.018699 188.632359 
L 281.648491 200.363756 
L 283.278283 197.001901 
L 284.908075 182.026634 
L 286.537867 198.263903 
L 288.167659 193.525046 
L 289.797451 196.613592 
L 291.427242 180.818397 
L 293.057034 178.52439 
L 294.686826 177.555112 
L 296.316618 193.970107 
L 297.94641 200.571352 
L 299.576202 206.309357 
L 301.205994 192.148044 
L 302.835786 193.030699 
L 304.465578 198.968833 
L 306.095369 193.566864 
L 307.725161 197.593324 
L 309.354953 214.956689 
L 310.984745 199.251103 
L 312.614537 210.585231 
L 314.244329 215.809474 
L 315.874121 224.74505 
L 317.503913 216.711544 
L 319.133705 196.114765 
L 320.763497 182.341761 
L 322.393288 175.068444 
L 324.02308 189.319366 
L 325.652872 195.801131 
L 327.282664 193.197971 
L 328.912456 193.613162 
L 330.542248 197.82631 
L 332.17204 178.923153 
L 333.801832 193.018752 
L 335.431624 169.627645 
L 337.061415 165.051578 
L 338.691207 198.498382 
L 340.320999 200.713234 
L 341.950791 194.734776 
L 343.580583 193.895433 
L 345.210375 199.19435 
L 346.840167 195.523341 
L 348.469959 182.924224 
L 350.099751 186.220366 
L 351.729543 186.033679 
L 353.359334 217.062515 
L 356.618918 175.718114 
L 358.24871 168.894339 
L 359.878502 142.967279 
L 361.508294 138.041735 
L 363.138086 139.648735 
L 364.767878 130.648938 
L 368.027461 163.26984 
L 369.657253 167.832465 
L 371.287045 123.296466 
L 372.916837 134.59475 
L 374.546629 206.733509 
L 376.176421 177.416217 
L 377.806213 186.923802 
L 379.436005 179.523538 
L 381.065797 158.832668 
L 382.695589 179.181527 
L 384.32538 176.959208 
L 385.955172 141.143722 
L 387.584964 244.048463 
L 389.214756 189.065472 
L 390.844548 35.795625 
L 392.47434 246.025849 
L 394.104132 312.995625 
L 395.733924 142.577477 
L 397.363716 175.906294 
L 398.993507 146.396342 
L 400.623299 125.815991 
L 402.253091 139.028934 
L 403.882883 129.161418 
L 405.512675 120.419996 
L 407.142467 144.372657 
L 408.772259 132.348535 
L 410.402051 139.002052 
L 412.031843 170.245951 
L 413.661635 100.934377 
L 415.291426 127.900909 
L 416.921218 133.716575 
L 418.55101 143.392925 
L 420.180802 156.447558 
L 421.810594 155.169127 
L 423.440386 149.826898 
L 425.070178 172.362233 
L 426.69997 168.541874 
L 428.329762 179.505616 
L 429.959553 183.172144 
L 431.589345 166.98416 
L 434.848929 120.624605 
L 436.478721 146.123032 
L 438.108513 152.636161 
L 439.738305 168.204345 
L 441.368097 149.208591 
L 442.997889 124.464379 
L 444.627681 121.251872 
L 446.257472 146.036409 
L 447.887264 135.649157 
L 449.517056 153.626347 
L 451.146848 167.538246 
L 452.77664 171.158476 
L 454.406432 173.645144 
L 456.036224 183.912917 
L 457.666016 163.233996 
L 459.295808 164.510933 
L 460.9256 164.239117 
L 462.555391 181.293328 
L 464.185183 156.166781 
L 465.814975 184.175772 
L 467.444767 198.135463 
L 469.074559 189.877933 
L 470.704351 197.499234 
L 472.334143 192.63791 
L 473.963935 178.752894 
L 473.963935 178.752894 
" clip-path="url(#pb83fdaaa96)" style="fill: none; stroke: #0272a2; stroke-width: 1.75; stroke-linecap: round"/>
   </g>
   <g id="line2d_34">
    <path d="M 68.145753 240.5532 
L 69.775545 253.505076 
L 71.405337 239.933039 
L 73.035129 257.226046 
L 74.66492 242.861417 
L 76.294712 250.107413 
L 77.924504 241.878759 
L 79.554296 237.010539 
L 81.184088 243.594246 
L 82.81388 247.02326 
L 84.443672 240.442492 
L 86.073464 249.414752 
L 87.703256 237.279962 
L 89.333047 247.606192 
L 90.962839 247.365181 
L 92.592631 240.574754 
L 94.222423 254.214392 
L 95.852215 250.161297 
L 97.482007 245.568378 
L 99.111799 244.826731 
L 100.741591 239.662636 
L 102.371383 243.16317 
L 104.001175 259.740003 
L 105.630966 233.329738 
L 107.260758 250.190689 
L 108.89055 239.130649 
L 110.520342 246.289451 
L 112.150134 237.04189 
L 113.779926 244.500485 
L 115.409718 253.036771 
L 117.03951 240.950966 
L 118.669302 251.940466 
L 120.299093 240.628639 
L 121.928885 246.74404 
L 123.558677 248.647633 
L 125.188469 242.827126 
L 126.818261 243.513909 
L 128.448053 249.864443 
L 130.077845 255.731976 
L 131.707637 244.838488 
L 133.337429 244.348629 
L 134.967221 238.386064 
L 136.597012 245.829963 
L 138.226804 238.3988 
L 139.856596 250.01336 
L 141.486388 242.773242 
L 143.11618 248.904319 
L 144.745972 240.652152 
L 146.375764 244.27417 
L 148.005556 242.906484 
L 149.635348 246.589245 
L 151.265139 245.452771 
L 152.894931 244.823792 
L 154.524723 244.321197 
L 156.154515 247.845243 
L 157.784307 242.702702 
L 159.414099 245.569358 
L 161.043891 240.019254 
L 162.673683 248.696619 
L 164.303475 248.232232 
L 165.933267 250.865715 
L 167.563058 246.214992 
L 169.19285 247.184913 
L 170.822642 245.127505 
L 172.452434 241.740619 
L 174.082226 251.479019 
L 175.712018 240.720732 
L 177.34181 248.668207 
L 178.971602 246.231647 
L 180.601394 239.557807 
L 182.231185 238.36451 
L 183.860977 254.04588 
L 185.490769 253.935172 
L 187.120561 249.398097 
L 188.750353 246.233607 
L 190.380145 243.768636 
L 192.009937 248.759321 
L 193.639729 245.642837 
L 195.269521 248.284157 
L 196.899313 247.421025 
L 198.529104 246.234587 
L 200.158896 239.006225 
L 201.788688 248.052944 
L 203.41848 247.459234 
L 205.048272 238.719168 
L 206.678064 228.76425 
L 208.307856 247.865818 
L 209.937648 243.832317 
L 211.56744 240.524789 
L 213.197231 239.909525 
L 214.827023 241.25174 
L 216.456815 250.707001 
L 218.086607 253.048527 
L 219.716399 244.139949 
L 221.346191 240.995053 
L 222.975983 249.163944 
L 224.605775 245.476285 
L 226.235567 245.290138 
L 227.865359 252.198132 
L 229.49515 249.135532 
L 231.124942 245.774119 
L 232.754734 246.688196 
L 234.384526 251.721009 
L 236.014318 247.818791 
L 237.64411 243.206277 
L 239.273902 249.690053 
L 240.903694 243.818601 
L 242.533486 254.344694 
L 244.163277 237.686545 
L 245.793069 244.815955 
L 247.422861 238.633932 
L 249.052653 240.452289 
L 250.682445 239.292303 
L 252.312237 244.83261 
L 253.942029 249.519582 
L 255.571821 238.963118 
L 257.201613 254.356451 
L 258.831405 246.046481 
L 260.461196 248.798509 
L 262.090988 239.526456 
L 263.72078 251.918912 
L 265.350572 257.221147 
L 266.980364 252.077626 
L 268.610156 240.164252 
L 270.239948 248.236151 
L 271.86974 246.843971 
L 273.499532 250.124068 
L 275.129323 245.990637 
L 276.759115 237.97948 
L 278.388907 241.995346 
L 280.018699 247.500383 
L 281.648491 242.547907 
L 283.278283 243.032867 
L 284.908075 243.819581 
L 286.537867 235.597785 
L 288.167659 248.582971 
L 289.797451 239.359904 
L 291.427242 241.937542 
L 293.057034 246.805762 
L 294.686826 243.535463 
L 296.316618 250.031975 
L 297.94641 246.497151 
L 299.576202 253.645176 
L 301.205994 245.755504 
L 302.835786 246.95174 
L 304.465578 251.148853 
L 306.095369 243.986133 
L 307.725161 249.105161 
L 309.354953 246.941943 
L 310.984745 248.062741 
L 312.614537 239.563685 
L 314.244329 243.317965 
L 315.874121 250.936255 
L 317.503913 249.085567 
L 319.133705 239.587198 
L 320.763497 244.48285 
L 322.393288 242.808512 
L 324.02308 247.773724 
L 325.652872 248.392906 
L 327.282664 243.142596 
L 328.912456 239.220784 
L 330.542248 244.562208 
L 332.17204 245.49098 
L 333.801832 247.502342 
L 335.431624 244.347649 
L 337.061415 243.829378 
L 338.691207 245.028553 
L 340.320999 245.450812 
L 341.950791 243.152393 
L 343.580583 242.112912 
L 345.210375 258.089178 
L 346.840167 242.169736 
L 348.469959 249.426509 
L 350.099751 245.52625 
L 351.729543 244.029241 
L 353.359334 247.953992 
L 354.989126 252.730119 
L 356.618918 243.204318 
L 358.24871 248.599627 
L 359.878502 238.263599 
L 361.508294 246.347254 
L 363.138086 236.824393 
L 364.767878 238.082351 
L 366.39767 247.362242 
L 368.027461 249.680256 
L 369.657253 242.53713 
L 371.287045 251.164529 
L 372.916837 248.608444 
L 374.546629 246.481476 
L 376.176421 237.173172 
L 377.806213 254.027266 
L 379.436005 247.522916 
L 381.065797 238.478157 
L 382.695589 240.012396 
L 384.32538 244.699368 
L 385.955172 240.853974 
L 387.584964 247.546429 
L 389.214756 242.559663 
L 390.844548 245.038351 
L 392.47434 249.936942 
L 394.104132 245.448853 
L 395.733924 245.697701 
L 397.363716 250.866695 
L 398.993507 245.914219 
L 400.623299 241.372245 
L 402.253091 243.318945 
L 403.882883 248.980737 
L 405.512675 241.619134 
L 407.142467 251.721989 
L 408.772259 249.641067 
L 410.402051 241.637748 
L 412.031843 254.996207 
L 413.661635 248.499695 
L 415.291426 249.194316 
L 416.921218 237.192767 
L 418.55101 252.643904 
L 420.180802 247.808014 
L 421.810594 250.128967 
L 423.440386 249.419651 
L 425.070178 248.194023 
L 426.69997 238.198937 
L 428.329762 246.064116 
L 429.959553 253.231734 
L 431.589345 246.034724 
L 433.219137 239.947734 
L 434.848929 243.16219 
L 436.478721 243.588368 
L 438.108513 251.605402 
L 439.738305 241.835652 
L 441.368097 246.617656 
L 442.997889 245.364597 
L 444.627681 244.665078 
L 446.257472 245.337165 
L 447.887264 247.05657 
L 449.517056 242.307876 
L 451.146848 245.280341 
L 452.77664 247.394573 
L 454.406432 250.457172 
L 456.036224 249.07381 
L 457.666016 243.711812 
L 460.9256 247.286804 
L 462.555391 253.763722 
L 464.185183 240.62276 
L 465.814975 246.250262 
L 467.444767 251.012673 
L 469.074559 242.909423 
L 470.704351 239.645002 
L 472.334143 248.989554 
L 473.963935 255.528194 
L 473.963935 255.528194 
" clip-path="url(#pb83fdaaa96)" style="fill: none; stroke-dasharray: 1.75,2.8875; stroke-dashoffset: 0; stroke: #9fc377; stroke-width: 1.75"/>
   </g>
   <g id="patch_3">
    <path d="M 47.854844 326.855625 
L 47.854844 21.935625 
" style="fill: none; stroke: #cccccc; stroke-width: 1.25; stroke-linejoin: miter; stroke-linecap: square"/>
   </g>
   <g id="patch_4">
    <path d="M 494.254844 326.855625 
L 494.254844 21.935625 
" style="fill: none; stroke: #cccccc; stroke-width: 1.25; stroke-linejoin: miter; stroke-linecap: square"/>
   </g>
   <g id="patch_5">
    <path d="M 47.854844 326.855625 
L 494.254844 326.855625 
" style="fill: none; stroke: #cccccc; stroke-width: 1.25; stroke-linejoin: miter; stroke-linecap: square"/>
   </g>
   <g id="patch_6">
    <path d="M 47.854844 21.935625 
L 494.254844 21.935625 
" style="fill: none; stroke: #cccccc; stroke-width: 1.25; stroke-linejoin: miter; stroke-linecap: square"/>
   </g>
   <g id="text_35">
    <!-- "SantaLucia_dS" for dataset Mouse_non_tata -->
    <g style="fill: #262626" transform="translate(149.718906 15.935625) scale(0.12 -0.12)">
     <defs>
      <path id="ArialMT-22" d="M 450 2959 
L 294 3831 
L 294 4581 
L 934 4581 
L 934 3831 
L 794 2959 
L 450 2959 
z
M 1484 2959 
L 1331 3831 
L 1331 4581 
L 1972 4581 
L 1972 3831 
L 1822 2959 
L 1484 2959 
z
" transform="scale(0.015625)"/>
      <path id="ArialMT-20" transform="scale(0.015625)"/>
      <path id="ArialMT-66" d="M 556 0 
L 556 2881 
L 59 2881 
L 59 3319 
L 556 3319 
L 556 3672 
Q 556 4006 616 4169 
Q 697 4388 901 4523 
Q 1106 4659 1475 4659 
Q 1713 4659 2000 4603 
L 1916 4113 
Q 1741 4144 1584 4144 
Q 1328 4144 1222 4034 
Q 1116 3925 1116 3625 
L 1116 3319 
L 1763 3319 
L 1763 2881 
L 1116 2881 
L 1116 0 
L 556 0 
z
" transform="scale(0.015625)"/>
      <path id="ArialMT-72" d="M 416 0 
L 416 3319 
L 922 3319 
L 922 2816 
Q 1116 3169 1280 3281 
Q 1444 3394 1641 3394 
Q 1925 3394 2219 3213 
L 2025 2691 
Q 1819 2813 1613 2813 
Q 1428 2813 1281 2702 
Q 1134 2591 1072 2394 
Q 978 2094 978 1738 
L 978 0 
L 416 0 
z
" transform="scale(0.015625)"/>
      <path id="ArialMT-65" d="M 2694 1069 
L 3275 997 
Q 3138 488 2766 206 
Q 2394 -75 1816 -75 
Q 1088 -75 661 373 
Q 234 822 234 1631 
Q 234 2469 665 2931 
Q 1097 3394 1784 3394 
Q 2450 3394 2872 2941 
Q 3294 2488 3294 1666 
Q 3294 1616 3291 1516 
L 816 1516 
Q 847 969 1125 678 
Q 1403 388 1819 388 
Q 2128 388 2347 550 
Q 2566 713 2694 1069 
z
M 847 1978 
L 2700 1978 
Q 2663 2397 2488 2606 
Q 2219 2931 1791 2931 
Q 1403 2931 1139 2672 
Q 875 2413 847 1978 
z
" transform="scale(0.015625)"/>
      <path id="ArialMT-4d" d="M 475 0 
L 475 4581 
L 1388 4581 
L 2472 1338 
Q 2622 884 2691 659 
Q 2769 909 2934 1394 
L 4031 4581 
L 4847 4581 
L 4847 0 
L 4263 0 
L 4263 3834 
L 2931 0 
L 2384 0 
L 1059 3900 
L 1059 0 
L 475 0 
z
" transform="scale(0.015625)"/>
     </defs>
     <use xlink:href="#ArialMT-22"/>
     <use xlink:href="#ArialMT-53" x="35.498047"/>
     <use xlink:href="#ArialMT-61" x="102.197266"/>
     <use xlink:href="#ArialMT-6e" x="157.8125"/>
     <use xlink:href="#ArialMT-74" x="213.427734"/>
     <use xlink:href="#ArialMT-61" x="241.210938"/>
     <use xlink:href="#ArialMT-4c" x="296.826172"/>
     <use xlink:href="#ArialMT-75" x="352.441406"/>
     <use xlink:href="#ArialMT-63" x="408.056641"/>
     <use xlink:href="#ArialMT-69" x="458.056641"/>
     <use xlink:href="#ArialMT-61" x="480.273438"/>
     <use xlink:href="#ArialMT-5f" x="535.888672"/>
     <use xlink:href="#ArialMT-64" x="591.503906"/>
     <use xlink:href="#ArialMT-53" x="647.119141"/>
     <use xlink:href="#ArialMT-22" x="713.818359"/>
     <use xlink:href="#ArialMT-20" x="749.316406"/>
     <use xlink:href="#ArialMT-66" x="777.099609"/>
     <use xlink:href="#ArialMT-6f" x="804.882812"/>
     <use xlink:href="#ArialMT-72" x="860.498047"/>
     <use xlink:href="#ArialMT-20" x="893.798828"/>
     <use xlink:href="#ArialMT-64" x="921.582031"/>
     <use xlink:href="#ArialMT-61" x="977.197266"/>
     <use xlink:href="#ArialMT-74" x="1032.8125"/>
     <use xlink:href="#ArialMT-61" x="1060.595703"/>
     <use xlink:href="#ArialMT-73" x="1116.210938"/>
     <use xlink:href="#ArialMT-65" x="1166.210938"/>
     <use xlink:href="#ArialMT-74" x="1221.826172"/>
     <use xlink:href="#ArialMT-20" x="1249.609375"/>
     <use xlink:href="#ArialMT-4d" x="1277.392578"/>
     <use xlink:href="#ArialMT-6f" x="1360.693359"/>
     <use xlink:href="#ArialMT-75" x="1416.308594"/>
     <use xlink:href="#ArialMT-73" x="1471.923828"/>
     <use xlink:href="#ArialMT-65" x="1521.923828"/>
     <use xlink:href="#ArialMT-5f" x="1577.539062"/>
     <use xlink:href="#ArialMT-6e" x="1633.154297"/>
     <use xlink:href="#ArialMT-6f" x="1688.769531"/>
     <use xlink:href="#ArialMT-6e" x="1744.384766"/>
     <use xlink:href="#ArialMT-5f" x="1800"/>
     <use xlink:href="#ArialMT-74" x="1855.615234"/>
     <use xlink:href="#ArialMT-61" x="1883.398438"/>
     <use xlink:href="#ArialMT-74" x="1939.013672"/>
     <use xlink:href="#ArialMT-61" x="1966.796875"/>
    </g>
   </g>
   <g id="legend_1">
    <g id="line2d_35">
     <path d="M 56.854844 34.593437 
L 66.854844 34.593437 
L 76.854844 34.593437 
" style="fill: none; stroke: #0272a2; stroke-width: 1.75; stroke-linecap: round"/>
    </g>
    <g id="text_36">
     <!-- Promoter -->
     <g style="fill: #262626" transform="translate(84.854844 38.093437) scale(0.1 -0.1)">
      <defs>
       <path id="ArialMT-6d" d="M 422 0 
L 422 3319 
L 925 3319 
L 925 2853 
Q 1081 3097 1340 3245 
Q 1600 3394 1931 3394 
Q 2300 3394 2536 3241 
Q 2772 3088 2869 2813 
Q 3263 3394 3894 3394 
Q 4388 3394 4653 3120 
Q 4919 2847 4919 2278 
L 4919 0 
L 4359 0 
L 4359 2091 
Q 4359 2428 4304 2576 
Q 4250 2725 4106 2815 
Q 3963 2906 3769 2906 
Q 3419 2906 3187 2673 
Q 2956 2441 2956 1928 
L 2956 0 
L 2394 0 
L 2394 2156 
Q 2394 2531 2256 2718 
Q 2119 2906 1806 2906 
Q 1569 2906 1367 2781 
Q 1166 2656 1075 2415 
Q 984 2175 984 1722 
L 984 0 
L 422 0 
z
" transform="scale(0.015625)"/>
      </defs>
      <use xlink:href="#ArialMT-50"/>
      <use xlink:href="#ArialMT-72" x="66.699219"/>
      <use xlink:href="#ArialMT-6f" x="100"/>
      <use xlink:href="#ArialMT-6d" x="155.615234"/>
      <use xlink:href="#ArialMT-6f" x="238.916016"/>
      <use xlink:href="#ArialMT-74" x="294.53125"/>
      <use xlink:href="#ArialMT-65" x="322.314453"/>
      <use xlink:href="#ArialMT-72" x="377.929688"/>
     </g>
    </g>
    <g id="line2d_36">
     <path d="M 56.854844 48.73875 
L 66.854844 48.73875 
L 76.854844 48.73875 
" style="fill: none; stroke-dasharray: 1.75,2.8875; stroke-dashoffset: 0; stroke: #9fc377; stroke-width: 1.75"/>
    </g>
    <g id="text_37">
     <!-- Non-promoter -->
     <g style="fill: #262626" transform="translate(84.854844 52.23875) scale(0.1 -0.1)">
      <defs>
       <path id="ArialMT-4e" d="M 488 0 
L 488 4581 
L 1109 4581 
L 3516 984 
L 3516 4581 
L 4097 4581 
L 4097 0 
L 3475 0 
L 1069 3600 
L 1069 0 
L 488 0 
z
" transform="scale(0.015625)"/>
       <path id="ArialMT-70" d="M 422 -1272 
L 422 3319 
L 934 3319 
L 934 2888 
Q 1116 3141 1344 3267 
Q 1572 3394 1897 3394 
Q 2322 3394 2647 3175 
Q 2972 2956 3137 2557 
Q 3303 2159 3303 1684 
Q 3303 1175 3120 767 
Q 2938 359 2589 142 
Q 2241 -75 1856 -75 
Q 1575 -75 1351 44 
Q 1128 163 984 344 
L 984 -1272 
L 422 -1272 
z
M 931 1641 
Q 931 1000 1190 694 
Q 1450 388 1819 388 
Q 2194 388 2461 705 
Q 2728 1022 2728 1688 
Q 2728 2322 2467 2637 
Q 2206 2953 1844 2953 
Q 1484 2953 1207 2617 
Q 931 2281 931 1641 
z
" transform="scale(0.015625)"/>
      </defs>
      <use xlink:href="#ArialMT-4e"/>
      <use xlink:href="#ArialMT-6f" x="72.216797"/>
      <use xlink:href="#ArialMT-6e" x="127.832031"/>
      <use xlink:href="#ArialMT-2d" x="183.447266"/>
      <use xlink:href="#ArialMT-70" x="216.748047"/>
      <use xlink:href="#ArialMT-72" x="272.363281"/>
      <use xlink:href="#ArialMT-6f" x="305.664062"/>
      <use xlink:href="#ArialMT-6d" x="361.279297"/>
      <use xlink:href="#ArialMT-6f" x="444.580078"/>
      <use xlink:href="#ArialMT-74" x="500.195312"/>
      <use xlink:href="#ArialMT-65" x="527.978516"/>
      <use xlink:href="#ArialMT-72" x="583.59375"/>
     </g>
    </g>
   </g>
  </g>
 </g>
 <defs>
  <clipPath id="pb83fdaaa96">
   <rect x="47.854844" y="21.935625" width="446.4" height="304.92"/>
  </clipPath>
 </defs>
</svg>
