<?xml version="1.0" encoding="utf-8" standalone="no"?>
<!DOCTYPE svg PUBLIC "-//W3C//DTD SVG 1.1//EN"
  "http://www.w3.org/Graphics/SVG/1.1/DTD/svg11.dtd">
<svg xmlns:xlink="http://www.w3.org/1999/xlink" width="507.424375pt" height="375.733156pt" viewBox="0 0 507.424375 375.733156" xmlns="http://www.w3.org/2000/svg" version="1.1">
 <metadata>
  <rdf:RDF xmlns:dc="http://purl.org/dc/elements/1.1/" xmlns:cc="http://creativecommons.org/ns#" xmlns:rdf="http://www.w3.org/1999/02/22-rdf-syntax-ns#">
   <cc:Work>
    <dc:type rdf:resource="http://purl.org/dc/dcmitype/StillImage"/>
    <dc:date>2023-05-11T16:25:36.515110</dc:date>
    <dc:format>image/svg+xml</dc:format>
    <dc:creator>
     <cc:Agent>
      <dc:title>Matplotlib v3.7.1, https://matplotlib.org/</dc:title>
     </cc:Agent>
    </dc:creator>
   </cc:Work>
  </rdf:RDF>
 </metadata>
 <defs>
  <style type="text/css">*{stroke-linejoin: round; stroke-linecap: butt}</style>
 </defs>
 <g id="figure_1">
  <g id="patch_1">
   <path d="M 0 375.733156 
L 507.424375 375.733156 
L 507.424375 0 
L 0 0 
z
" style="fill: #ffffff"/>
  </g>
  <g id="axes_1">
   <g id="patch_2">
    <path d="M 53.824375 326.855625 
L 500.224375 326.855625 
L 500.224375 21.935625 
L 53.824375 21.935625 
z
" style="fill: #ffffff"/>
   </g>
   <g id="matplotlib.axis_1">
    <g id="xtick_1">
     <g id="line2d_1"/>
     <g id="text_1">
      <!-- -200 -->
      <g style="fill: #262626" transform="translate(68.867778 353.067937) rotate(-45) scale(0.1 -0.1)">
       <defs>
        <path id="ArialMT-2d" d="M 203 1375 
L 203 1941 
L 1931 1941 
L 1931 1375 
L 203 1375 
z
" transform="scale(0.015625)"/>
        <path id="ArialMT-32" d="M 3222 541 
L 3222 0 
L 194 0 
Q 188 203 259 391 
Q 375 700 629 1000 
Q 884 1300 1366 1694 
Q 2113 2306 2375 2664 
Q 2638 3022 2638 3341 
Q 2638 3675 2398 3904 
Q 2159 4134 1775 4134 
Q 1369 4134 1125 3890 
Q 881 3647 878 3216 
L 300 3275 
Q 359 3922 746 4261 
Q 1134 4600 1788 4600 
Q 2447 4600 2831 4234 
Q 3216 3869 3216 3328 
Q 3216 3053 3103 2787 
Q 2991 2522 2730 2228 
Q 2469 1934 1863 1422 
Q 1356 997 1212 845 
Q 1069 694 975 541 
L 3222 541 
z
" transform="scale(0.015625)"/>
        <path id="ArialMT-30" d="M 266 2259 
Q 266 3072 433 3567 
Q 600 4063 929 4331 
Q 1259 4600 1759 4600 
Q 2128 4600 2406 4451 
Q 2684 4303 2865 4023 
Q 3047 3744 3150 3342 
Q 3253 2941 3253 2259 
Q 3253 1453 3087 958 
Q 2922 463 2592 192 
Q 2263 -78 1759 -78 
Q 1097 -78 719 397 
Q 266 969 266 2259 
z
M 844 2259 
Q 844 1131 1108 757 
Q 1372 384 1759 384 
Q 2147 384 2411 759 
Q 2675 1134 2675 2259 
Q 2675 3391 2411 3762 
Q 2147 4134 1753 4134 
Q 1366 4134 1134 3806 
Q 844 3388 844 2259 
z
" transform="scale(0.015625)"/>
       </defs>
       <use xlink:href="#ArialMT-2d"/>
       <use xlink:href="#ArialMT-32" x="33.300781"/>
       <use xlink:href="#ArialMT-30" x="88.916016"/>
       <use xlink:href="#ArialMT-30" x="144.53125"/>
      </g>
     </g>
    </g>
    <g id="xtick_2">
     <g id="line2d_2"/>
     <g id="text_2">
      <!-- -190 -->
      <g style="fill: #262626" transform="translate(85.165697 353.067937) rotate(-45) scale(0.1 -0.1)">
       <defs>
        <path id="ArialMT-31" d="M 2384 0 
L 1822 0 
L 1822 3584 
Q 1619 3391 1289 3197 
Q 959 3003 697 2906 
L 697 3450 
Q 1169 3672 1522 3987 
Q 1875 4303 2022 4600 
L 2384 4600 
L 2384 0 
z
" transform="scale(0.015625)"/>
        <path id="ArialMT-39" d="M 350 1059 
L 891 1109 
Q 959 728 1153 556 
Q 1347 384 1650 384 
Q 1909 384 2104 503 
Q 2300 622 2425 820 
Q 2550 1019 2634 1356 
Q 2719 1694 2719 2044 
Q 2719 2081 2716 2156 
Q 2547 1888 2255 1720 
Q 1963 1553 1622 1553 
Q 1053 1553 659 1965 
Q 266 2378 266 3053 
Q 266 3750 677 4175 
Q 1088 4600 1706 4600 
Q 2153 4600 2523 4359 
Q 2894 4119 3086 3673 
Q 3278 3228 3278 2384 
Q 3278 1506 3087 986 
Q 2897 466 2520 194 
Q 2144 -78 1638 -78 
Q 1100 -78 759 220 
Q 419 519 350 1059 
z
M 2653 3081 
Q 2653 3566 2395 3850 
Q 2138 4134 1775 4134 
Q 1400 4134 1122 3828 
Q 844 3522 844 3034 
Q 844 2597 1108 2323 
Q 1372 2050 1759 2050 
Q 2150 2050 2401 2323 
Q 2653 2597 2653 3081 
z
" transform="scale(0.015625)"/>
       </defs>
       <use xlink:href="#ArialMT-2d"/>
       <use xlink:href="#ArialMT-31" x="33.300781"/>
       <use xlink:href="#ArialMT-39" x="88.916016"/>
       <use xlink:href="#ArialMT-30" x="144.53125"/>
      </g>
     </g>
    </g>
    <g id="xtick_3">
     <g id="line2d_3"/>
     <g id="text_3">
      <!-- -180 -->
      <g style="fill: #262626" transform="translate(101.463616 353.067937) rotate(-45) scale(0.1 -0.1)">
       <defs>
        <path id="ArialMT-38" d="M 1131 2484 
Q 781 2613 612 2850 
Q 444 3088 444 3419 
Q 444 3919 803 4259 
Q 1163 4600 1759 4600 
Q 2359 4600 2725 4251 
Q 3091 3903 3091 3403 
Q 3091 3084 2923 2848 
Q 2756 2613 2416 2484 
Q 2838 2347 3058 2040 
Q 3278 1734 3278 1309 
Q 3278 722 2862 322 
Q 2447 -78 1769 -78 
Q 1091 -78 675 323 
Q 259 725 259 1325 
Q 259 1772 486 2073 
Q 713 2375 1131 2484 
z
M 1019 3438 
Q 1019 3113 1228 2906 
Q 1438 2700 1772 2700 
Q 2097 2700 2305 2904 
Q 2513 3109 2513 3406 
Q 2513 3716 2298 3927 
Q 2084 4138 1766 4138 
Q 1444 4138 1231 3931 
Q 1019 3725 1019 3438 
z
M 838 1322 
Q 838 1081 952 856 
Q 1066 631 1291 507 
Q 1516 384 1775 384 
Q 2178 384 2440 643 
Q 2703 903 2703 1303 
Q 2703 1709 2433 1975 
Q 2163 2241 1756 2241 
Q 1359 2241 1098 1978 
Q 838 1716 838 1322 
z
" transform="scale(0.015625)"/>
       </defs>
       <use xlink:href="#ArialMT-2d"/>
       <use xlink:href="#ArialMT-31" x="33.300781"/>
       <use xlink:href="#ArialMT-38" x="88.916016"/>
       <use xlink:href="#ArialMT-30" x="144.53125"/>
      </g>
     </g>
    </g>
    <g id="xtick_4">
     <g id="line2d_4"/>
     <g id="text_4">
      <!-- -170 -->
      <g style="fill: #262626" transform="translate(117.761535 353.067937) rotate(-45) scale(0.1 -0.1)">
       <defs>
        <path id="ArialMT-37" d="M 303 3981 
L 303 4522 
L 3269 4522 
L 3269 4084 
Q 2831 3619 2401 2847 
Q 1972 2075 1738 1259 
Q 1569 684 1522 0 
L 944 0 
Q 953 541 1156 1306 
Q 1359 2072 1739 2783 
Q 2119 3494 2547 3981 
L 303 3981 
z
" transform="scale(0.015625)"/>
       </defs>
       <use xlink:href="#ArialMT-2d"/>
       <use xlink:href="#ArialMT-31" x="33.300781"/>
       <use xlink:href="#ArialMT-37" x="88.916016"/>
       <use xlink:href="#ArialMT-30" x="144.53125"/>
      </g>
     </g>
    </g>
    <g id="xtick_5">
     <g id="line2d_5"/>
     <g id="text_5">
      <!-- -160 -->
      <g style="fill: #262626" transform="translate(134.059454 353.067937) rotate(-45) scale(0.1 -0.1)">
       <defs>
        <path id="ArialMT-36" d="M 3184 3459 
L 2625 3416 
Q 2550 3747 2413 3897 
Q 2184 4138 1850 4138 
Q 1581 4138 1378 3988 
Q 1113 3794 959 3422 
Q 806 3050 800 2363 
Q 1003 2672 1297 2822 
Q 1591 2972 1913 2972 
Q 2475 2972 2870 2558 
Q 3266 2144 3266 1488 
Q 3266 1056 3080 686 
Q 2894 316 2569 119 
Q 2244 -78 1831 -78 
Q 1128 -78 684 439 
Q 241 956 241 2144 
Q 241 3472 731 4075 
Q 1159 4600 1884 4600 
Q 2425 4600 2770 4297 
Q 3116 3994 3184 3459 
z
M 888 1484 
Q 888 1194 1011 928 
Q 1134 663 1356 523 
Q 1578 384 1822 384 
Q 2178 384 2434 671 
Q 2691 959 2691 1453 
Q 2691 1928 2437 2201 
Q 2184 2475 1800 2475 
Q 1419 2475 1153 2201 
Q 888 1928 888 1484 
z
" transform="scale(0.015625)"/>
       </defs>
       <use xlink:href="#ArialMT-2d"/>
       <use xlink:href="#ArialMT-31" x="33.300781"/>
       <use xlink:href="#ArialMT-36" x="88.916016"/>
       <use xlink:href="#ArialMT-30" x="144.53125"/>
      </g>
     </g>
    </g>
    <g id="xtick_6">
     <g id="line2d_6"/>
     <g id="text_6">
      <!-- -150 -->
      <g style="fill: #262626" transform="translate(150.357373 353.067937) rotate(-45) scale(0.1 -0.1)">
       <defs>
        <path id="ArialMT-35" d="M 266 1200 
L 856 1250 
Q 922 819 1161 601 
Q 1400 384 1738 384 
Q 2144 384 2425 690 
Q 2706 997 2706 1503 
Q 2706 1984 2436 2262 
Q 2166 2541 1728 2541 
Q 1456 2541 1237 2417 
Q 1019 2294 894 2097 
L 366 2166 
L 809 4519 
L 3088 4519 
L 3088 3981 
L 1259 3981 
L 1013 2750 
Q 1425 3038 1878 3038 
Q 2478 3038 2890 2622 
Q 3303 2206 3303 1553 
Q 3303 931 2941 478 
Q 2500 -78 1738 -78 
Q 1113 -78 717 272 
Q 322 622 266 1200 
z
" transform="scale(0.015625)"/>
       </defs>
       <use xlink:href="#ArialMT-2d"/>
       <use xlink:href="#ArialMT-31" x="33.300781"/>
       <use xlink:href="#ArialMT-35" x="88.916016"/>
       <use xlink:href="#ArialMT-30" x="144.53125"/>
      </g>
     </g>
    </g>
    <g id="xtick_7">
     <g id="line2d_7"/>
     <g id="text_7">
      <!-- -140 -->
      <g style="fill: #262626" transform="translate(166.655292 353.067937) rotate(-45) scale(0.1 -0.1)">
       <defs>
        <path id="ArialMT-34" d="M 2069 0 
L 2069 1097 
L 81 1097 
L 81 1613 
L 2172 4581 
L 2631 4581 
L 2631 1613 
L 3250 1613 
L 3250 1097 
L 2631 1097 
L 2631 0 
L 2069 0 
z
M 2069 1613 
L 2069 3678 
L 634 1613 
L 2069 1613 
z
" transform="scale(0.015625)"/>
       </defs>
       <use xlink:href="#ArialMT-2d"/>
       <use xlink:href="#ArialMT-31" x="33.300781"/>
       <use xlink:href="#ArialMT-34" x="88.916016"/>
       <use xlink:href="#ArialMT-30" x="144.53125"/>
      </g>
     </g>
    </g>
    <g id="xtick_8">
     <g id="line2d_8"/>
     <g id="text_8">
      <!-- -130 -->
      <g style="fill: #262626" transform="translate(182.953211 353.067937) rotate(-45) scale(0.1 -0.1)">
       <defs>
        <path id="ArialMT-33" d="M 269 1209 
L 831 1284 
Q 928 806 1161 595 
Q 1394 384 1728 384 
Q 2125 384 2398 659 
Q 2672 934 2672 1341 
Q 2672 1728 2419 1979 
Q 2166 2231 1775 2231 
Q 1616 2231 1378 2169 
L 1441 2663 
Q 1497 2656 1531 2656 
Q 1891 2656 2178 2843 
Q 2466 3031 2466 3422 
Q 2466 3731 2256 3934 
Q 2047 4138 1716 4138 
Q 1388 4138 1169 3931 
Q 950 3725 888 3313 
L 325 3413 
Q 428 3978 793 4289 
Q 1159 4600 1703 4600 
Q 2078 4600 2393 4439 
Q 2709 4278 2876 4000 
Q 3044 3722 3044 3409 
Q 3044 3113 2884 2869 
Q 2725 2625 2413 2481 
Q 2819 2388 3044 2092 
Q 3269 1797 3269 1353 
Q 3269 753 2831 336 
Q 2394 -81 1725 -81 
Q 1122 -81 723 278 
Q 325 638 269 1209 
z
" transform="scale(0.015625)"/>
       </defs>
       <use xlink:href="#ArialMT-2d"/>
       <use xlink:href="#ArialMT-31" x="33.300781"/>
       <use xlink:href="#ArialMT-33" x="88.916016"/>
       <use xlink:href="#ArialMT-30" x="144.53125"/>
      </g>
     </g>
    </g>
    <g id="xtick_9">
     <g id="line2d_9"/>
     <g id="text_9">
      <!-- -120 -->
      <g style="fill: #262626" transform="translate(199.25113 353.067937) rotate(-45) scale(0.1 -0.1)">
       <use xlink:href="#ArialMT-2d"/>
       <use xlink:href="#ArialMT-31" x="33.300781"/>
       <use xlink:href="#ArialMT-32" x="88.916016"/>
       <use xlink:href="#ArialMT-30" x="144.53125"/>
      </g>
     </g>
    </g>
    <g id="xtick_10">
     <g id="line2d_10"/>
     <g id="text_10">
      <!-- -110 -->
      <g style="fill: #262626" transform="translate(215.809795 352.546446) rotate(-45) scale(0.1 -0.1)">
       <use xlink:href="#ArialMT-2d"/>
       <use xlink:href="#ArialMT-31" x="33.300781"/>
       <use xlink:href="#ArialMT-31" x="81.541016"/>
       <use xlink:href="#ArialMT-30" x="137.15625"/>
      </g>
     </g>
    </g>
    <g id="xtick_11">
     <g id="line2d_11"/>
     <g id="text_11">
      <!-- -100 -->
      <g style="fill: #262626" transform="translate(231.846968 353.067937) rotate(-45) scale(0.1 -0.1)">
       <use xlink:href="#ArialMT-2d"/>
       <use xlink:href="#ArialMT-31" x="33.300781"/>
       <use xlink:href="#ArialMT-30" x="88.916016"/>
       <use xlink:href="#ArialMT-30" x="144.53125"/>
      </g>
     </g>
    </g>
    <g id="xtick_12">
     <g id="line2d_12"/>
     <g id="text_12">
      <!-- -90 -->
      <g style="fill: #262626" transform="translate(250.110975 349.135761) rotate(-45) scale(0.1 -0.1)">
       <use xlink:href="#ArialMT-2d"/>
       <use xlink:href="#ArialMT-39" x="33.300781"/>
       <use xlink:href="#ArialMT-30" x="88.916016"/>
      </g>
     </g>
    </g>
    <g id="xtick_13">
     <g id="line2d_13"/>
     <g id="text_13">
      <!-- -80 -->
      <g style="fill: #262626" transform="translate(266.408894 349.135761) rotate(-45) scale(0.1 -0.1)">
       <use xlink:href="#ArialMT-2d"/>
       <use xlink:href="#ArialMT-38" x="33.300781"/>
       <use xlink:href="#ArialMT-30" x="88.916016"/>
      </g>
     </g>
    </g>
    <g id="xtick_14">
     <g id="line2d_14"/>
     <g id="text_14">
      <!-- -70 -->
      <g style="fill: #262626" transform="translate(282.706813 349.135761) rotate(-45) scale(0.1 -0.1)">
       <use xlink:href="#ArialMT-2d"/>
       <use xlink:href="#ArialMT-37" x="33.300781"/>
       <use xlink:href="#ArialMT-30" x="88.916016"/>
      </g>
     </g>
    </g>
    <g id="xtick_15">
     <g id="line2d_15"/>
     <g id="text_15">
      <!-- -60 -->
      <g style="fill: #262626" transform="translate(299.004732 349.135761) rotate(-45) scale(0.1 -0.1)">
       <use xlink:href="#ArialMT-2d"/>
       <use xlink:href="#ArialMT-36" x="33.300781"/>
       <use xlink:href="#ArialMT-30" x="88.916016"/>
      </g>
     </g>
    </g>
    <g id="xtick_16">
     <g id="line2d_16"/>
     <g id="text_16">
      <!-- -50 -->
      <g style="fill: #262626" transform="translate(315.302651 349.135761) rotate(-45) scale(0.1 -0.1)">
       <use xlink:href="#ArialMT-2d"/>
       <use xlink:href="#ArialMT-35" x="33.300781"/>
       <use xlink:href="#ArialMT-30" x="88.916016"/>
      </g>
     </g>
    </g>
    <g id="xtick_17">
     <g id="line2d_17"/>
     <g id="text_17">
      <!-- -40 -->
      <g style="fill: #262626" transform="translate(331.60057 349.135761) rotate(-45) scale(0.1 -0.1)">
       <use xlink:href="#ArialMT-2d"/>
       <use xlink:href="#ArialMT-34" x="33.300781"/>
       <use xlink:href="#ArialMT-30" x="88.916016"/>
      </g>
     </g>
    </g>
    <g id="xtick_18">
     <g id="line2d_18"/>
     <g id="text_18">
      <!-- -30 -->
      <g style="fill: #262626" transform="translate(347.898489 349.135761) rotate(-45) scale(0.1 -0.1)">
       <use xlink:href="#ArialMT-2d"/>
       <use xlink:href="#ArialMT-33" x="33.300781"/>
       <use xlink:href="#ArialMT-30" x="88.916016"/>
      </g>
     </g>
    </g>
    <g id="xtick_19">
     <g id="line2d_19"/>
     <g id="text_19">
      <!-- -20 -->
      <g style="fill: #262626" transform="translate(364.196408 349.135761) rotate(-45) scale(0.1 -0.1)">
       <use xlink:href="#ArialMT-2d"/>
       <use xlink:href="#ArialMT-32" x="33.300781"/>
       <use xlink:href="#ArialMT-30" x="88.916016"/>
      </g>
     </g>
    </g>
    <g id="xtick_20">
     <g id="line2d_20"/>
     <g id="text_20">
      <!-- -10 -->
      <g style="fill: #262626" transform="translate(380.494327 349.135761) rotate(-45) scale(0.1 -0.1)">
       <use xlink:href="#ArialMT-2d"/>
       <use xlink:href="#ArialMT-31" x="33.300781"/>
       <use xlink:href="#ArialMT-30" x="88.916016"/>
      </g>
     </g>
    </g>
    <g id="xtick_21">
     <g id="line2d_21"/>
     <g id="text_21">
      <!-- 0 -->
      <g style="fill: #262626" transform="translate(399.935556 342.849139) rotate(-45) scale(0.1 -0.1)">
       <use xlink:href="#ArialMT-30"/>
      </g>
     </g>
    </g>
    <g id="xtick_22">
     <g id="line2d_22"/>
     <g id="text_22">
      <!-- 10 -->
      <g style="fill: #262626" transform="translate(414.267387 346.781316) rotate(-45) scale(0.1 -0.1)">
       <use xlink:href="#ArialMT-31"/>
       <use xlink:href="#ArialMT-30" x="55.615234"/>
      </g>
     </g>
    </g>
    <g id="xtick_23">
     <g id="line2d_23"/>
     <g id="text_23">
      <!-- 20 -->
      <g style="fill: #262626" transform="translate(430.565306 346.781316) rotate(-45) scale(0.1 -0.1)">
       <use xlink:href="#ArialMT-32"/>
       <use xlink:href="#ArialMT-30" x="55.615234"/>
      </g>
     </g>
    </g>
    <g id="xtick_24">
     <g id="line2d_24"/>
     <g id="text_24">
      <!-- 30 -->
      <g style="fill: #262626" transform="translate(446.863225 346.781316) rotate(-45) scale(0.1 -0.1)">
       <use xlink:href="#ArialMT-33"/>
       <use xlink:href="#ArialMT-30" x="55.615234"/>
      </g>
     </g>
    </g>
    <g id="xtick_25">
     <g id="line2d_25"/>
     <g id="text_25">
      <!-- 40 -->
      <g style="fill: #262626" transform="translate(463.161144 346.781316) rotate(-45) scale(0.1 -0.1)">
       <use xlink:href="#ArialMT-34"/>
       <use xlink:href="#ArialMT-30" x="55.615234"/>
      </g>
     </g>
    </g>
    <g id="xtick_26">
     <g id="line2d_26"/>
     <g id="text_26">
      <!-- 50 -->
      <g style="fill: #262626" transform="translate(479.459063 346.781316) rotate(-45) scale(0.1 -0.1)">
       <use xlink:href="#ArialMT-35"/>
       <use xlink:href="#ArialMT-30" x="55.615234"/>
      </g>
     </g>
    </g>
    <g id="text_27">
     <!-- Position -->
     <g style="fill: #262626" transform="translate(257.458125 366.346906) scale(0.11 -0.11)">
      <defs>
       <path id="ArialMT-50" d="M 494 0 
L 494 4581 
L 2222 4581 
Q 2678 4581 2919 4538 
Q 3256 4481 3484 4323 
Q 3713 4166 3852 3881 
Q 3991 3597 3991 3256 
Q 3991 2672 3619 2267 
Q 3247 1863 2275 1863 
L 1100 1863 
L 1100 0 
L 494 0 
z
M 1100 2403 
L 2284 2403 
Q 2872 2403 3119 2622 
Q 3366 2841 3366 3238 
Q 3366 3525 3220 3729 
Q 3075 3934 2838 4000 
Q 2684 4041 2272 4041 
L 1100 4041 
L 1100 2403 
z
" transform="scale(0.015625)"/>
       <path id="ArialMT-6f" d="M 213 1659 
Q 213 2581 725 3025 
Q 1153 3394 1769 3394 
Q 2453 3394 2887 2945 
Q 3322 2497 3322 1706 
Q 3322 1066 3130 698 
Q 2938 331 2570 128 
Q 2203 -75 1769 -75 
Q 1072 -75 642 372 
Q 213 819 213 1659 
z
M 791 1659 
Q 791 1022 1069 705 
Q 1347 388 1769 388 
Q 2188 388 2466 706 
Q 2744 1025 2744 1678 
Q 2744 2294 2464 2611 
Q 2184 2928 1769 2928 
Q 1347 2928 1069 2612 
Q 791 2297 791 1659 
z
" transform="scale(0.015625)"/>
       <path id="ArialMT-73" d="M 197 991 
L 753 1078 
Q 800 744 1014 566 
Q 1228 388 1613 388 
Q 2000 388 2187 545 
Q 2375 703 2375 916 
Q 2375 1106 2209 1216 
Q 2094 1291 1634 1406 
Q 1016 1563 777 1677 
Q 538 1791 414 1992 
Q 291 2194 291 2438 
Q 291 2659 392 2848 
Q 494 3038 669 3163 
Q 800 3259 1026 3326 
Q 1253 3394 1513 3394 
Q 1903 3394 2198 3281 
Q 2494 3169 2634 2976 
Q 2775 2784 2828 2463 
L 2278 2388 
Q 2241 2644 2061 2787 
Q 1881 2931 1553 2931 
Q 1166 2931 1000 2803 
Q 834 2675 834 2503 
Q 834 2394 903 2306 
Q 972 2216 1119 2156 
Q 1203 2125 1616 2013 
Q 2213 1853 2448 1751 
Q 2684 1650 2818 1456 
Q 2953 1263 2953 975 
Q 2953 694 2789 445 
Q 2625 197 2315 61 
Q 2006 -75 1616 -75 
Q 969 -75 630 194 
Q 291 463 197 991 
z
" transform="scale(0.015625)"/>
       <path id="ArialMT-69" d="M 425 3934 
L 425 4581 
L 988 4581 
L 988 3934 
L 425 3934 
z
M 425 0 
L 425 3319 
L 988 3319 
L 988 0 
L 425 0 
z
" transform="scale(0.015625)"/>
       <path id="ArialMT-74" d="M 1650 503 
L 1731 6 
Q 1494 -44 1306 -44 
Q 1000 -44 831 53 
Q 663 150 594 308 
Q 525 466 525 972 
L 525 2881 
L 113 2881 
L 113 3319 
L 525 3319 
L 525 4141 
L 1084 4478 
L 1084 3319 
L 1650 3319 
L 1650 2881 
L 1084 2881 
L 1084 941 
Q 1084 700 1114 631 
Q 1144 563 1211 522 
Q 1278 481 1403 481 
Q 1497 481 1650 503 
z
" transform="scale(0.015625)"/>
       <path id="ArialMT-6e" d="M 422 0 
L 422 3319 
L 928 3319 
L 928 2847 
Q 1294 3394 1984 3394 
Q 2284 3394 2536 3286 
Q 2788 3178 2913 3003 
Q 3038 2828 3088 2588 
Q 3119 2431 3119 2041 
L 3119 0 
L 2556 0 
L 2556 2019 
Q 2556 2363 2490 2533 
Q 2425 2703 2258 2804 
Q 2091 2906 1866 2906 
Q 1506 2906 1245 2678 
Q 984 2450 984 1813 
L 984 0 
L 422 0 
z
" transform="scale(0.015625)"/>
      </defs>
      <use xlink:href="#ArialMT-50"/>
      <use xlink:href="#ArialMT-6f" x="66.699219"/>
      <use xlink:href="#ArialMT-73" x="122.314453"/>
      <use xlink:href="#ArialMT-69" x="172.314453"/>
      <use xlink:href="#ArialMT-74" x="194.53125"/>
      <use xlink:href="#ArialMT-69" x="222.314453"/>
      <use xlink:href="#ArialMT-6f" x="244.53125"/>
      <use xlink:href="#ArialMT-6e" x="300.146484"/>
     </g>
    </g>
   </g>
   <g id="matplotlib.axis_2">
    <g id="ytick_1">
     <g id="line2d_27"/>
     <g id="text_28">
      <!-- −1.90 -->
      <g style="fill: #262626" transform="translate(21.522813 320.593788) scale(0.1 -0.1)">
       <defs>
        <path id="ArialMT-2212" d="M 3381 1997 
L 356 1997 
L 356 2522 
L 3381 2522 
L 3381 1997 
z
" transform="scale(0.015625)"/>
        <path id="ArialMT-2e" d="M 581 0 
L 581 641 
L 1222 641 
L 1222 0 
L 581 0 
z
" transform="scale(0.015625)"/>
       </defs>
       <use xlink:href="#ArialMT-2212"/>
       <use xlink:href="#ArialMT-31" x="58.398438"/>
       <use xlink:href="#ArialMT-2e" x="114.013672"/>
       <use xlink:href="#ArialMT-39" x="141.796875"/>
       <use xlink:href="#ArialMT-30" x="197.412109"/>
      </g>
     </g>
    </g>
    <g id="ytick_2">
     <g id="line2d_28"/>
     <g id="text_29">
      <!-- −1.85 -->
      <g style="fill: #262626" transform="translate(21.522813 279.843132) scale(0.1 -0.1)">
       <use xlink:href="#ArialMT-2212"/>
       <use xlink:href="#ArialMT-31" x="58.398438"/>
       <use xlink:href="#ArialMT-2e" x="114.013672"/>
       <use xlink:href="#ArialMT-38" x="141.796875"/>
       <use xlink:href="#ArialMT-35" x="197.412109"/>
      </g>
     </g>
    </g>
    <g id="ytick_3">
     <g id="line2d_29"/>
     <g id="text_30">
      <!-- −1.80 -->
      <g style="fill: #262626" transform="translate(21.522813 239.092476) scale(0.1 -0.1)">
       <use xlink:href="#ArialMT-2212"/>
       <use xlink:href="#ArialMT-31" x="58.398438"/>
       <use xlink:href="#ArialMT-2e" x="114.013672"/>
       <use xlink:href="#ArialMT-38" x="141.796875"/>
       <use xlink:href="#ArialMT-30" x="197.412109"/>
      </g>
     </g>
    </g>
    <g id="ytick_4">
     <g id="line2d_30"/>
     <g id="text_31">
      <!-- −1.75 -->
      <g style="fill: #262626" transform="translate(21.522813 198.341819) scale(0.1 -0.1)">
       <use xlink:href="#ArialMT-2212"/>
       <use xlink:href="#ArialMT-31" x="58.398438"/>
       <use xlink:href="#ArialMT-2e" x="114.013672"/>
       <use xlink:href="#ArialMT-37" x="141.796875"/>
       <use xlink:href="#ArialMT-35" x="197.412109"/>
      </g>
     </g>
    </g>
    <g id="ytick_5">
     <g id="line2d_31"/>
     <g id="text_32">
      <!-- −1.70 -->
      <g style="fill: #262626" transform="translate(21.522813 157.591163) scale(0.1 -0.1)">
       <use xlink:href="#ArialMT-2212"/>
       <use xlink:href="#ArialMT-31" x="58.398438"/>
       <use xlink:href="#ArialMT-2e" x="114.013672"/>
       <use xlink:href="#ArialMT-37" x="141.796875"/>
       <use xlink:href="#ArialMT-30" x="197.412109"/>
      </g>
     </g>
    </g>
    <g id="ytick_6">
     <g id="line2d_32"/>
     <g id="text_33">
      <!-- −1.65 -->
      <g style="fill: #262626" transform="translate(21.522813 116.840507) scale(0.1 -0.1)">
       <use xlink:href="#ArialMT-2212"/>
       <use xlink:href="#ArialMT-31" x="58.398438"/>
       <use xlink:href="#ArialMT-2e" x="114.013672"/>
       <use xlink:href="#ArialMT-36" x="141.796875"/>
       <use xlink:href="#ArialMT-35" x="197.412109"/>
      </g>
     </g>
    </g>
    <g id="ytick_7">
     <g id="line2d_33"/>
     <g id="text_34">
      <!-- −1.60 -->
      <g style="fill: #262626" transform="translate(21.522813 76.089851) scale(0.1 -0.1)">
       <use xlink:href="#ArialMT-2212"/>
       <use xlink:href="#ArialMT-31" x="58.398438"/>
       <use xlink:href="#ArialMT-2e" x="114.013672"/>
       <use xlink:href="#ArialMT-36" x="141.796875"/>
       <use xlink:href="#ArialMT-30" x="197.412109"/>
      </g>
     </g>
    </g>
    <g id="ytick_8">
     <g id="line2d_34"/>
     <g id="text_35">
      <!-- −1.55 -->
      <g style="fill: #262626" transform="translate(21.522813 35.339195) scale(0.1 -0.1)">
       <use xlink:href="#ArialMT-2212"/>
       <use xlink:href="#ArialMT-31" x="58.398438"/>
       <use xlink:href="#ArialMT-2e" x="114.013672"/>
       <use xlink:href="#ArialMT-35" x="141.796875"/>
       <use xlink:href="#ArialMT-35" x="197.412109"/>
      </g>
     </g>
    </g>
    <g id="text_36">
     <!-- Duplex stability:(freeenergy) -->
     <g style="fill: #262626" transform="translate(15.207656 242.864609) rotate(-90) scale(0.11 -0.11)">
      <defs>
       <path id="ArialMT-44" d="M 494 0 
L 494 4581 
L 2072 4581 
Q 2606 4581 2888 4516 
Q 3281 4425 3559 4188 
Q 3922 3881 4101 3404 
Q 4281 2928 4281 2316 
Q 4281 1794 4159 1391 
Q 4038 988 3847 723 
Q 3656 459 3429 307 
Q 3203 156 2883 78 
Q 2563 0 2147 0 
L 494 0 
z
M 1100 541 
L 2078 541 
Q 2531 541 2789 625 
Q 3047 709 3200 863 
Q 3416 1078 3536 1442 
Q 3656 1806 3656 2325 
Q 3656 3044 3420 3430 
Q 3184 3816 2847 3947 
Q 2603 4041 2063 4041 
L 1100 4041 
L 1100 541 
z
" transform="scale(0.015625)"/>
       <path id="ArialMT-75" d="M 2597 0 
L 2597 488 
Q 2209 -75 1544 -75 
Q 1250 -75 995 37 
Q 741 150 617 320 
Q 494 491 444 738 
Q 409 903 409 1263 
L 409 3319 
L 972 3319 
L 972 1478 
Q 972 1038 1006 884 
Q 1059 663 1231 536 
Q 1403 409 1656 409 
Q 1909 409 2131 539 
Q 2353 669 2445 892 
Q 2538 1116 2538 1541 
L 2538 3319 
L 3100 3319 
L 3100 0 
L 2597 0 
z
" transform="scale(0.015625)"/>
       <path id="ArialMT-70" d="M 422 -1272 
L 422 3319 
L 934 3319 
L 934 2888 
Q 1116 3141 1344 3267 
Q 1572 3394 1897 3394 
Q 2322 3394 2647 3175 
Q 2972 2956 3137 2557 
Q 3303 2159 3303 1684 
Q 3303 1175 3120 767 
Q 2938 359 2589 142 
Q 2241 -75 1856 -75 
Q 1575 -75 1351 44 
Q 1128 163 984 344 
L 984 -1272 
L 422 -1272 
z
M 931 1641 
Q 931 1000 1190 694 
Q 1450 388 1819 388 
Q 2194 388 2461 705 
Q 2728 1022 2728 1688 
Q 2728 2322 2467 2637 
Q 2206 2953 1844 2953 
Q 1484 2953 1207 2617 
Q 931 2281 931 1641 
z
" transform="scale(0.015625)"/>
       <path id="ArialMT-6c" d="M 409 0 
L 409 4581 
L 972 4581 
L 972 0 
L 409 0 
z
" transform="scale(0.015625)"/>
       <path id="ArialMT-65" d="M 2694 1069 
L 3275 997 
Q 3138 488 2766 206 
Q 2394 -75 1816 -75 
Q 1088 -75 661 373 
Q 234 822 234 1631 
Q 234 2469 665 2931 
Q 1097 3394 1784 3394 
Q 2450 3394 2872 2941 
Q 3294 2488 3294 1666 
Q 3294 1616 3291 1516 
L 816 1516 
Q 847 969 1125 678 
Q 1403 388 1819 388 
Q 2128 388 2347 550 
Q 2566 713 2694 1069 
z
M 847 1978 
L 2700 1978 
Q 2663 2397 2488 2606 
Q 2219 2931 1791 2931 
Q 1403 2931 1139 2672 
Q 875 2413 847 1978 
z
" transform="scale(0.015625)"/>
       <path id="ArialMT-78" d="M 47 0 
L 1259 1725 
L 138 3319 
L 841 3319 
L 1350 2541 
Q 1494 2319 1581 2169 
Q 1719 2375 1834 2534 
L 2394 3319 
L 3066 3319 
L 1919 1756 
L 3153 0 
L 2463 0 
L 1781 1031 
L 1600 1309 
L 728 0 
L 47 0 
z
" transform="scale(0.015625)"/>
       <path id="ArialMT-20" transform="scale(0.015625)"/>
       <path id="ArialMT-61" d="M 2588 409 
Q 2275 144 1986 34 
Q 1697 -75 1366 -75 
Q 819 -75 525 192 
Q 231 459 231 875 
Q 231 1119 342 1320 
Q 453 1522 633 1644 
Q 813 1766 1038 1828 
Q 1203 1872 1538 1913 
Q 2219 1994 2541 2106 
Q 2544 2222 2544 2253 
Q 2544 2597 2384 2738 
Q 2169 2928 1744 2928 
Q 1347 2928 1158 2789 
Q 969 2650 878 2297 
L 328 2372 
Q 403 2725 575 2942 
Q 747 3159 1072 3276 
Q 1397 3394 1825 3394 
Q 2250 3394 2515 3294 
Q 2781 3194 2906 3042 
Q 3031 2891 3081 2659 
Q 3109 2516 3109 2141 
L 3109 1391 
Q 3109 606 3145 398 
Q 3181 191 3288 0 
L 2700 0 
Q 2613 175 2588 409 
z
M 2541 1666 
Q 2234 1541 1622 1453 
Q 1275 1403 1131 1340 
Q 988 1278 909 1158 
Q 831 1038 831 891 
Q 831 666 1001 516 
Q 1172 366 1500 366 
Q 1825 366 2078 508 
Q 2331 650 2450 897 
Q 2541 1088 2541 1459 
L 2541 1666 
z
" transform="scale(0.015625)"/>
       <path id="ArialMT-62" d="M 941 0 
L 419 0 
L 419 4581 
L 981 4581 
L 981 2947 
Q 1338 3394 1891 3394 
Q 2197 3394 2470 3270 
Q 2744 3147 2920 2923 
Q 3097 2700 3197 2384 
Q 3297 2069 3297 1709 
Q 3297 856 2875 390 
Q 2453 -75 1863 -75 
Q 1275 -75 941 416 
L 941 0 
z
M 934 1684 
Q 934 1088 1097 822 
Q 1363 388 1816 388 
Q 2184 388 2453 708 
Q 2722 1028 2722 1663 
Q 2722 2313 2464 2622 
Q 2206 2931 1841 2931 
Q 1472 2931 1203 2611 
Q 934 2291 934 1684 
z
" transform="scale(0.015625)"/>
       <path id="ArialMT-79" d="M 397 -1278 
L 334 -750 
Q 519 -800 656 -800 
Q 844 -800 956 -737 
Q 1069 -675 1141 -563 
Q 1194 -478 1313 -144 
Q 1328 -97 1363 -6 
L 103 3319 
L 709 3319 
L 1400 1397 
Q 1534 1031 1641 628 
Q 1738 1016 1872 1384 
L 2581 3319 
L 3144 3319 
L 1881 -56 
Q 1678 -603 1566 -809 
Q 1416 -1088 1222 -1217 
Q 1028 -1347 759 -1347 
Q 597 -1347 397 -1278 
z
" transform="scale(0.015625)"/>
       <path id="ArialMT-3a" d="M 578 2678 
L 578 3319 
L 1219 3319 
L 1219 2678 
L 578 2678 
z
M 578 0 
L 578 641 
L 1219 641 
L 1219 0 
L 578 0 
z
" transform="scale(0.015625)"/>
       <path id="ArialMT-28" d="M 1497 -1347 
Q 1031 -759 709 28 
Q 388 816 388 1659 
Q 388 2403 628 3084 
Q 909 3875 1497 4659 
L 1900 4659 
Q 1522 4009 1400 3731 
Q 1209 3300 1100 2831 
Q 966 2247 966 1656 
Q 966 153 1900 -1347 
L 1497 -1347 
z
" transform="scale(0.015625)"/>
       <path id="ArialMT-66" d="M 556 0 
L 556 2881 
L 59 2881 
L 59 3319 
L 556 3319 
L 556 3672 
Q 556 4006 616 4169 
Q 697 4388 901 4523 
Q 1106 4659 1475 4659 
Q 1713 4659 2000 4603 
L 1916 4113 
Q 1741 4144 1584 4144 
Q 1328 4144 1222 4034 
Q 1116 3925 1116 3625 
L 1116 3319 
L 1763 3319 
L 1763 2881 
L 1116 2881 
L 1116 0 
L 556 0 
z
" transform="scale(0.015625)"/>
       <path id="ArialMT-72" d="M 416 0 
L 416 3319 
L 922 3319 
L 922 2816 
Q 1116 3169 1280 3281 
Q 1444 3394 1641 3394 
Q 1925 3394 2219 3213 
L 2025 2691 
Q 1819 2813 1613 2813 
Q 1428 2813 1281 2702 
Q 1134 2591 1072 2394 
Q 978 2094 978 1738 
L 978 0 
L 416 0 
z
" transform="scale(0.015625)"/>
       <path id="ArialMT-67" d="M 319 -275 
L 866 -356 
Q 900 -609 1056 -725 
Q 1266 -881 1628 -881 
Q 2019 -881 2231 -725 
Q 2444 -569 2519 -288 
Q 2563 -116 2559 434 
Q 2191 0 1641 0 
Q 956 0 581 494 
Q 206 988 206 1678 
Q 206 2153 378 2554 
Q 550 2956 876 3175 
Q 1203 3394 1644 3394 
Q 2231 3394 2613 2919 
L 2613 3319 
L 3131 3319 
L 3131 450 
Q 3131 -325 2973 -648 
Q 2816 -972 2473 -1159 
Q 2131 -1347 1631 -1347 
Q 1038 -1347 672 -1080 
Q 306 -813 319 -275 
z
M 784 1719 
Q 784 1066 1043 766 
Q 1303 466 1694 466 
Q 2081 466 2343 764 
Q 2606 1063 2606 1700 
Q 2606 2309 2336 2618 
Q 2066 2928 1684 2928 
Q 1309 2928 1046 2623 
Q 784 2319 784 1719 
z
" transform="scale(0.015625)"/>
       <path id="ArialMT-29" d="M 791 -1347 
L 388 -1347 
Q 1322 153 1322 1656 
Q 1322 2244 1188 2822 
Q 1081 3291 891 3722 
Q 769 4003 388 4659 
L 791 4659 
Q 1378 3875 1659 3084 
Q 1900 2403 1900 1659 
Q 1900 816 1576 28 
Q 1253 -759 791 -1347 
z
" transform="scale(0.015625)"/>
      </defs>
      <use xlink:href="#ArialMT-44"/>
      <use xlink:href="#ArialMT-75" x="72.216797"/>
      <use xlink:href="#ArialMT-70" x="127.832031"/>
      <use xlink:href="#ArialMT-6c" x="183.447266"/>
      <use xlink:href="#ArialMT-65" x="205.664062"/>
      <use xlink:href="#ArialMT-78" x="261.279297"/>
      <use xlink:href="#ArialMT-20" x="311.279297"/>
      <use xlink:href="#ArialMT-73" x="339.0625"/>
      <use xlink:href="#ArialMT-74" x="389.0625"/>
      <use xlink:href="#ArialMT-61" x="416.845703"/>
      <use xlink:href="#ArialMT-62" x="472.460938"/>
      <use xlink:href="#ArialMT-69" x="528.076172"/>
      <use xlink:href="#ArialMT-6c" x="550.292969"/>
      <use xlink:href="#ArialMT-69" x="572.509766"/>
      <use xlink:href="#ArialMT-74" x="594.726562"/>
      <use xlink:href="#ArialMT-79" x="622.509766"/>
      <use xlink:href="#ArialMT-3a" x="672.509766"/>
      <use xlink:href="#ArialMT-28" x="700.292969"/>
      <use xlink:href="#ArialMT-66" x="733.59375"/>
      <use xlink:href="#ArialMT-72" x="761.376953"/>
      <use xlink:href="#ArialMT-65" x="794.677734"/>
      <use xlink:href="#ArialMT-65" x="850.292969"/>
      <use xlink:href="#ArialMT-65" x="905.908203"/>
      <use xlink:href="#ArialMT-6e" x="961.523438"/>
      <use xlink:href="#ArialMT-65" x="1017.138672"/>
      <use xlink:href="#ArialMT-72" x="1072.753906"/>
      <use xlink:href="#ArialMT-67" x="1106.054688"/>
      <use xlink:href="#ArialMT-79" x="1161.669922"/>
      <use xlink:href="#ArialMT-29" x="1211.669922"/>
     </g>
    </g>
   </g>
   <g id="line2d_35">
    <path d="M 74.115284 167.321352 
L 75.745076 165.429348 
L 77.374868 172.381711 
L 79.00466 172.672018 
L 80.634452 175.36487 
L 82.264244 170.795031 
L 83.894035 168.032105 
L 85.523827 170.384596 
L 87.153619 171.761054 
L 88.783411 177.266884 
L 90.413203 177.136747 
L 92.042995 174.679144 
L 93.672787 173.232612 
L 95.302579 176.986588 
L 96.932371 177.717362 
L 98.562163 180.475282 
L 100.191954 180.880712 
L 101.821746 181.626501 
L 103.451538 185.881007 
L 105.08133 183.903913 
L 106.711122 178.728432 
L 108.340914 178.903618 
L 109.970706 182.752694 
L 111.600498 179.414158 
L 113.23029 178.803512 
L 114.860081 183.288261 
L 116.489873 184.960032 
L 118.119665 185.305397 
L 119.749457 186.231378 
L 121.379249 189.629977 
L 123.009041 189.449786 
L 124.638833 190.335725 
L 126.268625 195.240919 
L 127.898417 194.880538 
L 129.528209 190.440836 
L 131.158 194.900559 
L 132.787792 189.389723 
L 134.417584 187.67791 
L 136.047376 191.987474 
L 137.677168 195.651354 
L 139.30696 192.723253 
L 140.936752 193.033582 
L 142.566544 192.633158 
L 144.196336 190.646053 
L 145.826127 189.604951 
L 147.455919 190.560963 
L 149.085711 195.471163 
L 150.715503 193.679266 
L 152.345295 199.16007 
L 153.975087 198.023867 
L 155.604879 201.447492 
L 158.864463 196.287027 
L 160.494255 199.07498 
L 162.124046 202.268362 
L 163.753838 205.206473 
L 165.38363 206.597947 
L 167.013422 208.590057 
L 168.643214 205.446728 
L 170.273006 200.035998 
L 171.902798 204.055254 
L 173.53259 208.434892 
L 175.162382 211.713364 
L 176.792173 212.14382 
L 178.421965 209.861403 
L 180.051757 212.754467 
L 181.681549 213.244986 
L 183.311341 209.841382 
L 184.941133 209.105603 
L 186.570925 215.327191 
L 188.200717 212.05873 
L 189.830509 217.354338 
L 191.460301 221.603839 
L 194.719884 218.090117 
L 196.349676 219.756883 
L 197.979468 220.617794 
L 199.60926 222.554846 
L 201.239052 223.175503 
L 202.868844 222.329607 
L 204.498636 222.745047 
L 206.128428 221.438664 
L 207.758219 219.726851 
L 209.388011 224.141526 
L 211.017803 225.107549 
L 212.647595 224.912342 
L 214.277387 226.754293 
L 215.907179 225.432894 
L 217.536971 226.303816 
L 219.166763 230.232977 
L 220.796555 230.097834 
L 222.426347 230.478237 
L 224.056138 231.644472 
L 225.68593 233.141057 
L 227.315722 237.861055 
L 228.945514 239.157428 
L 230.575306 236.859995 
L 232.205098 233.881841 
L 233.83489 234.367355 
L 235.464682 235.113145 
L 237.094474 238.631872 
L 238.724265 234.837854 
L 240.354057 237.130281 
L 241.983849 238.066273 
L 243.613641 238.466697 
L 245.243433 239.698001 
L 246.873225 241.584999 
L 248.503017 249.08294 
L 250.132809 246.169855 
L 251.762601 246.615326 
L 253.392393 246.885613 
L 255.022184 246.370067 
L 256.651976 246.795517 
L 258.281768 249.473353 
L 259.91156 254.668855 
L 261.541352 251.17015 
L 263.171144 255.719968 
L 264.800936 257.016341 
L 266.430728 253.277382 
L 268.06052 254.66385 
L 269.690311 255.509746 
L 271.320103 255.91017 
L 272.949895 260.424951 
L 274.579687 262.211844 
L 276.209479 265.440263 
L 277.839271 266.766667 
L 279.469063 268.293284 
L 281.098855 263.668386 
L 282.728647 259.949448 
L 284.358439 264.264017 
L 285.98823 267.237166 
L 287.618022 261.125693 
L 289.247814 264.264017 
L 290.877606 264.859648 
L 292.507398 266.951863 
L 294.13719 271.206369 
L 295.766982 272.067281 
L 297.396774 274.670037 
L 299.026566 270.625754 
L 300.656357 267.377314 
L 302.286149 265.610443 
L 303.915941 271.291459 
L 305.545733 273.834152 
L 307.175525 277.117629 
L 308.805317 282.193004 
L 310.435109 283.589483 
L 312.064901 284.605559 
L 313.694693 283.549441 
L 315.324485 277.62817 
L 316.954276 276.036484 
L 318.584068 275.776209 
L 320.21386 278.218795 
L 321.843652 291.988378 
L 323.473444 294.486023 
L 325.103236 297.734463 
L 326.733028 306.764026 
L 328.36282 306.703962 
L 329.992612 306.218448 
L 331.622403 300.84776 
L 334.881987 291.02736 
L 336.511779 291.998388 
L 338.141571 295.612215 
L 339.771363 297.499214 
L 341.401155 286.632706 
L 343.030947 276.947449 
L 344.660739 277.142656 
L 346.290531 283.819727 
L 347.920322 281.832623 
L 349.550114 267.827791 
L 351.179906 243.632167 
L 352.809698 215.697584 
L 354.43949 185.585694 
L 356.069282 166.004958 
L 357.699074 191.902384 
L 359.328866 253.127223 
L 360.958658 287.183289 
L 362.588449 304.151259 
L 364.218241 312.995625 
L 365.848033 309.271681 
L 367.477825 304.281396 
L 369.107617 296.533191 
L 370.737409 295.151728 
L 372.367201 289.806067 
L 373.996993 290.0263 
L 375.626785 295.006574 
L 377.256577 302.384387 
L 378.886368 312.480079 
L 380.51616 310.507991 
L 382.145952 293.199661 
L 383.775744 286.812897 
L 385.405536 286.652727 
L 387.035328 279.695359 
L 388.66512 280.611329 
L 390.294912 256.445737 
L 391.924704 262.417061 
L 393.554495 296.903583 
L 395.184287 259.493965 
L 396.814079 247.33609 
L 398.443871 232.890792 
L 400.073663 74.75332 
L 401.703455 96.186018 
L 403.333247 99.094097 
L 404.963039 224.061441 
L 406.592831 224.101484 
L 408.222623 266.371248 
L 409.852414 271.661851 
L 411.482206 268.858883 
L 413.111998 271.666857 
L 414.74179 270.911056 
L 416.371582 268.969 
L 418.001374 278.1287 
L 419.631166 288.820022 
L 421.260958 285.431434 
L 422.89075 286.978072 
L 424.520541 284.775739 
L 426.150333 295.091664 
L 427.780125 299.491324 
L 429.409917 278.659262 
L 431.039709 271.121279 
L 432.669501 277.092603 
L 434.299293 288.264434 
L 435.929085 283.254128 
L 437.558877 273.839157 
L 439.188669 266.39127 
L 440.81846 263.147835 
L 442.448252 276.907407 
L 444.078044 289.295526 
L 445.707836 279.995677 
L 447.337628 262.387029 
L 450.597212 280.145836 
L 452.227004 276.411882 
L 453.856796 264.364123 
L 455.486587 254.57876 
L 457.116379 253.462578 
L 458.746171 250.00892 
L 460.375963 254.328495 
L 462.005755 261.16073 
L 463.635547 258.688112 
L 465.265339 256.831145 
L 466.895131 263.3981 
L 468.524923 268.413411 
L 470.154715 277.122634 
L 471.784506 281.126875 
L 473.414298 286.067107 
L 475.04409 288.589779 
L 476.673882 282.683524 
L 478.303674 281.517289 
L 479.933466 272.532774 
L 479.933466 272.532774 
" clip-path="url(#p5a5248c5bf)" style="fill: none; stroke: #0272a2; stroke-width: 1.75; stroke-linecap: round"/>
   </g>
   <g id="line2d_36">
    <path d="M 74.115284 39.542019 
L 75.745076 41.991458 
L 77.374868 42.983054 
L 79.00466 38.90175 
L 80.634452 39.335163 
L 82.264244 40.678086 
L 83.894035 39.161141 
L 85.523827 42.263983 
L 87.153619 43.767794 
L 88.783411 42.779482 
L 90.413203 41.187018 
L 92.042995 41.646698 
L 93.672787 39.903197 
L 95.302579 41.295371 
L 96.932371 41.594163 
L 98.562163 40.247957 
L 100.191954 41.364323 
L 101.821746 41.167317 
L 103.451538 42.119512 
L 105.08133 37.043329 
L 106.711122 39.821111 
L 108.340914 40.802857 
L 109.970706 39.042938 
L 111.600498 42.736797 
L 113.23029 41.656548 
L 114.860081 44.470448 
L 116.489873 42.493823 
L 118.119665 42.690829 
L 119.749457 41.755051 
L 121.379249 39.860512 
L 123.009041 41.213285 
L 124.638833 40.359593 
L 126.268625 40.418695 
L 127.898417 43.856447 
L 129.528209 42.677695 
L 131.158 42.966637 
L 134.417584 41.771469 
L 136.047376 42.405171 
L 137.677168 41.321639 
L 139.30696 43.032306 
L 140.936752 40.789723 
L 142.566544 40.12647 
L 144.196336 44.191357 
L 145.826127 41.92579 
L 147.455919 39.256361 
L 149.085711 44.641187 
L 150.715503 45.925008 
L 152.345295 45.41936 
L 153.975087 40.999862 
L 155.604879 37.621212 
L 157.234671 39.325313 
L 158.864463 41.899522 
L 160.494255 43.291697 
L 162.124046 39.400832 
L 163.753838 41.804303 
L 165.38363 41.807586 
L 167.013422 39.4665 
L 168.643214 40.267657 
L 170.273006 43.472286 
L 171.902798 45.176386 
L 173.53259 42.011159 
L 175.162382 41.170601 
L 176.792173 38.947718 
L 180.051757 39.459933 
L 183.311341 46.296036 
L 184.941133 43.817046 
L 186.570925 42.937086 
L 188.200717 40.596 
L 189.830509 39.699624 
L 191.460301 39.80141 
L 193.090092 41.965191 
L 194.719884 44.562384 
L 196.349676 42.172047 
L 197.979468 42.569342 
L 199.60926 43.531387 
L 201.239052 39.151291 
L 202.868844 42.405171 
L 204.498636 41.052397 
L 206.128428 38.911601 
L 207.758219 40.999862 
L 209.388011 38.54714 
L 211.017803 40.149454 
L 212.647595 42.917386 
L 214.277387 40.159304 
L 215.907179 42.631727 
L 217.536971 45.41936 
L 219.166763 40.054234 
L 220.796555 38.428936 
L 222.426347 39.778426 
L 224.056138 39.647089 
L 225.68593 41.863405 
L 227.315722 39.548586 
L 228.945514 42.034143 
L 230.575306 44.07972 
L 232.205098 43.107825 
L 233.83489 38.799964 
L 235.464682 42.277117 
L 237.094474 42.612027 
L 238.724265 35.795625 
L 240.354057 36.380076 
L 241.983849 40.412128 
L 243.613641 43.229312 
L 245.243433 44.87431 
L 246.873225 40.47123 
L 248.503017 39.220243 
L 250.132809 43.18006 
L 251.762601 39.056071 
L 253.392393 37.08273 
L 255.022184 38.865633 
L 256.651976 46.887053 
L 258.281768 45.596665 
L 259.91156 40.901359 
L 263.171144 38.478188 
L 264.800936 40.944044 
L 266.430728 41.850271 
L 268.06052 43.774361 
L 269.690311 42.996188 
L 272.949895 42.290251 
L 274.579687 45.379959 
L 276.209479 39.955731 
L 277.839271 39.968865 
L 279.469063 42.694113 
L 281.098855 39.092189 
L 282.728647 37.768967 
L 284.358439 40.963745 
L 285.98823 39.712758 
L 287.618022 39.315463 
L 289.247814 40.428545 
L 290.877606 39.354864 
L 292.507398 40.56645 
L 294.13719 42.346069 
L 295.766982 42.776198 
L 297.396774 42.195031 
L 299.026566 38.32715 
L 300.656357 42.162197 
L 302.286149 42.290251 
L 303.915941 41.554762 
L 305.545733 42.900969 
L 307.175525 41.787886 
L 308.805317 37.969256 
L 310.435109 38.402669 
L 312.064901 40.934194 
L 313.694693 39.433666 
L 315.324485 38.382968 
L 316.954276 41.69595 
L 318.584068 41.101649 
L 320.21386 40.694503 
L 321.843652 42.349352 
L 323.473444 44.316127 
L 325.103236 41.1312 
L 326.733028 38.928018 
L 328.36282 38.392819 
L 329.992612 39.630672 
L 331.622403 41.154184 
L 333.252195 40.103486 
L 334.881987 41.663115 
L 336.511779 40.307059 
L 338.141571 40.940761 
L 339.771363 42.493823 
L 341.401155 40.648535 
L 343.030947 42.782765 
L 344.660739 43.354082 
L 346.290531 40.353027 
L 347.920322 41.853554 
L 349.550114 41.429992 
L 351.179906 41.869971 
L 352.809698 41.232986 
L 354.43949 42.48069 
L 356.069282 37.31257 
L 357.699074 35.821892 
L 359.328866 38.987119 
L 360.958658 40.037817 
L 362.588449 42.799182 
L 364.218241 44.08957 
L 365.848033 43.491986 
L 367.477825 44.723273 
L 369.107617 44.063303 
L 370.737409 42.612027 
L 372.367201 41.512078 
L 373.996993 36.688718 
L 375.626785 37.069596 
L 377.256577 37.223917 
L 378.886368 41.101649 
L 380.51616 42.651428 
L 382.145952 39.440233 
L 383.775744 42.05056 
L 385.405536 44.411347 
L 387.035328 40.658386 
L 388.66512 39.853945 
L 390.294912 41.640131 
L 391.924704 45.609799 
L 393.554495 41.755051 
L 395.184287 41.83057 
L 396.814079 42.999472 
L 398.443871 43.600339 
L 400.073663 42.37562 
L 401.703455 38.126861 
L 403.333247 38.307449 
L 404.963039 40.057518 
L 406.592831 40.218406 
L 408.222623 41.653265 
L 409.852414 38.054625 
L 411.482206 39.673356 
L 413.111998 44.083004 
L 414.74179 41.869971 
L 416.371582 40.671519 
L 418.001374 39.939314 
L 419.631166 40.330043 
L 421.260958 39.771859 
L 422.89075 40.517198 
L 424.520541 41.699233 
L 426.150333 44.772524 
L 427.780125 44.339111 
L 429.409917 40.333326 
L 431.039709 43.166926 
L 432.669501 44.677305 
L 434.299293 40.776589 
L 435.929085 41.02613 
L 437.558877 42.152346 
L 439.188669 42.037426 
L 440.81846 43.344232 
L 442.448252 43.439451 
L 444.078044 41.436559 
L 445.707836 41.722217 
L 447.337628 43.308114 
L 448.96742 40.182288 
L 450.597212 37.414356 
L 452.227004 41.469393 
L 453.856796 41.393874 
L 455.486587 38.937868 
L 457.116379 44.076437 
L 458.746171 43.29498 
L 460.375963 44.857893 
L 462.005755 44.995797 
L 463.635547 40.970311 
L 465.265339 40.438396 
L 466.895131 43.176777 
L 468.524923 45.619649 
L 470.154715 42.795899 
L 473.414298 42.237716 
L 475.04409 39.013387 
L 476.673882 42.149063 
L 478.303674 39.413965 
L 479.933466 40.119903 
L 479.933466 40.119903 
" clip-path="url(#p5a5248c5bf)" style="fill: none; stroke-dasharray: 1.75,2.8875; stroke-dashoffset: 0; stroke: #9fc377; stroke-width: 1.75"/>
   </g>
   <g id="patch_3">
    <path d="M 53.824375 326.855625 
L 53.824375 21.935625 
" style="fill: none; stroke: #cccccc; stroke-width: 1.25; stroke-linejoin: miter; stroke-linecap: square"/>
   </g>
   <g id="patch_4">
    <path d="M 500.224375 326.855625 
L 500.224375 21.935625 
" style="fill: none; stroke: #cccccc; stroke-width: 1.25; stroke-linejoin: miter; stroke-linecap: square"/>
   </g>
   <g id="patch_5">
    <path d="M 53.824375 326.855625 
L 500.224375 326.855625 
" style="fill: none; stroke: #cccccc; stroke-width: 1.25; stroke-linejoin: miter; stroke-linecap: square"/>
   </g>
   <g id="patch_6">
    <path d="M 53.824375 21.935625 
L 500.224375 21.935625 
" style="fill: none; stroke: #cccccc; stroke-width: 1.25; stroke-linejoin: miter; stroke-linecap: square"/>
   </g>
   <g id="text_37">
    <!-- "Duplex stability:(freeenergy)" for dataset Mouse_non_tata -->
    <g style="fill: #262626" transform="translate(121.691875 15.935625) scale(0.12 -0.12)">
     <defs>
      <path id="ArialMT-22" d="M 450 2959 
L 294 3831 
L 294 4581 
L 934 4581 
L 934 3831 
L 794 2959 
L 450 2959 
z
M 1484 2959 
L 1331 3831 
L 1331 4581 
L 1972 4581 
L 1972 3831 
L 1822 2959 
L 1484 2959 
z
" transform="scale(0.015625)"/>
      <path id="ArialMT-64" d="M 2575 0 
L 2575 419 
Q 2259 -75 1647 -75 
Q 1250 -75 917 144 
Q 584 363 401 755 
Q 219 1147 219 1656 
Q 219 2153 384 2558 
Q 550 2963 881 3178 
Q 1213 3394 1622 3394 
Q 1922 3394 2156 3267 
Q 2391 3141 2538 2938 
L 2538 4581 
L 3097 4581 
L 3097 0 
L 2575 0 
z
M 797 1656 
Q 797 1019 1065 703 
Q 1334 388 1700 388 
Q 2069 388 2326 689 
Q 2584 991 2584 1609 
Q 2584 2291 2321 2609 
Q 2059 2928 1675 2928 
Q 1300 2928 1048 2622 
Q 797 2316 797 1656 
z
" transform="scale(0.015625)"/>
      <path id="ArialMT-4d" d="M 475 0 
L 475 4581 
L 1388 4581 
L 2472 1338 
Q 2622 884 2691 659 
Q 2769 909 2934 1394 
L 4031 4581 
L 4847 4581 
L 4847 0 
L 4263 0 
L 4263 3834 
L 2931 0 
L 2384 0 
L 1059 3900 
L 1059 0 
L 475 0 
z
" transform="scale(0.015625)"/>
      <path id="ArialMT-5f" d="M -97 -1272 
L -97 -866 
L 3631 -866 
L 3631 -1272 
L -97 -1272 
z
" transform="scale(0.015625)"/>
     </defs>
     <use xlink:href="#ArialMT-22"/>
     <use xlink:href="#ArialMT-44" x="35.498047"/>
     <use xlink:href="#ArialMT-75" x="107.714844"/>
     <use xlink:href="#ArialMT-70" x="163.330078"/>
     <use xlink:href="#ArialMT-6c" x="218.945312"/>
     <use xlink:href="#ArialMT-65" x="241.162109"/>
     <use xlink:href="#ArialMT-78" x="296.777344"/>
     <use xlink:href="#ArialMT-20" x="346.777344"/>
     <use xlink:href="#ArialMT-73" x="374.560547"/>
     <use xlink:href="#ArialMT-74" x="424.560547"/>
     <use xlink:href="#ArialMT-61" x="452.34375"/>
     <use xlink:href="#ArialMT-62" x="507.958984"/>
     <use xlink:href="#ArialMT-69" x="563.574219"/>
     <use xlink:href="#ArialMT-6c" x="585.791016"/>
     <use xlink:href="#ArialMT-69" x="608.007812"/>
     <use xlink:href="#ArialMT-74" x="630.224609"/>
     <use xlink:href="#ArialMT-79" x="658.007812"/>
     <use xlink:href="#ArialMT-3a" x="708.007812"/>
     <use xlink:href="#ArialMT-28" x="735.791016"/>
     <use xlink:href="#ArialMT-66" x="769.091797"/>
     <use xlink:href="#ArialMT-72" x="796.875"/>
     <use xlink:href="#ArialMT-65" x="830.175781"/>
     <use xlink:href="#ArialMT-65" x="885.791016"/>
     <use xlink:href="#ArialMT-65" x="941.40625"/>
     <use xlink:href="#ArialMT-6e" x="997.021484"/>
     <use xlink:href="#ArialMT-65" x="1052.636719"/>
     <use xlink:href="#ArialMT-72" x="1108.251953"/>
     <use xlink:href="#ArialMT-67" x="1141.552734"/>
     <use xlink:href="#ArialMT-79" x="1197.167969"/>
     <use xlink:href="#ArialMT-29" x="1247.167969"/>
     <use xlink:href="#ArialMT-22" x="1280.46875"/>
     <use xlink:href="#ArialMT-20" x="1315.966797"/>
     <use xlink:href="#ArialMT-66" x="1343.75"/>
     <use xlink:href="#ArialMT-6f" x="1371.533203"/>
     <use xlink:href="#ArialMT-72" x="1427.148438"/>
     <use xlink:href="#ArialMT-20" x="1460.449219"/>
     <use xlink:href="#ArialMT-64" x="1488.232422"/>
     <use xlink:href="#ArialMT-61" x="1543.847656"/>
     <use xlink:href="#ArialMT-74" x="1599.462891"/>
     <use xlink:href="#ArialMT-61" x="1627.246094"/>
     <use xlink:href="#ArialMT-73" x="1682.861328"/>
     <use xlink:href="#ArialMT-65" x="1732.861328"/>
     <use xlink:href="#ArialMT-74" x="1788.476562"/>
     <use xlink:href="#ArialMT-20" x="1816.259766"/>
     <use xlink:href="#ArialMT-4d" x="1844.042969"/>
     <use xlink:href="#ArialMT-6f" x="1927.34375"/>
     <use xlink:href="#ArialMT-75" x="1982.958984"/>
     <use xlink:href="#ArialMT-73" x="2038.574219"/>
     <use xlink:href="#ArialMT-65" x="2088.574219"/>
     <use xlink:href="#ArialMT-5f" x="2144.189453"/>
     <use xlink:href="#ArialMT-6e" x="2199.804688"/>
     <use xlink:href="#ArialMT-6f" x="2255.419922"/>
     <use xlink:href="#ArialMT-6e" x="2311.035156"/>
     <use xlink:href="#ArialMT-5f" x="2366.650391"/>
     <use xlink:href="#ArialMT-74" x="2422.265625"/>
     <use xlink:href="#ArialMT-61" x="2450.048828"/>
     <use xlink:href="#ArialMT-74" x="2505.664062"/>
     <use xlink:href="#ArialMT-61" x="2533.447266"/>
    </g>
   </g>
   <g id="legend_1">
    <g id="line2d_37">
     <path d="M 62.824375 34.593437 
L 72.824375 34.593437 
L 82.824375 34.593437 
" style="fill: none; stroke: #0272a2; stroke-width: 1.75; stroke-linecap: round"/>
    </g>
    <g id="text_38">
     <!-- Promoter -->
     <g style="fill: #262626" transform="translate(90.824375 38.093437) scale(0.1 -0.1)">
      <defs>
       <path id="ArialMT-6d" d="M 422 0 
L 422 3319 
L 925 3319 
L 925 2853 
Q 1081 3097 1340 3245 
Q 1600 3394 1931 3394 
Q 2300 3394 2536 3241 
Q 2772 3088 2869 2813 
Q 3263 3394 3894 3394 
Q 4388 3394 4653 3120 
Q 4919 2847 4919 2278 
L 4919 0 
L 4359 0 
L 4359 2091 
Q 4359 2428 4304 2576 
Q 4250 2725 4106 2815 
Q 3963 2906 3769 2906 
Q 3419 2906 3187 2673 
Q 2956 2441 2956 1928 
L 2956 0 
L 2394 0 
L 2394 2156 
Q 2394 2531 2256 2718 
Q 2119 2906 1806 2906 
Q 1569 2906 1367 2781 
Q 1166 2656 1075 2415 
Q 984 2175 984 1722 
L 984 0 
L 422 0 
z
" transform="scale(0.015625)"/>
      </defs>
      <use xlink:href="#ArialMT-50"/>
      <use xlink:href="#ArialMT-72" x="66.699219"/>
      <use xlink:href="#ArialMT-6f" x="100"/>
      <use xlink:href="#ArialMT-6d" x="155.615234"/>
      <use xlink:href="#ArialMT-6f" x="238.916016"/>
      <use xlink:href="#ArialMT-74" x="294.53125"/>
      <use xlink:href="#ArialMT-65" x="322.314453"/>
      <use xlink:href="#ArialMT-72" x="377.929688"/>
     </g>
    </g>
    <g id="line2d_38">
     <path d="M 62.824375 48.73875 
L 72.824375 48.73875 
L 82.824375 48.73875 
" style="fill: none; stroke-dasharray: 1.75,2.8875; stroke-dashoffset: 0; stroke: #9fc377; stroke-width: 1.75"/>
    </g>
    <g id="text_39">
     <!-- Non-promoter -->
     <g style="fill: #262626" transform="translate(90.824375 52.23875) scale(0.1 -0.1)">
      <defs>
       <path id="ArialMT-4e" d="M 488 0 
L 488 4581 
L 1109 4581 
L 3516 984 
L 3516 4581 
L 4097 4581 
L 4097 0 
L 3475 0 
L 1069 3600 
L 1069 0 
L 488 0 
z
" transform="scale(0.015625)"/>
      </defs>
      <use xlink:href="#ArialMT-4e"/>
      <use xlink:href="#ArialMT-6f" x="72.216797"/>
      <use xlink:href="#ArialMT-6e" x="127.832031"/>
      <use xlink:href="#ArialMT-2d" x="183.447266"/>
      <use xlink:href="#ArialMT-70" x="216.748047"/>
      <use xlink:href="#ArialMT-72" x="272.363281"/>
      <use xlink:href="#ArialMT-6f" x="305.664062"/>
      <use xlink:href="#ArialMT-6d" x="361.279297"/>
      <use xlink:href="#ArialMT-6f" x="444.580078"/>
      <use xlink:href="#ArialMT-74" x="500.195312"/>
      <use xlink:href="#ArialMT-65" x="527.978516"/>
      <use xlink:href="#ArialMT-72" x="583.59375"/>
     </g>
    </g>
   </g>
  </g>
 </g>
 <defs>
  <clipPath id="p5a5248c5bf">
   <rect x="53.824375" y="21.935625" width="446.4" height="304.92"/>
  </clipPath>
 </defs>
</svg>
