<?xml version="1.0" encoding="utf-8" standalone="no"?>
<!DOCTYPE svg PUBLIC "-//W3C//DTD SVG 1.1//EN"
  "http://www.w3.org/Graphics/SVG/1.1/DTD/svg11.dtd">
<svg xmlns:xlink="http://www.w3.org/1999/xlink" width="495.893906pt" height="375.733156pt" viewBox="0 0 495.893906 375.733156" xmlns="http://www.w3.org/2000/svg" version="1.1">
 <metadata>
  <rdf:RDF xmlns:dc="http://purl.org/dc/elements/1.1/" xmlns:cc="http://creativecommons.org/ns#" xmlns:rdf="http://www.w3.org/1999/02/22-rdf-syntax-ns#">
   <cc:Work>
    <dc:type rdf:resource="http://purl.org/dc/dcmitype/StillImage"/>
    <dc:date>2023-05-11T16:25:46.406244</dc:date>
    <dc:format>image/svg+xml</dc:format>
    <dc:creator>
     <cc:Agent>
      <dc:title>Matplotlib v3.7.1, https://matplotlib.org/</dc:title>
     </cc:Agent>
    </dc:creator>
   </cc:Work>
  </rdf:RDF>
 </metadata>
 <defs>
  <style type="text/css">*{stroke-linejoin: round; stroke-linecap: butt}</style>
 </defs>
 <g id="figure_1">
  <g id="patch_1">
   <path d="M 0 375.733156 
L 495.893906 375.733156 
L 495.893906 0 
L 0 0 
z
" style="fill: #ffffff"/>
  </g>
  <g id="axes_1">
   <g id="patch_2">
    <path d="M 42.293906 326.855625 
L 488.693906 326.855625 
L 488.693906 21.935625 
L 42.293906 21.935625 
z
" style="fill: #ffffff"/>
   </g>
   <g id="matplotlib.axis_1">
    <g id="xtick_1">
     <g id="line2d_1"/>
     <g id="text_1">
      <!-- -200 -->
      <g style="fill: #262626" transform="translate(57.33731 353.067937) rotate(-45) scale(0.1 -0.1)">
       <defs>
        <path id="ArialMT-2d" d="M 203 1375 
L 203 1941 
L 1931 1941 
L 1931 1375 
L 203 1375 
z
" transform="scale(0.015625)"/>
        <path id="ArialMT-32" d="M 3222 541 
L 3222 0 
L 194 0 
Q 188 203 259 391 
Q 375 700 629 1000 
Q 884 1300 1366 1694 
Q 2113 2306 2375 2664 
Q 2638 3022 2638 3341 
Q 2638 3675 2398 3904 
Q 2159 4134 1775 4134 
Q 1369 4134 1125 3890 
Q 881 3647 878 3216 
L 300 3275 
Q 359 3922 746 4261 
Q 1134 4600 1788 4600 
Q 2447 4600 2831 4234 
Q 3216 3869 3216 3328 
Q 3216 3053 3103 2787 
Q 2991 2522 2730 2228 
Q 2469 1934 1863 1422 
Q 1356 997 1212 845 
Q 1069 694 975 541 
L 3222 541 
z
" transform="scale(0.015625)"/>
        <path id="ArialMT-30" d="M 266 2259 
Q 266 3072 433 3567 
Q 600 4063 929 4331 
Q 1259 4600 1759 4600 
Q 2128 4600 2406 4451 
Q 2684 4303 2865 4023 
Q 3047 3744 3150 3342 
Q 3253 2941 3253 2259 
Q 3253 1453 3087 958 
Q 2922 463 2592 192 
Q 2263 -78 1759 -78 
Q 1097 -78 719 397 
Q 266 969 266 2259 
z
M 844 2259 
Q 844 1131 1108 757 
Q 1372 384 1759 384 
Q 2147 384 2411 759 
Q 2675 1134 2675 2259 
Q 2675 3391 2411 3762 
Q 2147 4134 1753 4134 
Q 1366 4134 1134 3806 
Q 844 3388 844 2259 
z
" transform="scale(0.015625)"/>
       </defs>
       <use xlink:href="#ArialMT-2d"/>
       <use xlink:href="#ArialMT-32" x="33.300781"/>
       <use xlink:href="#ArialMT-30" x="88.916016"/>
       <use xlink:href="#ArialMT-30" x="144.53125"/>
      </g>
     </g>
    </g>
    <g id="xtick_2">
     <g id="line2d_2"/>
     <g id="text_2">
      <!-- -190 -->
      <g style="fill: #262626" transform="translate(73.635229 353.067937) rotate(-45) scale(0.1 -0.1)">
       <defs>
        <path id="ArialMT-31" d="M 2384 0 
L 1822 0 
L 1822 3584 
Q 1619 3391 1289 3197 
Q 959 3003 697 2906 
L 697 3450 
Q 1169 3672 1522 3987 
Q 1875 4303 2022 4600 
L 2384 4600 
L 2384 0 
z
" transform="scale(0.015625)"/>
        <path id="ArialMT-39" d="M 350 1059 
L 891 1109 
Q 959 728 1153 556 
Q 1347 384 1650 384 
Q 1909 384 2104 503 
Q 2300 622 2425 820 
Q 2550 1019 2634 1356 
Q 2719 1694 2719 2044 
Q 2719 2081 2716 2156 
Q 2547 1888 2255 1720 
Q 1963 1553 1622 1553 
Q 1053 1553 659 1965 
Q 266 2378 266 3053 
Q 266 3750 677 4175 
Q 1088 4600 1706 4600 
Q 2153 4600 2523 4359 
Q 2894 4119 3086 3673 
Q 3278 3228 3278 2384 
Q 3278 1506 3087 986 
Q 2897 466 2520 194 
Q 2144 -78 1638 -78 
Q 1100 -78 759 220 
Q 419 519 350 1059 
z
M 2653 3081 
Q 2653 3566 2395 3850 
Q 2138 4134 1775 4134 
Q 1400 4134 1122 3828 
Q 844 3522 844 3034 
Q 844 2597 1108 2323 
Q 1372 2050 1759 2050 
Q 2150 2050 2401 2323 
Q 2653 2597 2653 3081 
z
" transform="scale(0.015625)"/>
       </defs>
       <use xlink:href="#ArialMT-2d"/>
       <use xlink:href="#ArialMT-31" x="33.300781"/>
       <use xlink:href="#ArialMT-39" x="88.916016"/>
       <use xlink:href="#ArialMT-30" x="144.53125"/>
      </g>
     </g>
    </g>
    <g id="xtick_3">
     <g id="line2d_3"/>
     <g id="text_3">
      <!-- -180 -->
      <g style="fill: #262626" transform="translate(89.933148 353.067937) rotate(-45) scale(0.1 -0.1)">
       <defs>
        <path id="ArialMT-38" d="M 1131 2484 
Q 781 2613 612 2850 
Q 444 3088 444 3419 
Q 444 3919 803 4259 
Q 1163 4600 1759 4600 
Q 2359 4600 2725 4251 
Q 3091 3903 3091 3403 
Q 3091 3084 2923 2848 
Q 2756 2613 2416 2484 
Q 2838 2347 3058 2040 
Q 3278 1734 3278 1309 
Q 3278 722 2862 322 
Q 2447 -78 1769 -78 
Q 1091 -78 675 323 
Q 259 725 259 1325 
Q 259 1772 486 2073 
Q 713 2375 1131 2484 
z
M 1019 3438 
Q 1019 3113 1228 2906 
Q 1438 2700 1772 2700 
Q 2097 2700 2305 2904 
Q 2513 3109 2513 3406 
Q 2513 3716 2298 3927 
Q 2084 4138 1766 4138 
Q 1444 4138 1231 3931 
Q 1019 3725 1019 3438 
z
M 838 1322 
Q 838 1081 952 856 
Q 1066 631 1291 507 
Q 1516 384 1775 384 
Q 2178 384 2440 643 
Q 2703 903 2703 1303 
Q 2703 1709 2433 1975 
Q 2163 2241 1756 2241 
Q 1359 2241 1098 1978 
Q 838 1716 838 1322 
z
" transform="scale(0.015625)"/>
       </defs>
       <use xlink:href="#ArialMT-2d"/>
       <use xlink:href="#ArialMT-31" x="33.300781"/>
       <use xlink:href="#ArialMT-38" x="88.916016"/>
       <use xlink:href="#ArialMT-30" x="144.53125"/>
      </g>
     </g>
    </g>
    <g id="xtick_4">
     <g id="line2d_4"/>
     <g id="text_4">
      <!-- -170 -->
      <g style="fill: #262626" transform="translate(106.231066 353.067937) rotate(-45) scale(0.1 -0.1)">
       <defs>
        <path id="ArialMT-37" d="M 303 3981 
L 303 4522 
L 3269 4522 
L 3269 4084 
Q 2831 3619 2401 2847 
Q 1972 2075 1738 1259 
Q 1569 684 1522 0 
L 944 0 
Q 953 541 1156 1306 
Q 1359 2072 1739 2783 
Q 2119 3494 2547 3981 
L 303 3981 
z
" transform="scale(0.015625)"/>
       </defs>
       <use xlink:href="#ArialMT-2d"/>
       <use xlink:href="#ArialMT-31" x="33.300781"/>
       <use xlink:href="#ArialMT-37" x="88.916016"/>
       <use xlink:href="#ArialMT-30" x="144.53125"/>
      </g>
     </g>
    </g>
    <g id="xtick_5">
     <g id="line2d_5"/>
     <g id="text_5">
      <!-- -160 -->
      <g style="fill: #262626" transform="translate(122.528985 353.067937) rotate(-45) scale(0.1 -0.1)">
       <defs>
        <path id="ArialMT-36" d="M 3184 3459 
L 2625 3416 
Q 2550 3747 2413 3897 
Q 2184 4138 1850 4138 
Q 1581 4138 1378 3988 
Q 1113 3794 959 3422 
Q 806 3050 800 2363 
Q 1003 2672 1297 2822 
Q 1591 2972 1913 2972 
Q 2475 2972 2870 2558 
Q 3266 2144 3266 1488 
Q 3266 1056 3080 686 
Q 2894 316 2569 119 
Q 2244 -78 1831 -78 
Q 1128 -78 684 439 
Q 241 956 241 2144 
Q 241 3472 731 4075 
Q 1159 4600 1884 4600 
Q 2425 4600 2770 4297 
Q 3116 3994 3184 3459 
z
M 888 1484 
Q 888 1194 1011 928 
Q 1134 663 1356 523 
Q 1578 384 1822 384 
Q 2178 384 2434 671 
Q 2691 959 2691 1453 
Q 2691 1928 2437 2201 
Q 2184 2475 1800 2475 
Q 1419 2475 1153 2201 
Q 888 1928 888 1484 
z
" transform="scale(0.015625)"/>
       </defs>
       <use xlink:href="#ArialMT-2d"/>
       <use xlink:href="#ArialMT-31" x="33.300781"/>
       <use xlink:href="#ArialMT-36" x="88.916016"/>
       <use xlink:href="#ArialMT-30" x="144.53125"/>
      </g>
     </g>
    </g>
    <g id="xtick_6">
     <g id="line2d_6"/>
     <g id="text_6">
      <!-- -150 -->
      <g style="fill: #262626" transform="translate(138.826904 353.067937) rotate(-45) scale(0.1 -0.1)">
       <defs>
        <path id="ArialMT-35" d="M 266 1200 
L 856 1250 
Q 922 819 1161 601 
Q 1400 384 1738 384 
Q 2144 384 2425 690 
Q 2706 997 2706 1503 
Q 2706 1984 2436 2262 
Q 2166 2541 1728 2541 
Q 1456 2541 1237 2417 
Q 1019 2294 894 2097 
L 366 2166 
L 809 4519 
L 3088 4519 
L 3088 3981 
L 1259 3981 
L 1013 2750 
Q 1425 3038 1878 3038 
Q 2478 3038 2890 2622 
Q 3303 2206 3303 1553 
Q 3303 931 2941 478 
Q 2500 -78 1738 -78 
Q 1113 -78 717 272 
Q 322 622 266 1200 
z
" transform="scale(0.015625)"/>
       </defs>
       <use xlink:href="#ArialMT-2d"/>
       <use xlink:href="#ArialMT-31" x="33.300781"/>
       <use xlink:href="#ArialMT-35" x="88.916016"/>
       <use xlink:href="#ArialMT-30" x="144.53125"/>
      </g>
     </g>
    </g>
    <g id="xtick_7">
     <g id="line2d_7"/>
     <g id="text_7">
      <!-- -140 -->
      <g style="fill: #262626" transform="translate(155.124823 353.067937) rotate(-45) scale(0.1 -0.1)">
       <defs>
        <path id="ArialMT-34" d="M 2069 0 
L 2069 1097 
L 81 1097 
L 81 1613 
L 2172 4581 
L 2631 4581 
L 2631 1613 
L 3250 1613 
L 3250 1097 
L 2631 1097 
L 2631 0 
L 2069 0 
z
M 2069 1613 
L 2069 3678 
L 634 1613 
L 2069 1613 
z
" transform="scale(0.015625)"/>
       </defs>
       <use xlink:href="#ArialMT-2d"/>
       <use xlink:href="#ArialMT-31" x="33.300781"/>
       <use xlink:href="#ArialMT-34" x="88.916016"/>
       <use xlink:href="#ArialMT-30" x="144.53125"/>
      </g>
     </g>
    </g>
    <g id="xtick_8">
     <g id="line2d_8"/>
     <g id="text_8">
      <!-- -130 -->
      <g style="fill: #262626" transform="translate(171.422742 353.067937) rotate(-45) scale(0.1 -0.1)">
       <defs>
        <path id="ArialMT-33" d="M 269 1209 
L 831 1284 
Q 928 806 1161 595 
Q 1394 384 1728 384 
Q 2125 384 2398 659 
Q 2672 934 2672 1341 
Q 2672 1728 2419 1979 
Q 2166 2231 1775 2231 
Q 1616 2231 1378 2169 
L 1441 2663 
Q 1497 2656 1531 2656 
Q 1891 2656 2178 2843 
Q 2466 3031 2466 3422 
Q 2466 3731 2256 3934 
Q 2047 4138 1716 4138 
Q 1388 4138 1169 3931 
Q 950 3725 888 3313 
L 325 3413 
Q 428 3978 793 4289 
Q 1159 4600 1703 4600 
Q 2078 4600 2393 4439 
Q 2709 4278 2876 4000 
Q 3044 3722 3044 3409 
Q 3044 3113 2884 2869 
Q 2725 2625 2413 2481 
Q 2819 2388 3044 2092 
Q 3269 1797 3269 1353 
Q 3269 753 2831 336 
Q 2394 -81 1725 -81 
Q 1122 -81 723 278 
Q 325 638 269 1209 
z
" transform="scale(0.015625)"/>
       </defs>
       <use xlink:href="#ArialMT-2d"/>
       <use xlink:href="#ArialMT-31" x="33.300781"/>
       <use xlink:href="#ArialMT-33" x="88.916016"/>
       <use xlink:href="#ArialMT-30" x="144.53125"/>
      </g>
     </g>
    </g>
    <g id="xtick_9">
     <g id="line2d_9"/>
     <g id="text_9">
      <!-- -120 -->
      <g style="fill: #262626" transform="translate(187.720661 353.067937) rotate(-45) scale(0.1 -0.1)">
       <use xlink:href="#ArialMT-2d"/>
       <use xlink:href="#ArialMT-31" x="33.300781"/>
       <use xlink:href="#ArialMT-32" x="88.916016"/>
       <use xlink:href="#ArialMT-30" x="144.53125"/>
      </g>
     </g>
    </g>
    <g id="xtick_10">
     <g id="line2d_10"/>
     <g id="text_10">
      <!-- -110 -->
      <g style="fill: #262626" transform="translate(204.279326 352.546446) rotate(-45) scale(0.1 -0.1)">
       <use xlink:href="#ArialMT-2d"/>
       <use xlink:href="#ArialMT-31" x="33.300781"/>
       <use xlink:href="#ArialMT-31" x="81.541016"/>
       <use xlink:href="#ArialMT-30" x="137.15625"/>
      </g>
     </g>
    </g>
    <g id="xtick_11">
     <g id="line2d_11"/>
     <g id="text_11">
      <!-- -100 -->
      <g style="fill: #262626" transform="translate(220.316499 353.067937) rotate(-45) scale(0.1 -0.1)">
       <use xlink:href="#ArialMT-2d"/>
       <use xlink:href="#ArialMT-31" x="33.300781"/>
       <use xlink:href="#ArialMT-30" x="88.916016"/>
       <use xlink:href="#ArialMT-30" x="144.53125"/>
      </g>
     </g>
    </g>
    <g id="xtick_12">
     <g id="line2d_12"/>
     <g id="text_12">
      <!-- -90 -->
      <g style="fill: #262626" transform="translate(238.580506 349.135761) rotate(-45) scale(0.1 -0.1)">
       <use xlink:href="#ArialMT-2d"/>
       <use xlink:href="#ArialMT-39" x="33.300781"/>
       <use xlink:href="#ArialMT-30" x="88.916016"/>
      </g>
     </g>
    </g>
    <g id="xtick_13">
     <g id="line2d_13"/>
     <g id="text_13">
      <!-- -80 -->
      <g style="fill: #262626" transform="translate(254.878425 349.135761) rotate(-45) scale(0.1 -0.1)">
       <use xlink:href="#ArialMT-2d"/>
       <use xlink:href="#ArialMT-38" x="33.300781"/>
       <use xlink:href="#ArialMT-30" x="88.916016"/>
      </g>
     </g>
    </g>
    <g id="xtick_14">
     <g id="line2d_14"/>
     <g id="text_14">
      <!-- -70 -->
      <g style="fill: #262626" transform="translate(271.176344 349.135761) rotate(-45) scale(0.1 -0.1)">
       <use xlink:href="#ArialMT-2d"/>
       <use xlink:href="#ArialMT-37" x="33.300781"/>
       <use xlink:href="#ArialMT-30" x="88.916016"/>
      </g>
     </g>
    </g>
    <g id="xtick_15">
     <g id="line2d_15"/>
     <g id="text_15">
      <!-- -60 -->
      <g style="fill: #262626" transform="translate(287.474263 349.135761) rotate(-45) scale(0.1 -0.1)">
       <use xlink:href="#ArialMT-2d"/>
       <use xlink:href="#ArialMT-36" x="33.300781"/>
       <use xlink:href="#ArialMT-30" x="88.916016"/>
      </g>
     </g>
    </g>
    <g id="xtick_16">
     <g id="line2d_16"/>
     <g id="text_16">
      <!-- -50 -->
      <g style="fill: #262626" transform="translate(303.772182 349.135761) rotate(-45) scale(0.1 -0.1)">
       <use xlink:href="#ArialMT-2d"/>
       <use xlink:href="#ArialMT-35" x="33.300781"/>
       <use xlink:href="#ArialMT-30" x="88.916016"/>
      </g>
     </g>
    </g>
    <g id="xtick_17">
     <g id="line2d_17"/>
     <g id="text_17">
      <!-- -40 -->
      <g style="fill: #262626" transform="translate(320.070101 349.135761) rotate(-45) scale(0.1 -0.1)">
       <use xlink:href="#ArialMT-2d"/>
       <use xlink:href="#ArialMT-34" x="33.300781"/>
       <use xlink:href="#ArialMT-30" x="88.916016"/>
      </g>
     </g>
    </g>
    <g id="xtick_18">
     <g id="line2d_18"/>
     <g id="text_18">
      <!-- -30 -->
      <g style="fill: #262626" transform="translate(336.36802 349.135761) rotate(-45) scale(0.1 -0.1)">
       <use xlink:href="#ArialMT-2d"/>
       <use xlink:href="#ArialMT-33" x="33.300781"/>
       <use xlink:href="#ArialMT-30" x="88.916016"/>
      </g>
     </g>
    </g>
    <g id="xtick_19">
     <g id="line2d_19"/>
     <g id="text_19">
      <!-- -20 -->
      <g style="fill: #262626" transform="translate(352.665939 349.135761) rotate(-45) scale(0.1 -0.1)">
       <use xlink:href="#ArialMT-2d"/>
       <use xlink:href="#ArialMT-32" x="33.300781"/>
       <use xlink:href="#ArialMT-30" x="88.916016"/>
      </g>
     </g>
    </g>
    <g id="xtick_20">
     <g id="line2d_20"/>
     <g id="text_20">
      <!-- -10 -->
      <g style="fill: #262626" transform="translate(368.963858 349.135761) rotate(-45) scale(0.1 -0.1)">
       <use xlink:href="#ArialMT-2d"/>
       <use xlink:href="#ArialMT-31" x="33.300781"/>
       <use xlink:href="#ArialMT-30" x="88.916016"/>
      </g>
     </g>
    </g>
    <g id="xtick_21">
     <g id="line2d_21"/>
     <g id="text_21">
      <!-- 0 -->
      <g style="fill: #262626" transform="translate(388.405088 342.849139) rotate(-45) scale(0.1 -0.1)">
       <use xlink:href="#ArialMT-30"/>
      </g>
     </g>
    </g>
    <g id="xtick_22">
     <g id="line2d_22"/>
     <g id="text_22">
      <!-- 10 -->
      <g style="fill: #262626" transform="translate(402.736918 346.781316) rotate(-45) scale(0.1 -0.1)">
       <use xlink:href="#ArialMT-31"/>
       <use xlink:href="#ArialMT-30" x="55.615234"/>
      </g>
     </g>
    </g>
    <g id="xtick_23">
     <g id="line2d_23"/>
     <g id="text_23">
      <!-- 20 -->
      <g style="fill: #262626" transform="translate(419.034837 346.781316) rotate(-45) scale(0.1 -0.1)">
       <use xlink:href="#ArialMT-32"/>
       <use xlink:href="#ArialMT-30" x="55.615234"/>
      </g>
     </g>
    </g>
    <g id="xtick_24">
     <g id="line2d_24"/>
     <g id="text_24">
      <!-- 30 -->
      <g style="fill: #262626" transform="translate(435.332756 346.781316) rotate(-45) scale(0.1 -0.1)">
       <use xlink:href="#ArialMT-33"/>
       <use xlink:href="#ArialMT-30" x="55.615234"/>
      </g>
     </g>
    </g>
    <g id="xtick_25">
     <g id="line2d_25"/>
     <g id="text_25">
      <!-- 40 -->
      <g style="fill: #262626" transform="translate(451.630675 346.781316) rotate(-45) scale(0.1 -0.1)">
       <use xlink:href="#ArialMT-34"/>
       <use xlink:href="#ArialMT-30" x="55.615234"/>
      </g>
     </g>
    </g>
    <g id="xtick_26">
     <g id="line2d_26"/>
     <g id="text_26">
      <!-- 50 -->
      <g style="fill: #262626" transform="translate(467.928594 346.781316) rotate(-45) scale(0.1 -0.1)">
       <use xlink:href="#ArialMT-35"/>
       <use xlink:href="#ArialMT-30" x="55.615234"/>
      </g>
     </g>
    </g>
    <g id="text_27">
     <!-- Position -->
     <g style="fill: #262626" transform="translate(245.927656 366.346906) scale(0.11 -0.11)">
      <defs>
       <path id="ArialMT-50" d="M 494 0 
L 494 4581 
L 2222 4581 
Q 2678 4581 2919 4538 
Q 3256 4481 3484 4323 
Q 3713 4166 3852 3881 
Q 3991 3597 3991 3256 
Q 3991 2672 3619 2267 
Q 3247 1863 2275 1863 
L 1100 1863 
L 1100 0 
L 494 0 
z
M 1100 2403 
L 2284 2403 
Q 2872 2403 3119 2622 
Q 3366 2841 3366 3238 
Q 3366 3525 3220 3729 
Q 3075 3934 2838 4000 
Q 2684 4041 2272 4041 
L 1100 4041 
L 1100 2403 
z
" transform="scale(0.015625)"/>
       <path id="ArialMT-6f" d="M 213 1659 
Q 213 2581 725 3025 
Q 1153 3394 1769 3394 
Q 2453 3394 2887 2945 
Q 3322 2497 3322 1706 
Q 3322 1066 3130 698 
Q 2938 331 2570 128 
Q 2203 -75 1769 -75 
Q 1072 -75 642 372 
Q 213 819 213 1659 
z
M 791 1659 
Q 791 1022 1069 705 
Q 1347 388 1769 388 
Q 2188 388 2466 706 
Q 2744 1025 2744 1678 
Q 2744 2294 2464 2611 
Q 2184 2928 1769 2928 
Q 1347 2928 1069 2612 
Q 791 2297 791 1659 
z
" transform="scale(0.015625)"/>
       <path id="ArialMT-73" d="M 197 991 
L 753 1078 
Q 800 744 1014 566 
Q 1228 388 1613 388 
Q 2000 388 2187 545 
Q 2375 703 2375 916 
Q 2375 1106 2209 1216 
Q 2094 1291 1634 1406 
Q 1016 1563 777 1677 
Q 538 1791 414 1992 
Q 291 2194 291 2438 
Q 291 2659 392 2848 
Q 494 3038 669 3163 
Q 800 3259 1026 3326 
Q 1253 3394 1513 3394 
Q 1903 3394 2198 3281 
Q 2494 3169 2634 2976 
Q 2775 2784 2828 2463 
L 2278 2388 
Q 2241 2644 2061 2787 
Q 1881 2931 1553 2931 
Q 1166 2931 1000 2803 
Q 834 2675 834 2503 
Q 834 2394 903 2306 
Q 972 2216 1119 2156 
Q 1203 2125 1616 2013 
Q 2213 1853 2448 1751 
Q 2684 1650 2818 1456 
Q 2953 1263 2953 975 
Q 2953 694 2789 445 
Q 2625 197 2315 61 
Q 2006 -75 1616 -75 
Q 969 -75 630 194 
Q 291 463 197 991 
z
" transform="scale(0.015625)"/>
       <path id="ArialMT-69" d="M 425 3934 
L 425 4581 
L 988 4581 
L 988 3934 
L 425 3934 
z
M 425 0 
L 425 3319 
L 988 3319 
L 988 0 
L 425 0 
z
" transform="scale(0.015625)"/>
       <path id="ArialMT-74" d="M 1650 503 
L 1731 6 
Q 1494 -44 1306 -44 
Q 1000 -44 831 53 
Q 663 150 594 308 
Q 525 466 525 972 
L 525 2881 
L 113 2881 
L 113 3319 
L 525 3319 
L 525 4141 
L 1084 4478 
L 1084 3319 
L 1650 3319 
L 1650 2881 
L 1084 2881 
L 1084 941 
Q 1084 700 1114 631 
Q 1144 563 1211 522 
Q 1278 481 1403 481 
Q 1497 481 1650 503 
z
" transform="scale(0.015625)"/>
       <path id="ArialMT-6e" d="M 422 0 
L 422 3319 
L 928 3319 
L 928 2847 
Q 1294 3394 1984 3394 
Q 2284 3394 2536 3286 
Q 2788 3178 2913 3003 
Q 3038 2828 3088 2588 
Q 3119 2431 3119 2041 
L 3119 0 
L 2556 0 
L 2556 2019 
Q 2556 2363 2490 2533 
Q 2425 2703 2258 2804 
Q 2091 2906 1866 2906 
Q 1506 2906 1245 2678 
Q 984 2450 984 1813 
L 984 0 
L 422 0 
z
" transform="scale(0.015625)"/>
      </defs>
      <use xlink:href="#ArialMT-50"/>
      <use xlink:href="#ArialMT-6f" x="66.699219"/>
      <use xlink:href="#ArialMT-73" x="122.314453"/>
      <use xlink:href="#ArialMT-69" x="172.314453"/>
      <use xlink:href="#ArialMT-74" x="194.53125"/>
      <use xlink:href="#ArialMT-69" x="222.314453"/>
      <use xlink:href="#ArialMT-6f" x="244.53125"/>
      <use xlink:href="#ArialMT-6e" x="300.146484"/>
     </g>
    </g>
   </g>
   <g id="matplotlib.axis_2">
    <g id="ytick_1">
     <g id="line2d_27"/>
     <g id="text_28">
      <!-- 8.0 -->
      <g style="fill: #262626" transform="translate(21.393906 272.362032) scale(0.1 -0.1)">
       <defs>
        <path id="ArialMT-2e" d="M 581 0 
L 581 641 
L 1222 641 
L 1222 0 
L 581 0 
z
" transform="scale(0.015625)"/>
       </defs>
       <use xlink:href="#ArialMT-38"/>
       <use xlink:href="#ArialMT-2e" x="55.615234"/>
       <use xlink:href="#ArialMT-30" x="83.398438"/>
      </g>
     </g>
    </g>
    <g id="ytick_2">
     <g id="line2d_28"/>
     <g id="text_29">
      <!-- 8.5 -->
      <g style="fill: #262626" transform="translate(21.393906 209.096413) scale(0.1 -0.1)">
       <use xlink:href="#ArialMT-38"/>
       <use xlink:href="#ArialMT-2e" x="55.615234"/>
       <use xlink:href="#ArialMT-35" x="83.398438"/>
      </g>
     </g>
    </g>
    <g id="ytick_3">
     <g id="line2d_29"/>
     <g id="text_30">
      <!-- 9.0 -->
      <g style="fill: #262626" transform="translate(21.393906 145.830795) scale(0.1 -0.1)">
       <use xlink:href="#ArialMT-39"/>
       <use xlink:href="#ArialMT-2e" x="55.615234"/>
       <use xlink:href="#ArialMT-30" x="83.398438"/>
      </g>
     </g>
    </g>
    <g id="ytick_4">
     <g id="line2d_30"/>
     <g id="text_31">
      <!-- 9.5 -->
      <g style="fill: #262626" transform="translate(21.393906 82.565176) scale(0.1 -0.1)">
       <use xlink:href="#ArialMT-39"/>
       <use xlink:href="#ArialMT-2e" x="55.615234"/>
       <use xlink:href="#ArialMT-35" x="83.398438"/>
      </g>
     </g>
    </g>
    <g id="text_32">
     <!-- Helix-Coil_transition -->
     <g style="fill: #262626" transform="translate(15.207656 223.300078) rotate(-90) scale(0.11 -0.11)">
      <defs>
       <path id="ArialMT-48" d="M 513 0 
L 513 4581 
L 1119 4581 
L 1119 2700 
L 3500 2700 
L 3500 4581 
L 4106 4581 
L 4106 0 
L 3500 0 
L 3500 2159 
L 1119 2159 
L 1119 0 
L 513 0 
z
" transform="scale(0.015625)"/>
       <path id="ArialMT-65" d="M 2694 1069 
L 3275 997 
Q 3138 488 2766 206 
Q 2394 -75 1816 -75 
Q 1088 -75 661 373 
Q 234 822 234 1631 
Q 234 2469 665 2931 
Q 1097 3394 1784 3394 
Q 2450 3394 2872 2941 
Q 3294 2488 3294 1666 
Q 3294 1616 3291 1516 
L 816 1516 
Q 847 969 1125 678 
Q 1403 388 1819 388 
Q 2128 388 2347 550 
Q 2566 713 2694 1069 
z
M 847 1978 
L 2700 1978 
Q 2663 2397 2488 2606 
Q 2219 2931 1791 2931 
Q 1403 2931 1139 2672 
Q 875 2413 847 1978 
z
" transform="scale(0.015625)"/>
       <path id="ArialMT-6c" d="M 409 0 
L 409 4581 
L 972 4581 
L 972 0 
L 409 0 
z
" transform="scale(0.015625)"/>
       <path id="ArialMT-78" d="M 47 0 
L 1259 1725 
L 138 3319 
L 841 3319 
L 1350 2541 
Q 1494 2319 1581 2169 
Q 1719 2375 1834 2534 
L 2394 3319 
L 3066 3319 
L 1919 1756 
L 3153 0 
L 2463 0 
L 1781 1031 
L 1600 1309 
L 728 0 
L 47 0 
z
" transform="scale(0.015625)"/>
       <path id="ArialMT-43" d="M 3763 1606 
L 4369 1453 
Q 4178 706 3683 314 
Q 3188 -78 2472 -78 
Q 1731 -78 1267 223 
Q 803 525 561 1097 
Q 319 1669 319 2325 
Q 319 3041 592 3573 
Q 866 4106 1370 4382 
Q 1875 4659 2481 4659 
Q 3169 4659 3637 4309 
Q 4106 3959 4291 3325 
L 3694 3184 
Q 3534 3684 3231 3912 
Q 2928 4141 2469 4141 
Q 1941 4141 1586 3887 
Q 1231 3634 1087 3207 
Q 944 2781 944 2328 
Q 944 1744 1114 1308 
Q 1284 872 1643 656 
Q 2003 441 2422 441 
Q 2931 441 3284 734 
Q 3638 1028 3763 1606 
z
" transform="scale(0.015625)"/>
       <path id="ArialMT-5f" d="M -97 -1272 
L -97 -866 
L 3631 -866 
L 3631 -1272 
L -97 -1272 
z
" transform="scale(0.015625)"/>
       <path id="ArialMT-72" d="M 416 0 
L 416 3319 
L 922 3319 
L 922 2816 
Q 1116 3169 1280 3281 
Q 1444 3394 1641 3394 
Q 1925 3394 2219 3213 
L 2025 2691 
Q 1819 2813 1613 2813 
Q 1428 2813 1281 2702 
Q 1134 2591 1072 2394 
Q 978 2094 978 1738 
L 978 0 
L 416 0 
z
" transform="scale(0.015625)"/>
       <path id="ArialMT-61" d="M 2588 409 
Q 2275 144 1986 34 
Q 1697 -75 1366 -75 
Q 819 -75 525 192 
Q 231 459 231 875 
Q 231 1119 342 1320 
Q 453 1522 633 1644 
Q 813 1766 1038 1828 
Q 1203 1872 1538 1913 
Q 2219 1994 2541 2106 
Q 2544 2222 2544 2253 
Q 2544 2597 2384 2738 
Q 2169 2928 1744 2928 
Q 1347 2928 1158 2789 
Q 969 2650 878 2297 
L 328 2372 
Q 403 2725 575 2942 
Q 747 3159 1072 3276 
Q 1397 3394 1825 3394 
Q 2250 3394 2515 3294 
Q 2781 3194 2906 3042 
Q 3031 2891 3081 2659 
Q 3109 2516 3109 2141 
L 3109 1391 
Q 3109 606 3145 398 
Q 3181 191 3288 0 
L 2700 0 
Q 2613 175 2588 409 
z
M 2541 1666 
Q 2234 1541 1622 1453 
Q 1275 1403 1131 1340 
Q 988 1278 909 1158 
Q 831 1038 831 891 
Q 831 666 1001 516 
Q 1172 366 1500 366 
Q 1825 366 2078 508 
Q 2331 650 2450 897 
Q 2541 1088 2541 1459 
L 2541 1666 
z
" transform="scale(0.015625)"/>
      </defs>
      <use xlink:href="#ArialMT-48"/>
      <use xlink:href="#ArialMT-65" x="72.216797"/>
      <use xlink:href="#ArialMT-6c" x="127.832031"/>
      <use xlink:href="#ArialMT-69" x="150.048828"/>
      <use xlink:href="#ArialMT-78" x="172.265625"/>
      <use xlink:href="#ArialMT-2d" x="222.265625"/>
      <use xlink:href="#ArialMT-43" x="255.566406"/>
      <use xlink:href="#ArialMT-6f" x="327.783203"/>
      <use xlink:href="#ArialMT-69" x="383.398438"/>
      <use xlink:href="#ArialMT-6c" x="405.615234"/>
      <use xlink:href="#ArialMT-5f" x="427.832031"/>
      <use xlink:href="#ArialMT-74" x="483.447266"/>
      <use xlink:href="#ArialMT-72" x="511.230469"/>
      <use xlink:href="#ArialMT-61" x="544.53125"/>
      <use xlink:href="#ArialMT-6e" x="600.146484"/>
      <use xlink:href="#ArialMT-73" x="655.761719"/>
      <use xlink:href="#ArialMT-69" x="705.761719"/>
      <use xlink:href="#ArialMT-74" x="727.978516"/>
      <use xlink:href="#ArialMT-69" x="755.761719"/>
      <use xlink:href="#ArialMT-6f" x="777.978516"/>
      <use xlink:href="#ArialMT-6e" x="833.59375"/>
     </g>
    </g>
   </g>
   <g id="line2d_31">
    <path d="M 62.584815 165.993105 
L 64.214607 170.783777 
L 65.844399 165.352018 
L 67.474191 165.484898 
L 69.103983 164.259449 
L 70.733775 167.609423 
L 72.363567 168.066343 
L 73.993359 166.718894 
L 75.62315 165.791066 
L 77.252942 160.71987 
L 78.882734 159.865086 
L 80.512526 162.058771 
L 82.142318 163.480043 
L 85.401902 159.248088 
L 87.031694 158.534733 
L 88.661486 158.816811 
L 90.291278 156.708605 
L 91.921069 153.754163 
L 93.550861 155.877134 
L 95.180653 159.150954 
L 96.810445 156.950275 
L 98.440237 157.439056 
L 100.070029 158.673052 
L 101.699821 159.339006 
L 103.329613 154.873929 
L 104.959405 153.812444 
L 106.589197 152.517836 
L 108.218988 153.703653 
L 109.84878 149.223812 
L 111.478572 149.103365 
L 113.108364 147.891127 
L 114.738156 143.164952 
L 116.367948 146.004387 
L 117.99774 150.387871 
L 119.627532 145.35786 
L 121.257324 151.100449 
L 122.887115 150.734447 
L 124.516907 146.403804 
L 126.146699 144.405942 
L 127.776491 147.229835 
L 129.406283 146.982725 
L 131.036075 145.662474 
L 132.665867 149.554069 
L 134.295659 149.522986 
L 135.925451 147.550768 
L 137.555243 144.542708 
L 139.185034 146.323765 
L 140.814826 139.666558 
L 142.444618 142.249557 
L 144.07441 139.274134 
L 145.704202 143.501426 
L 147.333994 143.475006 
L 148.963786 141.730471 
L 152.22337 133.904541 
L 153.853161 133.892885 
L 155.482953 134.086377 
L 157.112745 134.938052 
L 158.742537 139.10784 
L 160.372329 134.303958 
L 162.002121 130.009061 
L 163.631913 128.793714 
L 165.261705 129.622854 
L 166.891497 132.513576 
L 168.521289 130.058016 
L 170.15108 129.118532 
L 171.780872 129.815569 
L 173.410664 133.106484 
L 175.040456 126.314066 
L 176.670248 128.931257 
L 178.30004 122.69367 
L 179.929832 120.193817 
L 181.559624 121.90183 
L 183.189416 123.410911 
L 184.819207 121.38352 
L 186.448999 121.171379 
L 188.078791 118.647437 
L 189.708583 117.026457 
L 191.338375 118.65987 
L 192.968167 119.611788 
L 194.597959 121.653166 
L 196.227751 122.169921 
L 197.857543 117.997024 
L 199.487335 115.912907 
L 201.117126 115.048022 
L 202.746918 112.161963 
L 204.37671 117.150789 
L 206.006502 115.070557 
L 207.636294 111.06007 
L 209.266086 109.724276 
L 210.895878 113.401399 
L 212.52567 109.120489 
L 214.155462 109.246375 
L 215.785253 105.681929 
L 217.415045 105.234333 
L 219.044837 105.066485 
L 220.674629 109.512912 
L 222.304421 107.546133 
L 223.934213 107.23608 
L 225.564005 103.852692 
L 227.193797 109.651231 
L 228.823589 107.290475 
L 230.453381 105.739432 
L 232.083172 104.897082 
L 233.712964 105.398296 
L 235.342756 100.715638 
L 236.972548 95.305637 
L 238.60234 96.015107 
L 240.232132 98.042497 
L 241.861924 98.34478 
L 245.121508 98.179263 
L 246.751299 93.181112 
L 248.381091 87.061641 
L 250.010883 95.146336 
L 251.640675 88.451829 
L 253.270467 86.043671 
L 254.900259 90.777617 
L 256.530051 88.00501 
L 258.159843 89.690488 
L 259.789635 88.591703 
L 263.049218 82.170726 
L 264.67901 80.357808 
L 266.308802 76.925465 
L 267.938594 75.747418 
L 269.568386 82.825024 
L 271.198178 86.45863 
L 272.82797 81.017546 
L 274.457762 78.509922 
L 276.087554 83.736534 
L 277.717345 81.099139 
L 279.347137 81.158196 
L 280.976929 80.001131 
L 282.606721 73.127119 
L 284.236513 72.491471 
L 285.866305 72.832607 
L 287.496097 73.012889 
L 289.125889 78.811428 
L 290.755681 78.273691 
L 292.385473 75.814247 
L 294.015264 72.019009 
L 295.645056 66.926055 
L 297.274848 62.984727 
L 298.90464 63.444756 
L 300.534432 60.523728 
L 302.164224 60.137521 
L 303.794016 65.901869 
L 305.423808 69.112746 
L 307.0536 69.126733 
L 308.683391 68.289046 
L 310.313183 54.426015 
L 311.942975 52.785608 
L 313.572767 49.777548 
L 315.202559 39.77503 
L 316.832351 39.691106 
L 318.462143 42.664974 
L 320.091935 46.359192 
L 321.721727 50.692166 
L 323.351519 56.333736 
L 324.98131 55.908675 
L 326.611102 53.634175 
L 328.240894 52.464676 
L 329.870686 60.795705 
L 331.500478 73.246012 
L 333.13027 72.581612 
L 334.760062 67.405511 
L 336.389854 66.845239 
L 338.019646 79.253584 
L 339.649437 98.892618 
L 341.279229 121.359431 
L 342.909021 149.960479 
L 344.538813 165.344247 
L 346.168605 146.298122 
L 347.798397 94.945851 
L 349.428189 62.508379 
L 351.057981 47.172013 
L 352.687773 39.809998 
L 354.317565 41.939186 
L 357.577148 54.462538 
L 359.20694 54.410474 
L 360.836732 58.94471 
L 362.466524 60.902164 
L 364.096316 55.625043 
L 365.726108 44.566478 
L 367.3559 35.795625 
L 368.985692 36.498101 
L 370.615483 54.629609 
L 372.245275 61.350537 
L 373.875067 59.021641 
L 375.504859 64.509349 
L 377.134651 64.579286 
L 378.764443 86.844836 
L 380.394235 80.27233 
L 382.024027 47.655354 
L 383.653819 74.544505 
L 385.283611 85.857173 
L 386.913402 167.708889 
L 388.543194 312.995625 
L 390.172986 281.67248 
L 391.802778 245.250942 
L 393.43257 127.293181 
L 395.062362 123.121062 
L 396.692154 87.796754 
L 398.321946 80.806958 
L 399.951738 84.086218 
L 401.581529 81.261547 
L 403.211321 81.876991 
L 404.841113 83.361206 
L 406.470905 75.450575 
L 408.100697 66.399198 
L 409.730489 68.447569 
L 411.360281 67.922266 
L 412.990073 69.333435 
L 414.619865 61.149274 
L 416.249657 58.058067 
L 417.879448 75.074471 
L 419.50924 81.922062 
L 421.139032 78.520024 
L 422.768824 65.983462 
L 424.398616 71.441642 
L 426.028408 82.892629 
L 427.6582 88.699716 
L 429.287992 93.628707 
L 430.917784 79.997245 
L 432.547575 69.781031 
L 434.177367 79.279227 
L 435.807159 98.425596 
L 437.436951 89.788399 
L 439.066743 79.761791 
L 440.696535 79.763346 
L 442.326327 90.731769 
L 443.956119 94.966832 
L 445.585911 96.536525 
L 447.215703 100.469305 
L 448.845494 96.042304 
L 450.475286 87.910207 
L 452.105078 93.005493 
L 453.73487 95.412096 
L 455.364662 88.385 
L 456.994454 84.367519 
L 458.624246 76.295257 
L 460.254038 76.819783 
L 461.88383 71.797542 
L 463.513621 67.507307 
L 465.143413 72.075736 
L 466.773205 74.179279 
L 468.402997 79.44863 
L 468.402997 79.44863 
" clip-path="url(#pa7dfcd656c)" style="fill: none; stroke: #0272a2; stroke-width: 1.75; stroke-linecap: round"/>
   </g>
   <g id="line2d_32">
    <path d="M 62.584815 281.735475 
L 64.214607 280.130768 
L 65.844399 278.058617 
L 67.474191 281.425545 
L 69.103983 280.131278 
L 70.733775 279.766804 
L 72.363567 279.191291 
L 73.993359 277.24301 
L 75.62315 277.987251 
L 77.252942 276.949391 
L 78.882734 281.109497 
L 80.512526 278.085124 
L 82.142318 281.203801 
L 83.77211 278.791644 
L 85.401902 279.665363 
L 87.031694 277.992349 
L 88.661486 278.859441 
L 90.291278 279.362568 
L 91.921069 276.457478 
L 93.550861 284.381101 
L 95.180653 280.071637 
L 96.810445 279.372254 
L 98.440237 281.74669 
L 100.070029 277.74053 
L 101.699821 279.080674 
L 103.329613 276.948372 
L 104.959405 278.157509 
L 106.589197 275.882985 
L 108.218988 279.93961 
L 109.84878 280.808232 
L 111.478572 279.405898 
L 113.108364 279.951845 
L 114.738156 281.428603 
L 116.367948 277.628384 
L 117.99774 277.766527 
L 119.627532 277.000367 
L 121.257324 278.150372 
L 122.887115 280.87348 
L 124.516907 278.553078 
L 126.146699 280.234758 
L 127.776491 276.39121 
L 129.406283 278.580605 
L 131.036075 280.456501 
L 132.665867 277.658969 
L 134.295659 279.221876 
L 135.925451 281.530044 
L 137.555243 275.462438 
L 139.185034 275.425225 
L 140.814826 278.90226 
L 142.444618 278.636678 
L 144.07441 282.123908 
L 145.704202 282.023486 
L 147.333994 279.354922 
L 148.963786 279.231562 
L 150.593578 283.749005 
L 152.22337 280.281656 
L 153.853161 279.159686 
L 155.482953 281.394959 
L 157.112745 280.981039 
L 158.742537 279.987527 
L 160.372329 275.045968 
L 162.002121 279.884557 
L 163.631913 279.735709 
L 165.261705 281.285872 
L 166.891497 281.898597 
L 168.521289 281.726809 
L 170.15108 279.386017 
L 171.780872 273.370915 
L 173.410664 277.721669 
L 175.040456 278.636168 
L 176.670248 280.638993 
L 178.30004 280.207231 
L 179.929832 281.264972 
L 181.559624 279.5053 
L 183.189416 274.775289 
L 184.819207 276.921864 
L 186.448999 277.721669 
L 188.078791 276.390191 
L 189.708583 282.549043 
L 191.338375 276.887711 
L 192.968167 281.506086 
L 194.597959 278.88238 
L 196.227751 278.947119 
L 197.857543 281.760963 
L 199.487335 277.708415 
L 201.117126 276.774036 
L 202.746918 280.927514 
L 204.37671 277.375546 
L 206.006502 276.656282 
L 207.636294 280.095086 
L 209.266086 282.311498 
L 210.895878 280.12669 
L 212.52567 280.568138 
L 214.155462 277.880712 
L 215.785253 280.954022 
L 217.415045 279.929925 
L 219.044837 277.260341 
L 220.674629 276.45442 
L 222.304421 283.017508 
L 223.934213 278.294123 
L 225.564005 279.364607 
L 227.193797 284.336242 
L 228.823589 283.909578 
L 230.453381 280.117515 
L 232.083172 277.256263 
L 233.712964 276.729177 
L 235.342756 282.361454 
L 236.972548 282.356356 
L 238.60234 278.248755 
L 240.232132 282.692794 
L 241.861924 282.40988 
L 243.491716 281.596822 
L 245.121508 275.33296 
L 246.751299 274.424578 
L 248.381091 281.313908 
L 250.010883 281.794607 
L 253.270467 279.975293 
L 254.900259 279.60878 
L 256.530051 275.874829 
L 258.159843 279.233091 
L 259.789635 278.460303 
L 261.419427 279.357471 
L 263.049218 275.956899 
L 264.67901 280.350982 
L 266.308802 279.069969 
L 267.938594 279.244305 
L 269.568386 281.78747 
L 271.198178 284.952535 
L 272.82797 279.820328 
L 274.457762 280.758786 
L 276.087554 280.628798 
L 277.717345 280.87399 
L 279.347137 280.122612 
L 280.976929 280.601272 
L 282.606721 279.073028 
L 284.236513 278.209504 
L 285.866305 278.368038 
L 287.496097 280.326004 
L 289.125889 280.404506 
L 290.755681 276.718472 
L 292.385473 279.477263 
L 294.015264 278.377213 
L 295.645056 280.141473 
L 297.274848 282.47207 
L 298.90464 282.544965 
L 300.534432 278.163116 
L 302.164224 280.281656 
L 303.794016 282.595941 
L 305.423808 280.286753 
L 307.0536 279.751001 
L 308.683391 280.879598 
L 310.313183 278.124885 
L 311.942975 274.594836 
L 313.572767 279.415073 
L 315.202559 280.52124 
L 316.832351 280.982568 
L 318.462143 279.056206 
L 320.091935 280.079793 
L 321.721727 278.834973 
L 323.351519 277.971958 
L 324.98131 280.041052 
L 326.611102 279.112279 
L 328.240894 280.682832 
L 329.870686 279.427307 
L 331.500478 277.82413 
L 333.13027 278.267106 
L 334.760062 282.820233 
L 336.389854 278.988409 
L 338.019646 280.847483 
L 339.649437 279.017974 
L 341.279229 279.52569 
L 342.909021 277.110474 
L 344.538813 282.94971 
L 347.798397 280.305104 
L 349.428189 280.637974 
L 351.057981 278.800309 
L 352.687773 276.655263 
L 355.947356 277.784879 
L 357.577148 277.127295 
L 359.20694 277.065615 
L 360.836732 279.273871 
L 362.466524 282.881913 
L 364.096316 283.190314 
L 365.726108 283.69752 
L 367.3559 280.726161 
L 368.985692 278.665224 
L 370.615483 281.501498 
L 372.245275 278.960372 
L 373.875067 276.984054 
L 375.504859 279.246854 
L 377.134651 280.393802 
L 378.764443 280.433562 
L 380.394235 277.489221 
L 382.024027 279.182115 
L 383.653819 279.008799 
L 385.283611 277.973488 
L 386.913402 278.981272 
L 388.543194 277.38778 
L 390.172986 281.612115 
L 391.802778 282.757533 
L 393.43257 280.638484 
L 395.062362 278.328277 
L 396.692154 278.185546 
L 398.321946 280.719535 
L 399.951738 281.141102 
L 401.581529 277.464753 
L 403.211321 278.873204 
L 404.841113 281.635054 
L 406.470905 281.16608 
L 408.100697 279.993644 
L 409.730489 280.29287 
L 411.360281 281.789509 
L 412.990073 278.413406 
L 414.619865 277.131883 
L 416.249657 278.166175 
L 417.879448 281.693166 
L 419.50924 278.004073 
L 421.139032 275.724451 
L 422.768824 280.762354 
L 424.398616 280.877559 
L 426.028408 279.327395 
L 427.6582 279.099025 
L 429.287992 279.98294 
L 430.917784 276.995779 
L 432.547575 279.861618 
L 434.177367 278.938453 
L 435.807159 279.17294 
L 437.436951 279.055696 
L 439.066743 280.129239 
L 440.696535 280.541121 
L 442.326327 279.859069 
L 443.956119 282.92983 
L 445.585911 277.842991 
L 447.215703 278.317062 
L 448.845494 276.188838 
L 450.475286 275.977289 
L 452.105078 279.684733 
L 453.73487 279.915652 
L 455.364662 277.639599 
L 456.994454 275.947724 
L 458.624246 277.394407 
L 460.254038 278.992487 
L 461.88383 277.160429 
L 463.513621 281.960277 
L 465.143413 276.519158 
L 466.773205 278.957314 
L 468.402997 280.663971 
L 468.402997 280.663971 
" clip-path="url(#pa7dfcd656c)" style="fill: none; stroke-dasharray: 1.75,2.8875; stroke-dashoffset: 0; stroke: #9fc377; stroke-width: 1.75"/>
   </g>
   <g id="patch_3">
    <path d="M 42.293906 326.855625 
L 42.293906 21.935625 
" style="fill: none; stroke: #cccccc; stroke-width: 1.25; stroke-linejoin: miter; stroke-linecap: square"/>
   </g>
   <g id="patch_4">
    <path d="M 488.693906 326.855625 
L 488.693906 21.935625 
" style="fill: none; stroke: #cccccc; stroke-width: 1.25; stroke-linejoin: miter; stroke-linecap: square"/>
   </g>
   <g id="patch_5">
    <path d="M 42.293906 326.855625 
L 488.693906 326.855625 
" style="fill: none; stroke: #cccccc; stroke-width: 1.25; stroke-linejoin: miter; stroke-linecap: square"/>
   </g>
   <g id="patch_6">
    <path d="M 42.293906 21.935625 
L 488.693906 21.935625 
" style="fill: none; stroke: #cccccc; stroke-width: 1.25; stroke-linejoin: miter; stroke-linecap: square"/>
   </g>
   <g id="text_33">
    <!-- "Helix-Coil_transition" for dataset Mouse_non_tata -->
    <g style="fill: #262626" transform="translate(131.504531 15.935625) scale(0.12 -0.12)">
     <defs>
      <path id="ArialMT-22" d="M 450 2959 
L 294 3831 
L 294 4581 
L 934 4581 
L 934 3831 
L 794 2959 
L 450 2959 
z
M 1484 2959 
L 1331 3831 
L 1331 4581 
L 1972 4581 
L 1972 3831 
L 1822 2959 
L 1484 2959 
z
" transform="scale(0.015625)"/>
      <path id="ArialMT-20" transform="scale(0.015625)"/>
      <path id="ArialMT-66" d="M 556 0 
L 556 2881 
L 59 2881 
L 59 3319 
L 556 3319 
L 556 3672 
Q 556 4006 616 4169 
Q 697 4388 901 4523 
Q 1106 4659 1475 4659 
Q 1713 4659 2000 4603 
L 1916 4113 
Q 1741 4144 1584 4144 
Q 1328 4144 1222 4034 
Q 1116 3925 1116 3625 
L 1116 3319 
L 1763 3319 
L 1763 2881 
L 1116 2881 
L 1116 0 
L 556 0 
z
" transform="scale(0.015625)"/>
      <path id="ArialMT-64" d="M 2575 0 
L 2575 419 
Q 2259 -75 1647 -75 
Q 1250 -75 917 144 
Q 584 363 401 755 
Q 219 1147 219 1656 
Q 219 2153 384 2558 
Q 550 2963 881 3178 
Q 1213 3394 1622 3394 
Q 1922 3394 2156 3267 
Q 2391 3141 2538 2938 
L 2538 4581 
L 3097 4581 
L 3097 0 
L 2575 0 
z
M 797 1656 
Q 797 1019 1065 703 
Q 1334 388 1700 388 
Q 2069 388 2326 689 
Q 2584 991 2584 1609 
Q 2584 2291 2321 2609 
Q 2059 2928 1675 2928 
Q 1300 2928 1048 2622 
Q 797 2316 797 1656 
z
" transform="scale(0.015625)"/>
      <path id="ArialMT-4d" d="M 475 0 
L 475 4581 
L 1388 4581 
L 2472 1338 
Q 2622 884 2691 659 
Q 2769 909 2934 1394 
L 4031 4581 
L 4847 4581 
L 4847 0 
L 4263 0 
L 4263 3834 
L 2931 0 
L 2384 0 
L 1059 3900 
L 1059 0 
L 475 0 
z
" transform="scale(0.015625)"/>
      <path id="ArialMT-75" d="M 2597 0 
L 2597 488 
Q 2209 -75 1544 -75 
Q 1250 -75 995 37 
Q 741 150 617 320 
Q 494 491 444 738 
Q 409 903 409 1263 
L 409 3319 
L 972 3319 
L 972 1478 
Q 972 1038 1006 884 
Q 1059 663 1231 536 
Q 1403 409 1656 409 
Q 1909 409 2131 539 
Q 2353 669 2445 892 
Q 2538 1116 2538 1541 
L 2538 3319 
L 3100 3319 
L 3100 0 
L 2597 0 
z
" transform="scale(0.015625)"/>
     </defs>
     <use xlink:href="#ArialMT-22"/>
     <use xlink:href="#ArialMT-48" x="35.498047"/>
     <use xlink:href="#ArialMT-65" x="107.714844"/>
     <use xlink:href="#ArialMT-6c" x="163.330078"/>
     <use xlink:href="#ArialMT-69" x="185.546875"/>
     <use xlink:href="#ArialMT-78" x="207.763672"/>
     <use xlink:href="#ArialMT-2d" x="257.763672"/>
     <use xlink:href="#ArialMT-43" x="291.064453"/>
     <use xlink:href="#ArialMT-6f" x="363.28125"/>
     <use xlink:href="#ArialMT-69" x="418.896484"/>
     <use xlink:href="#ArialMT-6c" x="441.113281"/>
     <use xlink:href="#ArialMT-5f" x="463.330078"/>
     <use xlink:href="#ArialMT-74" x="518.945312"/>
     <use xlink:href="#ArialMT-72" x="546.728516"/>
     <use xlink:href="#ArialMT-61" x="580.029297"/>
     <use xlink:href="#ArialMT-6e" x="635.644531"/>
     <use xlink:href="#ArialMT-73" x="691.259766"/>
     <use xlink:href="#ArialMT-69" x="741.259766"/>
     <use xlink:href="#ArialMT-74" x="763.476562"/>
     <use xlink:href="#ArialMT-69" x="791.259766"/>
     <use xlink:href="#ArialMT-6f" x="813.476562"/>
     <use xlink:href="#ArialMT-6e" x="869.091797"/>
     <use xlink:href="#ArialMT-22" x="924.707031"/>
     <use xlink:href="#ArialMT-20" x="960.205078"/>
     <use xlink:href="#ArialMT-66" x="987.988281"/>
     <use xlink:href="#ArialMT-6f" x="1015.771484"/>
     <use xlink:href="#ArialMT-72" x="1071.386719"/>
     <use xlink:href="#ArialMT-20" x="1104.6875"/>
     <use xlink:href="#ArialMT-64" x="1132.470703"/>
     <use xlink:href="#ArialMT-61" x="1188.085938"/>
     <use xlink:href="#ArialMT-74" x="1243.701172"/>
     <use xlink:href="#ArialMT-61" x="1271.484375"/>
     <use xlink:href="#ArialMT-73" x="1327.099609"/>
     <use xlink:href="#ArialMT-65" x="1377.099609"/>
     <use xlink:href="#ArialMT-74" x="1432.714844"/>
     <use xlink:href="#ArialMT-20" x="1460.498047"/>
     <use xlink:href="#ArialMT-4d" x="1488.28125"/>
     <use xlink:href="#ArialMT-6f" x="1571.582031"/>
     <use xlink:href="#ArialMT-75" x="1627.197266"/>
     <use xlink:href="#ArialMT-73" x="1682.8125"/>
     <use xlink:href="#ArialMT-65" x="1732.8125"/>
     <use xlink:href="#ArialMT-5f" x="1788.427734"/>
     <use xlink:href="#ArialMT-6e" x="1844.042969"/>
     <use xlink:href="#ArialMT-6f" x="1899.658203"/>
     <use xlink:href="#ArialMT-6e" x="1955.273438"/>
     <use xlink:href="#ArialMT-5f" x="2010.888672"/>
     <use xlink:href="#ArialMT-74" x="2066.503906"/>
     <use xlink:href="#ArialMT-61" x="2094.287109"/>
     <use xlink:href="#ArialMT-74" x="2149.902344"/>
     <use xlink:href="#ArialMT-61" x="2177.685547"/>
    </g>
   </g>
   <g id="legend_1">
    <g id="line2d_33">
     <path d="M 51.293906 34.593437 
L 61.293906 34.593437 
L 71.293906 34.593437 
" style="fill: none; stroke: #0272a2; stroke-width: 1.75; stroke-linecap: round"/>
    </g>
    <g id="text_34">
     <!-- Promoter -->
     <g style="fill: #262626" transform="translate(79.293906 38.093437) scale(0.1 -0.1)">
      <defs>
       <path id="ArialMT-6d" d="M 422 0 
L 422 3319 
L 925 3319 
L 925 2853 
Q 1081 3097 1340 3245 
Q 1600 3394 1931 3394 
Q 2300 3394 2536 3241 
Q 2772 3088 2869 2813 
Q 3263 3394 3894 3394 
Q 4388 3394 4653 3120 
Q 4919 2847 4919 2278 
L 4919 0 
L 4359 0 
L 4359 2091 
Q 4359 2428 4304 2576 
Q 4250 2725 4106 2815 
Q 3963 2906 3769 2906 
Q 3419 2906 3187 2673 
Q 2956 2441 2956 1928 
L 2956 0 
L 2394 0 
L 2394 2156 
Q 2394 2531 2256 2718 
Q 2119 2906 1806 2906 
Q 1569 2906 1367 2781 
Q 1166 2656 1075 2415 
Q 984 2175 984 1722 
L 984 0 
L 422 0 
z
" transform="scale(0.015625)"/>
      </defs>
      <use xlink:href="#ArialMT-50"/>
      <use xlink:href="#ArialMT-72" x="66.699219"/>
      <use xlink:href="#ArialMT-6f" x="100"/>
      <use xlink:href="#ArialMT-6d" x="155.615234"/>
      <use xlink:href="#ArialMT-6f" x="238.916016"/>
      <use xlink:href="#ArialMT-74" x="294.53125"/>
      <use xlink:href="#ArialMT-65" x="322.314453"/>
      <use xlink:href="#ArialMT-72" x="377.929688"/>
     </g>
    </g>
    <g id="line2d_34">
     <path d="M 51.293906 48.73875 
L 61.293906 48.73875 
L 71.293906 48.73875 
" style="fill: none; stroke-dasharray: 1.75,2.8875; stroke-dashoffset: 0; stroke: #9fc377; stroke-width: 1.75"/>
    </g>
    <g id="text_35">
     <!-- Non-promoter -->
     <g style="fill: #262626" transform="translate(79.293906 52.23875) scale(0.1 -0.1)">
      <defs>
       <path id="ArialMT-4e" d="M 488 0 
L 488 4581 
L 1109 4581 
L 3516 984 
L 3516 4581 
L 4097 4581 
L 4097 0 
L 3475 0 
L 1069 3600 
L 1069 0 
L 488 0 
z
" transform="scale(0.015625)"/>
       <path id="ArialMT-70" d="M 422 -1272 
L 422 3319 
L 934 3319 
L 934 2888 
Q 1116 3141 1344 3267 
Q 1572 3394 1897 3394 
Q 2322 3394 2647 3175 
Q 2972 2956 3137 2557 
Q 3303 2159 3303 1684 
Q 3303 1175 3120 767 
Q 2938 359 2589 142 
Q 2241 -75 1856 -75 
Q 1575 -75 1351 44 
Q 1128 163 984 344 
L 984 -1272 
L 422 -1272 
z
M 931 1641 
Q 931 1000 1190 694 
Q 1450 388 1819 388 
Q 2194 388 2461 705 
Q 2728 1022 2728 1688 
Q 2728 2322 2467 2637 
Q 2206 2953 1844 2953 
Q 1484 2953 1207 2617 
Q 931 2281 931 1641 
z
" transform="scale(0.015625)"/>
      </defs>
      <use xlink:href="#ArialMT-4e"/>
      <use xlink:href="#ArialMT-6f" x="72.216797"/>
      <use xlink:href="#ArialMT-6e" x="127.832031"/>
      <use xlink:href="#ArialMT-2d" x="183.447266"/>
      <use xlink:href="#ArialMT-70" x="216.748047"/>
      <use xlink:href="#ArialMT-72" x="272.363281"/>
      <use xlink:href="#ArialMT-6f" x="305.664062"/>
      <use xlink:href="#ArialMT-6d" x="361.279297"/>
      <use xlink:href="#ArialMT-6f" x="444.580078"/>
      <use xlink:href="#ArialMT-74" x="500.195312"/>
      <use xlink:href="#ArialMT-65" x="527.978516"/>
      <use xlink:href="#ArialMT-72" x="583.59375"/>
     </g>
    </g>
   </g>
  </g>
 </g>
 <defs>
  <clipPath id="pa7dfcd656c">
   <rect x="42.293906" y="21.935625" width="446.4" height="304.92"/>
  </clipPath>
 </defs>
</svg>
